<?xml version="1.0" encoding="UTF-8"?>
<!-- Created with Inkscape (http://www.inkscape.org/) -->
<svg width="64" height="64" version="1.1" viewBox="0 0 16.933 16.933" xmlns="http://www.w3.org/2000/svg" xmlns:cc="http://creativecommons.org/ns#" xmlns:dc="http://purl.org/dc/elements/1.1/" xmlns:rdf="http://www.w3.org/1999/02/22-rdf-syntax-ns#">
 <defs>
  <linearGradient id="linearGradient938-7" x1="-23.256" x2="-7.173" y1="16.496" y2="16.496" gradientUnits="userSpaceOnUse">
   <stop stop-color="#3caf96" offset="0"/>
   <stop stop-color="#413c82" offset="1"/>
  </linearGradient>
 </defs>
 <metadata>
  <rdf:RDF>
   <cc:Work rdf:about="">
    <dc:format>image/svg+xml</dc:format>
    <dc:type rdf:resource="http://purl.org/dc/dcmitype/StillImage"/>
    <dc:title/>
   </cc:Work>
  </rdf:RDF>
 </metadata>
 <g fill="#5e4aa6" stroke-width=".26458">
  <circle cx="-330.35" cy="-328.38" r="0"/>
  <circle cx="-330.17" cy="-334.81" r="0"/>
  <circle cx="-307.74" cy="-329.29" r="0"/>
 </g>
 <g transform="translate(7.873e-5,-2.8443e-5)">
  <g fill="#5e4aa6" stroke-width=".26458">
   <circle cx="-330.35" cy="-328.38" r="0"/>
   <circle cx="-312.11" cy="-326.25" r="0"/>
   <circle cx="-306.02" cy="-333.07" r="0"/>
   <circle cx="-308.84" cy="-326.01" r="0"/>
   <circle cx="-328.8" cy="-330.45" r="0"/>
  </g>
  <g transform="matrix(1 0 0 .99334 .00042127 .056465)">
   <g transform="translate(-20.449,-4.879)">
    <g transform="translate(44.129,-3.151)" fill-rule="evenodd">
     <rect x="-18.961" y="11.065" width="11.087" height="8.1683" ry=".53121" fill="#373773" style="paint-order:stroke fill markers"/>
     <path d="m-22.424 10.104c-0.46063 0-0.83146 0.37082-0.83146 0.83146v11.122c0 0.46063 0.37082 0.83146 0.83146 0.83146h14.42c0.46063 0 0.83146-0.37082 0.83146-0.83146v-7.5211c-3.35e-4 -0.22982-0.092859-0.43702-0.24287-0.58703-0.15029-0.15029-0.35827-0.24339-0.58858-0.24339h-6.6708c-0.52261 0-1.1422-0.37082-1.389-0.83146l-2.0288-2.7705z" fill="url(#linearGradient938-7)" style="paint-order:stroke fill markers"/>
    </g>
    <rect x="22.354" y="10.026" width="4.238" height=".52916" rx=".20928" ry=".26458" fill="#373773" stroke-width=".91817" style="paint-order:fill markers stroke"/>
   </g>
   <g transform="matrix(0 -.05405 -.054071 0 29.736 31.88)" enable-background="new" fill="#373773">
    <path d="m417.99 353.36h12.005v12.011z" color="#000000" enable-background="accumulate"/>
    <path d="m403.99 433.36h-54.021l-1.5e-4 -52h4.0016l1.5e-4 47.988 54.021 0.0117zm4.0016-76-58.023 2e-5v-4.0117l54.022 0.0117z"/>
    <path d="m395.38 341.93-2.7949 2.8613 49.554 48.57-49.554 48.568 2.7949 2.8613 52.486-51.432z" color="#000000" color-rendering="auto" enable-background="accumulate" image-rendering="auto" shape-rendering="auto" solid-color="#000000" style="font-feature-settings:normal;font-variant-alternates:normal;font-variant-caps:normal;font-variant-ligatures:none;font-variant-numeric:normal;font-variant-position:normal;isolation:auto;mix-blend-mode:normal;shape-padding:0;text-decoration-color:#000000;text-decoration-line:none;text-decoration-style:solid;text-indent:0;text-transform:none;white-space:normal"/>
    <path d="m388.75 397.36c0.2538-1.0158 0.5239-2.3651 0.80985-4.0476 0.28572-1.6825 0.42858-3.619 0.42858-5.8095 0-1.9682-0.28571-3.6032-0.85748-4.9048-0.5399-1.3016-1.318-2.3333-2.3343-3.0952-0.98451-0.79367-2.1755-1.3492-3.5728-1.6667-1.3974-0.31762-2.9376-0.47618-4.6208-0.47618h-28.63l1.9e-4 20z"/>
   </g>
  </g>
 </g>
</svg>
