<?xml version="1.0" encoding="UTF-8"?>
<!-- Created with Inkscape (http://www.inkscape.org/) -->
<svg width="64" height="64" version="1.1" viewBox="0 0 16.933 16.933" xmlns="http://www.w3.org/2000/svg" xmlns:cc="http://creativecommons.org/ns#" xmlns:dc="http://purl.org/dc/elements/1.1/" xmlns:rdf="http://www.w3.org/1999/02/22-rdf-syntax-ns#">
 <defs>
  <filter id="filter1066" x="-.063923" y="-.056531" width="1.1278" height="1.1131" color-interpolation-filters="sRGB">
   <feGaussianBlur stdDeviation="0.22705935"/>
  </filter>
  <linearGradient id="linearGradient1040" x1="80.368" x2="82.141" y1="13.177" y2="14.704" gradientTransform="matrix(1.0235 0 0 1.0235 -70.119 -2.4821)" gradientUnits="userSpaceOnUse">
   <stop stop-color="#fafafa" offset="0"/>
   <stop stop-color="#90a0b3" offset="1"/>
  </linearGradient>
  <linearGradient id="linearGradient1166" x1="54.456" x2="54.456" y1="6.4548" y2="11.072" gradientTransform="matrix(4.7669 0 0 4.7669 -229.41 -33.066)" gradientUnits="userSpaceOnUse">
   <stop stop-color="#ffd700" offset="0"/>
   <stop stop-color="#ffb300" offset="1"/>
  </linearGradient>
  <filter id="filter1272" x="-.096004" y="-.096181" width="1.192" height="1.1924" color-interpolation-filters="sRGB">
   <feGaussianBlur stdDeviation="0.39771105"/>
  </filter>
 </defs>
 <metadata>
  <rdf:RDF>
   <cc:Work rdf:about="">
    <dc:format>image/svg+xml</dc:format>
    <dc:type rdf:resource="http://purl.org/dc/dcmitype/StillImage"/>
    <dc:title/>
   </cc:Work>
  </rdf:RDF>
 </metadata>
 <g transform="translate(25.83,-8.897)" fill="#5e4aa6" stroke-width=".26458">
  <circle cx="-322.63" cy="-345.67" r="0"/>
  <circle cx="-31.726" cy="-10.849" r="0" fill-rule="evenodd"/>
  <circle cx="-306.92" cy="-328.72" r="0"/>
 </g>
 <circle cx="8.4665" cy="8.4665" r="7.9373" color="#000000" fill="#f3f3f3" stroke-width=".26458"/>
 <path transform="matrix(.88974 0 0 .97318 -35.753 -4.4827)" d="m57.641 9.8253c0.81583 3.5615-6.4071 9.5974-9.8786 10.551l4.6899-0.01017c4.0983-2.6261 3.5124-2.2804 5.4351-4.4455z" fill="#9cb8d7" filter="url(#filter1272)" opacity=".2"/>
 <path d="m8.3985 0.42362a7.9373 7.9832 0 0 0-7.9373 7.9833 7.9373 7.9832 0 0 0 5.5381 7.6065l0.53277-0.06029c3.7573-1.0394 9.046-4.2555 9.2551-10.46a7.9373 7.9832 0 0 0-7.3886-5.0696zm7.4066 5.1174 0.44544 3.9646a7.9373 7.9832 0 0 0 5.15e-4 -0.00208l-0.44441-3.9579a7.9373 7.9832 0 0 0-0.0015-0.00468z" color="#000000" fill="#fafafa" stroke-width=".26534"/>
 <path d="m1.0222 9.7992 14.158-1.6227" fill="none" stroke="#dcdcdc" stroke-width=".18955"/>
 <path d="m1.8148 12.013 11.367-1.2289" fill="none" stroke="#dcdcdc" stroke-width=".18955"/>
 <path transform="scale(.26458)" d="m42.357 51.693 8.9707-1.0156-0.082031-0.7168-7.7734 0.88281c-0.16396 0.12554-0.30372 0.29278-0.46875 0.41602-0.21081 0.15742-0.4341 0.27981-0.64648 0.43359z" color="#000000" color-rendering="auto" dominant-baseline="auto" fill="#dcdcdc" image-rendering="auto" shape-rendering="auto" solid-color="#000000" style="font-feature-settings:normal;font-variant-alternates:normal;font-variant-caps:normal;font-variant-ligatures:normal;font-variant-numeric:normal;font-variant-position:normal;isolation:auto;mix-blend-mode:normal;shape-padding:0;text-decoration-color:#000000;text-decoration-line:none;text-decoration-style:solid;text-indent:0;text-orientation:mixed;text-transform:none;white-space:normal"/>
 <path transform="scale(.26458)" d="m42.357 51.693c0.21238-0.15378 0.43567-0.27617 0.64648-0.43359 0.16503-0.12324 0.30479-0.29048 0.46875-0.41602l-27.875 2.6234 0.08203 0.70898z" color="#000000" color-rendering="auto" dominant-baseline="auto" fill="#dcdcdc" image-rendering="auto" shape-rendering="auto" solid-color="#000000" style="font-feature-settings:normal;font-variant-alternates:normal;font-variant-caps:normal;font-variant-ligatures:normal;font-variant-numeric:normal;font-variant-position:normal;isolation:auto;mix-blend-mode:normal;shape-padding:0;text-decoration-color:#000000;text-decoration-line:none;text-decoration-style:solid;text-indent:0;text-orientation:mixed;text-transform:none;white-space:normal"/>
 <path d="m0.60022 7.4657 14.8-1.6713" fill="none" stroke="#dcdcdc" stroke-width=".18955"/>
 <g transform="matrix(1.0235 0 0 1.0235 -42.874 -4.0006)" fill="#a0a0a0">
  <circle transform="rotate(-6.5076)" cx="43.141" cy="14.374" r=".1637"/>
  <circle transform="rotate(-6.5076)" cx="44.21" cy="14.374" r=".1637"/>
  <circle transform="rotate(-6.5076)" cx="45.279" cy="14.374" r=".1637"/>
  <circle transform="rotate(-6.5076)" cx="46.348" cy="14.374" r=".1637"/>
  <circle transform="rotate(-6.5076)" cx="47.416" cy="14.374" r=".1637"/>
  <circle transform="rotate(-6.5076)" cx="48.485" cy="14.374" r=".1637"/>
  <circle transform="rotate(-6.5076)" cx="49.554" cy="14.374" r=".1637"/>
  <circle transform="rotate(-6.5076)" cx="50.623" cy="14.374" r=".1637"/>
  <circle transform="rotate(-6.5076)" cx="51.692" cy="14.374" r=".1637"/>
  <circle transform="rotate(-6.5076)" cx="52.761" cy="14.374" r=".1637"/>
  <circle transform="rotate(-6.5076)" cx="54.898" cy="14.374" r=".1637"/>
  <circle transform="rotate(-6.5076)" cx="53.829" cy="14.374" r=".1637"/>
 </g>
 <path d="m13.647 10.763 1.7997-0.20394" fill="none" stroke="#dcdcdc" stroke-width=".18955"/>
 <path transform="matrix(1.0996 0 0 1.0321 -47.674 -4.2296)" d="m57.818 9.8288s0.05354 3.0782-2.6636 4.5408c-2.2449 1.2084 0.9386 2.689-5.8599 5.0989 8.8505-2.5748 8.5235-9.6396 8.5235-9.6396z" fill="#141414" filter="url(#filter1066)" opacity=".3"/>
 <path transform="matrix(1.0685 0 0 .99563 -45.773 -3.5571)" d="m57.818 9.8288s0.05354 3.0782-2.6636 4.5408c-2.2449 1.2084 0.9386 2.689-5.8599 5.0989 8.8505-2.5748 8.5235-9.6396 8.5235-9.6396z" fill="#141414" filter="url(#filter1066)" opacity=".3"/>
 <path d="m15.563 5.8134s0.0548 3.1505-2.7262 4.6475c-2.2976 1.2368 0.96065 2.7522-5.9976 5.2187 9.0584-2.6353 8.7956-9.8302 8.7956-9.8302z" fill="url(#linearGradient1040)" stroke-width="1.0235"/>
 <path d="m15.563 5.8134s-0.19305 3.2013-2.5649 4.5127c-2.7286 1.5087 0.99327 2.857-6.1953 5.2983" fill="none" stroke="#fafafa" stroke-width=".1354"/>
 <path transform="scale(.26458)" d="m31.742 1.6016a30 30.173 0 0 0-26.77 16.566l49.85-5.6289a30 30.173 0 0 0-23.08-10.937z" fill="url(#linearGradient1166)" stroke-width="4.7669"/>
 <path transform="scale(.26458)" d="m59.736 20.943 1.6836 14.984a30 30.173 0 0 0 0.001953-0.007812l-1.6797-14.959a30 30.173 0 0 0-0.003907-0.017579h-0.001953z" color="#000000" fill="#fafafa" stroke-width="1.0029"/>
</svg>
