<?xml version="1.0" encoding="UTF-8"?>
<!-- Created with Inkscape (http://www.inkscape.org/) -->
<svg width="64" height="64" version="1.1" viewBox="0 0 16.933 16.933" xmlns="http://www.w3.org/2000/svg" xmlns:cc="http://creativecommons.org/ns#" xmlns:dc="http://purl.org/dc/elements/1.1/" xmlns:rdf="http://www.w3.org/1999/02/22-rdf-syntax-ns#">
 <defs>
  <linearGradient id="linearGradient848" x1="-168.88" x2="-177.2" y1="1.3499" y2="-16.855" gradientTransform="matrix(1.0943 0 0 1.2673 202.33 19.291)" gradientUnits="userSpaceOnUse">
   <stop stop-color="#aa6450" offset="0"/>
   <stop stop-color="#dc7d64" offset="1"/>
  </linearGradient>
 </defs>
 <metadata>
  <rdf:RDF>
   <cc:Work rdf:about="">
    <dc:format>image/svg+xml</dc:format>
    <dc:type rdf:resource="http://purl.org/dc/dcmitype/StillImage"/>
    <dc:title/>
   </cc:Work>
  </rdf:RDF>
 </metadata>
 <g transform="translate(.37875 .00050276)">
  <path d="m8.0877 0.52865a7.9373 7.9373 0 0 0-7.9373 7.9373 7.9373 7.9373 0 0 0 7.9373 7.9373 7.9373 7.9373 0 0 0 7.9373-7.9373 7.9373 7.9373 0 0 0-7.9373-7.9373z" fill="url(#linearGradient848)" stroke-width="1.1776"/>
  <path d="m2.9719 2.4086a7.9373 7.9373 0 0 0-2.821 6.0471v0.024804a7.9373 7.9373 0 0 0 2.821 6.0538z" fill="#b46450" stroke-width="1.1776"/>
  <g transform="matrix(.72621 0 0 .72621 -82.464 -4.8971)">
   <ellipse transform="rotate(-4.6939)" cx="123.8" cy="27.987" rx="1.6235" ry="2.1309" fill="#a05037"/>
   <path d="m125.92 20.733a3.8003 3.8003 0 0 0-3.1558 2.232 5.4475 5.4475 0 0 0 3.4102 0.86638 5.4475 5.4475 0 0 0 3.2221-1.4063 3.8003 3.8003 0 0 0-3.4765-1.6921z" fill="#a05037"/>
   <circle transform="rotate(-4.6939)" cx="123.8" cy="28.628" r="5.4475" fill="none" stroke="#a05037" stroke-dashoffset=".42096" stroke-width="1.3229"/>
  </g>
 </g>
 <g transform="translate(-14.709)" fill="#5e4aa6" stroke-width=".26458">
  <circle cx="-322.63" cy="-345.67" r="0"/>
  <circle cx="-31.726" cy="-10.849" r="0" fill-rule="evenodd"/>
  <circle cx="-306.92" cy="-328.72" r="0"/>
 </g>
</svg>
