<?xml version="1.0" encoding="UTF-8"?>
<svg width="64" height="64" version="1.1" viewBox="0 0 16.933 16.933" xmlns="http://www.w3.org/2000/svg" xmlns:cc="http://creativecommons.org/ns#" xmlns:dc="http://purl.org/dc/elements/1.1/" xmlns:rdf="http://www.w3.org/1999/02/22-rdf-syntax-ns#" xmlns:xlink="http://www.w3.org/1999/xlink">
 <metadata>
  <rdf:RDF>
   <cc:Work rdf:about="">
    <dc:format>image/svg+xml</dc:format>
    <dc:type rdf:resource="http://purl.org/dc/dcmitype/StillImage"/>
    <dc:title/>
   </cc:Work>
  </rdf:RDF>
 </metadata>
 <defs>
  <style type="text/css"/>
  <linearGradient id="linearGradient1005-9" x1=".73911" x2="16.388" y1="16.296" y2=".64687" gradientTransform="matrix(.99997 0 0 .99997 -.034958 .0067012)" gradientUnits="userSpaceOnUse">
   <stop stop-color="#cfdade" offset="0"/>
   <stop stop-color="#eaeff2" offset="1"/>
  </linearGradient>
  <filter id="c" x="-.06" y="-.06" width="1.12" height="1.12" color-interpolation-filters="sRGB">
   <feGaussianBlur stdDeviation="0.6999997"/>
  </filter>
  <linearGradient id="linearGradient1997" x1="11.676" x2="4.2431" y1="12.347" y2="4.9827" gradientUnits="userSpaceOnUse">
   <stop stop-color="#324c5b" offset="0"/>
   <stop stop-color="#506c79" offset="1"/>
  </linearGradient>
 </defs>
 <g transform="translate(-.0272 .0065001)" fill="#5e4aa6" stroke-width=".26458">
  <circle cx="-330.35" cy="-328.38" r="0"/>
  <circle cx="-312.11" cy="-326.25" r="0"/>
  <circle cx="-306.02" cy="-333.07" r="0"/>
  <circle cx="-308.84" cy="-326.01" r="0"/>
 </g>
 <path d="m16.404 8.4666c0 0.95153-0.16749 1.8638-0.47463 2.7093-0.2135 0.58768-0.49439 1.1433-0.83392 1.6572-0.14222 0.21608-0.29514 0.42475-0.45746 0.62528-0.51963 0.64179-1.1372 1.2007-1.8304 1.6542-0.25529 0.16717-0.52064 0.32009-0.79535 0.45711-1.0668 0.53389-2.2711 0.83419-3.5456 0.83419s-2.4788-0.30032-3.5456-0.83422c-0.27474-0.13705-0.5404-0.28995-0.79569-0.45711-0.70206-0.45973-1.327-1.0274-1.8508-1.6798-0.16262-0.20216-0.31522-0.41274-0.45746-0.63075-0.33046-0.5054-0.60419-1.0507-0.81347-1.627-0.3071-0.84528-0.47428-1.7572-0.47428-2.7085 0-4.3838 3.5535-7.9373 7.9373-7.9373 2.2005 0 4.1917 0.89546 5.6294 2.3416 0.41436 0.4166 0.78273 0.87927 1.0963 1.3795 0.29643 0.47105 0.54426 0.97579 0.73704 1.5068 0.30718 0.84557 0.47465 1.7579 0.47465 2.7093z" fill="url(#linearGradient1005-9)" image-rendering="optimizeSpeed" stroke-width=".031006"/>
 <g transform="matrix(1.1161 0 0 1.1161 -.43021 -1.1787)">
  <path transform="matrix(.26458 0 0 .26458 -.495 .17548)" d="m40.384 34.728-2.7879 0.0201-0.0402-5.5758 2.7879-0.0201c3.0793-0.0222 5.5579-2.5368 5.5357-5.616-0.02221-3.0792-2.5368-5.5578-5.6161-5.5356-3.0796 0.0222-5.5579 2.5368-5.5357 5.616l0.0201 2.7879-5.5759 0.04021-0.0201-2.7879c-0.02221-3.0792-2.5368-5.5578-5.6161-5.5356s-5.5579 2.5368-5.5357 5.616c0.02221 3.0792 2.5368 5.5578 5.6161 5.5356l2.7879-0.0201 0.04023 5.5758-2.7879 0.0201c-3.0793 0.0222-5.5579 2.5368-5.5357 5.616s2.5368 5.5578 5.6161 5.5356c3.0796-0.0222 5.5579-2.5368 5.5357-5.616l-0.0201-2.7879 5.5759-0.04021 0.02005 2.7809c2e-5 0.0028-3.13e-4 0.0049-2.99e-4 7e-3 0.02221 3.0792 2.5368 5.5578 5.6161 5.5356s5.5579-2.5368 5.5357-5.616c-0.02221-3.0792-2.5365-5.5571-5.6157-5.5356zm-0.10053-13.94c1.5396-0.01108 2.7969 1.2282 2.808 2.7678 0.0112 1.5396-1.2282 2.7969-2.7678 2.808l-2.7879 0.0201-0.0201-2.7879c-0.0112-1.5396 1.2282-2.7969 2.7678-2.808zm-19.495 2.9287c-0.0112-1.5396 1.2282-2.7969 2.7678-2.808 1.5396-0.01108 2.7969 1.2282 2.808 2.7678l0.0201 2.7879-2.7879 0.0201c-1.5396 0.01108-2.7969-1.2285-2.808-2.7678zm2.9287 19.495c-1.5396 0.01108-2.7969-1.2282-2.808-2.7678-0.0112-1.5396 1.2282-2.7969 2.7678-2.808l2.7879-0.0201 0.0201 2.7879c0.0112 1.5396-1.2282 2.7969-2.7678 2.808zm5.5156-8.4039-0.0402-5.5758 5.5759-0.04021 0.0402 5.5758zm11.212 8.2833c-1.5396 0.01108-2.7969-1.2282-2.808-2.7678l-0.0201-2.7879 2.7876-0.0201c1.5396-0.01108 2.7969 1.2282 2.808 2.7678 0.0112 1.5396-1.2278 2.7969-2.7675 2.808z" filter="url(#c)" image-rendering="optimizeSpeed" opacity=".15" stroke-width=".24412"/>
  <path d="m10.19 9.3638-0.73762 0.00532-0.01064-1.4752 0.73762-0.00532c0.81472-0.00587 1.4705-0.67118 1.4646-1.4859-0.0059-0.81469-0.67118-1.4705-1.4859-1.4646-0.81479 0.0058736-1.4705 0.67118-1.4646 1.4859l0.0053 0.73762-1.4753 0.010639-0.0053-0.73762c-0.0059-0.81469-0.67118-1.4705-1.4859-1.4646-0.81472 0.00587-1.4705 0.67118-1.4646 1.4859 0.0059 0.81469 0.67118 1.4705 1.4859 1.4646l0.73762-0.00532 0.01064 1.4752-0.73762 0.00532c-0.81472 0.00587-1.4705 0.67118-1.4646 1.4859 0.0059 0.81469 0.67118 1.4705 1.4859 1.4646 0.8148-0.0059 1.4705-0.67118 1.4646-1.4859l-0.0053-0.73762 1.4753-0.01064 0.0053 0.73576c6e-6 7.41e-4 -8.2e-5 0.0013-7.9e-5 0.0019 0.0059 0.81469 0.67118 1.4705 1.4859 1.4646 0.81472-0.0059 1.4705-0.67118 1.4646-1.4859-0.0059-0.81469-0.6711-1.4703-1.4858-1.4646zm-0.0266-3.6882c0.40734-0.00293 0.74 0.32495 0.74294 0.7323 3e-3 0.40734-0.32496 0.74-0.7323 0.74294l-0.73762 0.00532-0.0053-0.73762c-3e-3 -0.40734 0.32496-0.74 0.7323-0.74294zm-5.158 0.77487c-3e-3 -0.40734 0.32496-0.74 0.7323-0.74294 0.40734-0.00293 0.74 0.32495 0.74294 0.7323l0.0053 0.73762-0.73762 0.00532c-0.40734 0.00293-0.74-0.32503-0.74294-0.7323zm0.77487 5.158c-0.40734 0.0029-0.74-0.32496-0.74294-0.7323-3e-3 -0.40734 0.32496-0.74 0.7323-0.74294l0.73762-0.0053 0.0053 0.73762c3e-3 0.40734-0.32496 0.74-0.7323 0.74294zm1.4593-2.2235-0.01064-1.4752 1.4753-0.010639 0.01064 1.4752zm2.9664 2.1916c-0.40734 0.0029-0.74-0.32496-0.74293-0.7323l-0.0053-0.73762 0.73754-0.0053c0.40734-0.0029 0.74 0.32496 0.74294 0.7323 3e-3 0.40734-0.32485 0.74-0.73222 0.74294z" fill="url(#linearGradient1997)" image-rendering="optimizeSpeed" stroke-width=".064589"/>
 </g>
</svg>
