<?xml version="1.0" encoding="UTF-8"?>
<svg width="64" height="64" enable-background="new" version="1.1" viewBox="0 0 16.933 16.933" xmlns="http://www.w3.org/2000/svg" xmlns:cc="http://creativecommons.org/ns#" xmlns:dc="http://purl.org/dc/elements/1.1/" xmlns:rdf="http://www.w3.org/1999/02/22-rdf-syntax-ns#">
 <metadata>
  <rdf:RDF>
   <cc:Work rdf:about="">
    <dc:format>image/svg+xml</dc:format>
    <dc:type rdf:resource="http://purl.org/dc/dcmitype/StillImage"/>
    <dc:title/>
   </cc:Work>
  </rdf:RDF>
 </metadata>
 <defs>
  <radialGradient id="e" cx="399.85" cy="191.95" r="49.762" gradientTransform="matrix(.26492 .05739 -.059889 .27646 -79.138 205.89)" gradientUnits="userSpaceOnUse">
   <stop stop-color="#4ccef6" offset="0"/>
   <stop stop-color="#548dfe" offset="1"/>
  </radialGradient>
  <radialGradient id="d" cx="451.89" cy="300.02" r="20.151" gradientTransform="matrix(.33225 .052904 -.059098 .37115 -118.42 147.37)" gradientUnits="userSpaceOnUse">
   <stop stop-color="#5073ff" offset="0"/>
   <stop stop-color="#7173ff" offset="1"/>
  </radialGradient>
  <linearGradient id="f" x1="422.66" x2="567.48" y1="-296.76" y2="-251.7" gradientTransform="matrix(.19503 0 0 .19503 154.94 178.29)" gradientUnits="userSpaceOnUse">
   <stop stop-color="#7173ff" offset="0"/>
   <stop stop-color="#4d73ff" offset="1"/>
  </linearGradient>
  <radialGradient id="c" cx="403.36" cy="328" r="33.477" gradientTransform="matrix(.074972 .016579 -.021568 .10326 -20.06 -28.145)" gradientUnits="userSpaceOnUse">
   <stop stop-color="#4bcff5" offset="0"/>
   <stop stop-color="#548dfe" offset="1"/>
  </radialGradient>
  <radialGradient id="b" cx="426.87" cy="312.58" r="50.458" gradientTransform="matrix(.067812 .010912 -.018527 .12189 -18.081 -31.261)" gradientUnits="userSpaceOnUse">
   <stop stop-color="#4783ff" offset="0"/>
   <stop stop-color="#954aff" offset="1"/>
  </radialGradient>
  <radialGradient id="a" cx="249.8" cy="130.23" r="17.762" gradientTransform="matrix(1.0135 .11917 -.087788 .7466 8.0394 1.0398)" gradientUnits="userSpaceOnUse">
   <stop stop-color="#4981ff" offset="0"/>
   <stop offset="1"/>
  </radialGradient>
  <style type="text/css"/>
  <style type="text/css"/>
 </defs>
 <g stroke-width=".9249">
  <path d="m4.3535 7.5125-1.3976 0.97128s-1.6433 1.1783-0.331 3.8346c1.4429 2.9207 3.5062 2.1822 3.5062 2.1822l1.5937-0.84511z" fill="url(#c)"/>
  <path d="m4.3978 7.4639s-0.30035 0.094605-0.49649 0.42257c-0.19615 0.32796-0.64256 1.2125-0.090893 2.9532 0.52853 1.5016 2.297 3.6777 3.971 2.969 0.17163-0.16398-3.3836-6.345-3.3836-6.345z" fill="#4f73ff"/>
  <path d="m4.9135 3.0536c-0.020792-0.042777-0.78537 1.5643-0.87041 4.5093-0.06688 2.316 0.35156 4.6816 3.5184 6.288 3.0868 1.566 4.9284 1.6524 4.9284 1.6524z" fill="url(#b)"/>
 </g>
 <g transform="matrix(.42949 0 0 .44191 1.1943 -115.21)" fill-rule="evenodd" stroke-width="2.123">
  <ellipse transform="rotate(59.304)" cx="250.78" cy="125.78" rx="17.762" ry="8.8808" fill="url(#f)"/>
  <ellipse transform="rotate(59.304)" cx="250.76" cy="125.81" rx="17.762" ry="8.8808" fill="url(#a)" opacity=".1"/>
  <path d="m17.005 287.97a6.0102 3.4786 59.348 0 0 0.08113-3e-3 6.0102 3.4786 59.348 0 0 0.35566-0.0673 6.0102 3.4786 59.348 0 0 0.23654-0.0802 6.0102 3.4786 59.348 0 0 0.31001-0.15853 6.0102 3.4786 59.348 0 0 0.27896-0.20993 6.0102 3.4786 59.348 0 0 0.2451-0.25921 6.0102 3.4786 59.348 0 0 0.20893-0.30598 6.0102 3.4786 59.348 0 0 0.17052-0.34961 6.0102 3.4786 59.348 0 0 0.13051-0.38983 6.0102 3.4786 59.348 0 0 0.08909-0.42601 6.0102 3.4786 59.348 0 0 0.04686-0.45815 6.0102 3.4786 59.348 0 0 0.0041-0.48547 6.0102 3.4786 59.348 0 0-0.0386-0.50815 6.0102 3.4786 59.348 0 0-0.08103-0.52568 6.0102 3.4786 59.348 0 0-0.12255-0.53788 6.0102 3.4786 59.348 0 0-0.16297-0.54483 6.0102 3.4786 59.348 0 0-0.20156-0.54624 6.0102 3.4786 59.348 0 0-0.23836-0.54221 6.0102 3.4786 59.348 0 0-0.18957-0.37844 6.0102 3.4786 59.348 0 0-0.29529-0.52296 6.0102 3.4786 59.348 0 0-0.32483-0.50442 6.0102 3.4786 59.348 0 0-0.35092-0.48093 6.0102 3.4786 59.348 0 0-0.3737-0.45272 6.0102 3.4786 59.348 0 0-0.39275-0.41986 6.0102 3.4786 59.348 0 0-0.40777-0.38297 6.0102 3.4786 59.348 0 0-0.41875-0.34206 6.0102 3.4786 59.348 0 0-0.4255-0.29771 6.0102 3.4786 59.348 0 0-0.42812-0.25065 6.0102 3.4786 59.348 0 0-0.42641-0.20086 6.0102 3.4786 59.348 0 0-0.42036-0.14916 6.0102 3.4786 59.348 0 0-0.41019-0.0958 6.0102 3.4786 59.348 0 0-0.39597-0.0418 6.0102 3.4786 59.348 0 0-0.37763 0.0129 6.0102 3.4786 59.348 0 0-0.35566 0.0673 6.0102 3.4786 59.348 0 0-0.23664 0.0803 6.0102 3.4786 59.348 0 0-0.3099 0.15843 6.0102 3.4786 59.348 0 0-0.27897 0.20993 6.0102 3.4786 59.348 0 0-0.1925 0.20359 15.345 6.9853 60.434 0 0 2.2744 5.1546 15.345 6.9853 60.434 0 0 3.4247 5.0313z" fill="url(#d)" stroke="#333" stroke-width=".060731"/>
  <path d="m13.844 266.08a15.345 6.9853 60.434 0 0-1.3937 0.3473 15.345 6.9853 60.434 0 0-1.1451 11.358 6.0102 3.4786 59.348 0 1 0.1925-0.20359 6.0102 3.4786 59.348 0 1 0.27897-0.20993 6.0102 3.4786 59.348 0 1 0.3099-0.15843 6.0102 3.4786 59.348 0 1 0.23664-0.0803 6.0102 3.4786 59.348 0 1 0.35566-0.0673 6.0102 3.4786 59.348 0 1 0.37763-0.0129 6.0102 3.4786 59.348 0 1 0.39597 0.0418 6.0102 3.4786 59.348 0 1 0.41019 0.0958 6.0102 3.4786 59.348 0 1 0.42036 0.14916 6.0102 3.4786 59.348 0 1 0.42641 0.20086 6.0102 3.4786 59.348 0 1 0.42812 0.25065 6.0102 3.4786 59.348 0 1 0.4255 0.29771 6.0102 3.4786 59.348 0 1 0.41875 0.34206 6.0102 3.4786 59.348 0 1 0.40777 0.38297 6.0102 3.4786 59.348 0 1 0.39275 0.41986 6.0102 3.4786 59.348 0 1 0.3737 0.45272 6.0102 3.4786 59.348 0 1 0.35092 0.48093 6.0102 3.4786 59.348 0 1 0.32483 0.50442 6.0102 3.4786 59.348 0 1 0.29529 0.52296 6.0102 3.4786 59.348 0 1 0.18957 0.37844 6.0102 3.4786 59.348 0 1 0.23836 0.54221 6.0102 3.4786 59.348 0 1 0.20156 0.54624 6.0102 3.4786 59.348 0 1 0.16297 0.54483 6.0102 3.4786 59.348 0 1 0.12255 0.53788 6.0102 3.4786 59.348 0 1 0.08103 0.52568 6.0102 3.4786 59.348 0 1 0.0386 0.50815 6.0102 3.4786 59.348 0 1-0.0041 0.48547 6.0102 3.4786 59.348 0 1-0.04686 0.45815 6.0102 3.4786 59.348 0 1-0.08909 0.42601 6.0102 3.4786 59.348 0 1-0.13051 0.38983 6.0102 3.4786 59.348 0 1-0.17052 0.34961 6.0102 3.4786 59.348 0 1-0.20893 0.30598 6.0102 3.4786 59.348 0 1-0.2451 0.25921 6.0102 3.4786 59.348 0 1-0.27896 0.20993 6.0102 3.4786 59.348 0 1-0.31001 0.15853 6.0102 3.4786 59.348 0 1-0.23654 0.0802 6.0102 3.4786 59.348 0 1-0.35566 0.0673 6.0102 3.4786 59.348 0 1-0.08113 3e-3 15.345 6.9853 60.434 0 0 10.251 5.3272 15.345 6.9853 60.434 0 0-1.0984-16.49l-0.03346-0.0607a15.345 6.9853 60.434 0 0-12.28-10.669z" fill="url(#e)"/>
 </g>
</svg>
