<?xml version="1.0" encoding="UTF-8"?>
<svg width="64" height="64" version="1.1" viewBox="0 0 16.933 16.933" xmlns="http://www.w3.org/2000/svg" xmlns:cc="http://creativecommons.org/ns#" xmlns:dc="http://purl.org/dc/elements/1.1/" xmlns:rdf="http://www.w3.org/1999/02/22-rdf-syntax-ns#">
 <metadata>
  <rdf:RDF>
   <cc:Work rdf:about="">
    <dc:format>image/svg+xml</dc:format>
    <dc:type rdf:resource="http://purl.org/dc/dcmitype/StillImage"/>
    <dc:title/>
   </cc:Work>
  </rdf:RDF>
 </metadata>
 <defs>
  <filter id="filter1066-3" x="-.063923" y="-.056531" width="1.1278" height="1.1131" color-interpolation-filters="sRGB">
   <feGaussianBlur stdDeviation="0.22705935"/>
  </filter>
  <linearGradient id="linearGradient1040" x1="80.368" x2="82.141" y1="13.177" y2="14.704" gradientTransform="matrix(1.0235 0 0 1.0235 -70.191 -2.4407)" gradientUnits="userSpaceOnUse">
   <stop stop-color="#fafafa" offset="0"/>
   <stop stop-color="#90a0b3" offset="1"/>
  </linearGradient>
  <filter id="filter1272" x="-.096004" y="-.096181" width="1.192" height="1.1924" color-interpolation-filters="sRGB">
   <feGaussianBlur stdDeviation="0.39771105"/>
  </filter>
 </defs>
 <g transform="translate(25.758 -8.8556)" fill="#5e4aa6" stroke-width=".26458">
  <circle cx="-322.63" cy="-345.67" r="0"/>
  <circle cx="-31.726" cy="-10.849" r="0" fill-rule="evenodd"/>
  <circle cx="-306.92" cy="-328.72" r="0"/>
 </g>
 <circle cx="8.3941" cy="8.5079" r="7.9373" color="#000000" fill="#f3f3f3" stroke-width=".26458"/>
 <path transform="matrix(.88974 0 0 .97318 -35.825 -4.4413)" d="m57.641 9.8253c0.81583 3.5615-6.4071 9.5974-9.8786 10.551l4.6899-0.01017c4.0983-2.6261 3.5124-2.2804 5.4351-4.4455z" fill="#9cb8d7" filter="url(#filter1272)" opacity=".2"/>
 <path d="m8.3261 0.46503a7.9373 7.9832 0 0 0-7.9373 7.9833 7.9373 7.9832 0 0 0 5.5381 7.6065l0.53277-0.06029c3.7573-1.0394 9.046-4.2555 9.2551-10.46a7.9373 7.9832 0 0 0-7.3886-5.0696zm7.4066 5.1174 0.44544 3.9646a7.9373 7.9832 0 0 0 5.15e-4 -0.00208l-0.44441-3.9579a7.9373 7.9832 0 0 0-0.0015-0.00468z" color="#000000" fill="#fafafa" stroke-width=".26534"/>
 <path d="m0.63909 9.9104 14.469-1.6925" fill="none" stroke="#dcdcdc" stroke-width=".18955"/>
 <path d="m1.4196 12.113 11.69-1.2872" fill="none" stroke="#dcdcdc" stroke-width=".18955"/>
 <path d="m11.134 13.718 2.3735-0.26871-0.0217-0.18965-2.0567 0.23357c-0.04338 0.03322-0.08036 0.07746-0.12402 0.11007-0.05578 0.04165-0.11485 0.07403-0.17105 0.11472z" color="#000000" color-rendering="auto" dominant-baseline="auto" fill="#dcdcdc" image-rendering="auto" shape-rendering="auto" solid-color="#000000" stroke-width=".26458" style="font-feature-settings:normal;font-variant-alternates:normal;font-variant-caps:normal;font-variant-ligatures:normal;font-variant-numeric:normal;font-variant-position:normal;isolation:auto;mix-blend-mode:normal;shape-padding:0;text-decoration-color:#000000;text-decoration-line:none;text-decoration-style:solid;text-indent:0;text-orientation:mixed;text-transform:none;white-space:normal"/>
 <path d="m11.134 13.718c0.05619-0.04069 0.11527-0.07307 0.17104-0.11472 0.04366-0.03261 0.08064-0.07686 0.12402-0.11007l-8.003 0.76136 0.021704 0.18758z" color="#000000" color-rendering="auto" dominant-baseline="auto" fill="#dcdcdc" image-rendering="auto" shape-rendering="auto" solid-color="#000000" stroke-width=".26458" style="font-feature-settings:normal;font-variant-alternates:normal;font-variant-caps:normal;font-variant-ligatures:normal;font-variant-numeric:normal;font-variant-position:normal;isolation:auto;mix-blend-mode:normal;shape-padding:0;text-decoration-color:#000000;text-decoration-line:none;text-decoration-style:solid;text-indent:0;text-orientation:mixed;text-transform:none;white-space:normal"/>
 <path d="m0.52786 7.5071 14.8-1.6713" fill="none" stroke="#dcdcdc" stroke-width=".18955"/>
 <path d="m13.575 10.804 1.7997-0.20394" fill="none" stroke="#dcdcdc" stroke-width=".18955"/>
 <path transform="matrix(1.0996 0 0 1.0321 -47.746 -4.1882)" d="m57.818 9.8288s0.05354 3.0782-2.6636 4.5408c-2.2449 1.2084 0.9386 2.689-5.8599 5.0989 8.8505-2.5748 8.5235-9.6396 8.5235-9.6396z" fill="#141414" filter="url(#filter1066-3)" opacity=".3"/>
 <path transform="matrix(1.0685 0 0 .99563 -45.845 -3.5157)" d="m57.818 9.8288s0.05354 3.0782-2.6636 4.5408c-2.2449 1.2084 0.9386 2.689-5.8599 5.0989 8.8505-2.5748 8.5235-9.6396 8.5235-9.6396z" fill="#141414" filter="url(#filter1066-3)" opacity=".3"/>
 <path d="m15.491 5.8548s0.0548 3.1505-2.7262 4.6475c-2.2976 1.2368 0.96065 2.7522-5.9976 5.2187 9.0584-2.6353 8.7956-9.8302 8.7956-9.8302z" fill="url(#linearGradient1040)" stroke-width="1.0235"/>
 <path d="m15.491 5.8548s-0.19305 3.2013-2.5649 4.5127c-2.7286 1.5087 0.99327 2.857-6.1953 5.2983" fill="none" stroke="#fafafa" stroke-width=".1354"/>
 <path d="m15.733 5.5825 0.44545 3.9645a7.9374 7.9832 0 0 0 5.3e-4 -0.00206l-0.44442-3.9579a7.9374 7.9832 0 0 0-1e-3 -0.00465h-5.3e-4z" color="#000000" fill="#fafafa" stroke-width=".26535"/>
 <path transform="scale(.26458)" d="m4.4966 19.207 50.319-5.769" fill="none" stroke="#dcdcdc" stroke-width=".71642"/>
 <path transform="scale(.26458)" d="m11.909 9.4985 33.828-3.6741" fill="none" stroke="#dcdcdc" stroke-width=".71642"/>
 <path d="m15.733 5.5824 0.44544 3.9646a7.9373 7.9832 0 0 0 5.15e-4 -0.00208l-0.44441-3.9579a7.9373 7.9832 0 0 0-0.0015-0.00468z" color="#000000" fill="#fafafa" stroke-width=".26534"/>
 <path transform="scale(.26458)" d="m17.028 58.328-5.5197-48.88" fill="none" stroke="#ff5050" stroke-width=".67307"/>
</svg>
