<?xml version="1.0" encoding="UTF-8"?>
<svg width="64" height="64" version="1.1" viewBox="0 0 16.933 16.933" xmlns="http://www.w3.org/2000/svg" xmlns:cc="http://creativecommons.org/ns#" xmlns:dc="http://purl.org/dc/elements/1.1/" xmlns:rdf="http://www.w3.org/1999/02/22-rdf-syntax-ns#" xmlns:xlink="http://www.w3.org/1999/xlink">
 <metadata>
  <rdf:RDF>
   <cc:Work rdf:about="">
    <dc:format>image/svg+xml</dc:format>
    <dc:type rdf:resource="http://purl.org/dc/dcmitype/StillImage"/>
    <dc:title/>
   </cc:Work>
  </rdf:RDF>
 </metadata>
 <defs>
  <linearGradient id="linearGradient985" x1="3.6265" x2="12.25" y1="12.879" y2="4.1256" gradientUnits="userSpaceOnUse">
   <stop stop-color="#965a46" offset="0"/>
   <stop stop-color="#a05f46" offset="1"/>
  </linearGradient>
  <linearGradient id="linearGradient938" x1=".6814" x2="16.404" y1="16.28" y2=".60259" gradientTransform="matrix(.87525 0 0 1.0136 140.04 17.124)" gradientUnits="userSpaceOnUse">
   <stop stop-color="#9d6856" offset="0"/>
   <stop stop-color="#c37d64" offset="1"/>
  </linearGradient>
 </defs>
 <circle cx="-330.35" cy="-328.38" r="0" fill="#5e4aa6" stroke-width=".26458"/>
 <g transform="translate(-22.91 .87935)" fill="#5e4aa6" image-rendering="optimizeSpeed" stroke-width=".26458">
  <circle cx="-330.35" cy="-328.38" r="0"/>
  <circle cx="-312.11" cy="-326.25" r="0"/>
  <circle cx="-306.02" cy="-333.07" r="0"/>
  <circle cx="-308.84" cy="-326.01" r="0"/>
 </g>
 <path d="m8.4665 0.5292a7.9373 7.9373 0 0 0-7.9373 7.9373 7.9373 7.9373 0 0 0 7.9373 7.9373 7.9373 7.9373 0 0 0 7.9373-7.9373 7.9373 7.9373 0 0 0-7.9373-7.9373z" fill="url(#linearGradient938)" stroke-width="1.1776"/>
 <g transform="translate(-14.709 4.724e-5)" fill="#5e4aa6" stroke-width=".26458">
  <circle cx="-322.63" cy="-345.67" r="0"/>
  <circle cx="-31.726" cy="-10.849" r="0" fill-rule="evenodd"/>
  <circle cx="-306.92" cy="-328.72" r="0"/>
 </g>
 <g transform="translate(.5103 -.00022515)">
  <circle cx="7.9562" cy="8.4665" r="4.3655" fill="url(#linearGradient985)"/>
  <circle cx="7.9562" cy="8.0696" r="1.7198" fill="#fff"/>
  <path d="m9.9932 12.325-0.31729-1.2123c-0.034681-0.12591-0.109-0.23538-0.2129-0.32866-0.1039-0.093274-0.23748-0.17033-0.39118-0.23151-0.30741-0.12234-0.69502-0.18113-1.0852-0.17828-0.39016 0.0029-0.78308 0.06743-1.1007 0.1912-0.1588 0.06189-0.29876 0.13864-0.4103 0.22996-0.11154 0.09131-0.19438 0.19708-0.23926 0.31729l-0.31729 1.2123a4.3655 4.3655 0 0 0 2.037 0.50745 4.3655 4.3655 0 0 0 2.037-0.50745z" fill="#fff"/>
 </g>
</svg>
