<?xml version="1.0" encoding="UTF-8"?>
<!-- Created with Inkscape (http://www.inkscape.org/) -->
<svg width="64" height="64" version="1.1" viewBox="0 0 16.933 16.933" xmlns="http://www.w3.org/2000/svg" xmlns:cc="http://creativecommons.org/ns#" xmlns:dc="http://purl.org/dc/elements/1.1/" xmlns:rdf="http://www.w3.org/1999/02/22-rdf-syntax-ns#">
 <defs>
  <linearGradient id="l" x1="70.013" x2="15.267" y1="12.061" y2="66.806" gradientTransform="matrix(.26458 0 0 .26458 18.258 -3.4048)" gradientUnits="userSpaceOnUse">
   <stop stop-color="#54ffbd" stop-opacity=".8" offset=".167"/>
   <stop stop-color="#43f8ca" stop-opacity=".639" offset=".236"/>
   <stop stop-color="#27ede1" stop-opacity=".368" offset=".361"/>
   <stop stop-color="#12e4f1" stop-opacity=".169" offset=".466"/>
   <stop stop-color="#05dffb" stop-opacity=".046" offset=".545"/>
   <stop stop-color="#0df" stop-opacity="0" offset=".589"/>
  </linearGradient>
  <radialGradient id="k" cx="-9308.9" cy="-8503.9" r="80.686" gradientTransform="matrix(.26458 0 0 .26458 2496 2251.9)" gradientUnits="userSpaceOnUse">
   <stop stop-color="#54ffbd" offset=".094"/>
   <stop stop-color="#41f7cc" offset=".242"/>
   <stop stop-color="#0fe3f3" offset=".543"/>
   <stop stop-color="#0df" offset=".626"/>
  </radialGradient>
  <radialGradient id="j" cx="-9328.4" cy="-8508.2" r="73.72" gradientTransform="matrix(.26458 0 0 .26458 2496 2251.9)" gradientUnits="userSpaceOnUse">
   <stop stop-color="#3fe1b0" offset=".137"/>
   <stop stop-color="#0df" offset=".435"/>
   <stop stop-color="#1ec1ff" offset=".484"/>
   <stop stop-color="#7077ff" offset=".622"/>
   <stop stop-color="#9059ff" offset=".685"/>
  </radialGradient>
  <radialGradient id="i" cx="-9317.2" cy="-8522.9" r="86.499" gradientTransform="matrix(.027781 .26326 -.17277 .018256 -1182.5 2603.4)" gradientUnits="userSpaceOnUse">
   <stop stop-color="#54ffbd" offset="0"/>
   <stop stop-color="#4cf3b8" offset=".095"/>
   <stop stop-color="#3fe1b0" offset=".197"/>
   <stop stop-color="#33d8bd" offset=".257"/>
   <stop stop-color="#12c0e1" offset=".369"/>
   <stop stop-color="#00b3f4" offset=".423"/>
   <stop stop-color="#0060df" offset=".737"/>
  </radialGradient>
  <radialGradient id="h" cx="-9306" cy="-8536" r="118.08" gradientTransform="matrix(.26458 0 0 .26458 2496 2251.9)" gradientUnits="userSpaceOnUse">
   <stop stop-color="#3fe1b0" offset=".126"/>
   <stop stop-color="#0df" offset=".429"/>
   <stop stop-color="#1ec1ff" offset=".479"/>
   <stop stop-color="#7077ff" offset=".624"/>
   <stop stop-color="#9059ff" offset=".69"/>
   <stop stop-color="#b833e1" offset=".904"/>
  </radialGradient>
  <radialGradient id="g" cx="-9327.7" cy="-8518.4" r="27.676" gradientTransform="matrix(.26458 0 0 .26458 2496 2251.9)" gradientUnits="userSpaceOnUse">
   <stop stop-color="#0df" offset="0"/>
   <stop stop-color="#00d6fd" offset=".235"/>
   <stop stop-color="#00c3f8" offset=".572"/>
   <stop stop-color="#00b3f4" offset=".792"/>
  </radialGradient>
  <radialGradient id="f" cx="-9325.6" cy="-8491.5" r="20.397" gradientTransform="matrix(.25717 -.062176 .072759 .30109 3045.6 1982.8)" gradientUnits="userSpaceOnUse">
   <stop stop-color="#45278d" stop-opacity="0" offset=".206"/>
   <stop stop-color="#44268a" stop-opacity=".055" offset=".251"/>
   <stop stop-color="#371f6f" stop-opacity=".591" offset=".725"/>
   <stop stop-color="#321c64" stop-opacity=".8" offset=".956"/>
  </radialGradient>
  <radialGradient id="e" cx="-9335.6" cy="-8461" r="38.471" gradientTransform="matrix(.26458 0 0 .26458 2496 2251.9)" gradientUnits="userSpaceOnUse">
   <stop stop-color="#0060df" offset=".287"/>
   <stop stop-color="#2357e1" offset=".417"/>
   <stop stop-color="#4f4ce3" offset=".604"/>
   <stop stop-color="#6b45e4" offset=".748"/>
   <stop stop-color="#7542e5" offset=".833"/>
  </radialGradient>
  <radialGradient id="d" cx="-9317" cy="-8533.5" r="58.534" gradientTransform="matrix(.26458 0 0 .26458 2496 2251.9)" gradientUnits="userSpaceOnUse">
   <stop stop-color="#3fe1b0" offset=".132"/>
   <stop stop-color="#28d0c8" offset=".289"/>
   <stop stop-color="#00b3f4" offset=".526"/>
  </radialGradient>
  <radialGradient id="c" cx="-9326.7" cy="-8482.1" r="80.797" gradientTransform="matrix(.26458 0 0 .26458 2496 2251.9)" gradientUnits="userSpaceOnUse">
   <stop stop-color="#45278d" offset=".3"/>
   <stop stop-color="#562896" stop-opacity=".787" offset=".341"/>
   <stop stop-color="#782aa9" stop-opacity=".364" offset=".43"/>
   <stop stop-color="#8d2bb5" stop-opacity=".1" offset=".495"/>
   <stop stop-color="#952bb9" stop-opacity="0" offset=".53"/>
  </radialGradient>
  <radialGradient id="b" cx="-9297.2" cy="-8515.1" r="80.797" gradientTransform="matrix(.26458 0 0 .26458 2496 2251.9)" gradientUnits="userSpaceOnUse">
   <stop stop-color="#3fe1b0" offset=".108"/>
   <stop stop-color="#3bdcb3" offset=".122"/>
   <stop stop-color="#1bb3d3" offset=".254"/>
   <stop stop-color="#0799e6" offset=".358"/>
   <stop stop-color="#0090ed" offset=".42"/>
   <stop stop-color="#2482f1" offset=".487"/>
   <stop stop-color="#7165fb" offset=".64"/>
   <stop stop-color="#9059ff" offset=".71"/>
   <stop stop-color="#7d49ed" offset=".795"/>
   <stop stop-color="#7542e5" offset=".86"/>
  </radialGradient>
  <linearGradient id="a" x1="74.803" x2="7.742" y1="20.543" y2="62.786" gradientTransform="matrix(.26458 0 0 .26458 18.258 -3.4048)" gradientUnits="userSpaceOnUse">
   <stop stop-color="#3fe1b0" offset="0"/>
   <stop stop-color="#00b3f4" offset=".406"/>
   <stop stop-color="#03b0f4" offset=".421"/>
   <stop stop-color="#5561e9" offset=".818"/>
   <stop stop-color="#7542e5" offset="1"/>
  </linearGradient>
  <style type="text/css"/>
  <style type="text/css"/>
 </defs>
 <metadata>
  <rdf:RDF>
   <cc:Work rdf:about="">
    <dc:format>image/svg+xml</dc:format>
    <dc:type rdf:resource="http://purl.org/dc/dcmitype/StillImage"/>
    <dc:title/>
   </cc:Work>
  </rdf:RDF>
 </metadata>
 <g transform="matrix(.68778 0 0 .68778 -11.372 3.5317)" stroke-width=".26458">
  <path id="shape-base" d="m38.344 3.6941c-0.44555-1.0721-1.3493-2.2296-2.0571-2.5955a10.654 10.654 0 0 1 1.0385 3.1125l0.0019 0.017198c-1.1594-2.8905-3.1255-4.056-4.7312-6.5938a12.461 12.461 0 0 1-0.24156-0.39263 3.2384 3.2384 0 0 1-0.11298-0.21166 1.8661 1.8661 0 0 1-0.15293-0.40613 0.026458 0.026458 0 0 0-0.02328-0.026458 0.036512 0.036512 0 0 0-0.01931 0c-0.0013 0-0.0034 0.00238-5e-3 0.00291-0.0016 5.292e-4 -5e-3 0.00291-0.0074 0.00397l4e-3 -0.00688c-2.5757 1.5081-3.4496 4.2999-3.5301 5.6964a5.1294 5.1294 0 0 0-2.822 1.0877 3.0657 3.0657 0 0 0-0.26458-0.20055 4.7539 4.7539 0 0 1-0.02884-2.5063 7.5947 7.5947 0 0 0-2.4682 1.9076h-0.0048c-0.40639-0.51513-0.37782-2.2137-0.35454-2.5685a1.833 1.833 0 0 0-0.34236 0.18177 7.4677 7.4677 0 0 0-1.0022 0.85856 8.9546 8.9546 0 0 0-0.95857 1.1501v0.00159-0.00185a8.6604 8.6604 0 0 0-1.3758 3.1069l-0.01376 0.067732a16.375 16.375 0 0 0-0.10076 0.64028c0 0.00767-0.0016 0.014816-0.0024 0.022489a9.7727 9.7727 0 0 0-0.16642 1.4136v0.05292a10.255 10.255 0 0 0 20.36 1.734c0.0172-0.13229 0.03122-0.26326 0.04657-0.39687a10.545 10.545 0 0 0-0.66514-5.1511zm-11.819 8.0268c0.04789 0.02302 0.09287 0.04789 0.14208 0.06985l0.0071 0.0045q-0.07461-0.03572-0.14922-0.07435zm2.3489-6.1848m8.4538-1.3054v-0.00979l0.0019 0.010848z" fill="url(#a)"/>
  <path id="body-outer-ring" d="m38.344 3.6941c-0.44555-1.0721-1.3493-2.2296-2.0571-2.5955a10.654 10.654 0 0 1 1.0385 3.1125v0.00979l0.0019 0.010848a9.2867 9.2867 0 0 1-0.31908 6.9208c-1.1753 2.5217-4.02 5.1064-8.4728 4.9807-4.8114-0.13626-9.0486-3.7065-9.8407-8.3826-0.1442-0.73738 0-1.1112 0.07249-1.7105a7.64 7.64 0 0 0-0.16488 1.415v0.05292a10.255 10.255 0 0 0 20.36 1.734c0.0172-0.13229 0.03122-0.26326 0.04657-0.39687a10.545 10.545 0 0 0-0.66515-5.1511z" fill="url(#b)"/>
  <path id="body-outer-ring-shadow" d="m38.344 3.6941c-0.44555-1.0721-1.3493-2.2296-2.0571-2.5955a10.654 10.654 0 0 1 1.0385 3.1125v0.00979l0.0019 0.010848a9.2867 9.2867 0 0 1-0.31908 6.9208c-1.1753 2.5217-4.02 5.1064-8.4728 4.9807-4.8114-0.13626-9.0486-3.7065-9.8407-8.3826-0.1442-0.73738 0-1.1112 0.07249-1.7105a7.64 7.64 0 0 0-0.16488 1.415v0.05292a10.255 10.255 0 0 0 20.36 1.734c0.0172-0.13229 0.03122-0.26326 0.04657-0.39687a10.545 10.545 0 0 0-0.66515-5.1511z" fill="url(#c)"/>
  <path id="tail-tip" d="m33.361 4.8995c0.02223 0.01561 0.04286 0.03122 0.06376 0.04683a5.5826 5.5826 0 0 0-0.95248-1.2422c-3.1871-3.1876-0.83527-6.9116-0.43867-7.1007l4e-3 -0.00582c-2.5757 1.5081-3.4496 4.2999-3.53 5.6964 0.11959-0.0082 0.23812-0.018256 0.36036-0.018256a5.1751 5.1751 0 0 1 4.4931 2.6238z" fill="url(#d)"/>
  <path id="globe-base" d="m28.874 5.5361c-0.01693 0.25505-0.91809 1.1348-1.2332 1.1348-2.9159 0-3.3892 1.7639-3.3892 1.7639 0.12911 1.4853 1.1641 2.7088 2.4153 3.3559a3.5559 3.5559 0 0 0 0.17303 0.08255q0.15054 0.06667 0.30109 0.12329a4.56 4.56 0 0 0 1.3343 0.25744c5.1109 0.23971 6.1009-6.1118 2.4127-7.9548a3.5401 3.5401 0 0 1 2.4725 0.60033 5.1751 5.1751 0 0 0-4.4931-2.6238c-0.12171 0-0.24077 0.010054-0.36036 0.018256a5.1294 5.1294 0 0 0-2.822 1.0877c0.15637 0.13229 0.33284 0.30903 0.70457 0.67547 0.69584 0.68552 2.4804 1.3956 2.4844 1.479z" fill="url(#e)"/>
  <path id="globe-shadow" d="m28.874 5.5361c-0.01693 0.25505-0.91809 1.1348-1.2332 1.1348-2.9159 0-3.3892 1.7639-3.3892 1.7639 0.12911 1.4853 1.1641 2.7088 2.4153 3.3559a3.5559 3.5559 0 0 0 0.17303 0.08255q0.15054 0.06667 0.30109 0.12329a4.56 4.56 0 0 0 1.3343 0.25744c5.1109 0.23971 6.1009-6.1118 2.4127-7.9548a3.5401 3.5401 0 0 1 2.4725 0.60033 5.1751 5.1751 0 0 0-4.4931-2.6238c-0.12171 0-0.24077 0.010054-0.36036 0.018256a5.1294 5.1294 0 0 0-2.822 1.0877c0.15637 0.13229 0.33284 0.30903 0.70457 0.67547 0.69584 0.68552 2.4804 1.3956 2.4844 1.479z" fill="url(#f)"/>
  <path id="ear" d="m25.207 3.0406a6.5811 6.5811 0 0 1 0.21166 0.14049 4.7539 4.7539 0 0 1-0.02884-2.5063 7.5947 7.5947 0 0 0-2.4682 1.9076c0.05-0.00132 1.5375-0.028045 2.2854 0.45825z" fill="url(#g)"/>
  <path id="body" d="m18.696 7.7506c0.79135 4.6762 5.0294 8.2464 9.8407 8.3826 4.4528 0.12594 7.2976-2.459 8.4728-4.9807a9.2867 9.2867 0 0 0 0.31908-6.9208v-0.00979c0-0.00767-0.0016-0.012171 0-0.00979l0.0019 0.017198c0.36379 2.3751-0.84427 4.6762-2.7328 6.2321l-0.0058 0.01323c-3.6798 2.9969-7.2013 1.8081-7.9141 1.3229q-0.07461-0.03572-0.14922-0.07435c-2.1455-1.0255-3.0319-2.9802-2.8419-4.6566a2.6333 2.6333 0 0 1-2.4291-1.5279 3.8676 3.8676 0 0 1 3.77-0.15134 5.1064 5.1064 0 0 0 3.8501 0.15134c-4e-3 -0.083342-1.7885-0.79373-2.4844-1.479-0.37173-0.36644-0.54821-0.54291-0.70457-0.67547a3.0657 3.0657 0 0 0-0.26458-0.20055 14.352 14.352 0 0 0-0.21166-0.14049c-0.74796-0.48629-2.2354-0.45957-2.2846-0.45825h-0.0048c-0.4064-0.51513-0.37782-2.2137-0.35454-2.5685a1.833 1.833 0 0 0-0.34236 0.18177 7.4677 7.4677 0 0 0-1.0022 0.85856 8.9546 8.9546 0 0 0-0.96254 1.1475v0.00159-0.00185a8.6604 8.6604 0 0 0-1.3758 3.1069c-5e-3 0.020902-0.36935 1.6137-0.1897 2.4397z" fill="url(#h)"/>
  <path id="tail-flame" d="m32.472 3.7041a5.5826 5.5826 0 0 1 0.95248 1.2435 2.1386 2.1386 0 0 1 0.15372 0.12594c2.3248 2.1431 1.1067 5.1725 1.016 5.3881 1.8886-1.556 3.0956-3.857 2.7328-6.2321-1.1599-2.8918-3.126-4.0573-4.7317-6.5951a12.461 12.461 0 0 1-0.24156-0.39263 3.2384 3.2384 0 0 1-0.11298-0.21166 1.8661 1.8661 0 0 1-0.15293-0.40613 0.026458 0.026458 0 0 0-0.02328-0.026458 0.036512 0.036512 0 0 0-0.01931 0c-0.0013 0-0.0034 0.00238-5e-3 0.00291-0.0016 5.292e-4 -5e-3 0.00291-0.0074 0.00397-0.3966 0.18812-2.7484 3.9121 0.4392 7.0997z" fill="url(#i)"/>
  <path id="tail-small" d="m33.577 5.0722a2.1386 2.1386 0 0 0-0.15372-0.12594c-0.0209-0.01561-0.04154-0.03122-0.06376-0.04683a3.5401 3.5401 0 0 0-2.4725-0.60033c3.6882 1.8441 2.6987 8.1945-2.4127 7.9548a4.56 4.56 0 0 1-1.3343-0.25744q-0.15054-0.05635-0.30109-0.12329a3.8205 3.8205 0 0 1-0.17303-0.08255l0.0071 0.0045c0.71277 0.48656 4.2332 1.6753 7.9141-1.3229l0.0058-0.01323c0.09181-0.21431 1.3099-3.2445-1.016-5.3868z" fill="url(#j)"/>
  <path id="cheek-tufts" d="m24.252 8.4348s0.47333-1.7639 3.3892-1.7639c0.31511 0 1.2171-0.87972 1.2332-1.1348a5.1064 5.1064 0 0 1-3.8501-0.15134 3.8676 3.8676 0 0 0-3.77 0.15134 2.6333 2.6333 0 0 0 2.4291 1.5279c-0.18997 1.6766 0.69637 3.6313 2.8418 4.6566 0.04789 0.02302 0.09287 0.04789 0.14208 0.06985-1.2522-0.64689-2.2862-1.8703-2.4153-3.3556z" fill="url(#k)"/>
  <path id="overlay-green" d="m38.344 3.6941c-0.44555-1.0721-1.3493-2.2296-2.0571-2.5955a10.654 10.654 0 0 1 1.0385 3.1125l0.0019 0.017198c-1.1594-2.8905-3.1255-4.056-4.7312-6.5938a12.461 12.461 0 0 1-0.24156-0.39263 3.2384 3.2384 0 0 1-0.11298-0.21166 1.8661 1.8661 0 0 1-0.15293-0.40613 0.026458 0.026458 0 0 0-0.02328-0.026458 0.036512 0.036512 0 0 0-0.01931 0c-0.0013 0-0.0034 0.00238-5e-3 0.00291-0.0016 5.292e-4 -5e-3 0.00291-0.0074 0.00397l4e-3 -0.00688c-2.5757 1.5081-3.4496 4.2999-3.5301 5.6964 0.11959-0.0082 0.23812-0.018256 0.36036-0.018256a5.1751 5.1751 0 0 1 4.4931 2.6238 3.5401 3.5401 0 0 0-2.4725-0.60033c3.6882 1.8441 2.6987 8.1945-2.4127 7.9548a4.56 4.56 0 0 1-1.3343-0.25744q-0.15054-0.05635-0.30109-0.12329a3.8205 3.8205 0 0 1-0.17303-0.08255l0.0071 0.0045q-0.07461-0.03572-0.14922-0.07435c0.04789 0.02302 0.09287 0.04789 0.14208 0.06985-1.2522-0.64716-2.2862-1.8706-2.4153-3.3559 0 0 0.47333-1.7639 3.3892-1.7639 0.31511 0 1.2171-0.87972 1.2332-1.1348-4e-3 -0.083342-1.7885-0.79373-2.4844-1.479-0.37173-0.36644-0.54821-0.54291-0.70457-0.67547a3.0657 3.0657 0 0 0-0.26458-0.20055 4.7539 4.7539 0 0 1-0.02884-2.5063 7.5947 7.5947 0 0 0-2.4682 1.9076h-0.0048c-0.40639-0.51513-0.37782-2.2137-0.35454-2.5685a1.833 1.833 0 0 0-0.34236 0.18177 7.4677 7.4677 0 0 0-1.0022 0.85856 8.9546 8.9546 0 0 0-0.95857 1.1501v0.00159-0.00185a8.6604 8.6604 0 0 0-1.3758 3.1069l-0.01376 0.067732c-0.01931 0.090221-0.10583 0.54847-0.11827 0.64689v0a11.931 11.931 0 0 0-0.15134 1.4295v0.05292a10.255 10.255 0 0 0 20.36 1.734c0.0172-0.13229 0.03122-0.26326 0.04657-0.39687a10.545 10.545 0 0 0-0.66515-5.1511zm-1.0173 0.52678 0.0019 0.010848z" fill="url(#l)"/>
 </g>
</svg>
