<?xml version="1.0" encoding="UTF-8"?>
<!-- Created with Inkscape (http://www.inkscape.org/) -->
<svg width="64" height="64" version="1.1" viewBox="0 0 16.933 16.933" xmlns="http://www.w3.org/2000/svg" xmlns:cc="http://creativecommons.org/ns#" xmlns:dc="http://purl.org/dc/elements/1.1/" xmlns:rdf="http://www.w3.org/1999/02/22-rdf-syntax-ns#">
 <defs>
  <linearGradient id="a-3" x1="99.036" x2="99.036" y1="-.50472" y2="199.84" gradientTransform="matrix(.079373 0 0 .079373 .52919 .52915)" gradientUnits="userSpaceOnUse">
   <stop stop-color="#4bd2f5" offset="0"/>
   <stop stop-color="#5587ff" offset="1"/>
  </linearGradient>
 </defs>
 <metadata>
  <rdf:RDF>
   <cc:Work rdf:about="">
    <dc:format>image/svg+xml</dc:format>
    <dc:type rdf:resource="http://purl.org/dc/dcmitype/StillImage"/>
    <dc:title/>
   </cc:Work>
  </rdf:RDF>
 </metadata>
 <circle cx="8.4665" cy="8.4665" r="7.9373" color="#000000" fill="url(#a-3)" stroke-width=".26458"/>
 <g transform="translate(-1.0014)">
  <g transform="translate(-.11659 .50225)" fill="#2d64b9" stroke-width=".16121" style="font-feature-settings:normal;font-variant-caps:normal;font-variant-ligatures:normal;font-variant-numeric:normal" aria-label="文">
   <path d="m11.539 10.402c0.85013 0.65778 1.7918 1.1749 2.8379 1.5298l0.35262-0.64618c-1.1557-0.41134-2.0863-0.88163-2.7915-1.4105 0.23506-0.13712 0.51873-0.47987 0.85172-1.0283 0.35258-0.54846 0.60763-1.1948 0.76433-1.9391h1.1459v-0.55817h-2.8499c-0.21547-0.45053-0.47051-0.85237-0.76432-1.205l-0.4991 0.35262c0.19587 0.27423 0.38188 0.55851 0.55818 0.85233h-0.96264l0.18686 0.55817h2.5384c-0.25464 1.0773-0.74422 1.929-1.4689 2.5557-0.13727-0.12242-0.23303-0.28837-0.35624-0.42556z" fill="#2d64b9" stroke-width=".18805" style="font-feature-settings:normal;font-variant-caps:normal;font-variant-ligatures:normal;font-variant-numeric:normal"/>
  </g>
  <path d="m10.48 12.434-0.57194-1.8798h-2.8823l-0.57368 1.8815h-1.8046l2.7899-7.9373h2.0489l2.8003 7.9373h-1.8064m-0.97298-3.2869c-0.53009-1.7054-0.82826-2.6678-0.89626-2.8945-0.052371-0.17466-0.099474-0.35086-0.14124-0.52835-0.11857 0.46209-0.46034 1.6024-1.0218 3.423h2.0593" fill="#fafafa" font-size="24" font-weight="700" letter-spacing="0" stroke-width="1.2834" word-spacing="0"/>
 </g>
</svg>
