<?xml version="1.0" encoding="UTF-8"?>
<!-- Created with Inkscape (http://www.inkscape.org/) -->
<svg width="64" height="64" version="1.1" viewBox="0 0 16.933 16.933" xmlns="http://www.w3.org/2000/svg" xmlns:cc="http://creativecommons.org/ns#" xmlns:dc="http://purl.org/dc/elements/1.1/" xmlns:rdf="http://www.w3.org/1999/02/22-rdf-syntax-ns#">
 <defs>
  <style type="text/css"/>
  <style type="text/css"/>
  <linearGradient id="linearGradient889" x1="3.6746" x2="13.26" y1="8.4669" y2="8.4669" gradientTransform="matrix(1.5182 0 0 1.5634 -4.388 -4.7701)" gradientUnits="userSpaceOnUse">
   <stop stop-color="#5587ff" offset="0"/>
   <stop stop-color="#4bd2f5" offset="1"/>
  </linearGradient>
 </defs>
 <metadata>
  <rdf:RDF>
   <cc:Work rdf:about="">
    <dc:format>image/svg+xml</dc:format>
    <dc:type rdf:resource="http://purl.org/dc/dcmitype/StillImage"/>
    <dc:title/>
   </cc:Work>
  </rdf:RDF>
 </metadata>
 <g transform="translate(-21.833 .89722)" fill="#5e4aa6" stroke-width=".26458">
  <circle cx="-330.35" cy="-328.38" r="0"/>
  <circle cx="-312.11" cy="-326.25" r="0"/>
  <circle cx="-306.02" cy="-333.07" r="0"/>
  <circle cx="-308.84" cy="-326.01" r="0"/>
 </g>
 <path d="m8.4646 1.1906c-4.0171 0-7.274 3.3537-7.274 7.4905 0.00146 3.178 1.9544 6.0071 4.8686 7.061 0.25993-0.01063 0.46699-0.22522 0.46699-0.49536v-1.0711h-0.48491c-0.71769 0-1.5731-0.19625-1.8385-0.99871-0.35351-1.0701-1.3626-1.3318-1.0712-1.4981 0.061106-0.03496 0.12414-0.05644 0.18863-0.06641 0.056248-0.0091 0.11395-0.0084 0.17166-9.97e-4 0.40346 0.05195 0.82776 0.46939 1.095 0.81646 0.47715 0.62021 0.74194 0.74903 1.2579 0.74903 0.48977 0 0.68181-0.12487 0.68181-0.12487 0-0.4769 0.21144-0.84291 0.53875-1.0787-1.8587-0.2996-3.2058-1.2734-3.2058-3.2907 0-0.96725 0.25993-1.7456 0.70267-2.3526-0.19882-0.70408-0.17699-1.4187 0.024731-2.1417 0.68035 0 1.4436 0.38101 1.9295 0.78999 0.59305-0.19324 1.2521-0.29063 1.9495-0.29063 0.69586 0 1.3563 0.096881 1.9544 0.28863 0.48491-0.40797 1.2472-0.78797 1.9267-0.78797 0.19834 0.71059 0.22017 1.4131 0.032 2.1058 0.46698 0.6117 0.7434 1.4017 0.7434 2.3885 0 2.0174-1.3801 2.9928-3.2535 3.2918 0.32685 0.23569 0.5378 0.60122 0.5378 1.0776v2.1948c0 0.27014 0.20706 0.48487 0.46698 0.49536 2.9145-1.0517 4.8637-3.881 4.8686-7.061 2e-3 -4.1366-3.2568-7.4905-7.274-7.4905z" fill="url(#linearGradient889)" stroke-width="1.5843"/>
</svg>
