<?xml version="1.0" encoding="UTF-8"?>
<!-- Created with Inkscape (http://www.inkscape.org/) -->
<svg width="64" height="64" version="1.1" viewBox="0 0 16.933 16.933" xmlns="http://www.w3.org/2000/svg" xmlns:cc="http://creativecommons.org/ns#" xmlns:dc="http://purl.org/dc/elements/1.1/" xmlns:rdf="http://www.w3.org/1999/02/22-rdf-syntax-ns#">
 <defs>
  <linearGradient id="linearGradient1068" x1="73.52" x2="89.099" y1="18.109" y2="18.109" gradientTransform="matrix(1.0909 0 0 1.0909 -80.253 -10.889)" gradientUnits="userSpaceOnUse">
   <stop stop-color="#00c65b" offset="0"/>
   <stop stop-color="#01bba1" offset="1"/>
  </linearGradient>
  <linearGradient id="linearGradient1113" x1="55.594" x2="55.433" y1="22.689" y2="34.054" gradientTransform="matrix(4.5642 0 0 4.5642 -223.34 -74.281)" gradientUnits="userSpaceOnUse">
   <stop stop-color="#00c370" stop-opacity=".5" offset="0"/>
   <stop stop-color="#fafafa" stop-opacity="0" offset="1"/>
  </linearGradient>
 </defs>
 <metadata>
  <rdf:RDF>
   <cc:Work rdf:about="">
    <dc:format>image/svg+xml</dc:format>
    <dc:type rdf:resource="http://purl.org/dc/dcmitype/StillImage"/>
    <dc:title/>
   </cc:Work>
  </rdf:RDF>
 </metadata>
 <path transform="scale(.26458)" d="m32 2a30 30 0 0 0-30 30 30 30 0 0 0 30 30 30 30 0 0 0 30-30 30 30 0 0 0-30-30z" fill="#2d4650" stroke-width="4.5206"/>
 <path d="m8.4665 1.4978a6.9687 6.9687 0 0 0-6.9687 6.9687 6.9687 6.9687 0 0 0 6.9687 6.9687 6.9687 6.9687 0 0 0 6.9687-6.9687 6.9687 6.9687 0 0 0-6.9687-6.9687z" fill="#3c5564" stroke-width="1.0501"/>
 <g fill="#fafafa">
  <g stroke-width=".33744">
   <path d="m3.96 3.161a6.9687 6.9687 0 0 0-1.0086 1.0598v8.499a6.9687 6.9687 0 0 0 1.0086 1.0607z" opacity=".2" style="paint-order:stroke fill markers"/>
   <path d="m7.2257 1.6121a6.9687 6.9687 0 0 0-1.0081 0.26768v13.175a6.9687 6.9687 0 0 0 1.0081 0.2636z" opacity=".2" style="paint-order:stroke fill markers"/>
   <path d="m9.48 1.5808v13.774a6.9687 6.9687 0 0 0 1.0081-0.22548v-13.329a6.9687 6.9687 0 0 0-1.0081-0.21868z" opacity=".2" style="paint-order:stroke fill markers"/>
   <path d="m12.743 2.9746v10.99a6.9687 6.9687 0 0 0 1.0081-0.96047v-9.068a6.9687 6.9687 0 0 0-1.0081-0.96183z" opacity=".2" style="paint-order:stroke fill markers"/>
  </g>
  <path d="m1.7487 6.6431a6.9687 6.9687 0 0 0-0.25089 1.8234 6.9687 6.9687 0 0 0 0.25089 1.8502z" opacity=".2" stroke-width=".25341" style="paint-order:stroke fill markers"/>
 </g>
 <path transform="scale(.26458)" d="m53.375 21.279-13.098 11.381-15.234-5.498-13.668 20.602-5.9082-1.8027a30 30 0 0 0 25.639 15.994h2.1465a30 30 0 0 0 28.748-29.955 30 30 0 0 0-1.3691-8.8516l-7.2559-1.8691z" fill="url(#linearGradient1113)" stroke-width="4.5642"/>
 <path d="m1.9023 11.803 1.2669 0.52507 3.6342-5.2921 3.641 1.3142 3.0412-2.5406 1.9877 0.37342" fill="none" stroke="url(#linearGradient1068)" stroke-linecap="round" stroke-linejoin="round" stroke-width="1.1545"/>
 <g fill="#fafafa" stroke-width="1.0909">
  <circle cx="3.1403" cy="12.262" r=".65407" style="paint-order:stroke fill markers"/>
  <circle cx="6.8323" cy="7.114" r=".65407" style="paint-order:stroke fill markers"/>
  <circle cx="10.42" cy="8.2725" r=".65407" style="paint-order:stroke fill markers"/>
  <circle cx="13.595" cy="5.6984" r=".65407" style="paint-order:stroke fill markers"/>
 </g>
</svg>
