<?xml version="1.0" encoding="UTF-8"?>
<!-- Created with Inkscape (http://www.inkscape.org/) -->
<svg width="64" height="64" version="1.1" viewBox="0 0 16.933 16.933" xmlns="http://www.w3.org/2000/svg" xmlns:cc="http://creativecommons.org/ns#" xmlns:dc="http://purl.org/dc/elements/1.1/" xmlns:rdf="http://www.w3.org/1999/02/22-rdf-syntax-ns#">
 <defs>
  <linearGradient id="linearGradient1485" x1="-112.68" x2="-101.23" y1="18.859" y2="18.859" gradientTransform="matrix(1.0736 0 0 1 121.46 -9.2554)" gradientUnits="userSpaceOnUse">
   <stop stop-color="#8296ff" offset="0"/>
   <stop stop-color="#4bbef5" offset="1"/>
  </linearGradient>
  <linearGradient id="linearGradient1493" x1="-111.06" x2="-111.06" y1="15.413" y2="24.998" gradientTransform="translate(113.21 -9.2554)" gradientUnits="userSpaceOnUse">
   <stop stop-color="#5587ff" offset="0"/>
   <stop stop-color="#4bd2f5" offset="1"/>
  </linearGradient>
  <linearGradient id="linearGradient1529" x1="-112.02" x2="-97.816" y1="16.153" y2="16.153" gradientTransform="translate(113.21 -9.2554)" gradientUnits="userSpaceOnUse">
   <stop stop-color="#4187ff" offset="0"/>
   <stop stop-color="#9b46ff" offset="1"/>
  </linearGradient>
  <linearGradient id="linearGradient1537" x1="-101.09" x2="-101.09" y1="24.823" y2="12.616" gradientTransform="translate(113.21 -9.2554)" gradientUnits="userSpaceOnUse">
   <stop stop-color="#5587ff" offset="0"/>
   <stop stop-color="#4bd2f5" offset="1"/>
  </linearGradient>
  <linearGradient id="linearGradient1545" x1="-111.51" x2="-103.44" y1="22.313" y2="22.313" gradientTransform="translate(113.21 -9.2554)" gradientUnits="userSpaceOnUse">
   <stop stop-color="#4b73ff" offset="0"/>
   <stop stop-color="#7373ff" offset="1"/>
  </linearGradient>
  <style type="text/css"/>
  <style type="text/css"/>
 </defs>
 <metadata>
  <rdf:RDF>
   <cc:Work rdf:about="">
    <dc:format>image/svg+xml</dc:format>
    <dc:type rdf:resource="http://purl.org/dc/dcmitype/StillImage"/>
    <dc:title/>
   </cc:Work>
  </rdf:RDF>
 </metadata>
 <g transform="translate(90.259 17.808)">
  <rect x="-89.067" y="-16.618" width="14.552" height="14.552" ry="1.2138" fill="#4b73ff"/>
  <rect x="-88.255" y="-15.806" width="12.928" height="12.928" ry="1.0784" fill="#4187ff" stroke-width=".88843"/>
 </g>
 <path d="m14.755 3.4226-6.7049 6.9531 4.9475 5.3627h1.7187c0.56929 0 1.0278-0.45802 1.0278-1.0273v-10.265c0-0.55602-0.43828-1.003-0.98907-1.0237z" fill="url(#linearGradient1537)" stroke-width=".82788"/>
 <path d="m8.0497 10.376-6.3555 5.2154c0.15396 0.09184 0.332 0.14728 0.52502 0.14728h11.618z" fill="url(#linearGradient1545)" stroke-width=".54633"/>
 <path d="m2.2197 3.4196c-0.56929 0-1.0278 0.45802-1.0278 1.0273v0.28525l6.8583 5.6442 7.3437-6.6978c-0.18091-0.15936-0.41632-0.2589-0.67746-0.2589z" fill="url(#linearGradient1529)" stroke-width=".7509"/>
 <path d="m1.2597 4.1126c-0.0481 0.10439-0.0641 0.22352-0.0641 0.34571v10.265c0 0.54309 0.41871 0.98001 0.95134 1.0196l5.9028-5.3663z" fill="url(#linearGradient1493)" stroke-width=".74797"/>
 <path d="m1.2497 4.1386c-0.0308 0.09723-0.0491 0.20001-0.0491 0.30799v1.5415l6.8542 4.3878z" image-rendering="optimizeSpeed" opacity=".1" stroke-width=".91409"/>
 <path d="m2.1497 15.743 7.0431-6.4044-5.7938 6.4008z" opacity=".4"/>
 <path d="m1.9812 3.4676c-0.45409 0.12721-0.78559 0.51376-0.78559 0.97925v10.264c0 0.56929 0.49229 1.0278 1.1035 1.0278h1.3026l8.4661-4.6932c0.29965-0.16518 0.50525-0.38743 0.61971-0.66093 0.11446-0.27621 0.11446-0.55224 0-0.82577-0.11446-0.2735-0.32007-0.49564-0.61638-0.66351l-9.4064-5.2125c-0.21389-0.11962-0.44281-0.18789-0.6835-0.21549z" fill="url(#linearGradient1485)" image-rendering="optimizeSpeed" opacity=".5" stroke-width=".94714"/>
 <g transform="matrix(.94553 0 0 1 107.57 -9.336)">
  <g transform="translate(25.397,15.435)" fill="#4b73ff">
   <circle cx="-133.51" cy=".49291" r=".6431" style="paint-order:stroke fill markers"/>
   <circle cx="-126.9" cy=".49291" r=".6431" style="paint-order:stroke fill markers"/>
  </g>
  <path d="m-101.51 16.026a3.3006 3.7147 0 0 1 3e-3 0.14858 3.3006 3.7147 0 0 1-3.3006 3.7147 3.3006 3.7147 0 0 1-3.3006-3.7147 3.3006 3.7147 0 0 1 3e-3 -0.14879" fill="none" opacity=".4" stroke="#000" stroke-dashoffset=".42096" stroke-linecap="round" stroke-width=".56025"/>
  <path d="m-101.5 16.019a3.3072 3.3072 0 0 1 3e-3 0.13228 3.3072 3.3072 0 0 1-3.3072 3.3072 3.3072 3.3072 0 0 1-3.3072-3.3072 3.3072 3.3072 0 0 1 3e-3 -0.13247" fill="none" stroke="#fff" stroke-dashoffset=".42096" stroke-linecap="round" stroke-width=".52916"/>
 </g>
</svg>
