<?xml version="1.0" encoding="UTF-8" standalone="no"?>
<svg
   xmlns:dc="http://purl.org/dc/elements/1.1/"
   xmlns:cc="http://creativecommons.org/ns#"
   xmlns:rdf="http://www.w3.org/1999/02/22-rdf-syntax-ns#"
   xmlns:svg="http://www.w3.org/2000/svg"
   xmlns="http://www.w3.org/2000/svg"
   xmlns:sodipodi="http://sodipodi.sourceforge.net/DTD/sodipodi-0.dtd"
   xmlns:inkscape="http://www.inkscape.org/namespaces/inkscape"
   width="200"
   height="200"
   version="1.1"
   id="svg44"
   sodipodi:docname="folder-music.svg"
   inkscape:version="0.92.5 (6c0c36ef5a, 2020-05-15, custom)">
  <sodipodi:namedview
     pagecolor="#ffffff"
     bordercolor="#666666"
     borderopacity="1"
     objecttolerance="10"
     gridtolerance="10"
     guidetolerance="10"
     inkscape:pageopacity="0"
     inkscape:pageshadow="2"
     inkscape:window-width="1920"
     inkscape:window-height="932"
     id="namedview46"
     showgrid="false"
     inkscape:zoom="1.18"
     inkscape:cx="100"
     inkscape:cy="98.404237"
     inkscape:window-x="0"
     inkscape:window-y="36"
     inkscape:window-maximized="1"
     inkscape:current-layer="svg44" />
  <metadata
     id="metadata2">
    <rdf:RDF>
      <cc:Work
         rdf:about="">
        <dc:format>image/svg+xml</dc:format>
        <dc:type
           rdf:resource="http://purl.org/dc/dcmitype/StillImage" />
        <dc:title></dc:title>
      </cc:Work>
    </rdf:RDF>
  </metadata>
  <defs
     id="defs16">
    <linearGradient
       id="linearGradient1011"
       x1="3.9687"
       x2="3.9687"
       y1="-12.171"
       y2="-6.879"
       gradientTransform="matrix(1 0 0 .99894 1.0583 14.153)"
       gradientUnits="userSpaceOnUse">
      <stop
         stop-color="#059bff"
         offset="0"
         id="stop4" />
      <stop
         stop-color="#005aff"
         offset="1"
         id="stop6" />
    </linearGradient>
    <linearGradient
       id="linearGradient921"
       x1="7.9373"
       x2="7.9373"
       y1="1.0583"
       y2="-8.2019"
       gradientTransform="translate(1.0583,14.42)"
       gradientUnits="userSpaceOnUse">
      <stop
         stop-color="#005aff"
         offset="0"
         id="stop9" />
      <stop
         stop-color="#059bff"
         offset="1"
         id="stop11" />
    </linearGradient>
    <style
       type="text/css"
       id="style14" />
    <linearGradient
       gradientUnits="userSpaceOnUse"
       gradientTransform="matrix(1,0,0,0.99894,1.0583,14.153)"
       y2="-6.879"
       y1="-12.171"
       x2="3.9687"
       x1="3.9687"
       id="linearGradient1011-3">
      <stop
         id="stop853"
         offset="0"
         stop-color="#f064be" />
      <stop
         id="stop855"
         offset="1"
         stop-color="#7d41e6" />
    </linearGradient>
    <linearGradient
       gradientUnits="userSpaceOnUse"
       gradientTransform="translate(1.0583,14.42)"
       y2="-8.2019"
       y1="1.0583"
       x2="7.9373"
       x1="7.9373"
       id="linearGradient921-6">
      <stop
         id="stop858"
         offset="0"
         stop-color="#7d41e6" />
      <stop
         id="stop860"
         offset="1"
         stop-color="#f064be" />
    </linearGradient>
    <style
       id="style863"
       type="text/css" />
  </defs>
  <g
     id="g916"
     transform="matrix(12.283465,0,0,12.283465,-3.9996762,-3.997895)">
    <g
       id="g879"
       style="fill:#5e4aa6;stroke-width:0.26458001">
      <circle
         id="circle869"
         r="0"
         cy="-328.38"
         cx="-330.35001" />
      <circle
         id="circle871"
         r="0"
         cy="-326.25"
         cx="-312.10999" />
      <circle
         id="circle873"
         r="0"
         cy="-333.07001"
         cx="-306.01999" />
      <circle
         id="circle875"
         r="0"
         cy="-326.01001"
         cx="-308.84" />
      <circle
         id="circle877"
         r="0"
         cy="-330.45001"
         cx="-328.79999" />
    </g>
    <g
       id="g889"
       transform="translate(-0.52916,-0.39687)">
      <path
         style="fill:url(#linearGradient1011-3)"
         id="path881"
         d="m 1.5875,2.2489 c -0.29315,0 -0.52916,0.23575 -0.52916,0.5286 v 9.2614 c 0,0.29284 0.236,0.5286 0.52916,0.5286 h 14.816 c 0.29315,0 0.52916,-0.23576 0.52916,-0.5286 V 5.4314 c 0,-0.21963 -0.08855,-0.4178 -0.23202,-0.56112 C 16.55717,4.72696 16.35879,4.6385 16.13893,4.6385 h -6.8651 c -0.83239,0 -1.7561,-1.3313 -2.1306,-1.8604 0,0 -0.26458,-0.52916 -0.80355,-0.52916 z"
         inkscape:connector-curvature="0" />
      <rect
         id="rect883"
         ry="0.52916002"
         height="9.6191998"
         width="14.287"
         y="5.4239001"
         x="1.852"
         style="fill:#ffffff" />
      <path
         style="fill:url(#linearGradient921-6)"
         id="path885"
         d="m 1.0583,6.2176 v 8.4665 c 0,0.43973 0.35401,0.79373 0.79373,0.79373 h 14.287 c 0.43973,0 0.79373,-0.354 0.79373,-0.79373 V 6.2176 Z"
         inkscape:connector-curvature="0" />
      <rect
         id="rect887"
         height="0.26458001"
         width="15.875"
         y="6.2175999"
         x="1.0583"
         style="opacity:0.3;fill:#ffffff" />
    </g>
    <path
       id="path891"
       p-id="7717"
       d="M 10.605,8.0222 C 10.53508,7.95301 10.44309,7.92398 10.35319,7.94313 L 7.70739,8.49168 C 7.55967,8.52257 7.45243,8.67268 7.45243,8.84873 v 3.0936 c -0.1309,-0.13096 -0.30017,-0.21065 -0.48521,-0.21065 -0.4132,0 -0.74964,0.39535 -0.74964,0.88089 0,0.48554 0.33644,0.88089 0.74964,0.88089 0.4132,0 0.74964,-0.39535 0.74964,-0.88089 v -2.7712 l 2.7341,-0.56708 v 2.0459 c -0.1309,-0.13096 -0.30017,-0.21065 -0.48522,-0.21065 -0.41319,0 -0.74964,0.39535 -0.74964,0.88089 0,0.48554 0.33644,0.88089 0.74964,0.88089 0.4132,0 0.74964,-0.39535 0.74964,-0.88089 v -3.6904 c 0,-0.10749 -0.03995,-0.2088 -0.1104,-0.27798 z m -3.6378,5.16 c -0.26758,0 -0.48522,-0.25574 -0.48522,-0.57017 0,-0.31443 0.21764,-0.57017 0.48522,-0.57017 0.26758,0 0.48521,0.25574 0.48521,0.57017 0,0.31443 -0.21764,0.57017 -0.48521,0.57017 z M 7.71684,9.5258 V 8.84876 c 0,-0.02533 0.01525,-0.04695 0.03627,-0.05127 l 2.6458,-0.54855 c 0.01787,-0.0031 0.02996,0.0056 0.03575,0.01174 0.0058,0.0056 0.01577,0.01853 0.01577,0.03954 v 0.65912 z m 2.2489,3.0349 c -0.26758,0 -0.48521,-0.25574 -0.48521,-0.57017 0,-0.31443 0.21764,-0.57017 0.48521,-0.57017 0.26757,0 0.48522,0.25574 0.48522,0.57017 0,0.31443 -0.21764,0.57017 -0.48522,0.57017 z"
       inkscape:connector-curvature="0"
       style="fill:#ffffff;stroke-width:0.0056986" />
  </g>
</svg>
