<?xml version="1.0" encoding="UTF-8"?>
<!-- Created with Inkscape (http://www.inkscape.org/) -->
<svg width="64" height="64" version="1.1" viewBox="0 0 16.933 16.933" xmlns="http://www.w3.org/2000/svg" xmlns:cc="http://creativecommons.org/ns#" xmlns:dc="http://purl.org/dc/elements/1.1/" xmlns:rdf="http://www.w3.org/1999/02/22-rdf-syntax-ns#">
 <defs>
  <linearGradient id="linearGradient938-3" x1="-23.256" x2="-7.173" y1="16.496" y2="16.496" gradientUnits="userSpaceOnUse">
   <stop stop-color="#ffc832" offset="0"/>
   <stop stop-color="#4b377d" offset="1"/>
  </linearGradient>
 </defs>
 <metadata>
  <rdf:RDF>
   <cc:Work rdf:about="">
    <dc:format>image/svg+xml</dc:format>
    <dc:type rdf:resource="http://purl.org/dc/dcmitype/StillImage"/>
    <dc:title/>
   </cc:Work>
  </rdf:RDF>
 </metadata>
 <circle cx="-330.35" cy="-328.38" r="0" fill="#5e4aa6" stroke-width=".26458"/>
 <g transform="translate(1.729e-5,-2.7775e-5)">
  <g fill="#5e4aa6" stroke-width=".26458">
   <circle cx="-330.35" cy="-328.38" r="0"/>
   <circle cx="-312.11" cy="-326.25" r="0"/>
   <circle cx="-306.02" cy="-333.07" r="0"/>
   <circle cx="-308.84" cy="-326.01" r="0"/>
   <circle cx="-328.8" cy="-330.45" r="0"/>
  </g>
  <g transform="matrix(.98705 0 0 .99334 .10992 .056663)">
   <g transform="translate(-3.5158,2.0808)">
    <g transform="translate(27.196,-10.111)" fill-rule="evenodd">
     <rect x="-18.961" y="11.065" width="11.087" height="8.1683" ry=".53121" fill="#463278" style="paint-order:stroke fill markers"/>
     <path d="m-22.424 10.104c-0.46063 0-0.83146 0.37082-0.83146 0.83146v11.122c0 0.46063 0.37082 0.83146 0.83146 0.83146h14.42c0.46063 0 0.83146-0.37082 0.83146-0.83146v-7.5211c-3.35e-4 -0.22982-0.092859-0.43702-0.24287-0.58703-0.15029-0.15029-0.35827-0.24339-0.58858-0.24339h-6.6708c-0.52261 0-1.1422-0.37082-1.389-0.83146l-2.0288-2.7705z" fill="url(#linearGradient938-3)" style="paint-order:stroke fill markers"/>
    </g>
    <rect x="5.4207" y="3.0665" width="4.238" height=".52916" rx=".20928" ry=".26458" fill="#463278" stroke-width=".91817" style="paint-order:fill markers stroke"/>
   </g>
   <path d="m10.292 7.673c-0.06141-6.802e-4 -0.14307 0.00903-0.25169 0.02535l-1.9616 0.29067c-0.43638 0.092922-0.43638 0.12171-0.43638 0.49038v3.457c-0.03217-0.02252-0.0639-0.04515-0.09714-0.06743v1.1e-4c-0.13864-0.09291-0.28637-0.15902-0.48484-0.15902-0.24861 0-0.39691 0.09521-0.48666 0.22059-0.08974 0.12538-0.11951 0.28343-0.11951 0.4056 0 0.14732 0.05033 0.30453 0.15945 0.42434 0.10911 0.11982 0.27687 0.20376 0.51808 0.20376 0.27237 0 0.46398-0.07609 0.57229-0.22464 0.08528-0.11695 0.1324-0.27316 0.14922-0.46589v-5.55e-4c0.0024-0.02339 4e-3 -0.04737 0.0055-0.07211 0.0023-0.03809 0.0018-0.10938 0.0018-0.10938v-2.7267c0-0.32721-3.2e-5 -0.34674 0.43649-0.42136l1.5257-0.21601c0.43046-0.05635 0.43713-0.01725 0.43723 0.21803v2.5544c-0.03217-0.02252-0.06389-0.04515-0.09714-0.06743v1.09e-4c-0.13864-0.09291-0.28637-0.15903-0.48484-0.15903-0.24861 0-0.39691 0.09521-0.48666 0.22059-0.08974 0.12538-0.11951 0.28343-0.11951 0.4056 0 0.14732 0.05033 0.30453 0.15945 0.42435 0.10911 0.11982 0.27687 0.20376 0.51808 0.20376 0.27237 0 0.46398-0.07609 0.57229-0.22464 0.08528-0.11695 0.1324-0.27316 0.14922-0.46589v-5.55e-4c0.0024-0.02339 4e-3 -0.04737 0.0055-0.07211 0.0023-0.03808 0.0018-0.10938 0.0018-0.10938v-3.5984c0-0.28698-0.0019-0.38203-0.18608-0.38408z" enable-background="new" fill="#463278"/>
  </g>
 </g>
</svg>
