<?xml version="1.0" encoding="UTF-8"?>
<!-- Created with Inkscape (http://www.inkscape.org/) -->
<svg width="64" height="64" version="1.1" viewBox="0 0 16.933 16.933" xmlns="http://www.w3.org/2000/svg" xmlns:cc="http://creativecommons.org/ns#" xmlns:dc="http://purl.org/dc/elements/1.1/" xmlns:rdf="http://www.w3.org/1999/02/22-rdf-syntax-ns#">
 <defs>
  <linearGradient id="linearGradient938-7" x1="-23.256" x2="-7.173" y1="16.496" y2="16.496" gradientUnits="userSpaceOnUse">
   <stop stop-color="#ffc832" offset="0"/>
   <stop stop-color="#4b377d" offset="1"/>
  </linearGradient>
 </defs>
 <metadata>
  <rdf:RDF>
   <cc:Work rdf:about="">
    <dc:format>image/svg+xml</dc:format>
    <dc:type rdf:resource="http://purl.org/dc/dcmitype/StillImage"/>
    <dc:title/>
   </cc:Work>
  </rdf:RDF>
 </metadata>
 <g fill="#5e4aa6" stroke-width=".26458">
  <circle cx="-330.35" cy="-328.38" r="0"/>
  <circle cx="-330.17" cy="-334.81" r="0"/>
  <circle cx="-307.74" cy="-329.29" r="0"/>
 </g>
 <g transform="translate(2.47e-5,-2.811e-5)">
  <g fill="#5e4aa6" stroke-width=".26458">
   <circle cx="-330.35" cy="-328.38" r="0"/>
   <circle cx="-312.11" cy="-326.25" r="0"/>
   <circle cx="-306.02" cy="-333.07" r="0"/>
   <circle cx="-308.84" cy="-326.01" r="0"/>
   <circle cx="-328.8" cy="-330.45" r="0"/>
  </g>
  <g transform="matrix(.98705 0 0 .99334 .11011 .056415)">
   <g transform="translate(-38.458,-8.897)">
    <g transform="translate(62.138 .86705)" fill-rule="evenodd">
     <rect x="-18.961" y="11.065" width="11.087" height="8.1683" ry=".53121" fill="#463278" style="paint-order:stroke fill markers"/>
     <path d="m-22.424 10.104c-0.46063 0-0.83146 0.37082-0.83146 0.83146v11.122c0 0.46063 0.37082 0.83146 0.83146 0.83146h14.42c0.46063 0 0.83146-0.37082 0.83146-0.83146v-7.5211c-3.35e-4 -0.22982-0.092859-0.43702-0.24287-0.58703-0.15029-0.15029-0.35827-0.24339-0.58858-0.24339h-6.6708c-0.52261 0-1.1422-0.37082-1.389-0.83146l-2.0288-2.7705z" fill="url(#linearGradient938-7)" style="paint-order:stroke fill markers"/>
    </g>
    <rect x="40.363" y="14.044" width="4.238" height=".52916" rx=".20928" ry=".26458" fill="#463278" stroke-width=".91817" style="paint-order:fill markers stroke"/>
   </g>
   <g transform="matrix(.057517 0 0 .057517 -161.32 .49291)" enable-background="new" fill="#463278">
    <path d="m2965 124c-2.6667 0-3.7247 1.1858-4.3555 2.4473-0.6305 1.2615-0.6445 2.5527-0.6445 2.5527v60.402l0.045 0.21875c0.1593 0.69553 0.7999 3.2139 2.2696 7.5293 1.4676 4.3097 6.6505 13.828 9.6855 19.68 3.0316-5.8477 8.218-15.37 9.6855-19.68 1.4695-4.3156 2.113-6.8507 2.2696-7.5312l0.045-0.2168v-60.402c0-2.6667-1.1858-3.7247-2.4473-4.3555-1.2621-0.63073-2.5529-0.64453-2.5529-0.64453zm-1 4h16v12h-16zm0 56h16v4.9102c-0.1301 0.55295-0.7088 2.861-2.1016 6.9512-0.7556 2.2192-3.3179 7.2695-5.8984 12.26-2.5804-4.9899-5.1425-10.04-5.8984-12.26-1.3934-4.0912-1.9706-6.3868-2.1016-6.9453z"/>
    <path d="m2920 124v92h28v-92zm4 4h20v8h-8v4h8v12h-8v4h8v12h-8v4h8v12h-8v4h8v12h-8v4h8v8h-20v-83z" color="#000000" color-rendering="auto" dominant-baseline="auto" enable-background="accumulate" image-rendering="auto" shape-rendering="auto" solid-color="#000000" style="font-feature-settings:normal;font-variant-alternates:normal;font-variant-caps:normal;font-variant-ligatures:normal;font-variant-numeric:normal;font-variant-position:normal;isolation:auto;mix-blend-mode:normal;shape-padding:0;text-decoration-color:#000000;text-decoration-line:none;text-decoration-style:solid;text-indent:0;text-orientation:mixed;text-transform:none;white-space:normal"/>
   </g>
  </g>
 </g>
</svg>
