<?xml version="1.0" encoding="UTF-8" standalone="no"?>
<svg
   xmlns:dc="http://purl.org/dc/elements/1.1/"
   xmlns:cc="http://creativecommons.org/ns#"
   xmlns:rdf="http://www.w3.org/1999/02/22-rdf-syntax-ns#"
   xmlns:svg="http://www.w3.org/2000/svg"
   xmlns="http://www.w3.org/2000/svg"
   xmlns:sodipodi="http://sodipodi.sourceforge.net/DTD/sodipodi-0.dtd"
   xmlns:inkscape="http://www.inkscape.org/namespaces/inkscape"
   width="32"
   height="32"
   version="1.1"
   id="svg17"
   sodipodi:docname="system-shutdown.svg"
   inkscape:version="0.92.4 5da689c313, 2019-01-14">
  <defs
     id="defs21">
    <linearGradient
       gradientUnits="userSpaceOnUse"
       gradientTransform="matrix(2.1990528,0,0,2.1990528,59.880029,-4.594071)"
       y2="-11.929"
       y1="0.70410001"
       x2="-59.235001"
       x1="-59.235001"
       id="linearGradient1634">
      <stop
         id="stop4773"
         offset="0"
         stop-color="#d73782" />
      <stop
         id="stop4775"
         offset="1"
         stop-color="#eb554b" />
    </linearGradient>
  </defs>
  <sodipodi:namedview
     pagecolor="#c8c8c8"
     bordercolor="#666666"
     borderopacity="1"
     objecttolerance="10"
     gridtolerance="10"
     guidetolerance="10"
     inkscape:pageopacity="0"
     inkscape:pageshadow="2"
     inkscape:window-width="1920"
     inkscape:window-height="1017"
     id="namedview19"
     showgrid="false"
     inkscape:zoom="7.375"
     inkscape:cx="12.474576"
     inkscape:cy="26.440678"
     inkscape:window-x="0"
     inkscape:window-y="38"
     inkscape:window-maximized="1"
     inkscape:current-layer="svg17" />
  <metadata
     id="metadata2">
    <rdf:RDF>
      <cc:Work
         rdf:about="">
        <dc:format>image/svg+xml</dc:format>
        <dc:type
           rdf:resource="http://purl.org/dc/dcmitype/StillImage" />
        <dc:title />
      </cc:Work>
    </rdf:RDF>
  </metadata>
  <g
     transform="translate(82.000099)"
     id="system-shutdown-3">
    <rect
       ry="0"
       rx="0"
       y="0"
       x="-82.000099"
       height="32"
       width="32"
       id="rect1131-6"
       style="opacity:0;fill:#000000;fill-opacity:1;fill-rule:evenodd;stroke:none;stroke-width:2;stroke-linecap:round;stroke-linejoin:round;stroke-miterlimit:4;stroke-dasharray:none;stroke-opacity:1;paint-order:fill markers stroke" />
    <g
       transform="translate(3.999901,35)"
       id="g5074">
      <path
         id="path4800"
         d="m -53.999989,-19.000242 c 0,1.91808 -0.337621,3.757082 -0.956764,5.461568 -0.430377,1.184629 -0.996567,2.304607 -1.681,3.340581 -0.28669,0.435566 -0.594931,0.856201 -0.922128,1.260431 -1.047497,1.293703 -2.292293,2.420278 -3.689791,3.334644 -0.514622,0.336982 -1.049498,0.645246 -1.603264,0.921446 C -65.003345,-3.605377 -67.430923,-3 -70.000077,-3 c -2.569153,0 -4.996688,-0.605377 -7.147141,-1.681615 -0.55381,-0.276268 -1.089323,-0.584509 -1.603945,-0.921448 -1.415201,-0.926702 -2.674928,-2.070979 -3.730914,-3.386101 -0.327812,-0.407507 -0.635438,-0.832012 -0.922128,-1.271492 -0.666137,-1.018755 -1.217946,-2.117952 -1.639812,-3.279668 -0.619055,-1.703892 -0.956082,-3.542234 -0.956082,-5.459588 0,-8.836674 7.163414,-16.000088 16.000088,-16.000088 4.435709,0 8.44942,1.80507 11.347772,4.720267 0.835244,0.839796 1.57782,1.772436 2.209828,2.780702 0.597571,0.949573 1.097129,1.967009 1.485702,3.037332 0.619209,1.704507 0.956808,3.543553 0.956808,5.461567 z"
         inkscape:connector-curvature="0"
         style="fill:url(#linearGradient1634);stroke-width:0.06250148" />
      <g
         transform="translate(-1,8.9999995)"
         id="g5062">
        <rect
           style="opacity:1;fill:#fafafa;fill-opacity:1;fill-rule:evenodd;stroke:none;stroke-width:2.23606801;stroke-linecap:round;stroke-linejoin:miter;stroke-miterlimit:4;stroke-dasharray:none;stroke-dashoffset:3;stroke-opacity:1;paint-order:stroke fill markers"
           id="rect5058"
           width="10"
           height="2"
           x="-39"
           y="67.99942"
           ry="1"
           transform="rotate(90)" />
        <path
           d="m -61.92891,-35.071121 a 10.000031,10.000031 0 0 1 2.167735,10.897937 10.000031,10.000031 0 0 1 -9.238825,6.173185 10.000031,10.000031 0 0 1 -9.238824,-6.173185 10.000031,10.000031 0 0 1 2.167734,-10.897936"
           sodipodi:end="3.9269908"
           sodipodi:start="5.4977871"
           sodipodi:ry="10.000031"
           sodipodi:rx="10.000031"
           sodipodi:cy="-28.000031"
           sodipodi:cx="-69"
           sodipodi:type="arc"
           id="path5060"
           style="opacity:1;fill:none;fill-opacity:1;fill-rule:evenodd;stroke:#ffffff;stroke-width:2;stroke-linecap:round;stroke-linejoin:miter;stroke-miterlimit:4;stroke-dasharray:none;stroke-dashoffset:3;stroke-opacity:1;paint-order:stroke fill markers"
           sodipodi:open="true" />
      </g>
    </g>
  </g>
</svg>
