<?xml version="1.0" encoding="UTF-8" standalone="no"?>
<svg
   xmlns:dc="http://purl.org/dc/elements/1.1/"
   xmlns:cc="http://creativecommons.org/ns#"
   xmlns:rdf="http://www.w3.org/1999/02/22-rdf-syntax-ns#"
   xmlns:svg="http://www.w3.org/2000/svg"
   xmlns="http://www.w3.org/2000/svg"
   xmlns:sodipodi="http://sodipodi.sourceforge.net/DTD/sodipodi-0.dtd"
   xmlns:inkscape="http://www.inkscape.org/namespaces/inkscape"
   width="32"
   height="32"
   version="1.1"
   id="svg14"
   sodipodi:docname="system-log-out.svg"
   inkscape:version="0.92.4 5da689c313, 2019-01-14">
  <defs
     id="defs18">
    <linearGradient
       gradientUnits="userSpaceOnUse"
       gradientTransform="matrix(2.0157617,0,0,2.0157617,-8.1387138,-35.053456)"
       y2="2.9421"
       y1="15.383"
       x2="9.3823996"
       x1="5.2535"
       id="linearGradient1005-3-3">
      <stop
         id="stop1194"
         offset="0"
         stop-color="#fa8200" />
      <stop
         id="stop1196"
         offset=".36953"
         stop-color="#ff9600" />
      <stop
         id="stop1198"
         offset="1"
         stop-color="#ffb400" />
    </linearGradient>
  </defs>
  <sodipodi:namedview
     pagecolor="#c8c8c8"
     bordercolor="#666666"
     borderopacity="1"
     objecttolerance="10"
     gridtolerance="10"
     guidetolerance="10"
     inkscape:pageopacity="0"
     inkscape:pageshadow="2"
     inkscape:window-width="1920"
     inkscape:window-height="1017"
     id="namedview16"
     showgrid="false"
     inkscape:zoom="14.75"
     inkscape:cx="23.181221"
     inkscape:cy="14.488659"
     inkscape:window-x="0"
     inkscape:window-y="38"
     inkscape:window-maximized="1"
     inkscape:current-layer="svg14" />
  <metadata
     id="metadata2">
    <rdf:RDF>
      <cc:Work
         rdf:about="">
        <dc:format>image/svg+xml</dc:format>
        <dc:type
           rdf:resource="http://purl.org/dc/dcmitype/StillImage" />
        <dc:title />
      </cc:Work>
    </rdf:RDF>
  </metadata>
  <g
     id="system-log-out-3">
    <rect
       ry="0"
       rx="0"
       y="5.5000001e-08"
       x="-1.25e-07"
       height="32"
       width="32"
       id="rect950"
       style="opacity:0;fill:#000000;fill-opacity:1;fill-rule:evenodd;stroke:none;stroke-width:2;stroke-linecap:round;stroke-linejoin:round;stroke-miterlimit:4;stroke-dasharray:none;stroke-opacity:1;paint-order:fill markers stroke" />
    <g
       transform="translate(7.0000988,34)"
       id="g4523">
      <path
         id="path2537"
         d="m 24.999912,-18.000242 c 0,1.91808 -0.33762,3.757082 -0.956764,5.461568 -0.430376,1.184629 -0.996567,2.304607 -1.681,3.34058 -0.286691,0.435567 -0.594931,0.856202 -0.922128,1.260432 -1.047497,1.293703 -2.292293,2.420277 -3.689791,3.334643 -0.514623,0.336983 -1.049498,0.645246 -1.603264,0.921447 C 13.996556,-2.605377 11.568977,-2 8.9998241,-2 6.4306712,-2 4.0031362,-2.605377 1.8526832,-3.681616 c -0.553809,-0.276267 -1.089323,-0.584508 -1.603946,-0.921446 -1.4152,-0.926703 -2.674927,-2.07098 -3.730912,-3.386102 -0.327813,-0.407507 -0.635438,-0.832012 -0.922129,-1.271492 -0.666137,-1.018756 -1.217945,-2.117952 -1.639812,-3.279668 -0.619055,-1.703892 -0.956082,-3.542234 -0.956082,-5.459588 0,-8.836673 7.163415,-16.000088 16.0000876,-16.000088 4.4357102,0 8.4494212,1.805071 11.3477722,4.720267 0.835244,0.839796 1.577821,1.772436 2.209828,2.780702 0.59757,0.949573 1.097129,1.967009 1.485702,3.037332 C 24.662402,-21.757192 25,-19.918146 25,-18.000132 Z"
         inkscape:connector-curvature="0"
         style="fill:url(#linearGradient1005-3-3);stroke-width:0.06250148" />
      <g
         transform="translate(-89.792566,14.002224)"
         id="g4503">
        <g
           id="g4499"
           transform="translate(-45.000007,-13.002225)">
          <rect
             style="opacity:1;fill:#fafafa;fill-opacity:1;fill-rule:evenodd;stroke:none;stroke-width:2.23606801;stroke-linecap:round;stroke-linejoin:miter;stroke-miterlimit:4;stroke-dasharray:none;stroke-dashoffset:3;stroke-opacity:1;paint-order:stroke fill markers"
             id="rect4491"
             width="10"
             height="2"
             x="143"
             y="-20"
             ry="1" />
          <g
             transform="translate(-6.5355314,-2.1213214)"
             id="g4497">
            <rect
               style="opacity:1;fill:#fafafa;fill-opacity:1;fill-rule:evenodd;stroke:none;stroke-width:2;stroke-linecap:round;stroke-linejoin:miter;stroke-miterlimit:4;stroke-dasharray:none;stroke-dashoffset:3;stroke-opacity:1;paint-order:stroke fill markers"
               id="rect4493"
               width="8"
               height="2"
               x="94.287842"
               y="-126.1579"
               transform="rotate(45)"
               ry="1" />
            <rect
               transform="matrix(0.70710678,-0.70710678,-0.70710678,-0.70710678,0,0)"
               y="-102.28784"
               x="118.1579"
               height="2"
               width="8"
               id="rect4495"
               style="opacity:1;fill:#fafafa;fill-opacity:1;fill-rule:evenodd;stroke:none;stroke-width:2;stroke-linecap:round;stroke-linejoin:miter;stroke-miterlimit:4;stroke-dasharray:none;stroke-dashoffset:3;stroke-opacity:1;paint-order:stroke fill markers"
               ry="1" />
          </g>
        </g>
        <path
           style="opacity:1;fill:none;fill-opacity:1;fill-rule:evenodd;stroke:#ffffff;stroke-width:2;stroke-linecap:round;stroke-linejoin:miter;stroke-miterlimit:4;stroke-dasharray:none;stroke-dashoffset:3;stroke-opacity:1;paint-order:stroke fill markers"
           id="path4501"
           sodipodi:type="arc"
           sodipodi:cx="98.996796"
           sodipodi:cy="-32.002224"
           sodipodi:rx="10.000031"
           sodipodi:ry="10.000031"
           sodipodi:start="1.3089969"
           sodipodi:end="4.9741884"
           sodipodi:open="true"
           d="m 101.58499,-22.342935 a 10.000031,10.000031 0 0 1 -10.77974,-3.923506 10.000031,10.000031 0 0 1 -10e-7,-11.471565 10.000031,10.000031 0 0 1 10.779741,-3.923507" />
      </g>
    </g>
  </g>
</svg>
