<?xml version="1.0" encoding="UTF-8"?>
<!-- Created with Inkscape (http://www.inkscape.org/) -->
<svg width="64" height="64" version="1.1" viewBox="0 0 16.933 16.933" xmlns="http://www.w3.org/2000/svg" xmlns:cc="http://creativecommons.org/ns#" xmlns:dc="http://purl.org/dc/elements/1.1/" xmlns:rdf="http://www.w3.org/1999/02/22-rdf-syntax-ns#">
 <defs>
  <linearGradient id="linearGradient938-3" x1="-23.256" x2="-7.173" y1="16.496" y2="16.496" gradientUnits="userSpaceOnUse">
   <stop stop-color="#5a5f64" offset="0"/>
   <stop stop-color="#0f0f0f" offset="1"/>
  </linearGradient>
 </defs>
 <metadata>
  <rdf:RDF>
   <cc:Work rdf:about="">
    <dc:format>image/svg+xml</dc:format>
    <dc:type rdf:resource="http://purl.org/dc/dcmitype/StillImage"/>
    <dc:title/>
   </cc:Work>
  </rdf:RDF>
 </metadata>
 <g fill="#5e4aa6" stroke-width=".26458">
  <circle cx="-330.35" cy="-328.38" r="0"/>
  <circle cx="-330.17" cy="-334.81" r="0"/>
  <circle cx="-307.74" cy="-329.29" r="0"/>
 </g>
 <g transform="translate(1.765e-5,-2.8443e-5)">
  <g fill="#5e4aa6" stroke-width=".26458">
   <circle cx="-330.35" cy="-328.38" r="0"/>
   <circle cx="-312.11" cy="-326.25" r="0"/>
   <circle cx="-306.02" cy="-333.07" r="0"/>
   <circle cx="-308.84" cy="-326.01" r="0"/>
   <circle cx="-328.8" cy="-330.45" r="0"/>
  </g>
  <g transform="matrix(.98705 0 0 .99334 .10913 .056465)">
   <g transform="translate(6.027,11.552)">
    <g transform="translate(17.654,-19.582)" fill-rule="evenodd">
     <rect x="-18.961" y="11.065" width="11.087" height="8.1683" ry=".53121" fill="#0a0a0a" style="paint-order:stroke fill markers"/>
     <path d="m-22.424 10.104c-0.46063 0-0.83146 0.37082-0.83146 0.83146v11.122c0 0.46063 0.37082 0.83146 0.83146 0.83146h14.42c0.46063 0 0.83146-0.37082 0.83146-0.83146v-7.5211c-3.35e-4 -0.22982-0.092859-0.43702-0.24287-0.58703-0.15029-0.15029-0.35827-0.24339-0.58858-0.24339h-6.6708c-0.52261 0-1.1422-0.37082-1.389-0.83146l-2.0288-2.7705z" fill="url(#linearGradient938-3)" style="paint-order:stroke fill markers"/>
    </g>
    <rect x="-4.1221" y="-6.4045" width="4.238" height=".52916" rx=".20928" ry=".26458" fill="#0a0a0a" stroke-width=".91817" style="paint-order:fill markers stroke"/>
   </g>
   <g transform="translate(-4.784 .062728)" fill="#0a0a0a">
    <path d="m13.251 7.6096a2.646 2.646 0 0 0-2.646 2.646 2.646 2.646 0 0 0 2.646 2.646 2.646 2.646 0 0 0 2.645-2.646 2.646 2.646 0 0 0-2.645-2.646zm0 0.265a2.381 2.381 0 0 1 2.38 2.38 2.381 2.381 0 0 1-2.38 2.382 2.381 2.381 0 0 1-2.382-2.381 2.381 2.381 0 0 1 2.382-2.381z" style="paint-order:stroke markers fill"/>
    <rect x="12.986" y="8.6676" width=".529" height="1.587" ry=".265" style="paint-order:stroke markers fill"/>
    <rect transform="rotate(135)" x="-2.2505" y="-18.528" width=".265" height="1.852" ry=".132" style="paint-order:stroke markers fill"/>
    <circle cx="13.251" cy="10.256" r=".529" style="paint-order:stroke markers fill"/>
   </g>
  </g>
 </g>
</svg>
