<?xml version="1.0" encoding="UTF-8" standalone="no"?>
<svg
   xmlns:dc="http://purl.org/dc/elements/1.1/"
   xmlns:cc="http://creativecommons.org/ns#"
   xmlns:rdf="http://www.w3.org/1999/02/22-rdf-syntax-ns#"
   xmlns:svg="http://www.w3.org/2000/svg"
   xmlns="http://www.w3.org/2000/svg"
   xmlns:xlink="http://www.w3.org/1999/xlink"
   xmlns:sodipodi="http://sodipodi.sourceforge.net/DTD/sodipodi-0.dtd"
   xmlns:inkscape="http://www.inkscape.org/namespaces/inkscape"
   width="32"
   height="32"
   version="1.1"
   id="svg12"
   sodipodi:docname="system-switch-user.svg"
   inkscape:version="0.92.4 5da689c313, 2019-01-14">
  <defs
     id="defs16">
    <linearGradient
       inkscape:collect="always"
       xlink:href="#linearGradient1032"
       id="linearGradient1034"
       x1="172.52031"
       y1="-22.777815"
       x2="202.52023"
       y2="-52.777817"
       gradientUnits="userSpaceOnUse"
       gradientTransform="translate(-8.3052601,53.723134)" />
    <linearGradient
       inkscape:collect="always"
       id="linearGradient1032">
      <stop
         style="stop-color:#7346ff;stop-opacity:1"
         offset="0"
         id="stop1028" />
      <stop
         style="stop-color:#4187ff;stop-opacity:1"
         offset="1"
         id="stop1030" />
    </linearGradient>
  </defs>
  <sodipodi:namedview
     pagecolor="#c8c8c8"
     bordercolor="#666666"
     borderopacity="1"
     objecttolerance="10"
     gridtolerance="10"
     guidetolerance="10"
     inkscape:pageopacity="0"
     inkscape:pageshadow="2"
     inkscape:window-width="1920"
     inkscape:window-height="1019"
     id="namedview14"
     showgrid="false"
     inkscape:zoom="7.375"
     inkscape:cx="-8.6779661"
     inkscape:cy="16"
     inkscape:window-x="0"
     inkscape:window-y="36"
     inkscape:window-maximized="1"
     inkscape:current-layer="svg12" />
  <metadata
     id="metadata2">
    <rdf:RDF>
      <cc:Work
         rdf:about="">
        <dc:format>image/svg+xml</dc:format>
        <dc:type
           rdf:resource="http://purl.org/dc/dcmitype/StillImage" />
        <dc:title />
      </cc:Work>
    </rdf:RDF>
  </metadata>
  <g
     id="system-switch-user-3"
     transform="translate(-163.21501,0.05468194)">
    <rect
       ry="0"
       rx="0"
       y="-0.054681942"
       x="163.21501"
       height="32"
       width="32"
       id="rect956"
       style="opacity:0;fill:#000000;fill-opacity:1;fill-rule:evenodd;stroke:none;stroke-width:2;stroke-linecap:round;stroke-linejoin:round;stroke-miterlimit:4;stroke-dasharray:none;stroke-opacity:1;paint-order:fill markers stroke" />
    <path
       style="fill:url(#linearGradient1034);fill-opacity:1;stroke-width:0.02949832"
       inkscape:connector-curvature="0"
       d="m 191.32613,17.046239 h -8.11175 a 2.891391,2.8931102 0 0 0 -2.89016,2.890603 v 8.124125 a 2.8762923,2.8780026 0 0 0 2.89016,2.884318 h 8.11175 a 2.890123,2.8918415 0 0 0 2.88885,-2.890603 v -8.11784 a 2.890123,2.8918415 0 0 0 -2.88885,-2.890573 z M 175.52282,0.94534681 h -8.11295 a 2.890123,2.8918415 0 0 0 -2.88889,2.89057399 v 8.1241252 c 0,0.773026 0.30198,1.496924 0.84803,2.044575 a 2.8649683,2.8666718 0 0 0 2.04086,0.839742 h 8.11295 a 2.890123,2.8918415 0 0 0 2.88889,-2.890603 V 3.8358898 a 2.8938976,2.8956183 0 0 0 -2.88889,-2.89057199 z m 0.14471,10.69620019 a 0.45673408,0.45700566 0 0 1 -0.45673,0.459513 h -7.49519 a 0.44036739,0.44062923 0 0 1 -0.32211,-0.137208 0.43535416,0.43561302 0 0 1 -0.13084,-0.318529 V 4.1455968 c 0,-0.255561 0.20507,-0.460783 0.45673,-0.460783 h 7.4927 c 0.25164,0 0.45674,0.205222 0.45674,0.460783 v 7.4959202 z m 17.34958,-7.1169612 h -0.12326 a 1.2028786,1.2035938 0 0 0 -1.19911,1.198548 v 1.877122 c -2.42837,-2.806241 -5.73371,-4.659462 -9.39764,-5.361966 a 1.3110757,1.3118553 0 0 0 -0.45926,-0.113308 c -0.034,-0.0063 -0.0679,-0.02012 -0.10065,-0.0239 v 0.01007 a 1.2959771,1.2967477 0 0 0 0,2.59096 v 0.01387 c 4.29429,0.788105 8.00856,3.484785 10.01544,7.5009062 a 1.2192158,1.2199408 0 0 0 0.48062,0.493535 1.1663705,1.167064 0 0 0 0.66057,0.229123 h 0.12332 c 0.65803,0 1.19781,-0.541367 1.19781,-1.198548 V 5.7293988 a 1.2041171,1.2048331 0 0 0 -1.19781,-1.204833 z M 177.01255,27.558697 c -0.006,0 -0.01,0.0037 -0.0138,0.0037 -4.405,-0.674826 -8.2564,-3.351384 -10.3501,-7.396422 a 1.1952998,1.1960105 0 0 0 -1.11096,-0.764233 h -0.12332 a 1.1915251,1.1922336 0 0 0 -1.12736,0.846027 c -0.0327,0.08309 -0.0403,0.174977 -0.0529,0.265653 -0.004,0.02895 -0.0164,0.05665 -0.0164,0.0856 v 0.06167 c 0,0.0592 -0.006,0.117114 0,0.177545 v 5.77489 c 0,0.657181 0.53978,1.198518 1.19784,1.198518 h 0.12456 c 0.65806,0 1.19784,-0.541337 1.19784,-1.198518 v -1.860776 c 2.52271,2.847787 5.95515,4.679587 9.73736,5.293983 0.16358,0.07805 0.37873,0.07805 0.57375,0.07805 0.006,0 0.0101,-0.0038 0.0139,-0.0038 h 0.006 v -0.0025 c 0.71087,-0.01387 1.25192,-0.541366 1.25192,-1.252694 a 1.3085396,1.3093177 0 0 0 -1.30854,-1.30681 z"
       p-id="202608"
       id="path1018" />
  </g>
</svg>
