<?xml version="1.0" encoding="UTF-8" standalone="no"?>
<svg
   xmlns:dc="http://purl.org/dc/elements/1.1/"
   xmlns:cc="http://creativecommons.org/ns#"
   xmlns:rdf="http://www.w3.org/1999/02/22-rdf-syntax-ns#"
   xmlns:svg="http://www.w3.org/2000/svg"
   xmlns="http://www.w3.org/2000/svg"
   xmlns:xlink="http://www.w3.org/1999/xlink"
   xmlns:sodipodi="http://sodipodi.sourceforge.net/DTD/sodipodi-0.dtd"
   xmlns:inkscape="http://www.inkscape.org/namespaces/inkscape"
   width="32"
   height="32"
   version="1.1"
   id="svg14"
   sodipodi:docname="system-log-out.svg"
   inkscape:version="0.92.4 5da689c313, 2019-01-14">
  <defs
     id="defs18">
    <linearGradient
       inkscape:collect="always"
       xlink:href="#linearGradient964"
       id="linearGradient966"
       x1="90.724464"
       y1="-20.880966"
       x2="118.21706"
       y2="-50.880966"
       gradientUnits="userSpaceOnUse"
       gradientTransform="translate(-5.8477133,51.880965)" />
    <linearGradient
       inkscape:collect="always"
       id="linearGradient964">
      <stop
         style="stop-color:#7346ff;stop-opacity:1"
         offset="0"
         id="stop960" />
      <stop
         style="stop-color:#4187ff;stop-opacity:1"
         offset="1"
         id="stop962" />
    </linearGradient>
  </defs>
  <sodipodi:namedview
     pagecolor="#c8c8c8"
     bordercolor="#666666"
     borderopacity="1"
     objecttolerance="10"
     gridtolerance="10"
     guidetolerance="10"
     inkscape:pageopacity="0"
     inkscape:pageshadow="2"
     inkscape:window-width="1920"
     inkscape:window-height="1019"
     id="namedview16"
     showgrid="false"
     inkscape:zoom="7.375"
     inkscape:cx="-8.6779661"
     inkscape:cy="16"
     inkscape:window-x="0"
     inkscape:window-y="36"
     inkscape:window-maximized="1"
     inkscape:current-layer="svg14" />
  <metadata
     id="metadata2">
    <rdf:RDF>
      <cc:Work
         rdf:about="">
        <dc:format>image/svg+xml</dc:format>
        <dc:type
           rdf:resource="http://purl.org/dc/dcmitype/StillImage" />
        <dc:title />
      </cc:Work>
    </rdf:RDF>
  </metadata>
  <g
     id="system-log-out-3"
     transform="translate(-82.623047)">
    <rect
       ry="0"
       rx="0"
       y="1.1e-07"
       x="82.623047"
       height="32"
       width="32"
       id="rect950"
       style="opacity:0;fill:#000000;fill-opacity:1;fill-rule:evenodd;stroke:none;stroke-width:2;stroke-linecap:round;stroke-linejoin:round;stroke-miterlimit:4;stroke-dasharray:none;stroke-opacity:1;paint-order:fill markers stroke" />
    <path
       style="fill:url(#linearGradient966);fill-opacity:1;stroke-width:0.02929688"
       inkscape:connector-curvature="0"
       d="m 98.747407,5.1087133 h 0.38988 v -3.059042 c 0.015,-0.584817 0.49485,-1.049671 1.079663,-1.049671 0.20994,0 0.40488,0.05998 0.58482,0.179944 l 11.11152,7.46766 c 0.47985,0.329897 0.59981,0.974696 0.26991,1.4545437 -0.075,0.104967 -0.16494,0.209934 -0.26991,0.269916 l -11.11152,7.46766 c -0.47985,0.329897 -1.154643,0.19494 -1.469543,-0.28491 -0.11996,-0.164949 -0.17994,-0.374883 -0.17994,-0.584817 v -3.089032 c -5.05342,-0.344892 -9.462035,3.373942 -10.001865,8.412365 -0.06,3.73383 2.2343,7.092778 5.728195,8.412364 0.075,0.02999 0.13496,0.104969 0.13496,0.19494 -0.015,0.07498 -0.09,0.119963 -0.16495,0.08997 h -0.015 c -5.638225,-1.484535 -9.656965,-6.44798 -9.956875,-12.266157 0.075,-7.60262 6.28304,-13.6907107 13.870655,-13.6157337 z"
       p-id="173433"
       id="path950" />
  </g>
</svg>
