<?xml version="1.0" encoding="UTF-8" standalone="no"?>
<svg
   xmlns:dc="http://purl.org/dc/elements/1.1/"
   xmlns:cc="http://creativecommons.org/ns#"
   xmlns:rdf="http://www.w3.org/1999/02/22-rdf-syntax-ns#"
   xmlns:svg="http://www.w3.org/2000/svg"
   xmlns="http://www.w3.org/2000/svg"
   xmlns:xlink="http://www.w3.org/1999/xlink"
   xmlns:sodipodi="http://sodipodi.sourceforge.net/DTD/sodipodi-0.dtd"
   xmlns:inkscape="http://www.inkscape.org/namespaces/inkscape"
   width="32"
   height="32"
   version="1.1"
   id="svg18"
   sodipodi:docname="system-lock-screen.svg"
   inkscape:version="0.92.4 5da689c313, 2019-01-14">
  <defs
     id="defs22">
    <linearGradient
       inkscape:collect="always"
       xlink:href="#linearGradient1010"
       id="linearGradient1012"
       x1="67.071999"
       y1="1018.88"
       x2="946.17603"
       y2="5.0716181"
       gradientUnits="userSpaceOnUse" />
    <linearGradient
       inkscape:collect="always"
       id="linearGradient1010">
      <stop
         style="stop-color:#7346ff;stop-opacity:1"
         offset="0"
         id="stop1006" />
      <stop
         style="stop-color:#4187ff;stop-opacity:1"
         offset="1"
         id="stop1008" />
    </linearGradient>
    <linearGradient
       inkscape:collect="always"
       xlink:href="#linearGradient1010"
       id="linearGradient852"
       gradientUnits="userSpaceOnUse"
       x1="67.071999"
       y1="1018.88"
       x2="946.17603"
       y2="5.0716181" />
    <linearGradient
       inkscape:collect="always"
       xlink:href="#linearGradient1010"
       id="linearGradient854"
       gradientUnits="userSpaceOnUse"
       x1="67.071999"
       y1="1018.88"
       x2="946.17603"
       y2="5.0716181" />
  </defs>
  <sodipodi:namedview
     pagecolor="#c8c8c8"
     bordercolor="#666666"
     borderopacity="1"
     objecttolerance="10"
     gridtolerance="10"
     guidetolerance="10"
     inkscape:pageopacity="0"
     inkscape:pageshadow="2"
     inkscape:window-width="1920"
     inkscape:window-height="1019"
     id="namedview20"
     showgrid="false"
     inkscape:zoom="7.375"
     inkscape:cx="6.1016949"
     inkscape:cy="21.559322"
     inkscape:window-x="0"
     inkscape:window-y="36"
     inkscape:window-maximized="1"
     inkscape:current-layer="svg18" />
  <metadata
     id="metadata2">
    <rdf:RDF>
      <cc:Work
         rdf:about="">
        <dc:format>image/svg+xml</dc:format>
        <dc:type
           rdf:resource="http://purl.org/dc/dcmitype/StillImage" />
        <dc:title />
      </cc:Work>
    </rdf:RDF>
  </metadata>
  <g
     id="system-lock-screen-3"
     transform="translate(-123,1.4999995)">
    <rect
       style="opacity:0;fill:#000000;fill-opacity:1;fill-rule:evenodd;stroke:none;stroke-width:2;stroke-linecap:round;stroke-linejoin:round;stroke-miterlimit:4;stroke-dasharray:none;stroke-opacity:1;paint-order:fill markers stroke"
       id="rect1067"
       width="32"
       height="32"
       x="123"
       y="-1.4999995"
       rx="0"
       ry="0" />
    <g
       style="fill:url(#linearGradient1012);fill-opacity:1"
       transform="matrix(0.02959139,0,0,0.02959139,124.00829,-0.65007537)"
       id="g1004">
      <path
         style="fill:url(#linearGradient852);fill-opacity:1"
         inkscape:connector-curvature="0"
         d="m 805.376,338.944 h -20.992 l 0.512,-55.808 C 784.384,151.552 706.048,46.08 585.216,14.336 561.152,8.192 535.552,4.608 508.928,5.12 431.616,5.12 361.984,34.816 312.32,88.064 263.68,139.776 237.056,209.92 237.568,285.184 l -2.048,53.76 h -27.648 c -77.824,0 -140.8,62.976 -140.8,140.8 V 878.08 c 0,77.824 62.976,140.8 140.8,140.8 h 597.504 c 77.824,0 140.8,-62.976 140.8,-140.8 V 479.744 c 0,-77.824 -63.488,-140.8 -140.8,-140.8 z M 563.2,94.208 c 83.968,22.016 138.752,96.256 138.752,189.44 l -0.512,55.296 H 317.952 L 320,285.696 c 0,-55.296 18.432,-105.472 53.248,-141.824 34.304,-35.84 82.432,-55.808 135.68,-56.32 18.944,-0.512 36.864,2.048 54.272,6.656 z M 863.744,479.744 V 878.08 c 0,32.256 -26.112,58.368 -58.368,58.368 H 207.872 c -32.256,0 -58.368,-26.112 -58.368,-58.368 V 479.744 c 0,-32.256 26.112,-58.368 58.368,-58.368 h 597.504 c 32.256,0 58.368,26.112 58.368,58.368 z"
         p-id="193382"
         id="path991" />
      <path
         style="fill:url(#linearGradient854);fill-opacity:1"
         inkscape:connector-curvature="0"
         d="m 506.368,538.112 c -40.96,0 -74.24,33.28 -74.24,74.24 0,24.576 12.8,48.128 33.28,61.952 V 778.24 c 0,22.528 18.432,41.472 41.472,41.472 22.528,0 41.472,-18.432 41.472,-41.472 V 674.304 c 20.48,-13.824 33.28,-37.376 33.28,-61.952 -0.512,-40.96 -33.792,-74.24 -75.264,-74.24 z"
         p-id="193383"
         id="path993" />
    </g>
  </g>
</svg>
