<?xml version="1.0" encoding="UTF-8" standalone="no"?>
<svg
   xmlns:dc="http://purl.org/dc/elements/1.1/"
   xmlns:cc="http://creativecommons.org/ns#"
   xmlns:rdf="http://www.w3.org/1999/02/22-rdf-syntax-ns#"
   xmlns:svg="http://www.w3.org/2000/svg"
   xmlns="http://www.w3.org/2000/svg"
   xmlns:xlink="http://www.w3.org/1999/xlink"
   xmlns:sodipodi="http://sodipodi.sourceforge.net/DTD/sodipodi-0.dtd"
   xmlns:inkscape="http://www.inkscape.org/namespaces/inkscape"
   width="32"
   height="32"
   version="1.1"
   id="svg17"
   sodipodi:docname="system-shutdown.svg"
   inkscape:version="0.92.4 5da689c313, 2019-01-14">
  <defs
     id="defs21">
    <linearGradient
       inkscape:collect="always"
       xlink:href="#linearGradient986"
       id="linearGradient988"
       x1="51"
       y1="989.40002"
       x2="957.22003"
       y2="55.000019"
       gradientUnits="userSpaceOnUse" />
    <linearGradient
       inkscape:collect="always"
       id="linearGradient986">
      <stop
         style="stop-color:#7346ff;stop-opacity:1"
         offset="0"
         id="stop982" />
      <stop
         style="stop-color:#4187ff;stop-opacity:1"
         offset="1"
         id="stop984" />
    </linearGradient>
    <linearGradient
       inkscape:collect="always"
       xlink:href="#linearGradient986"
       id="linearGradient848"
       gradientUnits="userSpaceOnUse"
       x1="51"
       y1="989.40002"
       x2="957.22003"
       y2="55.000019" />
    <linearGradient
       inkscape:collect="always"
       xlink:href="#linearGradient986"
       id="linearGradient850"
       gradientUnits="userSpaceOnUse"
       x1="51"
       y1="989.40002"
       x2="957.22003"
       y2="55.000019" />
  </defs>
  <sodipodi:namedview
     pagecolor="#c8c8c8"
     bordercolor="#666666"
     borderopacity="1"
     objecttolerance="10"
     gridtolerance="10"
     guidetolerance="10"
     inkscape:pageopacity="0"
     inkscape:pageshadow="2"
     inkscape:window-width="1920"
     inkscape:window-height="1019"
     id="namedview19"
     showgrid="false"
     inkscape:zoom="7.375"
     inkscape:cx="-8.6779661"
     inkscape:cy="16"
     inkscape:window-x="0"
     inkscape:window-y="36"
     inkscape:window-maximized="1"
     inkscape:current-layer="svg17" />
  <metadata
     id="metadata2">
    <rdf:RDF>
      <cc:Work
         rdf:about="">
        <dc:format>image/svg+xml</dc:format>
        <dc:type
           rdf:resource="http://purl.org/dc/dcmitype/StillImage" />
        <dc:title />
      </cc:Work>
    </rdf:RDF>
  </metadata>
  <g
     id="system-shutdown">
    <rect
       ry="0"
       rx="0"
       y="5e-07"
       x="6.2499998e-07"
       height="32"
       width="32"
       id="rect1086"
       style="opacity:0;fill:#000000;fill-opacity:1;fill-rule:evenodd;stroke:none;stroke-width:2;stroke-linecap:round;stroke-linejoin:round;stroke-miterlimit:4;stroke-dasharray:none;stroke-opacity:1;paint-order:fill markers stroke" />
    <g
       style="fill:url(#linearGradient988);fill-opacity:1"
       transform="matrix(0.03168568,0,0,0.03168568,-0.22306754,-0.34981038)"
       id="g980">
      <path
         style="fill:url(#linearGradient848);fill-opacity:1"
         inkscape:connector-curvature="0"
         d="M 512,989.4 C 388.9,989.4 273.1,941.5 186,854.4 98.9,767.3 51,651.5 51,528.4 c 0,-123.1 47.9,-238.9 135,-326 17,-17 44.6,-17 61.6,0 17,17 17,44.6 0,61.6 -70.6,70.7 -109.5,164.6 -109.5,264.4 0,99.9 38.9,193.8 109.5,264.4 70.6,70.6 164.5,109.5 264.4,109.5 99.9,0 193.8,-38.9 264.4,-109.5 C 847,722.2 885.9,628.3 885.9,528.4 885.9,428.5 847,334.6 776.4,264 c -17,-17 -17,-44.6 0,-61.6 17,-17 44.6,-17 61.6,0 87.1,87.1 135,202.8 135,326 0,123.1 -47.9,238.9 -135,326 -87.1,87.1 -202.9,135 -326,135 z"
         p-id="121516"
         id="path967" />
      <path
         style="fill:url(#linearGradient850);fill-opacity:1"
         inkscape:connector-curvature="0"
         d="m 512,554.7 c -23.6,0 -42.7,-19.1 -42.7,-42.7 V 85.3 c 0,-23.6 19.1,-42.7 42.7,-42.7 23.6,0 42.7,19.1 42.7,42.7 V 512 c 0,23.6 -19.1,42.7 -42.7,42.7 z"
         p-id="121517"
         id="path969" />
    </g>
  </g>
</svg>
