<?xml version="1.0" encoding="UTF-8" standalone="no"?>
<svg
   xmlns:dc="http://purl.org/dc/elements/1.1/"
   xmlns:cc="http://creativecommons.org/ns#"
   xmlns:rdf="http://www.w3.org/1999/02/22-rdf-syntax-ns#"
   xmlns:svg="http://www.w3.org/2000/svg"
   xmlns="http://www.w3.org/2000/svg"
   xmlns:xlink="http://www.w3.org/1999/xlink"
   xmlns:sodipodi="http://sodipodi.sourceforge.net/DTD/sodipodi-0.dtd"
   xmlns:inkscape="http://www.inkscape.org/namespaces/inkscape"
   width="64"
   height="64"
   viewBox="0 0 16.933333 16.933334"
   version="1.1"
   id="svg8"
   inkscape:version="1.0.1 (3bc2e813f5, 2020-09-07, custom)"
   sodipodi:docname="2048.svg">
  <defs
     id="defs2">
    <linearGradient
       inkscape:collect="always"
       id="linearGradient876">
      <stop
         style="stop-color:#11a6dd;stop-opacity:1"
         offset="0"
         id="stop872" />
      <stop
         style="stop-color:#1186dd;stop-opacity:1"
         offset="1"
         id="stop874" />
    </linearGradient>
    <linearGradient
       inkscape:collect="always"
       id="linearGradient866">
      <stop
         style="stop-color:#11cddd;stop-opacity:1"
         offset="0"
         id="stop862" />
      <stop
         style="stop-color:#11cddd;stop-opacity:1"
         offset="1"
         id="stop864" />
    </linearGradient>
    <linearGradient
       inkscape:collect="always"
       id="linearGradient854">
      <stop
         style="stop-color:#ba22ee;stop-opacity:1"
         offset="0"
         id="stop850" />
      <stop
         style="stop-color:#a911dd;stop-opacity:1"
         offset="1"
         id="stop852" />
    </linearGradient>
    <linearGradient
       inkscape:collect="always"
       xlink:href="#linearGradient854"
       id="linearGradient856"
       x1="-8.4016399"
       y1="264.5405"
       x2="-8.4016399"
       y2="278.8017"
       gradientUnits="userSpaceOnUse"
       gradientTransform="translate(17.627674,2.96e-5)" />
    <linearGradient
       inkscape:collect="always"
       xlink:href="#linearGradient866"
       id="linearGradient860"
       gradientUnits="userSpaceOnUse"
       gradientTransform="matrix(0.90909093,0,0,0.90909093,14.87061,24.886253)"
       x1="-8.4016399"
       y1="264.5405"
       x2="-8.4016399"
       y2="278.8017" />
    <linearGradient
       inkscape:collect="always"
       xlink:href="#linearGradient876"
       id="linearGradient870"
       gradientUnits="userSpaceOnUse"
       gradientTransform="matrix(0.90909093,0,0,0.90909093,15.53207,25.352359)"
       x1="-8.4016399"
       y1="264.5405"
       x2="-8.4016399"
       y2="278.8017" />
  </defs>
  <sodipodi:namedview
     id="base"
     pagecolor="#ffffff"
     bordercolor="#666666"
     borderopacity="1.0"
     inkscape:pageopacity="0.0"
     inkscape:pageshadow="2"
     inkscape:zoom="3.9999998"
     inkscape:cx="16.03755"
     inkscape:cy="36.836357"
     inkscape:document-units="mm"
     inkscape:current-layer="layer1"
     showgrid="false"
     units="px"
     inkscape:window-width="1920"
     inkscape:window-height="942"
     inkscape:window-x="0"
     inkscape:window-y="38"
     inkscape:window-maximized="1"
     inkscape:document-rotation="0" />
  <metadata
     id="metadata5">
    <rdf:RDF>
      <cc:Work
         rdf:about="">
        <dc:format>image/svg+xml</dc:format>
        <dc:type
           rdf:resource="http://purl.org/dc/dcmitype/StillImage" />
        <dc:title></dc:title>
      </cc:Work>
    </rdf:RDF>
  </metadata>
  <g
     inkscape:label="Capa 1"
     inkscape:groupmode="layer"
     id="layer1"
     transform="translate(0,-263.13332)">
    <circle
       style="fill:url(#linearGradient856);fill-opacity:1;stroke-width:0.745909;stroke-linecap:round;stroke-linejoin:round;paint-order:stroke fill markers"
       id="path848"
       cx="9.1281242"
       cy="271.59998"
       r="7.2760415" />
    <circle
       style="fill:url(#linearGradient860);fill-opacity:1;stroke-width:0.678099;stroke-linecap:round;stroke-linejoin:round;paint-order:stroke fill markers"
       id="circle858"
       cx="7.1437497"
       cy="271.79532"
       r="6.6145835" />
    <g
       id="g922"
       transform="translate(0.66145894,0.661448)">
      <circle
         style="fill:url(#linearGradient870);fill-opacity:1;stroke-width:0.678099;stroke-linecap:round;stroke-linejoin:round;paint-order:stroke fill markers"
         id="circle868"
         cx="7.8052077"
         cy="272.26144"
         r="6.6145835" />
      <g
         aria-label="2048"
         transform="matrix(0.89887764,0.12041963,-0.14641006,1.0928844,-0.695691,0.74642253)"
         id="g893"
         style="font-style:normal;font-variant:normal;font-weight:bold;font-stretch:normal;font-size:4.25426px;line-height:125%;font-family:'Source Sans Pro';-inkscape-font-specification:'Source Sans Pro Bold';letter-spacing:0px;word-spacing:0px;fill:#ffffff;fill-opacity:1;stroke:none;stroke-width:0.106356px;stroke-linecap:butt;stroke-linejoin:miter;stroke-opacity:1">
        <path
           d="m 44.399314,243.99496 h 1.36477 v 0.58786 H 43.51024 v -0.58786 l 1.132115,-0.99917 q 0.151641,-0.1371 0.224346,-0.26797 0.0727,-0.13087 0.0727,-0.27213 0,-0.21811 -0.147486,-0.35105 -0.145409,-0.13295 -0.388451,-0.13295 -0.186954,0 -0.409223,0.081 -0.222268,0.0789 -0.475696,0.23681 v -0.68134 q 0.270046,-0.0893 0.53386,-0.13503 0.263814,-0.0478 0.517241,-0.0478 0.55671,0 0.864147,0.24511 0.309514,0.24512 0.309514,0.68343 0,0.25343 -0.130868,0.47362 -0.130869,0.21811 -0.550478,0.58579 z"
           style="font-style:normal;font-variant:normal;font-weight:bold;font-stretch:normal;font-family:'Source Sans Pro';-inkscape-font-specification:'Source Sans Pro Bold';fill:#ffffff;fill-opacity:1;stroke-width:0.106356px"
           id="path885" />
        <path
           d="m 48.090632,243.02902 q 0,-0.58163 -0.110095,-0.81844 -0.108019,-0.23889 -0.365601,-0.23889 -0.257582,0 -0.367677,0.23889 -0.110096,0.23681 -0.110096,0.81844 0,0.58787 0.110096,0.82884 0.110095,0.24096 0.367677,0.24096 0.255505,0 0.365601,-0.24096 0.110095,-0.24097 0.110095,-0.82884 z m 0.799751,0.006 q 0,0.77067 -0.332364,1.19028 -0.332364,0.41754 -0.943083,0.41754 -0.612796,0 -0.94516,-0.41754 -0.332364,-0.41961 -0.332364,-1.19028 0,-0.77274 0.332364,-1.19027 0.332364,-0.41961 0.94516,-0.41961 0.610719,0 0.943083,0.41961 0.332364,0.41753 0.332364,1.19027 z"
           style="font-style:normal;font-variant:normal;font-weight:bold;font-stretch:normal;font-family:'Source Sans Pro';-inkscape-font-specification:'Source Sans Pro Bold';fill:#ffffff;fill-opacity:1;stroke-width:0.106356px"
           id="path887" />
        <path
           d="m 50.660222,242.13995 -0.87661,1.2983 h 0.87661 z m -0.132945,-0.6585 h 0.889073 v 1.9568 h 0.44246 v 0.57956 h -0.44246 v 0.56501 h -0.756128 v -0.56501 h -1.375156 v -0.68551 z"
           style="font-style:normal;font-variant:normal;font-weight:bold;font-stretch:normal;font-family:'Source Sans Pro';-inkscape-font-specification:'Source Sans Pro Bold';fill:#ffffff;fill-opacity:1;stroke-width:0.106356px"
           id="path889" />
        <path
           d="m 53.535172,243.1952 q -0.224346,0 -0.344828,0.12256 -0.120482,0.12256 -0.120482,0.35106 0,0.2285 0.120482,0.35106 0.120482,0.12049 0.344828,0.12049 0.222268,0 0.340673,-0.12049 0.118405,-0.12256 0.118405,-0.35106 0,-0.23057 -0.118405,-0.35106 -0.118405,-0.12256 -0.340673,-0.12256 z m -0.583715,-0.26381 q -0.282509,-0.0852 -0.425841,-0.26174 -0.143332,-0.17656 -0.143332,-0.44038 0,-0.3926 0.292896,-0.59825 0.292895,-0.20565 0.859992,-0.20565 0.562941,0 0.855837,0.20565 0.292896,0.20357 0.292896,0.59825 0,0.26382 -0.145409,0.44038 -0.143332,0.17657 -0.425842,0.26174 0.315746,0.0873 0.475696,0.28459 0.162028,0.19526 0.162028,0.49439 0,0.46115 -0.307437,0.69796 -0.305359,0.23474 -0.907769,0.23474 -0.604487,0 -0.914002,-0.23474 -0.307436,-0.23681 -0.307436,-0.69796 0,-0.29913 0.15995,-0.49439 0.162027,-0.19734 0.477773,-0.28459 z m 0.186955,-0.6211 q 0,0.18487 0.101787,0.28458 0.103863,0.0997 0.294973,0.0997 0.186954,0 0.288741,-0.0997 0.101786,-0.0997 0.101786,-0.28458 0,-0.18488 -0.101786,-0.28251 -0.101787,-0.0997 -0.288741,-0.0997 -0.19111,0 -0.294973,0.0997 -0.101787,0.0997 -0.101787,0.28251 z"
           style="font-style:normal;font-variant:normal;font-weight:bold;font-stretch:normal;font-family:'Source Sans Pro';-inkscape-font-specification:'Source Sans Pro Bold';fill:#ffffff;fill-opacity:1;stroke-width:0.106356px"
           id="path891" />
      </g>
    </g>
  </g>
</svg>
