<?xml version="1.0" encoding="UTF-8"?>
<svg width="64" height="64" version="1.1" viewBox="0 0 16.933 16.933" xmlns="http://www.w3.org/2000/svg" xmlns:cc="http://creativecommons.org/ns#" xmlns:dc="http://purl.org/dc/elements/1.1/" xmlns:rdf="http://www.w3.org/1999/02/22-rdf-syntax-ns#" xmlns:xlink="http://www.w3.org/1999/xlink">
 <defs>
  <filter id="filter1066-3" x="-.063923" y="-.056531" width="1.1278" height="1.1131" color-interpolation-filters="sRGB">
   <feGaussianBlur stdDeviation="0.22705935"/>
  </filter>
  <linearGradient id="linearGradient1049" x1="41.729" x2="41.729" y1="12.316" y2="37.368" gradientTransform="matrix(.38186 0 0 .38186 6.5714 .66497)" gradientUnits="userSpaceOnUse">
   <stop stop-color="#ff3c64" offset="0"/>
   <stop stop-color="#ff4628" offset="1"/>
  </linearGradient>
  <linearGradient id="linearGradient1067" x1="34.427" x2="34.427" y1="32.234" y2="39.768" gradientTransform="matrix(.24439 0 0 .29989 9.9593 -2.965)" gradientUnits="userSpaceOnUse" xlink:href="#linearGradient1057"/>
  <linearGradient id="linearGradient1057">
   <stop stop-color="#fff" offset="0"/>
   <stop stop-color="#fff" stop-opacity="0" offset="1"/>
  </linearGradient>
  <linearGradient id="linearGradient1047" x1="21.314" x2="21.314" y1="18.052" y2="43.681" gradientTransform="matrix(.38186 0 0 .38186 6.2982 3.6541)" gradientUnits="userSpaceOnUse">
   <stop stop-color="#14dc78" offset="0"/>
   <stop stop-color="#14a03c" offset="1"/>
  </linearGradient>
  <linearGradient id="linearGradient1063" x1="34.427" x2="34.427" y1="32.234" y2="39.768" gradientTransform="matrix(.24439 0 0 .29989 5.4856 -1.5064)" gradientUnits="userSpaceOnUse" xlink:href="#linearGradient1057"/>
  <linearGradient id="linearGradient982" x1="34.999" x2="34.999" y1="27.545" y2="52.847" gradientTransform="matrix(.38186 0 0 .38186 8.652 2.0626)" gradientUnits="userSpaceOnUse">
   <stop stop-color="#32b4ff" offset="0"/>
   <stop stop-color="#3287ff" offset="1"/>
  </linearGradient>
  <linearGradient id="linearGradient1059" x1="34.427" x2="34.427" y1="32.234" y2="39.768" gradientTransform="matrix(.24439 0 0 .29989 8.6032 .6486)" gradientUnits="userSpaceOnUse" xlink:href="#linearGradient1057"/>
  <linearGradient id="linearGradient1040" x1="80.368" x2="82.141" y1="13.177" y2="14.704" gradientTransform="matrix(1.0235 0 0 1.0235 -62.487 .38463)" gradientUnits="userSpaceOnUse">
   <stop stop-color="#fafafa" offset="0"/>
   <stop stop-color="#90a0b3" offset="1"/>
  </linearGradient>
 </defs>
 <metadata>
  <rdf:RDF>
   <cc:Work rdf:about="">
    <dc:format>image/svg+xml</dc:format>
    <dc:type rdf:resource="http://purl.org/dc/dcmitype/StillImage"/>
    <dc:title/>
   </cc:Work>
  </rdf:RDF>
 </metadata>
 <g transform="translate(-7.6918 -2.8254)">
  <circle cx="16.1" cy="11.333" r="7.9375" color="#000000" fill="#f3f3f3" stroke-width=".26458"/>
  <path d="m16.032 3.2904a7.9375 7.9834 0 0 0-7.9375 7.9835 7.9375 7.9834 0 0 0 5.5382 7.6066l0.53278-0.06029c3.7574-1.0394 9.0462-4.2556 9.2553-10.46a7.9375 7.9834 0 0 0-7.3887-5.0697zm7.4067 5.1175 0.44545 3.9647a7.9375 7.9834 0 0 0 5.15e-4 -0.0021l-0.44442-3.958a7.9375 7.9834 0 0 0-0.0015-0.00468z" color="#000000" fill="#fafafa" stroke-width=".26534"/>
  <path transform="matrix(1.0996 0 0 1.0321 -40.042 -1.3629)" d="m57.818 9.8288s0.05354 3.0782-2.6636 4.5408c-2.2449 1.2084 0.9386 2.689-5.8599 5.0989 8.8505-2.5748 8.5235-9.6396 8.5235-9.6396z" fill="#141414" filter="url(#filter1066-3)" opacity=".3"/>
  <path transform="matrix(1.0685 0 0 .99565 -38.141 -.69039)" d="m57.818 9.8288s0.05354 3.0782-2.6636 4.5408c-2.2449 1.2084 0.9386 2.689-5.8599 5.0989 8.8505-2.5748 8.5235-9.6396 8.5235-9.6396z" fill="#141414" filter="url(#filter1066-3)" opacity=".3"/>
  <circle cx="18.409" cy="9.4476" r="3.0549" fill="url(#linearGradient1049)" stroke-width=".24439"/>
  <ellipse cx="18.409" cy="7.9568" rx="1.8457" ry="1.2704" fill="url(#linearGradient1067)" opacity=".7" stroke-width=".067469"/>
  <circle cx="13.935" cy="10.91" r="3.0549" fill="url(#linearGradient1047)" stroke-width=".24439"/>
  <ellipse cx="13.935" cy="9.4154" rx="1.8457" ry="1.2704" fill="url(#linearGradient1063)" opacity=".7" stroke-width=".067469"/>
  <circle cx="17.053" cy="13.136" r="3.0549" fill="url(#linearGradient982)" stroke-width=".24439"/>
  <ellipse cx="17.053" cy="11.57" rx="1.8457" ry="1.2704" fill="url(#linearGradient1059)" opacity=".7" stroke-width=".067469"/>
  <path d="m23.197 8.6803s0.0548 3.1506-2.7263 4.6476c-2.2976 1.2368 0.96067 2.7523-5.9977 5.2188 9.0586-2.6354 8.7958-9.8304 8.7958-9.8304z" fill="url(#linearGradient1040)" stroke-width="1.0235"/>
  <path d="m23.197 8.6803s-0.19305 3.2014-2.565 4.5128c-2.7287 1.5087 0.99329 2.8571-6.1954 5.2984" fill="none" stroke="#fafafa" stroke-width=".1354"/>
  <path d="m23.439 8.408 0.44546 3.9646a7.9376 7.9834 0 0 0 5.3e-4 -0.0021l-0.44443-3.9579a7.9376 7.9834 0 0 0-1e-3 -0.00465h-5.3e-4z" color="#000000" fill="#fafafa" stroke-width=".26536"/>
  <path d="m23.439 8.4079 0.44545 3.9647a7.9375 7.9834 0 0 0 5.15e-4 -0.0021l-0.44442-3.958a7.9375 7.9834 0 0 0-0.0015-0.00468z" color="#000000" fill="#fafafa" stroke-width=".26534"/>
 </g>
</svg>
