<?xml version="1.0" encoding="UTF-8"?>
<svg width="64" height="64" version="1.1" viewBox="0 0 16.933 16.933" xmlns="http://www.w3.org/2000/svg" xmlns:cc="http://creativecommons.org/ns#" xmlns:dc="http://purl.org/dc/elements/1.1/" xmlns:rdf="http://www.w3.org/1999/02/22-rdf-syntax-ns#">
 <defs>
  <filter id="filter1066-3-3" x="-.063923" y="-.056531" width="1.1278" height="1.1131" color-interpolation-filters="sRGB">
   <feGaussianBlur stdDeviation="0.22705935"/>
  </filter>
  <linearGradient id="linearGradient1040-6" x1="80.368" x2="82.141" y1="13.177" y2="14.704" gradientTransform="matrix(1.0235 0 0 1.0235 -70.674 -1.9305)" gradientUnits="userSpaceOnUse">
   <stop stop-color="#fafafa" offset="0"/>
   <stop stop-color="#90a0b3" offset="1"/>
  </linearGradient>
 </defs>
 <metadata>
  <rdf:RDF>
   <cc:Work rdf:about="">
    <dc:format>image/svg+xml</dc:format>
    <dc:type rdf:resource="http://purl.org/dc/dcmitype/StillImage"/>
    <dc:title/>
   </cc:Work>
  </rdf:RDF>
 </metadata>
 <g transform="translate(.48192 -.51027)">
  <circle cx="7.9122" cy="9.0183" r="7.9375" color="#000000" fill="#f3f3f3" stroke-width=".26458"/>
  <path d="m7.8442 0.97531a7.9375 7.9834 0 0 0-7.9375 7.9835 7.9375 7.9834 0 0 0 5.5382 7.6066l0.53278-0.06029c3.7574-1.0394 9.0462-4.2556 9.2553-10.46a7.9375 7.9834 0 0 0-7.3887-5.0697zm7.4067 5.1175 0.44545 3.9647a7.9375 7.9834 0 0 0 5.15e-4 -0.0021l-0.44442-3.958a7.9375 7.9834 0 0 0-0.0015-0.00468z" color="#000000" fill="#fafafa" stroke-width=".26534"/>
  <path d="m0.15702 10.421 14.469-1.6925" fill="none" stroke="#dcdcdc" stroke-width=".18955"/>
  <path d="m0.93754 12.624 11.69-1.2872" fill="none" stroke="#dcdcdc" stroke-width=".18955"/>
  <path d="m10.652 14.229 2.3735-0.26872-0.0217-0.18965-2.0567 0.23358c-0.04338 0.03322-0.08036 0.07746-0.12402 0.11007-0.05578 0.04165-0.11485 0.07403-0.17105 0.11472z" color="#000000" color-rendering="auto" dominant-baseline="auto" fill="#dcdcdc" image-rendering="auto" shape-rendering="auto" solid-color="#000000" stroke-width=".26458" style="font-feature-settings:normal;font-variant-alternates:normal;font-variant-caps:normal;font-variant-ligatures:normal;font-variant-numeric:normal;font-variant-position:normal;isolation:auto;mix-blend-mode:normal;shape-padding:0;text-decoration-color:#000000;text-decoration-line:none;text-decoration-style:solid;text-indent:0;text-orientation:mixed;text-transform:none;white-space:normal"/>
  <path d="m10.652 14.229c0.05619-0.04069 0.11527-0.07307 0.17104-0.11472 0.04366-0.03261 0.08064-0.07686 0.12402-0.11007l-8.0032 0.76138 0.021704 0.18758z" color="#000000" color-rendering="auto" dominant-baseline="auto" fill="#dcdcdc" image-rendering="auto" shape-rendering="auto" solid-color="#000000" stroke-width=".26458" style="font-feature-settings:normal;font-variant-alternates:normal;font-variant-caps:normal;font-variant-ligatures:normal;font-variant-numeric:normal;font-variant-position:normal;isolation:auto;mix-blend-mode:normal;shape-padding:0;text-decoration-color:#000000;text-decoration-line:none;text-decoration-style:solid;text-indent:0;text-orientation:mixed;text-transform:none;white-space:normal"/>
  <path d="m0.045787 8.0175 14.8-1.6713" fill="none" stroke="#dcdcdc" stroke-width=".18955"/>
  <path d="m13.093 11.314 1.7997-0.20394" fill="none" stroke="#dcdcdc" stroke-width=".18955"/>
  <path transform="matrix(1.0996 0 0 1.0321 -48.229 -3.678)" d="m57.818 9.8288s0.05354 3.0782-2.6636 4.5408c-2.2449 1.2084 0.9386 2.689-5.8599 5.0989 8.8505-2.5748 8.5235-9.6396 8.5235-9.6396z" fill="#141414" filter="url(#filter1066-3-3)" opacity=".3"/>
  <path transform="matrix(1.0685 0 0 .99565 -46.328 -3.0055)" d="m57.818 9.8288s0.05354 3.0782-2.6636 4.5408c-2.2449 1.2084 0.9386 2.689-5.8599 5.0989 8.8505-2.5748 8.5235-9.6396 8.5235-9.6396z" fill="#141414" filter="url(#filter1066-3-3)" opacity=".3"/>
  <path d="m15.009 6.3652s0.0548 3.1506-2.7263 4.6476c-2.2976 1.2368 0.96067 2.7523-5.9977 5.2188 9.0586-2.6354 8.7958-9.8304 8.7958-9.8304z" fill="url(#linearGradient1040-6)" stroke-width="1.0235"/>
  <path d="m15.009 6.3652s-0.19305 3.2014-2.565 4.5128c-2.7287 1.5087 0.99329 2.8571-6.1954 5.2984" fill="none" stroke="#fafafa" stroke-width=".1354"/>
  <path d="m15.251 6.0929 0.44546 3.9646a7.9376 7.9834 0 0 0 5.3e-4 -0.0021l-0.44443-3.9579a7.9376 7.9834 0 0 0-1e-3 -0.00465h-5.3e-4z" color="#000000" fill="#fafafa" stroke-width=".26536"/>
  <path d="m0.70765 5.5922 13.314-1.5264" fill="none" stroke="#dcdcdc" stroke-width=".18955"/>
  <path d="m2.6689 3.0234 8.9504-0.97211" fill="none" stroke="#dcdcdc" stroke-width=".18955"/>
  <path d="m15.251 6.0928 0.44545 3.9647a7.9375 7.9834 0 0 0 5.15e-4 -0.0021l-0.44442-3.958a7.9375 7.9834 0 0 0-0.0015-0.00468z" color="#000000" fill="#fafafa" stroke-width=".26534"/>
  <path d="m4.8266 12.571c-0.45237-1.6709 0.67194-7.1474 1.791-7.4732 0.55902-0.16507 1.6894 0.67858 2.7686 1.871 1.08 1.1911 2.1079 2.7325 2.4681 3.9624 0 0-4.1498-4.5902-4.8331-4.4236-0.6962 0.16655-1.5652 4.4364-1.2291 4.7955 0.32909 0.35045 4.0218-2.0536 4.0218-2.0536-0.051611 0.15847-2.2244 2.6128-4.0957 3.5552-0.30306 0.067091-0.74826 0.20049-0.89168-0.2338" fill="#ff5050" fill-rule="evenodd" stroke-width="1.1358"/>
 </g>
</svg>
