<?xml version="1.0" encoding="UTF-8"?>
<svg width="64" height="64" version="1.1" viewBox="0 0 16.933 16.933" xmlns="http://www.w3.org/2000/svg" xmlns:cc="http://creativecommons.org/ns#" xmlns:dc="http://purl.org/dc/elements/1.1/" xmlns:rdf="http://www.w3.org/1999/02/22-rdf-syntax-ns#" xmlns:xlink="http://www.w3.org/1999/xlink">
 <defs>
  <linearGradient id="linearGradient884" x1="8.6929" x2="8.6929" y1=".48832" y2="16.35" gradientTransform="translate(-.67091 .65201)" gradientUnits="userSpaceOnUse">
   <stop stop-color="#ef5bf6" offset="0"/>
   <stop stop-color="#8517c5" offset="1"/>
  </linearGradient>
 </defs>
 <metadata>
  <rdf:RDF>
   <cc:Work rdf:about="">
    <dc:format>image/svg+xml</dc:format>
    <dc:type rdf:resource="http://purl.org/dc/dcmitype/StillImage"/>
    <dc:title/>
   </cc:Work>
  </rdf:RDF>
 </metadata>
 <g transform="translate(.67091 -.65201)">
  <circle cx="7.7958" cy="9.1187" r="7.9375" fill="url(#linearGradient884)" stroke-linecap="round" stroke-linejoin="round" stroke-width=".36734" style="paint-order:stroke fill markers"/>
  <path d="m7.7958 5.0505c-2.2464-1.61e-5 -4.0676 1.7769-4.0676 3.9689 1.48e-4 1.0359 0.41541 2.0308 1.1571 2.772 0.0021 0.40846-0.01193 1.0342-0.44227 1.5175 1.1454 0.09355 1.775-0.28029 2.1991-0.48577 0.37444 0.10888 0.76299 0.16455 1.1537 0.1653 2.2464-8.1e-5 4.0675-1.7771 4.0674-3.9691-4.4e-5 -2.1919-1.8211-3.9688-4.0674-3.9689zm0 1.3756c0.26632 0 0.48062 0.24195 0.48062 0.54241v2.1693c0 0.30046-0.2143 0.54241-0.48062 0.54241-0.26631 0-0.4808-0.24195-0.4808-0.54241v-2.1693c0-0.30046 0.21448-0.54241 0.4808-0.54241zm0 3.8703a0.65328 0.65328 0 0 1 0.6532 0.65319 0.65328 0.65328 0 0 1-0.6532 0.65337 0.65328 0.65328 0 0 1-0.65337-0.65337 0.65328 0.65328 0 0 1 0.65337-0.65319z" fill="#fff" style="paint-order:fill markers stroke"/>
 </g>
</svg>
