<?xml version="1.0" encoding="UTF-8"?>
<svg width="64" height="64" version="1.1" viewBox="0 0 16.933 16.933" xmlns="http://www.w3.org/2000/svg" xmlns:cc="http://creativecommons.org/ns#" xmlns:dc="http://purl.org/dc/elements/1.1/" xmlns:rdf="http://www.w3.org/1999/02/22-rdf-syntax-ns#">
 <defs>
  <linearGradient id="b" x1="97.425" x2="97.425" y1="-9.0071" y2="209.87" gradientTransform="matrix(.079375 0 0 .079375 1.8899 2.8821)" gradientUnits="userSpaceOnUse">
   <stop stop-color="#5beaff" offset="0"/>
   <stop stop-color="#4076ff" offset="1"/>
  </linearGradient>
 </defs>
 <metadata>
  <rdf:RDF>
   <cc:Work rdf:about="">
    <dc:format>image/svg+xml</dc:format>
    <dc:type rdf:resource="http://purl.org/dc/dcmitype/StillImage"/>
    <dc:title/>
   </cc:Work>
  </rdf:RDF>
 </metadata>
 <g transform="translate(-1.3607 -2.3529)">
  <circle cx="9.8274" cy="10.82" r="7.9375" color="#000000" fill="url(#b)" image-rendering="optimizeSpeed" stroke-width=".26458"/>
  <path d="m10.868 7.5055c0 0.54337-0.44514 0.98444-0.99362 0.98444-0.54845 0-0.99362-0.44103-0.99362-0.98444 0-0.54337 0.44514-0.98444 0.99362-0.98444 0.54846 0 0.99362 0.44103 0.99362 0.98444zm2.4799 1.0467c-0.04596 0.00737-0.08938 0.025334-0.1266 0.052388l-3.3938 0.52438-3.3756-0.53163c-0.08726-0.062706-0.20995-0.081484-0.30745-0.034928-0.097507 0.046553-0.16143 0.1569-0.16277 0.26191-0.00122 0.10501 0.066477 0.19558 0.16277 0.24444l2.6452 0.8314-0.018092 1.9086-0.93337 2.8586c-0.089897 0.13016-0.062495 0.29731 0.072345 0.3841 0.13484 0.08679 0.32607 0.06035 0.41598-0.06983l1.5063-3.0856 1.4778 3.08c0.07991 0.135 0.25805 0.1819 0.39788 0.10476 0.13984-0.07714 0.18842-0.24911 0.10852-0.38412l-0.91607-2.8707-0.036166-1.7968 2.6823-0.97065c0.10838-0.073369 0.15546-0.21227 0.10852-0.33173-0.046945-0.11948-0.17595-0.18908-0.30747-0.17461h9e-6z" enable-background="new" fill="#fff" stroke-width=".39404"/>
 </g>
</svg>
