<?xml version="1.0" encoding="UTF-8" standalone="no"?>
<svg
   xmlns:dc="http://purl.org/dc/elements/1.1/"
   xmlns:cc="http://creativecommons.org/ns#"
   xmlns:rdf="http://www.w3.org/1999/02/22-rdf-syntax-ns#"
   xmlns:svg="http://www.w3.org/2000/svg"
   xmlns="http://www.w3.org/2000/svg"
   xmlns:xlink="http://www.w3.org/1999/xlink"
   xmlns:sodipodi="http://sodipodi.sourceforge.net/DTD/sodipodi-0.dtd"
   xmlns:inkscape="http://www.inkscape.org/namespaces/inkscape"
   width="64"
   height="64"
   viewBox="0 0 16.933333 16.933334"
   version="1.1"
   id="svg8"
   inkscape:version="1.0.2 (e86c870879, 2021-01-15)"
   sodipodi:docname="accessories-dictionary.svg">
  <defs
     id="defs2">
    <linearGradient
       inkscape:collect="always"
       id="linearGradient30287">
      <stop
         style="stop-color:#ff9696;stop-opacity:1"
         offset="0"
         id="stop30283" />
      <stop
         style="stop-color:#f0a500;stop-opacity:0.99801546"
         offset="1"
         id="stop30285" />
    </linearGradient>
    <linearGradient
       id="c"
       x1="24.535"
       x2="24.535"
       y1="7.0931001"
       y2="44.483002"
       gradientTransform="matrix(1.4364,0,0,1.4364,68.203891,-4.714)"
       gradientUnits="userSpaceOnUse">
      <stop
         stop-color="#76dd38"
         offset="0"
         id="stop1005" />
      <stop
         stop-color="#42c440"
         offset=".48433"
         id="stop1007" />
      <stop
         stop-color="#14ab4b"
         offset="1"
         id="stop1009" />
    </linearGradient>
    <filter
       id="filter3001"
       x="-0.029503001"
       y="-0.046935"
       width="1.059"
       height="1.0939"
       color-interpolation-filters="sRGB">
      <feGaussianBlur
         stdDeviation="0.23473412"
         id="feGaussianBlur148" />
    </filter>
    <linearGradient
       id="linearGradient2349"
       x1="33.337002"
       x2="31.709999"
       y1="42.984001"
       y2="26.577"
       gradientTransform="matrix(0.26458333,0,0,0.26458333,-18.43605,-1.7095443)"
       gradientUnits="userSpaceOnUse">
      <stop
         stop-color="#aaf8ad"
         offset="0"
         id="stop151" />
      <stop
         stop-color="#fff"
         offset="1"
         id="stop153" />
    </linearGradient>
    <linearGradient
       id="linearGradient2554"
       x1="35.200001"
       x2="35.200001"
       y1="8.8850002"
       y2="-0.11215"
       gradientUnits="userSpaceOnUse"
       xlink:href="#linearGradient2609" />
    <linearGradient
       id="linearGradient2609"
       x1="35.200001"
       x2="35.200001"
       y1="8.8850002"
       y2="-0.11215"
       gradientUnits="userSpaceOnUse">
      <stop
         stop-color="#dcf0ff"
         offset="0"
         id="stop292" />
      <stop
         stop-color="#fff"
         offset="1"
         id="stop294" />
    </linearGradient>
    <filter
       id="filter1066-3"
       x="-0.063923001"
       y="-0.056531001"
       width="1.1278"
       height="1.1131001"
       color-interpolation-filters="sRGB">
      <feGaussianBlur
         stdDeviation="0.22705935"
         id="feGaussianBlur1166" />
    </filter>
    <filter
       id="filter890"
       x="-0.063923001"
       y="-0.056531001"
       width="1.1278"
       height="1.1131001"
       color-interpolation-filters="sRGB">
      <feGaussianBlur
         stdDeviation="0.22705935"
         id="feGaussianBlur888" />
    </filter>
    <linearGradient
       id="linearGradient1040"
       x1="80.367996"
       x2="82.140999"
       y1="13.177"
       y2="14.704"
       gradientTransform="matrix(1.0235202,0,0,1.0235202,-70.00763,-2.4407439)"
       gradientUnits="userSpaceOnUse">
      <stop
         stop-color="#fafafa"
         offset="0"
         id="stop1169"
         style="stop-color:#ffa0a0;stop-opacity:1" />
      <stop
         stop-color="#90a0b3"
         offset="1"
         id="stop1171"
         style="stop-color:#f0a500;stop-opacity:1" />
    </linearGradient>
    <linearGradient
       inkscape:collect="always"
       xlink:href="#linearGradient30287"
       id="linearGradient30289"
       x1="45.890881"
       y1="41.719025"
       x2="51.749664"
       y2="46.323254"
       gradientUnits="userSpaceOnUse" />
  </defs>
  <sodipodi:namedview
     id="base"
     pagecolor="#ffffff"
     bordercolor="#666666"
     borderopacity="1.0"
     inkscape:pageopacity="0.0"
     inkscape:pageshadow="2"
     inkscape:zoom="4"
     inkscape:cx="-14.772016"
     inkscape:cy="64.386704"
     inkscape:document-units="mm"
     inkscape:current-layer="layer1"
     inkscape:document-rotation="0"
     showgrid="false"
     units="px"
     inkscape:window-width="1920"
     inkscape:window-height="992"
     inkscape:window-x="0"
     inkscape:window-y="0"
     inkscape:window-maximized="1" />
  <metadata
     id="metadata5">
    <rdf:RDF>
      <cc:Work
         rdf:about="">
        <dc:format>image/svg+xml</dc:format>
        <dc:type
           rdf:resource="http://purl.org/dc/dcmitype/StillImage" />
        <dc:title></dc:title>
      </cc:Work>
    </rdf:RDF>
  </metadata>
  <g
     inkscape:label="图层 1"
     inkscape:groupmode="layer"
     id="layer1">
    <circle
       style="fill:#ff4b00;fill-opacity:1;stroke-width:0.0779227;stroke-linecap:round;stroke-linejoin:round;paint-order:stroke fill markers"
       id="path833"
       cx="8.4666662"
       cy="8.4666662"
       r="7.9375" />
    <path
       d="m 8.4535491,0.4650434 c -4.3837748,2.2e-7 -7.93751087,3.5743319 -7.93745601,7.9834572 0.001416,3.4782574 2.24171821,6.5552804 5.53820901,7.6066494 l 0.532781,-0.06029 C 10.344457,14.955439 15.633261,11.739275 15.842365,5.5346532 14.650662,2.4770679 11.718859,0.46544582 8.4536191,0.4649534 Z"
       color="#000000"
       fill="#fafafa"
       stroke-width="0.265345"
       id="path1191"
       sodipodi:nodetypes="ccccccc" />
    <path
       transform="matrix(1.0996217,0,0,1.0321203,-47.562188,-4.1882783)"
       d="m 57.818,9.8288 c 0,0 0.05354,3.0782 -2.6636,4.5408 -2.2449,1.2084 0.9386,2.689 -5.8599,5.0989 8.8505,-2.5748 8.5235,-9.6396 8.5235,-9.6396 z"
       fill="#141414"
       filter="url(#filter1066-3)"
       opacity="0.3"
       id="path1205" />
    <path
       transform="matrix(1.068521,0,0,0.99564961,-45.661151,-3.5157651)"
       d="m 57.818,9.8288 c 0,0 0.05354,3.0782 -2.6636,4.5408 -2.2449,1.2084 0.9386,2.689 -5.8599,5.0989 8.8505,-2.5748 8.5235,-9.6396 8.5235,-9.6396 z"
       fill="#141414"
       filter="url(#filter1066-3)"
       opacity="0.3"
       id="path1207" />
    <g
       transform="matrix(0.26458333,0,0,0.26458333,-0.17494792,0.23183223)"
       fill="#fe4802"
       id="g4332">
      <g
         transform="matrix(3.7796,0,0,3.7796,71.69,12.695)"
         id="g4326">
        <path
           d="m -11.078,7.546 -0.38497,-1.2653 h -1.9401 l -0.38614,1.2664 h -1.2147 l 1.8779,-5.3426 h 1.3791 l 1.8849,5.3426 h -1.2159 m -0.65491,-2.2124 c -0.3568,-1.1479 -0.5575,-1.7957 -0.60327,-1.9483 -0.03525,-0.11756 -0.06696,-0.23616 -0.09507,-0.35563 -0.07981,0.31103 -0.30985,1.0786 -0.68778,2.304 h 1.3861"
           fill="#fe4802"
           font-size="24px"
           font-weight="700"
           letter-spacing="0"
           stroke-width="0.86383"
           word-spacing="0"
           id="path4324" />
      </g>
      <g
         transform="translate(1.0847,0.31991)"
         style="font-variant-ligatures:normal;font-variant-caps:normal;font-variant-numeric:normal;font-feature-settings:normal"
         aria-label="a"
         id="g4330">
        <path
           d="m 43.944,33.674 q -2.1354,0 -2.9818,0.54688 -0.84635,0.54688 -0.84635,1.875 0,0.98958 0.58594,1.5755 0.58594,0.58594 1.5885,0.58594 1.5104,0 2.3438,-1.1328 0.83333,-1.1458 0.83333,-3.1901 V 33.674 Z m 5.3125,-1.4714 v 8.3203 h -3.7891 v -1.6276 q -0.6901,0.96354 -1.7708,1.4844 -1.0807,0.52083 -2.3828,0.52083 -2.487,0 -3.8802,-1.3151 -1.3802,-1.3151 -1.3802,-3.6719 0,-2.5521 1.6536,-3.763 1.6536,-1.224 5.1172,-1.224 h 2.6432 v -0.63802 q 0,-0.92448 -0.67708,-1.3932 -0.66406,-0.48177 -1.9661,-0.48177 -1.3672,0 -2.6562,0.35156 -1.276,0.33854 -2.6693,1.0938 v -3.2552 q 1.263,-0.52083 2.5651,-0.76823 1.3021,-0.2474 2.7604,-0.2474 3.5547,0 4.987,1.4453 1.4453,1.4453 1.4453,5.1693 z"
           fill="#fe4802"
           id="path4328" />
      </g>
    </g>
    <path
       d="m 15.676058,5.8549195 c 0,0 -0.193054,3.2013631 -2.564951,4.5127885 -2.728654,1.50873 0.99329,2.857056 -6.1954216,5.298405"
       fill="none"
       stroke="#fafafa"
       stroke-width="0.135403"
       id="path1211" />
    <path
       id="rect30280"
       style="fill:url(#linearGradient30289);fill-opacity:1;stroke-width:1.00157;stroke-linecap:round;stroke-linejoin:round;paint-order:stroke fill markers"
       d="M 59.248047 22.128906 C 59.248047 22.128906 59.45443 34.037249 48.943359 39.695312 C 40.259347 44.369923 52.574805 50.097532 26.275391 59.419922 C 60.512534 49.459536 59.519531 22.265625 59.519531 22.265625 L 59.248047 22.128906 z "
       transform="scale(0.26458333)" />
  </g>
</svg>
