<?xml version="1.0" encoding="UTF-8" standalone="no"?>
<svg
   xmlns:dc="http://purl.org/dc/elements/1.1/"
   xmlns:cc="http://creativecommons.org/ns#"
   xmlns:rdf="http://www.w3.org/1999/02/22-rdf-syntax-ns#"
   xmlns:svg="http://www.w3.org/2000/svg"
   xmlns="http://www.w3.org/2000/svg"
   xmlns:xlink="http://www.w3.org/1999/xlink"
   xmlns:sodipodi="http://sodipodi.sourceforge.net/DTD/sodipodi-0.dtd"
   xmlns:inkscape="http://www.inkscape.org/namespaces/inkscape"
   width="64"
   height="64"
   version="1.1"
   id="svg22"
   sodipodi:docname="acreloaded.svg"
   inkscape:version="1.0.2 (e86c870879, 2021-01-15)">
  <metadata
     id="metadata28">
    <rdf:RDF>
      <cc:Work
         rdf:about="">
        <dc:format>image/svg+xml</dc:format>
        <dc:type
           rdf:resource="http://purl.org/dc/dcmitype/StillImage" />
        <dc:title></dc:title>
      </cc:Work>
    </rdf:RDF>
  </metadata>
  <defs
     id="defs26">
    <linearGradient
       id="linearGradient1185">
      <stop
         stop-color="#97d2be"
         offset="0"
         id="stop833" />
      <stop
         stop-color="#fff"
         offset="1"
         id="stop835" />
    </linearGradient>
    <linearGradient
       id="linearGradient1135">
      <stop
         stop-color="#afd2f5"
         offset="0"
         id="stop838" />
      <stop
         stop-color="#fff"
         offset="1"
         id="stop840" />
    </linearGradient>
    <linearGradient
       id="linearGradient1098"
       x1="-59.857"
       x2="-51.642"
       y1="16.105"
       y2="7.7824"
       gradientTransform="translate(72.764,21.728)"
       gradientUnits="userSpaceOnUse">
      <stop
         stop-color="#14cd46"
         offset="0"
         id="stop843" />
      <stop
         stop-color="#5adc19"
         offset="1"
         id="stop845" />
    </linearGradient>
    <linearGradient
       id="linearGradient1102"
       x1="-59.857"
       x2="-51.642"
       y1="16.105"
       y2="7.7824"
       gradientTransform="matrix(-1.5175,-0.33867,0,1.2639,-75.07,-5.3156)"
       gradientUnits="userSpaceOnUse">
      <stop
         stop-color="#1973c8"
         offset="0"
         id="stop848" />
      <stop
         stop-color="#3ca0f0"
         offset="1"
         id="stop850" />
    </linearGradient>
    <filter
       id="filter1112"
       x="-.060736"
       y="-.059281"
       width="1.1215"
       height="1.1186"
       color-interpolation-filters="sRGB">
      <feGaussianBlur
         stdDeviation="0.2083953"
         id="feGaussianBlur853" />
    </filter>
    <linearGradient
       id="linearGradient1137"
       x1="2.2989"
       x2="2.2989"
       y1="6.3922"
       y2="5.419"
       gradientUnits="userSpaceOnUse"
       xlink:href="#linearGradient1135" />
    <filter
       id="filter1141"
       x="-.036"
       y="-.036"
       width="1.072"
       height="1.072"
       color-interpolation-filters="sRGB">
      <feGaussianBlur
         stdDeviation="0.014529375"
         id="feGaussianBlur857" />
    </filter>
    <linearGradient
       id="linearGradient1177"
       x1="2.2989"
       x2="2.2989"
       y1="6.3922"
       y2="5.419"
       gradientUnits="userSpaceOnUse"
       xlink:href="#linearGradient1185" />
    <linearGradient
       id="a-3-3"
       x1="32"
       x2="32"
       y1="2"
       y2="62"
       gradientTransform="matrix(1.0000071,0,0,1.0000071,0.25273477,0.81329336)"
       gradientUnits="userSpaceOnUse">
      <stop
         stop-color="#f5faff"
         offset="0"
         id="stop861" />
      <stop
         stop-color="#cfdef0"
         offset="1"
         id="stop863" />
    </linearGradient>
  </defs>
  <sodipodi:namedview
     pagecolor="#ffffff"
     bordercolor="#666666"
     borderopacity="1"
     objecttolerance="10"
     gridtolerance="10"
     guidetolerance="10"
     inkscape:pageopacity="0"
     inkscape:pageshadow="2"
     inkscape:window-width="1920"
     inkscape:window-height="935"
     id="namedview24"
     showgrid="false"
     inkscape:zoom="6.0546875"
     inkscape:cx="28.033582"
     inkscape:cy="38.879156"
     inkscape:window-x="0"
     inkscape:window-y="38"
     inkscape:window-maximized="1"
     inkscape:current-layer="svg22"
     inkscape:document-rotation="0" />
  <circle
     cx="32"
     cy="32"
     r="29.999836"
     fill="url(#a-3-3)"
     image-rendering="optimizeSpeed"
     stroke-width="1.00001"
     style="fill:url(#a-3-3);paint-order:stroke markers fill"
     id="circle870" />
  <g
     id="g856"
     transform="matrix(0.66666663,0,0,0.66666663,10.666668,11.333335)">
    <path
       style="fill:#d2323a"
       d="M 32.135324,1.0016025 A 5.8229297,5.7698843 0 0 0 29.087689,1.7723461 L 7.9111743,13.887891 a 5.8229297,5.7698843 0 0 0 -2.9111736,4.996311 v 24.23109 a 5.8229297,5.7698843 0 0 0 2.9111736,4.99631 L 29.087689,60.227149 a 5.8229297,5.7698843 0 0 0 5.822347,0 L 56.088823,48.111602 a 5.8229297,5.7698843 0 0 0 2.911176,-4.99631 V 18.884202 A 5.8229297,5.7698843 0 0 0 56.088823,13.887891 L 34.910036,1.7723461 A 5.8229297,5.7698843 0 0 0 32.135324,1.0016025 Z"
       id="path4" />
    <path
       style="opacity:0.3;fill:#ffffff"
       d="M 32.135999,1.0027875 A 5.8229297,5.7698843 0 0 0 29.088508,1.7728768 L 7.9114935,13.887832 A 5.8229297,5.7698843 0 0 0 5.44408,16.694753 L 32,29.571427 58.558695,16.691963 A 5.8229297,5.7698843 0 0 0 56.088507,13.887832 L 34.908717,1.7728768 A 5.8229297,5.7698843 0 0 0 32.135999,1.0027875 Z"
       id="path6" />
    <path
       style="opacity:0.15;fill:#ffffff"
       d="m 56.088507,13.887832 a 5.8229297,5.7698843 0 0 1 0.271997,0.167411 5.8229297,5.7698843 0 0 0 -0.271997,-0.167411 z m 0.349712,0.223215 a 5.8229297,5.7698843 0 0 1 0.385793,0.279018 5.8229297,5.7698843 0 0 0 -0.385793,-0.279018 z m 0.541221,0.412947 a 5.8229297,5.7698843 0 0 1 0.280325,0.251116 5.8229297,5.7698843 0 0 0 -0.280325,-0.251116 z m 0.369141,0.343191 a 5.8229297,5.7698843 0 0 1 0.316405,0.345983 5.8229297,5.7698843 0 0 0 -0.316405,-0.345983 z m 0.316405,0.345983 a 5.8229297,5.7698843 0 0 1 0.643916,0.95145 5.8229297,5.7698843 0 0 0 -0.643916,-0.95145 z m 0.666119,0.998885 a 5.8229297,5.7698843 0 0 1 0.22759,0.47991 5.8229297,5.7698843 0 0 0 -0.22759,-0.47991 z m 0.22759,0.47991 L 32,29.571427 V 60.99442 a 5.8229297,5.7698843 0 0 0 2.908717,-0.767299 l 21.17979,-12.114955 a 5.8229297,5.7698843 0 0 0 2.911492,-4.997211 V 18.885043 a 5.8229297,5.7698843 0 0 0 -0.441304,-2.19308 z"
       id="path8" />
  </g>
  <g
     fill="#5e4aa6"
     stroke-width="0.26458"
     id="g940"
     transform="matrix(3.779602,0,0,3.779602,-70.52185,-1.3999348e-6)">
    <g
       transform="translate(55.677,-3.157)"
       id="g918">
      <circle
         cx="-322.63"
         cy="-345.67001"
         r="0"
         id="circle912" />
      <circle
         cx="-31.726"
         cy="-10.849"
         r="0"
         fill-rule="evenodd"
         id="circle914" />
      <circle
         cx="-306.92001"
         cy="-328.72"
         r="0"
         id="circle916" />
    </g>
    <g
       transform="translate(47.177,-15.995)"
       image-rendering="optimizeSpeed"
       id="g928">
      <circle
         cx="-330.35001"
         cy="-328.38"
         r="0"
         id="circle920" />
      <circle
         cx="-312.10999"
         cy="-326.25"
         r="0"
         id="circle922" />
      <circle
         cx="-306.01999"
         cy="-333.07001"
         r="0"
         id="circle924" />
      <circle
         cx="-308.84"
         cy="-326.01001"
         r="0"
         id="circle926" />
    </g>
    <g
       transform="translate(47.177,-15.995)"
       image-rendering="optimizeSpeed"
       id="g938">
      <circle
         cx="-330.35001"
         cy="-328.38"
         r="0"
         id="circle930" />
      <circle
         cx="-312.10999"
         cy="-326.25"
         r="0"
         id="circle932" />
      <circle
         cx="-306.01999"
         cy="-333.07001"
         r="0"
         id="circle934" />
      <circle
         cx="-308.84"
         cy="-326.01001"
         r="0"
         id="circle936" />
    </g>
  </g>
</svg>
