<?xml version="1.0" encoding="UTF-8"?>
<svg width="64" height="64" version="1.1" viewBox="0 0 16.933 16.933" xmlns="http://www.w3.org/2000/svg" xmlns:cc="http://creativecommons.org/ns#" xmlns:dc="http://purl.org/dc/elements/1.1/" xmlns:rdf="http://www.w3.org/1999/02/22-rdf-syntax-ns#" xmlns:xlink="http://www.w3.org/1999/xlink">
 <defs>
  <linearGradient id="linearGradient3222" x1="-25.606" x2="-25.606" y1="15.904" y2="47.956" gradientTransform="matrix(.26458 0 0 .26458 16.608 -.18131)" gradientUnits="userSpaceOnUse">
   <stop stop-color="#fff" offset="0"/>
   <stop stop-color="#94f1ff" offset="1"/>
  </linearGradient>
  <linearGradient id="b-7" x1="97.425" x2="97.425" y1="-9.0071" y2="209.87" gradientTransform="matrix(.079375 0 0 .079375 1.3835 .34788)" gradientUnits="userSpaceOnUse">
   <stop stop-color="#5beaff" offset="0"/>
   <stop stop-color="#4076ff" offset="1"/>
  </linearGradient>
 </defs>
 <metadata>
  <rdf:RDF>
   <cc:Work rdf:about="">
    <dc:format>image/svg+xml</dc:format>
    <dc:type rdf:resource="http://purl.org/dc/dcmitype/StillImage"/>
    <dc:title/>
   </cc:Work>
  </rdf:RDF>
 </metadata>
 <g transform="translate(-.85436 .18131)" stroke-width=".26458">
  <circle cx="9.321" cy="8.2854" r="7.9375" color="#000000" fill="url(#b-7)"/>
  <path d="m8.5144 4.0288c-0.56444 0-1.0077 0.44377-1.0077 1.0082v0.60461h-1.6128c-0.44349 0-0.80615 0.36266-0.80615 0.80615v1.5322h0.60461c0.60476 0 1.0888 0.48406 1.0888 1.0888 0 0.60476-0.48406 1.0883-1.0888 1.0883h-0.60461v1.5322c0 0.44349 0.36266 0.80615 0.80615 0.80615h1.5322v-0.60461c0-0.60476 0.48355-1.0888 1.0883-1.0888s1.0888 0.48406 1.0888 1.0888v0.60461h1.5322c0.4435 0 0.80615-0.36266 0.80615-0.80615v-1.6128h0.60461c0.56444 0 1.0082-0.44325 1.0082-1.0077s-0.44377-1.0082-1.0082-1.0082h-0.60461v-1.6128c0-0.44349-0.36266-0.80615-0.80615-0.80615h-1.6128v-0.60461c0-0.56444-0.44377-1.0082-1.0082-1.0082z" fill="url(#linearGradient3222)" stroke-linecap="round"/>
 </g>
</svg>
