<?xml version="1.0" encoding="UTF-8"?>
<svg width="64" height="64" version="1.1" viewBox="0 0 16.933 16.933" xmlns="http://www.w3.org/2000/svg" xmlns:cc="http://creativecommons.org/ns#" xmlns:dc="http://purl.org/dc/elements/1.1/" xmlns:rdf="http://www.w3.org/1999/02/22-rdf-syntax-ns#" xmlns:xlink="http://www.w3.org/1999/xlink">
 <defs>
  <linearGradient id="a-3-7" x1="32" x2="32" y1="2" y2="62" gradientTransform="matrix(.26458 0 0 .26458 -2.3994 1.0562)" gradientUnits="userSpaceOnUse">
   <stop stop-color="#f5faff" offset="0"/>
   <stop stop-color="#cfdef0" offset="1"/>
  </linearGradient>
  <linearGradient id="linearGradient1252" x1="61" x2="32.068" y1="43.34" y2="60.141" gradientTransform="matrix(.20531 0 0 .20531 -.5707 2.4525)" gradientUnits="userSpaceOnUse">
   <stop stop-color="#ff3aae" offset="0"/>
   <stop stop-color="#ff28c3" stop-opacity=".77647" offset="1"/>
  </linearGradient>
  <linearGradient id="linearGradient1268" x1="3.0098" x2="31.965" y1="43.332" y2="60.158" gradientTransform="matrix(.20531 0 0 .20531 -.5707 2.4525)" gradientUnits="userSpaceOnUse">
   <stop stop-color="#08a8fe" offset="0"/>
   <stop stop-color="#3785ed" offset="1"/>
  </linearGradient>
  <linearGradient id="linearGradient1260" x1="10.514" x2="32" y1="22.893" y2="60.072" gradientTransform="matrix(.20531 0 0 .20531 -.5707 2.4525)" gradientUnits="userSpaceOnUse">
   <stop stop-color="#22b959" offset="0"/>
   <stop stop-color="#11ab93" offset="1"/>
  </linearGradient>
  <linearGradient id="linearGradient1244" x1="54.002" x2="31.965" y1="22.158" y2="60.158" gradientTransform="matrix(.20531 0 0 .20531 -.5707 2.4525)" gradientUnits="userSpaceOnUse">
   <stop stop-color="#ff617e" offset="0"/>
   <stop stop-color="#ff5f80" offset="1"/>
  </linearGradient>
  <linearGradient id="linearGradient1236" x1="31.965" x2="31.965" y1="6.6191" y2="60.371" gradientTransform="matrix(.20531 0 0 .20531 -.5707 2.4525)" gradientUnits="userSpaceOnUse">
   <stop stop-color="#ffd14f" offset="0"/>
   <stop stop-color="#ffb52e" offset="1"/>
  </linearGradient>
 </defs>
 <metadata>
  <rdf:RDF>
   <cc:Work rdf:about="">
    <dc:format>image/svg+xml</dc:format>
    <dc:type rdf:resource="http://purl.org/dc/dcmitype/StillImage"/>
    <dc:title/>
   </cc:Work>
  </rdf:RDF>
 </metadata>
 <g transform="translate(2.4663 -.841)">
  <circle cx="6.0004" cy="9.3077" r="7.9375" fill="url(#a-3-7)" stroke-width=".26458" style="paint-order:stroke markers fill"/>
  <g>
   <path d="m11.951 11.351c-1.172-0.01603-2.3613 0.26849-3.449 0.89825-1.0896 0.62793-1.9324 1.5156-2.5031 2.5388 1.1739 0.01786 2.3652-0.25926 3.4567-0.88903 1.0896-0.62976 1.9268-1.5243 2.4975-2.548z" fill="url(#linearGradient1252)"/>
   <path d="m0.047247 11.349c0.57068 1.0232 1.4151 1.9106 2.5011 2.5404 1.0896 0.62793 2.2795 0.91451 3.4511 0.89665-0.57251-1.0232-1.4097-1.9196-2.4975-2.548-1.089-0.62941-2.2814-0.90655-3.4547-0.88903z" fill="url(#linearGradient1268)"/>
   <path d="m6.0134 14.8s-1.433-0.4938-3.5597-3.0507l0.47884 0.19617z" opacity=".2"/>
   <path d="m1.5927 7.1519-0.00481 7.938e-4c0.00161 8.995e-4 0.00319 0.00191 0.00481 0.00281 1.66e-5 -0.00119-1.72e-5 -0.00241 0-0.00361zm0 0.00361c-0.020892 1.5052 0.34629 3.0318 1.1545 4.4299 0.80885 1.3974 1.9464 2.4797 3.2614 3.2153 0.023357-1.5046-0.33425-3.0379-1.1413-4.4371-0.80785-1.3975-1.9544-2.4735-3.2746-3.208z" fill="url(#linearGradient1260)"/>
   <path d="m6.0134 14.8s1.433-0.4938 3.5597-3.0507l-0.47884 0.19617z" opacity=".2"/>
   <path d="m10.517 7.0019c-1.3401 0.74793-2.5047 1.8535-3.3259 3.2774-0.82488 1.4276-1.2007 2.9861-1.1774 4.5209 1.342-0.74793 2.5139-1.8457 3.3388-3.2774 0.82352-1.4253 1.1866-2.9863 1.1645-4.5209z" fill="url(#linearGradient1244)"/>
   <path d="m5.9907 14.804s-1.6896-2.114-1.8008-5.4379l0.33153 0.42666z" opacity=".2"/>
   <path d="m5.9907 14.804s1.6896-2.114 1.8008-5.4379l-0.33153 0.42666z" opacity=".2"/>
   <path d="m5.9922 3.8115c-0.9609 1.6085-1.5158 3.4851-1.5158 5.4962 0 2.0111 0.5549 3.8858 1.5158 5.4962 0.9609-1.6104 1.5314-3.4832 1.5314-5.4962 0-2.0111-0.57053-3.8876-1.5314-5.4962z" fill="url(#linearGradient1236)"/>
  </g>
 </g>
</svg>
