<?xml version="1.0" encoding="UTF-8"?>
<svg width="64" height="64" version="1.1" viewBox="0 0 16.933 16.933" xmlns="http://www.w3.org/2000/svg" xmlns:cc="http://creativecommons.org/ns#" xmlns:dc="http://purl.org/dc/elements/1.1/" xmlns:rdf="http://www.w3.org/1999/02/22-rdf-syntax-ns#" xmlns:xlink="http://www.w3.org/1999/xlink">
 <defs>
  <linearGradient id="linearGradient7654" x1=".74445" x2="16.117" y1="16.287" y2=".64575" gradientTransform="matrix(1 0 0 1 .085958 .6205)" gradientUnits="userSpaceOnUse">
   <stop stop-color="#9d6856" offset="0"/>
   <stop stop-color="#c37d64" offset="1"/>
  </linearGradient>
 </defs>
 <metadata>
  <rdf:RDF>
   <cc:Work rdf:about="">
    <dc:format>image/svg+xml</dc:format>
    <dc:type rdf:resource="http://purl.org/dc/dcmitype/StillImage"/>
    <dc:title/>
   </cc:Work>
  </rdf:RDF>
 </metadata>
 <g transform="translate(-.085958 -.6205)">
  <path d="m8.5526 1.1497a7.9375 7.9375 0 0 0-7.9375 7.9375 7.9375 7.9375 0 0 0 7.9375 7.9375 7.9375 7.9375 0 0 0 7.9375-7.9375 7.9375 7.9375 0 0 0-7.9375-7.9375z" fill="url(#linearGradient7654)" stroke-width="1.1776"/>
  <circle cx="8.5851" cy="9.0361" r="3.7314" fill="#fff" fill-opacity=".35714" image-rendering="optimizeSpeed" stroke-width=".18657"/>
  <path d="m10.257 12.07c-1.809 1.0445-4.1225 0.4246-5.1668-1.3844-1.0445-1.8092-0.42471-4.1225 1.3844-5.1668 2.1316-0.0097446 3.4851 4.5963 3.7822 6.5513z" fill="#f3e2cf" image-rendering="optimizeSpeed" stroke-width=".15976"/>
  <path d="m12.522 8.9088c0 2.1874-1.7734 3.9608-3.9608 3.9608-2.1874 0-3.9608-1.7734-3.9608-3.9608 1.1072-1.9382 5.9931-0.75396 7.9214 0z" fill="#fff" image-rendering="optimizeSpeed" stroke-width=".15976"/>
 </g>
</svg>
