<?xml version="1.0" encoding="UTF-8"?>
<svg width="64" height="64" version="1.1" viewBox="0 0 16.933 16.933" xmlns="http://www.w3.org/2000/svg" xmlns:cc="http://creativecommons.org/ns#" xmlns:dc="http://purl.org/dc/elements/1.1/" xmlns:rdf="http://www.w3.org/1999/02/22-rdf-syntax-ns#" xmlns:xlink="http://www.w3.org/1999/xlink">
 <defs>
  <linearGradient id="linearGradient7654" x1=".74445" x2="16.117" y1="16.287" y2=".64575" gradientTransform="scale(1)" gradientUnits="userSpaceOnUse">
   <stop stop-color="#9d6856" offset="0"/>
   <stop stop-color="#c37d64" offset="1"/>
  </linearGradient>
 </defs>
 <metadata>
  <rdf:RDF>
   <cc:Work rdf:about="">
    <dc:format>image/svg+xml</dc:format>
    <dc:type rdf:resource="http://purl.org/dc/dcmitype/StillImage"/>
    <dc:title/>
   </cc:Work>
  </rdf:RDF>
 </metadata>
 <path d="m8.4667 0.52921a7.9375 7.9375 0 0 0-7.9375 7.9375 7.9375 7.9375 0 0 0 7.9375 7.9375 7.9375 7.9375 0 0 0 7.9375-7.9375 7.9375 7.9375 0 0 0-7.9375-7.9375z" fill="url(#linearGradient7654)" stroke-width="1.1776"/>
 <path d="m8.4659 4.7627c-2.0072 0-3.7034 1.5766-3.7034 3.5647 0 1.4237 1.8745 2.3736 3.4563 2.3736 1.1187 0 2.1134-0.4907 2.7898-1.2706-0.27837 1.3033-1.2376 2.3449-2.4905 2.7403 2.0301-0.02531 3.6528-1.6659 3.6528-3.7034 0-2.0541-1.6505-3.7034-3.7034-3.7034" fill="#fff" stroke-width=".26458"/>
</svg>
