<?xml version="1.0" encoding="UTF-8"?>
<svg width="64" height="64" version="1.1" viewBox="0 0 16.933 16.933" xmlns="http://www.w3.org/2000/svg" xmlns:cc="http://creativecommons.org/ns#" xmlns:dc="http://purl.org/dc/elements/1.1/" xmlns:rdf="http://www.w3.org/1999/02/22-rdf-syntax-ns#" xmlns:xlink="http://www.w3.org/1999/xlink">
 <defs>
  <filter id="filter1272-6" x="-.096004" y="-.096181" width="1.192" height="1.1924" color-interpolation-filters="sRGB">
   <feGaussianBlur stdDeviation="0.39771105"/>
  </filter>
  <filter id="filter1066-1" x="-.063923" y="-.056531" width="1.1278" height="1.1131" color-interpolation-filters="sRGB">
   <feGaussianBlur stdDeviation="0.22705935"/>
  </filter>
  <linearGradient id="linearGradient5352" x1="12.189" x2="13.579" y1="11.042" y2="12.031" gradientTransform="matrix(1 0 0 1 -.56907 -.14784)" gradientUnits="userSpaceOnUse">
   <stop stop-color="#fee2a2" offset="0"/>
   <stop stop-color="#f0a602" offset="1"/>
  </linearGradient>
  <linearGradient id="linearGradient6573" x1="121.63" x2="121.63" y1="9.125" y2="6.4109" gradientTransform="matrix(1.9521 0 0 1.9521 -237.5 -7.2503)" gradientUnits="userSpaceOnUse">
   <stop stop-color="#fe650b" offset="0"/>
   <stop stop-color="#fe8e00" offset="1"/>
  </linearGradient>
 </defs>
 <metadata>
  <rdf:RDF>
   <cc:Work rdf:about="">
    <dc:format>image/svg+xml</dc:format>
    <dc:type rdf:resource="http://purl.org/dc/dcmitype/StillImage"/>
    <dc:title/>
   </cc:Work>
  </rdf:RDF>
 </metadata>
 <g transform="matrix(.98249 0 0 .98249 .68743 .29354)">
  <circle cx="7.8442" cy="8.3601" r="7.9375" color="#000000" fill="#fe8f01" stroke-width=".26458"/>
  <path transform="matrix(.88977 0 0 .97319 -36.374 -4.5891)" d="m57.641 9.8253c0.81583 3.5615-6.4071 9.5974-9.8786 10.551l4.6899-0.01017c4.0983-2.6261 3.5124-2.2804 5.4351-4.4455z" fill="#f97000" filter="url(#filter1272-6)" opacity=".2"/>
  <path d="m7.7764 0.31721a7.9375 7.9833 0 0 0-7.9375 7.9835 7.9375 7.9833 0 0 0 5.5383 7.6068l0.53279-0.06029c3.7573-1.0394 9.0461-4.2556 9.2554-10.46a7.9375 7.9833 0 0 0-7.3888-5.0697zm7.4067 5.1176 0.44545 3.9648a7.9375 7.9833 0 0 0 5.02e-4 -0.00209l-0.44439-3.9579a7.9375 7.9833 0 0 0-0.0015-0.00468z" color="#000000" fill="#fafafa" stroke-width=".26535"/>
  <path transform="matrix(1.0996 0 0 1.0321 -48.296 -4.3362)" d="m57.818 9.8288s0.05354 3.0782-2.6636 4.5408c-2.2449 1.2084 0.9386 2.689-5.8599 5.0989 8.8505-2.5748 8.5235-9.6396 8.5235-9.6396z" fill="#141414" filter="url(#filter1066-1)" opacity=".3"/>
  <rect transform="rotate(-15)" x="5.6781" y="12.742" width="4.2095" height=".51448" ry=".20929" fill="#cdcdcd" style="paint-order:stroke fill markers"/>
  <path transform="matrix(1.0685 0 0 .99565 -46.455 -3.8102)" d="m57.818 9.8288s0.05354 3.0782-2.6636 4.5408c-2.2449 1.2084 0.9386 2.689-5.8599 5.0989 8.8505-2.5748 8.5235-9.6396 8.5235-9.6396z" fill="#f97000" filter="url(#filter1066-1)"/>
  <rect transform="rotate(-15)" x="5.6781" y="13.847" width="3.0353" height=".51448" ry=".20929" fill="#cdcdcd" style="paint-order:stroke fill markers"/>
  <path d="m14.941 5.7071s0.0548 3.1507-2.7263 4.6477c-2.2976 1.2368 0.96068 2.7522-5.9978 5.2189 9.0585-2.6354 8.7958-9.8303 8.7958-9.8303z" fill="url(#linearGradient5352)" stroke-width="1.0235"/>
  <path d="m14.941 5.7071s-0.19305 3.2015-2.565 4.5127c-2.7286 1.5087 0.9933 2.857-6.1955 5.2983" fill="none" stroke="#fafafa" stroke-width=".1354"/>
  <path d="m15.183 5.4349 0.44545 3.9645a7.9375 7.9833 0 0 0 5.29e-4 -0.00206l-0.44442-3.9579a7.9375 7.9833 0 0 0-1e-3 -0.00465h-5.29e-4z" color="#000000" fill="#fafafa" stroke-width=".26535"/>
  <g fill="#cdcdcd">
   <rect transform="rotate(-15)" x="5.6772" y="4.6571" width="4.2095" height=".51449" ry=".20928" style="paint-order:stroke fill markers"/>
   <rect transform="rotate(-15)" x="5.6772" y="5.7622" width="4.2095" height=".51449" ry=".20928" style="paint-order:stroke fill markers"/>
   <rect transform="rotate(-15)" x="5.6772" y="6.8672" width="3.0353" height=".51449" ry=".20928" style="paint-order:stroke fill markers"/>
   <rect transform="rotate(-15)" x="5.6772" y="9.0367" width="4.2095" height=".51449" ry=".20928" style="paint-order:stroke fill markers"/>
   <rect transform="rotate(-15)" x="5.6772" y="10.142" width="3.0353" height=".51449" ry=".20928" style="paint-order:stroke fill markers"/>
  </g>
  <circle transform="rotate(-30)" cx="-.0077883" cy="7.9103" r="2.648" fill="url(#linearGradient6573)" stroke-width="1.9522" style="paint-order:stroke fill markers"/>
  <path d="m1.8076 6.8562c0.132-0.22863 0.28866-0.43167 0.46998-0.6091 0.18132-0.17742 0.37941-0.32713 0.59423-0.4491 0.21483-0.12199 0.44167-0.21498 0.68051-0.279 0.23884-0.063992 0.48178-0.096875 0.72882-0.098653 0.24704-0.00175 0.49345 0.028855 0.73917 0.09185 0.24574 0.062987 0.48292 0.16049 0.71157 0.2925 0.072202 0.041685 0.11909 0.10285 0.14072 0.18352 0.02163 0.080677 0.011573 0.15709-0.03011 0.22929-0.041687 0.072205-0.10285 0.11912-0.18353 0.14074-0.080661 0.021603-0.15709 0.011573-0.22929-0.03011-0.18051-0.10422-0.36811-0.18109-0.56277-0.23066-0.19465-0.049543-0.38931-0.073673-0.58394-0.072382-0.19462 0.0012965-0.38603 0.02713-0.57428 0.077584-0.18823 0.05044-0.36692 0.12374-0.53613 0.21994-0.16918 0.096192-0.32568 0.21441-0.4695 0.35467-0.14382 0.14025-0.26784 0.30062-0.37206 0.48112-0.041682 0.072197-0.10286 0.11911-0.18353 0.14072-0.080671 0.021614-0.1571 0.011578-0.2293-0.030104-0.0722-0.041685-0.11911-0.10286-0.14072-0.18353-0.021613-0.080661-0.011579-0.15709 0.030107-0.22929zm0.98973 0.57142c0.11927-0.20657 0.27091-0.37772 0.45492-0.5135 0.18401-0.13576 0.38277-0.23225 0.59629-0.28945 0.21354-0.057219 0.43392-0.073049 0.66114-0.047474 0.22726 0.025577 0.44416 0.097989 0.65072 0.21726 0.072199 0.041685 0.11909 0.10285 0.14072 0.18352 0.021616 0.080669 0.011573 0.15709-0.030123 0.22931-0.041682 0.072197-0.10284 0.11911-0.18352 0.14072-0.080666 0.021614-0.1571 0.011584-0.2293-0.030104-0.13438-0.077586-0.27548-0.12496-0.42336-0.14213-0.14785-0.017174-0.29139-0.007112-0.43056 0.030184-0.1392 0.037293-0.26853 0.10034-0.38796 0.18914-0.11945 0.088805-0.21797 0.20039-0.29554 0.33475-0.041682 0.072197-0.10285 0.11911-0.18353 0.14072-0.080674 0.021611-0.15711 0.011578-0.2293-0.030107-0.0722-0.041685-0.11911-0.10286-0.14072-0.18353-0.021624-0.080674-0.011591-0.15711 0.030094-0.22931zm1.6527 0.31239c0.052149 0.03011 0.094779 0.067416 0.1279 0.11195 0.033136 0.044535 0.056676 0.092887 0.070667 0.14509 0.01397 0.052186 0.017473 0.10636 0.010478 0.16248-7e-3 0.056123-0.024987 0.10925-0.053935 0.15939-0.030104 0.052141-0.067416 0.094779-0.11193 0.12791-0.044522 0.033129-0.092906 0.056666-0.14508 0.070662-0.052197 0.013988-0.10586 0.017769-0.16098 0.011345-0.055126-0.0064261-0.10875-0.024685-0.1609-0.054795-0.050123-0.02894-0.092268-0.065966-0.12638-0.11107-0.034144-0.045117-0.058195-0.093766-0.07217-0.14596-0.013986-0.052197-0.017764-0.10585-0.011348-0.16098 0.00643-0.055118 0.024683-0.10875 0.05479-0.1609 0.028948-0.050139 0.065979-0.092271 0.11108-0.1264 0.045109-0.034121 0.093758-0.058179 0.14595-0.072165 0.052186-0.013991 0.10636-0.017478 0.16249-0.010478 0.056115 7e-3 0.10924 0.024963 0.15938 0.053909z" fill="#fff" stroke-width=".13791"/>
  <path d="m3.4097 12.835c0.132-0.22864 0.28866-0.43167 0.46998-0.6091 0.18132-0.17742 0.37941-0.32713 0.59423-0.4491 0.21483-0.12199 0.44167-0.21498 0.68051-0.279 0.23884-0.06399 0.48178-0.09688 0.72882-0.09865 0.24704-0.0017 0.49345 0.02886 0.73917 0.09185 0.24574 0.06299 0.48292 0.16049 0.71157 0.2925 0.072199 0.04169 0.11909 0.10285 0.14072 0.18352 0.02163 0.08068 0.011573 0.15709-0.03011 0.22929-0.041688 0.0722-0.10285 0.11912-0.18353 0.14074-0.080661 0.0216-0.15709 0.01157-0.22929-0.03011-0.18051-0.10422-0.36811-0.18109-0.56277-0.23066-0.19465-0.04954-0.38931-0.07367-0.58394-0.07238-0.19462 0.0013-0.38603 0.02713-0.57428 0.07758-0.18823 0.05044-0.36692 0.12374-0.53613 0.21994-0.16918 0.09619-0.32568 0.21441-0.4695 0.35467-0.14382 0.14025-0.26784 0.30062-0.37206 0.48112-0.041683 0.0722-0.10286 0.11911-0.18353 0.14072-0.080672 0.02161-0.1571 0.01158-0.2293-0.03011-0.072199-0.04168-0.11911-0.10286-0.14072-0.18353-0.021614-0.08066-0.011578-0.15709 0.030104-0.22929zm0.98973 0.57142c0.11927-0.20657 0.27091-0.37772 0.45492-0.5135 0.18401-0.13576 0.38277-0.23225 0.59629-0.28945 0.21354-0.05722 0.43392-0.07305 0.66114-0.04747 0.22726 0.02558 0.44416 0.09799 0.65072 0.21726 0.072202 0.04168 0.11909 0.10285 0.14072 0.18352 0.021616 0.08067 0.011573 0.15709-0.030123 0.22931-0.041683 0.0722-0.10284 0.11911-0.18352 0.14072-0.080666 0.02161-0.1571 0.01158-0.2293-0.0301-0.13438-0.07759-0.27548-0.12496-0.42336-0.14214-0.14785-0.01717-0.29139-0.0071-0.43056 0.03018-0.1392 0.03729-0.26853 0.10035-0.38796 0.18914-0.11945 0.0888-0.21797 0.20039-0.29554 0.33475-0.041683 0.0722-0.10285 0.11911-0.18353 0.14072-0.080674 0.02161-0.15711 0.01158-0.2293-0.03011-0.072202-0.04169-0.11911-0.10286-0.14072-0.18353-0.021624-0.08067-0.011591-0.15711 0.030094-0.22931zm1.6527 0.31239c0.052149 0.03011 0.094779 0.06742 0.1279 0.11195 0.033136 0.04453 0.056676 0.09289 0.070668 0.14509 0.013973 0.05219 0.017473 0.10636 0.010477 0.16248-7e-3 0.05612-0.024987 0.10925-0.053935 0.15939-0.030104 0.05214-0.067416 0.09478-0.11193 0.12791-0.044521 0.03313-0.092906 0.05667-0.14508 0.07066-0.052197 0.01399-0.10586 0.01777-0.16098 0.01135-0.055126-0.0064-0.10875-0.02469-0.1609-0.0548-0.050123-0.02894-0.092268-0.06597-0.12638-0.11107-0.034145-0.04512-0.058195-0.09377-0.07217-0.14596-0.013986-0.0522-0.017764-0.10585-0.011348-0.16098 0.00643-0.05512 0.024683-0.10875 0.05479-0.1609 0.028948-0.05014 0.065979-0.09227 0.11108-0.1264 0.045109-0.03412 0.093758-0.05818 0.14595-0.07217 0.052186-0.01399 0.10636-0.01748 0.16249-0.01048 0.056115 7e-3 0.10924 0.02496 0.15938 0.05391z" fill="#cdcdcd" stroke-width=".13791"/>
 </g>
</svg>
