<?xml version="1.0" encoding="UTF-8"?>
<svg width="64" height="64" version="1.1" viewBox="0 0 16.933 16.933" xmlns="http://www.w3.org/2000/svg" xmlns:cc="http://creativecommons.org/ns#" xmlns:dc="http://purl.org/dc/elements/1.1/" xmlns:rdf="http://www.w3.org/1999/02/22-rdf-syntax-ns#" xmlns:xlink="http://www.w3.org/1999/xlink">
 <defs>
  <linearGradient id="linearGradient1737" x1="-48.262" x2="-48.262" y1="2.007" y2="61.595" gradientTransform="matrix(.26458 0 0 .26458 21.6 -1.9186)" gradientUnits="userSpaceOnUse">
   <stop stop-color="#a4e20f" offset="0"/>
   <stop stop-color="#19b031" offset="1"/>
  </linearGradient>
 </defs>
 <metadata>
  <rdf:RDF>
   <cc:Work rdf:about="">
    <dc:format>image/svg+xml</dc:format>
    <dc:type rdf:resource="http://purl.org/dc/dcmitype/StillImage"/>
    <dc:title/>
   </cc:Work>
  </rdf:RDF>
 </metadata>
 <g transform="translate(-.28641 1.9186)">
  <circle cx="8.7531" cy="6.5481" r="7.9375" fill="url(#linearGradient1737)" stroke-linecap="round" stroke-width=".33575"/>
  <path d="m13.257 8.9465-3.0245-4.118-0.36824-2.6522c-0.034656-0.2496-0.27109-0.41957-0.52049-0.38494l-2.4562 0.34103c-0.2496 0.034656-0.42737 0.26213-0.39271 0.51174l0.36824 2.6522-1.7903 4.7865c-0.13656 0.36494-0.070083 0.77584 0.17354 1.0802 0.24357 0.30397 0.63033 0.45901 1.0162 0.40543l6.2532-0.86821c0.38586-0.05357 0.71656-0.30822 0.8681-0.66705 0.15128-0.3592 0.1041-0.77278-0.12672-1.0867zm-3.9536-1.3496c0.21564-0.02994 0.41453 0.12045 0.44447 0.33609 0.029912 0.21544-0.12086 0.41459-0.33609 0.44447-0.21544 0.029912-0.41456-0.12066-0.44447-0.33609-0.029856-0.21504 0.12045-0.41453 0.33609-0.44447zm-1.4233-2.1943c0.21564-0.02994 0.41456 0.12065 0.4445 0.33629 0.029912 0.21544-0.12045 0.41453-0.33609 0.44447-0.21564 0.02994-0.41456-0.12066-0.44447-0.33609-0.029739-0.21567 0.12043-0.41473 0.33607-0.44467zm0.18918 1.3626c0.34929-0.048496 0.67199 0.19553 0.72046 0.54461 0.048496 0.34928-0.19555 0.67179-0.54484 0.72029-0.34948 0.048524-0.67197-0.19533-0.72046-0.54461-0.048496-0.34928 0.19536-0.67177 0.54484-0.72029zm4.0836 2.7402c-0.06199 0.14954-0.19918 0.25175-0.35895 0.27394l-5.0879 0.70642c-0.15997 0.022211-0.31962-0.03879-0.42001-0.16578-0.10039-0.12699-0.12604-0.2955-0.067747-0.44658l0.45892-1.1842c0.0654-0.16927 0.22493-0.28319 0.40616-0.29094 0.82286-0.035384 1.8321 0.53263 2.6436 0.38842 0.43459-0.077342 0.81805-0.29282 1.1748-0.55927 0.20131-0.15086 0.4866-0.10996 0.63783 0.09109l0.55706 0.73834c0.09688 0.12973 0.11836 0.29923 0.05634 0.44857z" fill="#fff" fill-opacity=".85081" stroke-width=".2029"/>
 </g>
</svg>
