<?xml version="1.0" encoding="UTF-8"?>
<svg width="64" height="64" version="1.1" viewBox="0 0 16.933 16.933" xmlns="http://www.w3.org/2000/svg" xmlns:cc="http://creativecommons.org/ns#" xmlns:dc="http://purl.org/dc/elements/1.1/" xmlns:rdf="http://www.w3.org/1999/02/22-rdf-syntax-ns#" xmlns:xlink="http://www.w3.org/1999/xlink">
 <defs>
  <filter id="filter1010-9" x="-.079807" y="-.04807" width="1.1596" height="1.0961" color-interpolation-filters="sRGB">
   <feGaussianBlur stdDeviation="0.95786011"/>
  </filter>
  <linearGradient id="linearGradient1453" x1="39.304" x2="39.304" y1="55.823" y2="49.448" gradientTransform="matrix(.2232 0 0 .2232 -.0023715 5.0745)" gradientUnits="userSpaceOnUse">
   <stop stop-color="#ff4e4e" offset="0"/>
   <stop stop-color="#d00" stop-opacity=".97647" offset="1"/>
  </linearGradient>
  <linearGradient id="linearGradient1455" x1="27.355" x2="27.355" y1="30.203" y2="8" gradientTransform="matrix(.22158 -.026865 .026865 .22158 .60843 5.0379)" gradientUnits="userSpaceOnUse">
   <stop stop-color="#78502d" offset="0"/>
   <stop stop-color="#c2752f" offset="1"/>
  </linearGradient>
  <linearGradient id="linearGradient1457" x1="32.928" x2="32.928" y1="42.679" y2="25.535" gradientTransform="matrix(.22158 -.026865 .026865 .22158 .60843 5.0379)" gradientUnits="userSpaceOnUse">
   <stop stop-color="#b76e2c" offset="0"/>
   <stop stop-color="#cd7e35" offset="1"/>
  </linearGradient>
  <linearGradient id="linearGradient1459" x1="32.952" x2="32.952" y1="54.202" y2="39.883" gradientTransform="matrix(.22158 -.026865 .026865 .22158 .60843 5.0379)" gradientUnits="userSpaceOnUse">
   <stop stop-color="#707070" offset="0"/>
   <stop stop-color="#8e8e8e" stop-opacity=".87778" offset="1"/>
  </linearGradient>
  <linearGradient id="linearGradient1461" x1="32.297" x2="32.297" y1="54.23" y2="39.887" gradientTransform="matrix(.22158 -.026865 .026865 .22158 .60843 5.0379)" gradientUnits="userSpaceOnUse">
   <stop stop-color="#c6c6c6" offset="0"/>
   <stop stop-color="#e4e4e4" stop-opacity=".99444" offset="1"/>
  </linearGradient>
  <linearGradient id="linearGradient1463" x1="34.865" x2="34.865" y1="35.1" y2="37.492" gradientTransform="matrix(.2232 0 0 .2232 -.0023715 5.0745)" gradientUnits="userSpaceOnUse" xlink:href="#linearGradient944"/>
  <linearGradient id="linearGradient944">
   <stop stop-color="#232323" offset="0"/>
   <stop stop-color="#5f5f5f" offset="1"/>
  </linearGradient>
  <linearGradient id="linearGradient1465" x1="28.489" x2="28.489" y1="35.1" y2="37.492" gradientTransform="matrix(.2232 0 0 .2232 -.0023715 5.0745)" gradientUnits="userSpaceOnUse" xlink:href="#linearGradient944"/>
  <filter id="filter1066-3-7" x="-.063923" y="-.056531" width="1.1278" height="1.1131" color-interpolation-filters="sRGB">
   <feGaussianBlur stdDeviation="0.22705935"/>
  </filter>
  <linearGradient id="linearGradient1040-1" x1="80.368" x2="82.141" y1="13.177" y2="14.704" gradientTransform="matrix(1.0058 0 0 1.0058 -68.981 1.2825)" gradientUnits="userSpaceOnUse">
   <stop stop-color="#fafafa" offset="0"/>
   <stop stop-color="#90a0b3" offset="1"/>
  </linearGradient>
 </defs>
 <metadata>
  <rdf:RDF>
   <cc:Work rdf:about="">
    <dc:format>image/svg+xml</dc:format>
    <dc:type rdf:resource="http://purl.org/dc/dcmitype/StillImage"/>
    <dc:title/>
   </cc:Work>
  </rdf:RDF>
 </metadata>
 <g transform="translate(.15119 -3.5341)">
  <circle cx="8.2447" cy="12.042" r="7.7999" color="#000000" fill="#f3f3f3" stroke-width=".26"/>
  <path d="m8.1779 4.138a7.7999 7.8449 0 0 0-7.7999 7.8451 7.7999 7.8449 0 0 0 5.4423 7.475l0.52356-0.05924c3.6922-1.0214 8.8893-4.1819 9.095-10.279a7.7999 7.8449 0 0 0-7.2607-4.9818zm7.2783 5.0289 0.43773 3.8961a7.7999 7.8449 0 0 0 4.94e-4 -2e-3l-0.43672-3.8894a7.7999 7.8449 0 0 0-0.0015-0.0046z" color="#000000" fill="#fafafa" stroke-width=".26075"/>
  <g stroke-width=".89321">
   <circle transform="matrix(.22158 -.026865 .026865 .22158 .60843 5.0379)" cx="39.304" cy="52.635" r="3.1879" filter="url(#filter1010-9)" opacity=".15"/>
   <path transform="matrix(.22158 -.026865 .026865 .22158 .60843 5.0379)" d="m39 8c-0.47123-0.00617-1.241 1.0174-1.8529 1.9333-1.395 2.0879-2.8553 4.3721-4.2818 7.2487-1.4187 2.8607-1.5486 2.726-1.3794 8.7241 1.06 0.05877 3.3053 0.61675 4.2948 1.1122 0.14436-0.2489 0.28586-0.65817 0.41924-0.92581 2.0936-4.2022 2.5436-10.601 3.1412-15.677 0.21001-1.7838 0.02547-2.4107-0.34104-2.4155zm-23.306 7.9451c-1.5566 0.0995 1.7236 5.971 2.6892 7.4638 0.87582 1.3539 3.0504 3.6619 4.7898 5.5293 0.37273 0.40013 0.70548 0.74723 1.0209 1.0753 0 0 0.20306 0.27996 0.33573 0.15994 0.75013-0.67862 3.1886-3.3131 4.119-3.6715l-0.1233-0.19425c-2.5526-3.7948-6.737-7.1112-11.847-10.021-0.44064-0.25094-0.76165-0.35526-0.98402-0.34104z" filter="url(#filter1010-9)" opacity=".15"/>
   <path transform="matrix(.22158 -.026865 .026865 .22158 .60843 5.0379)" d="m30.945 25.535c-3.5126 0.32692-5.8355 2.1929-7.2093 4.8413-0.21367 0.66148-0.32928 1.3957-0.32928 2.1986 0 2.7774 0.86794 4.923 0.61931 7.7448-0.33693 3.8243-3.2064 6.1332-1.9321 9.5899 0.02644 0.08453 0.03442 0.16176 0.06542 0.24788 0.2631 0.73076 0.78643 1.4878 1.5221 2.3323 0.11912 0.13673 0.26074 0.25574 0.4056 0.3729 0.57808 0.47734 1.341 0.80782 2.2199 1.0217 0.60108 0.14627 1.2529 0.24224 1.9255 0.29962 0.22901 0.0195 0.46052 0.03382 0.69345 0.04525l0.19844-0.02589c2.3606 0.0922 4.834-0.17219 6.2803-0.25004 0.34547-0.01859 0.69225-0.05679 1.038-0.11208 1.068-0.17087 2.1227-0.51284 3.0944-0.99154h0.0065c0.04702-0.02369 0.08859-0.05532 0.1352-0.07975 0.37021-0.18939 0.7332-0.39077 1.0729-0.61863 1.0872-0.72918 1.997-1.6455 2.5906-2.6901 0.50662-0.89137 0.78038-1.8761 0.74143-2.9164-0.01287-1.0774-0.34353-2.2149-1.0947-3.3734-2.4473-3.7741-5.1023-8.4074-5.2402-13.453-0.07412-0.73502-0.33483-1.3758-0.73707-1.9227-1.3816-1.694-4.1397-2.2521-6.0666-2.2611z" filter="url(#filter1010-9)" opacity=".15"/>
   <path transform="matrix(.22158 -.026865 .026865 .22158 .60843 5.0379)" d="m36.047 39.888c1.2699 0 2.4439-0.02683 3.3208 0.27885 0.94638 0.32984 1.5463 1.0471 1.5463 2.6035 0 1.4234-2.2145 3.5109-2.873 5.4625 0.22157 1.6765 0.76063 3.3366 1.5025 4.6166 0.42022-0.20749 0.8245-0.44074 1.2067-0.69729 1.0866-0.72918 1.9955-1.6459 2.5888-2.6905 1.0009-1.762 1.1039-3.8877-0.35296-6.0899-3.531-6.8788-17.462-1.957-20.11 0.95159-0.13666 0.92431-1.7541 2.9306-0.70868 5.8357 0.26296 0.73075 0.78598 1.4865 1.5213 2.331 0.5943 0.68248 1.5262 1.113 2.6247 1.375 0.60075 0.14331 1.2512 0.23619 1.9235 0.2924 0.22888 0.0191 0.46021 0.03398 0.69302 0.04518-0.0015-1.0742 0.07589-2.1445 0.05272-3.1666-2e-3 -0.08885-0.0049-0.17737-0.0084-0.26547-0.23106-2.3458-4.5444-2.7965-4.5444-6.0934 0-0.68366 0.22627-1.2727 0.61965-1.7795 1.9551-2.5189 8.0381-3.0095 10.997-3.0095z" filter="url(#filter1010-9)" opacity=".15"/>
   <path transform="matrix(.22158 -.026865 .026865 .22158 .60843 5.0379)" d="m36.047 39.888c-2.9591 0-9.0421 0.49064-10.997 3.0095 1.3155 1.6949 2.3491 3.2564 3.2832 5.0609 0.44401 0.85775 0.59979 1.8093 0.64152 2.812 0.0084 0.08591 0.01125 0.17425 0.0084 0.26547 0.02317 1.0221-0.05429 2.0924-0.0527 3.1666 2.4179 0.11614 4.9889-0.16828 6.4748-0.2483 0.34528-0.01859 0.69197-0.05613 1.0375-0.11142 1.0697-0.17125 2.1281-0.51319 3.1009-0.99347-0.7419-1.28-1.281-2.94-1.5025-4.6166-0.07301-0.55223-0.11154-1.1061-0.11154-1.6489 0-1.6987 0.6369-4.6826 1.4382-6.417-0.87686-0.3056-2.0509-0.27876-3.3208-0.27876z" filter="url(#filter1010-9)" opacity=".15"/>
   <path transform="matrix(.22158 -.026865 .026865 .22158 .60843 5.0379)" d="m28.333 47.958c-0.93418-1.8045-1.9678-3.366-3.2832-5.0609-0.39338 0.50688-0.61965 1.0959-0.61965 1.7795 0 3.2969 4.3134 3.7475 4.5444 6.0934-0.04173-1.0026-0.19752-1.9542-0.64152-2.812z" filter="url(#filter1010-9)" opacity=".15"/>
   <path transform="matrix(.22158 -.026865 .026865 .22158 .60843 5.0379)" d="m39.368 40.166c-0.80132 1.7344-1.4382 4.7184-1.4382 6.417 0 0.5428 0.03851 1.0967 0.11154 1.6489 0.65851-1.9515 2.873-4.0391 2.873-5.4625 0-1.5564-0.59996-2.2736-1.5463-2.6035z" filter="url(#filter1010-9)" opacity=".15"/>
   <path transform="matrix(.22158 -.026865 .026865 .22158 .60843 5.0379)" d="m34.642 31.982c-0.676 0.19066-1.7684 3.1314-1.7696 4.0932-0.0016 1.2566 0.39592 1.7385 1.1554 2.3097 0.75944 0.57121 4.4142 1.2701 4.4231-0.06819 0.0088-1.3179-0.03963-2.4371-0.21663-3.178-0.17701-0.74092-0.53742-2.1448-1.2638-2.7494-0.45645-0.37986-1.6524-0.598-2.3284-0.40734z" filter="url(#filter1010-9)" opacity=".15"/>
   <circle transform="matrix(.22158 -.026865 .026865 .22158 .60843 5.0379)" cx="34.865" cy="36.296" r="1.196" filter="url(#filter1010-9)" opacity=".15"/>
   <path transform="matrix(.22158 -.026865 .026865 .22158 .60843 5.0379)" d="m30.432 35.486c-0.13169-0.98465-1.4238-2.6503-2.2406-3.1787-2.063-1.3344-3.4471 0.98338-3.2748 2.911 0.12802 1.4326 0.89495 5.3832 2.6543 4.5505 1.7593-0.83268 3.1993-1.7558 2.8611-4.2828z" filter="url(#filter1010-9)" opacity=".15"/>
   <circle transform="matrix(.22158 -.026865 .026865 .22158 .60843 5.0379)" cx="28.489" cy="36.296" r="1.196" filter="url(#filter1010-9)" opacity=".15"/>
  </g>
  <g stroke-width=".19936">
   <circle transform="rotate(-6.9132)" cx="8.7704" cy="16.823" r=".71154" fill="url(#linearGradient1453)"/>
   <path d="m9.4649 5.7627c-0.10458 0.011292-0.24764 0.25878-0.35862 0.47817-0.25301 0.50011-0.51521 1.0455-0.75402 1.7211-0.2375 0.67199-0.2699 0.64562-0.071265 1.9702 0.23645-0.015457 0.74895 0.047858 0.98152 0.13106 0.025298-0.05903 0.045659-0.15351 0.06802-0.2164 0.351-0.98739 0.27879-2.4173 0.27484-3.558-0.001378-0.40089-0.059121-0.53484-0.14046-0.52605zm-4.9506 2.3866c-0.34223 0.063865 0.54233 1.2768 0.7964 1.5816 0.23044 0.27645 0.77427 0.72946 1.2099 1.0965 0.093339 0.07865 0.17639 0.14662 0.2551 0.21083 0 0 0.052514 0.05658 0.078689 0.02642 0.14798-0.17052 0.61752-0.81977 0.81405-0.92419l-0.032539-0.03973c-0.66755-0.77227-1.6838-1.3947-2.8943-1.9022-0.10438-0.043765-0.17831-0.058256-0.2272-0.049132z" fill="url(#linearGradient1455)"/>
   <path d="m8.1512 9.8647c-0.76954 0.16681-1.2341 0.64267-1.4673 1.2664-0.029574 0.15231-0.035467 0.31811-0.013894 0.496 0.074617 0.61542 0.32459 1.0675 0.3453 1.6994 0.028088 0.85644-0.54569 1.4451-0.17047 2.1768 0.00813 0.01802 0.011973 0.03491 0.021156 0.05316 0.07793 0.15485 0.21422 0.30854 0.39993 0.4759 0.030069 0.0271 0.064646 0.04966 0.099888 0.07173 0.14091 0.09024 0.31884 0.14297 0.51932 0.16675 0.13711 0.01626 0.28413 0.02002 0.43469 0.01466 0.051267-0.0019 0.10294-0.0049 0.15487-0.0086l0.043274-0.01106c0.52553-0.04299 1.0665-0.16803 1.3849-0.22413 0.076052-0.0134 0.15186-0.03118 0.22699-0.05272 0.23206-0.06655 0.45656-0.17066 0.65902-0.30285l0.0015-1.63e-4c0.0098-0.0065 0.01814-0.01464 0.02782-0.0213 0.07694-0.05191 0.15196-0.10629 0.22111-0.16589 0.22131-0.19078 0.3983-0.41826 0.50174-0.66567 0.08831-0.21112 0.12251-0.43667 0.08593-0.66614-0.03186-0.2384-0.13569-0.48158-0.33326-0.71807-0.64365-0.7705-1.3565-1.7259-1.5225-2.8402-0.036171-0.16087-0.11115-0.29585-0.21498-0.40622-0.35165-0.33823-0.97778-0.38781-1.405-0.33802z" fill="url(#linearGradient1457)"/>
   <path d="m9.6672 12.908c0.28137-0.03412 0.54079-0.0716 0.74331-0.02743 0.21856 0.04766 0.37076 0.19047 0.41256 0.53534 0.03824 0.31541-0.39637 0.83743-0.48984 1.2876 0.09414 0.36553 0.25818 0.71889 0.45694 0.98258 0.08753-0.05726 0.17085-0.11981 0.24864-0.18692 0.22118-0.19077 0.39795-0.41831 0.50133-0.6657 0.17444-0.41732 0.14016-0.8911-0.24182-1.3399-0.96719-1.4293-3.9218 0.0355-4.4304 0.75113-0.00545 0.20848-0.30994 0.69649-2.473e-4 1.3121 0.077898 0.15486 0.21409 0.30825 0.39972 0.47564 0.15001 0.13525 0.36808 0.20561 0.61851 0.23415 0.13696 0.01561 0.28358 0.01872 0.43406 0.01312 0.051228-2e-3 0.10289-0.0048 0.15477-0.0086-0.029196-0.23798-0.040799-0.47722-0.073393-0.70306-0.00283-0.01963-0.00585-0.03917-0.00899-0.05859-0.11422-0.5136-1.082-0.49758-1.1707-1.2281-0.018366-0.15149 0.015946-0.28808 0.089494-0.41095 0.36553-0.61066 1.7002-0.8828 2.3559-0.96228z" fill="url(#linearGradient1459)"/>
   <path d="m9.6672 12.908c-0.65567 0.0795-1.9904 0.35165-2.3559 0.96228 0.33701 0.34021 0.60801 0.65845 0.86345 1.0332 0.12143 0.17813 0.18151 0.38479 0.21769 0.60584 0.00417 0.01881 0.00718 0.0383 0.00899 0.0586 0.032593 0.22586 0.044184 0.46509 0.073398 0.70306 0.53888-0.03923 1.1009-0.17132 1.428-0.22897 0.076011-0.01339 0.15182-0.03103 0.2269-0.05256 0.23242-0.06668 0.45776-0.17089 0.66039-0.30345-0.19878-0.26369-0.36283-0.61702-0.45695-0.98258-0.03101-0.1204-0.05443-0.24209-0.06901-0.36236-0.04563-0.3764 0.01532-1.0547 0.14628-1.4605-0.2025-0.04415-0.46191-0.0067-0.74331 0.02745z" fill="url(#linearGradient1461)"/>
   <path d="m8.1749 14.903c-0.25547-0.37473-0.52645-0.69297-0.86345-1.0332-0.073546 0.12288-0.10786 0.25947-0.089494 0.41095 0.088574 0.73052 1.0565 0.71448 1.1707 1.228-0.036181-0.22103-0.096267-0.4277-0.21769-0.60584z" fill="#3f3f3f"/>
   <path d="m10.411 12.88c-0.13096 0.40583-0.19192 1.0842-0.14628 1.4605 0.01458 0.12027 0.038 0.24197 0.06901 0.36236 0.09348-0.45011 0.52809-0.97216 0.48984-1.2876-0.04181-0.34486-0.19402-0.48765-0.41256-0.53534z" fill="#3f3f3f"/>
   <path d="m9.1436 11.194c-0.14467 0.06041-0.3077 0.74136-0.28215 0.95451 0.033399 0.27849 0.13444 0.37458 0.31805 0.48073 0.18362 0.10617 1.0122 0.16284 0.97824-0.13394-0.033446-0.29227-0.074256-0.53894-0.13338-0.69835-0.059126-0.15942-0.1767-0.46079-0.35388-0.57524-0.11135-0.071905-0.3822-0.088111-0.52686-0.027702z" fill="#fff"/>
   <circle transform="rotate(-6.9132)" cx="7.7795" cy="13.176" r=".26694" fill="url(#linearGradient1463)"/>
   <path d="m8.3049 12.083c-0.055635-0.21464-0.38669-0.54899-0.58188-0.64415-0.49296-0.24025-0.73738 0.31051-0.64742 0.73298 0.066853 0.314 0.34294 1.1688 0.71039 0.93698 0.36746-0.23176 0.66172-0.47499 0.51891-1.0258z" fill="#fff"/>
   <circle transform="rotate(-6.9132)" cx="6.3563" cy="13.176" r=".26694" fill="url(#linearGradient1465)"/>
  </g>
  <path transform="matrix(1.0805 0 0 1.0142 -46.926 -.4348)" d="m57.818 9.8288s0.05354 3.0782-2.6636 4.5408c-2.2449 1.2084 0.9386 2.689-5.8599 5.0989 8.8505-2.5748 8.5235-9.6396 8.5235-9.6396z" fill="#141414" filter="url(#filter1066-3-7)" opacity=".3"/>
  <path transform="matrix(1.05 0 0 .97839 -45.056 .22604)" d="m57.818 9.8288s0.05354 3.0782-2.6636 4.5408c-2.2449 1.2084 0.9386 2.689-5.8599 5.0989 8.8505-2.5748 8.5235-9.6396 8.5235-9.6396z" fill="#141414" filter="url(#filter1066-3-7)" opacity=".3"/>
  <path d="m15.219 9.4344s0.05385 3.0961-2.6791 4.5672c-2.2578 1.2154 0.94403 2.7045-5.8939 5.1285 8.9015-2.5897 8.6434-9.6599 8.6434-9.6599z" fill="url(#linearGradient1040-1)" stroke-width="1.0058"/>
  <path d="m15.219 9.4344s-0.1897 3.146-2.5205 4.4345c-2.6813 1.4826 0.97608 2.8075-6.0881 5.2065" fill="none" stroke="#fafafa" stroke-width=".13305"/>
 </g>
</svg>
