<?xml version="1.0" encoding="UTF-8"?>
<svg width="64" height="64" version="1.1" viewBox="0 0 16.933 16.933" xmlns="http://www.w3.org/2000/svg" xmlns:cc="http://creativecommons.org/ns#" xmlns:dc="http://purl.org/dc/elements/1.1/" xmlns:rdf="http://www.w3.org/1999/02/22-rdf-syntax-ns#" xmlns:xlink="http://www.w3.org/1999/xlink">
 <defs>
  <filter id="filter1066-3-1" x="-.063923" y="-.056531" width="1.1278" height="1.1131" color-interpolation-filters="sRGB">
   <feGaussianBlur stdDeviation="0.22705935"/>
  </filter>
  <linearGradient id="linearGradient1040-2" x1="80.368" x2="82.141" y1="13.177" y2="14.704" gradientTransform="matrix(1.0235 0 0 1.0235 -72.564 -.93827)" gradientUnits="userSpaceOnUse">
   <stop stop-color="#fafafa" offset="0"/>
   <stop stop-color="#90a0b3" offset="1"/>
  </linearGradient>
  <linearGradient id="linearGradient1005-9" x1=".73911" x2="16.388" y1="16.296" y2=".64687" gradientTransform="matrix(.41667 0 0 .41667 .43937 9.4761)" gradientUnits="userSpaceOnUse">
   <stop stop-color="#cfdade" offset="0"/>
   <stop stop-color="#eaeff2" offset="1"/>
  </linearGradient>
 </defs>
 <metadata>
  <rdf:RDF>
   <cc:Work rdf:about="">
    <dc:format>image/svg+xml</dc:format>
    <dc:type rdf:resource="http://purl.org/dc/dcmitype/StillImage"/>
    <dc:title/>
   </cc:Work>
  </rdf:RDF>
 </metadata>
 <g transform="translate(2.3718 -1.5025)">
  <circle cx="6.0218" cy="10.011" r="7.9375" color="#000000" fill="#f3f3f3" stroke-width=".26458"/>
  <path d="m5.9538 1.9676a7.9375 7.9833 0 0 0-7.9375 7.9835 7.9375 7.9833 0 0 0 5.5383 7.6068l0.53279-0.06029c3.7573-1.0394 9.0461-4.2556 9.2554-10.46a7.9375 7.9833 0 0 0-7.3888-5.0697zm7.4067 5.1176 0.44545 3.9648a7.9375 7.9833 0 0 0 5.02e-4 -0.0021l-0.44442-3.9579a7.9375 7.9833 0 0 0-0.0015-0.00468z" color="#000000" fill="#fafafa" stroke-width=".26535"/>
  <path transform="matrix(1.0996 0 0 1.0321 -50.12 -2.6858)" d="m57.818 9.8288s0.05354 3.0782-2.6636 4.5408c-2.2449 1.2084 0.9386 2.689-5.8599 5.0989 8.8505-2.5748 8.5235-9.6396 8.5235-9.6396z" fill="#141414" filter="url(#filter1066-3-1)" opacity=".3"/>
  <path transform="matrix(1.0685 0 0 .99565 -48.217 -2.0133)" d="m57.818 9.8288s0.05354 3.0782-2.6636 4.5408c-2.2449 1.2084 0.9386 2.689-5.8599 5.0989 8.8505-2.5748 8.5235-9.6396 8.5235-9.6396z" fill="#141414" filter="url(#filter1066-3-1)" opacity=".3"/>
  <path d="m13.119 7.3575s0.0548 3.1507-2.7263 4.6477c-2.2976 1.2368 0.96068 2.7522-5.9978 5.2189 9.0585-2.6354 8.7958-9.8303 8.7958-9.8303z" fill="url(#linearGradient1040-2)" stroke-width="1.0235"/>
  <path d="m13.119 7.3575s-0.19305 3.2015-2.565 4.5127c-2.7286 1.5087 0.9933 2.857-6.1955 5.2983" fill="none" stroke="#fafafa" stroke-width=".1354"/>
  <path d="m13.361 7.0852 0.44545 3.9645a7.9375 7.9833 0 0 0 5.29e-4 -0.0021l-0.44442-3.9579a7.9375 7.9833 0 0 0-1e-3 -0.00465h-5.29e-4z" color="#000000" fill="#fafafa" stroke-width=".26535"/>
  <path d="m13.361 7.085 0.44545 3.9648a7.9375 7.9833 0 0 0 5.03e-4 -0.0021l-0.44442-3.9579a7.9375 7.9833 0 0 0-0.0015-0.00468z" color="#000000" fill="#fafafa" stroke-width=".26535"/>
  <path d="m3.395 6.0359a0.26352 0.26352 0 0 0-0.06059 0.48435l0.57356 0.33115a2.3786 2.3786 0 0 0-0.60262 1.6735l4.4802-1.2004a2.3794 2.3794 0 0 0-1.5438-1.2013l0.26131-0.45186a0.26352 0.26352 0 0 0-0.29472-0.38944 0.26352 0.26352 0 0 0-0.16161 0.12575l-0.3738 0.64744a2.3707 2.3707 0 0 0-1.3505 0.42706l-0.72456-0.41833a0.26352 0.26352 0 0 0-0.20276-0.027845zm1.1101 1.0721a0.26458 0.26458 0 0 1 0.32404 0.18709 0.26458 0.26458 0 0 1-0.18709 0.32404 0.26458 0.26458 0 0 1-0.32404-0.18709 0.26458 0.26458 0 0 1 0.18709-0.32404zm1.5334-0.41087a0.26458 0.26458 0 0 1 0.32404 0.18709 0.26458 0.26458 0 0 1-0.18709 0.32404 0.26458 0.26458 0 0 1-0.32404-0.18709 0.26458 0.26458 0 0 1 0.18709-0.32404zm-3.6782 2.6291c-0.28316 0.075875-0.45006 0.36491-0.37417 0.6481l0.47935 1.789c0.075875 0.28316 0.36491 0.45006 0.6481 0.37417 0.28316-0.07587 0.45006-0.36491 0.37417-0.6481l-0.47935-1.789c-0.075874-0.28316-0.36491-0.45006-0.6481-0.37417zm1.0223-0.27392 0.95872 3.578c0.11381 0.42476 0.5474 0.67508 0.97213 0.56126l0.25557-0.06848 0.27392 1.0223c0.075875 0.28316 0.36491 0.45006 0.6481 0.37417 0.28316-0.07587 0.45006-0.36491 0.37417-0.6481l-0.27392-1.0223 0.51115-0.13696 0.27392 1.0223c0.075875 0.28316 0.36491 0.45006 0.6481 0.37417 0.28316-0.07587 0.45006-0.36491 0.37417-0.6481l-0.27392-1.0223 0.25557-0.068479c0.42476-0.11381 0.67508-0.5474 0.56126-0.97213l-0.95872-3.578zm5.6224-1.5065c-0.28316 0.075875-0.45006 0.36491-0.37417 0.6481l0.47935 1.789c0.075875 0.28316 0.36491 0.45006 0.6481 0.37417 0.28316-0.075874 0.45006-0.36491 0.37417-0.6481l-0.47935-1.789c-0.075875-0.28316-0.36491-0.45006-0.6481-0.37417z" fill="#0fd59a" stroke-width=".26458"/>
 </g>
 <path d="m7.2889 13.001c0 0.39648-0.069787 0.7766-0.19777 1.1289-0.088961 0.24487-0.206 0.47638-0.34748 0.69051-0.059259 0.09003-0.12298 0.17698-0.19061 0.26054-0.21652 0.26742-0.47382 0.50027-0.76269 0.68929-0.10637 0.06966-0.21693 0.13337-0.33139 0.19046-0.4445 0.22246-0.94628 0.34758-1.4774 0.34758-0.53105 0-1.0328-0.12514-1.4774-0.34758-0.11447-0.057105-0.22517-0.12081-0.33155-0.19046-0.29252-0.19156-0.55293-0.4281-0.77118-0.69993-0.06776-0.084233-0.13134-0.17198-0.19061-0.26282-0.13769-0.21058-0.25175-0.43778-0.33896-0.67792-0.12796-0.35221-0.19762-0.73218-0.19762-1.1286 0-1.8266 1.4807-3.3073 3.3073-3.3073 0.91689 0 1.7466 0.37312 2.3456 0.9757 0.17265 0.17359 0.32615 0.36637 0.45678 0.57478 0.12352 0.19628 0.22678 0.40659 0.3071 0.62783 0.12799 0.35232 0.19778 0.73247 0.19778 1.1289z" fill="url(#linearGradient1005-9)" image-rendering="optimizeSpeed" stroke-width=".012919"/>
 <path d="m2.8262 11.678 0.019637 2.6458 2.2913-1.3389-2.311-1.3069z" fill="#547181" stroke-linecap="round" stroke-width=".52917"/>
</svg>
