<?xml version="1.0" encoding="UTF-8"?>
<svg width="64" height="64" version="1.1" xmlns="http://www.w3.org/2000/svg" xmlns:cc="http://creativecommons.org/ns#" xmlns:dc="http://purl.org/dc/elements/1.1/" xmlns:rdf="http://www.w3.org/1999/02/22-rdf-syntax-ns#">
 <metadata>
  <rdf:RDF>
   <cc:Work rdf:about="">
    <dc:format>image/svg+xml</dc:format>
    <dc:type rdf:resource="http://purl.org/dc/dcmitype/StillImage"/>
    <dc:title/>
   </cc:Work>
  </rdf:RDF>
 </metadata>
 <defs>
  <linearGradient id="b" x1="24" x2="24" y1="26" y2="44" gradientTransform="matrix(1.5,0,0,1.5,-4,-4)" gradientUnits="userSpaceOnUse">
   <stop stop-color="#009632" offset="0"/>
   <stop stop-color="#00783c" offset="1"/>
  </linearGradient>
  <filter id="c" x="-.054049" y="-.067423" width="1.1081" height="1.1348" color-interpolation-filters="sRGB">
   <feGaussianBlur stdDeviation="1.0109576"/>
  </filter>
  <linearGradient id="linearGradient1005-6" x1=".73911" x2="16.388" y1="16.296" y2=".64687" gradientTransform="matrix(3.7796 0 0 3.7796 -.1323 .023916)" gradientUnits="userSpaceOnUse">
   <stop stop-color="#cfdef0" offset="0"/>
   <stop stop-color="#f5faff" offset=".49575"/>
   <stop stop-color="#f5faff" offset="1"/>
  </linearGradient>
 </defs>
 <g transform="matrix(3.7796 0 0 3.7796 -82.522 3.3896)" fill="#5e4aa6" image-rendering="optimizeSpeed" stroke-width=".26458">
  <circle cx="-330.35" cy="-328.38" r="0"/>
  <circle cx="-312.11" cy="-326.25" r="0"/>
  <circle cx="-306.02" cy="-333.07" r="0"/>
  <circle cx="-308.84" cy="-326.01" r="0"/>
 </g>
 <path d="m62 32c0 3.5964-0.63304 7.0445-1.7939 10.24-0.80696 2.2212-1.8685 4.3211-3.1519 6.2636-0.53755 0.81669-1.1155 1.6054-1.729 2.3634-1.9641 2.4256-4.2981 4.538-6.9184 6.2525-0.96491 0.63185-1.9678 1.2098-3.0061 1.7277-4.032 2.0179-8.5838 3.153-13.401 3.153-4.817 0-9.3688-1.1351-13.401-3.1531-1.0384-0.518-2.0425-1.0959-3.0074-1.7277-2.6535-1.7376-5.0155-3.8831-6.9955-6.3489-0.61464-0.76408-1.1915-1.56-1.729-2.3841-1.249-1.9102-2.2836-3.9711-3.0746-6.1494-1.1607-3.1947-1.7927-6.6417-1.7927-10.237 0-16.569 13.431-30 30-30 8.3169 0 15.842 3.3845 21.277 8.8505 1.5661 1.5746 2.9585 3.3234 4.1434 5.2138 1.1205 1.7805 2.0571 3.6882 2.7857 5.695 1.1611 3.1959 1.794 6.6441 1.794 10.24z" fill="url(#linearGradient1005-6)" image-rendering="optimizeSpeed" stroke-width=".11719"/>
 <g transform="matrix(.97757 0 0 .96264 .6753 2.2957)">
  <path d="m45.436 24.81c-0.47961 0.03323-0.93367 0.29824-1.1934 0.74805l-5.2422 9.082c-2.0641-0.5337-4.3642-0.84766-6.959-0.84766s-4.893 0.31396-6.957 0.84766l-5.2422-9.082c-0.31162-0.53985-0.90426-0.81103-1.4844-0.73828-0.19338 0.024-0.38649 0.0861-0.56641 0.18945-0.71966 0.4155-0.96237 1.3291-0.54688 2.0488l4.9297 8.5391c-7.3847 3.0509-10.893 9.4478-12.576 15.045a30 30 0 0 0 22.443 10.15 30 30 0 0 0 22.447-10.139c-1.6818-5.5998-5.1896-12.003-12.578-15.057l4.9316-8.5391c0.4155-0.7197 0.16889-1.6333-0.55078-2.0488-0.26987-0.15581-0.5677-0.21915-0.85547-0.19922z" filter="url(#c)" opacity=".1" stroke-opacity=".55" stroke-width="2.8"/>
  <path d="m45.395 26.018c-0.47961 0.03323-0.93367 0.29824-1.1934 0.74805l-5.2422 9.082c-2.0641-0.5337-4.3642-0.84766-6.959-0.84766s-4.893 0.31396-6.957 0.84766l-5.2422-9.082c-0.31162-0.53985-0.90426-0.81103-1.4844-0.73828-0.19338 0.024-0.38649 0.0861-0.56641 0.18945-0.71966 0.4155-0.96237 1.3291-0.54688 2.0488l4.9297 8.5391c-7.3847 3.0509-10.893 9.4478-12.576 15.045a30 30 0 0 0 22.443 10.15 30 30 0 0 0 22.447-10.139c-1.6818-5.5998-5.1896-12.003-12.578-15.057l4.9316-8.5391c0.4155-0.7197 0.16889-1.6333-0.55078-2.0488-0.26987-0.15581-0.5677-0.21915-0.85547-0.19922z" fill="url(#b)" stroke-opacity=".55" stroke-width="2.8"/>
  <circle cx="23" cy="50" r="3" fill="#fff"/>
  <circle cx="41" cy="50" r="3" fill="#fff"/>
 </g>
 <g transform="matrix(1.0697 0 0 1.0697 -2.6287 -2.8145)" fill="#232323" stroke-opacity=".55" stroke-width="2.8">
  <rect x="24.871" y="14" width="5" height="10" ry="1" opacity=".15"/>
  <rect x="34.871" y="14" width="5" height="10" ry="1" opacity=".15"/>
 </g>
</svg>
