<?xml version="1.0" encoding="UTF-8"?>
<svg width="64" height="64" version="1.1" viewBox="0 0 16.933 16.933" xmlns="http://www.w3.org/2000/svg" xmlns:cc="http://creativecommons.org/ns#" xmlns:dc="http://purl.org/dc/elements/1.1/" xmlns:rdf="http://www.w3.org/1999/02/22-rdf-syntax-ns#" xmlns:xlink="http://www.w3.org/1999/xlink">
 <defs>
  <linearGradient id="linearGradient941" x1="75.175" x2="135.1" y1="61.764" y2="2.416" gradientTransform="matrix(.26458 0 0 .26458 -21.24 3.6049)" gradientUnits="userSpaceOnUse">
   <stop stop-color="#1566ff" offset="0"/>
   <stop stop-color="#15a9ff" offset="1"/>
  </linearGradient>
 </defs>
 <metadata>
  <rdf:RDF>
   <cc:Work rdf:about="">
    <dc:format>image/svg+xml</dc:format>
    <dc:type rdf:resource="http://purl.org/dc/dcmitype/StillImage"/>
    <dc:title/>
   </cc:Work>
  </rdf:RDF>
 </metadata>
 <g transform="translate(1.8993 -3.6049)">
  <circle cx="6.5673" cy="12.072" r="7.9375" fill="url(#linearGradient941)" stroke-linecap="round" stroke-width=".057222"/>
  <path d="m3.8087 12.478c0.023162-0.02798 0.035731-0.12586 0.029607-0.23089l-0.01061-0.18232-1.2443-0.0078c-0.88996-0.0056-1.2577 0.0033-1.2911 0.0311-0.058166 0.04837-0.062106 0.34318-0.00534 0.39983 0.030418 0.03036 0.35785 0.04069 1.2613 0.03981 1.0119-9.79e-4 1.2271-0.0095 1.2605-0.04976zm2.2041-2.2416c0.21065-0.074269 0.51195-0.27928 0.56987-0.38775 0.031934-0.059814 0.012351-0.093988-0.14502-0.25303-0.10007-0.10113-0.19791-0.18386-0.21742-0.18384-0.019513-1.9e-6 -0.10932 0.052639-0.19956 0.11693-0.38837 0.27669-0.86972 0.2323-1.1501-0.10607-0.11384-0.13737-0.20792-0.39674-0.2081-0.57367-1.863e-4 -0.20366 0.10222-0.46344 0.24313-0.61659 0.29148-0.31684 0.74483-0.33807 1.1332-0.053052 0.078292 0.057458 0.15648 0.090846 0.18023 0.076965 0.086492-0.050546 0.35944-0.40134 0.35004-0.44987-0.01533-0.07919-0.27898-0.26288-0.49063-0.34183-0.25452-0.094946-0.63824-0.12504-0.90974-0.071348-0.93851 0.1856-1.4557 1.2121-1.0514 2.0869 0.18695 0.40454 0.59519 0.72977 1.0315 0.82173 0.21418 0.04513 0.64232 0.01269 0.86409-0.0655zm-4.1973 0.0072c0.022942-0.01461 0.088356-0.13999 0.14536-0.27862 0.057007-0.13863 0.12078-0.27273 0.14171-0.29801 0.028819-0.034795 0.16373-0.045952 0.55545-0.045939 0.28456-4.8e-6 0.53618 0.011933 0.55915 0.026497 0.022974 0.014563 0.088632 0.13981 0.14591 0.27833 0.057278 0.13852 0.12131 0.2725 0.1423 0.29773 0.053026 0.06377 0.60613 0.06419 0.6305 5.03e-4 0.0094271-0.024689-0.24724-0.6637-0.57038-1.4201l-0.58753-1.3752-0.30843 0.010088-0.30843 0.010086-0.57817 1.3636c-0.318 0.74999-0.56991 1.3851-0.5598 1.4114 0.013573 0.03526 0.087911 0.04753 0.28451 0.04695 0.14637-4.5e-4 0.28491-0.01274 0.30785-0.02735zm0.56745-1.2227c-0.02246-0.058363 0.23658-0.71715 0.28201-0.71719 0.015753-1.43e-5 0.096169 0.15963 0.1787 0.35476 0.11987 0.28341 0.14075 0.36069 0.10383 0.38414-0.025424 0.016145-0.15829 0.0297-0.29526 0.030123-0.19292 5.82e-4 -0.2536-0.011083-0.26927-0.051846z" fill="#fff" fill-opacity=".8" stroke-width=".25133"/>
 </g>
</svg>
