<?xml version="1.0" encoding="UTF-8"?>
<svg width="64" height="64" version="1.1" viewBox="0 0 16.933 16.933" xmlns="http://www.w3.org/2000/svg" xmlns:cc="http://creativecommons.org/ns#" xmlns:dc="http://purl.org/dc/elements/1.1/" xmlns:rdf="http://www.w3.org/1999/02/22-rdf-syntax-ns#" xmlns:xlink="http://www.w3.org/1999/xlink">
 <defs>
  <filter id="filter1066-3-9" x="-.063923" y="-.056531" width="1.1278" height="1.1131" color-interpolation-filters="sRGB">
   <feGaussianBlur stdDeviation="0.22705935"/>
  </filter>
  <linearGradient id="linearGradient4737" x1="45.94" x2="51.158" y1="41.552" y2="46.046" gradientTransform="matrix(.26458 0 0 .26458 .60014 2.265)" gradientUnits="userSpaceOnUse">
   <stop stop-color="#497ee7" offset="0"/>
   <stop stop-color="#385eab" offset="1"/>
  </linearGradient>
 </defs>
 <metadata>
  <rdf:RDF>
   <cc:Work rdf:about="">
    <dc:format>image/svg+xml</dc:format>
    <dc:type rdf:resource="http://purl.org/dc/dcmitype/StillImage"/>
    <dc:title/>
   </cc:Work>
  </rdf:RDF>
 </metadata>
 <g transform="matrix(.99638 0 0 .99638 -.35463 -2.3186)">
  <circle cx="8.8411" cy="10.795" r="7.9375" fill="#4b82f0" stroke-linecap="round" stroke-width=".088078"/>
  <path transform="matrix(1.0685 0 0 .99565 -45.723 -1.329)" d="m57.818 9.8288s0.05354 3.0782-2.6636 4.5408c-2.2449 1.2084 0.9386 2.689-5.8599 5.0989 8.8505-2.5748 8.5235-9.6396 8.5235-9.6396z" fill="#141414" filter="url(#filter1066-3-9)" opacity=".3"/>
  <path transform="matrix(1.0996 0 0 1.0321 -47.36 -1.8597)" d="m57.818 9.8288s0.05354 3.0782-2.6636 4.5408c-2.2449 1.2084 0.9386 2.689-5.8599 5.0989 8.8505-2.5748 8.5235-9.6396 8.5235-9.6396z" fill="#141414" filter="url(#filter1066-3-9)" opacity=".3"/>
  <g stroke-linecap="round">
   <path d="m8.8457 2.852c-4.3955-1e-7 -7.9588 3.5839-7.9587 8.0048 0.00132 3.4876 2.2476 6.5729 5.5529 7.6271l0.53421-0.06062c3.7674-1.0422 9.0701-4.2664 9.28-10.488-1.1948-3.0658-4.1344-5.0829-7.4084-5.0835z" fill="#fafafa" stroke-width=".03157"/>
   <path d="m8.8577 7.8187c-0.020849 0-0.037722 0.01678-0.037722 0.037724v0.70125c0 0.02354 0.018733 0.042891 0.042373 0.042891h0.30282c0.12247 0 0.22191 0.094233 0.23254 0.21394v3.3181c7.937e-4 0.02679-5.292e-4 0.0532-0.0031 0.07906-2.645e-4 0.0038-5.291e-4 0.0076-0.00106 0.01137-0.00159 0.01515-0.00378 0.03021-0.00672 0.04496-0.00159 0.0084-0.00418 0.01641-0.00619 0.0248-0.0027 0.01109-0.00489 0.02233-0.00826 0.03307-0.019976 0.06391-0.051422 0.12299-0.095086 0.17518-0.00159 0.0027-0.0036 0.0033-0.00516 0.0052-0.013309 0.01542-0.027416 0.03086-0.042892 0.04496-0.01561 0.01434-0.03171 0.02702-0.049093 0.03927-0.12355 0.08754-0.29013 0.1263-0.47594 0.10852-0.2369-0.022212-0.47199-0.13-0.66197-0.30285-0.18994-0.17282-0.30784-0.38651-0.33228-0.60203-0.021987-0.19282 0.035491-0.36268 0.16227-0.47801h0.00106c0.00489-0.0043 0.010478-0.0081 0.015505-0.0124 0.090723-0.07601 0.20868-0.12218 0.34365-0.13488 0.00159-1.35e-4 0.0032 0 0.00466 0 0.014208 0 0.028805-0.0026 0.043408-0.0026 0.00762-2.64e-4 0.015002 0 0.022728 0 0.0027-2.7e-5 0.00519 0 0.00775 0h0.013944c0.021273 0 0.042741 1.24e-4 0.064595 0.0031 0.00275 2.44e-4 0.00492 1.36e-4 0.00775 0 0.00185 1.89e-4 0.00418 0 0.00619 0 0.1238 0.01245 0.24644 0.04941 0.36277 0.10542 0.00238 1.08e-4 0.00529-1.23e-4 0.00878 0.0026 0.035462 0.01948 0.042362-0.0028 0.04341-0.0155v-1.0552c0-0.03022-0.02114-0.05707-0.050644-0.06356-0.62658-0.13789-1.2416 0.0056-1.6753 0.40049-0.37896 0.3447-0.56221 0.84222-0.50281 1.3648 0.052999 0.46541 0.29193 0.91219 0.67283 1.2588 0.37124 0.33775 0.84411 0.54937 1.3317 0.59531 0.067186 0.0062 0.13463 0.0093 0.2005 0.0093 0.46567 0 0.89754-0.15946 1.2165-0.44958 0.30212-0.27508 0.48349-0.6531 0.51004-1.064l0.0021-2.6949h5.29e-4v-0.73277c0.0027-0.12718 0.10622-0.22996 0.2341-0.22996h0.30282c0.0236 0 0.04289-0.018859 0.04289-0.042375v-0.70125c0-0.020836-0.01685-0.037724-0.03773-0.037724v-5.22e-4z" fill="#385eab" stroke-width=".031485"/>
   <path d="m16.293 8.1455s-0.13391 3.1252-2.915 4.6222c-2.2976 1.2368 0.91237 3.1042-6.0461 5.5709 9.0585-2.6354 8.9611-10.193 8.9611-10.193z" fill="url(#linearGradient4737)" stroke-width=".031485"/>
  </g>
 </g>
</svg>
