<?xml version="1.0" encoding="UTF-8"?>
<svg width="64" height="64" version="1.1" viewBox="0 0 16.933 16.933" xmlns="http://www.w3.org/2000/svg" xmlns:cc="http://creativecommons.org/ns#" xmlns:dc="http://purl.org/dc/elements/1.1/" xmlns:rdf="http://www.w3.org/1999/02/22-rdf-syntax-ns#" xmlns:xlink="http://www.w3.org/1999/xlink">
 <defs>
  <filter id="filter1066-3-6" x="-.063923" y="-.056531" width="1.1278" height="1.1131" color-interpolation-filters="sRGB">
   <feGaussianBlur stdDeviation="0.22705935"/>
  </filter>
  <linearGradient id="linearGradient1040-8" x1="80.368" x2="82.141" y1="13.177" y2="14.704" gradientTransform="matrix(1.0235 0 0 1.0235 -72.564 1.9438)" gradientUnits="userSpaceOnUse">
   <stop stop-color="#fafafa" offset="0"/>
   <stop stop-color="#90a0b3" offset="1"/>
  </linearGradient>
 </defs>
 <metadata>
  <rdf:RDF>
   <cc:Work rdf:about="">
    <dc:format>image/svg+xml</dc:format>
    <dc:type rdf:resource="http://purl.org/dc/dcmitype/StillImage"/>
    <dc:title/>
   </cc:Work>
  </rdf:RDF>
 </metadata>
 <g transform="translate(2.3718 -4.3845)">
  <circle cx="6.0222" cy="12.893" r="7.9375" color="#000000" fill="#f3f3f3" stroke-width=".26458"/>
  <path d="m5.9541 4.8496a7.9375 7.9834 0 0 0-7.9375 7.9835 7.9375 7.9834 0 0 0 5.5382 7.6066l0.53278-0.06029c3.7574-1.0394 9.0462-4.2556 9.2553-10.46a7.9375 7.9834 0 0 0-7.3887-5.0697zm7.4067 5.1175 0.44545 3.9647a7.9375 7.9834 0 0 0 5.15e-4 -0.0021l-0.44442-3.958a7.9375 7.9834 0 0 0-0.0015-0.00468z" color="#000000" fill="#fafafa" stroke-width=".26534"/>
  <path transform="matrix(1.0996 0 0 1.0321 -50.119 .19625)" d="m57.818 9.8288s0.05354 3.0782-2.6636 4.5408c-2.2449 1.2084 0.9386 2.689-5.8599 5.0989 8.8505-2.5748 8.5235-9.6396 8.5235-9.6396z" fill="#141414" filter="url(#filter1066-3-6)" opacity=".3"/>
  <path transform="matrix(1.0685 0 0 .99565 -48.218 .86876)" d="m57.818 9.8288s0.05354 3.0782-2.6636 4.5408c-2.2449 1.2084 0.9386 2.689-5.8599 5.0989 8.8505-2.5748 8.5235-9.6396 8.5235-9.6396z" fill="#141414" filter="url(#filter1066-3-6)" opacity=".3"/>
  <path d="m4.8852 8.2572c-0.19872 0.052302-0.38616 0.14826-0.51463 0.27558l-2.5796 2.5569c-0.099605 0.09873-0.17996 0.23337-0.23659 0.3811l1.2467 0.33982 2.466 0.67202c0.33377 0.09105 0.65024 0.31294 0.88754 0.59436 0.06478-0.36232 0.22793-0.71277 0.47145-0.95848l2.7065-2.7297c-0.11335-0.087678-0.23705-0.15556-0.36023-0.18918l-1.7518-0.47769-1.7522-0.47792c-0.1745-0.047608-0.38443-0.039075-0.58314 0.013225zm4.6959 1.3805-0.90612 0.91383-1.7983 1.8143c-0.29903 0.30174-0.47318 0.95848-0.36387 1.3705 6.209e-4 0.0023 0.00189 0.0045 0.00251 0.0068l0.030532 0.11527 0.64099 2.3497 0.31798 1.1653c0.12017-0.05273 0.22965-0.12037 0.31311-0.20308l2.5796-2.5569c0.25693-0.25465 0.39068-0.74527 0.2986-1.095l-0.4621-1.7565-0.46236-1.756c-0.033074-0.12568-0.10144-0.25234-0.19042-0.3681zm-8.1086 2.1756c-0.014087 0.13006-0.00999 0.25816 0.019841 0.37147l0.4621 1.7565 0.46234 1.756c0.092092 0.34985 0.44984 0.71116 0.79883 0.80636l1.7522 0.47761 1.7522 0.47793c0.12571 0.03428 0.26981 0.03839 0.41495 0.01903l-0.30874-1.1736-0.61974-2.3554-0.031195-0.1151c-6.282e-4 -0.0023-6.061e-4 -0.0048-0.00123-0.0071-0.11134-0.41148-0.59057-0.89319-1.0004-1.005l-2.4645-0.67206-1.2366-0.33682z" fill="#c8f178" stroke-width=".2346" style="isolation:isolate"/>
  <path d="m5.1988 9.4482c-0.1472 0.038746-0.28596 0.10992-0.38112 0.20423l-0.95562 0.94701-0.95517 0.94692c-0.066106 0.06553-0.12045 0.15284-0.16137 0.24887l0.055693 0.01532 2.466 0.67202c0.33377 0.09105 0.65025 0.31294 0.88754 0.59436 0.06478-0.36232 0.22793-0.71278 0.47145-0.95848l1.7996-1.815 0.037781-0.03823c-0.075832-0.054212-0.15644-0.096952-0.23717-0.11897l-2.5954-0.70776c-0.12926-0.035268-0.28495-0.028972-0.43214 0.0097713zm3.5107 1.0684-0.034421 0.03484-1.7983 1.8143c-0.29903 0.30174-0.47318 0.95848-0.36388 1.3705 6.209e-4 0.0023 0.00189 0.0045 0.00251 0.0068l0.030355 0.11462 0.63388 2.3231c0.07252-0.03602 0.1393-0.07866 0.19137-0.13026l0.95562-0.94701 0.95517-0.94692c0.19032-0.18862 0.28945-0.55231 0.22127-0.81139l-0.34216-1.3009-0.34251-1.3007c-0.020219-0.07688-0.059249-0.15398-0.10884-0.22699zm-6.0438 1.6216c-0.00365 0.07691 0.00223 0.15185 0.02003 0.21949l0.34216 1.3009 0.34248 1.3008c0.068193 0.25914 0.3335 0.52692 0.59199 0.59741l2.5954 0.70776c0.08013 0.02185 0.17067 0.02609 0.26281 0.01817l-0.61404-2.3342-0.031018-0.11444c-6.276e-4 -0.0023-6.061e-4 -0.0048-0.00123-0.0071-0.11134-0.41148-0.59057-0.89319-1.0004-1.005l-2.4645-0.67206-0.043713-0.01177z" fill="#a5de37" stroke-width=".2346" style="isolation:isolate"/>
  <path d="m13.119 10.239s0.0548 3.1506-2.7263 4.6476c-2.2976 1.2368 0.96067 2.7523-5.9977 5.2188 9.0586-2.6354 8.7958-9.8304 8.7958-9.8304z" fill="url(#linearGradient1040-8)" stroke-width="1.0235"/>
  <path d="m13.119 10.239s-0.19305 3.2014-2.565 4.5128c-2.7287 1.5087 0.99329 2.8571-6.1954 5.2984" fill="none" stroke="#fafafa" stroke-width=".1354"/>
  <path d="m13.361 9.9671 0.44546 3.9646a7.9376 7.9834 0 0 0 5.3e-4 -0.0021l-0.44443-3.9579a7.9376 7.9834 0 0 0-1e-3 -0.00465h-5.3e-4z" color="#000000" fill="#fafafa" stroke-width=".26536"/>
  <path d="m13.361 9.967 0.44545 3.9647a7.9375 7.9834 0 0 0 5.15e-4 -0.0021l-0.44442-3.958a7.9375 7.9834 0 0 0-0.0015-0.00468z" color="#000000" fill="#fafafa" stroke-width=".26534"/>
 </g>
</svg>
