<?xml version="1.0" encoding="UTF-8"?>
<svg width="64" height="64" version="1.1" viewBox="0 0 16.933 16.933" xmlns="http://www.w3.org/2000/svg" xmlns:cc="http://creativecommons.org/ns#" xmlns:dc="http://purl.org/dc/elements/1.1/" xmlns:rdf="http://www.w3.org/1999/02/22-rdf-syntax-ns#">
 <defs>
  <linearGradient id="linearGradient5539" x1="-1.8688" x2="57.794" y1="30.904" y2="-28.259" gradientTransform="matrix(.2646 0 0 .2646 6.0996 9.4164)" gradientUnits="userSpaceOnUse">
   <stop stop-color="#125fc1" offset="0"/>
   <stop stop-color="#1584dd" offset=".31924"/>
   <stop stop-color="#3ab0f9" offset=".66878"/>
   <stop stop-color="#51baf9" offset="1"/>
  </linearGradient>
  <linearGradient id="linearGradient5557" x1="300.65" x2="327.81" y1="70.232" y2="36.997" gradientTransform="matrix(.30356 0 0 .30666 -80.566 -6.9587)" gradientUnits="userSpaceOnUse">
   <stop stop-color="#0e4ba9" offset="0"/>
   <stop stop-color="#0e66c3" offset=".51491"/>
   <stop stop-color="#14a0ff" offset="1"/>
  </linearGradient>
  <filter id="filter4955" x="-.048" y="-.048" width="1.096" height="1.096" color-interpolation-filters="sRGB">
   <feGaussianBlur stdDeviation="0.2"/>
  </filter>
  <radialGradient id="radialGradient5575" cx="-17.344" cy="-13.023" r="5" gradientTransform="matrix(.2646 0 0 .2646 21.709 14.109)" gradientUnits="userSpaceOnUse">
   <stop stop-color="#feffff" offset="0"/>
   <stop stop-color="#b0d7fa" offset="1"/>
  </radialGradient>
  <filter id="filter7609-1" x="-.063962" y="-.0565" width="1.1279" height="1.113" color-interpolation-filters="sRGB">
   <feGaussianBlur stdDeviation="2.1746765"/>
  </filter>
  <linearGradient id="linearGradient1642" x1="372.07" x2="387.12" y1="947" y2="947" gradientTransform="matrix(-.059718 -.033494 -.034479 .058012 68.386 -33.971)" gradientUnits="userSpaceOnUse">
   <stop stop-color="#828398" offset="0"/>
   <stop stop-color="#4f4e50" offset=".050132"/>
   <stop stop-color="#e8e5eb" offset=".14024"/>
   <stop stop-color="#e9d3d9" stop-opacity=".94118" offset=".23171"/>
   <stop stop-color="#c4c2c7" offset=".7622"/>
   <stop stop-color="#f4f1fa" offset=".86999"/>
   <stop stop-color="#b8b8bf" offset=".9341"/>
   <stop stop-color="#c1bfcc" offset="1"/>
  </linearGradient>
  <linearGradient id="linearGradient1644" x1="368.21" x2="394.83" y1="1019" y2="1018.6" gradientTransform="matrix(-.059718 -.033494 -.034479 .058012 68.386 -33.971)" gradientUnits="userSpaceOnUse">
   <stop stop-color="#130804" offset="0"/>
   <stop stop-color="#0f0704" offset=".16971"/>
   <stop stop-color="#323033" offset=".23766"/>
   <stop stop-color="#323033" offset=".71843"/>
   <stop stop-color="#141215" offset=".84822"/>
   <stop stop-color="#00010e" offset="1"/>
  </linearGradient>
  <linearGradient id="linearGradient1646" x1="367.85" x2="372.25" y1="904.78" y2="918" gradientTransform="matrix(-.059718 -.033494 -.034479 .058012 68.386 -33.971)" gradientUnits="userSpaceOnUse">
   <stop stop-color="#2d2d39" offset="0"/>
   <stop stop-color="#acabb0" offset="1"/>
  </linearGradient>
  <linearGradient id="linearGradient1648" x1="389.51" x2="414.06" y1="902.21" y2="908.79" gradientTransform="matrix(-.059718 -.033494 -.034479 .058012 68.386 -33.971)" gradientUnits="userSpaceOnUse">
   <stop stop-color="#59585d" offset="0"/>
   <stop stop-color="#010103" offset=".19258"/>
   <stop stop-color="#5b5b5d" offset=".54332"/>
   <stop stop-color="#171719" offset="1"/>
  </linearGradient>
  <linearGradient id="linearGradient1650" x1="-353.82" x2="-353.82" y1="903.4" y2="883.11" gradientTransform="matrix(.059718 .033494 -.034479 .058012 68.386 -33.971)" gradientUnits="userSpaceOnUse">
   <stop stop-color="#202024" offset="0"/>
   <stop stop-color="#919095" offset=".33685"/>
   <stop stop-color="#4e4d51" offset=".53882"/>
   <stop stop-color="#cfcfd1" offset=".69465"/>
   <stop stop-color="#69696b" offset="1"/>
  </linearGradient>
  <linearGradient id="linearGradient1652" x1="338.85" x2="338.85" y1="903.66" y2="883.86" gradientTransform="matrix(.068469 0 0 .067486 -41.445 -63.103)" gradientUnits="userSpaceOnUse">
   <stop stop-color="#181820" offset="0"/>
   <stop stop-color="#86858a" offset=".035115"/>
   <stop stop-color="#7a797e" offset=".14091"/>
   <stop stop-color="#2f2e33" offset=".19626"/>
   <stop stop-color="#414045" offset=".33305"/>
   <stop stop-color="#545358" offset=".43142"/>
   <stop stop-color="#ebeaf0" offset=".56075"/>
   <stop stop-color="#abaaaf" offset=".69159"/>
   <stop stop-color="#d7d6dc" offset=".85981"/>
   <stop stop-color="#66656a" offset="1"/>
  </linearGradient>
  <linearGradient id="linearGradient1654" x1="367.85" x2="415.57" y1="-67.365" y2="-50.845" gradientTransform="matrix(-.059718 -.033494 -.034479 .058012 35.413 21.51)" gradientUnits="userSpaceOnUse">
   <stop stop-color="#c7c6cb" offset="0"/>
   <stop stop-color="#fcfcfd" offset=".54332"/>
   <stop stop-color="#d8d8da" offset="1"/>
  </linearGradient>
  <filter id="filter5913-8" x="-.019943" y="-.13645" width="1.0399" height="1.2729" color-interpolation-filters="sRGB">
   <feGaussianBlur stdDeviation="0.19828681"/>
  </filter>
 </defs>
 <metadata>
  <rdf:RDF>
   <cc:Work rdf:about="">
    <dc:format>image/svg+xml</dc:format>
    <dc:type rdf:resource="http://purl.org/dc/dcmitype/StillImage"/>
    <dc:title/>
   </cc:Work>
  </rdf:RDF>
 </metadata>
 <g transform="translate(-4.9515 -1.3607)">
  <circle cx="13.418" cy="9.8274" r="7.9379" fill="url(#linearGradient5539)" stroke-width=".75752"/>
  <path d="m13.399 2.3579-0.93258 0.53722c-0.11659 0.082672-0.15572 0.24792-0.03913 0.33061l0.27212 0.20662c0.03887 0.041336 0.11646 0.041325 0.15532 0.041325l0.81637-0.20662h0.03913l0.58278-0.33061c0.19432-0.082672 0.19432-0.3306 0-0.37194l-0.7387-0.20662zm3.7316 0.45457-1.4773 0.28929c-0.03887 0-0.03878-1.04e-5 -0.07766 0.041326l-1.7874 1.1163c-0.03887 0-0.07795 0.041326-0.11679 0.041326h-1.2823c-0.03887 0-0.07794-1.38e-5 -0.11679 0.041326l-2.1378 1.5289c-0.11659 0.082685-0.11659 0.24792 0 0.33061l0.38892 0.33061c0.03887 0.041337 0.15559 0.041326 0.19446 0.041326l1.4376-0.74384c0.07773-0.041337 0.15559-0.041337 0.19446 0l0.54425 0.41326c0.07774 0.041337 0.19438 0.04137 0.27212-0.041326l0.19446-0.24794c0.03887-0.082685 0.15525-0.082674 0.233-0.041326l0.81638 0.41326s0.03853-2.06e-5 0.03853 0.041326l0.50511 0.45517c0.03887 0.041337 0.11704 0.041326 0.15592 0.041326l0.50511-0.082652c0.15546-0.041337 0.27186 0.12393 0.233 0.24794l-0.15532 0.49591c-0.03887 0.082685 2.64e-4 0.16528 0.03912 0.20662l1.2432 1.1984c0.03887 0.041337 0.03878 0.082663 0.07766 0.12397l0.11678 0.82711c0 0.12399 0.15552 0.20663 0.27213 0.1653l1.0102-0.41326c0.03887 0 0.07825-0.041302 0.07825-0.082654l0.58278-0.82711c0.07774-0.082684 0.07766-0.12395 0.07766-0.20662l-0.07766-0.53722c-0.03887-0.16534 0.11639-0.2893 0.233-0.24794l0.7387 0.24794c0.07774 0.041337 0.1162 0.082652 0.1162 0.1653l0.31126 1.5296c0.03887 0.16534 0.23318 0.20664 0.34979 0.082654l0.4666-0.61987c-0.31092-2.7696-1.9431-5.1258-4.1975-6.3245zm-0.42805 2.48 0.9717 0.41326c0.0583 0.041326 0.09747 0.092896 0.11205 0.14972 0.01458 0.056839 0.0045 0.11887-0.03438 0.18086l-0.27154 0.41326c-0.03887 0.082685-0.11672 0.082652-0.19444 0.082652l-0.85492-0.12397c-0.11659 0-0.19478-0.12395-0.15591-0.24794l0.19446-0.66119c0.03887-0.12399 0.15525-0.16527 0.233-0.20662zm-4.8193 1.8601-1.5153 0.12397c-0.19432 0-0.38879 0.12393-0.54425 0.28929l-0.9717 1.0744c-0.077742 0.082685-0.11678 0.16526-0.11678 0.28929v1.2403c0 0.12399 0.078201 0.24792 0.15591 0.33061l0.7381 0.53722c0.077741 0.04133 0.15552 0.08265 0.27213 0.08265l1.5159-0.1653c0.15546 0 0.3106 0.08264 0.38833 0.20662l1.0108 1.9015c0.03887 0.08267 0.0774 0.2066 0.03853 0.28928l-0.19386 0.74446c-0.03887 0.12399-2.64e-4 0.24792 0.03853 0.33061l0.89404 1.4463c0.07773 0.12399 0.23286 0.20663 0.38832 0.1653l1.2052-0.20662c0.11659 0 0.23326-0.08263 0.27213-0.20662l1.127-2.0254c0.03887-0.08268 0.03853-0.12395 0.03853-0.20662v-1.1157c0-0.12399 0.03907-0.24792 0.11679-0.33061l0.9717-0.90976c0.19433-0.16533 0.19433-0.45454 0-0.61987l-0.50511-0.41326-1.3214-1.0337c-0.077738-0.082684-0.15591-0.20659-0.15591-0.33061l-0.038531-0.74384c0.038871-0.12399-0.15546-0.28929-0.3498-0.28929h-2.2539c-0.03887 0-0.0782 1.62e-5 -0.15591-0.041326l-0.89345-0.37194c-0.03887-0.041337-0.11704-0.041326-0.15591-0.041326zm6.0246 5.9933c-0.03887 0-0.11679 0.0413-0.11679 0.08265l-0.66044 0.9924c-0.03887 0.04133-0.03913 0.12395-0.03913 0.1653l0.11679 0.61987c0.03887 0.12399 0.19438 0.20664 0.27212 0.12397l0.54366-0.33061c0.03887-0.04134 0.07766-0.08266 0.07766-0.12397l0.31126-1.2816c0.03887-0.12399-0.07787-0.24794-0.19446-0.24794z" fill="url(#linearGradient5557)" stroke-width="1.0909"/>
  <circle transform="matrix(.26162 0 0 .26162 2.1553 -1.3024)" cx="57.712" cy="46.803" r="5" fill="#0d3c94" filter="url(#filter4955)" opacity=".5" stroke-width="3.0033"/>
  <circle cx="17.12" cy="10.663" r="1.3229" fill="url(#radialGradient5575)" stroke-width=".79466"/>
  <path transform="matrix(-.11821 0 0 .11484 19.764 -105.89)" d="m53.506 964.15c-8.5815 5e-3 -14.725 2.8175-22.666 7.4023-2.3169 6.0341-5.0575 7.0237-11.129 7.0098l-5.3105 3.0664c1.584 4.457 2.1764 5.6943 5.9062 10.229l5.3105-3.0664c2.2821-3.8368 5.2839-7.8115 11.715-5.0312l-0.0039-0.01c5.714 0.059 7.1941 5.1096 7.2031 5.1406v6e-3h2e-3c8e-6 0 0.0019 2e-3 2e-3 2e-3 0.0061 2e-3 0.51592 0.17507 0.75977 0.25977l8.9297 15.467-0.0078 0.012c-0.30448 0.5273-0.09534 1.1335 0.10938 1.6289l10.621 21.502 14.141 24.814s0.9937 2.4668 1.5508 3.4316c0.55711 0.9653 2.5658 0.3223 3.8516 0.033l10.818-6.7421s1.2758-1.2156 0.35938-2.8027c-0.91642-1.5873-2.3906-3.0704-2.3906-3.0704l-11.672-17.863-7.4453-10.539-11.174-14.75c-0.1782-0.1782-0.44453-0.28619-0.75781-0.33409l0.03125-0.01-9.7969-14.941 0.05273-0.71875-0.33594-0.50586-0.02539-4e-3c-0.02547-0.033-1.9462-2.5236-2.6484-4.6973-0.70696-2.1881 0.36045-3.9789 4.1621-6.1738 3.8017-2.1949 13.325-1.7583 19.85 0.65625 0.40898 0.16568 0.69373 0.19037 0.85938 0.10547l0.0039 0.0215c0.53296-0.30771 0.36763-0.96926 0.04297-1.6894l0.0098-0.0469-0.03906-0.0234c-0.0024-5e-3 -0.0034-0.0104-0.0059-0.0156l-2e-3 8e-3 -2.2617-1.4258c0.37752 0.11882 0.75506 0.23601 1.1348 0.3711 0.39906 0.17221 0.642 0.20036 0.78516 0.13476l0.0039 0.01c0.0078-5e-3 0.01202-0.0127 0.01953-0.0176 0.02382-0.0136 0.04143-0.0328 0.05859-0.0527 0.45014-0.38741 0.24222-1.3449-0.12305-2.1387l2e-3 -4e-3 -0.0039-2e-3c-0.0023-5e-3 -0.0035-0.0106-0.0059-0.0156l-0.0039 0.01c-2.1271-1.3621-4.8997-2.2578-6.875-2.8008-5.3066-1.2555-9.7107-1.8324-13.611-1.8301zm2.5078 0.52929c0.16996 2e-3 0.35497 0.0157 0.52734 0.0195-0.31102-7e-3 -0.62054-0.0119-0.92383-0.0117 0.13488-9e-5 0.2601-9e-3 0.39648-8e-3zm-1.7617 0.0371c-0.26905 0.01-0.54126 0.0155-0.80469 0.0312 0.26308-0.0157 0.536-0.0213 0.80469-0.0312zm3.7109 0.0391c0.32161 0.0175 0.64621 0.0358 0.97656 0.0605-0.33062-0.0248-0.6547-0.043-0.97656-0.0605zm-6.0039 0.11914c-0.18449 0.0193-0.37462 0.0324-0.55664 0.0547 0.18187-0.0222 0.37231-0.0354 0.55664-0.0547zm8.4902 0.0801c0.34783 0.0361 0.6929 0.0696 1.0508 0.11329-0.35823-0.0438-0.70261-0.0772-1.0508-0.11329zm2.7363 0.34766c0.35214 0.0524 0.6946 0.0969 1.0566 0.15625-0.36271-0.0595-0.70386-0.10379-1.0566-0.15625zm-15.646 0.34961c-0.19406 0.0495-0.3839 0.10904-0.57617 0.16211 0.19226-0.0531 0.38213-0.11259 0.57617-0.16211zm11.885 0.51562c0.07634 2e-3 0.15046 9e-3 0.22656 0.0117-0.45044-0.0148-0.9058-0.0164-1.3633-0.01 0.38051-6e-3 0.7612-0.0112 1.1367-2e-3zm-1.5078 2e-3c0.04331-1e-3 0.08565 1e-3 0.12891 0-0.54932 0.0128-1.1026 0.0399-1.6582 0.0879-1.7 0.14701-3.1086 0.50161-4.2676 1.0059-0.61402 0.26715-1.1389 0.58718-1.6191 0.92969 0.48051-0.34284 1.0046-0.66233 1.6191-0.92969 1.159-0.50426 2.5675-0.85885 4.2676-1.0059 0.51221-0.0443 1.0227-0.0735 1.5293-0.0879zm-12.236 0.0215c-0.21224 0.0683-0.42197 0.14422-0.63281 0.2168 0.21043-0.0724 0.421-0.14861 0.63281-0.2168zm14.357 6e-3c0.4069 0.0184 0.81032 0.0427 1.209 0.0762-0.39843-0.0338-0.80261-0.0575-1.209-0.0762zm1.6035 0.11328c0.39118 0.0377 0.7771 0.0807 1.1582 0.13086-0.38074-0.0503-0.76767-0.0929-1.1582-0.13086zm1.4863 0.17578c0.45009 0.0636 0.89137 0.13326 1.3242 0.21094-0.43161-0.0776-0.87585-0.14736-1.3242-0.21094zm1.3672 0.21875c0.35114 0.0635 0.6833 0.13418 1.0215 0.20508-0.33649-0.0706-0.67244-0.1419-1.0215-0.20508zm-20.582 0.11329c-0.24186 0.0927-0.48349 0.18899-0.72461 0.2871 0.24074-0.0979 0.48313-0.19459 0.72461-0.2871zm22.512 0.30273c0.66171 0.15557 1.2887 0.31221 1.8828 0.48242-0.59033-0.16863-1.2274-0.32832-1.8828-0.48242zm-24.311 0.43945c-0.2348 0.10336-0.46993 0.20617-0.70508 0.31446 0.2347-0.10808 0.47072-0.21129 0.70508-0.31446zm26.789 0.2168c0.60039 0.1818 1.1469 0.35777 1.6543 0.53516-0.50352-0.17512-1.0623-0.35631-1.6543-0.53516zm-28.686 0.66602c-0.18281 0.0899-0.36517 0.17686-0.54883 0.26953 0.18344-0.0926 0.36623-0.17976 0.54883-0.26953zm30.758 0.0137c0.51339 0.18568 0.95358 0.35323 1.3398 0.50976-0.3848-0.15474-0.83703-0.3287-1.3398-0.50976zm-11.291 0.33398c0.3237-8e-3 0.72449 3e-3 1.0898 4e-3 -0.45104-1e-3 -0.91184-5e-3 -1.2988 6e-3 0.0781-2e-3 0.12812-8e-3 0.20898-0.01zm-9.9316 6e-3c-0.13468 0.12365-0.2804 0.24162-0.40234 0.37109 0.12195-0.12954 0.26765-0.24738 0.40234-0.37109zm11.73 0c0.46166 9e-3 0.96688 0.0399 1.4766 0.0684-0.50546-0.0286-1.0182-0.0585-1.4766-0.0684zm-2.4336 0.0234c-0.38238 0.0157-0.76643 0.0318-1.0625 0.0527 0.30734-0.0227 0.65718-0.0356 1.0625-0.0527zm4.8164 0.0976c0.78084 0.0612 1.5892 0.1452 2.4453 0.26563 0.44938 0.0632 0.90554 0.13607 1.3711 0.21875-0.46486-0.0828-0.92234-0.15535-1.3711-0.21875-0.85358-0.12059-1.6664-0.20386-2.4453-0.26563zm8.6719 0.13672c0.48512 0.20024 0.88683 0.37515 1.1016 0.47461l-0.0039 8e-3c-0.1566-0.0749-0.42663-0.20635-1.0977-0.48243zm-33.572 0.0254c-0.93009 0.48324-1.8715 0.99216-2.8438 1.541 0.97178-0.5486 1.9141-1.058 2.8438-1.541zm17.236 0.12305c-0.21084 0.0943-0.45506 0.20638-0.66992 0.33008 0.24239-0.13954 0.44468-0.23125 0.66992-0.33008zm11.535 0.20899c0.4597 0.0823 0.92421 0.17585 1.3965 0.27929-0.47184-0.1035-0.93718-0.19682-1.3965-0.27929zm1.4277 0.28515c0.47727 0.10497 0.95837 0.22288 1.4453 0.35156-0.48602-0.1285-0.96892-0.24662-1.4453-0.35156zm-13.975 0.0762c-0.028 0.0244-0.05751 0.0488-0.07813 0.0723 0.02069-0.0237 0.04994-0.0477 0.07813-0.0723zm-0.11523 0.12305c-0.0213 0.0335-0.02951 0.0638-0.0293 0.0937 4.8e-5 -0.0298 0.0081-0.0605 0.0293-0.0937zm5.7695 4e-3c0.03411 4.4e-4 0.06934 3e-3 0.10352 4e-3 -0.36115-7e-3 -0.71512-5e-5 -1.0664 0.0117 0.31797-0.0108 0.63703-0.0199 0.96289-0.0156zm0.16602 6e-3c0.40942 8e-3 0.82363 0.0258 1.2402 0.0547-0.41697-0.0292-0.83089-0.0461-1.2402-0.0547zm-1.3945 0.0137c0.01151-5.6e-4 0.02363 5.3e-4 0.03516 0-0.41421 0.019-0.82099 0.0508-1.2148 0.0996 0.3836-0.0476 0.77736-0.0801 1.1797-0.0996zm2.8086 0.0566c0.36097 0.0273 0.72165 0.0613 1.084 0.10156-0.3624-0.0405-0.72323-0.074-1.084-0.10156zm-7.377 0.0547c0.01656 0.0398 0.05106 0.0766 0.125 0.10546 0.06996 0.0273 0.18308 0.0459 0.31445 0.0606-0.13115-0.0147-0.24456-0.0332-0.31445-0.0606-0.07488-0.0293-0.10888-0.065-0.125-0.10546zm15.596 0.0254c0.48164 0.12778 0.96511 0.26682 1.4531 0.41992-0.48739-0.15288-0.97208-0.29223-1.4531-0.41992zm-6.4375 0.12109c0.67412 0.0889 1.3407 0.18255 1.9961 0.30273-0.65301-0.1197-1.3256-0.21396-1.9961-0.30273zm-7.4883 8e-3c-0.10725 7e-3 -0.21744 0.0153-0.3125 0.0195 0.09454-4e-3 0.20594-0.0126 0.3125-0.0195zm9.9277 0.38477c0.7132 0.13828 1.4028 0.2828 2.0605 0.43945-0.65504-0.15551-1.3525-0.30224-2.0605-0.43945zm2.3984 0.52344c0.65444 0.16053 1.2691 0.31755 1.832 0.47656-0.56075-0.15747-1.1846-0.31824-1.832-0.47656zm2.2598 0.60156c0.46726 0.13637 0.89594 0.26387 1.2656 0.38281-0.36979-0.11792-0.80541-0.24923-1.2656-0.38281zm1.9551 0.61328c0.12524 0.0431 0.25954 0.0863 0.36133 0.12305-0.10264-0.0367-0.23713-0.0806-0.36133-0.12305zm0.89648 0.32812c0.0067 3e-3 0.03336 0.0129 0.03906 0.0156v2e-3c-0.0088-4e-3 -0.028-0.0126-0.03906-0.0176zm-38.064 6.3789c0.0399 0.0133 0.08712 0.0342 0.12891 0.0488 0.09595 0.0334 0.19541 0.0691 0.30078 0.10937-0.07103-0.023-0.14515-0.0506-0.21484-0.0723-0.06549-0.0233-0.15379-0.0655-0.21484-0.0859zm1.3203 0.48047c0.11936 0.0474 0.24334 0.10548 0.36524 0.1582-0.12152-0.0528-0.24626-0.11078-0.36524-0.1582zm1.2227 0.56836c0.31073 0.16457 0.62655 0.34425 0.94727 0.55469-0.3213-0.21155-0.63602-0.38918-0.94727-0.55469zm1.9082 1.2578c0.05239 0.0422 0.10373 0.0871 0.15625 0.13086-0.05228-0.0436-0.10409-0.0887-0.15625-0.13086zm2.1641 2.1953c0.05915 0.0734 0.1167 0.14481 0.17578 0.22071-0.05911-0.076-0.11661-0.14721-0.17578-0.22071zm1.125 1.5586c0.06433 0.0991 0.12729 0.20422 0.19141 0.30664-0.06404-0.1023-0.12714-0.20769-0.19141-0.30664z" fill-rule="evenodd" filter="url(#filter7609-1)" opacity=".3"/>
  <path d="m14.391 7.0234c0.0094-0.00358 0.10928-0.036326 0.10928-0.036326l0.0067-0.17726-0.76536-0.43016-0.14551 0.01878-0.03968 0.058066 0.0099 0.13106z" fill-rule="evenodd" stroke-width=".067964"/>
  <path d="m14.448 6.952-0.0047-0.11058-0.72025-0.40397-0.09005-0.00357-1.229 1.8208 0.2518 0.055124 0.58598 0.3375 0.11066 0.14812z" fill="url(#linearGradient1642)" stroke-width=".067964"/>
  <g fill-rule="evenodd" stroke-width=".067964">
   <path d="m10.415 14.3 1.6717-2.8498 1.2556-2.4691c0.0242-0.056881 0.04906-0.12662 0.01307-0.18718l-0.10591-0.14348-0.57498-0.33479c-0.14083-0.078992-0.29265-0.083574-0.3559-0.022128l-1.321 1.694-0.88004 1.2102-1.38 2.0514s-0.1743 0.17031-0.28265 0.35261c-0.10834 0.18229 0.042482 0.322 0.042482 0.322l1.2791 0.7742c0.152 0.0332 0.38945 0.10706 0.45531-0.0037 0.06586-0.1108 0.18313-0.39422 0.18313-0.39422z" fill="url(#linearGradient1644)"/>
   <path d="m14.5 6.9877s0.17482-0.58652 0.85481-0.59164l0.26407-0.57474s-0.73224 0.11262-1.1131 0.98828z" fill="url(#linearGradient1646)"/>
   <path d="m14.446 6.7766c0.40658-0.7595 0.87745-0.87798 1.1724-0.95532 0 0-0.73224 0.11262-1.1131 0.98828z" fill="#5b5c60"/>
   <path d="m13.598 6.3995s0.23054-0.28955 0.31413-0.54083c0.08357-0.25128-0.04265-0.45697-0.49206-0.70902-0.44941-0.25205-1.5753-0.20204-2.3466 0.075285-0.11398 0.044856-0.15153 0.00458-0.09611-0.096502 0.0051-0.014668 1.1233-0.4001 1.8791-0.30907 0.7615 0.091679 0.20855-0.11729 0.20855-0.11729s-0.95862-0.133-1.961 0.21343c-0.14019 0.058769-0.12656-0.019563-0.07944-0.13684 0 0 1.0022-0.4814 2.0741-0.39136 1.0718 0.090044 1.1633 0.85835 1.0286 1.2939-0.13467 0.4356-0.37848 0.71059-0.37848 0.71059z" fill="url(#linearGradient1648)"/>
   <path d="m11.061 4.7657-0.04989 0.16653c-0.06694-0.038798-0.04011-0.15928 0.0063-0.25623z"/>
   <path d="m10.994 5.1223-0.02253 0.11725c-0.06556-0.03677-0.04241-0.11723-9.52e-4 -0.20382z"/>
  </g>
  <path d="m16.118 4.9952c0.27391 0.69314 0.59769 0.80688 1.3155 0.80527l-0.69811 1.1746c-0.26979-0.44063-0.62457-0.89723-1.3848-0.57793l0.25988-0.56546z" fill="url(#linearGradient1650)" stroke-width=".067964"/>
  <rect transform="matrix(-.87218 -.48918 -.51091 .85964 0 0)" x="-18.676" y="-3.4706" width=".71981" height="1.3664" fill="url(#linearGradient1652)" stroke-width=".067975"/>
  <g stroke-width=".067964">
   <path d="m16.118 4.9952c-1.3655-0.76588-2.281-1.1013-4.2886-0.63995 2.0278-0.39369 2.7867 0.026716 4.1797 0.82304z" fill="#3b3b3d" fill-rule="evenodd"/>
   <path d="m15.514 4.8983c0.15802 0.086936 0.32218 0.18063 0.4963 0.28018l-0.43757 0.74381 0.04643-0.10115s-0.01132 0.00175-0.03184 0.00647c-2.62e-4 3.89e-5 -1.02e-4 5.11e-5 -3.7e-4 9.24e-5 -0.02051 0.00474-0.05003 0.012398-0.08676 0.024307-5.82e-4 1.82e-4 -7.94e-4 2.542e-4 -0.0014 4.497e-4 -0.0047 0.00153-0.01042 0.00376-0.01536 0.00543-0.01141 0.00386-0.02312 0.00798-0.03566 0.012634-8.73e-4 2.498e-4 -0.0017 5.822e-4 -0.0025 8.468e-4 -0.28778 0.091187-0.66422 0.28054-0.99861 0.90517l0.05409 0.029881-0.02155 0.021603-0.74094-0.43401 7.14e-4 -0.00172 0.01041-5.027e-4s0.24382-0.27504 0.37851-0.71065c0.13467-0.43563 0.04317-1.2039-1.0287-1.2939-0.96879-0.081378-1.8729 0.30081-2.0393 0.37571l-0.04171-0.085786c0.25146-0.15642 0.5791-0.25932 0.81263-0.32168 1.7744-0.34449 2.5772-0.065686 3.6834 0.54289zm-2.3135-0.13496c0.09507 0.053166 0.13259 0.11325-0.34335 0.055947-0.72557-0.087363-1.7746 0.2612-1.8627 0.3024l-0.02305-0.08499 0.26798-0.16409c0.95183-0.29087 1.8263-0.17051 1.8263-0.17051s0.07777 0.029361 0.13481 0.061261zm1.7389 1.4235c-0.03063 0.028358-0.06126 0.058768-0.09158 0.091556 0.03031-0.032754 0.06095-0.063223 0.09158-0.091556zm-0.09164 0.091666c-0.02656 0.028728-0.05289 0.060005-0.07883 0.092353 0.026-0.032394 0.05222-0.063591 0.07883-0.092353zm-0.09115 0.10705c-0.02533 0.032319-0.04997 0.067312-0.07432 0.10334 0.02436-0.036027 0.04899-0.071034 0.07432-0.10334zm-0.08669 0.12073c-0.02753 0.041793-0.05434 0.085975-0.08007 0.1329 0.02577-0.046989 0.05251-0.09107 0.08007-0.1329zm-0.08184 0.13614c-0.02535 0.046435-0.04963 0.095553-0.07275 0.14727 0.02313-0.051728 0.0474-0.10084 0.07275-0.14727zm-3.5712-1.9648c-9.6e-5 2.013e-4 -1.05e-4 4.499e-4 -2.19e-4 6.351e-4l-2.23e-4 -4.234e-4zm-0.04649 0.35978c-0.0013 0.00276-0.0021 0.00532-0.0034 0.00807l-0.0012-0.00534z" fill="url(#linearGradient1654)"/>
   <path d="m18.062 6.1526c-0.18725 0.51185-0.25718 0.65393-0.69811 1.1746z" fill="#5b5a60"/>
  </g>
  <rect transform="matrix(-.062202 -.034888 -.040947 .068895 76.134 -44.874)" x="370.97" y="1049.2" width="23.862" height="3.4876" rx="1.7438" ry="1.7438" fill="#323033" filter="url(#filter5913-8)"/>
  <rect transform="matrix(-.87218 -.48918 -.51091 .85964 0 0)" x="-16.044" y="7.703" width="1.6338" height=".23537" rx=".11939" ry=".11768" fill="#060509" stroke-width=".067975"/>
 </g>
</svg>
