<?xml version="1.0" encoding="UTF-8"?>
<svg width="64" height="64" version="1.1" viewBox="0 0 16.933 16.933" xmlns="http://www.w3.org/2000/svg" xmlns:cc="http://creativecommons.org/ns#" xmlns:dc="http://purl.org/dc/elements/1.1/" xmlns:rdf="http://www.w3.org/1999/02/22-rdf-syntax-ns#" xmlns:xlink="http://www.w3.org/1999/xlink">
 <metadata>
  <rdf:RDF>
   <cc:Work rdf:about="">
    <dc:format>image/svg+xml</dc:format>
    <dc:type rdf:resource="http://purl.org/dc/dcmitype/StillImage"/>
   </cc:Work>
  </rdf:RDF>
 </metadata>
 <defs>
  <style type="text/css"/>
  <linearGradient id="linearGradient4738" x1="33.521" x2="33.521" y1="1.0294" y2="16.012" gradientTransform="matrix(.74998 0 0 .74998 -17.335 2.1168)" gradientUnits="userSpaceOnUse">
   <stop stop-color="#ffff6b" offset="0"/>
   <stop stop-color="#f9d544" offset="1"/>
  </linearGradient>
  <linearGradient id="linearGradient10030" x1="-19.088" x2="-19.604" y1=".39589" y2="2.0084" gradientTransform="matrix(.74905 -.20071 .20071 .74905 20.961 -3.266)" gradientUnits="userSpaceOnUse">
   <stop stop-color="#f4f4f4" offset="0"/>
   <stop stop-color="#e1e1e1" offset=".57806"/>
   <stop stop-color="#d7d6d5" offset=".64305"/>
   <stop stop-color="#858482" offset="1"/>
  </linearGradient>
  <linearGradient id="linearGradient10032" x1="-19.465" x2="-20.109" y1="2.0091" y2="4.417" gradientTransform="matrix(.74905 -.20071 .20071 .74905 20.961 -3.266)" gradientUnits="userSpaceOnUse">
   <stop stop-color="#9b9b9b" offset="0"/>
   <stop stop-color="#d3d3d3" offset=".082539"/>
   <stop stop-color="#f4f4f4" offset=".13206"/>
   <stop stop-color="#ccd0d1" offset=".35783"/>
   <stop stop-color="#53554f" offset=".73031"/>
   <stop stop-color="#8d8d75" offset=".78733"/>
   <stop stop-color="#9f9f69" offset=".91031"/>
   <stop stop-color="#e3e0a4" offset="1"/>
  </linearGradient>
  <linearGradient id="linearGradient10138" x1="-24.723" x2="-19.434" y1="5.3635" y2="14.691" gradientTransform="matrix(.74905 -.20071 .20071 .74905 10.875 -3.4592)" gradientUnits="userSpaceOnUse">
   <stop stop-color="#7e548d" offset="0"/>
   <stop stop-color="#ad5271" offset="1"/>
  </linearGradient>
  <linearGradient id="linearGradient10169" x1="9.9659" x2="9.9659" y1="14.478" y2="2.7465" gradientUnits="userSpaceOnUse">
   <stop stop-color="#ffff6b" offset="0"/>
   <stop stop-color="#f3eedc" offset="1"/>
  </linearGradient>
  <linearGradient id="linearGradient27107" x1="8.1552" x2="8.1552" y1=".84801" y2="16.121" gradientUnits="userSpaceOnUse">
   <stop stop-color="#604f3e" offset="0"/>
   <stop stop-color="#71442d" offset="1"/>
  </linearGradient>
 </defs>
 <g transform="translate(-.0272 .0065001)" fill="#5e4aa6" stroke-width=".26458">
  <circle cx="-330.35" cy="-328.38" r="0"/>
  <circle cx="-312.11" cy="-326.25" r="0"/>
  <circle cx="-306.02" cy="-333.07" r="0"/>
  <circle cx="-308.84" cy="-326.01" r="0"/>
 </g>
 <circle cx="8.4665" cy="8.4665" r="7.9376" fill="url(#linearGradient27107)" stroke="#0d0908" stroke-opacity=".76863" stroke-width=".26459" style="paint-order:stroke markers fill"/>
 <circle cx="8.4665" cy="8.4665" r="5.953" fill="url(#linearGradient4738)" stroke="url(#linearGradient10169)" stroke-width=".26458" style="paint-order:stroke markers fill"/>
 <g transform="translate(1.8289 .28155)">
  <path d="m10.623 4.0629c0.26453-0.5013-0.64394-1.9907-0.64394-1.9907l-6.6668-1.39e-5s-0.99607 1.3348-0.62721 1.97z" fill="url(#linearGradient10032)"/>
  <path d="m5.2495 0.87288c-0.10029 0.35965-0.52153 1.3051-0.52153 1.3051l1.7127-0.00714a0.73539 0.4545 0 0 1-0.53274-0.43682 0.73539 0.4545 0 0 1 0.73577-0.45436 0.73539 0.4545 0 0 1 0.73532 0.45431 0.73539 0.4545 0 0 1-0.52438 0.43507l1.6742-0.00677c-0.12757-0.18092-0.48982-1.2893-0.48982-1.2893z" fill="url(#linearGradient10030)"/>
  <path d="m6.3502 1.3173a0.73539 0.4545 0 0 0-0.44256 0.41687 0.73539 0.4545 0 0 0 0.73541 0.45469 0.73539 0.4545 0 0 0 0.73567-0.45475 0.73539 0.4545 0 0 0-0.73532-0.45431 0.73539 0.4545 0 0 0-0.29322 0.037496zm0.030069 0.042557a0.66044 0.40817 0 0 1 0.26305-0.033976 0.66044 0.40817 0 0 1 0.66037 0.40843 0.66044 0.40817 0 0 1-0.66064 0.40809 0.66044 0.40817 0 0 1-0.66027-0.40803 0.66044 0.40817 0 0 1 0.39748-0.37451z" fill="#f6f6f5" fill-rule="evenodd" style="paint-order:stroke fill markers"/>
  <path d="m6.3802 1.3599a0.66044 0.40817 0 0 0-0.39748 0.37451 0.66044 0.40817 0 0 0 0.58694 0.40529 0.60666 0.37494 0 0 1-0.52396-0.37155 0.60666 0.37494 0 0 1 0.60647-0.37491 0.60666 0.37494 0 0 1 0.60654 0.37472 0.60666 0.37494 0 0 1-0.35914 0.34266 0.66044 0.40817 0 0 0 0.40406-0.37627 0.66044 0.40817 0 0 0-0.66037-0.40843 0.66044 0.40817 0 0 0-0.26305 0.033976zm0.18945 0.77979a0.66044 0.40817 0 0 0 0.039988 0.00215 0.60666 0.37494 0 0 1-0.039988-0.00215z" fill="#3c3a39" fill-rule="evenodd" style="paint-order:stroke fill markers"/>
 </g>
 <g transform="translate(12.108 .21675)">
  <path d="m-1.4017 9.3072-0.75094 0.00538-0.010832-1.5019 0.75094-0.00542c0.82944-0.0059786 1.4971-0.6833 1.4911-1.5128-0.0060204-0.8294-0.6833-1.4971-1.5128-1.4911-0.8295 0.00597-1.4971 0.6833-1.4911 1.5128l0.00538 0.75094-1.502 0.010839-0.00538-0.75094c-0.00602-0.8294-0.6833-1.4971-1.5128-1.4911-0.82944 0.00598-1.4971 0.6833-1.4911 1.5128 0.00602 0.8294 0.6833 1.4971 1.5128 1.4911l0.75094-0.00542 0.010832 1.5019-0.75094 0.00538c-0.82943 0.00592-1.4971 0.6833-1.4911 1.5128 0.00602 0.8294 0.6833 1.4971 1.5128 1.4911 0.82952-6e-3 1.4971-0.6833 1.4911-1.5128l-0.00538-0.75094 1.502-0.01085 0.00538 0.74905c5.4e-6 7.55e-4 -1.096e-4 0.0013-6.17e-5 2e-3 0.00602 0.8294 0.6833 1.4971 1.5128 1.4911 0.82943-6e-3 1.4971-0.6833 1.4911-1.5128-0.00602-0.8294-0.68323-1.4969-1.5126-1.491zm-0.027085-3.7548c0.4147-0.00298 0.75336 0.33082 0.75636 0.74552 0.003097 0.4147-0.33083 0.75336-0.74552 0.75636l-0.75094 0.00542-0.00538-0.75094c-0.00301-0.41469 0.33083-0.75336 0.74552-0.75636zm-5.2512 0.78887c-0.0031-0.4147 0.33083-0.75336 0.74552-0.75636 0.4147-0.00298 0.75336 0.33082 0.75636 0.74552l0.00538 0.75094-0.75093 0.00542c-0.4147 0.0029844-0.75336-0.3309-0.75636-0.74552zm0.78887 5.2512c-0.41469 0.0029-0.75336-0.33083-0.75636-0.74552-0.0031-0.4147 0.33083-0.75336 0.74552-0.75636l0.75094-0.0054 0.00538 0.75094c0.0031 0.4147-0.33083 0.75336-0.74552 0.75636zm1.4856-2.2636-0.010832-1.5019 1.502-0.010839 0.010842 1.5019zm3.02 2.2312c-0.41469 0.0029-0.75336-0.33083-0.75635-0.74553l-0.00538-0.75094 0.75086-0.0054c0.41469-0.0029 0.75336 0.33083 0.75636 0.74552 0.003097 0.4147-0.33071 0.75336-0.74544 0.75636z" fill="url(#linearGradient10138)" image-rendering="optimizeSpeed" stroke-width=".065755"/>
  <path d="m-6.3146 4.884c-0.64663 0.17135-1.1211 0.76291-1.1161 1.4627 0.00119 0.1643 0.029123 0.322 0.078959 0.46963-0.018341-0.092018-0.028573-0.18692-0.029278-0.28422-0.00601-0.82943 0.66159-1.5067 1.491-1.5125 0.66489-0.00481 1.2315 0.42335 1.4334 1.0207-0.13833-0.692-0.75126-1.2113-1.4831-1.206-0.12959 9.323e-4 -0.25521 0.018122-0.37495 0.049855zm4.5058-0.032403c-0.64665 0.17136-1.1211 0.76291-1.1161 1.4627l0.00534 0.75072-1.4539 0.010378 0.00129 0.18593 1.5022-0.010871-0.00534-0.75072c-0.00601-0.82943 0.66139-1.507 1.4909-1.513 0.66475-0.00482 1.2314 0.42356 1.4334 1.0207-0.13833-0.692-0.75126-1.2113-1.4831-1.206-0.12961 9.346e-4 -0.2551 0.01851-0.37485 0.050242zm-3.3758 1.3841c0.00417 0.031029 0.00656 0.062717 0.00675 0.094854l0.00534 0.75072-0.7511 0.00545c-0.31544 0.00227-0.58644-0.19029-0.69963-0.46511 0.049395 0.36945 0.3668 0.65328 0.74931 0.65052l0.7511-0.00545-0.00534-0.75072c-7.117e-4 -0.09921-0.020844-0.19382-0.056431-0.28026zm4.5056-0.033176c0.004243 0.031289 0.006589 0.062842 0.006854 0.095241 0.003097 0.4147-0.33096 0.75356-0.74566 0.75655l-0.7027 0.00492 0.00129 0.18593 0.7511-0.00545c0.4147-0.00299 0.74877-0.34185 0.74566-0.75655-7.205e-4 -0.099397-0.02082-0.19407-0.056534-0.28065zm-4.4868 1.8158 0.0095 1.3159-0.7511 0.00545c-0.82943 0.00592-1.4971 0.68318-1.491 1.5125 0.0012 0.16438 0.029177 0.32232 0.079062 0.47001-0.018344-0.09203-0.028674-0.1873-0.029382-0.2846-0.00601-0.82943 0.66159-1.5067 1.491-1.5125l0.7511-0.00545-0.010768-1.5018zm2.253-0.016234 0.0095 1.3159-1.4535 0.010275 0.00129 0.18593 1.5018-0.010768-0.010768-1.5018zm0.80901 1.3099 0.00129 0.18593 0.75072-0.00534c0.66483-0.0046508 1.2315 0.42348 1.4334 1.0207-0.13832-0.69196-0.75126-1.2111-1.4831-1.206zm-3.0457 0.95922 0.00406 0.56478c0.0031 0.4147-0.33058 0.75344-0.74527 0.75645-0.31544 0.0022-0.58693-0.19057-0.70012-0.46539 0.049305 0.36958 0.36723 0.6535 0.7498 0.6508 0.4147-3e-3 0.74837-0.34175 0.74527-0.75645l-0.00534-0.75072zm2.253-0.01623 0.00403 0.56314c7.5e-6 7.62e-4 -3.2e-6 1e-3 1.81e-5 0.0017 0.0012 0.16454 0.029189 0.3226 0.079166 0.4704-0.018408-0.09227-0.028778-0.18742-0.029485-0.28499-2.59e-5 -6.3e-4 -3.03e-5 -9.05e-4 -1.81e-5 -0.0017l-0.00531-0.74907zm2.2502 0.45376c0.004173 0.03103 0.006557 0.06272 0.00675 0.09486 0.003097 0.4147-0.33093 0.75355-0.74566 0.75655-0.31544 0.0022-0.58655-0.19068-0.69973-0.4655 0.049295 0.36958 0.36685 0.6536 0.74941 0.65091 0.41473-3e-3 0.74877-0.34185 0.74566-0.75655-7.1401e-4 -0.09926-0.020815-0.19379-0.056431-0.28026z" fill="#3d352e" stroke-width=".20517"/>
  <path d="m-6.098 10.082c-0.32332 0.08567-0.5608 0.38172-0.55818 0.73162 6.975e-4 0.09641 0.019856 0.18828 0.053573 0.27273-0.00479-0.03333-0.0076-0.06742-0.00783-0.10203-0.0031-0.4147 0.33107-0.75316 0.74576-0.75615l0.70601-5e-3 -0.00113-0.17145-0.75072 0.0053c-0.064796 4.7e-4 -0.1276 0.0091-0.18748 0.02493zm1.6893-0.03572 0.00545 0.7511c0.00601 0.82943-0.66152 1.5065-1.491 1.5126-0.66785 0.0048-1.2368-0.42712-1.4364-1.0286 0.14078 0.68884 0.7526 1.205 1.4822 1.1997 0.82952-6e-3 1.497-0.68357 1.4909-1.513l-0.00534-0.75072 1.4572-0.01042-0.00113-0.17145zm2.253-0.01623 0.00545 0.7511c6.977e-4 0.09642 0.019866 0.18827 0.053573 0.27273-0.00479-0.03333-0.00759-0.06742-0.00783-0.10203l-0.00534-0.75072 0.75072-0.0053c0.31828-0.0022 0.59154 0.19376 0.70286 0.47255-0.052447-0.36612-0.36863-0.64635-0.74872-0.64367zm2.2274 0.44279c0.019406 0.09445 0.029856 0.1921 0.030572 0.29217 0.006006 0.82943-0.66161 1.5066-1.491 1.5125-0.66768 0.0048-1.2365-0.42698-1.4363-1.0282 0.14107 0.68848 0.75264 1.2041 1.482 1.1989 0.82943-6e-3 1.497-0.68315 1.491-1.5125-0.001173-0.16175-0.027939-0.31724-0.07631-0.46287z" fill="#eddf70" stroke-width=".20517"/>
 </g>
</svg>
