<?xml version="1.0" encoding="UTF-8"?>
<svg width="64" height="64" version="1.1" viewBox="0 0 16.933 16.933" xmlns="http://www.w3.org/2000/svg" xmlns:cc="http://creativecommons.org/ns#" xmlns:dc="http://purl.org/dc/elements/1.1/" xmlns:rdf="http://www.w3.org/1999/02/22-rdf-syntax-ns#" xmlns:xlink="http://www.w3.org/1999/xlink">
 <defs>
  <linearGradient id="a-3-4" x1="99.036" x2="99.036" y1="-.50472" y2="199.84" gradientTransform="matrix(.079377 0 0 .079377 .52941 .52901)" gradientUnits="userSpaceOnUse">
   <stop stop-color="#00a8f1" offset="0"/>
   <stop stop-color="#0093ed" offset="1"/>
  </linearGradient>
 </defs>
 <metadata>
  <rdf:RDF>
   <cc:Work rdf:about="">
    <dc:format>image/svg+xml</dc:format>
    <dc:type rdf:resource="http://purl.org/dc/dcmitype/StillImage"/>
    <dc:title/>
   </cc:Work>
  </rdf:RDF>
 </metadata>
 <circle cx="8.4667" cy="8.4667" r="7.9377" color="#000000" fill="url(#a-3-4)" stroke-width=".2646"/>
 <path transform="scale(.26458)" d="m32.002 9.8066c-2.5027 0-4.8675 0.59859-6.9648 1.6523-3.031 1.5232-5.4992 4.0059-7.002 7.0488-1.0235 2.073-1.6016 4.4033-1.6016 6.8672 0 1.5072 0.21577 2.9797 0.62695 4.3867l0.36719-0.091797c-0.38662-1.3187-0.59627-2.6973-0.61328-4.1074h2.8066c0.01731 1.1759 0.19872 2.325 0.53125 3.4219 0.011309 0.037302 0.029355 0.072195 0.041015 0.10938h-0.47266l-0.03125-0.080078-0.1582-0.03125-0.015625-0.17578-0.23438 0.015625-0.048828 0.095703-0.25 0.015625c0.015685 0.15946-0.25205 0.39955-0.2832 0.33594-0.031824-0.063836-0.20366-0.23992-0.125-0.27148 0.078591-0.032126 0.2832-0.064453 0.2832-0.064453v-0.11133l-0.58203-0.015625-0.0625 0.095703-0.23633 0.015625v0.25586l-0.10937 0.03125c-0.07866 0.047622 0.015624 0.22266 0.015624 0.22266 0.1099 0.11139-0.015624 0.28711-0.015624 0.28711-0.094349 0.095701 0.078125 0.27148 0.078124 0.27148 0.12581 0.031748-0.078125 0.12695-0.078124 0.12695 0.031143 0.15931 0.125 0.20703 0.125 0.20703-0.094353 0.15931 0.064453 0.24024 0.064453 0.24024l0.013671 0.26953 0.11133 0.064453v0.17578l0.0625 0.11133h0.25195l-0.017578-0.39844c-0.21994-0.25505 0.18909-0.31809 0.20508-0.22266 0.015836 0.095698 0.18945 0.14258 0.18945 0.14258 0.031446 0.23913 0.2967 0.38332 0.375 0.14453 0.078595-0.23936 0.14232-0.095946 0.18945 0.015625 0.047142 0.11169 0.3457 0.38281 0.3457 0.38281h0.23438l0.033203 0.22266c0.26686-0.015874 0.34518 0.016682 0.45508 0.38281 0.11019 0.3664 0.4082 0.46094 0.4082 0.46094l0.21875-0.015625c0-0.19091 0.2207 0.033129 0.2207 0.12891 0 0.095248 0.42383 0.46094 0.42383 0.46094l0.42383 0.095703 0.13086 0.10547c0.24902 0.31125 0.50214 0.62055 0.7832 0.91016l-1.9844 1.9844c-1.7566-1.7998-3.0114-3.9608-3.7012-6.3125h-0.001954l-0.36719 0.09375c0.72349 2.4759 2.0588 4.7445 3.9336 6.6191 1.2696 1.2699 2.7218 2.2917 4.2949 3.0449v0.001954c2.0696 0.99064 4.3503 1.5137 6.7129 1.5137 2.4781 0 4.8669-0.57878 7.0156-1.666 1.4565-0.73698 2.8043-1.7044 3.9922-2.8926 1.249-1.2487 2.2564-2.6752 3.0059-4.2188v-0.003907c1.0148-2.0902 1.5527-4.3973 1.5527-6.7891 0-2.034-0.39044-4.0074-1.1309-5.8379-0.77254-1.9118-1.9277-3.6679-3.4297-5.1699-1.5069-1.5071-3.2703-2.6628-5.1895-3.4355h-0.001953v-0.001954c-1.8238-0.73396-3.7894-1.1211-5.8145-1.1211zm-0.1875 0.38086v2.8066c-1.9016 0.028271-3.6983 0.48944-5.3008 1.2852-1.1561 0.57423-2.2134 1.3225-3.1309 2.2129l-1.9883-1.9902c1.1402-1.113 2.4259-2.0218 3.8125-2.7168 2.0292-1.0168 4.2758-1.5695 6.6074-1.5977zm0.375 0c1.9119 0.023131 3.7659 0.39948 5.4902 1.0938v-0.001953c1.8158 0.73139 3.4871 1.8164 4.9277 3.2227l-1.6719 1.6719c-0.061521 0.016717-0.12881 0.032222-0.17578 0.011719-0.11014-0.047618 0.046875-0.16016 0.046875-0.16016v-0.12695l-0.09375-0.095704s-0.26767 0.032149-0.2832-0.015625c-0.015875-0.047841-0.062501-0.25586-0.0625-0.25586l-0.015626-0.26953-0.10937-0.048828-0.017579-0.095703-0.17188 0.015624v-0.19141l-0.09375-0.03125-0.09375-0.046875-0.017578-0.19141-0.34375-0.015625-0.11133-0.16016-0.125-0.19141-0.39258-0.03125-0.09375-0.095704-0.1582-0.033203-0.10938-0.046875-0.046875 0.080078-0.29883 0.015625-0.015625 0.095703c-0.099214 0.050372-0.34281 0.048716-0.54492 0.048829-0.31266-0.15893-0.62832-0.30998-0.95312-0.44141l-0.13672 0.34766c0.25819 0.10475 0.50741 0.22886 0.75781 0.35156-0.017412 0.045744-0.033284 0.091797-0.064453 0.091797-0.078388 0-0.046876 0.20703-0.046876 0.20703s0.20288-1.35e-4 0.26563 0.015625c0.062588 0.015761 0.064453 0.17578 0.064453 0.17578 0.2357-0.015761 0.32847 0.30311 0.29688 0.38281-0.03137 0.079608 0.095703 0.078125 0.095703 0.078125s-0.001455 0.25669-0.033203 0.32031c-0.030993 0.06384 0.20484 0.1115 0.26758 0.20703 0.06274 0.095694-0.031372 0.41374-0.078125 0.42969-0.047055 0.015988 0.12491 0.062883 0.10938 0.14258-0.015874 0.079839 0.046853 0.001298 0.0625 0.12891 0.015496 0.12738 0.046875 0.39844 0.046875 0.39844l0.2207 0.015625c0.031748-0.20714 0.43577-0.21521 0.50195-0.19141 0.26695 0.095611 0.4707 0.50992 0.4707 0.60547 0 0.095539-0.17188 0.11133-0.17188 0.11133l0.007813 0.10547-0.55274 0.55274c-0.055888-0.034641-0.11231-0.056721-0.14453-0.037109-0.07835 0.047622-0.046875-0.33398-0.046875-0.33398s0.14234-0.096597 0.20508-0.048828c0.062816 0.04769-0.53441-0.79651-0.66016-0.7168-0.12552 0.079691-0.40819-0.079125-0.39258-0.22266 0.015496-0.14331-0.56445-0.62109-0.56445-0.62109s-0.18941-0.12688-0.2207-0.03125c-0.03137 0.095539-0.094223 0.15941 0 0.20703 0.094073 0.047921 0.079655-0.080223 0.18945 0.03125 0.10991 0.11153 0.31296 0.25399 0.23438 0.34961-0.078577 0.095758-0.17188 0.12891-0.17188 0.12891l0.10938 0.12695h0.17383l0.03125 0.27148s0.18717 0.095505 0.23438 0.20703c0.031285 0.073991 0.033687 0.12397 0.023437 0.16992-0.3523-0.26958-0.72094-0.51111-1.1035-0.72656 0.003611-0.027918 0.019999-0.059549 0.013672-0.082031-0.031371-0.11163 0.12669-0.15856 0.20508-0.03125l0.15625-0.015625 0.03125-0.14453-0.21875-0.17383h-0.17383s-0.015088 0.128-0.125 0.080078c-0.10999-0.047921-0.046474-0.03269-0.14063-0.048828-0.087144-0.01471-0.064662 0.16681-0.048828 0.24609-0.24387-0.12575-0.49248-0.24193-0.74609-0.3457-1.0668-0.43654-2.2144-0.67639-3.3984-0.69922v-1.4121c0.088376-0.00273 0.14614-0.028066 0.15625-0.068359 0.015496-0.06384 0.03047-0.079932 0.125-0.095703 0.094148-0.015988-0.015336-0.20537-0.10938-0.18945-0.073251 0.012356-0.13555-0.022701-0.17188-0.072265v-0.70508c1.5072 0.022979 2.9672 0.32398 4.3262 0.875l0.13867-0.34766v-0.001953c-1.4025-0.56811-2.9097-0.87734-4.4648-0.90039v-2.8066zm2.627 0.66602-0.14844 0.095703-0.10156-0.064453-0.048828 0.082031 0.125 0.080078 0.025391 0.015625 0.02539-0.015625 0.17383-0.11328-0.050782-0.080078zm0.71875 0.38672-0.125 0.09961-0.080078-0.082032-0.066406 0.06836 0.10938 0.11133 0.03125 0.03125 0.033203-0.027344 0.15625-0.12695-0.058594-0.074219zm-15.141 0.078125c-1.562 0.60882-3.2379 1.2313-4.252 2.834-0.59302 0.93723-0.67952 2.0468-1.1465 3.0156 0.86508-0.81299 1.8704-1.4139 2.6035-2.3828 0.8814-1.1649 1.6475-2.46 2.7949-3.4668zm23.215 0c1.1474 1.0068 1.9135 2.3019 2.7949 3.4668 0.73309 0.9689 1.7384 1.5698 2.6035 2.3828-0.46693-0.96882-0.55346-2.0784-1.1465-3.0156-1.0141-1.6027-2.6899-2.2252-4.252-2.834zm-9.207 0.19531c-0.066743 0.005952-0.13474 0.034486-0.14258 0.066406-0.015874 0.063689-0.10938 0.078125-0.10938 0.078125l-0.36133 0.033203c-0.03137 0.095694-0.22042 0.15938-0.23633 0.095703-0.034393-0.14008-0.23595 0.17467-0.03125 0.23828 0.2041 0.06407 0.4082 0 0.4082 0l0.046874-0.095703 0.78516 0.015624c0.063193-0.06384 0.095703-0.1582 0.095703-0.1582s0.18731-0.06503 0.26562-0.033203c0.078652 0.032013 0.016114-0.22324-0.0625-0.19141-0.078388 0.031861-0.23438 0.017578-0.23438 0.017578h-0.2832c-0.007748-0.055729-0.073883-0.072358-0.14062-0.066406zm-1.3535 0.32031-0.20312 0.080078-0.2207 0.14453-0.23438 0.03125-0.12695 0.14258 0.50391 0.048828 0.09375 0.16016 0.36133 0.03125 0.23438 0.23828c0.20455 0.06384 0.25247-0.031132 0.12695-0.14258l-0.20508-0.20703v-0.17578l-0.0625-0.064453-0.0625-0.22266-0.20508-0.064454zm-1.2344 1.5352v2.541c-1.414 0.027818-2.7518 0.36869-3.9492 0.95312-0.89376 0.43609-1.7103 1.0073-2.4199 1.6895l-1.8008-1.8008c0.90873-0.8817 1.9346-1.6 3.0391-2.1465 1.5787-0.78155 3.3219-1.2087 5.1309-1.2363zm-15.633 0.074218c-0.7961 0.20387-1.4658 0.71932-2.0625 1.3809-1.2484 1.3841-1.1393 3.4264-0.97266 5.248 0.051452 0.5624 0.022085 1.041-0.041015 1.6172 0.37762-0.77418 0.99643-1.5125 1.7246-2.0625 1.6236-1.2263 3.4012-2.8111 3.4258-4.8965-0.53803 1.5007-2.1724 2.1225-3.2598 3.1484-0.57495 0.54249-1.0162 1.1944-1.2734 1.873l-0.039062-0.03125c0.13523-0.60031 0.38943-1.1457 0.5625-1.7266 0.47332-1.5885 0.38958-3.4877 1.9355-4.5508zm31.641 0c1.546 1.0631 1.4622 2.9623 1.9355 4.5508 0.17306 0.58085 0.42726 1.1262 0.5625 1.7266l-0.039062 0.03125c-0.2572-0.67866-0.69848-1.3306-1.2734-1.873-1.0874-1.0259-2.7217-1.6478-3.2598-3.1484 0.024567 2.0854 1.8022 3.6702 3.4258 4.8965 0.72818 0.55005 1.347 1.2883 1.7246 2.0625-0.063119-0.5762-0.092455-1.0548-0.041016-1.6172 0.16664-1.8217 0.27578-3.864-0.97266-5.248-0.59669-0.66154-1.2664-1.177-2.0625-1.3809zm-8.5234 0.31641c-0.12731-0.00255-0.31363 0.085333-0.29492 0.17969 0.01561 0.079911 0.077607 0.15939 0.20312 0.19141l0.23633 0.078125s0.29416 0.34695 0.2832 0.17578c-0.031445-0.47805-0.25139-0.49423-0.33008-0.58984-0.019598-0.023882-0.05522-0.034306-0.097656-0.035156zm-4.9258 0.19141-0.0625 0.14258 0.085937 0.039062 0.0625-0.14258-0.085937-0.039062zm0.29492 0.16211c-6.5e-5 -0.040536-0.098798 0.11723-0.16797 0.13867 0.077044 0.039545 0.18359 0.10156 0.18359 0.10156 0.12552 0 0.20508 0.094653 0.20508 0.14258 0 0.047769 0.17188 0.03125 0.17188 0.03125l0.015625-0.11133-0.125-0.1582-0.10938-0.080078s-0.17383-0.0166-0.17383-0.064453zm-0.16797 0.13867c-0.066683-0.034227-0.11131-0.051951-0.035156 0.005859 0.009411 0.007188 0.022949-0.002074 0.035156-0.005859zm-0.51562-0.042969-0.009766 0.095704 0.13477 0.013671 0.097656 0.1543 0.080078-0.050781-0.10938-0.17383-0.013672-0.019531-0.023437-0.003907-0.15625-0.015625zm-3.6328 0.39844c-0.08582 0.002919-0.16387 0.020629-0.1582 0.048828 0.01561 0.079457 0.14062 0.17383 0.14062 0.17383s0.23646 0.016533 0.25195 0.064453c0.016062 0.047585 0.172 0.063395 0.1875 0.015625 0.015685-0.047841 0.078631-0.14258-0.0625-0.14258-0.14147 0-0.10904-0.080985-0.15625-0.12891-0.023604-0.023813-0.1173-0.034169-0.20313-0.03125zm12.521 0.1582c1.4032 1.4374 2.4857 3.1065 3.2168 4.918v0.001953c0.69693 1.727 1.0764 3.5851 1.0996 5.5h-2.8066c-0.022677-1.5282-0.32367-3.0112-0.87305-4.3926-0.077089-0.19383-0.17291-0.37865-0.25977-0.56836 0.02306-0.091503 0.063222-0.20143 0.17969-0.16602 0.15689 0.047841 0.046875-0.35156 0.046874-0.35156 0 0-0.22061-0.15845-0.20508-0.23828 0.015874-0.07954-0.21866-0.23889-0.20312-0.30273 0.015496-0.06384-0.20506-0.1921-0.18945-0.25586 0.015496-0.06384-0.10938-0.23828-0.10938-0.23828l-0.23633-0.22461-0.03125-0.14258-0.1875-0.015626-0.37695-0.46289 0.015625-0.12695-0.11133-0.015625v-0.17578l-0.10938-0.064453-0.17188-0.015625-0.3457-0.38281-0.03125-0.17383h-0.17383l0.02539-0.26758 1.8379-1.8379zm-21.744 0.001953 1.9902 1.9902c-0.92521 0.95322-1.6991 2.0539-2.2812 3.2637-0.75509 1.568-1.1892 3.3184-1.2168 5.166h-2.8066c0.027629-2.2927 0.56229-4.5019 1.5469-6.5039 0.70074-1.4252 1.6274-2.7477 2.7676-3.916zm13.211 0v0.14258l0.17188 0.015625-0.046875-0.12695-0.125-0.03125zm0.83008 0.74609c-0.047028-0.00598-0.09375-0.006343-0.09375 0.017578 0 0.047841 0.062603 0.047111 0.09375 0.14258 0.031748 0.095539 0.016656 0.25534 0.1582 0.28711 0.14136 0.032012 0.17151 0.065062 0.1875 0.12891 0.015496 0.06384 0.18945 0.078125 0.18945 0.078125l0.125 0.064453 0.37695 0.31836v-0.12695s-0.015325-0.12695-0.09375-0.12695c-0.078274 0-0.2206-0.09632-0.18945-0.16016 0.031748-0.06384-0.26758-0.12695-0.26758-0.12695s-0.26602-0.25465-0.17188-0.22266c0.094303 0.031824 0.046875-0.11133 0.046875-0.11133s-0.1892 0.031499-0.23633 0.015625c-0.047206-0.015987-0.03125-0.16016-0.03125-0.16016s-0.046722-0.011598-0.09375-0.017578zm-8.6953 0.11328-0.066406 0.068359 0.09375 0.095704 0.066406-0.06836-0.09375-0.095703zm-13.592 0.6582c-0.040399-0.007358-0.064408 0.023491-0.095703 0.039063-1.0778 1.3743-1.7949 2.8811-1.7949 4.7266-1e-6 2.2796 1.311 3.8707 1.4746 6.0117 0.33733-2.234 2.2126-3.8214 3.1836-5.7871 0.37877-0.76681 0.61383-1.6308 0.71875-2.4746-0.14072 0.35948-0.35981 0.69368-0.6582 0.97656-1.2615 1.1958-2.7475 2.3744-3.0332 4.0684-0.040796 0.2419-0.062702 0.49035-0.13281 0.72461-0.055106 0.024129-0.054881-0.037427-0.078125-0.052734l0.15625-2.1016c0.15248-2.047-0.92684-4.3259 0.25976-6.1309zm18.932 0v2.8086c-0.8822 0.026079-1.7191 0.23536-2.4746 0.58984-0.60761 0.2852-1.1635 0.66381-1.6465 1.1191l-1.9863-1.9883c0.69669-0.66925 1.4818-1.2119 2.3281-1.623 1.1657-0.56584 2.4489-0.87945 3.7793-0.90625zm19.307 0c1.1866 1.8049 0.1073 4.0838 0.25976 6.1309l0.15625 2.1016c-0.023055 0.015307-0.02283 0.076863-0.078125 0.052734-0.07011-0.23426-0.092031-0.48271-0.13281-0.72461-0.28566-1.6939-1.7717-2.8726-3.0332-4.0684-0.29839-0.28288-0.51749-0.61708-0.6582-0.97656 0.10492 0.8438 0.33999 1.7078 0.71875 2.4746 0.97098 1.9657 2.8463 3.5531 3.1836 5.7871 0.16354-2.141 1.4746-3.7321 1.4746-6.0117 0-1.8454-0.71904-3.3522-1.7969-4.7266-0.03137-0.015572-0.053347-0.046421-0.09375-0.039063zm-18.932 0.001953c1.1366 0.022829 2.2379 0.25429 3.2617 0.67383 0.28359 0.11622 0.56132 0.24974 0.83203 0.39453 0.45724 0.24467 0.89322 0.52998 1.3066 0.85352 0.015496 0.11153 0.14062 0.16016 0.14062 0.16016l0.060547 0.007812c0.054206 0.04498 0.10685 0.092325 0.16016 0.13867v0.12305c0.11219-0.028597 0.28005 0.10762 0.30469 0.2168l-1.9453 1.9453c-0.55825-0.52623-1.1969-0.93852-1.8867-1.2266-0.70127-0.29301-1.4552-0.45756-2.2344-0.48047v-2.8066zm-8.8105 0.73047 1.8008 1.8008c-0.72572 0.75494-1.3264 1.6304-1.7715 2.5918-0.5341 1.1532-0.8449 2.431-0.87109 3.7773h-2.541c0.026645-1.7555 0.42805-3.4486 1.166-4.9902 0.5545-1.1584 1.2984-2.2325 2.2168-3.1797zm16.031 1.2129c0.22002 0.12778 0.38673 0.41699 0.35938 0.47266-0.03137 0.063689 0.18945 0.046875 0.18945 0.046875 0.031748-0.28706 0.29697-0.19138 0.3125-0.095703 0.015874 0.095694 0.064454 0.30469 0.064454 0.30469l0.078124 0.14258 0.10938 0.11133 0.17383-0.015625 0.046875 0.095703 0.20312 0.03125s0.17392 0.19224 0.18945 0.24023c0.015874 0.04769 0.2498 0.031046 0.3125 0.046875 0.06274 0.015988 0.15829 0.062959 0.17383 0.14258 0.015874 0.07976 0.10938 0.20898 0.10938 0.20898s0.18924 0.047718 0.20508 0.11133c0.015496 0.063621 0.09375 0.20703 0.09375 0.20703l0.15625 0.12695 0.015625 0.14453 0.17383 0.015625 0.046875 0.18945 0.2832-0.015624 0.15625-0.11133c0.048951-0.026731 0.080229-0.055104 0.12109-0.083984 0.058173 0.13245 0.12638 0.26006 0.17969 0.39453 0.5299 1.3355 0.81942 2.7676 0.8418 4.2441h-2.541c-0.008527-0.44544-0.055749-0.88373-0.125-1.3164 0.018485-0.070907 0.029645-0.136 0.003906-0.16211-0.04698-0.047841 0.046875-0.26953 0.046875-0.26953s0.06274-0.12848 0-0.25586c-0.062778-0.12761 0.015256-0.27014 0.0625-0.33398l-0.125-0.064453-0.125-0.015625-0.097656 0.015625c-0.02842-0.10014-0.062075-0.19785-0.09375-0.29688l0.001953-0.005859 0.078125 0.015625v-0.095703l-0.12109-0.033203c-0.020558-0.061431-0.040695-0.12263-0.0625-0.18359l-0.019531-0.3418-0.11133-0.078125 0.03125-0.12891-0.125-0.046875 0.0625-0.20703-0.10938-0.22266h-0.16211c-0.074736-0.15017-0.15935-0.29518-0.24219-0.44141 0.014687-0.012804 0.036975-0.026267 0.076172-0.037109 0.1725-0.047849 0.125-0.015626 0.125-0.015626l-0.015625-0.17578-0.14258-0.095703-0.046875-0.19141s-0.17175 0.031342-0.15625 0.12695c0.003492 0.021396-0.011235 0.037172-0.03125 0.050781-0.10656-0.17119-0.22583-0.33523-0.34375-0.5 0.005053-0.014837 0.005909-0.02918 0.013672-0.042968 0.063042-0.11153 0.03201-0.17714-0.078126-0.20898-0.11017-0.031861-0.10944-0.030538-0.14062-0.1582-0.031371-0.12738-0.1582-0.16016-0.1582-0.16016l-0.046875-0.19141-0.12695 0.080078c-0.061002-0.070567-0.1203-0.14192-0.18359-0.21094l0.058594-0.1875c-0.061702-0.01259-0.090554-0.048433-0.10742-0.085937l0.48242-0.48242zm-10.082 0.37109-0.060547 0.074219 0.095703 0.080078 0.060547-0.074218-0.095703-0.080079zm-0.35938 0.070313 0.015625 0.17383h0.23633c0.094284 0-0.078125-0.11133-0.078125-0.11133s-0.18937 0.017327-0.17383-0.0625zm10.443 0.027344-0.09375 0.011719 0.015625 0.14258 0.09375-0.009766-0.015625-0.14453zm-13.971 0.38086 1.9863 1.9883c-0.41231 0.43741-0.75891 0.93531-1.0332 1.4766-0.070294-0.001272-0.13853 0.009368-0.1582 0.0625-0.046991 0.12738-0.25195 0.095703-0.25195 0.095703l-0.03125 0.064453-0.15625 0.03125-0.03125 0.095703-0.18945 0.03125 0.4707-0.015625c0.12574-0.015912-0.0467 0.27179-0.125 0.25586l-0.21875 0.015625-0.080078 0.080078h-0.20312l-0.09375 0.12695-0.29883-0.015625s-0.17217 0.14364-0.15625 0.19141c0.015685 0.047841-0.032853 0.19141-0.080078 0.19141-0.047139 0-0.14084 0.14364-0.10938 0.19141 0.031596 0.047841-0.09375 0.20703-0.09375 0.20703l-0.03125 0.1582-0.09375 0.033203v0.42969l-0.18945 0.12695v0.19141l-0.087891 0.09375h-1.2734c0.025248-1.2632 0.30905-2.4833 0.82227-3.6016 0.41923-0.91395 0.99136-1.7609 1.707-2.5059zm13.08 0.039063c0.044371 0.046185 0.076947 0.087874 0.15234 0.14258 0.02024 0.014623 0.035711 0.003563 0.054688 0.009765 0.061703 0.067911 0.12028 0.13758 0.17969 0.20703l-0.029297 0.037109c0 0.17785 0.081596 0.13362 0.16406 0.11719 0.027099 0.033161 0.057397 0.06417 0.083984 0.097657 0.008858 0.1042 0.01365 0.24512 0.16992 0.23047 0.24158 0.32484 0.45804 0.66472 0.65234 1.0156-0.017955 0.021847-0.050781 0.052735-0.050781 0.052735l-0.25195 0.033203v0.25391l-0.125 0.048828 0.015625 0.1582 0.17188-0.015626s0.001698 0.19095 0.048828 0.11133c0.047207-0.07976 0.43972 0.015647 0.4082 0.20703-0.012851 0.078561 0.39284 0.28799 0.3457 0.54297 0.034747 0.005443 0.052559 0.02144 0.074219 0.035156 0.075488 0.2185 0.14444 0.43975 0.20312 0.66406l-0.02539 0.048829s0.034564 0.045167 0.050781 0.058593c0.048335 0.19437 0.093426 0.38981 0.12891 0.58789-0.012442 0.17298-0.047098 0.33982-0.13281 0.39062-0.18826 0.11161 0.015625 0.046875 0.015625 0.046875l-0.033203 0.35156c0.047206 0.15938 0.1267 0.079839 0.17383 0 0.023754-0.03973 0.052556-0.063997 0.078125-0.08789 0.023751 0.23853 0.039969 0.47854 0.044922 0.7207h-1.9023c0.009715-0.01328 0.033203-0.042969 0.033203-0.042969l0.078125-0.22461 0.26758-0.078125 0.03125-0.20703-0.14062-0.017578s0.15572-0.28711 0.23438-0.28711 0.59778 7.63e-4 0.64453-0.03125c0.04713-0.031672 0.14062-0.28614 0.14062-0.33398 0-0.047842 0.12704-0.06408 0.17383-0.080079 0.04713-0.01576 0.15605-0.1432 0.1875-0.20703 0.03137-0.064138-0.077658-0.4622-0.14062-0.39844-0.062741 0.06384-0.20508 0.095703-0.20508 0.095703l-0.046876 0.17578-0.078124 0.0625s0.015496 0.048551 0 0.16016c-0.015875 0.11147-0.15625 0.17578-0.15625 0.17578l-0.064454 0.078125s-0.3784 0.020485-0.42383 0c-0.14135-0.063689-0.045357-0.2542 0.048828-0.23828 0.094073 0.015988-0.017578-0.27148-0.017578-0.27148l0.12695-0.015625s0.015218-0.28711 0.0625-0.28711c0.047131 0-0.014931-0.094733-0.078125-0.14258-0.06274-0.047622-0.14204-0.20725-0.20508-0.19141-0.06274 0.015836-0.31445 0-0.31445 0l-0.046875 0.095703-0.17188 0.03125s0.014611 0.12396-0.015625 0.16016c-0.094564 0.11146-0.45561 0.34954-0.29883-0.048828l0.046875-0.095704v-0.14258l-0.2832-0.015625s-0.14062-0.047567-0.14062-0.11133c0-0.063768-0.015625-0.14453-0.015625-0.14453l-0.33008-0.36523-0.39258-0.048829-0.03125-0.080078-0.23633-0.03125c-0.031505-0.015963-0.05949-0.015925-0.089844-0.02539-0.1148-0.18415-0.23855-0.36244-0.37305-0.53516-0.002217-0.007886-0.006305-0.023242-0.007813-0.029296-0.013695-0.055142-0.17392-0.27493-0.26953-0.29688-0.038608-0.043219-0.073361-0.088547-0.11328-0.13086l1.9453-1.9453zm1.5527 0.1875c-0.021629 0.001979-0.033203 0.018936-0.033203 0.050781 0 0.063844 0.078623 0.096022 0.046875 0.17578-0.031144 0.079544 0.031009 0.14258 0.09375 0.14258 0.063042 0 0.11124 0.032441 0.17383 0.064453 0.062778 0.031703 0.10904 0.078659 0.15625 0.14258l0.15625-0.046874s0.015865-0.16105-0.046875-0.11328c-0.062778 0.04777-0.10876-0.11169-0.17188-0.095703-0.062665 0.015991-0.095614-0.062966-0.1582-0.14258-0.063118-0.079846-0.046348-0.094737-0.125-0.14258-0.039307-0.023926-0.070169-0.037136-0.091797-0.035156zm-8.2598 0.16211v2.5469c-0.32231 0.017887-0.62804 0.091089-0.91992 0.19336h-0.041015l-0.015625-0.17578 0.078125-0.046875-0.12695-0.048828-0.09375 0.12891-0.03125 0.14258-0.15625 0.03125v0.080078h-0.10937v0.10742c-0.22848 0.12472-0.44602 0.26689-0.63867 0.43945l-1.8027-1.8027c0.46538-0.43734 0.98975-0.79016 1.5547-1.0527 0.71468-0.33219 1.4951-0.51799 2.3027-0.54297zm0.375 0c0.73173 0.022526 1.4396 0.17898 2.0977 0.45508 0.6428 0.26938 1.2367 0.65301 1.7578 1.1426l-0.10938 0.10938c-0.042164-0.054244-0.2168-0.087755-0.2168-0.14648 0-0.06384-0.15616-0.14242-0.14062-0.046875 0.015496 0.095539-0.11068 0.14303-0.14258 0.11133-0.030992-0.031937-0.125 0.095703-0.125 0.095703 0 0.04769-0.031232 0.11088 0.0625 0.12695 0.094639 0.015761 0.26763-0.062347 0.2832 0.033203 0.005643 0.033964 0.013503 0.059257 0.021484 0.085938l-0.61133 0.61133c-0.090159 0.007364-0.17969 0.003906-0.17969 0.003906-0.04698 0.14354-0.26778-0.01563-0.20508-0.11133 0.062815-0.095611 0.064453-0.16016 0.064453-0.16016l-0.080078-0.015625-0.09375 0.17578c-0.21986 0-0.28342 0.12727-0.23633 0.20703 0.047055 0.079541-0.062229-0.015819-0.09375 0.095704-0.030993 0.11153 0.017025 0.11036 0.11133 0.1582 0.094303 0.047841-0.047078 0.049366 0.015625 0.12891 0.042374 0.053922 0.13565 0.036289 0.16211 0.052734l-0.10938 0.10938c-0.11066 0.039062-0.24219 0.011719-0.24219 0.011719-0.003656 0.033766-0.024812 0.057824-0.052735 0.074219-0.25036-0.20518-0.52348-0.37616-0.81641-0.5 0.04879-0.035057 0.12364-0.039011 0.16211-0.14648 0.063118-0.17538 0.095703-0.46289 0.095703-0.46289s-0.25197-0.015148-0.26758 0.064453c-0.015496 0.079759-0.17383 0.12695-0.17383 0.12695s-0.1253 0.047488-0.078125 0.11133c0.047131 0.06384-0.09375 0.095703-0.09375 0.095703s0.004869 0.047423-0.001953 0.091797c-0.24759-0.072858-0.50054-0.12822-0.76367-0.14258v-2.5469zm8.3516 0.54102-0.1875 0.015625c0.046904 0.063688 0.14062 0.11186 0.14062 0.17578 0 0.06384-0.031913 0.11096 0.0625 0.12695 0.093996 0.015836 0.15816-0.015223 0.18945 0.064453 0.03137 0.079612 0.031121 0.20772 0.015625 0.27148-0.015874 0.063841 0.015249 0.1582 0.09375 0.1582 0.078652 0 0.09375 0.0166 0.09375 0.064453 0 0.04769 0.09375-0.17578 0.09375-0.17578-0.078728-0.063689-0.14062-0.20703-0.14062-0.20703s-0.078125-0.22402-0.078125-0.25586c0-0.031862-0.1092-0.062274-0.15625-0.078125-0.047207-0.015988-0.12695-0.16016-0.12695-0.16016zm-1.4961 0.0625-0.15625 0.015625 0.009766 0.095703 0.15625-0.015625-0.009766-0.095703zm0.097656 0.11328v0.080078h0.095703v-0.080078h-0.095703zm-0.12305 0.16016s-0.092991 0.12619-0.28125 0.0625c0 0-0.032654 0.30335-0.12695 0.36719h-0.21875s0.046771 0.079032 0.09375 0.12695c0.047206 0.047769 0.15678 0.14334 0.046875 0.20703-0.10995 0.063602 0.015625 0.048828 0.015625 0.048828s-0.014896 0.3351-0.15625 0.28711c-0.14105-0.047467-0.18945 0.17459-0.18945 0.23828 0 0.063621 0.55729 0.088021 0.4707 0h0.001953c-0.047093-0.047845 0.0625-0.16016 0.0625-0.16016 0-1e-6 0.37669 0.033203 0.45508 0.033203 0.078615 0 0.14096-0.016095 0.09375-0.095703-0.047055-0.079828-0.1875-0.064454-0.1875-0.064454s-0.18868 0.048664-0.36133-0.046875c-0.1725-0.095557 0.03113-0.12891 0.0625-0.12891 0.031522 0 0.17212-0.11172 0.10938-0.19141-0.06274-0.079684 0-0.22204 0-0.1582 0 0.063677 0.17333 0.094716 0.20508 0.046875 0.031181-0.04769-0.00135-0.19044-0.080078-0.23828-0.078614-0.047921 0.14286-0.080617 0.080078-0.16016-0.062815-0.079842-0.095703-0.17383-0.095703-0.17383zm0.3125 0.47656v0.11133h0.09375v-0.11133h-0.09375zm0.21484 0.05664-0.048828 0.095703 0.085937 0.042969 0.046875-0.095703-0.083984-0.042969zm1.543 0.13672c-0.078199-0.047769 0.01588 0.17521-0.03125 0.20703-0.047131 0.032005-0.077794 0.094809-0.125 0.14258-0.047169 0.047917 0.09375 0.11232 0.09375 0.16016 0 0.047765 0.03125 0.28711 0.03125 0.28711s0.11146 0.047639 0.12695 0.11133c0.015761 0.063836-2.56e-4 0.19104 0.046875 0.20703 0.047017 0.016003 0.14112 0.07889 0.10938 0.14258-0.03137 0.063998-0.03125 0.19141-0.03125 0.19141l0.0625 0.14453 0.125 0.078125s0.04744-0.38253-0.03125-0.39844c-0.078501-0.016066-0.046875-0.23828-0.046875-0.23828s0.078643-0.30273-0.046875-0.30273c-0.12571 0-0.031063-0.15934-0.10938-0.20703-0.07869-0.047849-0.03113-0.27225-0.0625-0.33594-0.031484-0.063772-0.032676-0.14153-0.11133-0.18945zm-3.832 0.29883-0.15625 0.017578 0.007813 0.09375 0.1582-0.015625-0.009766-0.095703zm-2.3809 0.005859c-0.04904-8e-6 -0.097656 0.013672-0.097656 0.013672l-0.25 0.03125-0.015625 0.11133 0.17188 0.015626s0.078125 0.063702 0.078125 0.11133c0 0.047841 0.11105 0.095703 0.17383 0.095703s0.23438-0.12695 0.23438-0.12695 0.078441-0.22296 0.015625-0.20703c-0.063043 0.015837-0.18759 0.11132-0.20312 0.015625-0.007937-0.047807-0.058382-0.060538-0.10742-0.060547zm-7.1855 0.009766 1.5391 1.5391-0.15234-0.00586c-0.06305 0.14331-0.21875-0.017578-0.21875-0.017578-0.031143-0.095543-0.25195 0-0.25195 0 0 0.17553-0.29883-0.078125-0.29883-0.078125l-0.54883-0.39844c-0.314-0.28683-0.78513 0.078666-0.80078 0.1582 0.007681 0.1098-0.079229 0.12222-0.16992 0.10742 0.24553-0.4659 0.53298-0.9118 0.90234-1.3047zm6.1758 0.041016-0.091797 0.021484 0.03125 0.14258 0.091797-0.021484-0.03125-0.14258zm0.51758 0.02539-0.3457 0.015625 0.003907 0.095703 0.3457-0.015624-0.003906-0.095704zm-2.9512 0.03125v0.095704h0.125v-0.095704h-0.125zm0.81055 0.015625-0.013672 0.095703 0.10938 0.015626 0.013672-0.095704-0.10938-0.015625zm0.20117 0.048829-0.011718 0.095703 0.10938 0.015625 0.013672-0.09375-0.11133-0.017578zm-1.2695 0.033203-0.013672 0.09375 0.10938 0.015625 0.013672-0.09375-0.10938-0.015625zm2.584 0.001953-0.046875 0.015625 0.029297 0.091797 0.046874-0.017578-0.029296-0.089844zm3.8027 0.039062-0.046875 0.11328 0.085937 0.037109 0.046876-0.11133-0.085938-0.039063zm-1.168 0.021485s0.1019 0.030277 0.18164 0.054687c0.070738 0.086471 0.1397 0.17387 0.20508 0.26367l-0.19922-0.03125-0.125-0.015625-0.23633-0.015625c-0.23539 0.15938-0.28125 0.34961-0.28125 0.34961-0.11339 0.2153-0.35162-0.028913-0.32031-0.17383l0.41406-0.41406c0.019071 0.00157 0.042646 0.013672 0.0625 0.013672 0.093997 0 0.29883-0.03125 0.29883-0.03125zm-3.7363 0.03125v0.095703h0.125v-0.095703h-0.125zm-1.5879 0.019531-0.023437 0.091797 0.125 0.033203 0.023437-0.09375-0.125-0.03125zm-0.042968 0.13086-0.09375 0.015625 0.015625 0.095703 0.09375-0.015625-0.015625-0.095703zm1.8633 0-0.09375 0.003907 0.003906 0.11328 0.095703-0.003907-0.005859-0.11328zm4.9453 0.041016c-0.06081 3.3e-5 -0.12665 0.009622-0.16602 0.017578-0.078391 0.015916-0.06274 0.078444 0 0.1582l0.1875-0.03125s0.14308-0.063559 0.11133-0.11133c-0.0158-0.023924-0.072003-0.033236-0.13281-0.033203zm-1.0527 0.097656c0.060357 0.082985 0.11811 0.16825 0.17383 0.25391-0.017117 0.041015-0.024436 0.088066-0.013672 0.14258 0.047055 0.23921 0.12557 0.33594-0.03125 0.33594-0.15727 0-0.18945-0.12891-0.18945-0.12891s-0.125-0.048057-0.125 0.015625c0 0.06384-0.047206 0.19218 0 0.25586 0.046942 0.063689-0.06224 0.15917-0.10938 0.11133-0.046753-0.047841-0.17207-0.19045-0.14062-0.23828 0.03137-0.047841-0.2202-0.35067 0.03125-0.39844 0.25134-0.047841-0.016401-0.19096 0.078125-0.22266l0.125-0.064453h0.125l0.076172-0.0625zm-26.203 0.060547c-0.25102 0.52933-0.35356 1.1281-0.48633 1.7051-0.28056 1.4911 0.001001 3.073 0.40625 4.4434 0.50707 1.7148 2.1861 2.9426 3.0371 4.5137l0.11524 0.09375c-0.12394-0.85283-0.18683-1.772 0.054687-2.5859 0.36685-1.303 0.82822-2.5695 1.0703-3.9199 0.18804-1.0489 0.4048-2.2257 0.28125-3.2422-0.1403 0.54763-0.28549 1.0895-0.58594 1.5547-1.143 1.77-2.3161 3.8464-1.5156 6.0918-0.018531 0.024-0.044209 0.055314-0.074219 0.039062-0.32152-0.7419-0.39282-1.5877-0.60156-2.3828-0.55394-2.1098-2.1765-3.8718-1.7012-6.3105zm42.844 0c0.47528 2.4387-1.1473 4.2008-1.7012 6.3105-0.20874 0.79512-0.28003 1.6409-0.60156 2.3828-0.029859 0.016252-0.055662-0.015062-0.074219-0.039062 0.80044-2.2454-0.3726-4.3218-1.5156-6.0918-0.30044-0.46523-0.44564-1.0071-0.58594-1.5547-0.12355 1.0164 0.093219 2.1933 0.28125 3.2422 0.24208 1.3505 0.70346 2.6169 1.0703 3.9199 0.24151 0.81398 0.17862 1.7331 0.054687 2.5859l0.11524-0.09375c0.85106-1.5711 2.53-2.7989 3.0371-4.5137 0.40525-1.3704 0.68681-2.9522 0.40625-4.4434-0.13278-0.57696-0.23532-1.1757-0.48633-1.7051zm-21.455 0.41602 0.029297 0.37891-0.17383-0.060547h-0.10938l-0.046875-0.095703-0.09375-0.015625v0.35156l0.09375 0.078125 0.078125 0.080078 0.1582 0.015626 0.03125 0.19141 0.39062 0.015625 0.048828 0.080078 0.23438 0.015625 0.45508 0.46289-0.03125 0.14258-0.078125 0.048828c0.031748 0.11153-0.20312 0.046875-0.20312 0.046875v0.095703l0.10938 0.015625 0.10938 0.064453 0.1582-0.27148c0.17265-0.11153 0.24968 0.048913 0.26562 0.14453 0.015496 0.095611-0.078125 0.080078-0.078125 0.080078v0.22266l0.09375 0.03125c0.15727 0.19129-0.0625 0.30274-0.0625 0.30274l-0.046875 0.16016c-0.04713 0.14346-0.2207 0.11133-0.2207 0.11133l-0.0625 0.095703-0.1875 0.046875 0.37305 0.048828c0.035528-0.12753 0.12861-0.15946 0.17578-0.095703 0.047207 0.06384 0.046875 0.17578 0.046875 0.17578l0.095703 0.015625-0.017578 0.17383 0.095703 0.033204v0.50976l0.10938 0.12695c0.18849-0.07946 0.18813 0.047715 0.09375 0.11133-0.09411 0.06361-0.03125 0.35156-0.03125 0.35156l-0.078125 0.080078v0.12695l-0.09375 0.064453v0.17383c-0.15712-0.079597-0.34537-0.047925-0.39258 0-0.14106-0.095698-0.43945-0.062359-0.43945 0.017578 0.094073 0.12745-0.11133 0.1582-0.11133 0.1582l-0.10938 0.12695c0.07869 0.15946-0.078125 0.17578-0.078125 0.17578v0.30274l-0.18945 0.17578 0.011719 0.26562c-0.096742 0.009471-0.18987 0.029297-0.28906 0.029297-0.73852 0-1.4288-0.27602-1.9766-0.76172 0.008215-0.005506 0.018103 1.42e-4 0.02539-0.011719 0.078577-0.12737 0.20312-0.14258 0.20312-0.14258l0.046875-0.11133 0.42578 0.015625c0.031371-0.17545 0.23438-0.11292 0.23438-0.033203 0 0.079676 0.1582 0.017578 0.1582 0.017578l0.10938-0.17578h0.17188l0.015625-0.19141 0.080078-0.046875v-0.28711c0.2513-0.079597 0.21875-0.32031 0.21875-0.32031l0.0625-0.078124-0.03125-0.11133c-0.12579-0.047988-0.062989-0.16082 0.015625-0.12891 0.078727 0.031824-0.10938-0.14258-0.10938-0.14258-0.094148 0.079839-0.17188-0.095703-0.17188-0.095703h-0.23633v-0.22266l-0.03125-0.20898-0.23633-0.11133-0.17187 0.16016-0.03125 0.22266v0.14453l-0.1582 0.03125-0.03125 0.42969-0.125 0.048828 0.015625 0.1582-0.17383 0.048828-0.17188 0.046875-0.03125 0.20703-0.125 0.080078-0.064453 0.19141-0.074219 0.43945c-0.22157-0.23374-0.39906-0.49739-0.5332-0.78125 0.02228-0.10068 0.029297-0.20117 0.029297-0.20117-0.14105-0.063689-0.063365-0.28707 0.09375-0.095704 0.15689 0.19092-0.09375-0.38281-0.09375-0.38281l-0.125-0.11133-0.15234-0.013672c-0.024298-0.15452-0.044922-0.30931-0.044922-0.46875 0-0.070177 0.014775-0.13768 0.019532-0.20703 0.040671-0.026339 0.082031-0.011719 0.082031-0.011719l0.095703 0.080078 0.14062 0.11133 0.015625 0.095703-0.09375 0.048829-0.015625 0.12695 0.046875 0.17578h0.125c0.04707-0.25499 0.37659-0.25508 0.4707-0.095703l0.095703-0.22266c-0.21979-0.11153-0.004259-0.28679 0.058594-0.20703 0.06274 0.07976 0.20703-0.20898 0.20703-0.20898s0.10991 0.14443 0-0.046875c-0.10991-0.1913 0.078125-0.28711 0.078125-0.28711-0.03137-0.19115 0.20508-0.16016 0.20508-0.16016l0.015626-0.25391-0.2207-0.015625c-0.04679 0.22315-0.23481 0.032148-0.14062-0.015625 0.094341-0.047921 0.18945-0.14453 0.18945-0.14453v-0.1582l0.09375-0.033204 0.015626-0.1582h0.23437l0.20508-0.095703 0.046875-0.080078 0.2207-0.015625 0.3125-0.28711-0.029297-0.12695c-0.18849 0 0-0.14453 0-0.14453l0.029297-0.23828h-0.17188l-0.029297-0.32812c0.21416-0.050773 0.43297-0.083444 0.6582-0.085937zm9.5645 0.91992-0.015625 0.12891 0.09375 0.011718 0.015625-0.12695-0.09375-0.013671zm-0.060547 0.42969-0.046875 0.095703 0.083985 0.042969 0.046875-0.095703-0.083985-0.042969zm-16.248 0.63477c0.12361 0.007954 0.21094 0.070312 0.21094 0.070312l0.2207-0.015625c0.065116 0.044053 0.090046 0.098024 0.11328 0.15234-0.015712 0.12321-0.022805 0.24969-0.03125 0.375-0.020796 0.037576-0.050781 0.10938-0.050781 0.10938-0.016867 0.025719-0.015805 0.081218-0.021484 0.12695h-0.60938l0.001953-0.013672-0.17188-0.017578c-0.18848-0.11168-0.095703-0.52539-0.095703-0.52539 0.14919-0.22318 0.30998-0.26967 0.43359-0.26172zm5.4062 0.29492-0.03125 0.078126h-0.078125l-0.015625 0.12891h0.095703l0.013672 0.095703-0.0625 0.0625-0.03125 0.080078-0.125 0.033203-0.2832 0.26953-0.015625 0.12695-0.078125 0.11328-0.09375 0.23828-0.33008 0.015625-0.0625 0.28711 0.046875 0.23828 0.28125 0.11133 0.033203-0.1582 0.09375-0.048828 0.015625-0.1582 0.0625-0.11328 0.09375-0.10938 0.03125-0.12891 0.1582-0.095703 0.1875-0.03125 0.078125-0.095703 0.033204-0.19141 0.009765-0.14258 0.068359-0.095703 0.1875-0.080078v-0.30273h-0.09375l-0.015624-0.11133-0.17383-0.015626zm9.8555 0.095704-0.017578 0.09375 0.17383 0.03125 0.015625-0.09375-0.17188-0.03125zm-0.39258 0.13867-0.046875 0.02539-0.11719 0.066406-0.10156-0.064453-0.048828 0.080078 0.125 0.080079 0.023437 0.015624 0.025391-0.013671 0.09375-0.054688 0.011719 0.029297 0.08789-0.035156-0.03125-0.078125-0.021484-0.050781zm-1.2031 0.66211h2.1992c-0.025323 1.2393-0.30202 2.4176-0.77734 3.4883-0.42973 0.96798-1.023 1.8478-1.7461 2.6035-0.029086-0.32305-0.099609-0.67774-0.099609-0.67774l-0.125-0.064453 0.03125-0.38281h-0.17188l-0.2832 0.36719-0.03125 0.09961-0.16016-0.16211 0.082032-0.082031-0.017578-0.19141 0.11133-0.09375v-0.16016l0.09375-0.03125 0.015625-0.35156 0.078125-0.015625v-0.76367l-0.23438-0.22461c-0.015496 0.079823-0.26758 0.080078-0.26758 0.080078s-0.062203 0.11133-0.10938 0.11133c-0.04698 0 0.062695 0.14446 0.03125 0.24023-0.03137 0.095475-0.1582 0.09375-0.1582 0.09375l-0.23437 0.064453-0.064454 0.080079h-0.25l-0.021484-0.14453c0.024352-0.028526 0.048476-0.057045 0.072266-0.085937l0.20117-0.056641 0.15625-0.080078 0.078124-0.1582c0.015497-0.15916 0.20508-0.14453 0.20508-0.14453s0.36134-0.30214 0.37695-0.44531c0.015874-0.14351 0.14162-0.54297 0.36133-0.54297h0.4082c0.15689-0.063912 0.10938-0.26953 0.10938-0.26953l0.20312-0.033203 0.03125 0.11133s0.2832 0.031997 0.31445-0.015625c0.031748-0.047622 0.095176-0.15918 0.17383-0.11133 0.078425 0.047773 0.33008-0.11133 0.33008-0.11133 0.015496-0.11154 0.4082-0.064453 0.4082-0.064453l0.046874-0.14258s-0.26732-0.36719-0.31445-0.36719c-0.047206 0-0.29856-0.22236-0.33008-0.14258-0.25092-0.063685-0.23438-0.41406-0.23438-0.41406l-0.095703-0.22266c0-0.12768-0.23382-0.39919-0.28125-0.36719-0.098502-0.073264-0.1177-0.15063-0.11133-0.21875zm2.5742 0h2.541c-0.026834 1.7452-0.4289 3.3986-1.127 4.8887-0.56952 1.2158-1.3357 2.3222-2.2598 3.2754l-0.070313-0.070312c-0.009391-0.17544-0.021484-0.40234-0.021484-0.40234l-0.078125-0.080078-0.015625-0.39844c0.062778-0.20716-0.29878-0.50938-0.33008-0.44531-0.03137 0.063534-0.23633 0.016053-0.23633 0.080078 0 0.063534-0.1252 0.38245-0.0625 0.49414 0.0022 0.003915-0.001788 0.004162 0 0.007812l-0.97852-0.97852c0.7699-0.80037 1.3794-1.7142 1.8203-2.7012 0.5104-1.1431 0.79338-2.384 0.81836-3.6699zm2.916 0h2.8066c-0.027969 2.2972-0.56837 4.4726-1.5117 6.418-0.71851 1.4817-1.6706 2.8297-2.8086 3.9961l-1.9785-1.9805c0.96992-0.99948 1.752-2.1333 2.3281-3.3594 0.73793-1.5703 1.1376-3.2916 1.1641-5.0742zm-24.385 0.001953h2.541c0.007376 0.3751 0.041371 0.74494 0.091797 1.1113-0.17929 0.021509-0.34961 0.078125-0.34961 0.078125l-0.078125 0.25391c-0.1725 0.032126-0.2832 0.31836-0.2832 0.31836-0.14136 0.047849-0.25027 0.22363-0.20312 0.27148 0.046991 0.047849-0.080078 0.064453-0.080078 0.064453v0.34961l-0.078125 0.11133 0.015625 0.38281c0.094352 0 0.080078 0.17578 0.080078 0.17578-0.15711 0.015874-0.12695 0.22266-0.12695 0.22266l-0.33008 0.11133-0.0625 0.095703-0.4082-0.015625-0.097656 0.099609c-0.033957-0.10149-0.0801-0.19832-0.11133-0.30078-0.32556-1.0671-0.50192-2.1856-0.51953-3.3301zm2.916 0h1.0996l0.011719 0.089844-0.23633 0.25391 0.03125 0.25586-0.14062 0.046875-0.03125 0.11133-0.0625 0.33594 0.15625 0.015625c0.07829-0.032126 0.062752 0.20657 0 0.23828-0.06305 0.032126-0.23504 0.096471-0.14062 0.16016 0.094281 0.063988-0.25195 0.04687-0.25195-0.048828 0-0.095395-0.18941-0.17455-0.23633-0.14258-0.023605 0.015874-0.056481-0.022663-0.082031-0.0625-0.065756-0.41206-0.1086-0.82994-0.11719-1.2539zm1.6445 0h0.041015c0.042096 0.007971 0.083985 0.025391 0.083985 0.025391l0.2207 0.015625 0.021484-0.041016h0.74805l0.0625 0.40625-0.20508 0.17578c-0.17266 0.095694-0.17287 0.31935 0.015625 0.36719 0.12551 0.015874 0.079117 0.31856-0.10938 0.11133-0.2824 0 0.15699 0.25539 0.03125 0.19141 0.28277 0.14355 0.2207-0.12695 0.2207-0.12695l0.14453-0.11719c0.060261 0.31382 0.14158 0.62112 0.24805 0.91992 0.28816 0.80797 0.74191 1.5534 1.3457 2.1934l-1.9844 1.9844c-0.13229-0.13773-0.24664-0.28713-0.36914-0.43164 0.026956-0.091481 0.080078-0.18164 0.080078-0.18164 0.2041-0.1276-0.046875-0.33594-0.046875-0.33594 0.031597-0.19151-0.10938-0.41406-0.10938-0.41406-0.2824-0.19121-0.20508-0.55859-0.20508-0.55859v-0.25391c-0.2354-0.22284 0.095703-0.25586 0.095703-0.25586 0.10975-0.19083-0.080078-0.33398-0.080078-0.33398l-0.015625-0.20703-0.25-0.033203-0.03125-0.74805-0.56641-0.8125c-0.11019-0.032125-0.03125-0.22266-0.03125-0.22266 0.14136-0.079748-0.03125-0.27148-0.03125-0.27148l-0.015625-0.35156 0.33008-0.03125 0.078126-0.12695h0.15625l-0.015626-0.41406c0.034393-0.090895 0.091028-0.11655 0.14258-0.12109zm3.9043 0h0.17969c0.006074 0.11073 0.028327 0.21778 0.044922 0.32617v0.001953l-0.10938 0.03125-0.03125-0.064453-0.046875 0.17578h-0.2832l-0.015625-0.19141 0.17383-0.046875 0.0625-0.095703 0.025391-0.13672zm4.6543 0.2168c-0.026051-0.004227-0.054597 0.016387-0.078125 0.080078v0.20703s0.22044 0.35066 0.29883 0.39844c0.078693 0.047909 0.20456-0.057629 0.125-0.11133-0.2352-0.15938-0.21851-0.36818-0.28125-0.51172-0.013626-0.030873-0.038402-0.058274-0.064454-0.0625zm-8.2129 0.14258 0.015625 0.11133h0.078125c0.12551 0.22322 0.015625 0.76562 0.015625 0.76562s-0.18715 0.015393-0.21875-0.080078c-0.031144-0.095626-0.10963 0.20805-0.046875 0.25586 0.062751 0.047547 0.28126 4.08e-4 0.29688 0.17578 0.015534 0.17515 0.14258-0.11328 0.14258-0.11328v-1.082l-0.2832-0.033203zm7.5508 0.31836-0.28125 0.20703c0.14128 0.016252 0.15589 0.15897 0.17188 0.22266 0.034016 0.13894 0.030745-0.22317 0.09375-0.20703 0.06274 0.015874 0.015625-0.22266 0.015625-0.22266zm-6.2695 0.13477h0.001953c0.13031 0.053846 0.27148 0.26099 0.27148 0.29688 0 0.047773 0.62695 0.015625 0.62695 0.015625 0.17266 0.11154 0.23633 0.39844 0.23633 0.39844 0.17295-0.2233 0.53445-0.016386 0.26758 0.11133 0.25102 0.15939 0.25 0.30273 0.25 0.30273 0.20439-0.063685 0.20508 0.094729 0.20508 0.14258s0.0625-0.23828 0.0625-0.23828c-0.23556-0.17537 0.31314-0.23865 0.15625 0.080078l-0.09375 0.14258 0.15625 0.12695 0.015625 0.36719c0.3456-0.032126 0.25195-0.46289 0.25195-0.46289l0.15625-0.03125c0-0.14355 0.11133-0.064453 0.11133-0.064453-0.089152-0.44026 0.1012-0.55462 0.1875-0.59375 0.12445 0.23009 0.26706 0.45147 0.44531 0.65039l-1.8008 1.7988c-0.55545-0.59117-0.97555-1.2759-1.2461-2.0195-0.11989-0.33022-0.20228-0.67387-0.26172-1.0234zm14.246 0.37109c-0.13084-0.030744-0.33264 0.078818-0.28125 0.14844 0.094299 0.12737 0.25149 0.061873 0.31445 0.078125 0.06274 0.015912 0.12524 0.048405 0.0625-0.14258-0.015685-0.047821-0.05209-0.073736-0.095703-0.083984zm-14.963 0.2207a0.066604 0.067598 0 0 0-0.066406 0.066406 0.066604 0.067598 0 0 0 0.066406 0.068359 0.066604 0.067598 0 0 0 0.066406-0.068359 0.066604 0.067598 0 0 0-0.066406-0.066406zm-0.17188 0.21289-0.23633 0.16016-0.15625-0.095703v0.38281l0.25195 0.33398 0.09375-0.22266 0.03125-0.14453-0.10938-0.046875 0.015625-0.23828 0.09375-0.017578 0.015625-0.11133zm5.8105 0.40039-0.14258 0.015625 0.015625 0.22266 0.095703 0.080079 0.17188 0.046874s0.23646-0.062771 0.25195-0.25391l-0.36133-0.015625-0.03125-0.095703zm1.9434 0.12695c0.17367-0.058679 0.13621 0.31908 0.12891 0.41992-0.090939 0.039016-0.18987 0.061806-0.28516 0.091797v-0.33594l0.15625-0.17578zm-3.2891 0.17774c0.54764 0.49114 1.2288 0.77697 1.959 0.83789l-0.001953 0.011719s-0.058883 0.14416 0.011719 0.16797c0.070639 0.023508 0.046503 0.03636 0.082031 0.072265l-0.035156 0.082032c-0.058092-0.078845-0.093744 0.059797-0.058594 0.095703 0.035607 0.036056-0.082031 0.012622-0.082031 0.060547 0 0.047848-0.035528 0.071892 0 0.095703 0.035229 0.023962-0.011463 0.036738-0.058594 0.072265-0.047206 0.03583 0.19922 0.046875 0.19922 0.046875s-0.047053-0.095703 0.011718-0.095703c0.012428 0 0.017528 0.005638 0.027344 0.00586v0.15039c-0.024295-0.005574-0.041819-0.00353-0.068359-0.011719v0.11133l-0.125 0.015625 0.10938 0.12695 0.083984 0.009765v0.24414l-0.005859 0.033203c0 0.20716-0.51725 0.063285-0.56445 0.015625l-0.015625 0.28711-0.09375 0.015626 0.015625 0.19141-0.015625 0.27148 0.17188-0.03125v0.11133l0.42383 0.015625 0.083984-0.089843v0.28906l-0.003906 0.023438-0.2832 0.03125-0.12695 0.064453-0.046875-0.095703h-0.125l-0.06836 0.095703c-0.37393-0.053589-0.74093-0.12806-1.0938-0.25-0.7769-0.26899-1.4934-0.7005-2.1074-1.2773l1.8008-1.8008zm-14.969 0.15625c0.21124 1.389-0.33897 2.6135-0.4668 3.9336-0.10507 1.085 0.084925 2.1409 0.50586 3.0527 0.12466 0.27005 0.35062 0.51383 0.41406 0.78906-0.40706-0.36655-0.69431-0.83521-0.97461-1.2891-1.3124-2.1249-4.0646-3.5047-4.252-6.0898-0.09388 1.1492 0.005295 2.3673 0.38867 3.3887 0.53232 1.4183 1.5565 2.5095 2.7363 3.4395 1.22 0.96161 2.6757 1.7111 3.7871 2.5566-0.21914-0.55315-0.57412-1.0644-0.71875-1.6484-0.65376-2.6401-0.28872-5.6912-1.4199-8.1328zm34.422 0c-1.1312 2.4416-0.76617 5.4928-1.4199 8.1328-0.14464 0.58402-0.49961 1.0953-0.71875 1.6484 1.1114-0.8455 2.5671-1.595 3.7871-2.5566 1.1798-0.92997 2.204-2.0212 2.7363-3.4395 0.38338-1.0214 0.48255-2.2395 0.38867-3.3887-0.18739 2.5852-2.9396 3.965-4.252 6.0898-0.28029 0.45385-0.56758 0.92252-0.97461 1.2891 0.063458-0.27523 0.28941-0.51901 0.41406-0.78906 0.42093-0.91179 0.61093-1.9677 0.50586-3.0527-0.12782-1.3201-0.67804-2.5446-0.4668-3.9336zm-13.732 0.058593c0.06285-0.013975 0.12122-0.001557 0.097656 0.070313-0.047131 0.14355 0 0.20703 0 0.20703 0.2041-0.19129 0.37694 0.014689 0.36133 0.0625-0.015874 0.047773 0.10915 0.096681 0.1875 0.048828 0.078652-0.047773 0.17402 0.14292 0.14258 0.23828-0.031748 0.095626-0.31447 0.080111-0.33008-0.015624-0.015874-0.095702-0.062644-0.063437-0.09375-0.015626-0.028274 0.042614-0.14035 0.062895-0.2207 0.035157l-0.054688-0.054688c0.00723-0.017252 0.0173-0.034761-0.007812-0.060547-0.021376-0.021633-0.046367-0.021291-0.074219-0.021484l-0.14844-0.14844c0.001448-0.097577 0.027464-0.21914 0.017578-0.25976-0.007748-0.031843 0.060197-0.071962 0.12305-0.085938zm-10.17 0.052735-0.10938 0.015625-0.015625 0.12891 0.125 0.015625v-0.16016zm19.686 0.14844c-0.069695-0.030614-0.18853 0.019514-0.24609 0.058594l0.052734 0.080078c0.059641-0.040403 0.13879-0.059739 0.15625-0.050781-0.0015-5.67e-4 -0.003449-0.00397-0.003906-0.00586l0.091797-0.015624c-0.004913-0.030615-0.022321-0.053859-0.050781-0.066407zm-19.643 0.15039c-0.036775 0-0.066407 0.030829-0.066407 0.068359 0 0.037418 0.029628 0.06836 0.066407 0.06836 0.036774 0 0.066406-0.031207 0.066406-0.06836 0-0.037417-0.02962-0.068359-0.066406-0.068359zm7.832 0.070312c0.001539 0.044292 0.021484 0.09375 0.021484 0.09375l0.078125 0.033204-0.14062 0.11133-0.12695 0.14258-0.15625-0.046875-0.1875-0.015625-0.064453-0.11328-0.10938-0.015624-0.015625 0.22266-0.078125 0.095703-0.18945 0.19336c0.20104 0 0.069083 0.093893-0.027344 0.13867v-0.625c0.20138-0.011047 0.39898-0.040444 0.5918-0.085937 0.008948 0.008561 0.033203 0.029297 0.033203 0.029297h0.14062l0.009766-0.087891c0.074088-0.022079 0.14847-0.043176 0.2207-0.070313zm-7.7227 0.26562a0.066604 0.067598 0 0 0-0.066407 0.06836 0.066604 0.067598 0 0 0 0.066407 0.068359 0.066604 0.067598 0 0 0 0.066406-0.068359 0.066604 0.067598 0 0 0-0.066406-0.06836zm5.9023 0.0625c-0.0646 0.050383-0.11788 0.23911-0.14453 0.29297 0 0 0.03682 0.13124 0.10742 0.11914 0.070299-0.011944 0.11708-0.0465 0.17578-0.058594 0.059078-0.011943 0.082036-0.10765 0.10547-0.20312 0.023698-0.095626-0.023437-0.14453-0.023437-0.14453-1e-6 0-0.058423 0.095626-0.15234 0-0.023594-0.023926-0.046826-0.022654-0.06836-0.00586zm-6.1973 0.11524-0.13281 0.017578v0.11133l0.13281-0.015625v-0.11328zm9.4531 0.001953h0.10938l0.015625 0.078125 0.48047 0.046875 0.021485 0.001953c0.18826 0.11169 0.093801 0.25524 0.03125 0.28711-0.063043 0.031748-0.17188 0.03125-0.17188 0.03125l-0.03125 0.064453-0.4082 0.03125-0.03125 0.16016c-0.2041-0.032126-0.28342 0.19135-0.23633 0.30273 0.047206 0.11139 0 0.20703 0 0.20703l0.17383 0.078125 0.21875-0.0625c0.031748-0.15961 0.17301-0.19171 0.29883-0.28711 0.12545-0.095701 0.32867 0.17506 0.26562 0.30273-0.013299 0.026984-0.005413 0.01696-0.013672 0.03711-0.24037 0.1652-0.49379 0.31441-0.75781 0.44336-0.41422 0.20218-0.85544 0.35168-1.3164 0.45312-0.002482-0.001932-0.015625-0.009766-0.015625-0.009766l-0.17188-0.046874-0.015625-0.24024c-0.03137-0.15954-0.33029-0.15856-0.31445-0.046875 0.015392 0.11086-0.55479 0.047716-0.5625 0.046875v-0.43945l0.1543-0.16406 0.36133-0.080079c0.03137-0.15961 0.1875 0.03125 0.1875 0.03125 0.15712-0.016252 0.18945 0.095703 0.18945 0.095703l0.20312 0.03125c0.1725 0.047925 0.067958 0.065898 0.078125 0.12891 0.015496 0.095471 0.09375 0.0625 0.09375 0.0625l0.033203-0.20703 0.09375 0.015624-0.09375-0.11133-0.17383-0.080078-0.1875-0.080078c-0.12575-0.17522 0.030502-0.14298 0.15625-0.12695h0.20508s0.23438 0.31869 0.23438 0.39844c0 0.079824 0.11133 0.095704 0.11133 0.095704l0.14062-0.015625 0.046876 0.11133h0.14062l0.048829 0.095703h0.28125l0.015625-0.14258-0.26562-0.048828-0.015625-0.1582-0.18945-0.048828c-0.063042-0.27069 0.048411-0.35033 0.12695-0.22266l0.09375 0.015625-0.03125-0.24023 0.10938-0.03125-0.03125-0.33398-0.09375-0.03125v-0.11328l0.39258 0.017578c-0.030992-0.20746 0.015625-0.30273 0.015625-0.30273zm11.363 0.72656-0.083984 0.042969c0.010582 0.021165 0.011782 0.042797 0.013671 0.064453 0.002401 0.027969 0.006747 0.059896 0.033204 0.080078 0.017007 0.012851 0.037101 0.016633 0.0625 0.011719l-0.017578-0.091797c0.007181 0.0011 0.01531 0.008444 0.017578 0.015625l0.001953-0.001953c-0.0013-0.003201-0.003207-0.013547-0.003907-0.021484-0.002101-0.026457-0.004917-0.061966-0.023437-0.09961zm-0.089844 0.17774-0.091797 0.023437c0.023811 0.096907 0.058998 0.1933 0.060547 0.19727l0.087891-0.035156c-6.62e-4 -8.51e-4 -0.033926-0.093777-0.056641-0.18555zm-18.201 0.080078c0.63781 0.60171 1.3806 1.0554 2.1855 1.3438 0.22136 0.079404 0.45175 0.13156 0.68164 0.18555-0.047538 0.037922-0.080098 0.074726-0.070313 0.099609 0.03137 0.079559-0.125 0.1582-0.125 0.1582l-0.14062 0.048828-0.095703 0.14258-0.1875 0.064453-0.03125 0.33398-0.095703 0.064453v0.14258l-0.10938 0.033203v0.078125l-0.15625 0.017578 0.09375 0.23828 0.125 0.064453c0.21979 0.031748 0.12695 0.30273 0.12695 0.30273l0.125 0.015625 0.0625 0.17578 0.125 0.25391c0.047207 0.19151 0.18921 0.1429 0.25195 0.12695 0.062741-0.015874 0.125 0.19141 0.125 0.19141l0.62891 0.015625s-0.031595 0.063838 0.078125 0.095703c0.06341 0.018341 0.30242 0.032088 0.52344 0.035157v0.28516c-1.1615-0.023056-2.2873-0.26376-3.3301-0.70117l-0.18359 0.32812c1.0996 0.46738 2.2863 0.72435 3.5137 0.74805v2.543c-1.6725-0.025701-3.2875-0.39398-4.7695-1.0664v-0.001953c-1.2428-0.56403-2.3933-1.3402-3.4004-2.3164l0.36719-0.36719c0.018711 0.035483 0.035729 0.077941 0.042969 0.13281 0.031294 0.23936 0.14062 0.19141 0.14062 0.19141l0.89453-0.015625 0.31445-0.27148 0.80078-0.015625c0.4082-0.015874 0.15642-0.57422 0.078125-0.57422-0.046894-0.036952-0.049721-0.11473-0.042969-0.19922 0.63848 0.49178 1.3266 0.8999 2.0586 1.2109l0.18555-0.32617c-0.94147-0.39513-1.8122-0.95865-2.5859-1.6621l-0.18359-0.17187 1.9785-1.9785zm10.83 0.011719v0.30273h0.10937v-0.30273h-0.10937zm-3.3926 0.080078-0.12695 0.078125 0.050782 0.082031 0.125-0.080078-0.048829-0.080078zm10.234 0.2168c-0.007181 0.075174 0.009755 0.16848 0.083985 0.18359l0.019531-0.09375h0.001953c-0.007559-0.006803-0.01512-0.044701-0.011719-0.080078l-0.09375-0.009765zm-12.578 0.17188v0.19141-0.19141zm12.527 0.007812c-0.028398 0.002174-0.068 0.031512-0.10156 0.052735-0.094224 0.059867-0.058848 0.29815 0 0.23828 0.058847-0.059528 0.13048 0.001457 0.14258-0.17774 0.005801-0.089784-0.012617-0.11546-0.041016-0.11328zm-9.7617 0.12305 0.37109 0.1875c0.047206 0.063534 0.25 0.048828 0.25 0.048828l0.064453 0.080078s0.1244-0.015733 0.20312 0.080078c0.078388 0.095698 0.48633 0.015625 0.48633 0.015625l0.11133 0.095703 0.17188 0.0625 0.29102 0.009766 0.17969 0.17969c-0.28393 0.13024-0.8584 0.087377-0.89453 0.050781-0.04713-0.047849-0.37695-0.19141-0.37695-0.19141s-0.25169-0.20837-0.29883-0.14453c-0.047131 0.063837-0.26562-0.079325-0.26562-0.03125 0 0.047849-0.20508-0.11133-0.20508-0.11133l-0.31445-0.11133 0.23633-0.048828-0.039062-0.15625c0.009194-0.006235 0.020131-0.009339 0.029296-0.015625zm-2.2656 0.042969-0.10938 0.082031 0.046875 0.046875 0.046875 0.078125 0.10938-0.17383-0.09375-0.033203zm-14.791 0.89648v0.16016h0.125v0.20703h0.095703l-0.017578-0.24024-0.125-0.046875v-0.080078h-0.078125zm22.936 0.076172-0.011719 0.14453 0.1543 0.011719 0.011719-0.13086-0.1543-0.025391zm-0.125 0.33789-0.029297 0.089843c0.007559 0.002903 0.018714 0.008444 0.029297 0.015625l0.019531 0.083985c-0.007181 0.010582-0.015437 0.020162-0.021484 0.027343l0.070312 0.064454c0.050419-0.056089 0.067878-0.11156 0.054688-0.16406-0.020788-0.081184-0.11269-0.11379-0.12305-0.11719zm-2.7461 0.28516 0.69141 0.68945c-0.030948 0.11891-0.14091 0.18815-0.20312 0.14062-0.063194-0.047924 0.077703 0.080464 0.10938 0.14453 0.03137 0.063534 0.12661 0.063534 0.1582 0 0.021421-0.04433 0.025263-0.12002 0.033203-0.1875l0.31641 0.31641c-0.042935 0.083196-0.082146 0.16491-0.064454 0.21875l0.14063 0.0625 0.015624 0.27148c0.11037 0.11192 0.33436 0.10202 0.52734 0.066406l0.070313 0.070313c-0.57951 0.56203-1.2212 1.0601-1.9043 1.4961v-0.15039c0.28267-0.20716 0.29827-0.57361 0.03125-0.60547-0.20247-0.024189-0.11036-0.23962 0.078125-0.27148l0.11133-0.046875v-0.14258l0.36133-0.33594v-0.25391l-0.78516-0.6543c-0.16149-0.059482-0.16599-0.25988-0.10742-0.45312 0.14224-0.12147 0.28403-0.2443 0.41992-0.375zm-19.279 0.03125 0.10938 0.28711 0.0625 0.14453 0.12695 0.17383 0.17188 0.16016 0.0625-0.11133-0.10938-0.23828-0.10938-0.080079-0.080078-0.22461-0.23438-0.11133zm-3.0703 0.23438c0.95408 1.9064 0.54185 4.3642 1.7793 6.1621 0.38699 0.56225 0.92811 1.1009 1.4277 1.5527l-0.023438 0.023437c-0.45223-0.21094-0.85981-0.52491-1.2715-0.86719-2.165-1.8001-5.4208-2.0306-6.7168-4.9648 0.35139 2.1543 2.0607 4.0627 3.9062 5.2715 1.7556 1.15 4.0053 1.0208 5.9551 1.6641-1.8015-1.4533-2.0737-3.6345-2.877-5.5469-0.49917-1.1884-1.3129-2.257-2.1797-3.2949zm31.582 0c-0.86682 1.038-1.6806 2.1065-2.1797 3.2949-0.80324 1.9124-1.0754 4.0936-2.877 5.5469 1.9498-0.64325 4.1995-0.51408 5.9551-1.6641 1.8455-1.2088 3.5549-3.1172 3.9062-5.2715-1.296 2.9343-4.5518 3.1648-6.7168 4.9648-0.41167 0.34227-0.81926 0.65625-1.2715 0.86719l-0.023437-0.023437c0.49959-0.45204 1.0408-0.99048 1.4277-1.5527 1.2374-1.798 0.82521-4.2557 1.7793-6.1621zm-24.67 0.69336c0.14054-0.029193 0.3575 0.14907 0.38086 0.2207 0.01158 0.034988 0.066454 0.076072 0.11524 0.11328l-0.23828 0.23828c-0.14291-0.14738-0.26402-0.30962-0.39844-0.46289h0.035156c0.019575-0.067796 0.058621-0.099644 0.10547-0.10938zm9.2383 0.875c0.12366-0.009982 0.2729 0.014325 0.35938 0.078125 0.1725 0.1273 0.4082 0.048828 0.4082 0.048828l0.16992 0.20703c-0.36386 0.05247-0.73292 0.088016-1.1094 0.095703v-0.36133c0.034054-0.034193 0.09054-0.061794 0.17188-0.06836zm-8.9824 0.22656c1.0315 1.0012 2.2086 1.8012 3.4805 2.3828 1.5383 0.70289 3.217 1.0873 4.9551 1.1133v2.8066c-2.2295-0.026835-4.3813-0.53196-6.3398-1.4648v-0.001953c-1.489-0.70959-2.8667-1.6649-4.0801-2.8496l1.9844-1.9863zm17.244 0.001953 1.9805 1.9805c-1.1046 1.0781-2.3738 1.9858-3.7637 2.6895-2.004 1.0149-4.2605 1.6015-6.6504 1.6309v-2.8066c1.1367-0.016778 2.2417-0.20512 3.3047-0.51758l0.30273 0.091797 0.080078 0.25586 0.125-0.015625 0.09375-0.080078 0.37695-0.015626 0.18945-0.17578 0.20312-0.03125 1.4805-1.2578c0.81568-0.48726 1.5794-1.0703 2.2773-1.748zm-7.1387 0.45312 0.037109 0.082031 0.26562 0.080078 0.18945 0.046875 0.0625 0.27148 0.14063 0.015625 0.048828 0.17578c0.17288 0.12737-0.048828 0.39844-0.048828 0.39844v0.34961l0.12695 0.064453-0.015625 0.12695 0.20312 0.20703 0.23633 0.015625 0.38281 0.41211c-0.93588 0.25244-1.9124 0.4042-2.9238 0.41992v-2.543c0.43836-0.008391 0.86893-0.056023 1.2949-0.12305zm-3.791 0.26953-0.095703 0.080078-0.046875 0.039063 0.050781 0.035156 0.10938 0.080078 0.054687-0.078125-0.060547-0.042969 0.046875-0.041015-0.058594-0.072266zm1.1191 1.1406-0.041016 0.085938 0.097657 0.048828-0.03125 0.033203 0.066406 0.068359 0.078125-0.080078 0.046875-0.046875-0.058594-0.029297-0.1582-0.080078zm-7.9512 0.80859 0.125 0.19141 0.015625 0.14258 0.15625 0.048828 0.064453 0.095703 0.10938-0.064453-0.078125-0.20703-0.20508-0.17578-0.1875-0.03125zm-3.5352 0.17773c1.1778 1.5852 1.5139 3.8885 3.666 4.6992 0.38091 0.14351 0.81672 0.16791 1.1465 0.37695-0.4144 0.063647-0.77602-0.064242-1.1621-0.14648-2.7738-0.59071-6.1625 0.16985-8.2402-2.1953 0.7885 1.5457 2.4122 2.7644 3.9727 3.2793 2.4178 0.79791 4.9366-0.090607 7.209-0.6543 0.32739-0.081222 0.72532-0.056888 1.0293-0.16797-1.265-0.25739-2.4838-0.63965-3.4629-1.5352-1.4066-1.2867-2.6539-2.6562-4.1582-3.6562zm25.352 0c-1.5043 1.0001-2.7516 2.3696-4.1582 3.6562-0.97907 0.8955-2.1979 1.2778-3.4629 1.5352 0.30399 0.11108 0.70191 0.086746 1.0293 0.16797 2.2724 0.56373 4.7912 1.4522 7.209 0.6543 1.5604-0.51493 3.1842-1.7336 3.9727-3.2793-2.0777 2.3652-5.4664 1.6046-8.2402 2.1953-0.38605 0.082242-0.74772 0.21013-1.1621 0.14648 0.32976-0.20905 0.76558-0.23344 1.1465-0.37695 2.1521-0.81076 2.4883-3.114 3.666-4.6992zm-14.961 5.1309c-2.1287 0-4.0304 1.0297-5.8984 1.8047-1.6902 0.70111-3.9307 0.56173-5.4277-0.4707 0.74073 0.92948 1.7309 1.5022 2.7539 1.8906 1.9023 0.7591 4.1221 0.17683 5.7402-0.85742 1.166-0.74526 2.1651-1.8027 3.5527-1.8027 0.25191 0 0.50558 0.03329 0.75977 0.08789-1.9548 0.7796-3.7364 2.144-5.123 3.4688v0.001954c0.25446 0.29072 0.58212 0.56195 0.89258 0.8125 1.5422-1.5938 3.2919-3.3087 5.0352-4.0215 1.7433 0.7128 3.491 2.4277 5.0332 4.0215 0.31046-0.25055 0.64005-0.52178 0.89453-0.8125v-0.001954c-1.3867-1.3247-3.1683-2.6892-5.123-3.4688 0.25419-0.0546 0.50786-0.08789 0.75976-0.08789 1.3876 0 2.3868 1.0575 3.5527 1.8027 1.6181 1.0343 3.838 1.6165 5.7402 0.85742 1.023-0.38839 2.0132-0.96114 2.7539-1.8906-1.4971 1.0324-3.7376 1.1718-5.4277 0.4707-1.868-0.77497-3.7697-1.8047-5.8984-1.8047-0.77521 0-1.54 0.13222-2.2852 0.35742-0.74514-0.22521-1.5099-0.35742-2.2852-0.35742z" fill="#fff" stroke-width=".09446"/>
 <path transform="scale(.26458)" d="m31.562 45.369c-0.095849 0-0.1546 0.046111-0.17773 0.13867-0.042974 0.16524-0.091656 0.47233-0.14453 0.92188-0.15538 0.049662-0.30569 0.11345-0.45117 0.18945l-0.68359-0.53125c-0.042973-0.032882-0.085967-0.048828-0.12891-0.048829-0.072718 0-0.22908 0.11714-0.46875 0.35352-0.23966 0.23637-0.4023 0.41422-0.48828 0.5332-0.029745 0.042973-0.044922 0.082202-0.044922 0.11524 0 0.039685 0.015765 0.079531 0.048829 0.11914 0.22146 0.26778 0.399 0.4951 0.53125 0.68359-0.08264 0.15201-0.14711 0.30501-0.19336 0.45703l-0.92188 0.13867c-0.036321 0.006425-0.067271 0.027905-0.09375 0.064453-0.026457 0.036284-0.041016 0.073672-0.041015 0.11328v1.1016c0 0.043049 0.014562 0.080538 0.041015 0.11523 0.026457 0.034772 0.060546 0.055886 0.10352 0.0625l0.9082 0.13477c0.04625 0.16195 0.11385 0.32502 0.20312 0.49023-0.05946 0.082659-0.1486 0.19918-0.26758 0.34961-0.11898 0.15042-0.20437 0.26065-0.25391 0.33008-0.026456 0.036283-0.039062 0.073634-0.039062 0.11328 0 0.042973 0.012026 0.080248 0.035156 0.11328 0.1289 0.17854 0.39989 0.45723 0.81641 0.83398 0.036284 0.036283 0.078735 0.054687 0.125 0.054687 0.049588 0 0.090011-0.015101 0.12305-0.044922l0.69922-0.53125c0.13561 0.06943 0.28531 0.13064 0.44727 0.18359l0.13867 0.91211c0.003303 0.042973 0.021906 0.079302 0.05664 0.10742 0.034772 0.028347 0.074829 0.042969 0.12109 0.042969h1.1016c0.095966 0 0.15453-0.048064 0.17774-0.14062 0.042898-0.16528 0.091614-0.47233 0.14453-0.92188 0.15538-0.049587 0.30577-0.11149 0.45117-0.1875l0.68359 0.53516c0.046261 0.029859 0.089293 0.044922 0.12891 0.044922 0.072643 0 0.22883-0.11685 0.4668-0.35156 0.23808-0.23467 0.40107-0.41476 0.49023-0.53711 0.029859-0.032882 0.044922-0.070308 0.044922-0.11328s-0.015871-0.083475-0.048828-0.12305c-0.23796-0.29091-0.41548-0.52026-0.53125-0.68555 0.066104-0.1223 0.13054-0.27266 0.19336-0.45117l0.91797-0.13867c0.03961-0.006426 0.071237-0.028246 0.097656-0.064454 0.026457-0.036283 0.041016-0.073671 0.041016-0.11328v-1.1016c6e-5 -0.042973-0.014635-0.080463-0.041016-0.11524-0.026456-0.034771-0.060538-0.055923-0.10352-0.0625l-0.90625-0.13867c-0.049588-0.15866-0.11913-0.321-0.20508-0.48633 0.059452-0.082658 0.1486-0.19918 0.26758-0.34961 0.11898-0.15042 0.20432-0.26065 0.25391-0.33008 0.026457-0.036284 0.039063-0.073634 0.039062-0.11328 0-0.046262-0.011723-0.082881-0.035156-0.10938-0.11898-0.16864-0.38995-0.45033-0.81641-0.84375-0.039572-0.032882-0.082061-0.048829-0.125-0.048829-0.049587 0-0.089392 0.015102-0.11914 0.044922l-0.70312 0.5293c-0.13558-0.06943-0.28534-0.13068-0.44726-0.18359l-0.13867-0.91211c-0.003303-0.042973-0.021907-0.077349-0.056641-0.10547-0.034771-0.027968-0.074753-0.042968-0.12109-0.042968h-1.1016zm0.55078 2.5391c0.35041 0 0.65057 0.12323 0.89844 0.37109 0.24786 0.24794 0.37109 0.54803 0.37109 0.89844 0 0.3504-0.12323 0.64862-0.37109 0.89648-0.24786 0.24794-0.54803 0.37305-0.89844 0.37305-0.35044 0-0.64858-0.12511-0.89648-0.37305-0.24786-0.24786-0.37305-0.54604-0.37305-0.89648 0-0.3504 0.12511-0.65053 0.37305-0.89844 0.24794-0.24786 0.54615-0.37109 0.89648-0.37109zm-7.8203 0.039063c-0.07863 0-0.12752 0.03735-0.14648 0.11328-0.035263 0.13553-0.073798 0.38704-0.11719 0.75586-0.12746 0.040744-0.25177 0.093888-0.37109 0.15625l-0.56055-0.43555c-0.035263-0.027212-0.070224-0.041015-0.10547-0.041015-0.05966 0-0.18815 0.097088-0.38477 0.29102-0.19661 0.19389-0.32983 0.33987-0.40039 0.4375-0.024415 0.03515-0.037109 0.064698-0.037109 0.091797 0 0.032504 0.013905 0.065153 0.041016 0.097656 0.18168 0.21967 0.32705 0.40788 0.43555 0.5625-0.067801 0.12472-0.12221 0.24832-0.16016 0.37305l-0.75586 0.11524c-0.029821 0.005291-0.056416 0.022876-0.078125 0.052734-0.021733 0.029858-0.03125 0.061246-0.03125 0.09375v0.90234c0 0.035149 0.009555 0.067243 0.03125 0.095703 0.021732 0.028346 0.050686 0.045414 0.085937 0.050781l0.74414 0.10938c0.037939 0.13285 0.094721 0.2668 0.16797 0.40234-0.048779 0.067805-0.1231 0.16371-0.2207 0.28711-0.097603 0.1234-0.16639 0.21453-0.20703 0.27148-0.021732 0.029858-0.033203 0.061208-0.033203 0.09375 0 0.035149 0.010324 0.064697 0.029297 0.091797 0.10575 0.14649 0.3302 0.37449 0.67188 0.68359 0.029858 0.029859 0.06362 0.044922 0.10156 0.044922 0.04069 0 0.074448-0.012542 0.10156-0.037109l0.57227-0.43359c0.11124 0.056958 0.23433 0.10696 0.36719 0.15039l0.11328 0.74805c0.0027 0.035149 0.018427 0.064835 0.046875 0.08789 0.02846 0.023055 0.061671 0.033203 0.09961 0.033203h0.90234c0.078732 0 0.12746-0.03735 0.14648-0.11328 0.035187-0.13561 0.075755-0.38704 0.11914-0.75586 0.12746-0.040706 0.24986-0.093888 0.36914-0.15625l0.5625 0.43945c0.037939 0.024189 0.072965 0.037109 0.10547 0.037109 0.059611 0 0.18762-0.096533 0.38281-0.28906 0.19531-0.19249 0.32922-0.3391 0.40234-0.43945 0.024416-0.027213 0.037109-0.056534 0.037109-0.091797 0-0.03515-0.013855-0.07105-0.041015-0.10352-0.19521-0.23864-0.34058-0.42498-0.43555-0.56055 0.054221-0.10035 0.10668-0.22272 0.1582-0.36914l0.75195-0.11524c0.032504-0.005291 0.06036-0.022838 0.082032-0.052734 0.021656-0.029858 0.033203-0.061284 0.033203-0.09375v-0.90234c5e-5 -0.035149-0.011433-0.067205-0.033203-0.095703-0.021771-0.028346-0.050686-0.045377-0.085938-0.050781l-0.74414-0.11328c-0.04069-0.13017-0.09552-0.26286-0.16602-0.39844 0.048778-0.067805 0.12115-0.16371 0.21875-0.28711 0.097602-0.1234 0.16634-0.21453 0.20703-0.27148 0.021732-0.029858 0.033203-0.061208 0.033203-0.09375 0-0.037946-0.010248-0.066196-0.029297-0.08789-0.097602-0.13833-0.32011-0.3687-0.66992-0.69141-0.032466-0.027212-0.06636-0.041015-0.10156-0.041015-0.040691 0-0.073244 0.012542-0.097656 0.037109l-0.57812 0.43359c-0.11124-0.056958-0.23238-0.107-0.36524-0.15039l-0.11523-0.74805c-0.0027-0.035149-0.018427-0.064835-0.046875-0.08789-0.028498-0.023055-0.061565-0.033203-0.09961-0.033203h-0.90234zm14.773 0c-0.078614 0-0.12751 0.03735-0.14648 0.11328-0.03515 0.13553-0.073836 0.38704-0.11719 0.75586-0.12744 0.040744-0.25177 0.093888-0.37109 0.15625l-0.56055-0.43555c-0.03515-0.027212-0.070206-0.041015-0.10547-0.041015-0.059641 0-0.18815 0.097088-0.38477 0.29102-0.19661 0.19389-0.32986 0.33987-0.40039 0.4375-0.024567 0.03515-0.03711 0.066651-0.03711 0.09375 0 0.032504 0.013992 0.065153 0.041016 0.097657 0.18169 0.21967 0.32707 0.40593 0.43555 0.56055-0.067805 0.12472-0.12221 0.25028-0.16016 0.375l-0.75586 0.11328c-0.029858 0.005291-0.056392 0.022876-0.078125 0.052734-0.021543 0.029858-0.03125 0.061246-0.03125 0.09375v0.90234c0 0.035149 0.009707 0.067243 0.03125 0.095703 0.021544 0.028346 0.050675 0.045414 0.085938 0.050781l0.74414 0.10938c0.037947 0.13285 0.094722 0.26876 0.16797 0.4043-0.048794 0.067805-0.12308 0.16176-0.2207 0.28516-0.097591 0.1234-0.16636 0.21453-0.20703 0.27148-0.021544 0.029858-0.033203 0.061208-0.033203 0.09375 0 0.035149 0.010399 0.066651 0.029297 0.09375 0.10575 0.14649 0.3302 0.37449 0.67187 0.68359 0.029859 0.029859 0.063613 0.042969 0.10156 0.042969 0.040706 0 0.074463-0.010589 0.10156-0.035156l0.57226-0.43555c0.11123 0.056958 0.23434 0.10696 0.36719 0.15039l0.11328 0.74805c0.002698 0.035149 0.018226 0.064835 0.046875 0.08789 0.028346 0.023055 0.061663 0.033203 0.099609 0.033203h0.90234c0.078728 0 0.12747-0.03735 0.14648-0.11328 0.03515-0.13561 0.075752-0.38704 0.11914-0.75586 0.12745-0.040706 0.2499-0.091935 0.36914-0.1543l0.5625 0.43945c0.037946 0.024189 0.072964 0.035156 0.10547 0.035156 0.059604 0 0.18763-0.096533 0.38281-0.28906 0.19529-0.19249 0.3292-0.33715 0.40234-0.4375 0.024567-0.027213 0.037109-0.058487 0.037109-0.09375 0-0.03515-0.013916-0.069097-0.041016-0.10156-0.19521-0.23864-0.34059-0.42693-0.43555-0.5625 0.054236-0.10035 0.10669-0.22272 0.1582-0.36914l0.75195-0.11524c0.032504-0.005291 0.060374-0.022838 0.082031-0.052734 0.021543-0.029858 0.033203-0.061284 0.033203-0.09375v-0.90234c4.9e-5 -0.035149-0.011282-0.067205-0.033203-0.095703-0.021921-0.028346-0.050712-0.045377-0.085937-0.050781l-0.74414-0.11328c-0.040706-0.13017-0.095528-0.26286-0.16602-0.39844 0.048794-0.067805 0.12116-0.16371 0.21875-0.28711 0.097588-0.1234 0.16636-0.21453 0.20703-0.27148 0.021544-0.029858 0.033204-0.061208 0.033204-0.09375 0-0.037946-0.0104-0.066196-0.029297-0.08789-0.097588-0.13833-0.32011-0.3687-0.66992-0.69141-0.032504-0.027212-0.066375-0.041015-0.10156-0.041015-0.040705 0-0.07324 0.012542-0.097656 0.037109l-0.57812 0.43359c-0.11123-0.056958-0.23238-0.107-0.36523-0.15039l-0.11524-0.74805c-0.002702-0.035149-0.018226-0.064835-0.046875-0.08789-0.028346-0.023055-0.061549-0.033203-0.099609-0.033203h-0.90234zm-14.322 2.082c0.28747 0 0.53298 0.10135 0.73633 0.30469 0.20335 0.20342 0.30469 0.44885 0.30469 0.73633 0 0.28747-0.10134 0.53295-0.30469 0.73633-0.20335 0.20341-0.44885 0.30469-0.73633 0.30469-0.28748 0-0.53291-0.10131-0.73633-0.30469-0.20335-0.20334-0.30469-0.44885-0.30469-0.73633 0-0.28747 0.10128-0.53291 0.30469-0.73633 0.2034-0.20334 0.44889-0.30469 0.73633-0.30469zm14.773 0c0.28747 0 0.53299 0.10135 0.73633 0.30469 0.20334 0.20342 0.30469 0.44885 0.30469 0.73633 0 0.28747-0.10135 0.53295-0.30469 0.73633-0.20334 0.20341-0.44885 0.30469-0.73633 0.30469-0.28747 0-0.53291-0.10131-0.73633-0.30469-0.20334-0.20334-0.30469-0.44885-0.30469-0.73633 0-0.28747 0.10127-0.53291 0.30469-0.73633 0.20341-0.20334 0.44889-0.30469 0.73633-0.30469z" fill="#fff"/>
</svg>
