<?xml version="1.0" encoding="UTF-8" standalone="no"?>
<svg
   xmlns:dc="http://purl.org/dc/elements/1.1/"
   xmlns:cc="http://creativecommons.org/ns#"
   xmlns:rdf="http://www.w3.org/1999/02/22-rdf-syntax-ns#"
   xmlns:svg="http://www.w3.org/2000/svg"
   xmlns="http://www.w3.org/2000/svg"
   xmlns:xlink="http://www.w3.org/1999/xlink"
   xmlns:sodipodi="http://sodipodi.sourceforge.net/DTD/sodipodi-0.dtd"
   xmlns:inkscape="http://www.inkscape.org/namespaces/inkscape"
   height="64"
   width="64"
   version="1.1"
   id="svg23"
   sodipodi:docname="applets-screenshooter.svg"
   inkscape:version="1.0.1 (3bc2e813f5, 2020-09-07)">
  <metadata
     id="metadata29">
    <rdf:RDF>
      <cc:Work
         rdf:about="">
        <dc:format>image/svg+xml</dc:format>
        <dc:type
           rdf:resource="http://purl.org/dc/dcmitype/StillImage" />
        <dc:title></dc:title>
      </cc:Work>
    </rdf:RDF>
  </metadata>
  <defs
     id="defs27">
    <linearGradient
       id="linearGradient956">
      <stop
         stop-color="#7814aa"
         offset="0"
         id="stop854" />
      <stop
         stop-color="#be2382"
         offset="1"
         id="stop856" />
    </linearGradient>
    <linearGradient
       id="linearGradient1159"
       x1="-184.75"
       x2="-170.2"
       y1="-1.2655"
       y2="-15.817"
       gradientTransform="matrix(3.779602,0,0,3.779602,782.58712,64.286872)"
       gradientUnits="userSpaceOnUse">
      <stop
         stop-color="#dc3282"
         offset="0"
         id="stop859" />
      <stop
         stop-color="#f05a50"
         offset="1"
         id="stop861" />
    </linearGradient>
    <linearGradient
       id="linearGradient958"
       x1="-272.21"
       x2="-275.5"
       y1="44.527"
       y2="50.385"
       gradientTransform="translate(-6.2404)"
       gradientUnits="userSpaceOnUse"
       xlink:href="#linearGradient956" />
    <linearGradient
       id="linearGradient966"
       x1="-272.86"
       x2="-267.62"
       y1="54.907"
       y2="49.026"
       gradientTransform="translate(-6.2404)"
       gradientUnits="userSpaceOnUse">
      <stop
         stop-color="#be1e6e"
         offset="0"
         id="stop865" />
      <stop
         stop-color="#7814aa"
         offset="1"
         id="stop867" />
    </linearGradient>
    <linearGradient
       id="linearGradient974"
       x1="-277.66"
       x2="-270.88"
       y1="59.727"
       y2="58.222"
       gradientTransform="translate(-6.2404)"
       gradientUnits="userSpaceOnUse">
      <stop
         stop-color="#d23c46"
         offset="0"
         id="stop870" />
      <stop
         stop-color="#b42382"
         offset="1"
         id="stop872" />
    </linearGradient>
    <linearGradient
       id="linearGradient982"
       x1="-282.61"
       x2="-278.76"
       y1="54.154"
       y2="62.018"
       gradientTransform="translate(-6.2404)"
       gradientUnits="userSpaceOnUse">
      <stop
         stop-color="#dc3c46"
         offset="0"
         id="stop875" />
      <stop
         stop-color="#e15a46"
         offset="1"
         id="stop877" />
    </linearGradient>
    <linearGradient
       id="linearGradient990"
       x1="-286.34"
       x2="-282.53"
       y1="57.278"
       y2="49.414"
       gradientTransform="translate(-6.2404)"
       gradientUnits="userSpaceOnUse">
      <stop
         stop-color="#e15a46"
         offset="0"
         id="stop880" />
      <stop
         stop-color="#be1e5a"
         offset="1"
         id="stop882" />
    </linearGradient>
    <linearGradient
       id="linearGradient998"
       x1="-281.51"
       x2="-282.55"
       y1="43.16"
       y2="49.908"
       gradientTransform="translate(-6.2404)"
       gradientUnits="userSpaceOnUse">
      <stop
         stop-color="#821496"
         offset="0"
         id="stop885" />
      <stop
         stop-color="#c83778"
         offset="1"
         id="stop887" />
    </linearGradient>
    <filter
       id="filter1030"
       x="-.061721"
       y="-.058451"
       width="1.1234"
       height="1.1169"
       color-interpolation-filters="sRGB">
      <feGaussianBlur
         stdDeviation="0.24897588"
         id="feGaussianBlur890" />
    </filter>
    <filter
       id="filter1040"
       x="-.066213"
       y="-.054853"
       width="1.1324"
       height="1.1097"
       color-interpolation-filters="sRGB">
      <feGaussianBlur
         stdDeviation="0.2340379"
         id="feGaussianBlur893" />
    </filter>
    <filter
       id="filter1046"
       x="-.047273"
       y="-.082105"
       width="1.0945"
       height="1.1642"
       color-interpolation-filters="sRGB">
      <feGaussianBlur
         stdDeviation="0.22334751"
         id="feGaussianBlur896" />
    </filter>
    <filter
       id="filter1052"
       x="-.06168"
       y="-.058409"
       width="1.1234"
       height="1.1168"
       color-interpolation-filters="sRGB">
      <feGaussianBlur
         stdDeviation="0.24881069"
         id="feGaussianBlur899" />
    </filter>
    <filter
       id="filter1058"
       x="-.066213"
       y="-.054853"
       width="1.1324"
       height="1.1097"
       color-interpolation-filters="sRGB">
      <feGaussianBlur
         stdDeviation="0.23403799"
         id="feGaussianBlur902" />
    </filter>
    <filter
       id="filter1064"
       x="-.047273"
       y="-.082105"
       width="1.0945"
       height="1.1642"
       color-interpolation-filters="sRGB">
      <feGaussianBlur
         stdDeviation="0.22334755"
         id="feGaussianBlur905" />
    </filter>
    <linearGradient
       id="linearGradient1098"
       x1="-272.21"
       x2="-275.5"
       y1="44.527"
       y2="50.385"
       gradientTransform="matrix(3.7796,0,0,3.7796,-23.586,0)"
       gradientUnits="userSpaceOnUse"
       xlink:href="#linearGradient956" />
    <filter
       id="filter1103"
       x="-.059886"
       y="-.060125"
       width="1.1198"
       height="1.1203"
       color-interpolation-filters="sRGB">
      <feGaussianBlur
         stdDeviation="0.60007942"
         id="feGaussianBlur909" />
    </filter>
    <radialGradient
       id="radialGradient1164"
       cx="-298.14"
       cy="61.201"
       r="10.223"
       gradientTransform="translate(23.267,-16.863)"
       gradientUnits="userSpaceOnUse">
      <stop
         stop-color="#962864"
         offset="0"
         id="stop912" />
      <stop
         stop-color="#780050"
         offset="1"
         id="stop914" />
    </radialGradient>
    <linearGradient
       id="linearGradient1227"
       x1="-228.54"
       x2="-228.54"
       y1="49.422"
       y2="52.342"
       gradientTransform="translate(237.02 -44.947)"
       gradientUnits="userSpaceOnUse">
      <stop
         stop-color="#fff"
         offset="0"
         id="stop917" />
      <stop
         stop-color="#fff"
         stop-opacity="0"
         offset="1"
         id="stop919" />
    </linearGradient>
    <filter
       id="filter1229"
       x="-.069096"
       y="-.1071"
       width="1.1382"
       height="1.2142"
       color-interpolation-filters="sRGB">
      <feGaussianBlur
         stdDeviation="0.1347133"
         id="feGaussianBlur922" />
    </filter>
    <filter
       id="filter1251"
       x="-.208"
       y="-.28364"
       width="1.416"
       height="1.5673"
       color-interpolation-filters="sRGB">
      <feGaussianBlur
         stdDeviation="0.069956252"
         id="feGaussianBlur925" />
    </filter>
    <filter
       id="filter1275"
       x="-.06"
       y="-.06"
       width="1.12"
       height="1.12"
       color-interpolation-filters="sRGB">
      <feGaussianBlur
         stdDeviation="0.04134033"
         id="feGaussianBlur928" />
    </filter>
    <filter
       id="filter1299"
       x="-.024"
       y="-.024"
       width="1.048"
       height="1.048"
       color-interpolation-filters="sRGB">
      <feGaussianBlur
         stdDeviation="0.18834042"
         id="feGaussianBlur931" />
    </filter>
    <filter
       id="filter1305"
       x="-.06"
       y="-.06"
       width="1.12"
       height="1.12"
       color-interpolation-filters="sRGB">
      <feGaussianBlur
         stdDeviation="0.61852427"
         id="feGaussianBlur934" />
    </filter>
    <linearGradient
       id="b">
      <stop
         id="stop2-3"
         offset="0"
         stop-color="#111" />
      <stop
         id="stop4-6"
         offset=".54902"
         stop-color="#4c4c4c" />
      <stop
         id="stop6"
         offset="1"
         stop-color="#888" />
    </linearGradient>
    <linearGradient
       gradientUnits="userSpaceOnUse"
       gradientTransform="matrix(1.0007 0 0 1.0007 -.028835 -.81993)"
       y2="1026.1"
       y1="2.8257"
       x2="519.68"
       x1="519.68"
       id="c">
      <stop
         id="stop9"
         offset="0"
         stop-color="#d7d7d7" />
      <stop
         id="stop11"
         offset=".5"
         stop-color="#faf8f6" />
      <stop
         id="stop13"
         offset="1"
         stop-color="#fff" />
    </linearGradient>
    <filter
       color-interpolation-filters="sRGB"
       height="1.0723"
       width="1.0717"
       y="-.036138"
       x="-.035863"
       id="e">
      <feGaussianBlur
         id="feGaussianBlur16"
         stdDeviation="0.75453" />
    </filter>
    <linearGradient
       xlink:href="#b"
       gradientUnits="userSpaceOnUse"
       y2="75.049"
       y1="-25.544"
       x2="25.655"
       x1="23.683"
       id="a-7" />
    <filter
       color-interpolation-filters="sRGB"
       height="1.072"
       width="1.072"
       y="-.036"
       x="-.036"
       id="d">
      <feGaussianBlur
         id="feGaussianBlur20"
         stdDeviation="14.170353" />
    </filter>
    <clipPath
       id="clipPath927">
      <rect
         width="384"
         height="384"
         id="rect925" />
    </clipPath>
    <clipPath
       id="clipPath931">
      <rect
         width="384"
         height="384"
         id="rect929" />
    </clipPath>
    <clipPath
       id="clipPath935">
      <rect
         width="384"
         height="384"
         id="rect933" />
    </clipPath>
    <linearGradient
       id="linearGradient1634"
       x1="-59.235"
       x2="-59.235"
       y1=".7041"
       y2="-11.929"
       gradientTransform="matrix(4.1232,0,0,4.1232,275.52045,59.01085)"
       gradientUnits="userSpaceOnUse">
      <stop
         stop-color="#d73782"
         offset="0"
         id="stop937" />
      <stop
         stop-color="#eb554b"
         offset="1"
         id="stop939" />
    </linearGradient>
    <linearGradient
       id="i"
       x1="400.4"
       x2="400.4"
       y1="545.62"
       y2="517.62"
       gradientTransform="matrix(1.5862,0,0,1.5862,-760.11955,-698.05015)"
       gradientUnits="userSpaceOnUse">
      <stop
         stop-color="#d3d3d3"
         offset="0"
         id="stop942" />
      <stop
         stop-color="#fcf9f9"
         offset="1"
         id="stop944" />
    </linearGradient>
    <linearGradient
       id="f"
       x1="400.4"
       x2="400.4"
       y1="545.62"
       y2="517.62"
       gradientTransform="matrix(1.6382,0,0,1.6382,-834.75955,-703.57015)"
       gradientUnits="userSpaceOnUse">
      <stop
         stop-color="#8d3aff"
         offset="0"
         id="stop947" />
      <stop
         stop-color="#ff3680"
         offset="1"
         id="stop949" />
    </linearGradient>
  </defs>
  <sodipodi:namedview
     pagecolor="#ffffff"
     bordercolor="#666666"
     borderopacity="1"
     objecttolerance="10"
     gridtolerance="10"
     guidetolerance="10"
     inkscape:pageopacity="0"
     inkscape:pageshadow="2"
     inkscape:window-width="1920"
     inkscape:window-height="999"
     id="namedview25"
     showgrid="false"
     inkscape:zoom="6.1208931"
     inkscape:cx="7.8991862"
     inkscape:cy="17.882157"
     inkscape:window-x="0"
     inkscape:window-y="0"
     inkscape:window-maximized="1"
     inkscape:current-layer="svg23"
     inkscape:document-rotation="0" />
  <linearGradient
     id="a"
     gradientTransform="matrix(1.3776904,0,0,1.2950473,-398.77333,-664.74396)"
     gradientUnits="userSpaceOnUse"
     x1="368.96432"
     x2="368.96432"
     y1="545.75293"
     y2="517.39703">
    <stop
       offset="0"
       stop-color="#ff3069"
       id="stop2" />
    <stop
       offset="1"
       stop-color="#ffa548"
       id="stop4" />
  </linearGradient>
  <g
     transform="matrix(0.99609,0,0,0.99609,2,-958)"
     id="shadow"
     style="image-rendering:optimizeSpeed" />
  <circle
     id="circle954"
     fill="#5e4aa6"
     r="0"
     cy="-1246.0001"
     cx="-1158.0995"
     style="image-rendering:optimizeSpeed" />
  <path
     id="path960"
     stroke-width="0.11719"
     image-rendering="optimizeSpeed"
     fill="url(#linearGradient1634)"
     d="m 62.00045,31.99985 c 0,3.5964 -0.63305,7.0444 -1.7939,10.24 -0.80694,2.2212 -1.8685,4.3212 -3.1519,6.2636 -0.53754,0.8167 -1.1155,1.6054 -1.729,2.3634 -1.9641,2.4256 -4.2982,4.5382 -6.9186,6.2526 -0.9649,0.63184 -1.9678,1.2098 -3.0061,1.7277 -4.0321,2.0179 -8.5839,3.153 -13.401,3.153 -4.8171,0 -9.3689,-1.1351 -13.401,-3.1531 -1.0384,-0.51799 -2.0425,-1.0959 -3.0074,-1.7277 -2.6535,-1.7376 -5.0155,-3.8832 -6.9957,-6.349 -0.61464,-0.76408 -1.1915,-1.56 -1.729,-2.3841 -1.249,-1.9102 -2.2836,-3.9712 -3.0746,-6.1494 -1.1607,-3.1947 -1.7927,-6.6415 -1.7927,-10.237 0,-16.569 13.431,-30 30,-30 8.317,0 15.842,3.3845 21.277,8.8503 1.5661,1.5746 2.9585,3.3234 4.1436,5.214 1.1205,1.7805 2.0571,3.6882 2.7857,5.6951 1.1611,3.1959 1.794,6.6442 1.794,10.24 z"
     style="fill:url(#linearGradient1634)" />
  <g
     id="g970"
     image-rendering="optimizeSpeed"
     fill="#5e4aa6"
     transform="translate(-104.94955,-24.40715)">
    <circle
       id="circle962"
       r="0"
       cy="-1237.8"
       cx="-1331.1" />
    <circle
       id="circle964"
       r="0"
       cy="-1229.7"
       cx="-1262.2" />
    <circle
       id="circle966"
       r="0"
       cy="-1255.5"
       cx="-1239.2" />
    <circle
       id="circle968"
       r="0"
       cy="-1228.8"
       cx="-1249.8" />
  </g>
  <circle
     id="circle972"
     image-rendering="optimizeSpeed"
     fill="url(#i)"
     r="0"
     cy="145.49985"
     cx="-124.72955"
     style="fill:url(#i)" />
  <circle
     id="circle974"
     stroke-width="2.1297"
     stroke="url(#f)"
     image-rendering="optimizeSpeed"
     fill="none"
     r="0"
     cy="167.65985"
     cx="-178.51956"
     style="stroke:url(#f)" />
  <path
     d="m 45.828388,24.372635 c -0.78133,-0.761068 -1.72375,-1.141694 -2.82804,-1.141694 h -3.50003 l -0.79665,-2.070455 c -0.19793,-0.49724 -0.5598,-0.926102 -1.08608,-1.286549 -0.52605,-0.3603 -1.06514,-0.540606 -1.61728,-0.540606 h -8.00022 c -0.55214,0 -1.09125,0.180399 -1.61732,0.540606 -0.52604,0.360447 -0.88795,0.789309 -1.08587,1.286549 l -0.79686,2.070455 h -3.50003 c -1.104296,0 -2.046898,0.380626 -2.828212,1.141694 -0.781128,0.761291 -1.171795,1.679721 -1.171795,2.755675 v 13.64097 c 0,1.075955 0.390667,1.994587 1.171795,2.755472 0.781314,0.761289 1.723916,1.141917 2.828212,1.141917 h 22.00017 c 1.10426,0 2.0467,-0.380628 2.82803,-1.141917 0.78111,-0.760885 1.17179,-1.679517 1.17179,-2.755472 V 27.12831 c 1.3e-4,-1.075954 -0.39048,-1.994384 -1.17161,-2.755675 z m -8.883,14.394772 c -1.3697,1.334766 -3.01809,2.002058 -4.94529,2.002058 -1.92723,0 -3.57541,-0.667292 -4.94532,-2.002058 -1.36992,-1.334583 -2.05474,-2.940813 -2.05474,-4.818418 0,-1.877771 0.68503,-3.483688 2.05474,-4.818437 1.3697,-1.334766 3.01809,-2.002057 4.94532,-2.002057 1.9272,0 3.57541,0.667476 4.94529,2.002057 1.3699,1.334564 2.05478,2.940666 2.05478,4.818437 0,1.877605 -0.68506,3.483652 -2.05478,4.818418 z m -4.94529,-9.20316 c -1.23969,0 -2.29948,0.428844 -3.17977,1.286568 -0.88028,0.857688 -1.32041,1.890276 -1.32041,3.098174 0,1.20786 0.44013,2.240468 1.32041,3.098155 0.88029,0.857521 1.94008,1.286384 3.17977,1.286384 1.23947,0 2.29948,-0.428863 3.17976,-1.286384 0.88027,-0.857687 1.32041,-1.890295 1.32041,-3.098155 0,-1.207898 -0.44014,-2.240486 -1.32041,-3.098174 -0.88028,-0.857724 -1.94029,-1.286568 -3.17976,-1.286568 z"
     opacity="0.795"
     id="path996"
     style="fill:#ffffff;stroke-width:1.84742" />
  <path
     style="opacity:0.75;fill:none;stroke:#ffffff;stroke-width:2;stroke-linecap:round;stroke-miterlimit:4;stroke-dasharray:none;stroke-opacity:1"
     id="path998"
     sodipodi:type="arc"
     sodipodi:cx="32"
     sodipodi:cy="32"
     sodipodi:rx="25"
     sodipodi:ry="25"
     sodipodi:start="3.6651914"
     sodipodi:end="4.1887902"
     sodipodi:open="true"
     sodipodi:arc-type="arc"
     d="M 10.349365,19.500001 A 25,25 0 0 1 19.5,10.349365" />
  <path
     style="opacity:0.75;fill:none;stroke:#ffffff;stroke-width:2;stroke-linecap:round;stroke-miterlimit:4;stroke-dasharray:none;stroke-opacity:1"
     id="path1005"
     sodipodi:type="arc"
     sodipodi:cx="32"
     sodipodi:cy="32"
     sodipodi:rx="25"
     sodipodi:ry="25"
     sodipodi:start="5.2359878"
     sodipodi:end="5.7595865"
     sodipodi:arc-type="arc"
     d="m 44.500001,10.349365 a 25,25 0 0 1 9.150634,9.150634"
     sodipodi:open="true" />
  <path
     style="opacity:0.75;fill:none;stroke:#ffffff;stroke-width:2;stroke-linecap:round;stroke-miterlimit:4;stroke-dasharray:none;stroke-opacity:1"
     id="path1007"
     sodipodi:type="arc"
     sodipodi:cx="32"
     sodipodi:cy="32"
     sodipodi:rx="25"
     sodipodi:ry="25"
     sodipodi:start="2.0943951"
     sodipodi:end="2.6179939"
     sodipodi:open="true"
     sodipodi:arc-type="arc"
     d="M 19.5,53.650635 A 25,25 0 0 1 10.349365,44.5" />
  <path
     style="opacity:0.75;fill:none;stroke:#ffffff;stroke-width:2;stroke-linecap:round;stroke-miterlimit:4;stroke-dasharray:none;stroke-opacity:1"
     id="path1009"
     sodipodi:type="arc"
     sodipodi:cx="32"
     sodipodi:cy="32"
     sodipodi:rx="25"
     sodipodi:ry="25"
     sodipodi:start="0.52359878"
     sodipodi:end="1.0471976"
     sodipodi:arc-type="arc"
     d="m 53.650635,44.5 a 25,25 0 0 1 -9.150636,9.150636"
     sodipodi:open="true" />
</svg>
