<?xml version="1.0" encoding="UTF-8"?>
<svg width="64" height="64" version="1.1" viewBox="0 0 16.933 16.933" xmlns="http://www.w3.org/2000/svg" xmlns:cc="http://creativecommons.org/ns#" xmlns:dc="http://purl.org/dc/elements/1.1/" xmlns:rdf="http://www.w3.org/1999/02/22-rdf-syntax-ns#" xmlns:xlink="http://www.w3.org/1999/xlink">
 <defs>
  <linearGradient id="linearGradient1005-9" x1=".73911" x2="16.388" y1="16.296" y2=".64687" gradientTransform="matrix(.99999 0 0 .99999 .85329 4.9582)" gradientUnits="userSpaceOnUse">
   <stop stop-color="#cfdade" offset="0"/>
   <stop stop-color="#eaeff2" offset="1"/>
  </linearGradient>
  <linearGradient id="linearGradient1471" x1="162.61" x2="162.61" y1="15.335" y2="27.41" gradientTransform="matrix(.72773 0 0 .72773 -109.08 -2.1349)" gradientUnits="userSpaceOnUse" xlink:href="#linearGradient922"/>
  <linearGradient id="linearGradient922">
   <stop stop-color="#91aab4" offset="0"/>
   <stop stop-color="#648291" offset="1"/>
  </linearGradient>
  <linearGradient id="linearGradient1473" x1="156.58" x2="168.85" y1="15.3" y2="27.534" gradientTransform="matrix(.72773 0 0 .72773 -109.08 -2.1022)" gradientUnits="userSpaceOnUse" xlink:href="#linearGradient922"/>
  <linearGradient id="linearGradient1475" x1="162.73" x2="163.37" y1="20.333" y2="19.09" gradientTransform="matrix(.83966 0 0 .83966 -125.37 -4.5208)" gradientUnits="userSpaceOnUse">
   <stop stop-color="#fafafa" offset="0"/>
   <stop stop-color="#c8e6f0" offset="1"/>
  </linearGradient>
 </defs>
 <metadata>
  <rdf:RDF>
   <cc:Work rdf:about="">
    <dc:format>image/svg+xml</dc:format>
    <dc:type rdf:resource="http://purl.org/dc/dcmitype/StillImage"/>
    <dc:title/>
   </cc:Work>
  </rdf:RDF>
 </metadata>
 <g transform="translate(-.88824 -4.9515)">
  <path d="m17.292 13.418c0 0.95155-0.16749 1.8638-0.47464 2.7094-0.2135 0.58769-0.4944 1.1433-0.83394 1.6572-0.14222 0.21608-0.29515 0.42476-0.45747 0.62529-0.51964 0.6418-1.1372 1.2007-1.8304 1.6542-0.2553 0.16717-0.52065 0.3201-0.79536 0.45712-1.0668 0.5339-2.2711 0.83421-3.5457 0.83421-1.2745 0-2.4788-0.30033-3.5457-0.83424-0.27475-0.13705-0.54041-0.28996-0.79571-0.45712-0.70207-0.45974-1.327-1.0274-1.8508-1.6798-0.16262-0.20216-0.31523-0.41275-0.45747-0.63076-0.33047-0.50541-0.6042-1.0507-0.81349-1.627-0.30711-0.8453-0.47429-1.7572-0.47429-2.7086 0-4.3839 3.5536-7.9375 7.9375-7.9375 2.2005 0 4.1918 0.89548 5.6295 2.3416 0.41437 0.41661 0.78274 0.87929 1.0963 1.3795 0.29644 0.47106 0.54427 0.97581 0.73705 1.5068 0.30719 0.84559 0.47466 1.7579 0.47466 2.7094z" fill="url(#linearGradient1005-9)" image-rendering="optimizeSpeed" stroke-width=".031006"/>
  <g fill="#5a7882" stroke-width=".72773">
   <path d="m8.4814 7.862h1.7541c0.17073 0 0.28561 0.13895 0.30819 0.30818l0.19341 1.4502c0.02256 0.16923-0.13746 0.30818-0.30819 0.30818h-2.1732c-0.17073 0-0.33444-0.13948-0.30819-0.30818l0.22564-1.4502c0.026271-0.1687 0.13745-0.30818 0.3082-0.30818z"/>
   <path d="m8.4814 18.974h1.7541c0.17073 0 0.28561-0.13895 0.30819-0.30818l0.19341-1.4502c0.02256-0.16924-0.13746-0.30818-0.30819-0.30818h-2.1732c-0.17073 0-0.33444 0.13948-0.30819 0.30818l0.22564 1.4502c0.026271 0.1687 0.13745 0.30818 0.3082 0.30818z"/>
   <path d="m13.721 9.8952 0.87706 1.5191c0.08536 0.14786 0.02249 0.31683-0.11281 0.42099l-1.1592 0.89264c-0.13528 0.10415-0.33562 0.03505-0.42099-0.11281l-1.0866-1.8821c-0.08536-0.14786-0.04643-0.35937 0.1128-0.42099l1.3687-0.5297c0.15924-0.061603 0.33562-0.035055 0.42099 0.11281z"/>
   <path d="m4.1004 15.451 0.87707 1.5191c0.08537 0.14786 0.26314 0.17787 0.42099 0.11281l1.3526-0.55762c0.15784-0.06508 0.19817-0.27313 0.1128-0.42099l-1.0866-1.8821c-0.08537-0.14786-0.28802-0.21989-0.42099-0.11281l-1.1431 0.92051c-0.13296 0.10711-0.19816 0.27313-0.11279 0.42099z"/>
   <path d="m14.602 15.451-0.87706 1.5191c-0.08537 0.14785-0.26313 0.17789-0.42099 0.11281l-1.3526-0.55762c-0.15784-0.065074-0.19817-0.27313-0.1128-0.42099l1.0866-1.8821c0.08537-0.14785 0.28801-0.21989 0.42099-0.1128l1.1431 0.92051c0.13297 0.10711 0.19817 0.27313 0.1128 0.421z"/>
   <path d="m4.981 9.8952-0.87706 1.5191c-0.085363 0.14786-0.022487 0.31683 0.1128 0.42099l1.1592 0.89264c0.13528 0.10415 0.33562 0.03505 0.42099-0.11281l1.0866-1.8821c0.085363-0.14786 0.046429-0.35938-0.11281-0.421l-1.3687-0.5297c-0.15924-0.061595-0.33562-0.035048-0.42099 0.11282z"/>
  </g>
  <g stroke-dashoffset=".42096">
   <circle cx="9.3401" cy="13.418" r="4.4491" fill="url(#linearGradient1471)" stroke="url(#linearGradient1473)" stroke-width=".057762"/>
   <circle transform="rotate(90)" cx="13.418" cy="-9.3401" r="2.5033" fill="#2a495d" stroke="#4f6c7a" stroke-width="1.282"/>
   <path d="m9.3401 15.922a2.5033 2.5033 0 0 1-2.4818-2.176 2.5033 2.5033 0 0 1 1.8329-2.745 2.5033 2.5033 0 0 1 2.9611 1.4583" fill="none" stroke="#00a2f3" stroke-width="1.282"/>
  </g>
  <circle cx="11.465" cy="12.062" r=".97902" fill="url(#linearGradient1475)" stroke-width=".72773"/>
 </g>
</svg>
