<?xml version="1.0" encoding="UTF-8"?>
<svg width="64" height="64" version="1.1" viewBox="0 0 16.933 16.933" xmlns="http://www.w3.org/2000/svg" xmlns:cc="http://creativecommons.org/ns#" xmlns:dc="http://purl.org/dc/elements/1.1/" xmlns:rdf="http://www.w3.org/1999/02/22-rdf-syntax-ns#" xmlns:xlink="http://www.w3.org/1999/xlink">
 <defs>
  <linearGradient id="a-3" x1="99.036" x2="99.036" y1="-.50472" y2="199.84" gradientTransform="matrix(.079375 0 0 .079375 2.5041 4.205)" gradientUnits="userSpaceOnUse">
   <stop stop-color="#4bd2f5" offset="0"/>
   <stop stop-color="#5587ff" offset="1"/>
  </linearGradient>
  <linearGradient id="linearGradient1920" x1="32.835" x2="36.251" y1="39.943" y2="12.307" gradientTransform="matrix(.33171 -.057359 .057359 .33171 -2.3016 5.5097)" gradientUnits="userSpaceOnUse" xlink:href="#linearGradient1722"/>
  <linearGradient id="linearGradient1722" x1="32.835" x2="36.251" y1="39.943" y2="12.307" gradientUnits="userSpaceOnUse">
   <stop stop-color="#a3ceed" offset="0"/>
   <stop stop-color="#fdfefe" offset="1"/>
  </linearGradient>
 </defs>
 <metadata>
  <rdf:RDF>
   <cc:Work rdf:about="">
    <dc:format>image/svg+xml</dc:format>
    <dc:type rdf:resource="http://purl.org/dc/dcmitype/StillImage"/>
    <dc:title/>
   </cc:Work>
  </rdf:RDF>
 </metadata>
 <g transform="translate(-1.9749 -3.6758)">
  <circle cx="10.442" cy="12.142" r="7.9375" color="#000000" fill="url(#a-3)" stroke-width=".26458"/>
  <path d="m10.429 7.5127s-3.6931 3.5199-3.6881 5.5681a3.6989 3.6989 0 0 0 3.7096 3.6924 3.6989 3.6989 0 0 0 3.6924-3.7096c-0.004736-2.0482-3.714-5.5511-3.714-5.5511zm0.02048 8.8258c-1.811 0.0042-3.2695-1.4634-3.2737-3.2666-0.00418-1.8031 3.2548-4.9107 3.2548-4.9107s3.2654 3.1003 3.2775 4.8955c0.0042 1.8189-1.4475 3.2774-3.2584 3.2816z" fill="url(#linearGradient1920)" stroke-width=".0098855" p-id="11536"/>
  <path d="m10.437 10.723s-1.7281 1.6489-1.7259 2.6058c0.00106 0.45869 0.18398 0.90113 0.50897 1.2246 0.32499 0.32348 0.76828 0.50435 1.227 0.5033 0.45869-0.0011 0.90113-0.18398 1.2246-0.50897 0.32348-0.32499 0.50435-0.76828 0.5033-1.227-0.0022-0.96481-1.7379-2.5978-1.7379-2.5978zm9e-3 3.9223c-0.71965 0.0017-1.2983-0.59013-1.3-1.3256-0.00169-0.73546 1.2923-1.9959 1.2923-1.9959s1.2999 1.2544 1.3016 1.9899c0.0017 0.73546-0.57421 1.3299-1.2939 1.3316z" fill="url(#linearGradient1920)" stroke-width=".0098855" p-id="11537"/>
 </g>
</svg>
