<?xml version="1.0" encoding="UTF-8"?>
<svg width="64" height="64" version="1.1" viewBox="0 0 16.933 16.933" xmlns="http://www.w3.org/2000/svg" xmlns:cc="http://creativecommons.org/ns#" xmlns:dc="http://purl.org/dc/elements/1.1/" xmlns:rdf="http://www.w3.org/1999/02/22-rdf-syntax-ns#" xmlns:xlink="http://www.w3.org/1999/xlink">
 <defs>
  <linearGradient id="linearGradient1005-3" x1=".73911" x2="16.388" y1="16.296" y2=".64687" gradientTransform="matrix(.99999 0 0 .99999 -.04459 -.38077)" gradientUnits="userSpaceOnUse">
   <stop stop-color="#00a0ff" offset="0"/>
   <stop stop-color="#37beff" offset="1"/>
  </linearGradient>
 </defs>
 <metadata>
  <rdf:RDF>
   <cc:Work rdf:about="">
    <dc:format>image/svg+xml</dc:format>
    <dc:type rdf:resource="http://purl.org/dc/dcmitype/StillImage"/>
    <dc:title/>
   </cc:Work>
  </rdf:RDF>
 </metadata>
 <g transform="translate(.0094496 .38743)">
  <path d="m16.395 8.0791c0 0.95153-0.16749 1.8638-0.47464 2.7094-0.2135 0.58768-0.49438 1.1433-0.83392 1.6572-0.14222 0.21608-0.29514 0.42475-0.45745 0.62528-0.51965 0.64179-1.1372 1.2007-1.8305 1.6543-0.2553 0.16717-0.52064 0.3201-0.79536 0.45712-1.0668 0.53389-2.2711 0.83421-3.5456 0.83421-1.2745 0-2.4788-0.30032-3.5456-0.83423-0.27474-0.13705-0.5404-0.28997-0.7957-0.45712-0.70206-0.45972-1.327-1.0274-1.8509-1.6798-0.16262-0.20216-0.31523-0.41275-0.45746-0.63077-0.33046-0.50539-0.60421-1.0507-0.81349-1.627-0.30711-0.84528-0.4743-1.7573-0.4743-2.7084 0-4.3838 3.5537-7.9374 7.9374-7.9374 2.2005 0 4.1916 0.89547 5.6295 2.3417 0.41436 0.41661 0.78274 0.87928 1.0963 1.3795 0.29645 0.47107 0.54427 0.97581 0.73704 1.5068 0.30718 0.84558 0.47466 1.7579 0.47466 2.7094z" fill="url(#linearGradient1005-3)" stroke-width=".031006"/>
  <path d="m10.939 12.47-2.4883-7.0708-2.4751 7.0708h-1.2335l3.1534-8.7819h1.1254l3.152 8.7819h-1.2335" fill="#fff"/>
  <path d="m9.5377 8.417c-0.40228-0.11484-0.84442-0.080388-1.2244 0.09221-0.37864 0.17429-0.69782 0.49989-0.81266 0.95115-0.068567 0.27562-0.042221 0.57251 0.077686 0.82854 0.12126 0.25738 0.34689 0.47625 0.65695 0.54752 0.18206 0.04087 0.37593 0.01858 0.54482-0.06722 0.17023-0.08444 0.31919-0.24792 0.36006-0.46578 0.023643-0.12531 0.00541-0.25332-0.054043-0.37087-0.062148-0.11619-0.1807-0.22292-0.33641-0.24657-0.088495-0.013174-0.17294 0.0027014-0.25332 0.048976-0.081739 0.046274-0.16213 0.14254-0.17294 0.26244l0.41444 0.039519c-0.0027 0.02905-0.029048 0.05945-0.036817 0.06451-0.00912 0.0054-0.0027 0.0027-0.011822 0.0013 0.013174 0.0027 0.015875 0.0041 0.027697 0.0277 0.013174 0.02364 0.019928 0.06721 0.014523 0.09491-0.014523 0.07667-0.059447 0.12936-0.13578 0.16753-0.077686 0.03682-0.18476 0.04898-0.2692 0.0331-0.17564-0.040818-0.29419-0.15431-0.37087-0.31779-0.076673-0.16111-0.094912-0.36816-0.05134-0.54211 0.081739-0.32054 0.2969-0.54211 0.58197-0.67283 0.28507-0.13072 0.63466-0.15841 0.93933-0.071269 0.88393 0.25062 1.3646 1.2312 1.2467 2.1323l0.41309 0.05404c0.13984-1.0873-0.43403-2.2745-1.5476-2.5913" fill="#fff"/>
 </g>
</svg>
