<?xml version="1.0" encoding="UTF-8"?>
<svg width="64" height="64" version="1.1" viewBox="0 0 16.933 16.933" xmlns="http://www.w3.org/2000/svg" xmlns:cc="http://creativecommons.org/ns#" xmlns:dc="http://purl.org/dc/elements/1.1/" xmlns:rdf="http://www.w3.org/1999/02/22-rdf-syntax-ns#" xmlns:xlink="http://www.w3.org/1999/xlink">
 <defs>
  <linearGradient id="linearGradient3008" x1="-54.585" x2="-18.915" y1="209.27" y2="172.63" gradientTransform="matrix(.31993 0 0 .31993 16.086 -45.192)" gradientUnits="userSpaceOnUse">
   <stop stop-color="#55c3f8" offset="0"/>
   <stop stop-color="#1484f4" offset="1"/>
  </linearGradient>
  <linearGradient id="linearGradient984" x1="5.6964" x2="50.126" y1="9.9047" y2="50.57" gradientTransform="matrix(-.17931 0 0 .17931 15.72 8.2466)" gradientUnits="userSpaceOnUse">
   <stop stop-color="#f4f4f4" offset="0"/>
   <stop stop-color="#dce3ec" offset="1"/>
  </linearGradient>
 </defs>
 <metadata>
  <rdf:RDF>
   <cc:Work rdf:about="">
    <dc:format>image/svg+xml</dc:format>
    <dc:type rdf:resource="http://purl.org/dc/dcmitype/StillImage"/>
    <dc:title/>
   </cc:Work>
  </rdf:RDF>
 </metadata>
 <g transform="translate(-.46302 -3.5341)">
  <path d="m16.867 12.001c0 0.95155-0.16749 1.8638-0.47464 2.7093-0.2135 0.58769-0.4944 1.1433-0.83391 1.6572-0.14222 0.21609-0.29514 0.42474-0.45746 0.62529-0.51964 0.6418-1.1372 1.2007-1.8304 1.6543-0.2553 0.16717-0.52065 0.32009-0.79536 0.45712-1.0668 0.5339-2.2712 0.8342-3.5457 0.8342-1.2745 0-2.4789-0.30033-3.5457-0.83423-0.27474-0.13705-0.54041-0.28996-0.79571-0.45712-0.70207-0.45974-1.327-1.0274-1.8508-1.6798-0.16262-0.20216-0.31522-0.41275-0.45746-0.63077-0.33046-0.50538-0.6042-1.0507-0.81349-1.627-0.3071-0.84529-0.47429-1.7572-0.47429-2.7085 0-4.3839 3.5536-7.9375 7.9375-7.9375 2.2005 0 4.1918 0.89548 5.6295 2.3416 0.41436 0.41661 0.78274 0.87929 1.0963 1.3795 0.29644 0.47106 0.54427 0.97581 0.73705 1.5068 0.30718 0.84558 0.47466 1.7579 0.47466 2.7093z" fill="url(#linearGradient3008)" stroke-width=".031006"/>
  <path d="m5.5408 7.0993 0.71541 0.17033q-0.1022 0.27252-0.23847 0.51099h3.4406v2.6913h-5.1099v0.44286h6.0299v0.54507h-6.0299v0.44286h6.0979q-0.1022 2.2143-0.34068 2.6572-0.2044 0.47694-0.78354 0.47694-0.27252 0-0.85167-0.1022l-0.13627-0.68133q0.64725 0.1022 0.9198 0.1022 0.2044 0 0.27252-0.2044 0.1022-0.23847 0.17033-1.6693h-6.0299v-4.7011h1.6011q0.17033-0.34065 0.27252-0.68133zm-1.1923 1.2264v0.54507h4.4286v-0.54507zm0 1.0561v0.54507h4.4286v-0.54507zm1.4649 3.3044h0.68133v0.9198h1.6693v-0.85167h0.64728v1.3967h-4.6331v0.57912h-0.68133v-1.9418h0.68133v0.81759h1.6352z" fill="#fff" stroke-width=".35719"/>
  <path d="m7.8914 10.874c0.77187-0.67088 1.7968-1.0403 2.8858-1.0403 1.0891 0 2.1141 0.36946 2.8858 1.0403 0.77859 0.6767 1.2074 1.5786 1.2074 2.5394 0 0.91712-0.39087 1.7803-1.1034 2.4453 0.01286 0.03086 0.02304 0.06333 0.02955 0.09746l0.23411 1.2299c0.02784 0.14617-0.0096 0.23333-0.04582 0.28072-0.04191 0.05476-0.10403 0.08493-0.17493 0.08493-0.05354 0-0.11107-0.01687-0.17102-0.05015l-1.3617-0.75552c-0.47146 0.16206-0.97835 0.24705-1.5 0.24705-1.0891 0-2.1141-0.36946-2.8858-1.0403-0.77856-0.67667-1.2074-1.5785-1.2074-2.5394 0-0.96097 0.42878-1.8627 1.2074-2.5396z" fill="url(#linearGradient984)" image-rendering="optimizeSpeed" stroke-width=".31993"/>
  <path d="m9.5186 11.716c-0.061897 0-0.11173 0.05043-0.11173 0.11238v0.15379h-0.87344c-0.061897 0-0.11173 0.0498-0.11173 0.11173v0.29903c-2.65e-5 0.06176 0.049824 0.11172 0.11173 0.11172h1.672c-0.047112 0.30186-0.20745 0.62376-0.47649 0.95689-0.17147-0.27469-0.28149-0.5416-0.34438-0.71898-0.015875-0.044762-0.058359-0.074266-0.10581-0.074266h-0.27472c-0.035742 0-0.069575 0.01716-0.090694 0.04601-0.021087 0.02887-0.027231 0.06576-0.016431 0.0999 0.065177 0.20524 0.21537 0.60793 0.49292 1.0174-0.32785 0.31872-0.65442 0.54893-0.78076 0.63354-0.050279 0.03371-0.064982 0.10115-0.032859 0.15247l0.13867 0.22082c0.015981 0.02553 0.041508 0.04347 0.070977 0.04995 0.00791 0.0018 0.01569 0.0026 0.023654 0.0026 0.021749 0 0.04337-0.0063 0.06178-0.0184 0.13011-0.08551 0.46739-0.31925 0.82087-0.65786 0.13078 0.1363 0.43823 0.37552 0.62042 0.50803 0.02779 0.02022 0.06344 0.02645 0.09661 0.01709 0.03314-0.0094 0.06054-0.03393 0.07361-0.06572l0.10253-0.25171c0.02069-0.05059 0.0016-0.1086-0.04469-0.13736-0.11871-0.07363-0.34203-0.22474-0.52446-0.42127 0.4005-0.46871 0.62862-0.92604 0.67889-1.3591h0.08872c0.0619 0 0.11173-0.0498 0.11173-0.11173v-0.29903c0-0.0619-0.0498-0.11173-0.11173-0.11173h-0.87344v-0.15379c0-0.06193-0.049797-0.11238-0.11173-0.11238zm2.1248 0.35293c-0.04929 0-0.09271 0.03242-0.10712 0.07952l-0.74396 2.4337c-0.01045 0.03399-0.0041 0.07059 0.01709 0.09924 0.02114 0.02853 0.05446 0.04535 0.09004 0.04535h0.38645c0.0503 0 0.0943-0.03371 0.10778-0.08215l0.16694-0.60002h0.76105l0.18073 0.60267c0.01421 0.04745 0.0583 0.07952 0.10779 0.07952h0.4101c0.03569 0 0.0696-0.01676 0.09069-0.04535 0.02117-0.0287 0.02703-0.06588 0.01643-0.0999l-0.75382-2.433c-0.0146-0.04694-0.05798-0.07952-0.10713-0.07952zm0.28392 0.45019h0.0072l0.30036 1.0765h-0.5882z" fill="#222" stroke-width=".028279"/>
 </g>
</svg>
