<?xml version="1.0" encoding="UTF-8"?>
<svg width="64" height="64" version="1.1" viewBox="0 0 16.933 16.933" xmlns="http://www.w3.org/2000/svg" xmlns:cc="http://creativecommons.org/ns#" xmlns:dc="http://purl.org/dc/elements/1.1/" xmlns:rdf="http://www.w3.org/1999/02/22-rdf-syntax-ns#" xmlns:xlink="http://www.w3.org/1999/xlink">
 <defs>
  <filter id="filter1066-3" x="-.063923" y="-.056531" width="1.1278" height="1.1131" color-interpolation-filters="sRGB">
   <feGaussianBlur stdDeviation="0.22705935"/>
  </filter>
  <linearGradient id="linearGradient1040" x1="80.368" x2="82.141" y1="13.177" y2="14.704" gradientTransform="matrix(1.0235 0 0 1.0235 -65.131 -5.4267)" gradientUnits="userSpaceOnUse">
   <stop stop-color="#fafafa" offset="0"/>
   <stop stop-color="#90a0b3" offset="1"/>
  </linearGradient>
 </defs>
 <metadata>
  <rdf:RDF>
   <cc:Work rdf:about="">
    <dc:format>image/svg+xml</dc:format>
    <dc:type rdf:resource="http://purl.org/dc/dcmitype/StillImage"/>
    <dc:title/>
   </cc:Work>
  </rdf:RDF>
 </metadata>
 <g transform="translate(-5.046 2.986)">
  <circle cx="13.454" cy="5.522" r="7.9375" color="#000000" fill="#f3f3f3" stroke-width=".26458"/>
  <path d="m13.386-2.5209a7.9375 7.9833 0 0 0-7.9375 7.9835 7.9375 7.9833 0 0 0 5.5383 7.6068l0.53279-0.06029c3.7573-1.0394 9.0461-4.2556 9.2554-10.46a7.9375 7.9833 0 0 0-7.3888-5.0697zm7.4067 5.1176 0.44545 3.9648a7.9375 7.9833 0 0 0 5.03e-4 -0.00209l-0.4444-3.9579a7.9375 7.9833 0 0 0-0.0015-0.00468z" color="#000000" fill="#fafafa" stroke-width=".26535"/>
  <path transform="matrix(1.0996 0 0 1.0321 -42.686 -7.1743)" d="m57.818 9.8288s0.05354 3.0782-2.6636 4.5408c-2.2449 1.2084 0.9386 2.689-5.8599 5.0989 8.8505-2.5748 8.5235-9.6396 8.5235-9.6396z" fill="#141414" filter="url(#filter1066-3)" opacity=".3"/>
  <path transform="matrix(1.0685 0 0 .99565 -40.787 -6.5017)" d="m57.818 9.8288s0.05354 3.0782-2.6636 4.5408c-2.2449 1.2084 0.9386 2.689-5.8599 5.0989 8.8505-2.5748 8.5235-9.6396 8.5235-9.6396z" fill="#141414" filter="url(#filter1066-3)" opacity=".3"/>
  <g stroke-width=".16235">
   <path d="m13.601 5.7484c0.09989-0.026766 0.21995-0.020947 0.4748-0.0057l3.8193 0.48559c0.15554 0.032275 0.23366 0.10933 0.25581 0.19197 0.02206 0.082328-0.0071 0.18812-0.1258 0.29389l-3.0703 2.3347-0.0021 0.00225c-0.25531 0.2264-0.53662 0.30177-0.87092 0.23336l-0.0029-8.996e-4 -3.8264-0.48672c-0.15573-0.032232-0.23386-0.10928-0.25597-0.19177-0.022106-0.082484 0.0070322-0.18828 0.12576-0.29404l3.0634-2.3296 0.0013-3.44e-4c0.21308-0.14063 0.31414-0.20569 0.41403-0.23247z" fill="#f35a23" overflow="visible" style="font-feature-settings:normal;font-variant-alternates:normal;font-variant-caps:normal;font-variant-ligatures:normal;font-variant-numeric:normal;font-variant-position:normal;isolation:auto;mix-blend-mode:normal;shape-padding:0;text-decoration-color:#000000;text-decoration-line:none;text-decoration-style:solid;text-indent:0;text-orientation:mixed;text-transform:none;white-space:normal"/>
   <path d="m13.601 5.7484 1.27e-4 4.763e-4c-0.09989 0.026767-0.20099 0.091671-0.41408 0.23229l-0.0013 3.439e-4 -2.2407 1.7041 2.7322 0.34761c0.37241 0.074505 0.71474-0.017222 1.0002-0.26798l2.1925-1.6671-2.7939-0.35543c-0.25485-0.015245-0.37486-0.020905-0.47476 0.00586z" fill-opacity=".078" overflow="visible" style="font-feature-settings:normal;font-variant-alternates:normal;font-variant-caps:normal;font-variant-ligatures:normal;font-variant-numeric:normal;font-variant-position:normal;isolation:auto;mix-blend-mode:normal;shape-padding:0;text-decoration-color:#000000;text-decoration-line:none;text-decoration-style:solid;text-indent:0;text-orientation:mixed;text-transform:none;white-space:normal"/>
   <path d="m13.054 3.71c0.09989-0.026766 0.21995-0.02095 0.4748-0.0057l3.8193 0.48573c0.15554 0.032275 0.23362 0.10917 0.25573 0.19165 0.02214 0.08264-7e-3 0.18843-0.12571 0.29419l-3.0703 2.3345-0.0021 0.00225c-0.25532 0.2264-0.53663 0.30177-0.87094 0.23336l-0.002919-9.025e-4 -3.8264-0.48672c-0.15566-0.032076-0.23379-0.10913-0.25594-0.19177-0.022101-0.082484 0.0070326-0.18828 0.1258-0.29389l3.0634-2.3296 0.0013-3.44e-4c0.21308-0.14063 0.31414-0.20569 0.41403-0.23247z" fill="#8bc34a" overflow="visible" style="font-feature-settings:normal;font-variant-alternates:normal;font-variant-caps:normal;font-variant-ligatures:normal;font-variant-numeric:normal;font-variant-position:normal;isolation:auto;mix-blend-mode:normal;shape-padding:0;text-decoration-color:#000000;text-decoration-line:none;text-decoration-style:solid;text-indent:0;text-orientation:mixed;text-transform:none;white-space:normal"/>
   <path d="m13.558 5.5906 4.23e-4 0.00156c-0.13502 0.036177-0.24844 0.11279-0.46265 0.25423l-0.0021 0.00225-0.0019 0.0022-1.508 1.147 1.9483 0.24774 0.0029 8.996e-4c0.3343 0.068411 0.61564-0.00697 0.87094-0.23336l0.0021-0.00225 1.565-1.1901-1.8841-0.23971-3e-3 -0.00106c-0.25624-0.015372-0.3928-0.025162-0.52783 0.011015z" fill="#7eb73d" overflow="visible" style="font-feature-settings:normal;font-variant-alternates:normal;font-variant-caps:normal;font-variant-ligatures:normal;font-variant-numeric:normal;font-variant-position:normal;isolation:auto;mix-blend-mode:normal;shape-padding:0;text-decoration-color:#000000;text-decoration-line:none;text-decoration-style:solid;text-indent:0;text-orientation:mixed;text-transform:none;white-space:normal"/>
   <path d="m13.601 5.7484 1.27e-4 4.763e-4c-0.09989 0.026767-0.20099 0.091671-0.41408 0.23229l-0.0013 3.439e-4 -1.3739 1.0448 1.7207 0.2188 0.0029 8.996e-4c0.3343 0.068411 0.61564-0.00697 0.87094-0.23336l0.0021-0.00225 1.3804-1.0499-1.7132-0.21794c-0.25485-0.015251-0.37486-0.020913-0.47474 0.00586z" fill="#83be3f" overflow="visible" style="font-feature-settings:normal;font-variant-alternates:normal;font-variant-caps:normal;font-variant-ligatures:normal;font-variant-numeric:normal;font-variant-position:normal;isolation:auto;mix-blend-mode:normal;shape-padding:0;text-decoration-color:#000000;text-decoration-line:none;text-decoration-style:solid;text-indent:0;text-orientation:mixed;text-transform:none;white-space:normal"/>
   <path d="m13.054 3.71 1.28e-4 4.763e-4c-0.09989 0.026766-0.20099 0.091671-0.41408 0.23229l-0.0013 3.439e-4 -2.2407 1.7041 2.7322 0.34761c0.37241 0.074505 0.71474-0.017222 1.0002-0.26798l2.1925-1.6671-2.7939-0.35543c-0.25485-0.015245-0.37486-0.020905-0.47476 0.00586z" fill-opacity=".078" overflow="visible" style="font-feature-settings:normal;font-variant-alternates:normal;font-variant-caps:normal;font-variant-ligatures:normal;font-variant-numeric:normal;font-variant-position:normal;isolation:auto;mix-blend-mode:normal;shape-padding:0;text-decoration-color:#000000;text-decoration-line:none;text-decoration-style:solid;text-indent:0;text-orientation:mixed;text-transform:none;white-space:normal"/>
   <path d="m12.508 1.6713c0.09989-0.026767 0.21995-0.020947 0.4748-0.0057l3.8193 0.48573c0.15554 0.032275 0.23362 0.10917 0.25573 0.19165 0.02214 0.08264-7e-3 0.18843-0.12572 0.29419l-3.0703 2.3345-0.0021 0.00225c-0.25531 0.2264-0.53662 0.30177-0.87093 0.23336l-0.002929-8.996e-4 -3.8264-0.48672c-0.15566-0.032076-0.23379-0.10913-0.25594-0.19177-0.022101-0.082484 0.0070327-0.18828 0.1258-0.29389l3.0634-2.3296 0.0013-3.44e-4c0.21305-0.14063 0.31411-0.20569 0.414-0.23247z" fill="#29b6f6" overflow="visible" style="font-feature-settings:normal;font-variant-alternates:normal;font-variant-caps:normal;font-variant-ligatures:normal;font-variant-numeric:normal;font-variant-position:normal;isolation:auto;mix-blend-mode:normal;shape-padding:0;text-decoration-color:#000000;text-decoration-line:none;text-decoration-style:solid;text-indent:0;text-orientation:mixed;text-transform:none;white-space:normal"/>
   <path d="m13.012 3.5523 2.57e-4 9.525e-4c-0.13502 0.036177-0.24844 0.11279-0.46265 0.25423l-0.0021 0.00225-0.0019 0.0022-1.508 1.147 1.9483 0.24774 0.0029 8.996e-4c0.3343 0.068411 0.61564-0.00697 0.87094-0.23336l0.0021-0.00225 1.565-1.1901-1.8841-0.23971-0.0029-8.996e-4c-0.25624-0.015385-0.39276-0.025024-0.52779 0.011155z" fill="#0aa8f0" overflow="visible" style="font-feature-settings:normal;font-variant-alternates:normal;font-variant-caps:normal;font-variant-ligatures:normal;font-variant-numeric:normal;font-variant-position:normal;isolation:auto;mix-blend-mode:normal;shape-padding:0;text-decoration-color:#000000;text-decoration-line:none;text-decoration-style:solid;text-indent:0;text-orientation:mixed;text-transform:none;white-space:normal"/>
   <path d="m13.054 3.71 1.28e-4 4.763e-4c-0.09989 0.026766-0.20099 0.091671-0.41408 0.23229l-0.0013 3.439e-4 -1.3739 1.0448 1.7207 0.2188 0.0029 8.996e-4c0.3343 0.068411 0.61564-0.00697 0.87094-0.23336l0.0021-0.00225 1.3804-1.0499-1.7132-0.21794c-0.25485-0.015251-0.37486-0.02091-0.47474 0.00586z" fill="#10adf5" overflow="visible" style="font-feature-settings:normal;font-variant-alternates:normal;font-variant-caps:normal;font-variant-ligatures:normal;font-variant-numeric:normal;font-variant-position:normal;isolation:auto;mix-blend-mode:normal;shape-padding:0;text-decoration-color:#000000;text-decoration-line:none;text-decoration-style:solid;text-indent:0;text-orientation:mixed;text-transform:none;white-space:normal"/>
  </g>
  <path d="m20.552 2.869s0.0548 3.1507-2.7263 4.6477c-2.2976 1.2368 0.96068 2.7522-5.9978 5.2189 9.0585-2.6354 8.7958-9.8303 8.7958-9.8303z" fill="url(#linearGradient1040)" stroke-width="1.0235"/>
  <path d="m20.552 2.869s-0.19305 3.2015-2.565 4.5127c-2.7286 1.5087 0.9933 2.857-6.1955 5.2983" fill="none" stroke="#fafafa" stroke-width=".1354"/>
  <path d="m20.794 2.5968 0.44545 3.9645a7.9375 7.9833 0 0 0 5.29e-4 -0.00206l-0.44442-3.9579a7.9375 7.9833 0 0 0-1e-3 -0.00465h-5.29e-4z" color="#000000" fill="#fafafa" stroke-width=".26535"/>
  <path d="m20.794 2.5965 0.44545 3.9648a7.9375 7.9833 0 0 0 5.03e-4 -0.00209l-0.44439-3.9579a7.9375 7.9833 0 0 0-0.0015-0.00468z" color="#000000" fill="#fafafa" stroke-width=".26535"/>
 </g>
</svg>
