<?xml version="1.0" encoding="UTF-8"?>
<svg width="64" height="64" version="1.1" viewBox="0 0 16.933 16.933" xmlns="http://www.w3.org/2000/svg" xmlns:cc="http://creativecommons.org/ns#" xmlns:dc="http://purl.org/dc/elements/1.1/" xmlns:rdf="http://www.w3.org/1999/02/22-rdf-syntax-ns#" xmlns:xlink="http://www.w3.org/1999/xlink">
 <defs>
  <filter id="filter1066-3-6" x="-.063923" y="-.056531" width="1.1278" height="1.1131" color-interpolation-filters="sRGB">
   <feGaussianBlur stdDeviation="0.22705935"/>
  </filter>
  <linearGradient id="linearGradient1040-7" x1="80.368" x2="82.141" y1="13.177" y2="14.704" gradientTransform="matrix(1.0235 0 0 1.0235 -69.338 -2.5446)" gradientUnits="userSpaceOnUse">
   <stop stop-color="#fafafa" offset="0"/>
   <stop stop-color="#90a0b3" offset="1"/>
  </linearGradient>
 </defs>
 <metadata>
  <rdf:RDF>
   <cc:Work rdf:about="">
    <dc:format>image/svg+xml</dc:format>
    <dc:type rdf:resource="http://purl.org/dc/dcmitype/StillImage"/>
    <dc:title/>
   </cc:Work>
  </rdf:RDF>
 </metadata>
 <g transform="translate(-.841 .10394)">
  <path d="m16.588 5.4788 0.44545 3.9645a7.9375 7.9833 0 0 0 5.29e-4 -0.00206l-0.44442-3.9579a7.9375 7.9833 0 0 0-0.0011-0.00465h-5.29e-4z" color="#000000" fill="#fafafa" stroke-width=".26535"/>
  <path d="m16.588 5.4785 0.44545 3.9648a7.9375 7.9833 0 0 0 5.29e-4 -0.00209l-0.44442-3.9579a7.9375 7.9833 0 0 0-0.0016-0.00468z" color="#000000" fill="#fafafa" stroke-width=".26535"/>
  <circle cx="9.2491" cy="8.4043" r="7.9375" color="#000000" fill="#f3f3f3" stroke-width=".26458"/>
  <path d="m9.1811 0.3612a7.9375 7.9833 0 0 0-7.9375 7.9835 7.9375 7.9833 0 0 0 5.5383 7.6068l0.53279-0.060291c3.7573-1.0394 9.0461-4.2556 9.2554-10.46a7.9375 7.9833 0 0 0-7.3888-5.0697zm7.4067 5.1176 0.44545 3.9648a7.9375 7.9833 0 0 0 5.3e-4 -0.00209l-0.44442-3.9579a7.9375 7.9833 0 0 0-0.0016-0.00468z" color="#000000" fill="#fafafa" stroke-width=".26535"/>
  <path transform="matrix(1.0996 0 0 1.0321 -46.894 -4.2923)" d="m57.818 9.8288s0.05354 3.0782-2.6636 4.5408c-2.2449 1.2084 0.9386 2.689-5.8599 5.0989 8.8505-2.5748 8.5235-9.6396 8.5235-9.6396z" fill="#141414" filter="url(#filter1066-3-6)" opacity=".3"/>
  <path transform="matrix(1.0685 0 0 .99565 -44.992 -3.6197)" d="m57.818 9.8288s0.05354 3.0782-2.6636 4.5408c-2.2449 1.2084 0.9386 2.689-5.8599 5.0989 8.8505-2.5748 8.5235-9.6396 8.5235-9.6396z" fill="#141414" filter="url(#filter1066-3-6)" opacity=".3"/>
  <g>
   <path d="m6.7856 3.4534c-0.34693 0.055672-0.53306 0.76556 0.1239 0.51056 0.25119-0.12916 0.1499-0.5545-0.1239-0.51056m4.0693-0.20651c-0.20241 0.032481-0.35672 0.29791-0.24052 0.41544 0.03141 0.031572 0.17149 0.047493 0.29868 0.036013 0.17513-0.016047 0.21108-0.075843 0.18272-0.25257-0.02619-0.16323-0.09324-0.22213-0.24124-0.19838m-2.9573 0.61431c-0.40971 0.034492-0.80977 0.46304-0.82037 0.88668-0.0076941 0.26646 0.056279 0.4147-0.17435 0.39098-0.14225-0.015563-0.50145-0.25619-0.69623-0.25128-0.29236 0.092458-0.58868 0.49408-0.29559 0.94044 0.25426 0.21549 0.35659 0.38571 0.069852 0.43529-0.61866 0.27386-0.83357 0.45659-0.49865 1.1525 0.062567 0.11721 0.072688 0.27767-0.075278 0.48805-0.21811 0.31585-0.23466 0.33235-0.65417 0.27241-0.59063-0.082926-1.0939 0.7042 0.039832 0.50976 0.70374-0.2 0.80906-0.044549 0.24225 0.37994-0.38485 0.28679-0.50474 0.39667-0.46813 0.64709 0.035844 0.24563 0.16239 0.30524 0.49382 0.3811 0.72594 0.1331 1.0315 0.17829 1.2533 1.0268 0.041772 0.2603 0.072592 0.71392 0.34169 0.82433 0.26158 0.10805 0.33784 0.20208 0.32625 0.3803-0.017619 0.31314 0.20181 0.36723 0.58365 0.15906 0.42809-0.23435 0.50979-0.12869 0.20689 0.24586-0.16611 0.20302-0.22604 0.41669-0.19384 0.61736 0.076963 0.44621 1.4875 0.54089 1.112-0.37402-0.17115-0.41546-0.44035-0.70178 0.011777-0.89489 0.29265-0.16573 0.65852 0.25555 0.94044 0.29559 0.65676 0.09152 1.0781-0.26007 1.4034-0.64536 0.19602-0.23372 0.44047-0.24348 0.58842-0.23418 0.5446 0.02423 2.6187-0.12553 1.6362-1.281-0.39425-0.41449-0.34456-0.51668 0.30706-0.6074 0.53571-0.075698 0.57646-0.10277 0.5771-0.31586 5.56e-4 -0.12734-0.082022-0.31636-0.18084-0.43132-0.14812-0.1718-0.15163-0.22705-0.03673-0.31514 0.1085-0.083492-0.035051-0.41319-0.22694-0.71862-0.43601-0.88063 0.21876-2.6462-0.74148-2.7953-0.583-0.1105-0.023485-1.3094-0.81695-0.91729-0.23041 0.10841-0.42008 0.011599-0.73318-0.13373-0.43758-0.13919-0.56297-0.12755-1.0644-0.02476-0.42734 0.085989-0.72091-0.44958-1.171 0.0066331-0.35631 0.51752-0.2882 0.27977-0.89021 0.017388-0.12629-0.09136-0.25789-0.12963-0.39575-0.11777m6.2527 2.5423c-0.06546 0.026133-0.11915 0.083863-0.1848 0.15334-0.18026 0.19279-0.18984 0.20817 0.01364 0.34653 0.29413 0.20239 0.5578 0.095341 0.54968-0.22796-0.0059-0.25357-0.18288-0.35777-0.37886-0.27408m-4.1036 6.2536c-0.070684 0.02697-0.074528 0.11153-0.03081 0.24204 0.03932 0.11424 0.14723 0.19962 0.23908 0.18488 0.09881-0.01586 0.18682 0.07629 0.23215 0.22797 0.04365 0.14123 0.12812 0.24466 0.17774 0.2367 0.05093-0.0082 0.09749-0.13263 0.10999-0.28287 0.01441-0.21351-0.04331-0.37838-0.30496-0.50919-0.2105-0.10419-0.34988-0.12692-0.42057-0.09995m1.0539-0.02937c-0.0693 0.0022-0.13212 0.04755-0.11878 0.13069 0.01334 0.08314 0.10412 0.13689 0.20076 0.12138 0.09533-0.0153 0.15263-0.07003 0.11878-0.13069-0.04785-0.08118-0.13146-0.12357-0.20076-0.12138m-1.6471 0.43175c-0.061376 0.0099-0.13904 0.11295-0.11265 0.25517 0.044056 0.23002 0.11066 0.26666 0.1672 0.08479 0.08779-0.27931 0.074727-0.36071-0.054555-0.33996" fill="#fa1e2f"/>
   <path d="m10.01 11.866-0.55882-3.4823-3.3008-1.2563 0.55882 3.4823" fill="#e5e5e5"/>
   <path d="m12.18 6.1598-2.7302 2.2241 0.55882 3.4823 2.7302-2.2241" fill="#c1c1c1"/>
   <path d="m8.8919 4.9014-2.742 2.226 3.3008 1.2563 2.7319-2.2244" fill="#f9f9f9"/>
  </g>
  <path d="m16.346 5.7511s0.0548 3.1507-2.7263 4.6477c-2.2976 1.2368 0.96068 2.7522-5.9978 5.2189 9.0585-2.6354 8.7958-9.8303 8.7958-9.8303z" fill="url(#linearGradient1040-7)" stroke-width="1.0235"/>
  <path d="m16.346 5.7511s-0.19305 3.2015-2.565 4.5127c-2.7286 1.5087 0.9933 2.857-6.1955 5.2983" fill="none" stroke="#fafafa" stroke-width=".1354"/>
 </g>
</svg>
