<?xml version="1.0" encoding="UTF-8"?>
<svg width="64" height="64" version="1.1" viewBox="0 0 16.933 16.933" xmlns="http://www.w3.org/2000/svg" xmlns:cc="http://creativecommons.org/ns#" xmlns:dc="http://purl.org/dc/elements/1.1/" xmlns:rdf="http://www.w3.org/1999/02/22-rdf-syntax-ns#" xmlns:xlink="http://www.w3.org/1999/xlink">
 <defs>
  <filter id="filter1066-8" x="-.063923" y="-.056531" width="1.1278" height="1.1131" color-interpolation-filters="sRGB">
   <feGaussianBlur stdDeviation="0.22705935"/>
  </filter>
  <linearGradient id="linearGradient9197" x1="11.503" x2="13.411" y1="10.86" y2="11.864" gradientTransform="matrix(1 0 0 1 .098746 1.2189)" gradientUnits="userSpaceOnUse">
   <stop stop-color="#b4b4b4" offset="0"/>
   <stop stop-color="#646464" offset="1"/>
  </linearGradient>
  <linearGradient id="linearGradient4205" x1="-6.4353" x2="-14.645" y1="47.645" y2="101.01" gradientTransform="matrix(.1757 0 0 .1757 3.4937 4.963)" gradientUnits="userSpaceOnUse">
   <stop stop-color="#76dd38" offset="0"/>
   <stop stop-color="#42c440" offset=".48433"/>
   <stop stop-color="#14ab4b" offset="1"/>
  </linearGradient>
 </defs>
 <metadata>
  <rdf:RDF>
   <cc:Work rdf:about="">
    <dc:format>image/svg+xml</dc:format>
    <dc:type rdf:resource="http://purl.org/dc/dcmitype/StillImage"/>
    <dc:title/>
   </cc:Work>
  </rdf:RDF>
 </metadata>
 <g transform="translate(-.085045 -1.219)">
  <circle cx="8.4913" cy="9.7271" r="7.9375" color="#000000" fill="#787879" stroke-width=".26458"/>
  <path d="m8.4252 1.684a7.9375 7.9833 0 0 0-7.9375 7.9835 7.9375 7.9833 0 0 0 5.5383 7.6068l0.53279-0.06029c3.7573-1.0394 9.0461-4.2556 9.2554-10.46a7.9375 7.9833 0 0 0-7.3888-5.0697zm7.4067 5.1176 0.44545 3.9648a7.9375 7.9833 0 0 0 5.29e-4 -0.0021l-0.44442-3.9579a7.9375 7.9833 0 0 0-0.0016-0.00468z" color="#000000" fill="#646464" stroke-width=".26535"/>
  <path transform="matrix(1.0996 0 0 1.0321 -47.648 -2.9692)" d="m57.818 9.8288s0.05354 3.0782-2.6636 4.5408c-2.2449 1.2084 0.9386 2.689-5.8599 5.0989 8.8505-2.5748 8.5235-9.6396 8.5235-9.6396z" fill="#141414" filter="url(#filter1066-8)" opacity=".3"/>
  <path transform="matrix(1.0685 0 0 .99565 -45.747 -2.2969)" d="m57.818 9.8288s0.05354 3.0782-2.6636 4.5408c-2.2449 1.2084 0.9386 2.689-5.8599 5.0989 8.8505-2.5748 8.5235-9.6396 8.5235-9.6396z" fill="#141414" filter="url(#filter1066-8)" opacity=".3"/>
  <path d="m15.59 7.0738s0.0548 3.1507-2.7263 4.6477c-2.2976 1.2368 0.96068 2.7522-5.9978 5.2189 9.0585-2.6354 8.7958-9.8303 8.7958-9.8303z" fill="url(#linearGradient9197)" stroke-width="1.0235"/>
  <path d="m15.59 7.0738s-0.19305 3.2015-2.565 4.5127c-2.7286 1.5087 0.9933 2.857-6.1955 5.2983" fill="none" stroke="#9d9d9d" stroke-width=".1354"/>
  <path d="m15.831 6.8015 0.44545 3.9645a7.9375 7.9833 0 0 0 5.29e-4 -0.0021l-0.44442-3.9579a7.9375 7.9833 0 0 0-0.0011-0.00465h-5.29e-4z" color="#000000" fill="#fafafa" stroke-width=".26535"/>
  <g fill="#cdcdcd">
   <rect transform="matrix(-.86603 .5 .5 .86603 0 0)" x="-3.1612" y="9.0325" width="3.9675" height=".6429" ry=".32145" stroke-width="1.278" style="paint-order:stroke fill markers"/>
   <rect transform="rotate(210)" x="-11.509" y="-5.427" width="3.9675" height=".6429" ry=".32146" stroke-width="1.278" style="paint-order:stroke fill markers"/>
   <rect transform="matrix(.25882 -.96593 -.96593 -.25882 0 0)" x="-7.8306" y="-10.756" width="3.9675" height=".6429" ry=".32145" stroke-width="1.278" style="paint-order:stroke fill markers"/>
   <rect transform="rotate(30)" x="11.674" y=".46703" width="3.9675" height=".6429" ry=".32145" stroke-width="1.278" style="paint-order:stroke fill markers"/>
   <rect transform="matrix(.86603 -.5 -.5 -.86603 0 0)" x="3.3265" y="-13.992" width="3.9675" height=".6429" ry=".32146" stroke-width="1.278" style="paint-order:stroke fill markers"/>
  </g>
  <circle transform="rotate(-8.7453)" cx="2.6222" cy="14.621" r="3.3073" fill="url(#linearGradient4205)" stroke-width=".12232" style="paint-order:fill markers stroke"/>
  <path d="m4.1693 13.012c-0.12977-0.003236-0.23659 0.10135-0.23658 0.23116v1.7093c-1.712e-4 0.17805 0.19253 0.28944 0.34673 0.20046l1.4808-0.8551c0.15365-0.08907 0.15365-0.31094 0-0.40001l-1.4808-0.8551c-0.033568-0.01928-0.071449-0.02987-0.11016-0.0307z" color="#000000" color-rendering="auto" dominant-baseline="auto" fill="#fff" image-rendering="auto" shape-rendering="auto" solid-color="#000000" stroke-width=".12232" style="font-feature-settings:normal;font-variant-alternates:normal;font-variant-caps:normal;font-variant-ligatures:normal;font-variant-numeric:normal;font-variant-position:normal;isolation:auto;mix-blend-mode:normal;paint-order:fill markers stroke;shape-padding:0;text-decoration-color:#000000;text-decoration-line:none;text-decoration-style:solid;text-indent:0;text-orientation:mixed;text-transform:none;white-space:normal"/>
 </g>
</svg>
