<?xml version="1.0" encoding="UTF-8"?>
<svg width="64" height="64" version="1.1" viewBox="0 0 16.933 16.933" xmlns="http://www.w3.org/2000/svg" xmlns:cc="http://creativecommons.org/ns#" xmlns:dc="http://purl.org/dc/elements/1.1/" xmlns:rdf="http://www.w3.org/1999/02/22-rdf-syntax-ns#" xmlns:xlink="http://www.w3.org/1999/xlink">
 <defs>
  <linearGradient id="a-3-3" x1="32" x2="32" y1="2" y2="62" gradientTransform="matrix(.2646 0 0 .2646 .41998 3.8748)" gradientUnits="userSpaceOnUse">
   <stop stop-color="#f5faff" offset="0"/>
   <stop stop-color="#cfdef0" offset="1"/>
  </linearGradient>
  <linearGradient id="linearGradient1092" x1="-48.3" x2="-13.301" y1="32" y2="32" gradientTransform="matrix(.26458 0 0 .26458 16.969 3.6607)" gradientUnits="userSpaceOnUse">
   <stop stop-color="#ffa000" offset="0"/>
   <stop stop-color="#ffbd01" offset="1"/>
  </linearGradient>
 </defs>
 <metadata>
  <rdf:RDF>
   <cc:Work rdf:about="">
    <dc:format>image/svg+xml</dc:format>
    <dc:type rdf:resource="http://purl.org/dc/dcmitype/StillImage"/>
    <dc:title/>
   </cc:Work>
  </rdf:RDF>
 </metadata>
 <g transform="translate(-.35323 -3.6607)">
  <circle cx="8.8199" cy="12.127" r="7.9378" fill="url(#a-3-3)" stroke-width=".2646" style="paint-order:stroke markers fill"/>
  <path d="m8.8337 7.6419a0.62594 0.62594 0 0 0-0.57981 0.35553l-1.0883 2.2293-2.4355 0.3576a0.62913 0.62913 0 0 0-0.3607 0.18604 0.64418 0.64418 0 0 0 0.010852 0.9033l1.7616 1.7343-0.41548 2.4551c-0.023441 0.13833-9.692e-4 0.28071 0.063562 0.40514a0.62768 0.62768 0 0 0 0.85214 0.2682l2.1776-1.1581 2.1807 1.1601a0.62421 0.62421 0 0 0 0.40359 0.06511c0.34292-0.06077 0.57253-0.39096 0.51263-0.73794l-0.416-2.4551 1.7616-1.7368c0.09868-0.09839 0.16199-0.22674 0.18138-0.36535 0.04833-0.34958-0.1922-0.67272-0.53744-0.72192l-2.435-0.35708-1.0888-2.2319a0.62594 0.62594 0 0 0-0.5488-0.35553z" fill="url(#linearGradient1092)" stroke-linecap="round" stroke-linejoin="round" stroke-width=".52917" style="paint-order:stroke fill markers"/>
 </g>
</svg>
