<?xml version="1.0" encoding="UTF-8"?>
<svg width="64" height="64" version="1.1" viewBox="0 0 16.933 16.933" xmlns="http://www.w3.org/2000/svg" xmlns:cc="http://creativecommons.org/ns#" xmlns:dc="http://purl.org/dc/elements/1.1/" xmlns:rdf="http://www.w3.org/1999/02/22-rdf-syntax-ns#" xmlns:xlink="http://www.w3.org/1999/xlink">
 <defs>
  <linearGradient id="a-3-5" x1="32" x2="32" y1="2" y2="62" gradientTransform="matrix(.26459 0 0 .26459 .52032 1.0695)" gradientUnits="userSpaceOnUse">
   <stop stop-color="#f5faff" offset="0"/>
   <stop stop-color="#cfdef0" offset="1"/>
  </linearGradient>
  <radialGradient id="c" cx="403.36" cy="328" r="33.477" gradientTransform="matrix(.062993 .01393 -.018122 .086759 -15.049 -21.439)" gradientUnits="userSpaceOnUse">
   <stop stop-color="#f5faff" offset="0"/>
   <stop stop-color="#c8d7e9" offset="1"/>
  </radialGradient>
  <radialGradient id="b-56" cx="426.87" cy="312.58" r="50.458" gradientTransform="matrix(.056977 .0091686 -.015567 .10242 -13.386 -24.057)" gradientUnits="userSpaceOnUse">
   <stop stop-color="#f5faff" offset="0"/>
   <stop stop-color="#c8d7e9" offset="1"/>
  </radialGradient>
  <linearGradient id="f" x1="422.66" x2="567.48" y1="-296.76" y2="-251.7" gradientTransform="matrix(.07189 0 0 .070916 -22.169 15.108)" gradientUnits="userSpaceOnUse">
   <stop stop-color="#f5faff" offset="0"/>
   <stop stop-color="#c3d2e4" offset="1"/>
  </linearGradient>
  <radialGradient id="d" cx="451.89" cy="300.02" r="20.151" gradientTransform="matrix(.1199 .019643 -.021326 .13781 -39.924 -39.871)" gradientUnits="userSpaceOnUse">
   <stop stop-color="#e1ebff" offset="0"/>
   <stop stop-color="#e1f5ff" offset="1"/>
  </radialGradient>
  <radialGradient id="e" cx="399.85" cy="191.95" r="49.762" gradientTransform="matrix(.095601 .021309 -.021612 .10265 -25.748 -18.142)" gradientUnits="userSpaceOnUse">
   <stop stop-color="#273238" offset="0"/>
   <stop stop-color="#36474f" offset="1"/>
  </radialGradient>
 </defs>
 <metadata>
  <rdf:RDF>
   <cc:Work rdf:about="">
    <dc:format>image/svg+xml</dc:format>
    <dc:type rdf:resource="http://purl.org/dc/dcmitype/StillImage"/>
    <dc:title/>
   </cc:Work>
  </rdf:RDF>
 </metadata>
 <g transform="translate(-.45345 -.85436)">
  <circle cx="8.9201" cy="9.321" r="7.9375" fill="url(#a-3-5)" image-rendering="optimizeSpeed" stroke-width=".26458" style="paint-order:stroke markers fill"/>
  <g stroke-width=".77712">
   <path d="m5.4643 8.5211-1.1743 0.81609s-1.3807 0.99004-0.27811 3.2219c1.2124 2.454 2.9459 1.8335 2.9459 1.8335l1.3391-0.71008z" fill="url(#c)"/>
   <path d="m5.5016 8.4803s-0.25236 0.079489-0.41716 0.35505c-0.16481 0.27556-0.53989 1.0187-0.076371 2.4813 0.44408 1.2617 1.93 3.0901 3.3365 2.4946 0.14421-0.13778-2.8429-5.3312-2.8429-5.3312z" fill="#28343a"/>
   <path d="m5.9348 4.7747c-0.017469-0.035942-0.65988 1.3143-0.73133 3.7888-0.056194 1.9459 0.29538 3.9336 2.9562 5.2833 2.5936 1.3157 4.1409 1.3884 4.1409 1.3884z" fill="url(#b-56)"/>
  </g>
  <g fill-rule="evenodd">
   <ellipse transform="matrix(.49976 .86617 -.85339 .52128 0 0)" cx="13.159" cy="-3.9857" rx="6.5473" ry="3.2292" fill="url(#f)" stroke-width=".77724"/>
   <path d="m8.9464 12.334a2.2158 1.2643 60.752 0 0 0.029277-0.0011 2.2158 1.2643 60.752 0 0 0.12835-0.02499 2.2158 1.2643 60.752 0 0 0.085359-0.02978 2.2158 1.2643 60.752 0 0 0.11187-0.05886 2.2158 1.2643 60.752 0 0 0.10067-0.07795 2.2158 1.2643 60.752 0 0 0.088448-0.09624 2.2158 1.2643 60.752 0 0 0.075395-0.11361 2.2158 1.2643 60.752 0 0 0.061535-0.12981 2.2158 1.2643 60.752 0 0 0.047097-0.14474 2.2158 1.2643 60.752 0 0 0.03215-0.15818 2.2158 1.2643 60.752 0 0 0.01691-0.17011 2.2158 1.2643 60.752 0 0 0.00148-0.18026 2.2158 1.2643 60.752 0 0-0.013929-0.18868 2.2158 1.2643 60.752 0 0-0.029241-0.19519 2.2158 1.2643 60.752 0 0-0.044224-0.19972 2.2158 1.2643 60.752 0 0-0.05881-0.2023 2.2158 1.2643 60.752 0 0-0.072736-0.20282 2.2158 1.2643 60.752 0 0-0.086017-0.20133 2.2158 1.2643 60.752 0 0-0.068409-0.14052 2.2158 1.2643 60.752 0 0-0.10656-0.19418 2.2158 1.2643 60.752 0 0-0.11722-0.18729 2.2158 1.2643 60.752 0 0-0.12664-0.17857 2.2158 1.2643 60.752 0 0-0.13486-0.1681 2.2158 1.2643 60.752 0 0-0.14173-0.1559 2.2158 1.2643 60.752 0 0-0.14715-0.1422 2.2158 1.2643 60.752 0 0-0.15111-0.12701 2.2158 1.2643 60.752 0 0-0.15355-0.11054 2.2158 1.2643 60.752 0 0-0.15449-0.093067 2.2158 1.2643 60.752 0 0-0.15388-0.07458 2.2158 1.2643 60.752 0 0-0.15169-0.055384 2.2158 1.2643 60.752 0 0-0.14802-0.035571 2.2158 1.2643 60.752 0 0-0.14289-0.01552 2.2158 1.2643 60.752 0 0-0.13627 0.00479 2.2158 1.2643 60.752 0 0-0.12835 0.024989 2.2158 1.2643 60.752 0 0-0.085396 0.029816 2.2158 1.2643 60.752 0 0-0.11183 0.058825 2.2158 1.2643 60.752 0 0-0.10067 0.077948 2.2158 1.2643 60.752 0 0-0.069466 0.075594 5.6595 2.5377 61.483 0 0 0.82075 1.9139 5.6595 2.5377 61.483 0 0 1.2359 1.8681z" fill="url(#d)" stroke="#333" stroke-width=".053187"/>
   <path d="m7.8057 4.2066a5.6595 2.5377 61.483 0 0-0.50294 0.12895 5.6595 2.5377 61.483 0 0-0.41323 4.2173 2.2158 1.2643 60.752 0 1 0.069466-0.075594 2.2158 1.2643 60.752 0 1 0.10067-0.077948 2.2158 1.2643 60.752 0 1 0.11183-0.058825 2.2158 1.2643 60.752 0 1 0.085396-0.029816 2.2158 1.2643 60.752 0 1 0.12835-0.024988 2.2158 1.2643 60.752 0 1 0.13627-0.00479 2.2158 1.2643 60.752 0 1 0.14289 0.01552 2.2158 1.2643 60.752 0 1 0.14802 0.035571 2.2158 1.2643 60.752 0 1 0.15169 0.055383 2.2158 1.2643 60.752 0 1 0.15388 0.074579 2.2158 1.2643 60.752 0 1 0.15449 0.093067 2.2158 1.2643 60.752 0 1 0.15355 0.11054 2.2158 1.2643 60.752 0 1 0.15111 0.12701 2.2158 1.2643 60.752 0 1 0.14715 0.1422 2.2158 1.2643 60.752 0 1 0.14173 0.1559 2.2158 1.2643 60.752 0 1 0.13486 0.1681 2.2158 1.2643 60.752 0 1 0.12664 0.17857 2.2158 1.2643 60.752 0 1 0.11722 0.18729 2.2158 1.2643 60.752 0 1 0.10656 0.19418 2.2158 1.2643 60.752 0 1 0.068409 0.14052 2.2158 1.2643 60.752 0 1 0.086016 0.20132 2.2158 1.2643 60.752 0 1 0.072736 0.20282 2.2158 1.2643 60.752 0 1 0.05881 0.2023 2.2158 1.2643 60.752 0 1 0.044224 0.19972 2.2158 1.2643 60.752 0 1 0.029241 0.19519 2.2158 1.2643 60.752 0 1 0.013929 0.18868 2.2158 1.2643 60.752 0 1-0.00148 0.18026 2.2158 1.2643 60.752 0 1-0.01691 0.17011 2.2158 1.2643 60.752 0 1-0.03215 0.15818 2.2158 1.2643 60.752 0 1-0.047097 0.14474 2.2158 1.2643 60.752 0 1-0.061535 0.12981 2.2158 1.2643 60.752 0 1-0.075395 0.11361 2.2158 1.2643 60.752 0 1-0.088448 0.09624 2.2158 1.2643 60.752 0 1-0.10067 0.07795 2.2158 1.2643 60.752 0 1-0.11187 0.05886 2.2158 1.2643 60.752 0 1-0.08536 0.02978 2.2158 1.2643 60.752 0 1-0.12835 0.02499 2.2158 1.2643 60.752 0 1-0.029277 0.0011 5.6595 2.5377 61.483 0 0 3.6992 1.978 5.6595 2.5377 61.483 0 0-0.39638-6.1228l-0.012069-0.022531a5.6595 2.5377 61.483 0 0-4.4314-3.9614z" fill="url(#e)" stroke-width=".77712"/>
  </g>
 </g>
</svg>
