<?xml version="1.0" encoding="UTF-8"?>
<!-- Created with Inkscape (http://www.inkscape.org/) -->
<svg width="64" height="64" version="1.1" xmlns="http://www.w3.org/2000/svg" xmlns:xlink="http://www.w3.org/1999/xlink">
 <defs>
  <filter id="f" x="-.06" y="-.06" width="1.12" height="1.12" color-interpolation-filters="sRGB">
   <feGaussianBlur stdDeviation="0.18520833"/>
  </filter>
  <linearGradient id="linearGradient1049" x1="8.4666" x2="8.4666" y1="284.83" y2="292.24" gradientTransform="matrix(3.7796,0,0,3.7796,375.1,-633.14)" gradientUnits="userSpaceOnUse">
   <stop stop-color="#4c5557" offset="0"/>
   <stop stop-color="#282929" offset="1"/>
  </linearGradient>
  <linearGradient id="linearGradient921" x1="32.299" x2="32.299" y1="62.254" y2="2.5027" gradientUnits="userSpaceOnUse">
   <stop stop-color="#0a6" offset="0"/>
   <stop stop-color="#09e58d" offset="1"/>
  </linearGradient>
 </defs>
 <circle cx="32" cy="32" r="30" fill="url(#linearGradient921)" stroke-linecap="round" stroke-width="2.0741"/>
 <path d="m30.92 2.0195a30 30 0 0 0-3.332 0.30859v14.326l3.5234-3.5234h-0.19141zm2.2227 0.00195v9.0762l3.332-3.332v-5.4297a30 30 0 0 0-3.332-0.31445zm-7.7773 0.72071a30 30 0 0 0-3.332 0.96289v10.727l3.8887 3.8887 0.74414-0.74804h-1.3008zm13.332 0.015625v5.9277l-11.205 11.205 1.2051 1.207 13.332-13.332v-4.0391a30 30 0 0 0-3.332-0.96875zm-18.887 1.8301a30 30 0 0 0-4.4453 2.4473v0.73047l4.4453 4.4453zm24.441 0.029297v4.0684l-14.928 14.928-0.62695-0.62891-0.62695 0.62891-2.1484-2.1504-2.1523 2.1504-0.62695-0.62891-0.62695 0.62891-12.27-12.27a30 30 0 0 0-1.6191 1.8496 1.6665 1.6665 0 0 1 0.07422 0.49219 1.6665 1.6665 0 0 1-0.03125 0.31836l9.6367 9.6367h31.67l7.0957-8.1113a30 30 0 0 0-2.457-3.2402l-5.8359 6.5664h-3.5879l7.5664-8.5137a30 30 0 0 0-2.9512-2.4844v0.82812l-14.928 14.928-1.5703-1.5723 14.275-14.275v-1.3984a30 30 0 0 0-3.332-1.75zm-31.105 4.0488a30 30 0 0 0-1.3125 1.123l11.309 11.309 1.207-1.207-2.3164-2.3184h-2.2227v-2.2188l-6.6641-6.668zm-6.168 6.7871a30 30 0 0 0-3.4785 7.1758l1.0117 1.0117h10.652zm5.9102 22.545-8.1504 6.5195a30 30 0 0 0 1.6055 3.0293l1.7578-1.1738v2.3926l-0.67188 0.44727a30 30 0 0 0 5.459 5.9121v-5.1621l7.1777-5.9824h3.5879l-7.1758 5.9824v7.709a30 30 0 0 0 4.4414 2.2051v-2.4512l14.928-14.928 0.62695 0.62695 0.62891-0.62695 2.1484 2.1504 2.1504-2.1504 0.62695 0.62695 0.62891-0.62695 10.633 10.635a30 30 0 0 0 1.168-1.2441l-7.8184-7.8203 1.5723-1.5703 7.6641 7.6641a30 30 0 0 0 2.9082-4.6523l-4.0234-5.1191h-2.3906l-2.3945-2.3926h-14.391l0.26172 0.26172-13.848 13.846a1.6665 1.6665 0 0 1 0.0332 0.31836 1.6665 1.6665 0 0 1-1.668 1.668 1.6665 1.6665 0 0 1-1.668-1.668 1.6665 1.6665 0 0 1 1.5-1.6562l12.77-12.77zm23.586 7.0156-13.332 13.332v2.3164a30 30 0 0 0 3.332 0.82422v-4.0605l6.668-6.668v-2.2188h2.2227l2.3145-2.3184zm5.5547 0-1.207 1.207 9.5195 9.5176a30 30 0 0 0 1.3262-1.0859zm-2.7773 2.7773-3.8867 3.8887v10.131a30 30 0 0 0 3.332-0.56836v-12.705h1.3008zm1.668 1.666v11.186a30 30 0 0 0 3.332-1.2598v-6.4023h0.19141zm-7.7773 4.4434-4.4453 4.4453v3.4707a30 30 0 0 0 3.3027 0.18359h0.14453a30 30 0 0 0 0.99805-0.02344zm13.332 1.1133v3.2617a30 30 0 0 0 2.0352-1.2266z" fill="#047b4b" stroke-width="1.0909"/>
 <path d="m20 13-0.5 2h-0.5v3.9668h-4v0.53321l-2 0.5 2 0.5v0.46681h4v2h-4v0.5332l-2 0.50001 2 0.5v0.4668h4v2h-4v0.5332l-2 0.5 2 0.50001v0.4668h4v2h-4v0.53321l-2 0.5 2 0.5v0.46681h4v2h-4v0.5332l-2 0.50001 2 0.5v0.4668h4v2h-4v0.53321l-2 0.5 2 0.50001v0.4668h4v2h-4v0.5332l-2 0.50001 2 0.5v0.46681h4v4.0332h0.5l0.5 2 0.50001-2h0.5v-4.0332h2v4.0332h0.50001l0.5 2 0.5-2h0.5v-4.0332h2v4.0332h0.5l0.5 2 0.50001-2h0.5v-4.0332h2v4.0332h0.5l0.5 2 0.5-2h0.50001v-4.0332h2v4.0332h0.5l0.50001 2 0.5-2h0.5v-4.0332h2v4.0332h0.5l0.5 2 0.50001-2h0.5v-4.0332h2v4.0332h0.50001l0.5 2 0.5-2h0.50001v-4.0332h4v-0.46681l2-0.5-2-0.50001v-0.5332h-4v-2h4v-0.4668l2-0.50001-2-0.5v-0.53321h-4v-2h4v-0.4668l2-0.5-2-0.50001v-0.5332h-4v-2h4v-0.46681l2-0.5-2-0.5v-0.53321h-4v-2h4v-0.4668l2-0.50001-2-0.5v-0.5332h-4v-2h4v-0.4668l2-0.5-2-0.50001v-0.5332h-4v-2h4v-0.46681l2-0.5-2-0.5v-0.53321h-4v-3.9668h-0.50001l-0.5-2-0.5 2h-0.50001v3.9668h-2v-3.9668h-0.5l-0.50001-2-0.5 2h-0.5v3.9668h-2v-3.9668h-0.5l-0.5-2-0.50001 2h-0.5v3.9668h-2v-3.9668h-0.50001l-0.5-2-0.5 2h-0.5v3.9668h-2v-3.9668h-0.5l-0.50001-2-0.5 2h-0.5v3.9668h-2v-3.9668h-0.5l-0.5-2-0.5 2h-0.50001v3.9668h-2v-3.9668h-0.5zm1 7.9669h2v2h-2zm4 0h2v2h-2zm4 0h2v2h-2zm4 0h2v2h-2zm4 0h2v2h-2zm4 0h2v2h-2zm-20 4h2v2h-2zm4 0h2v2h-2zm4 0h2v2h-2zm4 0h2v2h-2zm4 0h2v2h-2zm4 0h2v2h-2zm-20 4h2v2h-2zm4 0h2v2h-2zm4 0h2v2h-2zm4 0h2v2h-2zm4 0h2v2h-2zm4 0h2v2h-2zm-20 4h2v2h-2zm4 0h2v2h-2zm4 0h2v2h-2zm4 0h2v2h-2zm4 0h2v2h-2zm4 0h2v2h-2zm-20 4h2v2h-2zm4 0h2v2h-2zm4 0h2v2h-2zm4 0h2v2h-2zm4 0h2v2h-2zm4 0h2v2h-2zm-20 4h2v2h-2zm4 0h2v2h-2zm4 0h2v2h-2zm4 0h2v2h-2zm4 0h2v2h-2zm4 0h2v2h-2z" fill="#fae854"/>
 <g transform="translate(-7.3604 .046387)">
  <g transform="translate(-367.74 -425.45)" fill-rule="evenodd">
   <path transform="matrix(3.7796,0,0,3.7796,375.1,-633.14)" d="m5.2917 284.83h6.35c0.29316 0 0.52917 0.236 0.52917 0.52915v6.35c0 0.29315-0.23601 0.52915-0.52917 0.52915h-6.35c-0.29316 0-0.52917-0.236-0.52917-0.52915v-6.35c0-0.29315 0.23601-0.52915 0.52917-0.52915z" filter="url(#f)" opacity=".5"/>
   <g stroke-width="3.7796">
    <path d="m395.1 443.4h24c1.108 0 2 0.89198 2 2v24c0 1.108-0.89202 2-2 2h-24c-1.108 0-2-0.89199-2-2v-24c0-1.108 0.89202-2 2-2z" fill="url(#linearGradient1049)"/>
    <path d="m396.1 445.93a0.5 0.5 0 0 1-0.5 0.50001 0.5 0.5 0 0 1-0.50001-0.50001 0.5 0.5 0 0 1 0.50001-0.5 0.5 0.5 0 0 1 0.5 0.5" opacity=".35" style="paint-order:stroke fill markers"/>
    <path d="m419.1 445.93a0.5 0.5 0 0 1-0.5 0.50001 0.5 0.5 0 0 1-0.5-0.50001 0.5 0.5 0 0 1 0.5-0.5 0.5 0.5 0 0 1 0.5 0.5" opacity=".35" style="paint-order:stroke fill markers"/>
    <path d="m396.1 468.95a0.5 0.5 0 0 1-0.5 0.5 0.5 0.5 0 0 1-0.50001-0.5 0.5 0.5 0 0 1 0.50001-0.50001 0.5 0.5 0 0 1 0.5 0.50001" opacity=".35" style="paint-order:stroke fill markers"/>
    <path d="m419.1 468.95a0.5 0.5 0 0 1-0.5 0.5 0.5 0.5 0 0 1-0.5-0.5 0.5 0.5 0 0 1 0.5-0.50001 0.5 0.5 0 0 1 0.5 0.50001" opacity=".35" style="paint-order:stroke fill markers"/>
   </g>
  </g>
  <path d="m34.36 27.5v2h-1v2h-1v1h1v2h1v1h1v-2h1v-1h2v1h1v1h1v1h1v2h1v-1h1v-2h1v-1h1v-1h1v-1h-1v-1h-1v-1h-1v-2h-1v-1h-1v2h-1v1h-1v1h-1v1h-2v-1h-1v-3z" fill="#c1c1c5" stroke-linecap="round" stroke-width="2"/>
 </g>
</svg>
