<?xml version="1.0" encoding="UTF-8"?>
<!-- Created with Inkscape (http://www.inkscape.org/) -->
<svg width="64" height="64" version="1.1" viewBox="0 0 16.933 16.933" xmlns="http://www.w3.org/2000/svg" xmlns:cc="http://creativecommons.org/ns#" xmlns:dc="http://purl.org/dc/elements/1.1/" xmlns:rdf="http://www.w3.org/1999/02/22-rdf-syntax-ns#" xmlns:xlink="http://www.w3.org/1999/xlink">
 <defs>
  <linearGradient id="linearGradient1404" x1="8.3684" x2="8.3684" y1="1.2398" y2="15.317" gradientTransform="matrix(.83333 0 0 .83333 1.4111 1.4111)" gradientUnits="userSpaceOnUse">
   <stop stop-color="#f3f4f6" offset="0"/>
   <stop stop-color="#ecf8ec" offset="1"/>
  </linearGradient>
  <linearGradient id="linearGradient4688" x1="8.3684" x2="8.3684" y1="1.2398" y2="15.317" gradientUnits="userSpaceOnUse">
   <stop stop-color="#56cf49" offset="0"/>
   <stop stop-color="#5ddb4d" offset="1"/>
  </linearGradient>
 </defs>
 <metadata>
  <rdf:RDF>
   <cc:Work rdf:about="">
    <dc:format>image/svg+xml</dc:format>
    <dc:type rdf:resource="http://purl.org/dc/dcmitype/StillImage"/>
   </cc:Work>
  </rdf:RDF>
 </metadata>
 <circle cx="8.4665" cy="8.4665" r="7.9373" fill="url(#linearGradient4688)" fill-rule="evenodd" style="paint-order:stroke fill markers"/>
 <circle cx="8.4665" cy="8.4665" r="6.6145" fill="url(#linearGradient1404)" fill-rule="evenodd" style="paint-order:stroke fill markers"/>
 <path d="m5.5289 6.2946 0.76845-0.076637c0.043867-0.00447 0.075553-0.043034 0.071169-0.086937 0 0-0.074504-0.64952-0.092554-0.83066l-2.247e-4 -0.00384c-0.014872-0.14849 0.00396-0.28173 0.048889-0.39527l0.020637-0.051112c-0.00228-1.086e-4 -0.00623 0.00347-0.00785 0.00592l-1.3473 1.6114c-0.00216 0.00374-0.00312 0.00663-0.00412 0.00997 0.028901-0.019173 0.069205-0.043592 0.075174-0.046761 0.12429-0.071456 0.27801-0.11854 0.46756-0.13745m5.9599-0.75504c-0.092916-0.31733-0.30197-0.45616-0.48475-0.50174-0.19633-0.049396-0.58764-0.080052-1.0747-0.088107-0.39363-0.0074778-0.84926 0.041565-1.1245 0.07762-0.05499-0.22055-0.2347-0.40884-0.41955-0.4627-0.4927-0.14012-1.2203-0.021996-1.4033 0.049046-0.14446 0.054936-0.30251 0.15654-0.38072 0.29571-0.053229 0.093634-0.082197 0.20969-0.066677 0.3653 0.00862 0.08748 0.031922 0.29513 0.052827 0.47975 0.021179 0.18713 0.040023 0.35088 0.040023 0.35088 0.016452 0.16527-0.10527 0.3126-0.27266 0.33305l-0.76845 0.076569c-0.16402 0.016388-0.28678 0.055607-0.37715 0.10772-0.091796 0.053498-0.15397 0.11719-0.19809 0.1917-0.089749 0.14664-0.090189 0.31609-0.073077 0.48727 0 0 0.014916 0.13714 0.075977 0.40609 0.050267 0.20875 0.42621 1.6521 0.6892 2.0738 0.10231 0.16555 0.16548 0.23154 0.33962 0.29152 0.38634 0.1199 1.2525 0.21022 1.6538 0.22083 0.40243 0.0099 0.66104 0.09129 0.77909-0.22851 0.00104 5.1e-5 0.022887-0.079658 0.051878-0.19537 0.090441-0.39815 0.073361-0.74288 0.048646-0.99093-0.00251-0.024458 0.035129-0.029317 0.037663-0.00375 0.017448 0.17525 0.045234 0.79736 0.5346 0.91676 0.19393 0.046883 0.58627 0.066492 0.98452 0.072533 0.36039 0.00425 0.6319 0.11742 0.72192 1.0209 0.05483 0.54965-0.05467 0.63413-0.66378 0.69484-0.49488 0.04927-0.68187 0.08144-0.72062-0.30759-0.031417-0.31496 0.28711-0.31088 0.5193-0.33404 0.10333-0.01053 0.020392-0.07932 0.00117-0.27264-0.019162-0.19206 0.091375-0.31621-0.024279-0.30689-0.80581 0.05843-1.2778 0.12611-1.1786 1.1205 0.090048 0.90322 0.45691 1.0361 1.5986 0.92225 0.89479-0.08923 1.2081-0.15118 1.4645-1.321 0.05059-0.23101 0.16019-0.93192 0.15253-2.0904-0.0053-0.73122-0.35473-2.9065-0.51463-3.4507m-1.3182 2.5747c-0.11098 0.00618-0.21719 0.025423-0.31645 0.051333 0.00817-0.22684 0.073367-0.5096 0.40137-0.53005 0.36722-0.024443 0.45234 0.31231 0.47661 0.54309-0.16118-0.052742-0.35413-0.077533-0.56279-0.064346" fill="#64d955" stroke-width=".34487"/>
</svg>
