<?xml version="1.0" encoding="UTF-8"?>
<svg width="64" height="64" version="1.1" viewBox="0 0 16.933 16.933" xmlns="http://www.w3.org/2000/svg" xmlns:cc="http://creativecommons.org/ns#" xmlns:dc="http://purl.org/dc/elements/1.1/" xmlns:rdf="http://www.w3.org/1999/02/22-rdf-syntax-ns#" xmlns:xlink="http://www.w3.org/1999/xlink">
 <defs>
  <linearGradient id="a-3-3-1" x1="32" x2="32" y1="2" y2="62" gradientTransform="matrix(.2646 0 0 .2646 1.7563 .53394)" gradientUnits="userSpaceOnUse">
   <stop stop-color="#f5faff" offset="0"/>
   <stop stop-color="#cfdef0" offset="1"/>
  </linearGradient>
  <linearGradient id="linearGradient1013" x1="190" x2="190" y1="34" y2="8" gradientTransform="matrix(.16893 0 0 .16893 -21.981 3.9719)" gradientUnits="userSpaceOnUse">
   <stop stop-color="#b3e5fa" offset="0"/>
   <stop stop-color="#fefefd" offset="1"/>
  </linearGradient>
  <linearGradient id="linearGradient1015" x1="190" x2="190" y1="34" y2="8" gradientTransform="matrix(.16893 0 0 .16893 -21.981 3.9719)" gradientUnits="userSpaceOnUse">
   <stop stop-color="#8fd9f9" offset="0"/>
   <stop stop-color="#e1f4fd" offset="1"/>
  </linearGradient>
  <linearGradient id="linearGradient1017" x1="190" x2="212" y1="41" y2="41" gradientTransform="matrix(.16893 0 0 .16893 -21.981 3.9719)" gradientUnits="userSpaceOnUse">
   <stop stop-color="#1a9cf1" offset="0"/>
   <stop stop-color="#2fa1ec" offset="1"/>
  </linearGradient>
  <linearGradient id="linearGradient1019" x1="168" x2="190" y1="41" y2="41" gradientTransform="matrix(.16893 0 0 .16893 -21.981 3.9719)" gradientUnits="userSpaceOnUse">
   <stop stop-color="#329ee5" offset="0"/>
   <stop stop-color="#2696de" offset="1"/>
  </linearGradient>
  <linearGradient id="linearGradient1021" x1="140" x2="175" y1="10" y2="8" gradientTransform="matrix(.16893 0 0 .16893 -19.447 3.9719)" gradientUnits="userSpaceOnUse">
   <stop stop-color="#38bdfd" offset="0"/>
   <stop stop-color="#1795e6" offset="1"/>
  </linearGradient>
  <linearGradient id="linearGradient1023" x1="175" x2="210.48" y1="8.5" y2="8.5" gradientTransform="matrix(.16893 0 0 .16893 -19.447 3.9719)" gradientUnits="userSpaceOnUse">
   <stop stop-color="#27a3ed" offset="0"/>
   <stop stop-color="#3dbfff" offset="1"/>
  </linearGradient>
  <linearGradient id="linearGradient1025" x1="155" x2="190" y1="33.5" y2="33.5" gradientTransform="matrix(.16893 0 0 .16893 -21.981 3.9719)" gradientUnits="userSpaceOnUse">
   <stop stop-color="#1ca5f9" offset="0"/>
   <stop stop-color="#2ca6eb" offset="1"/>
  </linearGradient>
  <linearGradient id="linearGradient1027" x1="190" x2="225" y1="33.5" y2="33.5" gradientTransform="matrix(.16893 0 0 .16893 -21.981 3.9719)" gradientUnits="userSpaceOnUse">
   <stop stop-color="#1993e7" offset="0"/>
   <stop stop-color="#4ac7fe" offset="1"/>
  </linearGradient>
  <linearGradient id="linearGradient1029" x1="189.58" x2="189.97" y1="47.5" y2="47.5" gradientTransform="matrix(.16893 0 0 .16893 -21.981 3.9719)" gradientUnits="userSpaceOnUse">
   <stop stop-color="#2797df" offset="0"/>
   <stop stop-color="#1c9cf1" offset="1"/>
  </linearGradient>
 </defs>
 <metadata>
  <rdf:RDF>
   <cc:Work rdf:about="">
    <dc:format>image/svg+xml</dc:format>
    <dc:type rdf:resource="http://purl.org/dc/dcmitype/StillImage"/>
    <dc:title/>
   </cc:Work>
  </rdf:RDF>
 </metadata>
 <g transform="translate(-1.6896 -.31982)">
  <circle cx="10.156" cy="8.7865" r="7.9378" fill="url(#a-3-3-1)" stroke-width=".2646" style="paint-order:stroke markers fill"/>
  <g>
   <g stroke-width=".17215">
    <path d="m10.116 5.3234-3.7165 2.1961v4.7301l3.7165-2.534z" fill="url(#linearGradient1013)"/>
    <path d="m10.116 5.3234 3.7165 2.1961v4.7301l-3.7165-2.534z" fill="url(#linearGradient1015)"/>
    <path d="m10.116 9.7156 3.7165-2.1961v4.7301l-3.7165 2.0272z" fill="url(#linearGradient1017)"/>
    <path d="m10.116 9.7156-3.7165-2.1961v4.7301l3.7165 2.0272z" fill="url(#linearGradient1019)"/>
    <path d="m7.7507 3.2962-3.5476 2.3651 2.1961 1.8583 3.7165-2.1961z" fill="url(#linearGradient1021)"/>
    <path d="m12.481 3.2962 3.6286 2.1961-2.2771 2.0272-3.7165-2.1961z" fill="url(#linearGradient1023)"/>
    <path d="m10.116 9.7156-3.7165-2.1961-2.1961 1.8583 3.5476 2.3651z" fill="url(#linearGradient1025)"/>
    <path d="m10.116 9.7156 3.7165-2.1961 2.1961 1.8583-3.5476 2.3651z" fill="url(#linearGradient1027)"/>
   </g>
   <path d="m10.116 9.7156-0.18906 0.16893-0.00135 4.2847 0.19041 0.10756 0.19038-0.10756-0.0014-4.2847z" fill="url(#linearGradient1029)"/>
  </g>
 </g>
</svg>
