<?xml version="1.0" encoding="UTF-8"?>
<svg width="64" height="64" version="1.1" viewBox="0 0 16.933 16.933" xmlns="http://www.w3.org/2000/svg" xmlns:cc="http://creativecommons.org/ns#" xmlns:dc="http://purl.org/dc/elements/1.1/" xmlns:rdf="http://www.w3.org/1999/02/22-rdf-syntax-ns#">
 <defs>
  <linearGradient id="linearGradient1005" x1=".73911" x2="16.388" y1="16.296" y2=".64687" gradientTransform="translate(16.964 .42247)" gradientUnits="userSpaceOnUse">
   <stop stop-color="#00a0ff" offset="0"/>
   <stop stop-color="#37beff" offset="1"/>
  </linearGradient>
  <filter id="a" color-interpolation-filters="sRGB">
   <feColorMatrix result="result7" values="1 0 0 0 0 0 1 0 0 0 0 0 1 0 0 0 0 0 1 0"/>
   <feGaussianBlur result="result6" stdDeviation="5"/>
   <feComposite in="result6" in2="result7" operator="atop" result="result91"/>
   <feComposite in2="result91" operator="in"/>
  </filter>
 </defs>
 <metadata>
  <rdf:RDF>
   <cc:Work rdf:about="">
    <dc:format>image/svg+xml</dc:format>
    <dc:type rdf:resource="http://purl.org/dc/dcmitype/StillImage"/>
    <dc:title/>
   </cc:Work>
  </rdf:RDF>
 </metadata>
 <g transform="translate(-16.999 -.41577)">
  <path d="m33.404 8.8824c0 0.95155-0.1675 1.8638-0.47464 2.7094-0.2135 0.5877-0.4944 1.1433-0.83392 1.6573-0.14222 0.21609-0.29514 0.42474-0.45747 0.62529-0.51964 0.6418-1.1372 1.2007-1.8305 1.6543-0.25531 0.16718-0.52065 0.3201-0.79537 0.45712-1.0668 0.53391-2.2712 0.83421-3.5457 0.83421-1.2745 0-2.4789-0.30033-3.5457-0.83424-0.27474-0.13705-0.54042-0.28996-0.79571-0.45712-0.70208-0.45974-1.327-1.0274-1.8509-1.6799-0.16262-0.20216-0.31523-0.41275-0.45747-0.63077-0.33047-0.50538-0.60421-1.0507-0.81349-1.627-0.3071-0.8453-0.4743-1.7572-0.4743-2.7086 0-4.3839 3.5536-7.9376 7.9376-7.9376 2.2006 0 4.1918 0.89549 5.6296 2.3417 0.41437 0.41662 0.78275 0.8793 1.0963 1.3795 0.29644 0.47107 0.54428 0.97582 0.73706 1.5068 0.30718 0.84559 0.47467 1.758 0.47467 2.7094z" fill="url(#linearGradient1005)" stroke-width=".031007"/>
  <g fill="#fff">
   <circle cx="28.862" cy="8.4124" r="1.389" opacity=".25" style="paint-order:stroke markers fill"/>
   <circle cx="28.862" cy="8.4124" r="1.389" opacity=".25" style="paint-order:stroke markers fill"/>
   <circle cx="25.775" cy="8.5724" r="3.0871" style="paint-order:stroke markers fill"/>
   <circle cx="25.687" cy="9.1024" r="2.6461" style="paint-order:stroke markers fill"/>
   <circle cx="22.38" cy="9.8024" r="2.469" style="paint-order:stroke markers fill"/>
   <circle cx="22.777" cy="10.162" r="2.117" style="paint-order:stroke markers fill"/>
   <circle cx="29.171" cy="10.422" r="1.852" style="paint-order:stroke markers fill"/>
   <circle cx="28.598" cy="10.692" r="1.587" style="paint-order:stroke markers fill"/>
   <path d="m22.38 8.8824h6.7911v3.3951h-6.7911z" style="paint-order:stroke markers fill"/>
   <path d="m22.777 9.3624h5.8211v2.9101h-5.8211z" style="paint-order:stroke markers fill"/>
  </g>
  <path d="m25.43 7.3064a1.426 1.426 0 1 0 0 2.8521 1.426 1.426 0 0 0 0-2.8521zm6e-3 0.62601a0.80502 0.80502 0 0 1 0.80502 0.80502 0.80502 0.80502 0 0 1-0.80502 0.80502 0.80502 0.80502 0 0 1-0.80502-0.80502 0.80502 0.80502 0 0 1 0.80502-0.80502z" fill="#32abff"/>
  <path d="m27.044 8.8364c-0.37401 0-0.70801 0.148-0.96202 0.38201l0.40801 0.47201a0.85102 0.85102 0 0 1 0.108-0.090002 0.71601 0.71601 0 0 1 0.35601-0.127c0.044-4e-3 0.09-2e-3 0.14 0a0.75101 0.75101 0 0 1 0.66301 0.43301 0.82902 0.82902 0 0 1 0.085 0.40201v2e-3a0.31301 0.31301 0 0 0 0.62501 0v-0.051c0-0.024-2e-3 -0.049-4e-3 -0.073l-1e-3 -0.01-1e-3 -0.025h-1e-3a1.421 1.421 0 0 0-1.417-1.315m-3.2541-4e-3a1.426 1.426 0 1 0 0 2.8521 1.426 1.426 0 0 0 0-2.8521zm6e-3 0.62601a0.80502 0.80502 0 0 1 0.80402 0.80502 0.80502 0.80502 0 0 1-0.80402 0.80502 0.80502 0.80502 0 0 1-0.80502-0.80502 0.80502 0.80502 0 0 1 0.80502-0.80502z" fill="#32abff"/>
  <path transform="matrix(.20374 0 0 .20374 22.362 7.3024)" d="m6.973 7.471c-0.365 0-0.744 0.04-1.094 0.094a2.842 2.842 0 0 1 1.719 2.594c0 0.16-0.036 0.316-0.063 0.469a3.839 3.839 0 0 1 2.938 2.063c0.791 1.577 0.522 3.357-0.719 4.594 0.962-0.959 2.934-2.702 4.156-3.844-0.512-3.375-3.409-5.969-6.938-5.969z" fill="#f44" filter="url(#a)"/>
  <path d="m24.408 11.362-0.65201 0.026 2.295-2.13 0.41001 0.46001-1.78 1.653z" fill="#32abff"/>
  <circle cx="28.168" cy="11.142" r=".30601" fill="#32abff"/>
 </g>
</svg>
