<?xml version="1.0" encoding="UTF-8"?>
<svg width="64" height="64" version="1.1" viewBox="0 0 16.933 16.933" xmlns="http://www.w3.org/2000/svg" xmlns:cc="http://creativecommons.org/ns#" xmlns:dc="http://purl.org/dc/elements/1.1/" xmlns:rdf="http://www.w3.org/1999/02/22-rdf-syntax-ns#">
 <defs>
  <linearGradient id="linearGradient1005-3-3-3" x1=".58962" x2="16.342" y1="16.388" y2=".50253" gradientTransform="matrix(.99999 0 0 .99999 14.98 .89488)" gradientUnits="userSpaceOnUse">
   <stop stop-color="#fe6f06" offset="0"/>
   <stop stop-color="#ff9002" offset="1"/>
  </linearGradient>
 </defs>
 <metadata>
  <rdf:RDF>
   <cc:Work rdf:about="">
    <dc:format>image/svg+xml</dc:format>
    <dc:type rdf:resource="http://purl.org/dc/dcmitype/StillImage"/>
    <dc:title/>
   </cc:Work>
  </rdf:RDF>
 </metadata>
 <g transform="translate(-15.015 -.88824)">
  <path d="m31.419 9.3549c0 0.95155-0.16749 1.8639-0.47464 2.7093-0.2135 0.58769-0.4944 1.1433-0.83394 1.6572-0.14222 0.21608-0.29514 0.42476-0.45746 0.62529-0.51964 0.6418-1.1372 1.2007-1.8305 1.6543-0.2553 0.16717-0.52065 0.32009-0.79536 0.45712-1.0668 0.5339-2.2711 0.8342-3.5457 0.8342-1.2746 0-2.4788-0.30033-3.5457-0.83423-0.27474-0.13705-0.54041-0.28996-0.79571-0.45712-0.70207-0.45974-1.327-1.0274-1.8509-1.6798-0.16262-0.20216-0.31522-0.41275-0.45746-0.63077-0.33046-0.50541-0.6042-1.0507-0.81349-1.627-0.3071-0.84529-0.47429-1.7573-0.47429-2.7085 0-4.3839 3.5536-7.9375 7.9375-7.9375 2.2005 0 4.1918 0.89548 5.6295 2.3417 0.41436 0.41661 0.78274 0.87929 1.0963 1.3795 0.29644 0.47106 0.54427 0.97581 0.73705 1.5068 0.30718 0.84558 0.47466 1.7579 0.47466 2.7093z" fill="url(#linearGradient1005-3-3-3)" stroke-width=".031006"/>
  <path d="m21.126 5.4745 0.37597 1.4032c-0.1706 0.053231-0.48908 0.13105-0.65431 0.17532l-1.0997 0.29464 0.18799 0.7016s0.60013-0.17208 0.59333-0.15898c0.3215-0.091408 0.4871 0.1154 0.5624 0.26273l0.93057 3.4729c0.01409 0.10208 0.09025 0.34428-0.13348 0.41174 0.01286 0.0063-0.82492 0.22104-0.82492 0.22104l0.18799 0.7016 1.1414-0.30586c0.19112-0.05873 0.42608-0.11417 0.61251-0.16412l0.37597 1.4032 0.6981-0.20101-0.37248-1.3902 0.69064-0.18506 0.39791 1.3973 0.7016-0.18799-0.39791-1.3973c2.1157-0.5669 1.8337-1.6193 1.6925-2.1461-0.14081-0.52549-0.5511-1.1668-1.3812-0.94509 0.47929-0.12771 0.48948-0.97957 0.3256-1.5912-0.21211-0.79161-1.0776-1.2152-2.1299-0.93319l-0.37597-1.4032-0.7016 0.18799 0.37597 1.4032c-0.20951 0.056137-0.49096 0.12328-0.7016 0.18799l-0.37597-1.4032zm1.2656 1.9168c0.7016-0.18799 1.7541-0.46998 1.989 0.40701 0.23513 0.87701-0.8174 1.159-1.519 1.3469zm0.65797 2.4555c1.4032-0.37595 2.1049-0.56399 2.3397 0.313 0.23515 0.87701-0.46659 1.065-1.8698 1.4409z" fill="#fff" stroke-width=".269"/>
 </g>
</svg>
