<?xml version="1.0" encoding="UTF-8"?>
<svg width="64" height="64" version="1.1" viewBox="0 0 16.933 16.933" xmlns="http://www.w3.org/2000/svg" xmlns:cc="http://creativecommons.org/ns#" xmlns:dc="http://purl.org/dc/elements/1.1/" xmlns:rdf="http://www.w3.org/1999/02/22-rdf-syntax-ns#">
 <defs>
  <linearGradient id="linearGradient3008" x1="-47.857" x2="1.942" y1="185.5" y2="181.83" gradientTransform="matrix(.31993 0 0 .31993 28.843 -52.562)" gradientUnits="userSpaceOnUse">
   <stop stop-color="#15c4fc" offset="0"/>
   <stop stop-color="#1863ee" offset="1"/>
  </linearGradient>
 </defs>
 <metadata>
  <rdf:RDF>
   <cc:Work rdf:about="">
    <dc:format>image/svg+xml</dc:format>
    <dc:type rdf:resource="http://purl.org/dc/dcmitype/StillImage"/>
    <dc:title/>
   </cc:Work>
  </rdf:RDF>
 </metadata>
 <g transform="translate(-13.22 3.8365)">
  <path d="m29.624 4.6302c0 0.95155-0.16749 1.8638-0.47464 2.7093-0.2135 0.58769-0.4944 1.1433-0.83391 1.6572-0.14222 0.21609-0.29514 0.42474-0.45746 0.62529-0.51964 0.6418-1.1372 1.2007-1.8304 1.6543-0.2553 0.16717-0.52065 0.32009-0.79536 0.45712-1.0668 0.5339-2.2712 0.8342-3.5457 0.8342-1.2745 0-2.4789-0.30033-3.5457-0.83423-0.27474-0.13705-0.54041-0.28996-0.79571-0.45712-0.70207-0.45974-1.327-1.0274-1.8508-1.6798-0.16262-0.20216-0.31522-0.41275-0.45746-0.63077-0.33046-0.50538-0.6042-1.0507-0.81349-1.627-0.3071-0.84529-0.47429-1.7572-0.47429-2.7085 0-4.3839 3.5536-7.9375 7.9375-7.9375 2.2005 0 4.1918 0.89548 5.6295 2.3416 0.41436 0.41661 0.78274 0.87929 1.0963 1.3795 0.29644 0.47106 0.54427 0.97581 0.73705 1.5068 0.30718 0.84558 0.47466 1.7579 0.47466 2.7093z" fill="url(#linearGradient3008)" stroke-width=".031006"/>
  <path d="m19.372 0.6207a4.6321 4.6321 0 0 0-1.6954 6.3275 4.6321 4.6321 0 0 0 4.2196 2.3073c-0.97658-0.017587-1.8783-0.50726-2.512-1.6014-0.53819-0.92795-0.68302-2.0043-0.40915-3.0321 0.27593-1.0327 0.94202-1.8989 1.8783-2.4394l0.34774 0.6023c-0.77478 0.4473-1.3265 1.164-1.5541 2.0163-0.22647 0.84807-0.10563 1.7363 0.33838 2.5033 0.81484 1.4058 2.2659 1.9615 3.6859 1.4311-0.26354 0.072284-0.54131 0.093972-0.82748 0.036856-1.7519-0.1389-3.0284-1.4617-3.035-3.1454-3e-3 -0.80142 0.31758-1.566 0.90281-2.153 0.59582-0.59801 1.383-0.92784 2.2151-0.92805l3.97e-4 0.6966c-0.6458 2.646e-4 -1.2575 0.25644-1.7223 0.72316-0.45379 0.45432-0.7013 1.0436-0.69961 1.6583 0.0047 1.3134 1.0117 2.3456 2.3943 2.4545 1.7038 0.13353 2.4288-0.6028 2.699-0.99761-0.38386 0.3193-0.71382 0.52647-1.8397 0.72398-0.96507 0.1701-1.645-0.16694-1.8331-0.27485-0.0012-1.571e-4 -0.01972-0.011591-0.02754-0.016793-0.0053-0.00246-0.01237-0.00654-0.01237-0.00654l1e-3 -5.027e-4c-4e-3 -0.00246-0.01441-0.00842-0.01492-0.00926l5.29e-4 -0.00246c-0.31388-0.19375-0.5647-0.4541-0.73858-0.75531-0.37502-0.64958-0.40336-1.4762-0.0024-2.171 0.28998-0.50131 0.75734-0.86095 1.3167-1.0109 0.55988-0.14906 1.1438-0.072432 1.6451 0.21756l0.02032 0.012631-0.36806 0.58986c-0.34078-0.19637-0.73782-0.24886-1.117-0.14726-0.38013 0.10213-0.69768 0.34597-0.89461 0.6858-0.27154 0.47249-0.25253 1.0335 0.0021 1.4744 0.12466 0.21592 0.3062 0.40291 0.53718 0.53689 3.97e-4 5.027e-4 -0.09381-0.055957 0.0042 0.00246 0.09785 0.058431 0.60066 0.32425 1.3605 0.19041 1.2521-0.22002 1.9584-0.6808 2.4428-1.0343a4.6321 4.6321 0 0 0-0.38082-3.7693 4.6321 4.6321 0 0 0-6.3275-1.6954zm6.4667 6.06c-0.03262 0.065725-0.07551 0.14169-0.11561 0.21516a4.6321 4.6321 0 0 0 0.11561-0.21516zm-2.2594 2.1789a4.6321 4.6321 0 0 0 0.27271-0.13832c-0.09046 0.049646-0.18151 0.095202-0.27271 0.13832zm0.75504-0.42918c-0.04579 0.02893-0.0905 0.059817-0.13778 0.086278-0.10776 0.069813-0.21652 0.13503-0.32578 0.19567a4.6321 4.6321 0 0 0 0.13336-0.068342 4.6321 4.6321 0 0 0 0.33036-0.21339z" fill="#fff" fill-opacity=".9962" stroke-width=".43011"/>
 </g>
</svg>
