<?xml version="1.0" encoding="UTF-8"?>
<svg width="64" height="64" version="1.1" viewBox="0 0 16.933 16.933" xmlns="http://www.w3.org/2000/svg" xmlns:cc="http://creativecommons.org/ns#" xmlns:dc="http://purl.org/dc/elements/1.1/" xmlns:rdf="http://www.w3.org/1999/02/22-rdf-syntax-ns#">
 <defs>
  <linearGradient id="linearGradient1891" x1="-14.019" x2="1.8552" y1="-8.72" y2="-8.72" gradientTransform="translate(14.549 17.186)" gradientUnits="userSpaceOnUse">
   <stop stop-color="#15c4fc" offset="0"/>
   <stop stop-color="#1863ee" offset="1"/>
  </linearGradient>
 </defs>
 <metadata>
  <rdf:RDF>
   <cc:Work rdf:about="">
    <dc:format>image/svg+xml</dc:format>
    <dc:type rdf:resource="http://purl.org/dc/dcmitype/StillImage"/>
   </cc:Work>
  </rdf:RDF>
 </metadata>
 <circle cx="8.4665" cy="8.4665" r="7.9373" fill="url(#linearGradient1891)" fill-rule="evenodd" stroke-linejoin="round" stroke-width=".40059"/>
 <path d="m13.759 3.175c0-0.01487-0.16931 0.10082-0.37637 0.25696-1.9477 1.4689-4.3823 2.7535-5.7454 3.0316l-0.25701 0.052536-0.097441 0.25589c-0.33949 0.89247-1.3045 1.5254-2.8175 1.8477-0.23904 0.05093-0.49549 0.12355-0.56981 0.16134-0.22963 0.11675-0.49644 0.38386-0.61706 0.61791-0.097451 0.189-0.11253 0.27051-0.097806 0.52673 0.012383 0.21564 0.042137 0.32986 0.10306 0.39603 0.081928 0.08902 0.28615 0.13571 0.23455 0.0536-0.040577-0.06457 0.15169-0.2704 0.34179-0.36576 0.30779-0.15438 0.78597-0.22735 1.2863-0.22062 0.089334 0.0016 0.1968 0.0055 0.27093 0.01122 0.37468 0.02651 0.74713 0.09712 1.0563 0.21262 0.16624 0.06211 0.30702 0.1366 0.42127 0.22045 0.42659 0.2185 0.78544 0.50279 1.0869 0.83106 2.566e-4 -0.0109 0.00132-0.02127 0.00132-0.03239 0.00185-0.2158 0.00942-0.39238 0.016272-0.39248 0.00688-8.4e-5 0.034065 0.05519 0.060309 0.12305 0.063638 0.16432 0.096795 0.33729 0.10306 0.51123 0.57219 0.71056 0.91054 1.586 1.1092 2.431 0.26477-0.45106 0.51562-1.0476 0.51673-1.2912 0.00159-0.3606 0.25577 0.34724 0.33597 0.93594l0.05543 0.40762 0.10052-0.24681c0.16803-0.4127 0.24694-0.84421 0.24741-1.3524 2.54e-4 -0.26272-0.01307-0.52009-0.02989-0.57198-0.01672-0.05189-0.0122-0.09438 0.01021-0.09438 0.05502 0 0.49265 0.43844 0.60476 0.60579 0.10579 0.15791 0.11382 0.08895 0.02697-0.23167-0.22963-0.84791-0.88826-1.6468-1.828-2.2173l-0.36314-0.22045 0.18076-0.0053c0.099335-0.0029 0.24221-0.019 0.3175-0.03578l0.13692-0.03046-0.18256-0.06108-0.18256-0.06126 0.2925-0.05876c0.16092-0.03232 0.43828-0.12654 0.61616-0.20941l0.32329-0.15065-0.41061 0.01601-0.41077 0.01601 0.31948-0.10596c0.4445-0.14749 1.2973-0.58772 1.2427-0.6414-0.0077-0.00767-0.16736 0.025347-0.35462 0.073189-0.55057 0.14057-0.6087 0.10978-0.1784-0.094554 0.41889-0.19891 1.0084-0.57317 1.2981-0.82412l0.18257-0.15813-0.34213 0.15171c-0.29064 0.12887-0.95403 0.34065-1.0672 0.34065-0.01908 0 0.09784-0.067863 0.25972-0.15082 0.4635-0.23752 0.88236-0.55208 1.4004-1.0513l0.47924-0.46191-0.38777 0.2014c-0.36677 0.19036-1.1409 0.53229-1.1409 0.50395 0-0.0072 0.09759-0.080978 0.2168-0.16383 0.4626-0.32147 1.2815-1.1709 1.7663-1.8318l0.17606-0.23987-0.43161 0.33158c-0.4608 0.35414-1.4019 0.95438-1.4392 0.91779-0.01225-0.012065 0.03354-0.058058 0.10179-0.10204 0.20151-0.12981 1.0885-1.1149 1.5761-1.7502 0.24872-0.32411 0.45225-0.60145 0.45225-0.61632z" fill="#fff" stroke-width=".26458"/>
</svg>
