<?xml version="1.0" encoding="UTF-8"?>
<svg width="64" height="64" version="1.1" viewBox="0 0 16.933 16.933" xmlns="http://www.w3.org/2000/svg" xmlns:cc="http://creativecommons.org/ns#" xmlns:dc="http://purl.org/dc/elements/1.1/" xmlns:rdf="http://www.w3.org/1999/02/22-rdf-syntax-ns#" xmlns:xlink="http://www.w3.org/1999/xlink">
 <defs>
  <linearGradient id="b-5-6" x1="9.2603" x2="9.2603" y1="-.26249" y2="15.612" gradientTransform="matrix(1 0 0 1 3.4962 7.4913)" gradientUnits="userSpaceOnUse">
   <stop stop-color="#1c1d1d" offset="0"/>
   <stop stop-color="#313232" offset="1"/>
  </linearGradient>
  <filter id="e-9" x="-.059473" y="-.060537" width="1.1189" height="1.1211" color-interpolation-filters="sRGB">
   <feGaussianBlur stdDeviation="1.3378352"/>
  </filter>
  <linearGradient id="h-5" x1="8.4665" x2="8.4665" y1="12.477" y2="15.356" gradientTransform="matrix(.71685 -.19208 .19305 .72047 5.0772 10.784)" gradientUnits="userSpaceOnUse">
   <stop stop-color="#f3f3f3" offset="0"/>
   <stop stop-color="#e4e4e4" offset="1"/>
  </linearGradient>
  <filter id="m-2" x="-.020048" y="-.17621" width="1.0401" height="1.3524" color-interpolation-filters="sRGB">
   <feGaussianBlur stdDeviation="0.43981933"/>
  </filter>
  <filter id="j-5" x="-.086731" y="-.42391" width="1.1735" height="1.8478" color-interpolation-filters="sRGB">
   <feGaussianBlur stdDeviation="0.70652346"/>
  </filter>
  <radialGradient id="g-3" cx="32" cy="53.196" r="9.9092" gradientTransform="matrix(.26931 -.072161 .025135 .093802 3.6339 15.592)" gradientUnits="userSpaceOnUse">
   <stop stop-color="#fdfdfd" offset="0"/>
   <stop stop-color="#f5f5f5" offset=".47277"/>
   <stop stop-color="#cecece" offset="1"/>
  </radialGradient>
  <clipPath id="o-7">
   <path d="m3.8141 1.3806c-0.14028-2.209e-4 -0.26185 0.020571-0.36044 0.064518-0.1604 0.053363-0.22836 0.15334-0.27462 0.31627l-1.6871 9.643c-0.00543 0.05166-0.00166 0.10148 0.00959 0.14934 0.0045 0.01915 0.010275 0.03801 0.017163 0.05639 0.00344 0.0092 0.0071 0.01811 0.011106 0.02707 0.012032 0.02688 0.026643 0.05287 0.043414 0.0776 0.027952 0.04121 0.061865 0.07932 0.10096 0.11325 0.00782 0.0067 0.016025 0.01344 0.024231 0.01985 0.04103 0.03229 0.086637 0.06037 0.13579 0.08347 0.00983 0.0045 0.019689 0.0088 0.029784 0.01308 0.090854 0.03794 0.19221 0.05911 0.29632 0.05911h3.7457a3.4959 5.0429 0 0 1 2.5604-1.6184 3.4959 5.0429 0 0 1 2.5619 1.6184h3.7442c0.24291 0 0.46967-0.11569 0.5871-0.28875 0.01678-0.02472 0.03138-0.05071 0.04341-0.0776 4e-3 -0.0089 0.0081-0.01791 0.01161-0.02707 0.0068-0.01837 0.01217-0.03727 0.01666-0.05639 0.01125-0.04786 0.01502-0.09813 0.0096-0.14979l-1.9456-9.6425c-0.04627-0.16293-0.11422-0.26291-0.27462-0.31627-0.09859-0.043939-0.22016-0.064739-0.36044-0.064518h-4.3939z" fill="#929292"/>
  </clipPath>
  <filter id="l-6" x="-.054752" y="-.06636" width="1.1095" height="1.1327" color-interpolation-filters="sRGB">
   <feGaussianBlur stdDeviation="0.30190621"/>
  </filter>
  <filter id="k-9" x="-.041258" y="-.10994" width="1.0825" height="1.2199" color-interpolation-filters="sRGB">
   <feGaussianBlur stdDeviation="0.34069824"/>
  </filter>
  <radialGradient id="d-3" cx="7.9373" cy="13.903" r="7.142" gradientTransform="matrix(.80071 -.21455 .2503 .93415 3.4012 7.1985)" gradientUnits="userSpaceOnUse">
   <stop stop-color="#fff" offset="0"/>
   <stop stop-color="#fff" stop-opacity="0" offset="1"/>
  </radialGradient>
  <filter id="n-6" x="-.019841" y="-.23809" width="1.0397" height="1.4762" color-interpolation-filters="sRGB">
   <feGaussianBlur stdDeviation="0.1049892"/>
  </filter>
  <radialGradient id="f-1" cx="14.155" cy="14.42" r=".39687" gradientTransform="matrix(.74588 0 0 .74588 2.0815 11.731)" gradientUnits="userSpaceOnUse" xlink:href="#a"/>
  <linearGradient id="a">
   <stop stop-color="#bebebe" offset="0"/>
   <stop stop-color="#464646" offset="1"/>
  </linearGradient>
  <filter id="i-2" x="-.18" y="-.18" width="1.36" height="1.36" color-interpolation-filters="sRGB">
   <feGaussianBlur stdDeviation="0.040504485"/>
  </filter>
  <radialGradient id="c-7" cx="14.155" cy="14.42" r=".39687" gradientTransform="matrix(.49726 0 0 .49726 4.7127 15.316)" gradientUnits="userSpaceOnUse" xlink:href="#a"/>
  <radialGradient id="b-0" cx="14.155" cy="14.42" r=".39687" gradientTransform="matrix(.49726 0 0 .49726 3.9233 15.316)" gradientUnits="userSpaceOnUse" xlink:href="#a"/>
 </defs>
 <metadata>
  <rdf:RDF>
   <cc:Work rdf:about="">
    <dc:format>image/svg+xml</dc:format>
    <dc:type rdf:resource="http://purl.org/dc/dcmitype/StillImage"/>
    <dc:title/>
   </cc:Work>
  </rdf:RDF>
 </metadata>
 <g transform="translate(-4.29 -6.6996)">
  <circle cx="12.757" cy="15.166" r="7.9375" fill="url(#b-5-6)" image-rendering="optimizeSpeed" stroke-width=".963" style="paint-order:stroke markers fill"/>
  <path transform="matrix(.19062 -.051077 .051077 .19062 5.0466 10.792)" d="m14 5c-0.54275-9.566e-4 -1.0131 0.089051-1.3945 0.2793-0.62057 0.23101-0.88354 0.66383-1.0625 1.3691l-6.5273 41.746c-0.021015 0.22364-0.00643 0.43929 0.037109 0.64648 0.00264 0.01257 0.0069 0.0246 0.00977 0.03711-0.00671 0.41826 0.00691 0.85899 0.037109 1.3125 0.036851 1.9891 0.14217 2.4666 0.31836 4.5371 0.096546 1.7208 1.1493 3.1125 2.5762 3.1113l48.012-0.03906c1.427-0.0012 2.4796-1.3515 2.5762-3.0723 0.17617-2.0706 0.28151-2.55 0.31836-4.5391 0.03005-0.45129 0.04154-0.88816 0.03516-1.3047 0.0033-0.01454 0.0087-0.02836 0.01172-0.04297 0.04354-0.2072 0.0582-0.4248 0.03711-0.64844l-7.5273-41.742c-0.179-0.70535-0.44193-1.1382-1.0625-1.3691-0.38144-0.19021-0.85178-0.28025-1.3945-0.2793h-17l-18-0.00195zm18 38.982a13.526 21.831 0 0 1 6.9766 3.1758h-13.959a13.526 21.831 0 0 1 6.9824-3.1758z" filter="url(#e-9)" opacity=".35" stroke-width="3.7796"/>
  <path d="m8.6082 19.473c-0.17024 0.07906-0.087716 0.3705 0.00996 0.65756 0.10859 0.37729 0.15301 0.463 0.29218 0.84874 0.1062 0.32311 0.37693 0.53522 0.6475 0.46248l9.1043-2.4474c0.27058-0.07274 0.40109-0.38391 0.33151-0.71682-0.07234-0.40365-0.07672-0.50009-0.17134-0.88111-0.05895-0.29744-0.13319-0.59106-0.32015-0.57444l-9.1774 2.459z" fill="url(#h-5)" stroke="#000" stroke-opacity=".19608" stroke-width=".19735"/>
  <path transform="matrix(.19062 -.051077 .051077 .19062 5.0466 10.792)" d="m6.7715 45.307c-0.6077 0-1.0977 0.74583-1.0977 1.6719v2.6465c0 0.92605 0.48996 1.6719 1.0977 1.6719h15.867a9.8639 5.1132 0 0 1 9.3613-3.5117 9.8639 5.1132 0 0 1 9.3535 3.5117h15.875c0.6077 0 1.0977-0.74583 1.0977-1.6719v-2.6465c0-0.92605-0.48996-1.6719-1.0977-1.6719h-50.457z" fill-rule="evenodd" filter="url(#m-2)" opacity=".35" style="paint-order:stroke fill markers"/>
  <path transform="matrix(.19062 -.051077 .051077 .19062 4.9959 10.602)" d="m31.855 47a10.294 5.7981 0 0 0-9.7715 4h2.502a10.294 5.7981 0 0 1 7.2695-1.6992 10.294 5.7981 0 0 1 7.2578 1.6992h2.5215a10.294 5.7981 0 0 0-9.7793-4z" fill-rule="evenodd" filter="url(#j-5)" opacity=".35" style="paint-order:stroke fill markers"/>
  <path d="m13.371 17.459a4.5735 2.6692 75 0 0-1.5085 1.9237l0.16716-0.04479a1.2147 2.0316 75 0 1 1.5577-1.0715 1.2147 2.0316 75 0 1 1.8825 0.14964l0.17051-0.04569a4.5735 2.6692 75 0 0-2.2693-0.91147z" fill="url(#g-3)" stroke-width=".74588"/>
  <path d="m7.9705 11.03c-0.10351 0.02754-0.18857 0.06872-0.25156 0.12447-0.1065 0.07574-0.13451 0.17166-0.13261 0.31526l0.88798 8.2913c0.00738 0.04371 0.021213 0.08407 0.040084 0.12134 0.00755 0.01491 0.015984 0.02932 0.025129 0.04314 0.00455 0.0069 0.00926 0.01353 0.014179 0.02015 0.01482 0.0198 0.031335 0.03836 0.049176 0.05546 0.029723 0.02849 0.063169 0.05323 0.099501 0.07349 0.00723 4e-3 0.014791 0.0079 0.022258 0.0116 0.037399 0.01853 0.077243 0.03269 0.11861 0.04204 0.00825 0.0018 0.016476 0.0034 0.02486 0.0049 0.075394 0.01335 0.15482 0.01079 0.23162-0.0098l2.7625-0.74021a4.3082 2.6693 75 0 1 1.5305-1.8414 4.3082 2.6693 75 0 1 2.2473 0.8292l2.7613-0.7399c0.17916-0.048 0.32082-0.18828 0.36915-0.3543 0.0069-0.02371 0.01193-0.04804 0.01486-0.07261 9.69e-4 -0.0082 2e-3 -0.01637 0.0026-0.02464 9.7e-4 -0.01651 7.31e-4 -0.03315-1.84e-4 -0.04982-0.0023-0.04172-0.01061-0.08394-0.02606-0.12549l-3.567-7.5722c-0.070142-0.12528-0.14237-0.19435-0.27246-0.20669-0.082432-0.016775-0.17668-0.0099202-0.28009 0.017987l-6.6718 1.7877z" fill="#b2b2b2" stroke-width=".74588"/>
  <path transform="matrix(.73755 -.19762 .2211 .82517 4.8527 10.645)" d="m4.0542 1.7809c-0.13304-2.271e-4 -0.24833 0.021144-0.34183 0.066315-0.15212 0.054849-0.21657 0.15761-0.26044 0.32508l-1.6 9.9116c-0.00516 0.0531-0.00158 0.1043 0.0091 0.1535 0.00427 0.01969 0.00975 0.03906 0.016278 0.05797 0.00326 0.0095 0.00672 0.0186 0.010533 0.02783 0.011411 0.02763 0.025267 0.05434 0.041173 0.07977 0.026509 0.04236 0.058673 0.08152 0.095752 0.1164 0.00743 0.0069 0.015198 0.01381 0.02298 0.0204 0.038913 0.03319 0.082165 0.06205 0.12879 0.08579 0.00932 0.0047 0.018673 0.0091 0.028246 0.01345 0.086165 0.03899 0.18229 0.06075 0.28103 0.06075h3.5524a3.3155 5.1834 0 0 1 2.4283-1.6634 3.3155 5.1834 0 0 1 2.4297 1.6634h3.551c0.23037 0 0.44544-0.11891 0.5568-0.2968 0.01591-0.0254 0.02976-0.05212 0.04118-0.07977 0.0038-0.0092 0.0077-0.0184 0.011-0.02783 0.0064-0.01888 0.01153-0.03831 0.01579-0.05797 0.01068-0.0492 0.01425-0.10086 9e-3 -0.15396l-1.845-9.9111c-0.04388-0.16747-0.10833-0.27023-0.26045-0.32508-0.0935-0.045163-0.20879-0.066542-0.34183-0.066315h-4.1671z" clip-path="url(#o-7)" fill="#d8d8d8" filter="url(#l-6)" stroke-width=".92354"/>
  <path transform="matrix(.19062 -.051077 .051077 .19062 5.0466 10.792)" d="m32 43.549a13.526 23.175 0 0 0-9.9062 7.4375h0.29688a13.526 23.175 0 0 1 9.6094-6.9199 13.526 23.175 0 0 1 9.6035 6.9199h0.30859a13.526 23.175 0 0 0-9.9121-7.4375z" filter="url(#k-9)" opacity=".15" stroke-width="3.7796"/>
  <path d="m7.9705 11.03c-0.10351 0.02754-0.18857 0.06872-0.25156 0.12447-0.1065 0.07573-0.13451 0.17166-0.1326 0.31525l0.88798 8.2913c0.00738 0.04371 0.021212 0.08407 0.040084 0.12134 0.00755 0.01491 0.015984 0.02932 0.025128 0.04314 0.00455 0.0069 0.00926 0.01353 0.014179 0.02015 0.01482 0.0198 0.031335 0.03836 0.049176 0.05546 0.029724 0.02849 0.063161 0.05322 0.099501 0.07349 0.00723 4e-3 0.014791 0.0079 0.022258 0.0116 0.037399 0.01853 0.077243 0.03269 0.11861 0.04204 0.00825 0.0018 0.016484 0.0034 0.02486 0.0049 0.075394 0.01335 0.15482 0.01079 0.2316-0.0098l2.7625-0.74021a4.3082 2.6692 75 0 1 1.5305-1.8414 4.3082 2.6692 75 0 1 2.2473 0.8292l2.7614-0.73992c0.17915-0.048 0.32081-0.18828 0.36914-0.3543 0.0069-0.02371 0.01193-0.04804 0.01486-0.07261 9.69e-4 -0.0082 2e-3 -0.01637 0.0025-0.02464 9.7e-4 -0.01651 7.31e-4 -0.03315-1.85e-4 -0.04982-0.0023-0.04172-0.01061-0.08394-0.02606-0.1255l-3.5669-7.5722c-0.07015-0.12531-0.14237-0.19438-0.27247-0.20671-0.08243-0.016775-0.17668-0.00992-0.28009 0.017987l-3.2405 0.86828z" fill="url(#d-3)" stroke-width=".74588"/>
  <g fill-rule="evenodd">
   <rect transform="matrix(.75051 -.2011 .18664 .69656 4.8891 11.221)" x="2.1166" y="14.023" width="12.7" height="1.0583" rx=".26458" ry=".29539" filter="url(#n-6)" opacity=".1" style="paint-order:stroke fill markers"/>
   <circle transform="rotate(-15)" cx="12.639" cy="22.486" r=".29602" fill="url(#f-1)" stroke-width=".74588" style="paint-order:stroke fill markers"/>
   <circle transform="matrix(.72047 -.19305 .19305 .72047 5.0467 10.792)" cx="14.155" cy="14.328" r=".27003" fill="#fff" filter="url(#i-2)" opacity=".36" style="paint-order:stroke fill markers"/>
   <circle transform="rotate(-15)" cx="11.751" cy="22.486" r=".19735" fill="url(#c-7)" stroke-width=".74588" style="paint-order:stroke fill markers"/>
   <circle transform="rotate(-15)" cx="10.962" cy="22.486" r=".19735" fill="url(#b-0)" stroke-width=".74588" style="paint-order:stroke fill markers"/>
   <path d="m11.576 12.172c-0.03512 0.0052-0.06876 0.02055-0.09693 0.04399-0.056 0.04805-0.07947 0.12402-0.06037 0.19532l0.35671 1.3313-0.67468-0.2998c-0.09684-0.04301-0.21018 7.39e-4 -0.25321 0.09761-0.04303 0.09687 5.15e-4 0.21025 0.09737 0.2533l0.93532 0.41547-0.60228 0.82749c-0.06236 0.08571-0.04338 0.20567 0.04232 0.26803 0.04878 0.03549 0.10877 0.04475 0.16281 0.03027 0.04094-0.01097 0.07841-0.03543 0.10528-0.07234l0.43439-0.59696 0.35658 1.3308c0.0191 0.07128 0.07741 0.12536 0.14994 0.13897 0.02881 0.0054 0.05797 4e-3 0.08523-0.0033 0.04139-0.01109 0.07857-0.03589 0.10491-0.07172l0.9129-1.2435c0.03446-0.04695 0.04576-0.10696 0.0307-0.16318-0.01508-0.05627-0.05488-0.10259-0.10818-0.12599l-1.0849-0.47668 0.7012-0.95528c0.03446-0.04694 0.04577-0.10696 0.0307-0.16318-0.01507-0.05625-0.05487-0.10257-0.10818-0.12599l-1.4124-0.62044c-0.03379-0.01486-0.0702-0.01928-0.1053-0.01405zm0.31695 0.52617 0.82702 0.36343-0.5345 0.72827zm0.46117 1.7211 0.82702 0.36345-0.53451 0.72825z" fill="#bcbcbc" stroke-width=".26975"/>
  </g>
 </g>
</svg>
