<?xml version="1.0" encoding="UTF-8"?>
<svg width="64" height="64" version="1.1" viewBox="0 0 16.933 16.933" xmlns="http://www.w3.org/2000/svg" xmlns:cc="http://creativecommons.org/ns#" xmlns:dc="http://purl.org/dc/elements/1.1/" xmlns:rdf="http://www.w3.org/1999/02/22-rdf-syntax-ns#" xmlns:xlink="http://www.w3.org/1999/xlink">
 <defs>
  <linearGradient id="linearGradient1005-3-3-3" x1="7.4778" x2="9.0954" y1="15.67" y2="2.7627" gradientTransform="translate(9.1675 8.4069)" gradientUnits="userSpaceOnUse">
   <stop stop-color="#fe6d00" offset="0"/>
   <stop stop-color="#fe7100" offset=".36953"/>
   <stop stop-color="#ffb400" offset="1"/>
  </linearGradient>
 </defs>
 <metadata>
  <rdf:RDF>
   <cc:Work rdf:about="">
    <dc:format>image/svg+xml</dc:format>
    <dc:type rdf:resource="http://purl.org/dc/dcmitype/StillImage"/>
    <dc:title/>
   </cc:Work>
  </rdf:RDF>
 </metadata>
 <g transform="translate(-9.2037 -8.4005)">
  <path d="m25.608 16.867c0 0.95154-0.1675 1.8638-0.47464 2.7095-0.2135 0.58768-0.49439 1.1433-0.83393 1.6572-0.14222 0.21608-0.29514 0.42475-0.45746 0.62529-0.51965 0.64179-1.1372 1.2006-1.8304 1.6542-0.25529 0.16717-0.52065 0.3201-0.79536 0.45712-1.0668 0.53389-2.2711 0.83422-3.5457 0.83422-1.2745 0-2.4788-0.30033-3.5457-0.83424-0.27474-0.13705-0.5404-0.28997-0.7957-0.45712-0.70206-0.45973-1.327-1.0274-1.8508-1.6798-0.16262-0.20216-0.31524-0.41276-0.45746-0.63078-0.33047-0.50539-0.60421-1.0507-0.8135-1.627-0.30711-0.84529-0.4743-1.7572-0.4743-2.7085 0-4.3838 3.5537-7.9375 7.9375-7.9375 2.2005 0 4.1917 0.89548 5.6295 2.3416 0.41436 0.41662 0.78275 0.87929 1.0963 1.3794 0.29644 0.47108 0.54427 0.97582 0.73704 1.5068 0.30719 0.84559 0.47466 1.7579 0.47466 2.7095z" fill="url(#linearGradient1005-3-3-3)" stroke-width=".031006"/>
  <path d="m13.616 12.237-0.57591 0.5759 2.0604 2.0618v0.0082l0.57733 0.5759c0.44235-0.6247 1.1686-1.035 1.9923-1.035 0.31876 0 0.62042 0.06803 0.89858 0.17808l0.61081-0.60939c-0.45232-0.24076-0.96126-0.38251-1.5094-0.38251-0.75113 0-1.4414 0.25999-1.9923 0.68738m6.0465-2.0604-2.0618 2.0604c-3e-3 -3e-3 -0.0043-0.0057-0.0082-0.0082l-0.5759 0.5759c0.62755 0.44235 1.0336 1.1771 1.0336 2.002 0 0.32125-0.06553 0.62612-0.17808 0.90713l0.61081 0.61081c0.24218-0.45339 0.38251-0.96839 0.38251-1.5179 0-0.75113-0.25999-1.4414-0.68738-1.9923l2.0604-2.0604-0.57733-0.57733m-6.9269 3.1121c-0.24361 0.45339-0.38251 0.96696-0.38251 1.5179 0 0.75114 0.25999 1.4414 0.68738 1.9923l-2.0604 2.0604 0.5759 0.57733 0.61081-0.61081-0.0082-0.0082 2.0269-2.0269c-0.61615-0.44377-1.0182-1.1671-1.0182-1.9852 0-0.31983 0.06696-0.62612 0.17808-0.90713l-0.60938-0.61081m4.8665 2.9272c-0.44235 0.6247-1.1686 1.0336-1.9923 1.0336-0.32838 0-0.63859-0.06945-0.92387-0.18627l-0.61081 0.61081c0.45766 0.24753 0.97801 0.38963 1.5347 0.38963 0.75113 0 1.4414-0.25892 1.9923-0.68596l2.0604 2.0604 0.57733-0.57733-1.2131-1.2216-0.8473-0.83875c0.0015-0.0015-0.0015-0.0071 0-0.0082l-0.57733-0.57733m-0.36506-1.4071c0 0.89858-0.72905 1.6276-1.6276 1.6276-0.89858 0-1.6276-0.72905-1.6276-1.6276 0-0.89858 0.72905-1.6276 1.6276-1.6276 0.89858 0 1.6276 0.72905 1.6276 1.6276" fill-opacity=".75806" stroke-width=".37234"/>
 </g>
</svg>
