<?xml version="1.0" encoding="UTF-8"?>
<svg width="64" height="64" version="1.1" viewBox="0 0 64 64" xmlns="http://www.w3.org/2000/svg">
 <defs>
  <linearGradient id="linearGradient1005" x1=".73911" x2="16.388" y1="16.296" y2=".64687" gradientTransform="matrix(3.7796 0 0 3.7796 -.13488 .025134)" gradientUnits="userSpaceOnUse">
   <stop stop-color="#00a0ff" offset="0"/>
   <stop stop-color="#37beff" offset="1"/>
  </linearGradient>
 </defs>
 <path d="m62 32c0 3.5965-0.63308 7.0444-1.794 10.24-0.80694 2.2212-1.8686 4.3212-3.1518 6.2636-0.53754 0.81674-1.1155 1.6053-1.729 2.3633-1.964 2.4257-4.2982 4.5382-6.9182 6.2526-0.96493 0.63184-1.9678 1.2098-3.0061 1.7277-4.0321 2.0179-8.5842 3.1529-13.401 3.1529s-9.3693-1.1351-13.401-3.1531c-1.0384-0.518-2.0425-1.0959-3.0075-1.7277-2.6535-1.7376-5.0155-3.8832-6.9953-6.349-0.61464-0.76408-1.1914-1.56-1.729-2.3841-1.249-1.9101-2.2836-3.9712-3.0747-6.1494-1.1607-3.1949-1.7926-6.6415-1.7926-10.237 0-16.569 13.431-30.001 30.001-30.001 8.317 0 15.843 3.3846 21.277 8.8503 1.5661 1.5746 2.9584 3.3234 4.1436 5.214 1.1204 1.7804 2.0572 3.6882 2.7858 5.6951 1.161 3.196 1.794 6.6442 1.794 10.24z" fill="url(#linearGradient1005)" stroke-width=".11719"/>
 <g transform="translate(-50.589,-22.632)" fill="#fff">
  <path d="m62.957 49.926c-0.43456 0.43456-0.43456 1.1342 0 1.5688l3.1376 3.1376-3.1376 3.1376c-0.43456 0.43456-0.43456 1.1342 0 1.5688 0.43456 0.43456 1.1342 0.43456 1.5688 0l3.1376-3.1376 3.1376 3.1376c0.43456 0.43456 1.1342 0.43456 1.5688 0 0.43456-0.43456 0.43456-1.1342 0-1.5688l-3.1376-3.1376 3.1376-3.1376c0.43456-0.43456 0.43456-1.1342 0-1.5688-0.43456-0.43456-1.1342-0.43456-1.5688 0l-3.1376 3.1376-3.1376-3.1376c-0.43456-0.43456-1.1342-0.43456-1.5688 0z"/>
  <path d="m102.22 63.364c0.43456 0.43456 0.43456 1.1342 0 1.5688l-3.1376 3.1376 3.1376 3.1376c0.43456 0.43456 0.43456 1.1342 0 1.5688-0.43456 0.43456-1.1342 0.43456-1.5688 0l-3.1376-3.1376-3.1376 3.1376c-0.43456 0.43456-1.1342 0.43456-1.5688 0-0.43456-0.43456-0.43456-1.1342 0-1.5688l3.1376-3.1376-3.1376-3.1376c-0.43456-0.43456-0.43456-1.1342 0-1.5688 0.43456-0.43456 1.1342-0.43456 1.5688 0l3.1376 3.1376 3.1376-3.1376c0.43456-0.43456 1.1342-0.43456 1.5688 0z"/>
  <path d="m62.957 37.001c-0.43456 0.43456-0.43456 1.1342 0 1.5688l3.1376 3.1376-3.1376 3.1376c-0.43456 0.43456-0.43456 1.1342 0 1.5688 0.43456 0.43456 1.1342 0.43456 1.5688 0l3.1376-3.1376 3.1376 3.1376c0.43456 0.43456 1.1342 0.43456 1.5688 0 0.43456-0.43456 0.43456-1.1342 0-1.5688l-3.1376-3.1376 3.1376-3.1376c0.43456-0.43456 0.43456-1.1342 0-1.5688-0.43456-0.43456-1.1342-0.43456-1.5688 0l-3.1376 3.1376-3.1376-3.1376c-0.43456-0.43456-1.1342-0.43456-1.5688 0z"/>
  <path d="m82.074 49.6c-3.0728 0-5.5466 2.4738-5.5466 5.5466s2.4738 5.5466 5.5466 5.5466 5.5466-2.4738 5.5466-5.5466-2.4738-5.5466-5.5466-5.5466zm0 2.2186c1.8437 0 3.3279 1.4843 3.3279 3.3279 0 1.8437-1.4843 3.3279-3.3279 3.3279s-3.3279-1.4843-3.3279-3.3279c0-1.8437 1.4843-3.3279 3.3279-3.3279z"/>
  <path d="m86.78 63.364c0.43456 0.43456 0.43456 1.1342 0 1.5688l-3.1376 3.1376 3.1376 3.1376c0.43456 0.43456 0.43456 1.1342 0 1.5688-0.43456 0.43456-1.1342 0.43456-1.5688 0l-3.1376-3.1376-3.1376 3.1376c-0.43456 0.43456-1.1342 0.43456-1.5688 0-0.43456-0.43456-0.43456-1.1342 0-1.5688l3.1376-3.1376-3.1376-3.1376c-0.43456-0.43456-0.43456-1.1342 0-1.5688 0.43456-0.43456 1.1342-0.43456 1.5688 0l3.1376 3.1376 3.1376-3.1376c0.43456-0.43456 1.1342-0.43456 1.5688 0z"/>
  <path d="m82.074 36.161c-3.0728 0-5.5466 2.4738-5.5466 5.5466s2.4738 5.5466 5.5466 5.5466 5.5466-2.4738 5.5466-5.5466-2.4738-5.5466-5.5466-5.5466zm0 2.2186c1.8437 0 3.3279 1.4843 3.3279 3.3279 0 1.8437-1.4843 3.3279-3.3279 3.3279s-3.3279-1.4843-3.3279-3.3279c0-1.8437 1.4843-3.3279 3.3279-3.3279z"/>
  <path d="m97 36.161c-3.0728 0-5.5466 2.4738-5.5466 5.5466s2.4738 5.5466 5.5466 5.5466 5.5466-2.4738 5.5466-5.5466-2.4738-5.5466-5.5466-5.5466zm0 2.2186c1.8437 0 3.3279 1.4843 3.3279 3.3279 0 1.8437-1.4843 3.3279-3.3279 3.3279s-3.3279-1.4843-3.3279-3.3279c0-1.8437 1.4843-3.3279 3.3279-3.3279z"/>
 </g>
</svg>
