<?xml version="1.0" encoding="UTF-8"?>
<!-- Created with Inkscape (http://www.inkscape.org/) -->
<svg width="64" height="64" version="1.1" viewBox="0 0 16.933 16.933" xmlns="http://www.w3.org/2000/svg" xmlns:xlink="http://www.w3.org/1999/xlink">
 <defs>
  <linearGradient id="linearGradient908" x1="61.89" x2="2.5418" y1="2.4229" y2="61.702" gradientTransform="scale(.26458)" gradientUnits="userSpaceOnUse">
   <stop stop-color="#fad05b" offset="0"/>
   <stop stop-color="#f67422" offset="1"/>
  </linearGradient>
 </defs>
 <g>
  <circle cx="8.4667" cy="8.4667" r="7.9375" fill="url(#linearGradient908)" stroke-linecap="round" stroke-linejoin="round" stroke-width=".68928" style="paint-order:stroke fill markers"/>
  <path d="m3.7073 5.2896 0.03439 0.31739 0.65335 6.0302 7.7759-0.84249-0.68774-6.3476zm0.70357 0.56601 6.5063-0.70494 0.55019 5.0781-6.5063 0.70494zm0.83897 0.54956 0.12553 1.1586 1.1586-0.12553-0.12553-1.1586zm6.5468-0.54698 0.06878 0.63479 0.1587-0.01719 0.49861 4.602-6.5063 0.70494-0.0172-0.1587-0.63479 0.06878 0.08597 0.79349 7.7757-0.84246-0.63616-5.8716zm-6.3603 2.2708 0.03439 0.3174 4.6665-0.5056-0.03439-0.31739zm0.09558 0.88213 0.03439 0.3174 1.2472-0.13513-0.03439-0.31739zm1.6756-0.18155 0.03439 0.3174 1.0687-0.11579-0.03439-0.3174zm0.28396 0.86222 0.03012 0.31786 0.49284-0.047049-0.03013-0.31786zm-1.8636 0.20522 0.03439 0.31739 1.425-0.1544-0.03439-0.31739z" color="#000000" color-rendering="auto" dominant-baseline="auto" fill="#fff" image-rendering="auto" shape-rendering="auto" solid-color="#000000" style="font-feature-settings:normal;font-variant-alternates:normal;font-variant-caps:normal;font-variant-ligatures:normal;font-variant-numeric:normal;font-variant-position:normal;isolation:auto;mix-blend-mode:normal;shape-padding:0;text-decoration-color:#000000;text-decoration-line:none;text-decoration-style:solid;text-indent:0;text-orientation:mixed;text-transform:none;white-space:normal"/>
 </g>
</svg>
