<?xml version="1.0" encoding="UTF-8"?>
<!-- Created with Inkscape (http://www.inkscape.org/) -->
<svg width="64" height="64" version="1.1" viewBox="0 0 16.933 16.933" xmlns="http://www.w3.org/2000/svg" xmlns:xlink="http://www.w3.org/1999/xlink">
 <defs>
  <linearGradient id="a-3-2" x1="99.036" x2="99.036" y1="11.64" y2="199.84" gradientTransform="matrix(.079375 0 0 .079375 16.456 8.104)" gradientUnits="userSpaceOnUse">
   <stop stop-color="#ff4b00" offset="0"/>
   <stop stop-color="#f50f2d" offset="1"/>
  </linearGradient>
 </defs>
 <path d="m3.7073 5.2896 0.03439 0.31739 0.65335 6.0302 7.7759-0.84249-0.68774-6.3476zm0.70357 0.56601 6.5063-0.70494 0.55019 5.0781-6.5063 0.70494zm0.83897 0.54956 0.12553 1.1586 1.1586-0.12553-0.12553-1.1586zm6.5468-0.54698 0.06878 0.63479 0.1587-0.01719 0.49861 4.602-6.5063 0.70494-0.0172-0.1587-0.63479 0.06878 0.08597 0.79349 7.7757-0.84246-0.63616-5.8716zm-6.3603 2.2708 0.03439 0.3174 4.6665-0.5056-0.03439-0.31739zm0.09558 0.88213 0.03439 0.3174 1.2472-0.13513-0.03439-0.31739zm1.6756-0.18155 0.03439 0.3174 1.0687-0.11579-0.03439-0.3174zm0.28396 0.86222 0.03012 0.31786 0.49284-0.047049-0.03013-0.31786zm-1.8636 0.20522 0.03439 0.31739 1.425-0.1544-0.03439-0.31739z" color="#000000" color-rendering="auto" dominant-baseline="auto" fill="#fff" image-rendering="auto" shape-rendering="auto" solid-color="#000000" style="font-feature-settings:normal;font-variant-alternates:normal;font-variant-caps:normal;font-variant-ligatures:normal;font-variant-numeric:normal;font-variant-position:normal;isolation:auto;mix-blend-mode:normal;shape-padding:0;text-decoration-color:#000000;text-decoration-line:none;text-decoration-style:solid;text-indent:0;text-orientation:mixed;text-transform:none;white-space:normal"/>
 <g transform="translate(-15.927 -7.575)">
  <circle cx="24.394" cy="16.042" r="7.9375" color="#000000" fill="url(#a-3-2)" stroke-width=".26458"/>
  <path d="m23.071 12.073h2.6458c-1.3229 3.9674-1.3229 3.9674 0 7.9375h-2.6458c1.3229-3.9688 1.3229-3.9688 0-7.9375" fill="#fff"/>
  <path d="m28.362 14.722v2.6458c-3.9674-1.3229-3.9674-1.3229-7.9375 0v-2.6458c3.9688 1.3216 3.9688 1.3216 7.9375 0" fill="#fff"/>
 </g>
</svg>
