<?xml version="1.0" encoding="UTF-8"?>
<svg width="64" height="64" version="1" xmlns="http://www.w3.org/2000/svg" xmlns:xlink="http://www.w3.org/1999/xlink">
 <defs>
  <linearGradient id="linearGradient1559" x1="8.1125" x2="8.1125" y1="1.3658" y2="15.681" gradientTransform="matrix(3.7796 0 0 3.7796 1e-7 -.0001897)" gradientUnits="userSpaceOnUse">
   <stop stop-color="#3a3a3a" offset="0"/>
   <stop stop-color="#353535" offset="1"/>
  </linearGradient>
  <linearGradient id="linearGradient35897" x1="8.1125" x2="8.1125" y1="1.3658" y2="15.681" gradientTransform="matrix(3.7796 0 0 3.7796 1e-7 -.0001897)" gradientUnits="userSpaceOnUse" xlink:href="#linearGradient1559"/>
  <linearGradient id="linearGradient36022" x1="8.1125" x2="8.1125" y1="1.3658" y2="15.681" gradientTransform="matrix(4.1232 0 0 4.1232 -2.9087 -2.9092)" gradientUnits="userSpaceOnUse" xlink:href="#linearGradient1559"/>
  <linearGradient id="linearGradient37760" x1="42.499" x2="42.499" y1="4.7853" y2="59.387" gradientTransform="matrix(1.0909 0 0 1.0909 -2.9087 -2.9089)" gradientUnits="userSpaceOnUse">
   <stop stop-color="#eb6239" offset="0"/>
   <stop stop-color="#eb633d" offset="1"/>
  </linearGradient>
 </defs>
 <g fill="url(#linearGradient35897)" stroke-width="3.7796">
  <path d="m7.7207 4.7051c0.14383-0.044552 0.28986-0.080869 0.43945-0.11133 0.1496-0.030459 0.30243-0.054704 0.45703-0.070312-0.3092 0.031213-0.60883 0.092544-0.89648 0.18164z"/>
  <path d="m6.5195 5.2812c0.122-0.082289 0.24887-0.15805 0.37891-0.22852s0.26308-0.13547 0.40039-0.19336c-0.27462 0.11577-0.53531 0.25731-0.7793 0.42188z"/>
  <path d="m5.5449 6.166c0.093353-0.11321 0.19322-0.22056 0.29688-0.32422s0.21101-0.20352 0.32422-0.29688c-0.2264 0.18669-0.4344 0.39469-0.62109 0.62109z"/>
  <path d="m4.8594 7.2988c0.057888-0.13731 0.12289-0.27036 0.19336-0.40039s0.14623-0.25691 0.22852-0.37891c-0.16457 0.24399-0.30611 0.50468-0.42188 0.7793z"/>
  <path d="m4.5234 8.6172c0.015608-0.1546 0.039854-0.30744 0.070312-0.45703 0.030459-0.1496 0.066776-0.29562 0.11133-0.43945-0.089097 0.28766-0.15043 0.58729-0.18164 0.89648z"/>
  <path d="m4.7051 56.279c-0.044552-0.14383-0.080869-0.28986-0.11133-0.43945-0.030459-0.1496-0.054704-0.30243-0.070312-0.45703 0.031213 0.3092 0.092544 0.60883 0.18164 0.89648z"/>
  <path d="m5.2812 57.48c-0.082289-0.122-0.15805-0.24887-0.22852-0.37891-0.070467-0.13004-0.13547-0.26308-0.19336-0.40039 0.11577 0.27462 0.25731 0.53531 0.42188 0.7793z"/>
  <path d="m6.166 58.455c-0.11321-0.093353-0.22056-0.19322-0.32422-0.29688s-0.20352-0.21101-0.29688-0.32422c0.18669 0.2264 0.39469 0.4344 0.62109 0.62109z"/>
  <path d="m8.6172 59.477c-0.1546-0.015608-0.30744-0.039853-0.45703-0.070312-0.1496-0.030459-0.29562-0.066776-0.43945-0.11133 0.28766 0.089097 0.58729 0.15043 0.89648 0.18164z"/>
  <path d="m56.279 59.295c-0.14383 0.044552-0.28986 0.080869-0.43945 0.11133-0.1496 0.030459-0.30243 0.054704-0.45703 0.070312 0.3092-0.031213 0.60883-0.092543 0.89648-0.18164z"/>
  <path d="m58.455 57.834c-0.093353 0.11321-0.19322 0.22056-0.29688 0.32422s-0.21101 0.20352-0.32422 0.29688c0.2264-0.18669 0.4344-0.39469 0.62109-0.62109z"/>
  <path d="m59.141 56.701c-0.057889 0.13731-0.12289 0.27036-0.19336 0.40039-0.070468 0.13004-0.14623 0.25691-0.22852 0.37891 0.16456-0.24399 0.30611-0.50468 0.42188-0.7793z"/>
  <path d="m58.719 6.5195c0.082289 0.122 0.15805 0.24887 0.22852 0.37891 0.070467 0.13004 0.13547 0.26308 0.19336 0.40039-0.11577-0.27462-0.25731-0.53531-0.42188-0.7793z"/>
  <path d="m57.834 5.5449c0.11321 0.093353 0.22056 0.19322 0.32422 0.29688s0.20352 0.21101 0.29688 0.32422c-0.18669-0.2264-0.39469-0.4344-0.62109-0.62109z"/>
  <path d="m56.701 4.8594c0.13731 0.057888 0.27036 0.12289 0.40039 0.19336 0.13004 0.070467 0.25691 0.14623 0.37891 0.22852-0.24399-0.16457-0.50468-0.30611-0.7793-0.42188z"/>
  <path d="m55.383 4.5234c0.1546 0.015608 0.30744 0.039854 0.45703 0.070312 0.1496 0.030459 0.29562 0.066776 0.43945 0.11133-0.28766-0.089097-0.58729-0.15043-0.89648-0.18164z"/>
 </g>
 <path d="m34.42 2.1055v11.539l-11.098 11.193h11.098v11.053h14.314l-14.314 17.307v8.6309a30 30 0 0 0 27.58-29.828 30 30 0 0 0-27.58-29.895z" fill="url(#linearGradient37760)"/>
 <path d="m31.148 2.0605a30 30 0 0 0-29.148 29.939 30 30 0 0 0 29.148 29.939v-9.9199l10.631-12.855h-10.631v-11.055h-15.68l15.68-15.814v-10.234z" fill="url(#linearGradient36022)"/>
</svg>
