<?xml version="1.0" encoding="UTF-8"?>
<!-- Created with Inkscape (http://www.inkscape.org/) -->
<svg width="64" height="64" version="1.1" viewBox="0 0 16.933 16.933" xmlns="http://www.w3.org/2000/svg" xmlns:xlink="http://www.w3.org/1999/xlink">
 <defs>
  <linearGradient id="linearGradient945" x1="290.41" x2="290.05" y1="648.83" y2="625.02" gradientTransform="matrix(.63409 0 0 .63409 -173.11 -393.11)" gradientUnits="userSpaceOnUse" xlink:href="#a"/>
  <linearGradient id="a" x1="1" x2="47" gradientTransform="rotate(-90 24 24)" gradientUnits="userSpaceOnUse">
   <stop stop-color="#e4e4e4" offset="0"/>
   <stop stop-color="#eee" offset="1"/>
  </linearGradient>
 </defs>
 <path d="m3.7073 5.2896 0.03439 0.31739 0.65335 6.0302 7.7759-0.84249-0.68774-6.3476zm0.70357 0.56601 6.5063-0.70494 0.55019 5.0781-6.5063 0.70494zm0.83897 0.54956 0.12553 1.1586 1.1586-0.12553-0.12553-1.1586zm6.5468-0.54698 0.06878 0.63479 0.1587-0.01719 0.49861 4.602-6.5063 0.70494-0.0172-0.1587-0.63479 0.06878 0.08597 0.79349 7.7757-0.84246-0.63616-5.8716zm-6.3603 2.2708 0.03439 0.3174 4.6665-0.5056-0.03439-0.31739zm0.09558 0.88213 0.03439 0.3174 1.2472-0.13513-0.03439-0.31739zm1.6756-0.18155 0.03439 0.3174 1.0687-0.11579-0.03439-0.3174zm0.28396 0.86222 0.03012 0.31786 0.49284-0.047049-0.03013-0.31786zm-1.8636 0.20522 0.03439 0.31739 1.425-0.1544-0.03439-0.31739z" color="#000000" color-rendering="auto" dominant-baseline="auto" fill="#fff" image-rendering="auto" shape-rendering="auto" solid-color="#000000" style="font-feature-settings:normal;font-variant-alternates:normal;font-variant-caps:normal;font-variant-ligatures:normal;font-variant-numeric:normal;font-variant-position:normal;isolation:auto;mix-blend-mode:normal;shape-padding:0;text-decoration-color:#000000;text-decoration-line:none;text-decoration-style:solid;text-indent:0;text-orientation:mixed;text-transform:none;white-space:normal"/>
 <g transform="translate(-2.9407 -2.1769)">
  <circle cx="11.407" cy="10.644" r="7.9375" fill="#333644" stroke-linecap="round" stroke-width=".29611"/>
  <g fill="url(#linearGradient945)" stroke-width=".63409">
   <path d="m14.366 10.808h-0.84545v-1.2682h0.84545zm0-2.1136h-6.7636v4.2272c0 0.93386 0.75704 1.6909 1.6909 1.6909h2.5363c0.93384 0 1.6909-0.75704 1.6909-1.6909v-1.2682h0.84545c0.46692 0 0.84545-0.37852 0.84545-0.84545v-1.2682c0-0.46922-0.38045-0.84545-0.84545-0.84545z"/>
   <path d="m8.6191 6.6748s-0.09245 0.069166-0.18465 0.17293c-0.092095 0.10366-0.20223 0.24687-0.20379 0.44377-0.00127 0.19305 0.09952 0.32963 0.16655 0.4294 0.067023 0.099773 0.10402 0.1612 0.1011 0.24211-0.00571 0.15285-0.23147 0.3033-0.23147 0.3033l0.16974 0.31075s0.40079-0.19138 0.41557-0.60127c0.0072284-0.20016-0.090992-0.34853-0.1607-0.45229-0.069705-0.10376-0.10743-0.16486-0.10695-0.22934 2.093e-4 -0.041913 0.048634-0.13662 0.11493-0.21124 0.0663-0.074626 0.13196-0.12452 0.13196-0.12452z"/>
   <path d="m9.8873 6.6748s-0.09245 0.069166-0.18465 0.17293c-0.092095 0.10366-0.20223 0.24687-0.20379 0.44377-0.00127 0.19305 0.09952 0.32963 0.16655 0.4294 0.067023 0.099773 0.10402 0.1612 0.1011 0.24211-0.00571 0.15285-0.23147 0.3033-0.23147 0.3033l0.16974 0.31075s0.40079-0.19138 0.41557-0.60127c0.0072-0.20016-0.09099-0.34853-0.1607-0.45229-0.069705-0.10376-0.10743-0.16486-0.10695-0.22934 2.093e-4 -0.041913 0.048634-0.13662 0.11493-0.21124 0.0663-0.074626 0.13196-0.12452 0.13196-0.12452z"/>
   <path d="m11.155 6.6748s-0.09245 0.069166-0.18465 0.17293c-0.0921 0.10366-0.20223 0.24687-0.20379 0.44377-0.0013 0.19305 0.09952 0.32963 0.16655 0.4294 0.06702 0.099773 0.10402 0.1612 0.1011 0.24211-0.0057 0.15285-0.23147 0.3033-0.23147 0.3033l0.16974 0.31075s0.40079-0.19138 0.41557-0.60127c0.0072-0.20016-0.09099-0.34853-0.1607-0.45229-0.06971-0.10376-0.10743-0.16486-0.10695-0.22934 2.09e-4 -0.041913 0.04863-0.13662 0.11493-0.21124 0.0663-0.074625 0.13196-0.12452 0.13196-0.12452z"/>
   <path d="m12.424 6.6748s-0.09245 0.069166-0.18465 0.17293c-0.0921 0.10366-0.20223 0.24687-0.20379 0.44377-0.0013 0.19305 0.09952 0.32963 0.16655 0.4294 0.06702 0.099773 0.10402 0.1612 0.1011 0.24211-0.0057 0.15285-0.23147 0.3033-0.23147 0.3033l0.16974 0.31075s0.40079-0.19138 0.41557-0.60127c0.0072-0.20016-0.09099-0.34853-0.1607-0.45229-0.06971-0.10376-0.10743-0.16486-0.10695-0.22934 2.09e-4 -0.041913 0.04863-0.13662 0.11493-0.21124 0.0663-0.074625 0.13196-0.12452 0.13196-0.12452z"/>
  </g>
 </g>
</svg>
