<?xml version="1.0" encoding="UTF-8"?>
<!-- Created with Inkscape (http://www.inkscape.org/) -->
<svg width="64" height="64" version="1.1" viewBox="0 0 16.933 16.933" xmlns="http://www.w3.org/2000/svg" xmlns:xlink="http://www.w3.org/1999/xlink">
 <defs>
  <linearGradient id="b-5-3" x1="9.2603" x2="9.2603" y1="-.26249" y2="15.612" gradientTransform="matrix(1 0 0 1 -.79386 .79166)" gradientUnits="userSpaceOnUse">
   <stop stop-color="#1c1d1d" offset="0"/>
   <stop stop-color="#313232" offset="1"/>
  </linearGradient>
  <filter id="e" x="-.037001" y="-.15751" width="1.074" height="1.315" color-interpolation-filters="sRGB">
   <feGaussianBlur stdDeviation="0.47098093"/>
  </filter>
  <radialGradient id="a-6" cx="502.62" cy="372.05" r="74.884" gradientTransform="matrix(.056266 -.015076 .0037731 .014081 -20.21 14.565)" gradientUnits="userSpaceOnUse">
   <stop stop-color="#dfe5e8" offset="0"/>
   <stop stop-color="#c3cacc" offset="1"/>
  </radialGradient>
  <linearGradient id="b-3" x1="500.55" x2="504.38" y1="216.14" y2="349.1" gradientTransform="matrix(.059702 -.015997 .016061 .059943 -26.343 -1.4139)" gradientUnits="userSpaceOnUse">
   <stop stop-color="#d7e1e5" offset="0"/>
   <stop stop-color="#a1a1a2" offset="1"/>
  </linearGradient>
  <linearGradient id="d" x1="63.721" x2="64.939" y1="168.65" y2="249.61" gradientTransform="matrix(.079588 -.021325 .021411 .079909 -1.8369 -8.4684)" gradientUnits="userSpaceOnUse">
   <stop stop-color="#fff" offset="0"/>
   <stop stop-color="#e5e5e6" offset="1"/>
  </linearGradient>
  <linearGradient id="c" x1="-17.94" x2="-17.94" y1="351.1" y2="361.98" gradientTransform="matrix(.055139 0 0 .025893 6.6521 5.2391)" gradientUnits="userSpaceOnUse">
   <stop stop-color="#4c4c4c" offset="0"/>
   <stop stop-color="#828282" offset="1"/>
  </linearGradient>
 </defs>
 <path d="m3.7073 5.2896 0.03439 0.31739 0.65335 6.0302 7.7759-0.84249-0.68774-6.3476zm0.70357 0.56601 6.5063-0.70494 0.55019 5.0781-6.5063 0.70494zm0.83897 0.54956 0.12553 1.1586 1.1586-0.12553-0.12553-1.1586zm6.5468-0.54698 0.06878 0.63479 0.1587-0.01719 0.49861 4.602-6.5063 0.70494-0.0172-0.1587-0.63479 0.06878 0.08597 0.79349 7.7757-0.84246-0.63616-5.8716zm-6.3603 2.2708 0.03439 0.3174 4.6665-0.5056-0.03439-0.31739zm0.09558 0.88213 0.03439 0.3174 1.2472-0.13513-0.03439-0.31739zm1.6756-0.18155 0.03439 0.3174 1.0687-0.11579-0.03439-0.3174zm0.28396 0.86222 0.03012 0.31786 0.49284-0.047049-0.03013-0.31786zm-1.8636 0.20522 0.03439 0.31739 1.425-0.1544-0.03439-0.31739z" color="#000000" color-rendering="auto" dominant-baseline="auto" fill="#fff" image-rendering="auto" shape-rendering="auto" solid-color="#000000" style="font-feature-settings:normal;font-variant-alternates:normal;font-variant-caps:normal;font-variant-ligatures:normal;font-variant-numeric:normal;font-variant-position:normal;isolation:auto;mix-blend-mode:normal;shape-padding:0;text-decoration-color:#000000;text-decoration-line:none;text-decoration-style:solid;text-indent:0;text-orientation:mixed;text-transform:none;white-space:normal"/>
 <circle cx="8.4667" cy="8.4667" r="7.9375" fill="url(#b-5-3)" stroke-width=".963" style="paint-order:stroke markers fill"/>
 <path transform="matrix(.29269 -.078426 .078742 .29387 -18.607 -72.75)" d="m2.1494 289.98c-0.53375 0.0924-0.52136 0.9588-0.4635 1.8243 0.020882 1.1229 0.080718 2.426 0.18058 3.5949 0.054723 0.97142 0.65112 1.7573 1.4599 1.7573h27.214c0.80879 0 1.4052-0.78588 1.4599-1.7573 0.09986-1.1689 0.15969-2.472 0.18058-3.5949 0.05787-0.86551 0.07025-1.7318-0.4635-1.8243h-27.426z" filter="url(#e)" opacity=".5" stroke-width="2.138"/>
 <g stroke-width=".64914">
  <path d="m4.8134 12.14c-0.14894 0.06901-0.0771 0.32265 8e-3 0.57245 0.09453 0.32835 0.21465 0.70659 0.33592 1.0422 0.09251 0.28118 0.32895 0.46535 0.56567 0.40192l7.9653-2.1342c0.23672-0.06343 0.34941-0.34115 0.28892-0.6309-0.06281-0.35134-0.1479-0.73896-0.23021-1.0706-0.05121-0.25888-0.1158-0.51443-0.27931-0.49975l-8.0273 2.1509z" fill="url(#a-6)"/>
  <path d="m3.7643 4.3523c-0.09008 0.023972-0.16395 0.059805-0.21877 0.10832-0.09268 0.065912-0.11704 0.14943-0.11538 0.27441l1.3145 7.7475c0.0065 0.03805 0.01838 0.07343 0.03482 0.10587 0.0066 0.01298 0.01386 0.02548 0.02182 0.03748 4e-3 6e-3 0.0081 0.01187 0.01242 0.01761 0.0129 0.01724 0.02722 0.03334 0.04274 0.0482 0.02587 0.0248 0.05508 0.04619 0.0867 0.06381 0.0063 0.0035 0.01275 0.0069 0.01925 0.01012 0.03255 0.01613 0.06731 0.02842 0.1033 0.03656 0.0072 0.0016 0.01441 0.0031 0.02172 0.0044 0.06561 0.01161 0.13463 0.0095 0.20146-0.0084l8.0955-2.1691c0.15591-0.04178 0.27922-0.16394 0.32128-0.30843 6e-3 -0.02064 0.01036-0.04173 0.01291-0.06311 7.77e-4 -0.0071 0.0015-0.01431 0.0019-0.02146 9.16e-4 -0.01436 9.65e-4 -0.02885 1.51e-4 -0.04337-2e-3 -0.03631-0.0094-0.07291-0.02281-0.10909l-2.7353-7.3667c-0.06105-0.10905-0.1239-0.16921-0.23712-0.17995-0.07173-0.014597-0.15365-0.0087-0.24366 0.015588l-3.3571 0.90549z" fill="#f3fdff"/>
  <path d="m3.7384 4.2554c-0.09008 0.023968-0.16395 0.059805-0.21878 0.10832-0.09268 0.065909-0.11704 0.14943-0.11538 0.27441l1.3145 7.7475c0.0065 0.03804 0.01838 0.07344 0.03482 0.10587 0.0066 0.01298 0.01385 0.02545 0.02181 0.03748 4e-3 6e-3 0.0081 0.01187 0.01242 0.01762 0.0129 0.01724 0.02722 0.03333 0.04274 0.04821 0.02587 0.0248 0.05508 0.04618 0.0867 0.06381 0.0063 0.0035 0.01272 0.0068 0.01924 0.01009 0.03255 0.01613 0.06731 0.02843 0.1033 0.03656 0.0072 0.0016 0.01441 0.0031 0.02172 0.0044 0.06561 0.01161 0.13463 0.0095 0.20146-0.0084l8.0955-2.1691c0.15591-0.04178 0.27922-0.16394 0.32128-0.30843 6e-3 -0.02064 0.01036-0.04174 0.01291-0.06312 7.77e-4 -0.0071 0.0015-0.01431 0.0019-0.02146 9.08e-4 -0.01439 9.65e-4 -0.02885 1.51e-4 -0.04337-2e-3 -0.03632-0.0094-0.07291-0.02281-0.10909l-2.7353-7.3667c-0.06105-0.10905-0.12391-0.16921-0.23712-0.17994-0.07173-0.0146-0.15366-0.0087-0.24366 0.015585l-3.3572 0.90546z" fill="url(#b-3)"/>
  <path d="m3.9507 4.3654c-0.17551 0.048289-0.37505 0.12941-0.36982 0.32654l1.0409 6.0336c0.0045 0.02975 0.01413 0.05727 0.02801 0.08225 0.0056 0.01001 0.01176 0.01956 0.01863 0.02876 0.0034 0.0046 7e-3 9e-3 0.01076 0.01346 0.0112 0.01312 0.02372 0.02528 0.03741 0.03645 0.0059 0.0048 0.01197 0.0094 0.01825 0.01382 0.0019 0.0014 0.0039 0.0025 0.0058 0.0038 0.0044 3e-3 0.0088 0.0059 0.01345 0.0087 0.0025 0.0015 5e-3 0.0029 0.0075 0.0043 0.0044 0.0025 0.0087 5e-3 0.01317 0.0073 0.0023 0.0013 0.0048 0.0023 0.0071 0.0035 0.0039 0.0018 0.0078 0.0039 0.01179 0.0057 1e-3 3.62e-4 0.0021 7.13e-4 0.0031 0.0014 0.0014 5.81e-4 0.0028 0.0012 0.0041 0.0017 0.0033 0.0013 0.0066 0.0029 0.01002 0.0042 0.0018 7.92e-4 0.0036 0.0013 0.0053 0.0019 0.0035 0.0013 0.0071 0.0026 0.01074 0.0039 4e-3 0.0014 0.0081 0.0028 0.01216 4e-3 0.0038 0.0012 0.0076 0.0023 0.0115 0.0034 0.0041 0.0011 0.0082 0.0023 0.0123 0.0033 0.0039 8.51e-4 0.0079 0.0019 0.01187 0.0028 0.0041 7.94e-4 0.0083 0.0018 0.0125 0.0026 4e-3 8.17e-4 8e-3 0.0016 0.01208 0.0022 0.0017 1.86e-4 0.0033 6.84e-4 5e-3 8.69e-4 0.0046 6.6e-4 0.0093 0.0013 0.01393 0.0019 9.22e-4 6.8e-5 0.0018 1.4e-4 0.0028 2.03e-4 9.95e-4 4.9e-5 2e-3 4.03e-4 3e-3 4.54e-4 0.0075 8.37e-4 0.015 0.0015 0.02258 2e-3l3e-5 -8e-6c0.0082 3.28e-4 0.01654 8.27e-4 0.02487 9.57e-4 0.0027-8.6e-5 0.0054-1.73e-4 0.0081 2.8e-5 0.0058 8e-6 0.01162-2.76e-4 0.01753-3.18e-4 3e-3 -1.66e-4 0.0059-3.31e-4 0.0089-5e-4 0.0056-2.45e-4 0.01121-7.97e-4 0.01686-0.0012 0.0029-1.5e-4 0.0057-5.88e-4 0.0086-7.42e-4 6e-3 -6.71e-4 0.0121-0.0013 0.01811-0.0023 0.0026-3.84e-4 0.0052-7.69e-4 0.0078-0.0012 0.0065-0.0011 0.01297-0.0022 0.01942-0.0036 0.0021-4.01e-4 0.0042-8.22e-4 0.0063-0.0014 0.0087-0.0017 0.01721-4e-3 0.0258-0.0063l7.5083-2.0118c0.0086-0.0023 0.01705-0.0049 0.02548-0.0075 0.0021-7.28e-4 0.0041-0.0014 0.0062-2e-3 0.0063-2e-3 0.01248-0.0043 0.01863-0.0066 0.0024-9.11e-4 0.0049-0.0019 0.0074-0.0029 0.0057-0.0022 0.0113-0.0046 0.01685-7e-3 0.0027-1e-3 0.0053-0.0024 0.0078-0.0037 0.0052-0.0023 0.01025-0.0046 0.01521-0.0074 0.0026-0.0013 0.0054-0.0027 8e-3 -0.0041 0.0053-0.0027 0.01053-0.0057 0.01569-0.0087 0.0022-0.0012 0.0044-0.0024 0.0066-0.0037 0.0073-0.0041 0.01428-0.0087 0.02119-0.01336l3e-5 -8e-6c0.0063-0.0042 0.0125-0.0085 0.01854-0.01303 7.71e-4 -5.21e-4 0.0015-1e-3 0.0023-0.0015 1e-3 -8.98e-4 0.0021-0.0015 0.0031-0.0024 0.0036-0.0025 0.0071-0.0053 0.01044-0.0081 0.0013-9.76e-4 0.0025-0.0022 0.0039-0.0032 0.0033-0.0025 0.0063-0.00541 0.0095-0.00812 0.0031-0.00273 0.0062-0.00544 0.0092-0.00821 0.0031-0.00273 0.0061-0.0057 0.0091-0.00857 0.0031-0.00304 0.0062-0.00608 0.0092-0.00918 0.0027-0.00262 0.0053-0.00556 0.0079-0.00838 3e-3 -0.00302 0.0058-0.00642 0.0086-0.00965 0.0025-0.00289 5e-3 -0.00577 0.0074-0.00872 0.0012-0.00127 0.0024-0.00286 0.0036-0.00427 0.0023-0.00281 0.0045-0.00579 0.0066-0.00863 9.23e-4 -0.00119 0.0018-0.00239 0.0027-0.00355 6.9e-4 -8.151e-4 0.0014-0.00164 0.0021-0.00276 0.0026-0.00353 0.0049-0.0072 0.0073-0.01085 0.0015-0.00229 3e-3 -0.00436 0.0044-0.0066 0.0027-0.00425 0.0053-0.00859 0.0078-0.012912 0.0016-0.00231 3e-3 -5e-3 0.0044-0.00751 0.0033-0.00598 0.0064-0.012047 0.0093-0.018173 2.53e-4 -6.977e-4 7e-4 -0.00113 0.0011-0.00186 1.6e-5 -3.89e-5 2.1e-5 -7.18e-5 1.7e-5 -1.777e-4 0.0033-0.00705 0.0063-0.014203 0.0091-0.021387 0.0063-0.016517 0.01107-0.03333 0.0142-0.050279 0.0011-0.00564 0.0019-0.011351 0.0026-0.017037 0.0014-0.011369 2e-3 -0.022795 0.0018-0.034222-3.55e-4 -0.021417-0.0035-0.04289-0.0096-0.064127-0.0021-0.00707-0.0045-0.01411-0.0072-0.021123l-2.1155-5.7459c-0.10746-0.19811-0.37073-0.13098-0.55631-0.07782l-3.114 0.83898-3.1163 0.8304c-0.02339 0.00595-0.04795 0.012219-0.07307 0.018949z" fill="url(#d)"/>
  <rect transform="rotate(-15)" x="2.4469" y="14.29" width="7.0799" height=".3043" ry=".15214" fill="url(#c)"/>
 </g>
 <path d="m6.2318 4.5941 0.64175 2.395-0.83212 0.22297 2.635 2.0766 1.2437-3.1159-0.83212 0.22297-0.64175-2.395z" fill="#0c1010" fill-opacity=".25098" stroke-width=".052691"/>
</svg>
