<?xml version="1.0" encoding="UTF-8"?>
<!-- Created with Inkscape (http://www.inkscape.org/) -->
<svg width="64" height="64" version="1.1" viewBox="0 0 16.933 16.933" xmlns="http://www.w3.org/2000/svg" xmlns:xlink="http://www.w3.org/1999/xlink">
 <defs>
  <linearGradient id="linearGradient122580" x1="-253" x2="-198" y1="58.33" y2="58.33" gradientTransform="matrix(.17925 -.048029 .048029 .17925 46.845 -9.9785)" gradientUnits="userSpaceOnUse">
   <stop stop-color="#ddd" offset="0"/>
   <stop stop-color="#ebebeb" offset=".03522"/>
   <stop stop-color="#d5d5d5" offset=".054766"/>
   <stop stop-color="#f0f0f0" offset=".33059"/>
   <stop stop-color="#f0f0f0" offset=".50575"/>
   <stop stop-color="#f0f0f0" offset=".71508"/>
   <stop stop-color="#d3d3d3" offset=".94353"/>
   <stop stop-color="#ebebeb" offset=".96526"/>
   <stop stop-color="#e1e1e1" offset="1"/>
  </linearGradient>
  <linearGradient id="linearGradient158037" x1="-252.13" x2="-198.87" y1="33.15" y2="33.15" gradientTransform="matrix(.17925 -.048029 .048029 .17925 46.845 -9.9785)" gradientUnits="userSpaceOnUse">
   <stop stop-color="#189df7" offset="0"/>
   <stop stop-color="#189bf7" offset=".060278"/>
   <stop stop-color="#0587e4" offset=".10041"/>
   <stop stop-color="#1cadfa" offset=".31932"/>
   <stop stop-color="#1eaefb" offset=".50599"/>
   <stop stop-color="#1dacfa" offset=".69492"/>
   <stop stop-color="#068ee7" offset=".90466"/>
   <stop stop-color="#1ba1f9" offset=".9339"/>
   <stop stop-color="#169cf5" offset="1"/>
  </linearGradient>
  <linearGradient id="linearGradient3986" x1="-59.557" x2="-59.557" y1="15.884" y2="18.79" gradientTransform="matrix(.67745 -.18152 .18152 .67745 46.845 -9.9785)" gradientUnits="userSpaceOnUse">
   <stop stop-color="#dfdfdf" offset="0"/>
   <stop stop-color="#d2d2d2" offset=".53197"/>
   <stop stop-color="#cacaca" offset="1"/>
  </linearGradient>
  <linearGradient id="linearGradient12298" x1="-58.757" x2="-58.757" y1="16.466" y2="18.206" gradientTransform="matrix(.67745 -.18152 .17915 .6686 46.884 -9.8328)" gradientUnits="userSpaceOnUse">
   <stop stop-color="#c8c8c8" offset="0"/>
   <stop stop-color="#b8b8b8" offset="1"/>
  </linearGradient>
  <linearGradient id="linearGradient988" x1="-61.911" x2="-61.911" y1="14.023" y2="15.081" gradientTransform="matrix(.70134 0 0 .70134 44.779 4.572)" gradientUnits="userSpaceOnUse" xlink:href="#linearGradient24279"/>
  <linearGradient id="linearGradient24279">
   <stop stop-color="#0d0d0d" offset="0"/>
   <stop stop-color="#414141" offset="1"/>
  </linearGradient>
  <linearGradient id="linearGradient990" x1="-61.911" x2="-61.911" y1="14.023" y2="15.081" gradientTransform="matrix(.70134 0 0 .70134 45.153 4.5986)" gradientUnits="userSpaceOnUse" xlink:href="#linearGradient24279"/>
  <linearGradient id="linearGradient992" x1="-61.911" x2="-61.911" y1="14.023" y2="15.081" gradientTransform="matrix(.70134 0 0 .70134 45.526 4.6252)" gradientUnits="userSpaceOnUse" xlink:href="#linearGradient24279"/>
  <linearGradient id="linearGradient994" x1="-61.911" x2="-61.911" y1="14.023" y2="15.081" gradientTransform="matrix(.70134 0 0 .70134 45.9 4.6518)" gradientUnits="userSpaceOnUse" xlink:href="#linearGradient24279"/>
  <linearGradient id="linearGradient24281" x1="-61.911" x2="-61.911" y1="14.023" y2="15.081" gradientTransform="matrix(.70134 0 0 .70134 46.273 4.6783)" gradientUnits="userSpaceOnUse" xlink:href="#linearGradient24279"/>
  <linearGradient id="linearGradient45238" x1="-55.576" x2="-55.576" y1="13.942" y2="14.996" gradientTransform="matrix(.70134 0 0 .70134 48.634 4.4875)" gradientUnits="userSpaceOnUse">
   <stop stop-color="#070509" offset="0"/>
   <stop stop-color="#8e8e8e" offset="1"/>
  </linearGradient>
  <linearGradient id="linearGradient59949" x1="-55.566" x2="-55.566" y1="13.99" y2="14.865" gradientTransform="matrix(.70134 0 0 .70134 48.634 4.4875)" gradientUnits="userSpaceOnUse">
   <stop stop-color="#276000" offset="0"/>
   <stop stop-color="#90b800" offset="1"/>
  </linearGradient>
  <linearGradient id="linearGradient69044" x1="-55.566" x2="-55.566" y1="13.99" y2="14.865" gradientTransform="matrix(.58014 0 0 .58014 41.898 6.2823)" gradientUnits="userSpaceOnUse">
   <stop stop-color="#cef59a" offset="0"/>
   <stop stop-color="#91ba00" offset="1"/>
  </linearGradient>
  <linearGradient id="linearGradient106117" x1="-55.566" x2="-55.566" y1="13.99" y2="14.223" gradientTransform="matrix(.56038 -.15015 .15015 .56038 42.096 -4.7757)" gradientUnits="userSpaceOnUse">
   <stop stop-color="#fff" offset="0"/>
   <stop stop-color="#bee571" offset="1"/>
  </linearGradient>
  <linearGradient id="linearGradient24853" x1="3.6914" x2="3.6914" y1="2.4917" y2="9.211" gradientTransform="matrix(.67745 -.18152 .18152 .67745 4.4689 3.3903)" gradientUnits="userSpaceOnUse">
   <stop stop-color="#0079c7" offset="0"/>
   <stop stop-color="#27acfe" offset="1"/>
  </linearGradient>
  <linearGradient id="b-5-6" x1="9.2603" x2="9.2603" y1="-.26249" y2="15.612" gradientTransform="translate(-.79384 .79164)" gradientUnits="userSpaceOnUse">
   <stop stop-color="#1c1d1d" offset="0"/>
   <stop stop-color="#313232" offset="1"/>
  </linearGradient>
 </defs>
 <circle cx="8.4665" cy="8.4665" r="7.9373" fill="url(#b-5-6)" image-rendering="optimizeSpeed" stroke-width=".96298" style="paint-order:stroke markers fill"/>
 <g stroke-width=".71453">
  <path d="m13.759 9.076c-0.0056-0.00202-0.0112-0.00394-0.01689-0.00562-0.0099-0.00304-0.02002-0.00543-0.03019-0.00767-0.01013-0.00226-0.0204-0.00416-0.03078-0.00564-0.01043-0.00145-0.02077-0.00261-0.03127-0.00325-0.01054-6.96e-4 -0.02109-6.64e-4 -0.03167-5.225e-4 -0.01056 1.389e-4 -0.02124 7.211e-4 -0.03179 0.00179-0.01057 9.685e-4 -0.021 0.00242-0.03149 0.0043-0.01048 0.00187-0.02086 0.00404-0.03119 0.0068l-9.136 2.448c-0.010345 0.0028-0.020762 0.0061-0.030768 0.0098-0.010013 0.0036-0.019781 0.0076-0.029422 0.01202-0.00964 0.0044-0.019199 0.0092-0.028424 0.01435-0.00922 0.0052-0.018051 0.01032-0.026804 0.01619-0.00876 0.0059-0.017558 0.01206-0.025797 0.01854-0.00826 0.0065-0.016147 0.01323-0.023837 0.02027-0.00768 7e-3 -0.015226 0.01423-0.022318 0.02174-0.00412 0.0044-0.00782 9e-3 -0.011728 0.01365l0.25719 1.5284c0.00708 0.04188 0.020283 0.08084 0.038342 0.11655 0.00724 0.01428 0.015395 0.02794 0.024175 0.04118 0.00438 0.0066 0.00879 0.01331 0.013524 0.01964 0.014185 0.01897 0.030138 0.03663 0.047224 0.053 0.028477 0.02729 0.060532 0.05072 0.095337 0.07014 0.00691 0.0038 0.013869 0.0077 0.021015 0.01126 0.035825 0.01775 0.074288 0.03106 0.11391 0.04002 0.00789 0.0017 0.015789 0.0034 0.023815 0.0049 0.072217 0.0128 0.14801 0.01062 0.22157-0.0091l8.9111-2.3877c0.17161-0.04598 0.30704-0.18029 0.35334-0.33931 0.0066-0.02272 0.01158-0.04598 0.0144-0.06951 9.12e-4 -0.0078 0.0017-0.01596 0.0022-0.02385 9.4e-4 -0.01581 8.31e-4 -0.03167-1.3e-5 -0.04765-0.0022-0.03996-0.01029-0.08029-0.02504-0.12012z" fill="url(#linearGradient122580)"/>
  <path d="m13.713 8.9533c-0.01073-0.00334-0.02175-0.00645-0.03277-0.00885-0.01224-0.00272-0.02445-0.00469-0.03694-0.00623-0.01249-0.00152-0.02528-0.00254-0.03794-0.00297-0.01264-3.405e-4 -0.02503-1.272e-4 -0.03771 6.828e-4 -0.01269 8.127e-4 -0.02565 0.00221-0.03825 0.00425-0.01261 0.00203-0.02482 0.00479-0.03722 0.00811l-9.1367 2.4482c-0.012404 0.0033-0.024351 0.0071-0.036293 0.01159-0.011938 0.0045-0.023866 0.0098-0.035257 0.01545-0.011398 0.0056-0.022259 0.01155-0.033007 0.01827-0.010774 0.0066-0.021315 0.01399-0.031374 0.02154-0.010056 0.0076-0.019636 0.01541-0.028871 0.02387-0.00833 0.0076-0.016324 0.01584-0.02395 0.02405l0.021696 0.13002c0.00393-0.0046 0.00759-0.0092 0.011728-0.01365 0.00707-0.0076 0.014616-0.01471 0.022318-0.02174 0.00768-7e-3 0.015586-0.0138 0.023837-0.02027 0.00826-0.0065 0.017026-0.01274 0.025801-0.01855 0.00875-0.0059 0.017579-0.01103 0.026804-0.01619 0.00922-0.0052 0.018763-0.01 0.028424-0.01435 0.00964-0.0044 0.019399-0.0084 0.029422-0.01202 0.01002-0.0036 0.020423-7e-3 0.030768-0.0098l9.136-2.448c0.01034-0.00277 0.0207-0.00497 0.03119-0.0068 0.01048-0.00187 0.02092-0.00333 0.03149-0.0043 0.01057-9.686e-4 0.02122-0.00165 0.03179-0.00179 0.01056-1.389e-4 0.02114-1.786e-4 0.03166 5.225e-4 0.01054 6.96e-4 0.02088 0.00176 0.03127 0.00326 0.01033 0.00148 0.0206 0.00338 0.03078 0.00564 0.01013 0.00226 0.0203 0.00471 0.03019 0.00767 0.0057 0.0018 0.01134 0.00369 0.01689 0.00562z" fill="#015cbe"/>
  <path d="m3.4009 4.3456c-0.099157 0.026382-0.18047 0.065905-0.24081 0.11931-0.10202 0.072548-0.12879 0.16437-0.12697 0.30192l1.1343 6.7442c0.0076-0.0082 0.015614-0.01646 0.023947-0.02406 0.00924-0.0085 0.018827-0.01629 0.028871-0.02386 0.010056-0.0076 0.020622-0.01484 0.031374-0.02154 0.010774-0.0066 0.021609-0.01262 0.033-0.01826 0.011398-0.0056 0.023325-0.01091 0.035257-0.01545 0.011945-0.0045 0.023888-0.0083 0.036292-0.01159l9.1367-2.4482c0.0124-0.00332 0.02463-0.00604 0.03722-0.00811 0.01261-0.00203 0.02557-0.00344 0.03825-0.00425 0.01269-8.127e-4 0.02505-0.00112 0.03771-6.829e-4 0.01264 3.405e-4 0.02546 0.00146 0.03794 0.00297 0.01249 0.00152 0.0247 0.00353 0.03693 0.00623 0.01102 0.00243 0.02206 0.00556 0.03277 0.00886l-2.3897-6.4078c-0.0672-0.12004-0.13639-0.18651-0.26101-0.19834-0.07896-0.016069-0.16906-0.0093-0.2681 0.017432l-3.6953 0.99653z" fill="url(#linearGradient158037)"/>
 </g>
 <g stroke-linecap="round" stroke-linejoin="round">
  <path d="m4.7374 12.831 9.1408-2.4493c0.1986-0.05322 0.42994 0.0583 0.45454 0.26243l0.15694 1.3027c0.02459 0.20414-0.06382 0.40132-0.26243 0.45454l-8.7824 2.3532c-0.1986 0.05321-0.37377-0.07335-0.45454-0.26243l-0.51542-1.2066c-0.080768-0.18908 0.063822-0.40132 0.26243-0.45454z" color="#000000" fill="url(#linearGradient3986)" stroke-width=".037344" style="-inkscape-stroke:none"/>
  <path d="m5.0123 13.141 8.7824-2.3532c0.0993-0.02661 0.21129 0.02966 0.22727 0.13121l0.14503 0.92168c0.01598 0.10155-0.03191 0.20066-0.13121 0.22726l-8.5941 2.3028c-0.0993 0.02661-0.1905-0.0352-0.22727-0.13121l-0.33364-0.87114c-0.036766-0.096 0.031912-0.20066 0.13121-0.22726z" color="#000000" fill="#6c6c6c" stroke-width=".028686" style="-inkscape-stroke:none"/>
  <path d="m4.737 12.831c-0.1986 0.05321-0.34319 0.26546-0.26243 0.45454l0.00991 0.02286c-0.00881-0.15987 0.11868-0.31472 0.28426-0.35909l9.1415-2.4494c0.16558-0.04437 0.35341 0.02599 0.42572 0.16885l-0.0029-0.02474c-0.02459-0.20414-0.25594-0.31564-0.45454-0.26243z" color="#000000" fill="#fafafa" stroke-width=".037345" style="-inkscape-stroke:none"/>
  <path d="m5.0503 13.167 8.7248-2.3378c0.09864-0.02643 0.20632 0.0094 0.22294 0.11977l0.12993 0.86277c0.01431 0.09506-0.03454 0.18877-0.13318 0.2152l-8.5378 2.2877c-0.09865 0.02643-0.18798-0.03023-0.22295-0.11978l-0.31729-0.81257c-0.041817-0.1071 0.034539-0.18876 0.13318-0.2152z" color="#000000" fill="url(#linearGradient12298)" stroke-width=".027639" style="-inkscape-stroke:none"/>
  <path d="m4.8739 13.342c0.00161 9e-3 0.00388 0.01799 0.00722 0.02696l0.33361 0.87115c0.036767 0.096 0.12797 0.15782 0.22727 0.13121l8.5941-2.3028c0.0993-0.02661 0.1472-0.12571 0.13121-0.22726l-0.14491-0.92171c-0.0016-0.0094-0.0041-0.01833-0.0072-0.02696l0.14491 0.92171c0.01597 0.10156-0.03191 0.20066-0.13121 0.22726l-8.5941 2.3028c-0.0993 0.02661-0.1905-0.03522-0.22727-0.13121z" color="#000000" fill="#f0f0f0" stroke-width=".028686" style="-inkscape-stroke:none"/>
  <g stroke-width=".037113">
   <rect transform="rotate(-19.072)" x="1.1716" y="14.407" width=".18557" height=".74223" ry=".092781" fill="url(#linearGradient988)"/>
   <path d="m5.8423 13.314c6.22e-4 0.0024 0.00112 0.0049 0.00197 0.0073l0.18222 0.52601c0.016795 0.04858 0.069223 0.07416 0.11781 0.05736 0.047519-0.01646 0.073199-0.06706 0.058555-0.11474 0.01 0.04543-0.015351 0.09215-0.060431 0.10774-0.048596 0.01675-0.10111-0.0091-0.1179-0.05771z" fill="#f0f0f0"/>
   <rect transform="rotate(-19.072)" x="1.5451" y="14.433" width=".18557" height=".74223" ry=".092781" fill="url(#linearGradient990)"/>
   <path d="m6.204 13.217c6.219e-4 0.0024 0.00112 0.0049 0.00197 0.0073l0.18222 0.52601c0.016795 0.04858 0.069223 0.07416 0.11781 0.05736 0.047519-0.01646 0.073199-0.06706 0.058555-0.11474 0.01 0.04543-0.015351 0.09215-0.060431 0.10774-0.048596 0.01675-0.1011-0.0091-0.1179-0.05771z" fill="#f0f0f0"/>
   <rect transform="rotate(-19.072)" x="1.9186" y="14.46" width=".18557" height=".74223" ry=".092781" fill="url(#linearGradient992)"/>
   <path d="m6.5657 13.12c6.221e-4 0.0024 0.00112 0.0049 0.00197 0.0073l0.18222 0.52601c0.016795 0.04858 0.069223 0.07416 0.11781 0.05736 0.047519-0.01646 0.073199-0.06706 0.058555-0.11474 0.01 0.04543-0.015351 0.09215-0.060431 0.10774-0.048596 0.01675-0.10111-0.0091-0.1179-0.05771z" fill="#f0f0f0"/>
   <rect transform="rotate(-19.072)" x="2.2921" y="14.487" width=".18557" height=".74223" ry=".092781" fill="url(#linearGradient994)"/>
   <path d="m6.9274 13.023c6.219e-4 0.0024 0.00112 0.0049 0.00197 0.0073l0.18222 0.52601c0.016795 0.04858 0.069223 0.07416 0.11781 0.05736 0.047519-0.01646 0.073199-0.06706 0.058555-0.11474 0.01 0.04543-0.015351 0.09215-0.060431 0.10774-0.048589 0.01675-0.10111-0.0091-0.1179-0.05771z" fill="#f0f0f0"/>
   <rect transform="rotate(-19.072)" x="2.6657" y="14.513" width=".18557" height=".74223" ry=".092781" fill="url(#linearGradient24281)"/>
   <path d="m7.2891 12.926c6.22e-4 0.0024 0.00112 0.0049 0.00197 0.0073l0.18222 0.52601c0.016795 0.04858 0.069223 0.07416 0.11781 0.05736 0.047519-0.01646 0.073199-0.06706 0.058555-0.11474 0.01 0.04543-0.015351 0.09215-0.060431 0.10774-0.048589 0.01675-0.10111-0.0091-0.1179-0.05771z" fill="#f0f0f0"/>
  </g>
  <circle transform="rotate(-15)" cx="9.6563" cy="14.637" r=".37113" fill="url(#linearGradient45238)" stroke-width=".041781"/>
  <path d="m13.469 11.525a0.37113 0.37113 0 0 1-0.26526 0.44254 0.37113 0.37113 0 0 1-0.44981-0.24756 0.37113 0.37113 0 0 0 0.0034 0.01561 0.37113 0.37113 0 0 0 0.45454 0.26243 0.37113 0.37113 0 0 0 0.26243-0.45454 0.37113 0.37113 0 0 0-0.0053-0.01846z" fill="#d9d9d9" stroke-width=".041782"/>
  <ellipse transform="rotate(-15)" cx="9.6563" cy="14.613" rx=".33735" ry=".31333" fill="#33323a" stroke-width=".036602"/>
  <ellipse transform="rotate(-15)" cx="9.6563" cy="14.608" rx=".3314" ry=".30779" fill="url(#linearGradient59949)" stroke-width=".035955"/>
  <ellipse transform="rotate(-15)" cx="9.6563" cy="14.653" rx=".27412" ry=".2546" fill="url(#linearGradient69044)" stroke-width=".029741"/>
  <path d="m13.054 11.409a0.25459 0.27412 75 0 0-0.19873 0.31702 0.25459 0.27412 75 0 0 0.0175 0.0456 0.25239 0.27174 75 0 1-0.01161-0.03366 0.25239 0.27174 75 0 1 0.19683-0.31426 0.25239 0.27174 75 0 1 0.32793 0.17365 0.25239 0.27174 75 0 1 0.0062 0.03285 0.25459 0.27412 75 0 0-0.0072-0.0461 0.25459 0.27412 75 0 0-0.33095-0.17509z" fill="url(#linearGradient106117)" stroke-width=".029743"/>
 </g>
 <path d="m4.3547 11.397c-0.012404 0.0033-0.024351 0.0071-0.036292 0.01159-0.011945 0.0045-0.023866 0.0098-0.035257 0.01545-0.011398 0.0056-0.022259 0.01155-0.033 0.01826-0.010774 0.0066-0.021314 0.01399-0.031374 0.02154-0.010056 0.0076-0.019636 0.01541-0.028871 0.02387-0.00833 0.0076-0.016324 0.01585-0.023947 0.02406l0.021696 0.13002c0.00134-0.0015 0.00278-0.0029 0.00409-0.0045l-0.013192-0.07864c0.0076-0.0082 0.015617-0.01645 0.023947-0.02406 0.00924-0.0085 0.018819-0.01632 0.028871-0.02387 0.010056-0.0076 0.020622-0.01484 0.031374-0.02154 0.010774-0.0066 0.021635-0.01253 0.033007-0.01826 0.011398-0.0056 0.023299-0.01101 0.035257-0.01545 0.011939-0.0045 0.023888-0.0083 0.036292-0.01159l9.1367-2.4482c0.0124-0.00332 0.02463-0.00602 0.03722-0.00811 0.01261-0.00203 0.0256-0.00334 0.03825-0.00425 0.01269-8.127e-4 0.02504-0.00112 0.03771-6.829e-4 0.01264 3.405e-4 0.02546 0.00146 0.03794 0.00297 0.01247 0.00152 0.0247 0.00353 0.03693 0.00623 0.01102 0.00243 0.02206 0.00555 0.03277 0.00886l0.02779 0.074351c0.0019 6.225e-4 0.0038 0.00115 0.0057 0.00189l-0.04612-0.12309c-0.01073-0.00334-0.02175-0.00645-0.03277-0.00886-0.01224-0.00272-0.02445-0.00469-0.03693-0.00623-0.01249-0.00152-0.02528-0.00254-0.03794-0.00297-0.01264-3.405e-4 -0.02502-1.273e-4 -0.03771 6.828e-4 -0.01269 8.127e-4 -0.02565 0.00221-0.03825 0.00425-0.01261 0.00203-0.02482 0.00479-0.03722 0.00811z" fill="#2cabfc" stroke-width=".71453"/>
 <path d="m6.3951 4.7125 0.57615 2.1502-0.74702 0.20016 2.3656 1.8643 1.1166-2.7973-0.74702 0.20016-0.57615-2.1502z" fill="#0892e7" stroke="url(#linearGradient24853)" stroke-width=".035067"/>
</svg>
