<?xml version="1.0" encoding="UTF-8"?>
<svg id="Calendar" width="64" height="64" enable-background="new 0 0 1024 1024" image-rendering="optimizeSpeed" version="1.1" viewBox="0 0 64 64" xmlns="http://www.w3.org/2000/svg" xmlns:cc="http://creativecommons.org/ns#" xmlns:dc="http://purl.org/dc/elements/1.1/" xmlns:rdf="http://www.w3.org/1999/02/22-rdf-syntax-ns#">
 <metadata>
  <rdf:RDF>
   <cc:Work rdf:about="">
    <dc:format>image/svg+xml</dc:format>
    <dc:type rdf:resource="http://purl.org/dc/dcmitype/StillImage"/>
    <dc:title/>
   </cc:Work>
  </rdf:RDF>
 </metadata>
 <defs>
  <linearGradient id="linearGradient848-3" x1="-170.2" x2="-184.75" y1="-1.2654" y2="-15.817" gradientTransform="matrix(4.1231,0,0,4.1231,763.75,67.218)" gradientUnits="userSpaceOnUse">
   <stop stop-color="#f5501e" offset="0"/>
   <stop stop-color="#ff640a" offset="1"/>
  </linearGradient>
 </defs>
 <g transform="matrix(3.7796 0 0 3.7796 -.00022711 -.00022711)">
  <path transform="scale(.26458)" d="m32 2a30 30 0 0 0-30 30 30 30 0 0 0 30 30 30 30 0 0 0 30-30 30 30 0 0 0-30-30z" fill="url(#linearGradient848-3)" stroke-width="4.1231"/>
  <rect x="4.2985" y="2.7375" width="8.336" height="1.0958" ry=".5479" fill="#ebf0f0" stroke-width="1.0909" style="paint-order:stroke fill markers"/>
  <path d="m2.6433 5.7331c-0.048118-3.8e-6 -0.094707 0.00563-0.14041 0.013783a6.6157 6.6157 0 0 0-0.65081 2.8177v0.065899a6.6157 6.6157 0 0 0 6.6145 6.5774 6.6157 6.6157 0 0 0 6.6145-6.5916v-0.057285a6.6157 6.6157 0 0 0-0.64822-2.8104c-0.04624-0.00836-0.09342-0.01464-0.14214-0.014644z" fill="#ebf0f0" stroke-width=".76965"/>
  <text x="5.0869923" y="12.173296" fill="#ff501e" font-family="Hack" font-size="5.5794px" font-weight="bold" letter-spacing="0px" stroke-width=".13948" word-spacing="0px" style="font-feature-settings:normal;font-variant-caps:normal;font-variant-ligatures:normal;font-variant-numeric:normal;line-height:1.25" xml:space="preserve"><tspan x="5.0869923" y="12.173296" fill="#ff501e" font-family="Hack" font-size="5.5794px" font-weight="bold" stroke-width=".13948" style="font-feature-settings:normal;font-variant-caps:normal;font-variant-ligatures:normal;font-variant-numeric:normal">15</tspan></text>
 </g>
</svg>
