<?xml version="1.0" encoding="UTF-8"?>
<!-- Created with Inkscape (http://www.inkscape.org/) -->
<svg width="64" height="64" version="1.1" viewBox="0 0 16.933 16.933" xmlns="http://www.w3.org/2000/svg" xmlns:xlink="http://www.w3.org/1999/xlink">
 <defs>
  <linearGradient id="linearGradient4316" x1="11.889" x2="56.739" y1="12.597" y2="53.442" gradientTransform="matrix(.26458 0 0 .26458 1.3328 .96415)" gradientUnits="userSpaceOnUse">
   <stop stop-color="#fafafa" offset="0"/>
   <stop stop-color="#f3f3f3" offset="1"/>
  </linearGradient>
  <linearGradient id="linearGradient12727" x1="26.731" x2="99.216" y1="46.276" y2="68.137" gradientTransform="matrix(.13197 0 0 .13197 2.2479 2.1317)" gradientUnits="userSpaceOnUse">
   <stop stop-color="#27d1f4" offset="0"/>
   <stop stop-color="#4823f8" offset="1"/>
  </linearGradient>
  <filter id="filter12832" x="-1.3677" y="-2.9013" width="3.7354" height="6.8027" color-interpolation-filters="sRGB">
   <feGaussianBlur stdDeviation="0.8918887"/>
  </filter>
  <linearGradient id="linearGradient1030-0" x1="467.31" x2="484.67" y1="536.17" y2="546.86" gradientTransform="matrix(.023963 0 0 .023963 -1.7105 .79368)" gradientUnits="userSpaceOnUse">
   <stop stop-color="#edf3fd" offset="0"/>
   <stop stop-color="#4c659e" offset="1"/>
  </linearGradient>
  <linearGradient id="linearGradient1001-6" x1="440" x2="437.15" y1="436.36" y2="440.6" gradientTransform="matrix(.023963 0 0 .023963 -.40376 2.4613)" gradientUnits="userSpaceOnUse">
   <stop stop-color="#aab1cb" offset="0"/>
   <stop stop-color="#545f7b" offset="1"/>
  </linearGradient>
  <linearGradient id="linearGradient976-1" x1="475.66" x2="508.09" y1="419.15" y2="438.51" gradientTransform="matrix(.023963 0 0 .023963 -1.2743 1.8045)" gradientUnits="userSpaceOnUse">
   <stop stop-color="#0e1328" offset="0"/>
   <stop stop-color="#222739" offset=".086858"/>
   <stop stop-color="#55576b" offset=".27184"/>
   <stop stop-color="#4e5065" offset=".44369"/>
   <stop stop-color="#1e1d2f" offset=".72964"/>
   <stop stop-color="#181626" offset=".94873"/>
   <stop stop-color="#282633" offset="1"/>
  </linearGradient>
  <linearGradient id="linearGradient948-6" x1="419.75" x2="461.53" y1="355" y2="382.18" gradientTransform="matrix(.023963 0 0 .023963 .44268 2.4622)" gradientUnits="userSpaceOnUse">
   <stop stop-color="#7c7784" offset="0"/>
   <stop stop-color="#8f9cc8" offset=".10554"/>
   <stop stop-color="#899bc6" offset=".18321"/>
   <stop stop-color="#7c92ce" offset=".37171"/>
   <stop stop-color="#a3bdf5" offset=".49801"/>
   <stop stop-color="#6277ab" offset=".64132"/>
   <stop stop-color="#5b7196" offset=".74579"/>
   <stop stop-color="#393b55" offset=".8458"/>
   <stop stop-color="#393f4d" offset=".87896"/>
   <stop stop-color="#4f5454" offset=".97657"/>
   <stop stop-color="#6c605a" offset="1"/>
  </linearGradient>
  <linearGradient id="linearGradient928-7" x1="464.17" x2="506.26" y1="281.65" y2="307.66" gradientTransform="matrix(.023963 0 0 .023963 .43591 2.4555)" gradientUnits="userSpaceOnUse">
   <stop stop-color="#9d3a19" offset="0"/>
   <stop stop-color="#ff6f3d" offset=".28804"/>
   <stop stop-color="#f44c12" offset=".52143"/>
   <stop stop-color="#d74512" offset=".58954"/>
   <stop stop-color="#ad350b" offset=".77777"/>
   <stop stop-color="#9b2d07" offset=".94115"/>
   <stop stop-color="#bb5b39" offset="1"/>
  </linearGradient>
  <linearGradient id="linearGradient1100-7" x1="850.97" x2="860.92" y1="144.18" y2="150.72" gradientTransform="matrix(.023963 0 0 .023963 -6.7577 2.3515)" gradientUnits="userSpaceOnUse">
   <stop stop-color="#22282f" offset="0"/>
   <stop stop-color="#394350" stop-opacity="0" offset="1"/>
  </linearGradient>
  <linearGradient id="linearGradient1083-5" x1="649.14" x2="652.12" y1="144.3" y2="146.04" gradientTransform="matrix(.023963 0 0 .023963 -1.9621 2.2255)" gradientUnits="userSpaceOnUse">
   <stop stop-color="#e2e9f7" offset="0"/>
   <stop stop-color="#8a93ba" offset="1"/>
  </linearGradient>
  <linearGradient id="linearGradient1053-2" x1="645.76" x2="657.61" y1="150.39" y2="156.97" gradientTransform="matrix(.023963 0 0 .023963 -1.9725 2.2082)" gradientUnits="userSpaceOnUse">
   <stop stop-color="#919fca" offset="0"/>
   <stop stop-color="#697eaa" offset=".11744"/>
   <stop stop-color="#b4bfd2" offset=".18424"/>
   <stop stop-color="#6c83aa" offset=".25824"/>
   <stop stop-color="#8fa2bf" offset=".30142"/>
   <stop stop-color="#6c7da8" offset=".39866"/>
   <stop stop-color="#b7c1d7" offset=".51394"/>
   <stop stop-color="#c2d2eb" offset="1"/>
  </linearGradient>
  <linearGradient id="linearGradient1211-4" x1="364.04" x2="377.62" y1="463.43" y2="458.81" gradientTransform="matrix(.023963 0 0 .023963 .40414 2.4581)" gradientUnits="userSpaceOnUse">
   <stop stop-color="#4f6d9f" stop-opacity="0" offset="0"/>
   <stop stop-color="#4f6d9f" stop-opacity=".52157" offset=".47825"/>
   <stop stop-color="#4f6d9f" stop-opacity="0" offset="1"/>
  </linearGradient>
 </defs>
 <g transform="translate(-1.2602 -1.0056)">
  <circle cx="9.7269" cy="9.4722" r="7.9375" color="#000000" fill="url(#linearGradient4316)" stroke-width=".26459"/>
  <path d="m9.5939 7.233 0.41079 3.656a7.3197 7.362 0 0 0 4.76e-4 -0.0019l-0.40982-3.6499a7.3197 7.362 0 0 0-9.261e-4 -0.00429h-4.762e-4z" color="#000000" fill="#fafafa" stroke-width=".2447"/>
  <path d="m9.5939 7.2329 0.41078 3.6561a7.3196 7.362 0 0 0 4.76e-4 -0.0019l-0.40984-3.6499a7.3196 7.362 0 0 0-0.0014-0.00432z" color="#000000" fill="#fafafa" stroke-width=".24469"/>
  <path d="m4.2916 5.6023c-0.00222 0.00318-0.00445 0.00636-0.00668 0.00923 1.5263 0.045808 4.9733 0.36169 5.3544 2.2672 0.32511 1.6262-1.9656 1.9373-1.3151 3.5635 0.60155 1.5034 5.3563 2.1896 6.0727 2.1978l0.17528-0.56528c-0.71606-0.008593-5.314-0.11484-5.9156-1.6185-0.65054-1.6262 1.6262-1.9513 1.3011-3.5775-0.40718-2.0359-4.3454-2.2608-5.6659-2.2764" fill="#484848" fill-rule="evenodd" stroke-width=".31811"/>
  <path d="m4.6636 4.7802a0.91263 0.91263 0 0 0-0.91248 0.91248 0.91263 0.91263 0 0 0 0.91248 0.91273 0.91263 0.91263 0 0 0 0.91274-0.91273 0.91263 0.91263 0 0 0-0.91274-0.91248zm5.1895 2.2546a0.91263 0.91263 0 0 0-0.91273 0.91273 0.91263 0.91263 0 0 0 0.91273 0.91248 0.91263 0.91263 0 0 0 0.91273-0.91248 0.91263 0.91263 0 0 0-0.91273-0.91273zm-1.36 3.6507a0.91263 0.91263 0 0 0-0.91273 0.91248 0.91263 0.91263 0 0 0 0.91273 0.91274 0.91263 0.91263 0 0 0 0.91248-0.91274 0.91263 0.91263 0 0 0-0.91248-0.91248zm6.442 1.7177a0.91263 0.91263 0 0 0-0.91248 0.91274 0.91263 0.91263 0 0 0 0.91248 0.91248 0.91263 0.91263 0 0 0 0.91273-0.91248 0.91263 0.91263 0 0 0-0.91273-0.91274z" fill="url(#linearGradient12727)" style="paint-order:fill markers stroke"/>
  <g>
   <path transform="matrix(.24399 0 0 .24399 2.0471 2.2462)" d="m31.129 43.44-0.09531 0.33107c-0.03114 0.15346 0.1128 0.31582 0.27087 0.41133l2.5031 1.5249c0.14244 0.08653 0.3935 0.12597 0.49158 5e-3l0.20065-0.23576z" filter="url(#filter12832)" opacity=".3"/>
   <path transform="matrix(.24399 0 0 .24399 2.0471 2.2462)" d="m34.338 37.21-0.0058 0.0096c-0.02763 0.07698-0.05592 0.15003-0.08382 0.2252 1.3855 0.77077 2.7315 1.682 4.0818 2.5781 0.06611-0.0555 0.13181-0.11165 0.1993-0.16516-1.3972-1.256-2.7943-1.9885-4.1915-2.6477z" filter="url(#filter12832)" opacity=".3"/>
   <path transform="matrix(.24399 0 0 .24399 2.0471 2.2462)" d="m34.938 36.226-0.60183 0.98335c1.4242 0.78903 2.8061 1.7286 4.1936 2.6486l0.57954-0.96456c-1.3432-1.0307-2.7213-1.9568-4.1713-2.6673z" filter="url(#filter12832)" opacity=".3"/>
   <path transform="matrix(.24399 0 0 .24399 2.0471 2.2462)" d="m42.874 23.234c-0.04486-0.05994-0.07043-0.11973-0.08142-0.17796 1.9876-0.136 3.39 1.2983 4.5435 2.7153-0.10531 0.05136-0.21988 0.05677-0.29548 0.02634-0.80576-1.2336-2.4423-2.7346-4.1666-2.5636z" filter="url(#filter12832)" opacity=".3"/>
   <path transform="matrix(.24399 0 0 .24399 2.0471 2.2462)" d="m51.674 11.207-1.565 0.04222 0.86546-0.73778 0.56752 0.21282z" filter="url(#filter12832)" opacity=".3"/>
   <path transform="matrix(.24399 0 0 .24399 2.0471 2.2462)" d="m30.438 45.45c-0.50089 0.60774-1.0297 1.2008-1.6245 1.759l0.78858 1.0251c0.11176-0.43138 0.6479-0.43942 0.84631-0.34586 0.07368 0.03474 0.13804 0.09133 0.1878 0.16151l0.02916-0.0082z" filter="url(#filter12832)" opacity=".3"/>
  </g>
  <path d="m9.727 12.785c-0.21801 0.28005-0.43615 0.56002-0.71494 0.80804-0.029107 0.0193-0.026456 0.03698-0.027888 0.0713 0.019373 0.34521-0.0053 0.6083-0.029726 0.92029l0.3433-0.62265c-0.11738-0.27857 0.11093-0.29501 0.17853-0.26313 0.097149 0.04581 0.12881 0.24735-0.11825 0.28674l-0.35453 0.62374c0.24966-0.1809 0.50621-0.29978 0.76504-0.3981 0.017026-0.0057 0.080673-0.04004 0.083079-0.07616 0.034078-0.32891 0.41902-1.0869 0.46041-1.0489z" fill="url(#linearGradient1030-0)"/>
  <path d="m9.727 12.785c-0.218 0.28005-0.43617 0.56003-0.71496 0.80805-0.029108 0.0193-0.026465 0.03701-0.027895 0.07133 0.01937 0.34521-0.00529 0.60829-0.029719 0.92028l0.3433-0.62267c-0.11738-0.27857 0.11095-0.295 0.17855-0.26312 0.097148 0.04581 0.12879 0.24732-0.11827 0.28671l-0.35453 0.62374c0.24966-0.1809 0.50625-0.29979 0.76508-0.3981 0.017026-0.0057 0.080669-0.04003 0.083074-0.07615 0.033507-0.3234 0.40621-1.0617 0.45801-1.0501zm0.58265 0.29996 0.0024 0.0012c-6.88e-4 -6.35e-4 -0.0015-1e-3 -0.0024-0.0012zm-0.57291-0.25451 0.5109 0.26303c-0.01532 0.01974-0.03176 0.04359-0.05106 0.07582-0.04342 0.0725-0.0968 0.17468-0.15005 0.28849-0.10649 0.22763-0.21247 0.49815-0.23064 0.67358v0.001376c1.969e-4 -0.0022-0.00692 0.01195-0.02181 0.02317-0.014893 0.01121-0.036119 0.02105-0.036836 0.0213l-6.879e-4 1.98e-4 -6.879e-4 1.97e-4c-0.2173 0.082534-0.43394 0.18236-0.64681 0.31886l0.27314-0.48052c0.12009-0.025 0.18654-0.09184 0.19952-0.16502 0.013692-0.07721-0.024402-0.15365-0.090002-0.18459-0.02504-0.01181-0.055738-0.01654-0.089955-0.01488-0.034214 0.0017-0.07168 0.01047-0.10432 0.0329-0.032642 0.02243-0.058985 0.06001-0.066271 0.10924-0.00663 0.04479 0.00322 0.09956 0.027986 0.16423l-0.25737 0.46676c0.018846-0.244 0.034197-0.47589 0.018486-0.75928 7.937e-4 -0.01779 0.00116-0.02903 0.00214-0.03243 9.79e-4 -0.0035-2.91e-4 -0.0033 0.00964-0.0099l0.00214-0.0014 0.00188-0.0017c0.27398-0.24374 0.48855-0.51717 0.70059-0.78947z" color="#000000" color-rendering="auto" dominant-baseline="auto" fill="#08092d" fill-opacity=".22528" image-rendering="auto" shape-rendering="auto" solid-color="#000000" style="font-feature-settings:normal;font-variant-alternates:normal;font-variant-caps:normal;font-variant-ligatures:normal;font-variant-numeric:normal;font-variant-position:normal;isolation:auto;mix-blend-mode:normal;shape-padding:0;text-decoration-color:#000000;text-decoration-line:none;text-decoration-style:solid;text-indent:0;text-orientation:mixed;text-transform:none;white-space:normal"/>
  <path d="m9.6422 12.614-0.023254 0.08078c-0.0076 0.03744 0.027522 0.07706 0.06609 0.10036l0.61073 0.37207c0.03475 0.02111 0.09601 0.03073 0.11994 0.0012l0.04896-0.05752z" fill="url(#linearGradient1001-6)"/>
  <path d="m10.425 11.093c-0.24218 0.67547-0.52616 1.0611-0.78782 1.4979-0.011089 0.02205-8.732e-4 0.03611 0.013848 0.04846 0.26055 0.16602 0.50332 0.33916 0.80658 0.4881 0.02047 0.01092 0.03795-0.02198 0.045-0.03808 0.23872-0.56051 0.54091-1.0293 0.94558-1.3501-0.34106-0.30658-0.68212-0.48533-1.0232-0.64622z" fill="url(#linearGradient976-1)"/>
  <path d="m10.425 11.094-0.0014 0.0024c-0.0067 0.01878-0.01365 0.03661-0.02045 0.05495 0.33804 0.18806 0.66644 0.4104 0.99591 0.62903 0.01613-0.01354 0.03216-0.02724 0.04863-0.0403-0.3409-0.30644-0.68178-0.48518-1.0227-0.64602z" fill-opacity=".22528"/>
  <path d="m10.572 10.853-0.14684 0.23993c0.34748 0.19252 0.68466 0.42176 1.0232 0.64622l0.1414-0.23534c-0.32773-0.25148-0.66398-0.47743-1.0177-0.6508z" fill="url(#linearGradient948-6)"/>
  <path d="m15.308 3.9133c-0.13524 0.00198-0.29162 0.049577-0.35467 0.12562-1.0534 1.0973-1.6218 2.3332-2.4306 3.5004-0.03072 0.035503-0.05556 0.089625-0.01483 0.14425l-1.9361 3.17c0.37041 0.19916 0.69659 0.42352 1.0177 0.65079l1.9249-3.2014 0.01016 0.00627c0.02868 0.011546 0.08037 0.00198 0.11078-0.038051 0.77459-1.237 1.5707-2.629 2.0132-3.8406 0.07068-0.20226-0.07516-0.44125-0.17996-0.49007-0.042-0.019566-0.09911-0.02809-0.16058-0.027192z" fill="url(#linearGradient928-7)"/>
  <path d="m12.508 7.6836c-0.01095-0.014626-0.01719-0.029213-0.01987-0.043419 0.48496-0.033184 0.82713 0.31676 1.1086 0.6625-0.0257 0.012531-0.05365 0.013851-0.0721 0.00643-0.19659-0.30098-0.59588-0.66723-1.0166-0.62551z" fill="#272727" fill-opacity=".32967"/>
  <g>
   <path d="m14.689 4.6665 0.04998 0.09375-1.7918 2.7513-0.42439 0.027724 1.5553-2.5441 0.38458-0.38479z" fill="url(#linearGradient1100-7)"/>
   <path d="m14.541 4.5419-0.11198-0.013176c-0.06772-0.016507-0.13085 0.027023-0.18067 0.058372-0.04655 0.029561-0.08541 0.062972-0.11369 0.10167-0.2256 0.23067-0.34629 0.48231-0.51404 0.72455-0.21233 0.34017-0.44502 0.79116-0.70007 1.3169l-0.37206 0.69028c-0.05923 0.11906-0.01002 0.11982 0.07343 0.083226l0.73434-1.2631 0.66091-1.1113 0.4455-0.51893z" fill="url(#linearGradient1083-5)"/>
   <path d="m14.655 4.7492-0.38186 0.0103 0.21116-0.18001 0.13847 0.051926z" fill="#62748f"/>
   <path d="m14.655 4.7492-0.12462-0.13154c-0.58457 0.54497-0.74126 1.0112-0.9639 1.4341-0.24115 0.45803-0.43904 0.89395-0.82927 1.4461-0.05789 0.071474-0.16728 0.064195-0.21463 0.041541 1.2293-1.9034 1.11-2.1631 1.8726-2.9477 0.1354-0.13928 0.25752 0.036783 0.29356 0.074861z" fill="url(#linearGradient1053-2)"/>
   <path d="m9.4737 13.104c-0.12221 0.14828-0.25123 0.29298-0.39637 0.42918l0.19241 0.25011c0.027267-0.10525 0.15808-0.10721 0.20649-0.08439 0.017979 0.0085 0.03368 0.02228 0.045822 0.03941l0.00711-2e-3z" fill="url(#linearGradient1211-4)"/>
  </g>
 </g>
</svg>
