<?xml version="1.0" encoding="UTF-8"?>
<!-- Created with Inkscape (http://www.inkscape.org/) -->
<svg width="64" height="64" version="1.1" viewBox="0 0 16.933 16.933" xmlns="http://www.w3.org/2000/svg" xmlns:xlink="http://www.w3.org/1999/xlink">
 <defs>
  <filter id="filter1272" x="-.094272" y="-.090466" width="1.1885" height="1.1809" color-interpolation-filters="sRGB">
   <feGaussianBlur stdDeviation="0.39771105"/>
  </filter>
  <filter id="filter1066-3" x="-.063923" y="-.056531" width="1.1278" height="1.1131" color-interpolation-filters="sRGB">
   <feGaussianBlur stdDeviation="0.22705935"/>
  </filter>
  <linearGradient id="linearGradient1276" x1="-223.57" x2="-227.23" y1="236.07" y2="258.84" gradientTransform="matrix(.040667 0 0 .040667 31.661 15.414)" gradientUnits="userSpaceOnUse">
   <stop stop-color="#a8c5da" offset="0"/>
   <stop stop-color="#dfe6ee" offset="1"/>
  </linearGradient>
  <linearGradient id="linearGradient1208" x1="-905.43" x2="-844.88" y1="649.29" y2="649.29" gradientTransform="matrix(.010393 -.0027849 .0027849 .010393 34.572 6.6944)" gradientUnits="userSpaceOnUse">
   <stop stop-color="#dbe7f3" offset="0"/>
   <stop stop-color="#9ba7af" offset="1"/>
  </linearGradient>
  <linearGradient id="linearGradient1216" x1="-170.16" x2="-161.92" y1="-33.742" y2="-96.1" gradientTransform="matrix(.039281 -.010525 -.010525 -.039281 34.572 6.6944)" gradientUnits="userSpaceOnUse">
   <stop stop-color="#0099fb" stop-opacity=".99216" offset="0"/>
   <stop stop-color="#4ecafe" stop-opacity=".97255" offset="1"/>
  </linearGradient>
  <linearGradient id="linearGradient1040" x1="80.368" x2="82.141" y1="13.177" y2="14.704" gradientTransform="matrix(1.0235 0 0 1.0235 -52.105 3.7463)" gradientUnits="userSpaceOnUse">
   <stop stop-color="#fafafa" offset="0"/>
   <stop stop-color="#90a0b3" offset="1"/>
  </linearGradient>
 </defs>
 <g transform="translate(-18.08 -6.1868)">
  <circle cx="26.482" cy="14.695" r="7.9375" color="#000000" fill="#f3f3f3" stroke-width=".26458"/>
  <path transform="matrix(.88977 0 0 .97319 -17.738 1.7457)" d="m57.641 9.8253c0.81583 3.5615-6.4071 9.5974-9.8786 10.551l4.6899-0.01017c4.0983-2.6261 3.5124-2.2804 5.4351-4.4455z" fill="#9cb8d7" filter="url(#filter1272)" opacity=".2"/>
  <path d="m26.414 6.6521a7.9375 7.9833 0 0 0-7.9375 7.9835 7.9375 7.9833 0 0 0 5.5383 7.6068l0.53279-0.06029c3.7573-1.0394 9.0461-4.2556 9.2554-10.46a7.9375 7.9833 0 0 0-7.3888-5.0697zm7.4067 5.1176 0.44545 3.9648a7.9375 7.9833 0 0 0 5.03e-4 -0.0021l-0.44442-3.9579a7.9375 7.9833 0 0 0-0.0015-0.0047z" color="#000000" fill="#fafafa" stroke-width=".26535"/>
  <path transform="matrix(1.0996 0 0 1.0321 -29.661 1.9986)" d="m57.818 9.8288s0.05354 3.0782-2.6636 4.5408c-2.2449 1.2084 0.9386 2.689-5.8599 5.0989 8.8505-2.5748 8.5235-9.6396 8.5235-9.6396z" fill="#141414" filter="url(#filter1066-3)" opacity=".3"/>
  <path transform="matrix(1.0685 0 0 .99565 -27.758 2.6712)" d="m57.818 9.8288s0.05354 3.0782-2.6636 4.5408c-2.2449 1.2084 0.9386 2.689-5.8599 5.0989 8.8505-2.5748 8.5235-9.6396 8.5235-9.6396z" fill="#141414" filter="url(#filter1066-3)" opacity=".3"/>
  <g>
   <path d="m30.067 18.227c0.09847 0.36749-0.71479 0.9047-1.8165 1.1999-1.1017 0.29519-2.0746 0.23658-2.1731-0.1309-0.0098-0.03644-0.06312-0.19012-0.05556-0.22949 0.06866-0.35772 0.8796-0.70448 1.872-0.9704 0.9955-0.26674 1.8846-0.40269 2.103-0.11151 0.02446 0.03261 0.0606 0.207 0.07009 0.24241z" fill="#698fac"/>
   <ellipse transform="rotate(-15)" cx="22.26" cy="25.173" rx="2.0651" ry=".68887" fill="url(#linearGradient1276)"/>
   <path d="m26.266 13.338 1.3804 5.1517 0.0011-2.91e-4a0.10866 0.32509 75 0 0 0.34078 0.01725 0.10866 0.32509 75 0 0 0.28632-0.18528l0.0012-3.44e-4 -1.3804-5.1517z" fill="url(#linearGradient1208)" stroke="#698fac" stroke-width=".014749"/>
   <path d="m22.706 14.893 8.0752-2.1638c0.09459-0.02535 0.12954-0.11117 0.10412-0.2109l-0.039805-0.15604-1.5278-3.0199c-0.044201-0.087386-0.13119-0.14233-0.22579-0.11703l-6.6801 1.786c-0.09461 0.0253-0.14999 0.09655-0.14542 0.16995l0.17591 3.421 0.04715 0.16577c0.02681 0.09419 0.1219 0.15034 0.2165 0.125z" fill="#045389"/>
   <path d="m22.656 14.706 8.0752-2.1638c0.09459-0.02535 0.14746-0.12309 0.10412-0.2109l-1.5676-3.1759c-0.043343-0.087818-0.1312-0.14233-0.2258-0.11703l-6.6801 1.786c-0.09461 0.0253-0.14999 0.09655-0.14542 0.16994l0.22308 3.5867c0.0061 0.09774 0.1219 0.15034 0.2165 0.12499z" fill="url(#linearGradient1216)"/>
   <path d="m23.437 11.144 4.8171-1.292 0.97987 2.3628-5.4685 1.4653z" opacity=".25"/>
   <path d="m23.426 11.103 4.8171-1.292 0.97987 2.3628-5.4685 1.4653z" fill="#fcfcfc"/>
   <path d="m22.642 14.351 7.9016-2.1172 0.0026 0.12272-7.8458 2.1023z" fill="#004d84"/>
   <path d="m22.631 14.238 0.01157 0.11288 7.9016-2.1172-0.03911-0.10998z" fill="#81e3fc"/>
  </g>
  <path d="m23.804 11.591 4.2835-1.1478-0.0028-0.01051" fill="none" stroke="#000" stroke-width=".014749"/>
  <g>
   <g>
    <ellipse transform="rotate(-15)" cx="22.757" cy="17.705" rx=".12009" ry=".078778" fill="#26b1f6"/>
    <ellipse transform="rotate(-15)" cx="22.762" cy="17.96" rx=".12009" ry=".078778" fill="#e785f8"/>
    <ellipse transform="rotate(-15)" cx="22.768" cy="18.22" rx=".12009" ry=".078778" fill="#fc5353"/>
    <ellipse transform="rotate(-15)" cx="22.779" cy="18.496" rx=".12675" ry=".083147" fill="#ffe244"/>
    <ellipse transform="rotate(-15)" cx="22.786" cy="18.783" rx=".13052" ry=".085619" fill="#90e564"/>
   </g>
   <g fill-rule="evenodd">
    <path d="m24.948 11.475a0.72163 1.1142 75 0 0-0.88943 0.98541 0.72163 1.1142 75 0 0 1.263 0.40868 0.72163 1.1142 75 0 0 0.88943-0.98541 0.72163 1.1142 75 0 0-4.5e-4 -0.0014l-1.0746 0.28793-0.18641-0.69569a0.72163 1.1142 75 0 0-0.0016 3.7e-4z" fill="#26b1f6"/>
    <path d="m25.136 12.17-0.58886 0.71001a0.72163 1.1142 75 0 0 0.77446-0.01125 0.72163 1.1142 75 0 0 0.80408-0.53882l-0.71891-0.17206z" fill="#90e564"/>
    <path d="m25.077 11.341 0.18287 0.68096 1.0583-0.28264c-0.0011-0.0069-0.0024-0.01368-0.0038-0.02048-0.09804-0.36588-0.63545-0.53977-1.2003-0.3884-0.01221 0.0036-0.02487 0.0068-0.03701 0.01053z" fill="#e786f9"/>
    <path d="m25.809 11.309-0.54967 0.71354 1.0583-0.28264c-0.0011-0.0069-0.0024-0.01371-0.0038-0.02051-0.05483-0.20462-0.24716-0.34912-0.50479-0.41033z" fill="#fb5352"/>
    <path d="m25.136 12.17 0.6432 0.4977a0.72163 1.1142 75 0 0 0.43181-0.78433 0.72163 1.1142 75 0 0-4.5e-4 -0.0014z" fill="#ffe244"/>
   </g>
  </g>
  <g fill="#808080">
   <path d="m26.871 11.048 0.01453-0.0039 0.02121 0.07915-0.01453 0.0039z"/>
   <path d="m26.993 11.062 0.0096 0.03584-0.01324 0.0035-0.0095-0.03552q-0.0022-0.0084-0.0078-0.01142-0.0056-3e-3 -0.0145-6.08e-4 -0.01072 0.0029-0.01555 0.0096-0.0048 0.0067-0.0025 0.01539l9e-3 0.03356-0.01331 0.0036-0.01591-0.05937 0.01331-0.0036 0.0025 0.0092q0.0033-0.0066 9e-3 -0.01099 0.0058-0.0044 0.01418-0.0066 0.01388-0.0037 0.02271 7.41e-4 0.0088 0.0044 0.01211 0.0167z"/>
   <path d="m27.047 10.997 0.0022 0.0081-0.01266 0.0034q-0.0071 0.0019-0.0094 0.0048-0.0022 0.0029-6.88e-4 0.0084l0.0014 0.0052 0.02179-0.0058 2e-3 0.0076-0.02179 0.0058 0.01388 0.05179-0.01331 0.0036-0.01388-0.05179-0.01266 0.0034-2e-3 -0.0076 0.01266-0.0034-0.0011-0.0041q-0.0027-0.0099 0.0024-0.0161 5e-3 -0.0062 0.01863-0.0099z"/>
   <path d="m27.065 11.017 0.01323-0.0035 0.01591 0.05937-0.01324 0.0035zm-0.0062-0.02311 0.01323-0.0035 0.0033 0.01235-0.01323 0.0035z"/>
   <path d="m27.179 11.012 0.0096 0.03584-0.01323 0.0035-0.0095-0.03552q-0.0022-0.0084-0.0078-0.01142-0.0056-3e-3 -0.0145-6.08e-4 -0.01072 0.0029-0.01555 0.0096-0.0048 0.0067-0.0025 0.01539l9e-3 0.03356-0.01331 0.0036-0.01591-0.05937 0.01331-0.0036 0.0025 0.0092q0.0033-0.0066 9e-3 -0.01099 0.0058-0.0044 0.01418-0.0066 0.01388-0.0037 0.02271 7.4e-4 0.0088 0.0044 0.01211 0.0167z"/>
   <path d="m27.199 10.981 0.01323-0.0035 0.01591 0.05937-0.01323 0.0035zm-0.0062-0.02311 0.01323-0.0035 0.0033 0.01235-0.01324 0.0035z"/>
   <path d="m27.248 10.95 0.0045 0.01686 0.02726-0.0073 2e-3 0.0076-0.02726 0.0073 0.0086 0.03223q2e-3 0.0073 0.0052 0.0086 0.0033 0.0013 0.01156-8.73e-4l0.01359-0.0036 0.0022 0.0082-0.0136 0.0036q-0.01532 0.0041-0.02227 0.0015-7e-3 -0.0027-0.0099-0.01381l-0.0086-0.03223-0.0097 0.0026-2e-3 -0.0076 0.0097-0.0026-0.0045-0.01686z"/>
   <path d="m27.374 10.963 0.0013 0.0048-0.06085 0.01631q0.0036 0.0098 0.01232 0.01318 0.0088 0.0033 0.02198-2.64e-4 0.0076-2e-3 0.01438-0.0053 0.0068-0.0033 0.01313-8e-3l0.0025 0.0092q-0.0065 0.0041-0.01369 0.0073-0.0072 0.0032-0.01486 0.0052-0.01928 0.0052-0.03279-7.9e-5 -0.01344-0.0053-0.01722-0.01936-0.0039-0.01458 0.0045-0.02597 0.0084-0.01146 0.02654-0.01632 0.01626-0.0044 0.02775 8.47e-4 0.01155 0.0051 0.01511 0.0184zm-0.014 6.87e-4q-0.0023-8e-3 -0.0095-0.01114-0.0072-0.0032-0.01696-5.82e-4 -0.01108 3e-3 -0.01653 0.0094-0.0054 0.0064-0.0041 0.01503z"/>
   <path d="m27.431 10.898 0.01453-0.0039 0.01879 0.07013 0.05229-0.01401 0.0024 9e-3 -0.06682 0.01791z"/>
   <path d="m27.548 10.895q-0.01065 0.0029-0.01518 0.01066-0.0046 0.0078-0.0017 0.01841 0.0029 0.01065 0.01062 0.01517 0.0078 0.0044 0.01854 0.0016 0.01057-0.0028 0.01511-0.01064 0.0045-0.0078 0.0017-0.01841-0.0028-0.01055-0.01066-0.01504-0.0078-0.0045-0.01842-0.0017zm-0.0022-0.0083q0.01726-0.0046 0.02933 1e-3t0.01599 0.02026q0.0039 0.01458-0.0037 0.02554-0.0076 0.01091-0.0249 0.01554-0.01734 0.0046-0.02941-9.79e-4 -0.01201-0.0057-0.01592-0.02028-0.0039-0.01463 0.0036-0.02552 0.0076-0.01091 0.02497-0.01556z"/>
   <path d="m27.638 10.871q-0.01065 0.0029-0.01519 0.01066-0.0046 0.0078-0.0017 0.01841 0.0029 0.01065 0.01062 0.01517 0.0078 0.0044 0.01854 0.0016 0.01058-0.0028 0.01511-0.01064 0.0045-0.0078 0.0017-0.01841-0.0028-0.01055-0.01066-0.01504-0.0078-0.0045-0.01842-0.0017zm-0.0022-0.0083q0.01726-0.0046 0.02933 1e-3t0.01599 0.02026q0.0039 0.01458-0.0037 0.02554-0.0076 0.01091-0.0249 0.01554-0.01733 0.0046-0.0294-9.78e-4 -0.01201-0.0057-0.01592-0.02028-0.0039-0.01463 0.0036-0.02552 0.0076-0.01091 0.02497-0.01555z"/>
   <path d="m27.721 10.895 0.0084 0.03149-0.01331 0.0036-0.02196-0.08195 0.01331-0.0036 0.0024 9e-3q0.0028-0.0064 0.0084-0.01066 0.0057-0.0043 0.01455-0.0067 0.01467-0.0039 0.02611 0.0022 0.01151 0.0061 0.01526 0.02012 0.0037 0.01399-0.0032 0.02505-0.0068 0.01104-0.02151 0.01497-0.0088 0.0024-0.01593 0.0015-7e-3 -8.99e-4 -0.01262-0.0051zm0.03947-0.03279q-0.0029-0.01076-0.01056-0.01524-0.0076-0.0046-0.01812-0.0017-0.0105 0.0028-0.0149 0.01058-0.0043 0.0077-0.0015 0.01846 0.0029 0.01076 0.0105 0.01531 0.0077 0.0045 0.01818 0.0017 0.0105-0.0028 0.01484-0.01051 0.0044-0.0078 0.0015-0.01853z"/>
   <path d="m26.944 11.299 0.02165-0.0058 0.04184 0.04652 0.01312-0.06124 0.02165-0.0058 0.02121 0.07915-0.01417 0.0038-0.01862-0.0695-0.01315 0.0617-0.0146 0.0039-0.04224-0.04686 0.01862 0.0695-0.0141 0.0038z"/>
   <path d="m27.12 11.305q-0.01604 0.0043-0.0215 0.0087-0.0055 0.0044-0.0037 0.01088 0.0014 0.0052 0.0068 7e-3 0.0055 0.0018 0.01347-3.7e-4 0.011-0.0029 0.01609-0.01045 0.0051-0.0076 0.0026-0.01711l-5.82e-4 -0.0022zm0.02532-0.0111 0.0091 0.03387-0.01323 0.0035-0.0024-9e-3q-0.0031 0.0066-0.0092 0.01103-0.0061 0.0044-0.01586 7e-3 -0.01237 0.0033-0.02107 1.92e-4 -0.0086-0.0032-0.01094-0.01179-0.0027-0.01002 5e-3 -0.01754 0.0078-0.0075 0.02583-0.01237l0.01856-5e-3 -2.56e-4 -9.52e-4q-0.0018-0.0067-0.0088-0.0088t-0.01782 7.94e-4q-0.0069 0.0019-0.01312 0.0048-0.0062 3e-3 -0.01161 7e-3l-0.0024-9e-3q0.0067-4e-3 0.01327-0.0069 0.0065-0.0029 0.01302-0.0046 0.01748-0.0047 0.0279-3.18e-4 0.01042 0.0044 0.01406 0.01794z"/>
   <path d="m27.215 11.258q-0.0025-3.43e-4 -0.0053-6.7e-5 -0.0027 2.17e-4 -0.0059 0.0011-0.01122 3e-3 -0.01581 0.01003-0.0045 7e-3 -0.0018 0.01703l0.0084 0.03128-0.01331 0.0036-0.01591-0.05937 0.01331-0.0036 0.0025 0.0092q0.0027-0.0065 0.0087-0.01092 6e-3 -0.0044 0.01555-7e-3 0.0014-3.7e-4 0.0031-6.61e-4 0.0017-3.44e-4 0.0038-6.09e-4z"/>
   <path d="m27.227 11.245 0.01323-0.0035 0.01591 0.05937-0.01323 0.0035zm-0.0062-0.02311 0.01323-0.0035 0.0033 0.01235-0.01323 0.0035z"/>
   <path d="m27.312 11.253q-0.01604 0.0043-0.0215 0.0087-0.0055 0.0044-0.0037 0.01088 0.0014 0.0052 0.0068 7e-3 0.0055 0.0018 0.01347-3.7e-4 0.011-0.0029 0.01609-0.01045 0.0051-0.0076 0.0026-0.01711l-5.82e-4 -0.0022zm0.02532-0.0111 0.0091 0.03387-0.01323 0.0035-0.0024-9e-3q-0.0031 0.0066-0.0091 0.01103-0.0061 0.0044-0.01586 7e-3 -0.01237 0.0033-0.02107 1.92e-4 -0.0086-0.0032-0.01094-0.01178-0.0027-0.01002 5e-3 -0.01754 0.0078-0.0075 0.02583-0.01237l0.01856-5e-3 -2.56e-4 -9.52e-4q-0.0018-0.0067-0.0088-0.0088t-0.01782 7.94e-4q-0.0069 0.0019-0.01312 0.0048-0.0062 3e-3 -0.01161 7e-3l-0.0024-9e-3q0.0067-4e-3 0.01327-0.0069 0.0065-0.0029 0.01302-0.0046 0.01748-0.0047 0.0279-3.18e-4 0.01042 0.0044 0.01406 0.01794z"/>
   <path d="m27.431 11.215 0.0096 0.03584-0.01324 0.0035-0.0095-0.03552q-0.0022-0.0084-0.0078-0.01142-0.0056-3e-3 -0.0145-6.09e-4 -0.01072 0.0029-0.01555 0.0096-0.0048 0.0067-0.0025 0.01539l9e-3 0.03356-0.01331 0.0036-0.01591-0.05937 0.01331-0.0036 0.0025 0.0092q0.0033-0.0066 9e-3 -0.01099 0.0058-0.0044 0.01418-0.0066 0.01388-0.0037 0.02271 7.41e-4 0.0088 0.0044 0.01211 0.0167z"/>
   <path d="m27.451 11.184 0.01324-0.0035 0.01591 0.05937-0.01323 0.0035zm-0.0062-0.02311 0.01323-0.0035 0.0033 0.01235-0.01323 0.0035z"/>
   <path d="m27.573 11.142-0.0092 0.04467 0.03949-0.01058zm-0.01103-0.0084 0.01647-0.0044 0.06214 0.06818-0.0151 4e-3 -0.01522-0.01768-0.04841 0.01297-0.0043 0.02292-0.01532 0.0041z"/>
   <path d="m27.622 11.139 0.01403-0.0038 0.03853 0.04309 0.01182-0.05658 0.01403-0.0038-0.0143 0.06747-0.01798 0.0048z"/>
   <path d="m27.795 11.122 0.0013 0.0048-0.06085 0.01631q0.0036 0.0098 0.01232 0.01318 0.0088 0.0033 0.02198-2.65e-4 0.0076-2e-3 0.01438-0.0053 0.0068-0.0033 0.01313-0.0079l0.0025 0.0092q-0.0065 0.0041-0.01369 0.0073-0.0072 0.0032-0.01486 0.0052-0.01928 0.0052-0.03279-7.9e-5 -0.01344-0.0053-0.01722-0.01936-0.0039-0.01458 0.0045-0.02597 0.0084-0.01146 0.02654-0.01632 0.01626-0.0044 0.02775 8.46e-4 0.01155 0.0051 0.0151 0.0184zm-0.014 6.87e-4q-0.0023-8e-3 -0.0095-0.01114-0.0072-0.0032-0.01696-5.82e-4 -0.01108 3e-3 -0.01653 0.0094-0.0054 0.0064-0.0041 0.01503z"/>
   <path d="m27.042 11.547 0.01649 0.06155 0.01755-0.0047q0.02223-6e-3 0.03053-0.01613 0.0084-0.0102 0.0041-0.02621-0.0043-0.0159-0.01659-0.0205-0.01227-0.0047-0.0345 0.0013zm-0.01689-0.0049 0.02985-8e-3q0.03122-0.0084 0.04839-0.0027 0.01716 0.0056 0.02261 0.02599 0.0055 0.02046-0.0066 0.03399t-0.04318 0.02185l-0.02985 8e-3z"/>
   <path d="m27.22 11.541 0.0013 0.0048-0.06085 0.01631q0.0036 0.0098 0.01232 0.01318 0.0088 0.0033 0.02198-2.64e-4 0.0076-2e-3 0.01438-0.0053 0.0068-0.0033 0.01313-8e-3l0.0025 0.0092q-0.0065 0.0041-0.01369 0.0073-0.0072 0.0032-0.01486 0.0052-0.01928 0.0052-0.03279-7.8e-5 -0.01344-0.0053-0.01722-0.01936-0.0039-0.01458 0.0045-0.02597 0.0084-0.01146 0.02654-0.01632 0.01626-0.0044 0.02775 8.47e-4 0.01155 0.0051 0.0151 0.0184zm-0.014 6.88e-4q-0.0023-8e-3 -0.0095-0.01114-0.0072-0.0032-0.01696-5.82e-4 -0.01108 3e-3 -0.01653 0.0094-0.0054 0.0064-0.0041 0.01503z"/>
   <path d="m27.315 11.476-0.0092 0.04467 0.03949-0.01058zm-0.01103-0.0084 0.01647-0.0044 0.06214 0.06818-0.0151 4e-3 -0.01522-0.01768-0.04841 0.01297-0.0043 0.02292-0.01532 0.0041z"/>
   <path d="m27.455 11.474 0.0096 0.03584-0.01324 0.0035-0.0095-0.03552q-0.0022-0.0084-0.0078-0.01142-0.0056-3e-3 -0.0145-6.09e-4 -0.01072 0.0029-0.01555 0.0096-0.0048 0.0067-0.0025 0.01539l9e-3 0.03356-0.01331 0.0036-0.01591-0.05937 0.01331-0.0036 0.0025 0.0092q0.0033-0.0066 9e-3 -0.01099 0.0058-0.0044 0.01418-0.0066 0.01388-0.0037 0.02271 7.41e-4 0.0088 0.0044 0.01211 0.0167z"/>
   <path d="m27.469 11.445 0.06287-0.01685 0.0024 0.0089-0.03834 0.05601 0.04978-0.01334 0.0021 0.0078-0.06466 0.01733-0.0024-0.0089 0.03834-0.05601-0.04798 0.01286z"/>
   <path d="m27.597 11.442q-0.01604 0.0043-0.0215 0.0087-0.0055 0.0044-0.0037 0.01088 0.0014 0.0052 0.0068 7e-3 0.0055 0.0018 0.01347-3.71e-4 0.01101-3e-3 0.01609-0.01045 0.0051-0.0076 0.0026-0.01711l-5.82e-4 -0.0022zm0.02532-0.0111 0.0091 0.03388-0.01323 0.0035-0.0024-9e-3q-0.0031 0.0066-0.0091 0.01103-0.0061 0.0044-0.01586 7e-3 -0.01237 0.0033-0.02107 1.92e-4 -0.0086-0.0032-0.01094-0.01178-0.0027-0.01002 5e-3 -0.01754 0.0078-0.0075 0.02583-0.01237l0.01856-5e-3 -2.56e-4 -9.52e-4q-0.0018-0.0067-0.0088-0.0088t-0.01782 7.94e-4q-0.0069 0.0019-0.01312 0.0048-0.0062 3e-3 -0.01161 7e-3l-0.0024-9e-3q0.0067-4e-3 0.01327-0.0069 0.0065-0.0029 0.01302-0.0046 0.01748-0.0047 0.0279-3.18e-4 0.01042 0.0044 0.01406 0.01794z"/>
   <path d="m27.711 11.403 0.0078 0.029 0.0233-0.0062q0.01172-0.0031 0.01638-0.0082 0.0047-0.0051 0.0027-0.0125t-0.0086-0.0094-0.01829 0.0011zm-0.0087-0.03255 0.0064 0.02385 0.02151-0.0058q0.01065-0.0029 0.01504-0.0072 0.0045-0.0044 0.0028-0.01042-0.0016-6e-3 -0.0077-0.0076-6e-3 -0.0016-0.01662 0.0013zm-0.01689-0.0049 0.03712-0.0099q0.01662-0.0045 0.02697-0.0018 0.01036 0.0027 0.01287 0.01206 2e-3 0.0073-0.0015 0.01279-0.0035 0.0055-0.01209 9e-3 0.01117-0.0012 0.01852 0.0027 0.0074 0.0038 0.0096 0.01181 0.0028 0.0106-0.0054 0.019t-0.02629 0.01324l-0.03855 0.01033z"/>
   <path d="m27.785 11.335 0.01323-0.0035 0.0221 0.08248-0.01324 0.0035z"/>
   <path d="m27.822 11.35 0.01403-0.0038 0.03853 0.04308 0.01183-0.05658 0.01403-0.0038-0.0143 0.06747-0.01798 0.0048z"/>
   <path d="m27.974 11.319-0.0086-0.03213 0.01323-0.0035 0.0221 0.08249-0.01323 0.0035-0.0024-0.0089q-0.0028 0.0064-0.0085 0.01073-0.0056 0.0042-0.01457 0.0066-0.0146 0.0039-0.02611-0.0022-0.01144-0.0061-0.01519-0.02013-0.0037-0.01399 0.0031-0.02503 0.0069-0.01105 0.02151-0.01497 0.0089-0.0024 0.01595-0.0015 0.0071 8.2e-4 0.01268 5e-3zm-0.03955 0.03281q0.0029 0.01076 0.0105 0.01531 0.0077 0.0045 0.01818 0.0017 0.0105-0.0028 0.01491-0.01053 0.0044-0.0078 0.0015-0.01853-0.0029-0.01076-0.01056-0.01524-0.0077-0.0045-0.01819-0.0017-0.0105 0.0028-0.0149 0.01058-0.0043 0.0077-0.0015 0.01846z"/>
   <path d="m27.098 11.809 0.09085-0.02434 0.0024 9e-3 -0.03812 0.01022 0.01879 0.07013-0.0146 0.0039-0.01879-0.07013-0.03812 0.01022z"/>
   <path d="m27.228 11.827q-0.01604 0.0043-0.0215 0.0087-0.0055 0.0044-0.0037 0.01088 0.0014 0.0052 0.0068 7e-3 0.0055 0.0018 0.01347-3.71e-4 0.01101-3e-3 0.01609-0.01045 0.0051-0.0076 0.0026-0.01711l-5.82e-4 -0.0022zm0.02532-0.0111 0.0091 0.03388-0.01323 0.0035-0.0024-9e-3q-0.0031 0.0066-0.0091 0.01103-0.0061 0.0044-0.01586 7e-3 -0.01237 0.0033-0.02107 1.92e-4 -0.0086-0.0032-0.01094-0.01178-0.0027-0.01002 5e-3 -0.01754 0.0078-0.0075 0.02583-0.01238l0.01856-5e-3 -2.56e-4 -9.52e-4q-0.0018-0.0067-0.0088-0.0088t-0.01782 7.94e-4q-0.0069 0.0019-0.01312 0.0048-0.0062 3e-3 -0.01161 7e-3l-0.0024-9e-3q0.0067-4e-3 0.01327-0.0069 0.0065-0.0029 0.01302-0.0046 0.01748-0.0047 0.0279-3.18e-4 0.01042 0.0044 0.01406 0.01794z"/>
   <path d="m27.347 11.789 0.0096 0.03584-0.01323 0.0035-0.0095-0.03552q-0.0022-0.0084-0.0078-0.01142-0.0056-3e-3 -0.0145-6.09e-4 -0.01072 0.0029-0.01556 0.0096-0.0048 0.0067-0.0025 0.01539l9e-3 0.03356-0.01331 0.0036-0.01591-0.05937 0.01331-0.0036 0.0025 0.0092q0.0033-0.0066 9e-3 -0.01099 0.0058-0.0044 0.01418-0.0066 0.01388-0.0037 0.02271 7.4e-4 0.0088 0.0044 0.01211 0.0167z"/>
   <path d="m27.376 11.738 0.0045 0.01686 0.02726-0.0073 2e-3 0.0076-0.02726 0.0073 0.0086 0.03223q2e-3 0.0073 0.0052 0.0086 0.0033 0.0013 0.01156-8.73e-4l0.01359-0.0036 0.0022 0.0082-0.01359 0.0036q-0.01532 0.0041-0.02227 0.0015-7e-3 -0.0027-0.0099-0.01381l-0.0086-0.03223-0.0097 0.0026-2e-3 -0.0076 0.0097-0.0026-0.0045-0.01686z"/>
   <path d="m27.47 11.762q-0.01604 0.0043-0.0215 0.0087-0.0055 0.0044-0.0037 0.01088 0.0014 0.0052 0.0068 7e-3 0.0055 0.0018 0.01347-3.7e-4 0.011-3e-3 0.01609-0.01045 0.0051-0.0076 0.0026-0.01711l-5.82e-4 -0.0022zm0.02532-0.0111 0.0091 0.03387-0.01323 0.0035-0.0024-9e-3q-0.0031 0.0066-0.0091 0.01103-0.0061 0.0044-0.01586 7e-3 -0.01237 0.0033-0.02107 1.92e-4 -0.0086-0.0032-0.01094-0.01178-0.0027-0.01002 5e-3 -0.01754 0.0078-0.0075 0.02583-0.01238l0.01856-5e-3 -2.56e-4 -9.53e-4q-0.0018-0.0067-0.0088-0.0088t-0.01782 7.94e-4q-0.0069 0.0019-0.01312 0.0048-0.0062 3e-3 -0.01161 7e-3l-0.0024-9e-3q0.0067-4e-3 0.01327-0.0069 0.0065-0.0029 0.01302-0.0046 0.01748-0.0047 0.0279-3.18e-4 0.01042 0.0044 0.01406 0.01794z"/>
   <path d="m27.524 11.755-0.0096-0.03594 0.01323-0.0035 0.0095 0.03557q0.0022 0.0084 0.0079 0.01147 0.0056 3e-3 0.0145 6.09e-4 0.01072-0.0029 0.01555-0.0096 0.0049-0.0067 0.0026-0.01541l-9e-3 -0.03366 0.01323-0.0035 0.01591 0.05937-0.01323 0.0035-0.0024-0.0091q-0.0034 0.0067-0.0091 0.01107-0.0056 0.0043-0.01405 0.0065-0.01388 0.0037-0.02278-7.14e-4 -0.0089-0.0044-0.01218-0.01668z"/>
   <path d="m27.69 11.662-0.0092 0.04467 0.03949-0.01058zm-0.01103-0.0084 0.01647-0.0044 0.06213 0.06818-0.0151 4e-3 -0.01522-0.01768-0.04841 0.01297-0.0043 0.02292-0.01532 0.0041z"/>
   <path d="m27.739 11.659 0.01403-0.0038 0.03853 0.04309 0.01182-0.05658 0.01403-0.0038-0.0143 0.06747-0.01798 0.0048z"/>
   <path d="m27.912 11.642 0.0013 0.0048-0.06085 0.01631q0.0036 0.0098 0.01232 0.01318 0.0088 0.0033 0.02198-2.64e-4 0.0076-2e-3 0.01438-0.0053 0.0068-0.0033 0.01313-8e-3l0.0025 0.0092q-0.0065 0.0041-0.01369 0.0073-0.0072 0.0032-0.01486 0.0052-0.01928 0.0052-0.03279-7.8e-5 -0.01344-0.0053-0.01722-0.01937-0.0039-0.01458 0.0045-0.02597 0.0084-0.01146 0.02654-0.01632 0.01626-0.0044 0.02775 8.47e-4 0.01155 0.0051 0.0151 0.0184zm-0.014 6.88e-4q-0.0023-8e-3 -0.0095-0.01114-0.0072-0.0032-0.01696-5.82e-4 -0.01108 3e-3 -0.01653 0.0094-0.0054 0.0064-0.0041 0.01503z"/>
   <path d="m27.248 12.153-0.06221-0.06816 0.01518-0.0041 0.05188 0.05752 0.01624-0.07577 0.01511-4e-3 -0.01972 0.09011z"/>
   <path d="m27.337 12.097q-0.01604 0.0043-0.0215 0.0087-0.0055 0.0044-0.0037 0.01088 0.0014 0.0052 0.0068 7e-3 0.0055 0.0018 0.01347-3.7e-4 0.01101-3e-3 0.01609-0.01045 0.0051-0.0076 0.0026-0.01711l-5.82e-4 -0.0022zm0.02532-0.0111 0.0091 0.03387-0.01324 0.0035-0.0024-9e-3q-0.0031 0.0066-0.0091 0.01103-0.0061 0.0044-0.01586 7e-3 -0.01237 0.0033-0.02107 1.92e-4 -0.0086-0.0032-0.01094-0.01178-0.0027-0.01002 5e-3 -0.01754 0.0078-0.0075 0.02583-0.01237l0.01856-5e-3 -2.56e-4 -9.52e-4q-0.0018-0.0067-0.0088-0.0088t-0.01782 7.94e-4q-0.0069 0.0019-0.01312 0.0048-0.0062 3e-3 -0.01161 7e-3l-0.0024-9e-3q0.0067-4e-3 0.01327-0.0069 0.0065-0.0029 0.01302-0.0046 0.01748-0.0047 0.0279-3.18e-4 0.01042 0.0044 0.01406 0.01794z"/>
   <path d="m27.377 12.03 0.01323-0.0035 0.0221 0.08249-0.01323 0.0035z"/>
   <path d="m27.418 12.019 0.01324-0.0035 0.0221 0.08249-0.01323 0.0035z"/>
   <path d="m27.541 12.04 0.0013 0.0048-0.06085 0.01631q0.0036 0.0098 0.01232 0.01318 0.0088 0.0033 0.02198-2.64e-4 0.0076-2e-3 0.01438-0.0053 0.0068-0.0033 0.01313-8e-3l0.0025 0.0092q-0.0065 0.0041-0.01369 0.0073-0.0072 0.0032-0.01486 0.0052-0.01928 0.0052-0.03279-7.9e-5 -0.01344-0.0053-0.01722-0.01936-0.0039-0.01458 0.0045-0.02597 0.0084-0.01146 0.02654-0.01632 0.01626-0.0044 0.02775 8.46e-4 0.01155 0.0051 0.01511 0.01839zm-0.014 6.88e-4q-0.0023-8e-3 -0.0095-0.01114-0.0072-0.0032-0.01696-5.82e-4 -0.01108 3e-3 -0.01653 0.0094-0.0054 0.0064-0.0041 0.01503z"/>
   <path d="m27.606 12.063q-0.0028 0.01211-0.0072 0.01677-0.0045 0.0047-0.01337 0.0071l-0.01058 0.0028-0.0022-0.0082 0.0078-0.0021q0.0055-0.0015 8e-3 -0.0042t0.0043-0.0108l0.0012-0.0051-0.04824-0.04969 0.01403-0.0038 0.03762 0.03969 0.01273-0.05318 0.01403-0.0038z"/>
   <path d="m27.776 11.999-0.0057-0.02126-0.02374 0.0064-0.0024-0.0088 0.03812-0.01022 0.0091 0.03398q-0.0072 0.0067-0.01677 0.01165-0.0095 0.0049-0.02106 8e-3 -0.02518 0.0067-0.04232-2.52e-4 -0.01708-0.0071-0.02227-0.02642-0.0052-0.0194 0.0061-0.03401 0.01133-0.01469 0.03651-0.02143 0.0105-0.0028 0.02044-0.0034 0.01001-6.35e-4 0.01898 9.26e-4l0.0031 0.0114q-0.0094-0.0029-0.01915-3e-3 -0.0097-1.16e-4 -0.01974 0.0026-0.01971 0.0053-0.02746 0.01605-0.0077 0.01075-0.0034 0.02681 0.0043 0.01601 0.01632 0.02148 0.0121 0.0054 0.03181 1.7e-4 0.0077-0.0021 0.01348-0.0046 0.0058-0.0026 0.01004-6e-3z"/>
   <path d="m27.853 11.937q-0.0025-3.44e-4 -0.0053-6.7e-5 -0.0027 2.17e-4 -0.0059 0.0011-0.01122 3e-3 -0.01581 0.01003-0.0045 7e-3 -0.0018 0.01703l0.0084 0.03128-0.01331 0.0036-0.01591-0.05937 0.0133-0.0036 0.0025 0.0092q0.0027-0.0065 0.0087-0.01091 6e-3 -0.0044 0.01555-7e-3 0.0014-3.7e-4 0.0031-6.62e-4 0.0017-3.43e-4 0.0038-6.08e-4z"/>
   <path d="m27.938 11.934 0.0013 0.0048-0.06085 0.01631q0.0036 0.0098 0.01232 0.01318 0.0088 0.0033 0.02198-2.64e-4 0.0076-2e-3 0.01438-0.0053 0.0068-0.0033 0.01313-8e-3l0.0025 0.0092q-0.0065 0.0041-0.01369 0.0073-0.0072 0.0032-0.01486 0.0052-0.01928 0.0052-0.03279-7.8e-5 -0.01344-0.0053-0.01722-0.01936-0.0039-0.01458 0.0045-0.02597 0.0084-0.01146 0.02654-0.01632 0.01626-0.0044 0.02775 8.47e-4 0.01156 0.0051 0.01511 0.01839zm-0.014 6.88e-4q-0.0023-8e-3 -0.0095-0.01114-0.0072-0.0032-0.01696-5.82e-4 -0.01108 3e-3 -0.01653 0.0094-0.0054 0.0064-0.0041 0.01503z"/>
   <path d="m28.028 11.909 0.0013 0.0048-0.06085 0.01631q0.0036 0.0098 0.01232 0.01318 0.0088 0.0033 0.02198-2.64e-4 0.0076-2e-3 0.01438-0.0053 0.0068-0.0033 0.01313-8e-3l0.0025 0.0092q-0.0065 0.0041-0.01369 0.0073-0.0072 0.0032-0.01487 0.0052-0.01928 0.0052-0.03279-7.8e-5 -0.01344-0.0053-0.01722-0.01937-0.0039-0.01458 0.0045-0.02597 0.0084-0.01146 0.02654-0.01632 0.01626-0.0044 0.02775 8.46e-4 0.01155 0.0051 0.01511 0.0184zm-0.014 6.88e-4q-0.0023-8e-3 -0.0095-0.01114-0.0072-0.0032-0.01696-5.82e-4 -0.01108 3e-3 -0.01653 0.0094-0.0054 0.0064-0.0041 0.01503z"/>
   <path d="m28.116 11.882 0.0096 0.03584-0.01323 0.0035-0.0095-0.03552q-0.0022-0.0084-0.0078-0.01142-0.0056-3e-3 -0.0145-6.09e-4 -0.01072 0.0029-0.01555 0.0096-0.0048 0.0067-0.0025 0.01539l9e-3 0.03356-0.0133 0.0036-0.01591-0.05937 0.01331-0.0036 0.0025 0.0092q0.0033-0.0066 9e-3 -0.01099 0.0058-0.0044 0.01418-0.0066 0.01388-0.0037 0.02271 7.41e-4 0.0088 0.0044 0.01211 0.0167z"/>
   <path d="m28.195 11.824 0.01649 0.06155 0.01755-0.0047q0.02223-6e-3 0.03053-0.01613 0.0084-0.0102 0.0041-0.02621-0.0043-0.0159-0.01659-0.0205-0.01227-0.0047-0.0345 0.0013zm-0.01689-0.0049 0.02985-8e-3q0.03122-0.0084 0.04839-0.0027 0.01716 0.0056 0.02261 0.02598 0.0055 0.02046-0.0066 0.03399t-0.04318 0.02186l-0.02985 8e-3z"/>
   <path d="m28.346 11.805q-0.0025-3.71e-4 -0.0053-6.8e-5 -0.0027 2.17e-4 -0.0059 0.0011-0.01122 3e-3 -0.01581 0.01003-0.0045 7e-3 -0.0018 0.01703l0.0084 0.03128-0.01331 0.0036-0.01591-0.05937 0.01331-0.0036 0.0025 0.0092q0.0027-0.0065 0.0087-0.01091 6e-3 -0.0044 0.01555-7e-3 0.0014-3.71e-4 0.0031-6.62e-4 0.0017-3.44e-4 0.0038-6.08e-4z"/>
  </g>
  <g fill="#111">
   <path d="m23.786 11.137 0.05717-0.01532 0.06614 0.24684-0.05717 0.01532z"/>
   <path d="m23.957 11.091 0.08518-0.02282 0.15283 0.13909 0.06338-0.19702 0.08518-0.02282 0.06614 0.24684-0.05575 0.01494-0.05808-0.21675-0.06359 0.19849-0.05745 0.01539-0.15432-0.14011 0.05808 0.21675-0.05547 0.01486z"/>
   <path d="m24.522 10.969 0.02485 0.09275 0.07188-0.01926q0.0399-0.01069 0.05846-0.0286t0.01258-0.04023q-0.0059-0.02215-0.03096-0.02839-0.02502-0.0062-0.06493 0.0045zm-0.06452-0.01213 0.12904-0.03458q0.07103-0.01903 0.1123-0.0099 0.04151 0.0089 0.05121 0.04511 0.0098 0.03654-0.02171 0.065-0.03122 0.02839-0.10225 0.04742l-0.07188 0.01926 0.02658 0.0992-0.05717 0.01532z"/>
   <path d="m25.042 10.941q0.01937-0.0013 0.03982 6e-3 0.02074 0.0072 0.04386 0.02333l0.07609 0.05191-0.06141 0.01645-0.07102-0.04884q-0.02759-0.01919-0.04957-0.02198-0.0217-0.0029-0.05566 0.0062l-0.06226 0.01668 0.02795 0.10432-0.05716 0.01532-0.06614-0.24684 0.12905-0.03458q0.07245-0.01941 0.11284-0.01128 0.0404 0.0081 0.04997 0.04385 0.0062 0.02331-0.0083 0.04369-0.01427 0.02031-0.04805 0.03573zm-0.17097-0.06529 0.02348 0.08763 0.07188-0.01926q0.04132-0.01107 0.05929-0.02776 0.01821-0.01693 0.01241-0.03859t-0.02995-0.02688q-0.02391-0.0055-0.06523 0.0056z"/>
   <path d="m25.21 10.755 0.26715-0.07158 0.0075 0.02811-0.20998 0.05626 0.01958 0.07308 0.20121-0.05391 0.0075 0.02811-0.20121 0.05391 0.02397 0.08944 0.21508-0.05763 0.0075 0.02811-0.27224 0.07295z"/>
   <path d="m25.832 10.597 0.0087 0.03257q-0.03498-3.71e-4 -0.06504 0.0029-0.03006 0.0033-0.05695 0.01047-0.04669 0.01251-0.06933 0.02992-0.02235 0.01733-0.01712 0.03684 0.0044 0.01637 0.02334 0.02032 0.01919 0.0037 0.06754-0.0037l0.03563-0.0051q0.06586-0.01003 0.10097-1.21e-4 0.03535 0.0097 0.04341 0.03976 0.0096 0.03588-0.02674 0.06546-0.03607 0.02951-0.11559 0.05082-0.03 8e-3 -0.06502 0.01317-0.03474 0.0051-0.07304 7e-3l-0.0092-0.03439q0.03787 0.0021 0.07281-0.0011t0.06721-0.01181q0.04896-0.01312 0.07255-0.03149t0.01801-0.0392q-0.0049-0.01819-0.02686-0.02328-0.02171-0.0052-0.06666 0.0014l-0.03587 0.0054q-0.06595 0.0097-0.09879 0.0015t-0.04041-0.03649q-0.0088-0.03274 0.02551-0.06212 0.03457-0.02946 0.1039-0.04804 0.02971-8e-3 0.0614-0.01309 0.03169-0.0051 0.06563-0.0075z"/>
   <path d="m26.2 10.499 0.0087 0.03257q-0.03498-3.7e-4 -0.06504 0.0029-0.03006 0.0033-0.05695 0.01047-0.04669 0.01251-0.06933 0.02992-0.02235 0.01733-0.01712 0.03684 0.0044 0.01637 0.02334 0.02032 0.01919 0.0037 0.06754-0.0037l0.03563-0.0051q0.06586-0.01003 0.10097-1.2e-4 0.03535 0.0097 0.04341 0.03976 0.0096 0.03588-0.02674 0.06546-0.03607 0.02951-0.11559 0.05082-0.03 8e-3 -0.06502 0.01317-0.03474 0.0051-0.07305 7e-3l-0.0092-0.03439q0.03787 0.0021 0.07281-0.0011t0.06721-0.01181q0.04896-0.01312 0.07255-0.03149t0.01801-0.0392q-0.0049-0.01819-0.02686-0.02328-0.02171-0.0052-0.06666 0.0014l-0.03587 0.0054q-0.06595 0.0097-0.09878 0.0015-0.03284-0.0082-0.04041-0.03649-0.0088-0.03274 0.02551-0.06212 0.03457-0.02946 0.1039-0.04804 0.02971-8e-3 0.0614-0.01309 0.03169-0.0051 0.06563-0.0075z"/>
  </g>
  <path d="m33.58 12.042s0.0548 3.1507-2.7263 4.6477c-2.2976 1.2368 0.96068 2.7522-5.9978 5.2189 9.0585-2.6354 8.7958-9.8303 8.7958-9.8303z" fill="url(#linearGradient1040)" stroke-width="1.0235"/>
  <path d="m33.58 12.042s-0.19305 3.2015-2.565 4.5127c-2.7286 1.5087 0.9933 2.857-6.1955 5.2983" fill="none" stroke="#fafafa" stroke-width=".1354"/>
  <path d="m33.822 11.77 0.44545 3.9645a7.9375 7.9833 0 0 0 5.29e-4 -0.0021l-0.44442-3.9579a7.9375 7.9833 0 0 0-1e-3 -0.0047h-5.29e-4z" color="#000000" fill="#fafafa" stroke-width=".26535"/>
  <path d="m33.822 11.769 0.44545 3.9648a7.9375 7.9833 0 0 0 5.03e-4 -0.0021l-0.44442-3.9579a7.9375 7.9833 0 0 0-0.0015-0.0047z" color="#000000" fill="#fafafa" stroke-width=".26535"/>
 </g>
</svg>
