<?xml version="1.0" encoding="UTF-8"?>
<!-- Created with Inkscape (http://www.inkscape.org/) -->
<svg width="64" height="64" version="1.1" viewBox="0 0 16.933 16.933" xmlns="http://www.w3.org/2000/svg" xmlns:xlink="http://www.w3.org/1999/xlink">
 <defs>
  <linearGradient id="linearGradient959" x1="22.816" x2="38.476" y1="14.449" y2="-1.0493" gradientTransform="matrix(1 0 0 1 -24.428 3.551)" gradientUnits="userSpaceOnUse">
   <stop stop-color="#dc3282" offset="0"/>
   <stop stop-color="#f05a50" offset="1"/>
  </linearGradient>
  <linearGradient id="linearGradient875" x1="-123.61" x2="-124.83" y1="-218.51" y2="-149.55" gradientTransform="matrix(.044571 0 0 .045384 11.938 21.687)" gradientUnits="userSpaceOnUse">
   <stop stop-color="#d9d9d9" offset="0"/>
   <stop stop-color="#fff" offset="1"/>
  </linearGradient>
  <linearGradient id="linearGradient841" x1="-194.48" x2="-194.66" y1="-239.97" y2="-166.64" gradientTransform="matrix(.044571 0 0 .045384 11.938 21.687)" gradientUnits="userSpaceOnUse">
   <stop stop-color="#f35966" offset="0"/>
   <stop stop-color="#e0283f" offset="1"/>
  </linearGradient>
  <linearGradient id="linearGradient851" x1="-145.4" x2="-145.58" y1="-167.26" y2="-280.65" gradientTransform="matrix(.044571 0 0 .045384 11.938 21.687)" gradientUnits="userSpaceOnUse">
   <stop stop-color="#f06712" offset="0"/>
   <stop stop-color="#ffb436" offset="1"/>
  </linearGradient>
  <linearGradient id="linearGradient859" x1="-98.577" x2="-101.03" y1="-166.03" y2="-348.97" gradientTransform="matrix(.044571 0 0 .045384 11.938 21.687)" gradientUnits="userSpaceOnUse">
   <stop stop-color="#01bb22" offset="0"/>
   <stop stop-color="#51e784" offset="1"/>
  </linearGradient>
  <linearGradient id="linearGradient867" x1="-50.258" x2="-52.706" y1="-167.99" y2="-309.35" gradientTransform="matrix(.044571 0 0 .045384 11.938 21.687)" gradientUnits="userSpaceOnUse">
   <stop stop-color="#017bf5" offset="0"/>
   <stop stop-color="#52cdfb" offset="1"/>
  </linearGradient>
 </defs>
 <g transform="translate(2.3556 -1.7842)">
  <circle cx="6.1111" cy="10.251" r="7.9375" fill="url(#linearGradient959)"/>
  <g>
   <path d="m1.0504 15.356h10.147c0.11887 0 0.1868-0.08242 0.18832-0.19727l0.0024-0.17971-0.84254-3.6966c-0.024373-0.10696-0.1091-0.19132-0.22796-0.19138l-8.3929-0.0043c-0.11887-4.5e-5 -0.20618 0.06076-0.22389 0.14119l-0.86844 3.7385 0.003215 0.19232c0.001826 0.10927 0.095693 0.19727 0.21456 0.19727z" opacity=".25"/>
   <path d="m1.0504 15.14h10.147c0.11887 0 0.19624-0.08781 0.18832-0.19727l-0.28028-3.8763c-0.0079-0.10946-0.07514-0.19132-0.19401-0.19137l-9.688-0.0043c-0.11887-4.6e-5 -0.16026 0.0589-0.16492 0.14119l-0.22295 3.9308c-0.006215 0.10959 0.095693 0.19727 0.21456 0.19727z" fill="url(#linearGradient875)" stroke="#999" stroke-width=".032335"/>
   <rect x="2.36" y="10.548" width="1.8451" height="3.6536" ry=".22549" fill="url(#linearGradient841)"/>
   <path d="m2.512 10.179h1.5411c0.08384 0 0.12311 0.06886 0.12775 0.1541l0.023585 0.43294c0.00465 0.08524-0.067496 0.1541-0.15134 0.1541h-1.5411c-0.08384 0-0.15598-0.06886-0.15134-0.1541l0.023585-0.43294c0.00464-0.08524 0.04391-0.1541 0.12775-0.1541z" fill="#fe8f8a"/>
   <rect x="4.4804" y="8.5708" width="1.8451" height="5.6307" ry=".22622" fill="url(#linearGradient851)"/>
   <path d="m4.6324 8.202h1.5411c0.08384 0 0.12311 0.056745 0.12775 0.12698l0.023585 0.35677c0.00465 0.070242-0.067496 0.12698-0.15134 0.12698h-1.5411c-0.08384 0-0.15598-0.056742-0.15134-0.12698l0.023585-0.35677c0.00465-0.070239 0.043911-0.12698 0.12775-0.12698z" fill="#ffc966"/>
   <rect x="6.6008" y="5.3231" width="1.8451" height="8.8752" ry=".26891" fill="url(#linearGradient859)"/>
   <path d="m6.7528 5.1453h1.5411c0.08384 0 0.12311 0.048574 0.12775 0.1087l0.023585 0.3054c0.00465 0.060128-0.067496 0.1087-0.15134 0.1087h-1.5411c-0.08384 0-0.15598-0.048574-0.15134-0.1087l0.023585-0.3054c0.00465-0.060127 0.043911-0.1087 0.12775-0.1087z" fill="#87ffa3"/>
   <rect x="8.7208" y="7.2039" width="1.8451" height="6.9944" ry=".21193" fill="url(#linearGradient867)"/>
   <path d="m8.8728 6.895h1.5411c0.08384 0 0.12311 0.056542 0.12775 0.12653l0.02359 0.3555c0.0046 0.069993-0.0675 0.12653-0.15134 0.12653h-1.5411c-0.08384 0-0.15598-0.056541-0.15134-0.12653l0.023585-0.3555c0.00465-0.069993 0.04391-0.12653 0.12775-0.12653z" fill="#79d7ff"/>
  </g>
  <g fill="#808080">
   <path d="m1.6021 11.325 0.00167-0.04775 0.23571 0.0082-0.011605 0.33315-0.12778-0.0045 0.00994-0.2854z"/>
   <path d="m1.958 12.302-0.00167 0.04775-0.50616-0.01763 0.19478-0.10037q0.13907-0.06989 0.16329-0.08773 0.025482-0.01834 0.025903-0.03042 0.00135-0.0033 0.00146-0.0065 7.673e-4 -0.02195-0.032139-0.04013-0.031663-0.01813-0.085009-0.01999-0.053346-0.0019-0.085029 0.01627-0.030443 0.01817-0.031399 0.04561l-0.13398-0.0047q0.00172-0.0494 0.068581-0.07894 0.06812-0.03005 0.18225-0.02608 0.10297 0.0036 0.17261 0.03679 0.069643 0.0332 0.068037 0.0793-0.00151 0.04336-0.15432 0.11552l-0.13008 0.06141z"/>
   <path d="m1.4632 12.814q0.011472-0.04411 0.073161-0.06779 0.061688-0.02368 0.15969-0.02026 0.099247 0.0035 0.15792 0.03078 0.058669 0.02732 0.057159 0.07068-0.00169 0.0483-0.074383 0.0672 0.096116 0.02203 0.093936 0.0846-0.00169 0.0483-0.073409 0.07492-0.070468 0.02612-0.18088 0.02228-0.10297-0.0036-0.17511-0.03632-0.072143-0.03274-0.070595-0.07719l0.12778 0.0045q-8.467e-4 0.02415 0.034562 0.04187 0.035404 0.01771 0.08999 0.01961 0.055827 2e-3 0.088713-0.01505 0.034127-0.01695 0.035026-0.04274 7.408e-4 -0.02141-0.034601-0.04077-0.034086-0.01987-0.078748-0.02143-0.00496-1.73e-4 -0.00995 3.18e-4l-0.027331 1.4e-4 0.00132-0.03787 0.016129 5.56e-4q0.047142 0.0016 0.081136-0.01147 0.035253-0.01361 0.035998-0.03501 0.00177-0.05104-0.10243-0.05467-0.10297-0.0036-0.10475 0.04745z"/>
   <path d="m1.9268 13.697-0.00151 0.04336-0.089323-0.0031-0.0022 0.06312-0.11786-0.0041 0.0022-0.06312-0.3424-0.01193 8.731e-4 -0.0247 0.34496-0.23966 0.12406 0.0043-0.00811 0.23271zm-0.20183-0.16089-0.19889 0.14693 0.19353 0.0067z"/>
   <path d="m1.6138 14.234-0.031858 0.05879 0.058346 9.53e-4q0.10793 0.0038 0.17374 0.04012 0.067066 0.03586 0.065384 0.08415-0.00188 0.05379-0.078697 0.08408-0.076823 0.03029-0.19964 0.02601-0.13647-0.0048-0.22178-0.05169l0.0389-0.047q0.070406 0.04696 0.17462 0.05059 0.064511 0.0022 0.10986-0.01595 0.046609-0.0187 0.047795-0.05274 0.00122-0.03458-0.045269-0.05543-0.046473-0.02085-0.11843-0.02336-0.071954-0.0025-0.11862 0.01785l-0.023572-8.2e-4 0.084046-0.16632 0.32752 0.01141-0.00167 0.04775z"/>
  </g>
 </g>
</svg>
