<?xml version="1.0" encoding="UTF-8" standalone="no"?>
<svg
   xmlns:dc="http://purl.org/dc/elements/1.1/"
   xmlns:cc="http://creativecommons.org/ns#"
   xmlns:rdf="http://www.w3.org/1999/02/22-rdf-syntax-ns#"
   xmlns:svg="http://www.w3.org/2000/svg"
   xmlns="http://www.w3.org/2000/svg"
   xmlns:xlink="http://www.w3.org/1999/xlink"
   xmlns:sodipodi="http://sodipodi.sourceforge.net/DTD/sodipodi-0.dtd"
   xmlns:inkscape="http://www.inkscape.org/namespaces/inkscape"
   width="64"
   height="64"
   version="1.1"
   id="svg48"
   sodipodi:docname="cockos-reaper.svg"
   inkscape:version="1.0.1 (3bc2e813f5, 2020-09-07)">
  <metadata
     id="metadata52">
    <rdf:RDF>
      <cc:Work
         rdf:about="">
        <dc:format>image/svg+xml</dc:format>
        <dc:type
           rdf:resource="http://purl.org/dc/dcmitype/StillImage" />
        <dc:title></dc:title>
      </cc:Work>
    </rdf:RDF>
  </metadata>
  <sodipodi:namedview
     pagecolor="#ffffff"
     bordercolor="#666666"
     borderopacity="1"
     objecttolerance="10"
     gridtolerance="10"
     guidetolerance="10"
     inkscape:pageopacity="0"
     inkscape:pageshadow="2"
     inkscape:window-width="1920"
     inkscape:window-height="935"
     id="namedview50"
     showgrid="false"
     inkscape:zoom="6.0546875"
     inkscape:cx="-5.3200729"
     inkscape:cy="32.230642"
     inkscape:window-x="0"
     inkscape:window-y="38"
     inkscape:window-maximized="1"
     inkscape:current-layer="svg48"
     inkscape:document-rotation="0" />
  <defs
     id="defs28">
    <filter
       id="e"
       x="-.036"
       y="-.036"
       width="1.072"
       height="1.072"
       color-interpolation-filters="sRGB">
      <feGaussianBlur
         stdDeviation="14.343749"
         id="feGaussianBlur2" />
    </filter>
    <linearGradient
       id="linearGradient882"
       x1="41.203"
       x2="41.203"
       y1="15.899"
       y2="62"
       gradientUnits="userSpaceOnUse">
      <stop
         stop-color="#f23530"
         offset="0"
         id="stop5" />
      <stop
         stop-color="#ff6623"
         offset="1"
         id="stop7" />
    </linearGradient>
    <linearGradient
       id="linearGradient890"
       x1="16.739"
       x2="16.739"
       y1="20.762"
       y2="61.789"
       gradientUnits="userSpaceOnUse">
      <stop
         stop-color="#62d022"
         offset="0"
         id="stop10" />
      <stop
         stop-color="#95d022"
         offset="1"
         id="stop12" />
    </linearGradient>
    <linearGradient
       id="linearGradient898"
       x1="9.7217"
       x2="9.7217"
       y1="16.251"
       y2="32.277"
       gradientUnits="userSpaceOnUse">
      <stop
         stop-color="#4fa41e"
         offset="0"
         id="stop15" />
      <stop
         stop-color="#519c26"
         offset="1"
         id="stop17" />
    </linearGradient>
    <linearGradient
       id="linearGradient906"
       x1="33.145"
       x2="33.145"
       y1="2"
       y2="37.387"
       gradientUnits="userSpaceOnUse">
      <stop
         stop-color="#1fa5f9"
         offset="0"
         id="stop20" />
      <stop
         stop-color="#00e6ee"
         offset="1"
         id="stop22" />
    </linearGradient>
    <filter
       id="filter930"
       x="-.06572"
       y="-.055196"
       width="1.1314"
       height="1.1104"
       color-interpolation-filters="sRGB">
      <feGaussianBlur
         stdDeviation="0.91251952"
         id="feGaussianBlur25" />
    </filter>
    <filter
       id="e-3"
       x="-.036"
       y="-.036"
       width="1.072"
       height="1.072"
       color-interpolation-filters="sRGB">
      <feGaussianBlur
         stdDeviation="14.343749"
         id="feGaussianBlur853" />
    </filter>
    <filter
       id="filter930-6"
       x="-.06572"
       y="-.055196"
       width="1.1314"
       height="1.1104"
       color-interpolation-filters="sRGB">
      <feGaussianBlur
         stdDeviation="0.91251952"
         id="feGaussianBlur876" />
    </filter>
    <linearGradient
       inkscape:collect="always"
       xlink:href="#linearGradient882"
       id="linearGradient920"
       gradientUnits="userSpaceOnUse"
       x1="41.203"
       y1="15.899"
       x2="41.203"
       y2="62" />
    <linearGradient
       inkscape:collect="always"
       xlink:href="#linearGradient898"
       id="linearGradient922"
       gradientUnits="userSpaceOnUse"
       x1="9.7217"
       y1="16.251"
       x2="9.7217"
       y2="32.277" />
    <linearGradient
       inkscape:collect="always"
       xlink:href="#linearGradient906"
       id="linearGradient924"
       gradientUnits="userSpaceOnUse"
       x1="33.145"
       y1="2"
       x2="33.145"
       y2="37.387" />
    <linearGradient
       inkscape:collect="always"
       xlink:href="#linearGradient890"
       id="linearGradient926"
       gradientUnits="userSpaceOnUse"
       x1="16.739"
       y1="20.762"
       x2="16.739"
       y2="61.789" />
  </defs>
  <g
     id="g918"
     transform="translate(4.9105941e-5,4.9105941e-5)">
    <path
       d="m 33.842,15.9 c -1.5912,-0.0184 -3.1891,0.12065 -4.8145,0.41797 -8.91e-4,1.63e-4 -0.0029,-1.63e-4 -0.0039,0 -2.7081,0.49565 -5.4854,1.4301 -8.3984,2.8027 0.39885,0.65554 0.81161,1.2755 1.2344,1.8652 0.42276,0.58977 0.85775,1.1485 1.2949,1.6875 3.0606,3.7738 6.3546,6.4862 8.2578,10.719 v 0.002 c 0.95087,2.1155 1.5547,4.6105 1.6055,7.8066 v 0.002 c 0.05077,3.1974 -0.45143,7.0945 -1.709,12.018 -0.42079,1.648 -1.7755,5.7609 -2.7012,8.5684 a 30,30 0 0 0 3.3926,0.21094 30,30 0 0 0 29.781,-26.547 c -3.6103,-4.6 -10.162,-12.715 -13.361,-15.061 -4.7976,-3.5163 -9.7691,-4.4366 -14.578,-4.4922 z"
       fill="url(#linearGradient882)"
       id="path883"
       style="fill:url(#linearGradient920)" />
    <path
       d="m 13.447,16.254 c -2.0628,0.03142 -5.6047,0.33485 -8.002,1.834 A 30,30 0 0 0 1.9997,32 30,30 0 0 0 2.00947,32.27734 c 4.47,-3.5303 11.903,-9.544 15.434,-11.516 -0.81878,-1.282 -1.6093,-2.7504 -2.3477,-4.4766 -2.5e-5,-9.1e-5 -0.64942,-0.04647 -1.6484,-0.03125 z"
       fill="url(#linearGradient898)"
       id="path885"
       style="fill:url(#linearGradient922)" />
    <path
       d="M 32,2 A 30,30 0 0 0 4.289,20.537 c 4.0167,-1.6672 8.8327,-3.6038 10.807,-4.252 1.2182,-0.40036 2.403,-0.75426 3.5586,-1.0664 12.533,-3.3882 21.509,-1.6182 29.766,5.1738 2.9595,2.4346 8.648,9.1749 13.068,16.994 a 30,30 0 0 0 0.51172,-5.3867 30,30 0 0 0 -30,-30 z"
       fill="url(#linearGradient906)"
       id="path887"
       style="fill:url(#linearGradient924)" />
    <path
       d="m 17.443,20.762 c -2.7155,1.5163 -9.9296,5.5356 -15.328,8.9258 a 30,30 0 0 0 -0.11523,2.3125 30,30 0 0 0 26.607,29.789 c 0.92577,-2.8072 2.2824,-6.9187 2.7031,-8.5664 v -0.002 c 0.04646,-0.74967 0.08234,-1.4738 0.10938,-2.1738 v -0.002 c 0.02706,-0.69998 0.04439,-1.3746 0.05273,-2.0273 v -0.002 c 0.0084,-0.65266 0.0076,-1.2829 -0.002,-1.8906 -0.01918,-1.2157 -0.07359,-2.3444 -0.16016,-3.3945 -0.04325,-0.52482 -0.0953,-1.0306 -0.1543,-1.5176 -0.11805,-0.97417 -0.26678,-1.8761 -0.44336,-2.7129 -0.79479,-3.7664 -2.1529,-6.2367 -3.8047,-8.2676 -0.18356,-0.22567 -0.3701,-0.4461 -0.56055,-0.66211 -0.3809,-0.43202 -0.77564,-0.84639 -1.1797,-1.2539 -0.80807,-0.81501 -1.6563,-1.5997 -2.5215,-2.4297 -0.43277,-0.41517 -0.86843,-0.84186 -1.3066,-1.2891 -0.2187,-0.22316 -0.43926,-0.45089 -0.6582,-0.68555 v -0.002 c -0.65784,-0.7051 -1.3161,-1.4671 -1.9629,-2.3184 -0.43122,-0.5675 -0.85644,-1.1741 -1.2754,-1.8301 z"
       fill="url(#linearGradient890)"
       id="path889"
       style="fill:url(#linearGradient926)" />
    <path
       d="M 12.559,9.1973 A 30,30 0 0 0 4.2836,20.5513 C 7.7601,19.0642 12.5826,17.111 15.0956,16.2857 14.35428,14.2988 13.42,11.6455 12.5585,9.1978 Z"
       fill="#3a3e3e"
       id="path891" />
    <path
       d="m 15.332,7.084 a 30,30 0 0 0 -2.8613,2.1895 c 0.90889,2.6506 2.0918,5.7651 2.625,7.0117 1.2182,-0.40036 2.403,-0.75426 3.5586,-1.0664 0.07762,-0.02099 0.15117,-0.03604 0.22852,-0.05664 -0.83489,-2.0184 -2.2605,-5.2605 -3.5508,-8.0781 z"
       opacity="0.2"
       id="path893" />
    <path
       d="m 29.449,13.548 c -3.3083,0.0555 -6.8789,0.6119 -10.795,1.6707 -1.1556,0.31214 -2.3394,0.66605 -3.5576,1.0664 0.73837,1.7262 1.5294,3.1942 2.3481,4.4762 0.41895,0.65599 0.84364,1.2618 1.2749,1.8293 0.64683,0.85125 1.3035,1.6137 1.9613,2.3187 h 0.0028 c 0.21895,0.23466 0.4378,0.46316 0.6565,0.68633 0.43821,0.4472 0.87478,0.87545 1.3075,1.2906 0.86521,0.83002 1.7144,1.6131 2.5225,2.4281 0.40404,0.40752 0.79589,0.82306 1.1768,1.2551 0.19045,0.21601 0.3776,0.43605 0.56116,0.66172 1.6518,2.0309 3.0107,4.5024 3.8055,8.2687 0.17658,0.83676 0.32597,1.7383 0.44402,2.7125 0.059,0.48696 0.11202,0.99276 0.15527,1.5176 0.08657,1.0501 0.13882,2.1776 0.158,3.3934 v 0.0028 c 0.0096,0.60774 0.01116,1.2368 0.0028,1.8895 -0.0084,0.65271 -0.02742,1.3289 -0.05448,2.0289 v 0.0028 c -0.02706,0.70003 -0.0625,1.4242 -0.10897,2.1738 0.33954,-1.3292 0.61387,-2.5707 0.84718,-3.757 0.07105,-0.36123 0.11538,-0.6876 0.17706,-1.0363 0.14352,-0.81122 0.2783,-1.6102 0.3732,-2.357 0.04647,-0.36616 0.07368,-0.70944 0.10897,-1.0609 0.06651,-0.66139 0.12117,-1.3073 0.14982,-1.9195 0.03006,-0.64462 0.06113,-1.2898 0.05176,-1.884 -1.4e-5,-8.83e-4 1.4e-5,-0.0018 0,-0.0028 v -0.0028 c -0.01171,-0.73743 -0.06004,-1.4278 -0.12804,-2.0945 -0.0091,-0.08861 -0.01727,-0.18054 -0.02724,-0.26797 -0.06554,-0.57422 -0.15719,-1.1166 -0.26151,-1.6434 -0.09688,-0.48914 -0.21568,-0.95011 -0.34323,-1.4027 -0.05463,-0.19392 -0.09808,-0.40012 -0.158,-0.58789 -0.19068,-0.59754 -0.4086,-1.1667 -0.64833,-1.709 -0.01425,-0.03224 -0.02372,-0.06912 -0.03813,-0.10118 v -0.0028 c -0.25597,-0.56927 -0.54201,-1.1064 -0.84446,-1.627 -0.11398,-0.19621 -0.23978,-0.38097 -0.35958,-0.57148 -0.20092,-0.31948 -0.40266,-0.63734 -0.61836,-0.94336 -0.13435,-0.19065 -0.2746,-0.37686 -0.41406,-0.56328 -0.22912,-0.30623 -0.45891,-0.61299 -0.70008,-0.91054 -0.10801,-0.13328 -0.2195,-0.26445 -0.32961,-0.39648 -0.66714,-0.79993 -1.3726,-1.5826 -2.0921,-2.3762 -0.23277,-0.25677 -0.4539,-0.51576 -0.68919,-0.77656 -0.7365,-0.81628 -1.4802,-1.649 -2.2119,-2.5512 -4.45e-4,-5.49e-4 4.44e-4,-0.0022 0,-0.0028 -0.43717,-0.53902 -0.87116,-1.0973 -1.2939,-1.6871 -0.42276,-0.58975 -0.83515,-1.2093 -1.234,-1.8648 0.67409,-0.31764 1.3392,-0.60433 1.9995,-0.875 0.17172,-0.07039 0.34126,-0.13513 0.51212,-0.20234 0.4878,-0.19189 0.9734,-0.37268 1.4546,-0.53867 0.2084,-0.07189 0.41655,-0.14077 0.62381,-0.20781 0.45002,-0.14554 0.89786,-0.27657 1.343,-0.39922 0.20168,-0.05558 0.40399,-0.11592 0.60474,-0.1668 0.59814,-0.15159 1.1934,-0.2866 1.7843,-0.39648 0.02522,-0.0046 0.05107,-0.01176 0.07628,-0.01641 h 0.0028 c 0.71194,-0.13023 1.4155,-0.21746 2.1193,-0.28711 0.19985,-0.01981 0.39997,-0.03704 0.59929,-0.05195 0.70103,-0.05236 1.4014,-0.08734 2.0975,-0.0793 4.809,0.05559 9.7789,0.97624 14.576,4.4926 -5.6764,-4.6695 -11.692,-6.9662 -18.97,-6.8441 z"
       fill="#000000"
       filter="url(#filter930)"
       opacity="0.15"
       id="path895"
       style="filter:url(#filter930-6)" />
    <path
       d="m 29.449,13.548 c -3.3083,0.0555 -6.8789,0.6119 -10.795,1.6707 -1.1556,0.31214 -2.3394,0.66605 -3.5576,1.0664 0.73837,1.7262 1.5294,3.1942 2.3481,4.4762 0.41895,0.65599 0.84364,1.2618 1.2749,1.8293 0.64683,0.85125 1.3035,1.6137 1.9613,2.3187 h 0.0028 c 0.21895,0.23466 0.4378,0.46316 0.6565,0.68633 0.43821,0.4472 0.87478,0.87545 1.3075,1.2906 0.86521,0.83002 1.7144,1.6131 2.5225,2.4281 0.40404,0.40752 0.79589,0.82306 1.1768,1.2551 0.19045,0.21601 0.3776,0.43605 0.56116,0.66172 1.6518,2.0309 3.0107,4.5024 3.8055,8.2687 0.17658,0.83676 0.32597,1.7383 0.44402,2.7125 0.059,0.48696 0.11202,0.99276 0.15527,1.5176 0.08657,1.0501 0.13882,2.1776 0.158,3.3934 v 0.0028 c 0.0096,0.60774 0.01116,1.2368 0.0028,1.8895 -0.0084,0.65271 -0.02742,1.3289 -0.05448,2.0289 v 0.0028 c -0.02706,0.70003 -0.0625,1.4242 -0.10897,2.1738 0.33954,-1.3292 0.61387,-2.5707 0.84718,-3.757 0.07105,-0.36123 0.11538,-0.6876 0.17706,-1.0363 0.14352,-0.81122 0.2783,-1.6102 0.3732,-2.357 0.04647,-0.36616 0.07368,-0.70944 0.10897,-1.0609 0.06651,-0.66139 0.12117,-1.3073 0.14982,-1.9195 0.03006,-0.64462 0.06113,-1.2898 0.05176,-1.884 -1.4e-5,-8.83e-4 1.4e-5,-0.0018 0,-0.0028 v -0.0028 c -0.01171,-0.73743 -0.06004,-1.4278 -0.12804,-2.0945 -0.0091,-0.08861 -0.01727,-0.18054 -0.02724,-0.26797 -0.06554,-0.57422 -0.15719,-1.1166 -0.26151,-1.6434 -0.09688,-0.48914 -0.21568,-0.95011 -0.34323,-1.4027 -0.05463,-0.19392 -0.09808,-0.40012 -0.158,-0.58789 -0.19068,-0.59754 -0.4086,-1.1667 -0.64833,-1.709 -0.01425,-0.03224 -0.02372,-0.06912 -0.03813,-0.10118 v -0.0028 c -0.25597,-0.56927 -0.54201,-1.1064 -0.84446,-1.627 -0.11398,-0.19621 -0.23978,-0.38097 -0.35958,-0.57148 -0.20092,-0.31948 -0.40266,-0.63734 -0.61836,-0.94336 -0.13435,-0.19065 -0.2746,-0.37686 -0.41406,-0.56328 -0.22912,-0.30623 -0.45891,-0.61299 -0.70008,-0.91054 -0.10801,-0.13328 -0.2195,-0.26445 -0.32961,-0.39648 -0.66714,-0.79993 -1.3726,-1.5826 -2.0921,-2.3762 -0.23277,-0.25677 -0.4539,-0.51576 -0.68919,-0.77656 -0.7365,-0.81628 -1.4802,-1.649 -2.2119,-2.5512 -4.45e-4,-5.49e-4 4.44e-4,-0.0022 0,-0.0028 -0.43717,-0.53902 -0.87116,-1.0973 -1.2939,-1.6871 -0.42276,-0.58975 -0.83515,-1.2093 -1.234,-1.8648 0.67409,-0.31764 1.3392,-0.60433 1.9995,-0.875 0.17172,-0.07039 0.34126,-0.13513 0.51212,-0.20234 0.4878,-0.19189 0.9734,-0.37268 1.4546,-0.53867 0.2084,-0.07189 0.41655,-0.14077 0.62381,-0.20781 0.45002,-0.14554 0.89786,-0.27657 1.343,-0.39922 0.20168,-0.05558 0.40399,-0.11592 0.60474,-0.1668 0.59814,-0.15159 1.1934,-0.2866 1.7843,-0.39648 0.02522,-0.0046 0.05107,-0.01176 0.07628,-0.01641 h 0.0028 c 0.71194,-0.13023 1.4155,-0.21746 2.1193,-0.28711 0.19985,-0.01981 0.39997,-0.03704 0.59929,-0.05195 0.70103,-0.05236 1.4014,-0.08734 2.0975,-0.0793 4.809,0.05559 9.7789,0.97624 14.576,4.4926 -5.6764,-4.6695 -11.692,-6.9662 -18.97,-6.8441 z"
       fill="#ffffff"
       id="path897" />
  </g>
</svg>
