<?xml version="1.0" encoding="UTF-8"?>
<svg width="64" height="64" version="1.1" xmlns="http://www.w3.org/2000/svg" xmlns:cc="http://creativecommons.org/ns#" xmlns:dc="http://purl.org/dc/elements/1.1/" xmlns:rdf="http://www.w3.org/1999/02/22-rdf-syntax-ns#" xmlns:xlink="http://www.w3.org/1999/xlink">
 <metadata>
  <rdf:RDF>
   <cc:Work rdf:about="">
    <dc:format>image/svg+xml</dc:format>
    <dc:type rdf:resource="http://purl.org/dc/dcmitype/StillImage"/>
   </cc:Work>
  </rdf:RDF>
 </metadata>
 <defs>
  <linearGradient id="d" x1="399.57" x2="399.57" y1="545.8" y2="517.8" gradientTransform="matrix(1.9175 0 0 1.9175 -736.2 -987.76)" gradientUnits="userSpaceOnUse">
   <stop stop-color="#3889e9" offset="0"/>
   <stop stop-color="#5ea5fb" offset="1"/>
  </linearGradient>
  <filter id="filter1066" x="-.063923" y="-.056531" width="1.1278" height="1.1131" color-interpolation-filters="sRGB">
   <feGaussianBlur stdDeviation="0.22705935"/>
  </filter>
  <linearGradient id="linearGradient1040" x1="80.368" x2="82.141" y1="13.177" y2="14.704" gradientTransform="matrix(3.8684 0 0 3.8684 -265.27 -9.2241)" gradientUnits="userSpaceOnUse">
   <stop stop-color="#334d59" offset="0"/>
   <stop stop-color="#213a48" offset="1"/>
  </linearGradient>
  <linearGradient id="linearGradient1704" x1="6.865" x2="45.406" y1="7.5917" y2="46.132" gradientTransform="translate(77.499)" gradientUnits="userSpaceOnUse">
   <stop stop-color="#2a4959" offset="0"/>
   <stop stop-color="#476270" offset="1"/>
  </linearGradient>
  <linearGradient id="linearGradient1712" x1="39.255" x2="53.992" y1="38.448" y2="53.185" gradientTransform="translate(77.499 .077841)" gradientUnits="userSpaceOnUse">
   <stop stop-color="#193140" offset="0"/>
   <stop stop-color="#2a4959" offset="1"/>
  </linearGradient>
  <linearGradient id="linearGradient49516" x1="31.992" x2="46.208" y1="31.984" y2="46.201" gradientTransform="translate(76.286)" gradientUnits="userSpaceOnUse">
   <stop stop-color="#27a4f4" offset="0"/>
   <stop stop-color="#2bc6fa" offset="1"/>
  </linearGradient>
  <linearGradient id="linearGradient49518" x1="12.681" x2="31.991" y1="12.29" y2="31.984" gradientTransform="matrix(1.4622,0,0,1.4622,-565.44,-733.94)" gradientUnits="userSpaceOnUse">
   <stop stop-color="#ffba00" offset="0"/>
   <stop stop-color="#ffa000" offset="1"/>
  </linearGradient>
  <linearGradient id="linearGradient49520" x1="51.645" x2="31.992" y1="12.623" y2="31.984" gradientTransform="matrix(1.4622,0,0,1.4622,-565.44,-733.94)" gradientUnits="userSpaceOnUse">
   <stop stop-color="#ff6f2f" offset="0"/>
   <stop stop-color="#ff5321" offset="1"/>
  </linearGradient>
  <linearGradient id="linearGradient49522" x1="31.992" x2="12.527" y1="31.984" y2="51.193" gradientTransform="matrix(1.4622,0,0,1.4622,-565.44,-733.94)" gradientUnits="userSpaceOnUse">
   <stop stop-color="#7be22b" offset="0"/>
   <stop stop-color="#6eeb1a" offset="1"/>
  </linearGradient>
 </defs>
 <circle cx="31.89" cy="31.955" r="0" fill="url(#d)" stroke-width="1.4062"/>
 <circle cx="32.035" cy="32.067" r="40.213" fill-opacity="0" stroke-width="2.1064"/>
 <circle cx="31.756" cy="32.157" r="30" color="#000000" fill="url(#linearGradient1712)"/>
 <path d="m31.499 1.7583a30 30.173 0 0 0-30 30.174 30 30.173 0 0 0 20.932 28.75l2.0137-0.22787c14.201-3.9285 34.19-16.084 34.981-39.535a30 30.173 0 0 0-27.926-19.161zm27.994 19.342 1.6836 14.985a30 30.173 0 0 0 0.0019-0.0079l-1.6797-14.959a30 30.173 0 0 0-0.0057-0.01769z" color="#000000" fill="url(#linearGradient1704)" stroke-width="1.0029"/>
 <path transform="matrix(4.1561 0 0 3.9009 -180.43 -15.829)" d="m57.818 9.8288s0.05354 3.0782-2.6636 4.5408c-2.2449 1.2084 0.9386 2.689-5.8599 5.0989 8.8505-2.5748 8.5235-9.6396 8.5235-9.6396z" fill="#141414" filter="url(#filter1066)" opacity=".3"/>
 <path transform="matrix(4.0385 0 0 3.7631 -173.25 -13.287)" d="m57.818 9.8288s0.05354 3.0782-2.6636 4.5408c-2.2449 1.2084 0.9386 2.689-5.8599 5.0989 8.8505-2.5748 8.5235-9.6396 8.5235-9.6396z" fill="#141414" filter="url(#filter1066)" opacity=".3"/>
 <g transform="matrix(.87474 0 0 .87474 -61.777 3.9894)">
  <path d="m121.68 44.688c7.1922 0 6.6082-12.704 6.6082-12.704h-20.008v20.016s13.4 1.0573 13.4-7.312z" fill="url(#linearGradient49516)"/>
  <g transform="translate(76.286)" fill-rule="evenodd">
   <path d="m15.336 12c-1.8484 0-3.3359 1.4875-3.3359 3.3359v16.648h19.992v-19.984h-16.656z" fill="url(#linearGradient49518)"/>
   <path d="m31.992 12v19.984h20.008v-16.648c0-1.8484-1.4875-3.3359-3.3359-3.3359h-16.672z" fill="url(#linearGradient49520)"/>
   <path d="m12 31.982v16.682c0 1.8484 1.4875 3.3359 3.3359 3.3359h16.656v-20.016l-19.992-2e-3z" fill="url(#linearGradient49522)"/>
  </g>
 </g>
 <path d="m59.227 20.981s-0.44234 13.056-10.953 18.714c-8.684 4.6746 2.47 11.436-23.829 20.758 34.237-9.9604 35.054-39.336 35.054-39.336z" fill="url(#linearGradient1040)" stroke-width="3.8684"/>
 <path d="m59.425 20.919s-1.5769 13.31-10.542 18.267c-10.313 5.7023 2.7309 12.041-24.439 21.268" fill="none" stroke="#2c4a5a" stroke-width=".51176"/>
 <path d="m59.492 21.1 1.6836 14.984a30 30.173 0 0 0 2e-3 -0.0078l-1.6797-14.959a30 30.173 0 0 0-0.0039-0.01758h-2e-3z" color="#000000" fill="#fafafa" stroke-width="1.0029"/>
</svg>
