<?xml version="1.0" encoding="UTF-8"?>
<svg id="Apps-Opera" width="64" height="64" enable-background="new 0 0 1024 1024" image-rendering="optimizeSpeed" version="1.1" viewBox="0 0 64 64" xmlns="http://www.w3.org/2000/svg" xmlns:cc="http://creativecommons.org/ns#" xmlns:dc="http://purl.org/dc/elements/1.1/" xmlns:rdf="http://www.w3.org/1999/02/22-rdf-syntax-ns#" xmlns:xlink="http://www.w3.org/1999/xlink">
 <circle cx="32" cy="32" r="30" fill="url(#linearGradient1187)" stroke-width="2.2158"/>
 <circle cx="-238.16" cy="1.6791" r="0" fill="#5e4aa6" fill-rule="evenodd"/>
 <metadata>
  <rdf:RDF>
   <cc:Work rdf:about="">
    <dc:format>image/svg+xml</dc:format>
    <dc:type rdf:resource="http://purl.org/dc/dcmitype/StillImage"/>
   </cc:Work>
  </rdf:RDF>
 </metadata>
 <defs>
  <linearGradient id="linearGradient1187" x1="8.8754" x2="58.247" y1="7.351" y2="56.723" gradientTransform="translate(5.1602e-6)" gradientUnits="userSpaceOnUse">
   <stop stop-color="#fafafa" offset="0"/>
   <stop stop-color="#f3f3f3" offset="1"/>
  </linearGradient>
 </defs>
 <circle cx="-1248.7" cy="-1241.6" r="0" fill="#5e4aa6"/>
 <circle cx="-1337.7" cy="-1263.8" r="0" fill="#5e4aa6"/>
 <g transform="translate(.046796 -.3497)" fill="#6e3b91" stroke-width=".50958">
  <path d="m24.19 22.548-0.01907 13.4q-0.02239 3.0176-1.137 4.6245-1.1146 1.5937-3.1945 1.5907-2.1161-3e-3 -3.2351-1.6264-1.11-1.6234-1.1056-4.6942l0.01898-13.307 2.6768 0.0038-0.019 13.32q-0.0024 1.6484 0.35837 2.3535 0.36072 0.70509 1.3103 0.70643 0.94952 0.0013 1.3032-0.68937 0.35368-0.70407 0.36499-2.2992l0.0191-13.387z" enable-background="new"/>
  <path d="m30.195 34.84-1.3203-0.0019-0.01007 7.0722-2.6586-0.0038 0.02762-19.355 4.2412 0.0061q1.9985 0.0028 3.0815 1.5332 1.0921 1.517 1.0881 4.3219-0.0055 3.8551-1.9158 5.3944l2.2947 7.926-2.67e-4 0.18606-2.8576-0.0041zm-1.3156-3.2588 1.5102 0.0021q0.7958 0.0012 1.1948-0.76928 0.39901-0.78372 0.4009-2.0865 0.0041-2.9113-1.5422-2.9135l-1.5554-0.0022z" enable-background="new"/>
  <path d="m39.97 22.571 2.4667 14.001 2.4978-13.994 3.4725 5e-3 -0.02762 19.355-2.6677-0.0038 0.0075-5.2375 0.25566-8.0687-2.6505 13.303-1.8086-0.0026-2.6126-13.31 0.23264 8.0696-0.0075 5.2375-2.6586-0.0038 0.02762-19.355z" enable-background="new"/>
 </g>
</svg>
