<?xml version="1.0" encoding="UTF-8"?>
<svg width="64" height="64" version="1.1" xmlns="http://www.w3.org/2000/svg">
 <defs>
  <linearGradient id="linearGradient1100" x1="399.57" x2="399.57" y1="545.8" y2="517.8" gradientTransform="matrix(2.1429,0,0,2.1429,-826.36,-1107.5)" gradientUnits="userSpaceOnUse">
   <stop stop-color="#3889e9" offset="0"/>
   <stop stop-color="#5ea5fb" offset="1"/>
  </linearGradient>
  <linearGradient id="b-9" x1="197.72" x2="2.1257" y1="1.9527" y2="197.34" gradientTransform="matrix(.3 0 0 .3 55.609 43.356)" gradientUnits="userSpaceOnUse">
   <stop stop-color="#505050" offset="0"/>
   <stop stop-color="#323232" offset="1"/>
  </linearGradient>
  <filter id="filter873" x="-.091612" y="-.13153" width="1.1832" height="1.2631" color-interpolation-filters="sRGB">
   <feGaussianBlur stdDeviation="1.4248792"/>
  </filter>
 </defs>
 <circle cx="32.02" cy="32.044" r="0" fill="url(#linearGradient1100)" stroke-width="1.5715"/>
 <g transform="translate(-53.609 -41.356)">
  <circle cx="85.609" cy="73.356" r="30" color="#000000" fill="url(#b-9)"/>
  <path d="m88.862 61.588 0.02577 2.9885 3.1322-0.02701-0.02577-2.9885zm-14.846 1.5706-1.4868 7.1054-4.7674 0.04112 0.01619 1.8772 4.3855-0.03784-1.3016 6.4271-3.9162 0.03374 0.01619 1.8772 3.4978-0.03015-1.4012 7.1065 1.9154-0.01653 1.3994-7.1064 6.3154-0.05451-1.434 7.1068 1.9135-0.01654 1.4704-7.1071 4.9239-0.04249-0.0163-1.8771-4.5237 0.03903 1.3016-6.4271 4.0544-0.035-0.0163-1.8771-3.6724 0.03168 1.4704-7.1053-1.9135 0.01653-1.4704 7.1052-6.3154 0.05446 1.4704-7.1052zm24.18 1.1303-0.88593 4.2152-2.2973 0.0198 0.01956 2.2773 2.1754-0.01863 0.10825 12.551c0.0245 2.8394 1.2892 4.2491 3.7947 4.2275 1.0788-0.0093 2.1332-0.15861 3.1632-0.44566l-0.02-2.3119c-0.78735 0.16883-1.3902 0.25575-1.8077 0.25937-0.73076 0.0062-1.2482-0.16636-1.5526-0.52503-0.29316-0.36865-0.44343-1.0058-0.45123-1.9098l-0.1024-11.872 3.4796-0.03004-0.0196-2.2773-3.4796 0.03004-0.0363-4.2072zm-9.2731 4.2876 0.16224 18.81 3.1322-0.02703-0.16224-18.81zm-14.793 3.5511 6.2626-0.05402-1.3016 6.4271-6.299 0.05432z" filter="url(#filter873)" opacity=".35"/>
  <path d="m88.862 60.383 0.02577 2.9885 3.1322-0.02701-0.02577-2.9885zm-14.846 1.5706-1.4868 7.1054-4.7674 0.04112 0.01619 1.8772 4.3855-0.03784-1.3016 6.4271-3.9162 0.03374 0.01619 1.8772 3.4978-0.03015-1.4012 7.1065 1.9154-0.01653 1.3994-7.1064 6.3154-0.05451-1.434 7.1068 1.9135-0.01654 1.4704-7.1071 4.9239-0.04249-0.0163-1.8771-4.5237 0.03903 1.3016-6.4271 4.0544-0.035-0.0163-1.8771-3.6724 0.03168 1.4704-7.1053-1.9135 0.01653-1.4704 7.1052-6.3154 0.05446 1.4704-7.1052zm24.18 1.1303-0.88593 4.2152-2.2973 0.0198 0.01956 2.2773 2.1754-0.01863 0.10825 12.551c0.0245 2.8394 1.2892 4.2491 3.7947 4.2275 1.0788-0.0093 2.1332-0.15861 3.1632-0.44566l-0.02-2.3119c-0.78735 0.16883-1.3902 0.25575-1.8077 0.25937-0.73076 0.0062-1.2482-0.16636-1.5526-0.52503-0.29316-0.36865-0.44343-1.0058-0.45123-1.9098l-0.1024-11.872 3.4796-0.03004-0.0196-2.2773-3.4796 0.03004-0.0363-4.2072zm-9.2731 4.2876 0.16224 18.81 3.1322-0.02703-0.16224-18.81zm-14.793 3.5511 6.2626-0.05402-1.3016 6.4271-6.299 0.05432z" fill="#fff"/>
 </g>
</svg>
