<?xml version="1.0" encoding="UTF-8"?>
<svg id="Gimp" width="64" height="64" enable-background="new 0 0 1024 1024" image-rendering="optimizeSpeed" version="1.1" viewBox="0 0 64 64" xmlns="http://www.w3.org/2000/svg" xmlns:xlink="http://www.w3.org/1999/xlink">
 <defs>
  <filter id="filter4539" x="-.08397" y="-.13386" width="1.1679" height="1.2677" color-interpolation-filters="sRGB">
   <feGaussianBlur stdDeviation="6.5383601"/>
  </filter>
  <filter id="filter5067" x="-.047296" y="-.016428" width="1.0946" height="1.0329" color-interpolation-filters="sRGB">
   <feGaussianBlur stdDeviation="2.5323039"/>
  </filter>
  <filter id="filter1066-3" x="-.063923" y="-.056531" width="1.1278" height="1.1131" color-interpolation-filters="sRGB">
   <feGaussianBlur stdDeviation="0.22705935"/>
  </filter>
  <linearGradient id="linearGradient1040" x1="80.368" x2="82.141" y1="13.177" y2="14.704" gradientTransform="matrix(3.8684 0 0 3.8684 -265.27 -9.562)" gradientUnits="userSpaceOnUse">
   <stop stop-color="#fafafa" offset="0"/>
   <stop stop-color="#90a0b3" offset="1"/>
  </linearGradient>
  <linearGradient id="linearGradient1888" x1="27.427" x2="29.678" y1="2.5404" y2="13.71" gradientTransform="matrix(3.6343 0 0 3.6343 -256.25 -22.092)" gradientUnits="userSpaceOnUse">
   <stop stop-color="#7b7b7b" offset="0"/>
   <stop stop-color="#676767" offset="1"/>
  </linearGradient>
  <linearGradient id="linearGradient2398" x1="364.15" x2="356.67" y1="424.37" y2="448.34" gradientTransform="matrix(.11118 0 0 .11118 -2.8922 2.5193)" gradientUnits="userSpaceOnUse">
   <stop stop-color="#25150f" offset="0"/>
   <stop stop-color="#3d241b" offset="1"/>
  </linearGradient>
  <linearGradient id="linearGradient2400" x1="347.85" x2="359.01" y1="476.88" y2="455.73" gradientTransform="matrix(.029416 0 0 .029416 6.2678 11.921)" gradientUnits="userSpaceOnUse">
   <stop stop-color="#25150f" offset="0"/>
   <stop stop-color="#25150f" stop-opacity="0" offset="1"/>
  </linearGradient>
  <linearGradient id="linearGradient2402" x1="487.6" x2="515.04" y1="177.83" y2="187.03" gradientTransform="matrix(.11118 0 0 .11118 -9.3239 2.8028)" gradientUnits="userSpaceOnUse">
   <stop stop-color="#e3e3e3" offset="0"/>
   <stop stop-color="#ebebeb" offset=".15983"/>
   <stop stop-color="#c8c8c8" offset=".50868"/>
   <stop stop-color="#9a9a9a" offset="1"/>
  </linearGradient>
  <linearGradient id="linearGradient2404" x1="463.73" x2="489.22" y1="378.17" y2="378.17" gradientTransform="matrix(.11834 .037657 -.033712 .10595 -4.0975 -12.983)" gradientUnits="userSpaceOnUse">
   <stop stop-color="#69737a" offset="0"/>
   <stop stop-color="#6b7276" offset=".038339"/>
   <stop stop-color="#58595c" offset=".1463"/>
   <stop stop-color="#f2f3f4" offset=".32275"/>
   <stop stop-color="#f2f3f4" offset=".48029"/>
   <stop stop-color="#7f868b" offset=".60172"/>
   <stop stop-color="#525252" offset=".69846"/>
   <stop stop-color="#5c5c5c" offset=".80096"/>
   <stop stop-color="#484848" offset=".88617"/>
   <stop stop-opacity="0" offset="1"/>
  </linearGradient>
  <linearGradient id="linearGradient2406" x1="515.8" x2="435.53" y1="228.34" y2="309.15" gradientTransform="translate(216.8,-88.272)" gradientUnits="userSpaceOnUse">
   <stop stop-color="#de5f03" offset="0"/>
   <stop stop-color="#d7301c" offset="1"/>
  </linearGradient>
 </defs>
 <circle cx="31.755" cy="31.82" r="30" color="#000000" fill="#f3f3f3"/>
 <path d="m31.498 1.421a30 30.173 0 0 0-30 30.174 30 30.173 0 0 0 20.932 28.75l2.0137-0.22787c14.201-3.9285 34.19-16.084 34.981-39.535a30 30.173 0 0 0-27.926-19.161zm27.994 19.342 1.6836 14.985a30 30.173 0 0 0 2e-3 -0.0079l-1.6797-14.959a30 30.173 0 0 0-6e-3 -0.01769z" color="#000000" fill="#fafafa" stroke-width="1.0029"/>
 <path transform="matrix(4.1561 0 0 3.9009 -180.43 -16.166)" d="m57.818 9.8288s0.05354 3.0782-2.6636 4.5408c-2.2449 1.2084 0.9386 2.689-5.8599 5.0989 8.8505-2.5748 8.5235-9.6396 8.5235-9.6396z" fill="#141414" filter="url(#filter1066-3)" opacity=".3"/>
 <path transform="matrix(4.0385 0 0 3.7631 -173.25 -13.625)" d="m57.818 9.8288s0.05354 3.0782-2.6636 4.5408c-2.2449 1.2084 0.9386 2.689-5.8599 5.0989 8.8505-2.5748 8.5235-9.6396 8.5235-9.6396z" fill="#141414" filter="url(#filter1066-3)" opacity=".3"/>
 <path d="m58.578 21.792s0.20713 11.908-10.304 17.566c-8.684 4.6746 3.6309 10.402-22.669 19.725 34.237-9.9604 33.244-37.154 33.244-37.154z" fill="url(#linearGradient1040)" stroke-width="3.8684"/>
 <path d="m58.578 21.792s-0.72965 12.1-9.6943 17.056c-10.313 5.7023 3.7542 10.798-23.416 20.025" fill="none" stroke="#fafafa" stroke-width=".51176"/>
 <path d="m31.497 1.421a30 30.173 0 0 0-26.77 16.566l49.85-5.6289a30 30.173 0 0 0-23.08-10.937z" fill="url(#linearGradient1888)" stroke-width="4.7669"/>
 <path transform="matrix(.1477 0 0 .1477 -71.501 19.151)" d="m668.59 185.08c14.625-39.145 33.463-45.894 54.78-56.949s73.719 21.134 3.2542 85.153-137.64 9.014-151.32-14.644c21.598-18.065 82.149 16.257 93.288-13.559z" fill="url(#linearGradient2406)" filter="url(#filter4539)"/>
 <g transform="translate(-16.231 -3.8918)">
  <path d="m36.522 49.492c-1.8227 2.2593-0.78461 4.7956-1.0446 7.2058 1.1324-2.1062 3.5509-2.6497 3.272-6.5436-0.67738-0.83053-1.4996-0.48689-2.2274-0.66219z" fill="url(#linearGradient2398)" stroke="#1d0f0c" stroke-width=".11118px"/>
  <g transform="matrix(3.7796,0,0,3.7796,-26.582,-42.537)" fill="#2f1919" shape-rendering="auto" stroke-width=".029416">
   <path d="m16.711 25.754c0.18323-0.30298 0.38926-0.59722 0.41382-0.99945 0.02329 0.21502-0.41852 1.0079-0.41382 0.99945z" color="#000000" color-rendering="auto" dominant-baseline="auto" image-rendering="auto" solid-color="#000000" style="font-feature-settings:normal;font-variant-alternates:normal;font-variant-caps:normal;font-variant-ligatures:normal;font-variant-numeric:normal;font-variant-position:normal;isolation:auto;mix-blend-mode:normal;shape-padding:0;text-decoration-color:#000000;text-decoration-line:none;text-decoration-style:solid;text-indent:0;text-orientation:mixed;text-transform:none;white-space:normal"/>
   <path d="m16.581 25.732c0.04441-0.17553 0.14204-0.32687 0.11284-0.53586-0.0053 0.06127-0.17004 0.51683-0.11284 0.53586z" color="#000000" color-rendering="auto" dominant-baseline="auto" image-rendering="auto" solid-color="#000000" style="font-feature-settings:normal;font-variant-alternates:normal;font-variant-caps:normal;font-variant-ligatures:normal;font-variant-numeric:normal;font-variant-position:normal;isolation:auto;mix-blend-mode:normal;shape-padding:0;text-decoration-color:#000000;text-decoration-line:none;text-decoration-style:solid;text-indent:0;text-orientation:mixed;text-transform:none;white-space:normal"/>
   <path d="m16.476 25.787 0.08457-0.76716c-0.06228 0.08059-0.15138 0.7598-0.08457 0.76716z" color="#000000" color-rendering="auto" dominant-baseline="auto" image-rendering="auto" solid-color="#000000" style="font-feature-settings:normal;font-variant-alternates:normal;font-variant-caps:normal;font-variant-ligatures:normal;font-variant-numeric:normal;font-variant-position:normal;isolation:auto;mix-blend-mode:normal;shape-padding:0;text-decoration-color:#000000;text-decoration-line:none;text-decoration-style:solid;text-indent:0;text-orientation:mixed;text-transform:none;white-space:normal"/>
  </g>
  <g transform="matrix(3.7796,0,0,3.7796,-26.582,-42.537)" stroke-width=".029416">
   <path d="m16.617 25.112c0.04308-0.17586 0.02781-0.35531 0.1516-0.52622-0.02401 0.05662-0.09215 0.53625-0.1516 0.52622z" color="#000000" color-rendering="auto" dominant-baseline="auto" fill="#cc9f9f" fill-opacity=".094697" image-rendering="auto" shape-rendering="auto" solid-color="#000000" style="font-feature-settings:normal;font-variant-alternates:normal;font-variant-caps:normal;font-variant-ligatures:normal;font-variant-numeric:normal;font-variant-position:normal;isolation:auto;mix-blend-mode:normal;shape-padding:0;text-decoration-color:#000000;text-decoration-line:none;text-decoration-style:solid;text-indent:0;text-orientation:mixed;text-transform:none;white-space:normal"/>
   <path d="m16.626 25.275c0.04308-0.17586 0.02781-0.35531 0.15159-0.52622-0.02401 0.05662-0.09215 0.53625-0.15159 0.52622z" color="#000000" color-rendering="auto" dominant-baseline="auto" fill="#cc9f9f" fill-opacity=".094697" image-rendering="auto" shape-rendering="auto" solid-color="#000000" style="font-feature-settings:normal;font-variant-alternates:normal;font-variant-caps:normal;font-variant-ligatures:normal;font-variant-numeric:normal;font-variant-position:normal;isolation:auto;mix-blend-mode:normal;shape-padding:0;text-decoration-color:#000000;text-decoration-line:none;text-decoration-style:solid;text-indent:0;text-orientation:mixed;text-transform:none;white-space:normal"/>
   <path d="m16.696 24.349c-0.48224 0.59775-0.20759 1.2688-0.27639 1.9065 0.2996-0.55725 0.92553-0.70703 0.85173-1.7373-0.17922-0.21974-0.38278-0.12284-0.57534-0.16922z" fill="url(#linearGradient2400)"/>
  </g>
  <path transform="matrix(.11118 0 0 .11118 -63.81 10.43)" d="m1018.5 9.8027c-33.063 83.258-59.041 168.35-83.398 253.87l-28.205 88.637c0.976 0.19059 1.95 0.384 2.9277 0.57227-0.7881-0.076-1.5739-0.19307-2.3535-0.38086-7.0373 8.723-9.3267 17.905-9.8398 27.26l28.506-4.5957c0.96819-4.6887 1.3484-10.119 0.91211-16.576 0.346 0.23297 0.68522 0.47472 1.0156 0.72851l34.17-87.012c23.977-71.586 46.352-143.08 63.896-215.17z" fill="#161111" fill-opacity=".37879" filter="url(#filter5067)"/>
  <path d="m39.603 39.616c3.1266-10.977 6.4926-21.892 11.035-32.502 0.13879-0.31223 0.63218-0.46602 0.82089-0.35298 0.1567 0.093885 0.2987 0.49237 0.20425 0.89569-2.0587 11.086-5.3837 21.992-9.0435 32.919z" fill="url(#linearGradient2402)" stroke-width=".11118"/>
  <path d="m39.603 39.616c1.1927-0.12922 2.2256 0.12526 3.0167 0.95994l-3.7993 9.6739c-0.62125-0.47729-1.4994-0.61222-2.3534-0.77901z" fill="url(#linearGradient2404)" stroke-width=".11118" style="paint-order:fill markers stroke"/>
 </g>
</svg>
