<?xml version="1.0" encoding="UTF-8"?>
<svg width="64" height="64" version="1.1" viewBox="0 0 16.933 16.933" xmlns="http://www.w3.org/2000/svg" xmlns:cc="http://creativecommons.org/ns#" xmlns:dc="http://purl.org/dc/elements/1.1/" xmlns:rdf="http://www.w3.org/1999/02/22-rdf-syntax-ns#">
 <defs>
  <filter id="filter1272" x="-.096004" y="-.096181" width="1.192" height="1.1924" color-interpolation-filters="sRGB">
   <feGaussianBlur stdDeviation="0.39771105"/>
  </filter>
  <filter id="filter1066-3" x="-.063923" y="-.056531" width="1.1278" height="1.1131" color-interpolation-filters="sRGB">
   <feGaussianBlur stdDeviation="0.22705935"/>
  </filter>
  <linearGradient id="linearGradient1040" x1="80.368" x2="82.141" y1="13.177" y2="14.704" gradientTransform="matrix(1.0235 0 0 1.0235 -68.36 -2.1194)" gradientUnits="userSpaceOnUse">
   <stop stop-color="#e4e6e9" offset="0"/>
   <stop stop-color="#2f3240" offset="1"/>
  </linearGradient>
 </defs>
 <metadata>
  <rdf:RDF>
   <cc:Work rdf:about="">
    <dc:format>image/svg+xml</dc:format>
    <dc:type rdf:resource="http://purl.org/dc/dcmitype/StillImage"/>
    <dc:title/>
   </cc:Work>
  </rdf:RDF>
 </metadata>
 <g transform="translate(-1.8332 -.32128)">
  <circle cx="10.227" cy="8.8295" r="7.9375" color="#000000" fill="#333644" stroke-width=".26458"/>
  <path transform="matrix(.88977 0 0 .97319 -33.993 -4.12)" d="m57.641 9.8253c0.81583 3.5615-6.4071 9.5974-9.8786 10.551l4.6899-0.01017c4.0983-2.6261 3.5124-2.2804 5.4351-4.4455z" fill="#323543" filter="url(#filter1272)" opacity=".2"/>
  <path d="m10.159 0.78642a7.9375 7.9833 0 0 0-7.9375 7.9835 7.9375 7.9833 0 0 0 5.5383 7.6068l0.53279-0.06029c3.7573-1.0394 9.0461-4.2556 9.2554-10.46a7.9375 7.9833 0 0 0-7.3888-5.0697zm7.4067 5.1176 0.44545 3.9648a7.9375 7.9833 0 0 0 5.03e-4 -0.00209l-0.44442-3.9579a7.9375 7.9833 0 0 0-0.0015-0.00468z" color="#000000" fill="#2f3240" stroke-width=".26535"/>
  <path transform="matrix(1.0996 0 0 1.0321 -45.916 -3.867)" d="m57.818 9.8288s0.05354 3.0782-2.6636 4.5408c-2.2449 1.2084 0.9386 2.689-5.8599 5.0989 8.8505-2.5748 8.5235-9.6396 8.5235-9.6396z" fill="#141414" filter="url(#filter1066-3)" opacity=".3"/>
  <path transform="matrix(1.0685 0 0 .99565 -44.013 -3.1945)" d="m57.818 9.8288s0.05354 3.0782-2.6636 4.5408c-2.2449 1.2084 0.9386 2.689-5.8599 5.0989 8.8505-2.5748 8.5235-9.6396 8.5235-9.6396z" fill="#141414" filter="url(#filter1066-3)" opacity=".3"/>
  <path d="m17.325 6.1763s0.0548 3.1507-2.7263 4.6477c-2.2976 1.2368 0.96068 2.7522-5.9978 5.2189 9.0585-2.6354 8.7958-9.8303 8.7958-9.8303z" fill="url(#linearGradient1040)" stroke-width="1.0235"/>
  <path d="m17.325 6.1763s-0.19305 3.2015-2.565 4.5127c-2.7286 1.5087 0.9933 2.857-6.1955 5.2983" fill="none" stroke="#323541" stroke-width=".1354"/>
  <path d="m17.567 5.904 0.44545 3.9645a7.9375 7.9833 0 0 0 5.29e-4 -0.0021l-0.44442-3.9579a7.9375 7.9833 0 0 0-1e-3 -0.0046h-5.3e-4z" color="#000000" fill="#fafafa" stroke-width=".26535"/>
  <path d="m17.567 5.9038 0.44545 3.9648a7.9375 7.9833 0 0 0 5.02e-4 -0.0021l-0.44442-3.9579a7.9375 7.9833 0 0 0-0.0015-0.0047z" color="#000000" fill="#fafafa" stroke-width=".26535"/>
  <path d="m12.415 4.6183-5.2146 1.5663 0.025563 0.29046 0.15654-0.02646c0.38192-0.063316 0.59981 0.046005 0.69045 0.34776 0.025493 0.084868 0.080277 0.3357 0.084077 0.41681l0.4777 4.2257c0.063422 0.69031-0.056261 0.94214-0.55507 1.1639l-0.15464 0.06701 0.034992 0.28762 2.7158-0.81574-0.03499-0.28762-0.20369 0.04062c-0.4451 0.092579-0.68185-0.01108-0.77815-0.33169-0.031157-0.10373-0.060449-0.2697-0.081244-0.40738l-0.22799-2.0596 0.70723-0.21243c0.3489-0.1048 0.64785-0.10208 0.8101-0.00688 0.16507 0.10462 0.34718 0.36862 0.42365 0.62322 0.01133 0.037716 0.02172 0.10656 0.04062 0.20369l0.02266 0.075442 0.30175-0.090639-0.32164-2.8847-0.31118 0.093471-0.0047 0.052813-0.01492 0.49795c-0.0028 0.093366-0.04141 0.23861-0.10832 0.39236-0.14984 0.32258-0.36668 0.49052-0.82874 0.62931l-0.7638 0.22943-0.17783-1.5503c-0.04919-0.43757-0.034201-0.72992 0.025174-0.84028 0.14138-0.24808 0.36955-0.3783 1.0108-0.5709 1.1787-0.35406 2.0681-0.096903 2.9153 0.84116l0.32434-0.22079z" fill="#fff" stroke-width=".24616"/>
 </g>
</svg>
