<?xml version="1.0" encoding="UTF-8" standalone="no"?>
<svg
   xmlns:dc="http://purl.org/dc/elements/1.1/"
   xmlns:cc="http://creativecommons.org/ns#"
   xmlns:rdf="http://www.w3.org/1999/02/22-rdf-syntax-ns#"
   xmlns:svg="http://www.w3.org/2000/svg"
   xmlns="http://www.w3.org/2000/svg"
   xmlns:xlink="http://www.w3.org/1999/xlink"
   xmlns:sodipodi="http://sodipodi.sourceforge.net/DTD/sodipodi-0.dtd"
   xmlns:inkscape="http://www.inkscape.org/namespaces/inkscape"
   id="Flamingo"
   width="64"
   height="64"
   enable-background="new 0 0 1024 1024"
   image-rendering="optimizeSpeed"
   version="1.1"
   viewBox="0 0 64 64"
   sodipodi:docname="com.github.louis77.tuner.svg"
   inkscape:version="1.0.1 (3bc2e813f5, 2020-09-07)">
  <metadata
     id="metadata136">
    <rdf:RDF>
      <cc:Work
         rdf:about="">
        <dc:format>image/svg+xml</dc:format>
        <dc:type
           rdf:resource="http://purl.org/dc/dcmitype/StillImage" />
        <dc:title></dc:title>
      </cc:Work>
    </rdf:RDF>
  </metadata>
  <sodipodi:namedview
     pagecolor="#ffffff"
     bordercolor="#666666"
     borderopacity="1"
     objecttolerance="10"
     gridtolerance="10"
     guidetolerance="10"
     inkscape:pageopacity="0"
     inkscape:pageshadow="2"
     inkscape:window-width="1920"
     inkscape:window-height="1004"
     id="namedview134"
     showgrid="false"
     inkscape:zoom="6.5078125"
     inkscape:cx="38.790316"
     inkscape:cy="32.514727"
     inkscape:window-x="0"
     inkscape:window-y="0"
     inkscape:window-maximized="1"
     inkscape:current-layer="Flamingo"
     inkscape:document-rotation="0" />
  <defs
     id="defs57">
    <linearGradient
       id="SVGID_5_"
       x1="64.734"
       x2="64.734"
       y1="79"
       y2="47"
       gradientTransform="matrix(0.52685,0,0,0.49844,76.687404,-8.4268)"
       gradientUnits="userSpaceOnUse">
      <stop
         stop-color="#DE3E80"
         offset="0"
         id="stop2" />
      <stop
         stop-color="#910E38"
         offset="1"
         id="stop4" />
    </linearGradient>
    <linearGradient
       id="SVGID_6_"
       x1="64"
       x2="64"
       y1="76"
       y2="50"
       gradientTransform="matrix(0.48884,0,0,0.53846,79.505794,-10.923)"
       gradientUnits="userSpaceOnUse">
      <stop
         stop-color="#FAFAFA"
         offset=".6869"
         id="stop7" />
      <stop
         stop-color="#ABACAE"
         offset="1"
         id="stop9" />
    </linearGradient>
    <radialGradient
       id="SVGID_7_"
       cx="65.029"
       cy="109.39"
       r="28.579"
       gradientTransform="matrix(0.48895,0,0,0.36863,79.685644,7.3883)"
       gradientUnits="userSpaceOnUse">
      <stop
         stop-color="#FAFAFA"
         offset="0"
         id="stop12" />
      <stop
         stop-color="#D4D4D4"
         offset="1"
         id="stop14" />
    </radialGradient>
    <radialGradient
       id="SVGID_8_"
       cx="64.311"
       cy="105.08"
       r="25.112"
       gradientTransform="matrix(0.47887,0,0,0.27834,80.333304,16.293)"
       gradientUnits="userSpaceOnUse">
      <stop
         stop-color="#7E8087"
         offset="0"
         id="stop17" />
      <stop
         stop-color="#FAFAFA"
         offset="1"
         id="stop19" />
    </radialGradient>
    <linearGradient
       id="SVGID_9_"
       x1="99.796"
       x2="99.796"
       y1="94"
       y2="87"
       gradientTransform="matrix(0.48696,0,0,0.48696,0.83478,-5.4435)"
       gradientUnits="userSpaceOnUse">
      <stop
         stop-color="#DE3E80"
         offset="0"
         id="stop22" />
      <stop
         stop-color="#910E38"
         offset="1"
         id="stop24" />
    </linearGradient>
    <linearGradient
       id="SVGID_10_"
       x1="100.44"
       x2="100.44"
       y1="102"
       y2="95"
       gradientTransform="matrix(0.48696,0,0,0.48696,0.83478,-5.4435)"
       gradientUnits="userSpaceOnUse">
      <stop
         stop-color="#DE3E80"
         offset="0"
         id="stop27" />
      <stop
         stop-color="#910E38"
         offset="1"
         id="stop29" />
    </linearGradient>
    <linearGradient
       id="SVGID_11_"
       x1="99.796"
       x2="99.796"
       y1="110"
       y2="103"
       gradientTransform="matrix(0.48696,0,0,0.48696,0.83478,-5.4435)"
       gradientUnits="userSpaceOnUse">
      <stop
         stop-color="#DE3E80"
         offset="0"
         id="stop32" />
      <stop
         stop-color="#910E38"
         offset="1"
         id="stop34" />
    </linearGradient>
    <linearGradient
       id="SVGID_12_"
       x1="171.39"
       x2="171.39"
       y1="94"
       y2="87"
       gradientTransform="matrix(-0.48696,0,0,0.48696,98.028,-5.4435)"
       gradientUnits="userSpaceOnUse">
      <stop
         stop-color="#DE3E80"
         offset="0"
         id="stop37" />
      <stop
         stop-color="#910E38"
         offset="1"
         id="stop39" />
    </linearGradient>
    <linearGradient
       id="SVGID_13_"
       x1="172.04"
       x2="172.04"
       y1="102"
       y2="95"
       gradientTransform="matrix(-0.48696,0,0,0.48696,98.028,-5.4435)"
       gradientUnits="userSpaceOnUse">
      <stop
         stop-color="#DE3E80"
         offset="0"
         id="stop42" />
      <stop
         stop-color="#910E38"
         offset="1"
         id="stop44" />
    </linearGradient>
    <linearGradient
       id="SVGID_14_"
       x1="171.39"
       x2="171.39"
       y1="110"
       y2="103"
       gradientTransform="matrix(-0.48696,0,0,0.48696,98.028,-5.4435)"
       gradientUnits="userSpaceOnUse">
      <stop
         stop-color="#DE3E80"
         offset="0"
         id="stop47" />
      <stop
         stop-color="#910E38"
         offset="1"
         id="stop49" />
    </linearGradient>
    <linearGradient
       id="linearGradient1126"
       x1="29.611"
       x2="29.611"
       y1="58.045"
       y2="7.1883"
       gradientTransform="matrix(1.001,0.0064899,-0.0026165,0.4055,79.058204,69.708)"
       gradientUnits="userSpaceOnUse">
      <stop
         stop-color="#90193A"
         offset="0"
         id="stop52" />
      <stop
         stop-color="#DD3F80"
         offset="1"
         id="stop54" />
    </linearGradient>
    <linearGradient
       id="linearGradient1056"
       x1="-170.14"
       x2="-177.47"
       y1="-1.3647"
       y2="-8.5413"
       gradientTransform="matrix(3.779602,0,0,3.779602,702.76956,64.281774)"
       gradientUnits="userSpaceOnUse">
      <stop
         stop-color="#0096ff"
         offset="0"
         id="stop961" />
      <stop
         stop-color="#00dcff"
         offset="1"
         id="stop963" />
    </linearGradient>
    <linearGradient
       id="linearGradient1058"
       x1="-184.75"
       x2="-170.19"
       y1="-8.5413"
       y2="-15.811"
       gradientTransform="matrix(3.779602,0,0,3.779602,771.83103,64.281774)"
       gradientUnits="userSpaceOnUse">
      <stop
         stop-color="#505f64"
         offset="0"
         id="stop966" />
      <stop
         stop-color="#647378"
         offset="1"
         id="stop968" />
    </linearGradient>
    <filter
       id="filter1255"
       x="-.06"
       y="-.06"
       width="1.12"
       height="1.12"
       color-interpolation-filters="sRGB">
      <feGaussianBlur
         stdDeviation="0.064633745"
         id="feGaussianBlur971" />
    </filter>
    <filter
       id="filter1269"
       x="-.06"
       y="-.06"
       width="1.12"
       height="1.12"
       color-interpolation-filters="sRGB">
      <feGaussianBlur
         stdDeviation="0.082435125"
         id="feGaussianBlur974" />
    </filter>
    <filter
       id="filter1287"
       x="-.051958"
       y="-.070988"
       width="1.1039"
       height="1.142"
       color-interpolation-filters="sRGB">
      <feGaussianBlur
         stdDeviation="0.07138584"
         id="feGaussianBlur977" />
    </filter>
    <filter
       id="filter959"
       x="-.037149"
       y="-.14184"
       width="1.0743"
       height="1.2837"
       color-interpolation-filters="sRGB">
      <feGaussianBlur
         stdDeviation="0.051039421"
         id="feGaussianBlur980" />
    </filter>
    <linearGradient
       inkscape:collect="always"
       xlink:href="#SVGID_6_"
       id="linearGradient1143"
       gradientUnits="userSpaceOnUse"
       gradientTransform="matrix(0.40512774,0,0,0.44625047,6.0513149,-6.8980208)"
       x1="64"
       y1="76"
       x2="64"
       y2="50" />
    <radialGradient
       inkscape:collect="always"
       xlink:href="#SVGID_7_"
       id="radialGradient1220"
       gradientUnits="userSpaceOnUse"
       gradientTransform="matrix(0.48895,0,0,0.36863,79.685644,7.3883)"
       cx="65.029"
       cy="109.39"
       r="28.579" />
    <radialGradient
       inkscape:collect="always"
       xlink:href="#SVGID_8_"
       id="radialGradient1222"
       gradientUnits="userSpaceOnUse"
       gradientTransform="matrix(0.47887,0,0,0.27834,80.333304,16.293)"
       cx="64.311"
       cy="105.08"
       r="25.112" />
    <linearGradient
       inkscape:collect="always"
       xlink:href="#SVGID_9_"
       id="linearGradient1224"
       gradientUnits="userSpaceOnUse"
       gradientTransform="matrix(0.48696,0,0,0.48696,0.83478,-5.4435)"
       x1="99.796"
       y1="94"
       x2="99.796"
       y2="87" />
    <linearGradient
       inkscape:collect="always"
       xlink:href="#SVGID_10_"
       id="linearGradient1226"
       gradientUnits="userSpaceOnUse"
       gradientTransform="matrix(0.48696,0,0,0.48696,0.83478,-5.4435)"
       x1="100.44"
       y1="102"
       x2="100.44"
       y2="95" />
    <linearGradient
       inkscape:collect="always"
       xlink:href="#SVGID_11_"
       id="linearGradient1228"
       gradientUnits="userSpaceOnUse"
       gradientTransform="matrix(0.48696,0,0,0.48696,0.83478,-5.4435)"
       x1="99.796"
       y1="110"
       x2="99.796"
       y2="103" />
    <linearGradient
       inkscape:collect="always"
       xlink:href="#SVGID_12_"
       id="linearGradient1230"
       gradientUnits="userSpaceOnUse"
       gradientTransform="matrix(-0.48696,0,0,0.48696,98.028,-5.4435)"
       x1="171.39"
       y1="94"
       x2="171.39"
       y2="87" />
    <linearGradient
       inkscape:collect="always"
       xlink:href="#SVGID_13_"
       id="linearGradient1232"
       gradientUnits="userSpaceOnUse"
       gradientTransform="matrix(-0.48696,0,0,0.48696,98.028,-5.4435)"
       x1="172.04"
       y1="102"
       x2="172.04"
       y2="95" />
    <linearGradient
       inkscape:collect="always"
       xlink:href="#SVGID_14_"
       id="linearGradient1234"
       gradientUnits="userSpaceOnUse"
       gradientTransform="matrix(-0.48696,0,0,0.48696,98.028,-5.4435)"
       x1="171.39"
       y1="110"
       x2="171.39"
       y2="103" />
    <linearGradient
       id="linearGradient1058-3"
       x1="-184.75"
       x2="-170.19"
       y1="-8.5413"
       y2="-15.811"
       gradientTransform="matrix(4.1232272,0,0,4.1232272,763.74457,67.216233)"
       gradientUnits="userSpaceOnUse">
      <stop
         stop-color="#505f64"
         offset="0"
         id="stop925" />
      <stop
         stop-color="#647378"
         offset="1"
         id="stop927" />
    </linearGradient>
    <filter
       id="filter1255-6"
       x="-.06"
       y="-.06"
       width="1.12"
       height="1.12"
       color-interpolation-filters="sRGB">
      <feGaussianBlur
         stdDeviation="0.064633745"
         id="feGaussianBlur930" />
    </filter>
    <filter
       id="filter1269-7"
       x="-.06"
       y="-.06"
       width="1.12"
       height="1.12"
       color-interpolation-filters="sRGB">
      <feGaussianBlur
         stdDeviation="0.082435125"
         id="feGaussianBlur933" />
    </filter>
    <filter
       id="filter1287-5"
       x="-.051958"
       y="-.070988"
       width="1.1039"
       height="1.142"
       color-interpolation-filters="sRGB">
      <feGaussianBlur
         stdDeviation="0.07138584"
         id="feGaussianBlur936" />
    </filter>
    <filter
       id="filter959-3"
       x="-.037149"
       y="-.14184"
       width="1.0743"
       height="1.2837"
       color-interpolation-filters="sRGB">
      <feGaussianBlur
         stdDeviation="0.051039421"
         id="feGaussianBlur939" />
    </filter>
    <linearGradient
       id="linearGradient1035"
       x1="99.036"
       x2="99.036"
       y1="100.29"
       y2="199.84"
       gradientTransform="matrix(0.30000198,0,0,0.30000198,-79.321719,1.999803)"
       gradientUnits="userSpaceOnUse">
      <stop
         stop-color="#4bd2f5"
         offset="0"
         id="stop942" />
      <stop
         stop-color="#5587ff"
         offset="1"
         id="stop944" />
    </linearGradient>
  </defs>
  <path
     id="path949"
     style="fill:#dd3f80;fill-opacity:1;stroke-width:1.00001"
     d="M 2.0009765,32 A 30.000198,30.000198 0 0 0 32.000976,62 30.000198,30.000198 0 0 0 61.999023,32.046875 C 61.919083,32.042375 61.851488,32 61.770508,32 H 32.000976 Z" />
  <path
     d="M 31.99974,1.999803 A 30.000198,30.000198 0 0 0 1.999542,32.000001 h 59.770395 c 0.08097,0 0.148581,0.04245 0.228521,0.04687 a 30.000198,30.000198 0 0 0 0.002,-0.04687 A 30.000198,30.000198 0 0 0 32.00026,1.999803 Z"
     fill="url(#linearGradient1058-3)"
     stroke-width="4.12323"
     id="path953"
     style="fill:url(#linearGradient1058-3)" />
  <path
     id="rect1408"
     style="fill:#909da2;fill-opacity:1;stroke-width:3.13269;stroke-linecap:round"
     d="m 15.646692,14.585157 c -1.947239,0 -3.53677,1.653446 -3.53677,3.677593 v 5.866019 c 8.62e-4,2.023396 1.590059,3.675138 3.53677,3.71644 h 32.706617 c 1.947239,0 3.536769,-1.651827 3.536769,-3.675973 V 18.26275 c 0,-2.024064 -1.589447,-3.677593 -3.536769,-3.677593 z" />
  <path
     class="st7"
     d="M 48.630424,27.017048 H 15.328636 c -1.296419,0 -2.39029,-1.160254 -2.39029,-2.632865 v -6.336814 c 0,-1.428024 1.053345,-2.632866 2.39029,-2.632866 h 33.342397 c 1.296419,0 2.39029,1.160254 2.39029,2.632866 v 6.3814 c -0.04052,1.428025 -1.093871,2.588279 -2.430816,2.588279 z"
     fill="url(#SVGID_6_)"
     stroke-width="0.425192"
     id="path1109"
     style="fill:url(#linearGradient1143)" />
  <g
     fill="none"
     stroke-miterlimit="10"
     id="g1141"
     transform="matrix(0.82875325,0,0,0.82875325,5.4797321,2.1544511)">
    <g
       stroke="#abacae"
       stroke-width="0.87044"
       id="g1137">
      <line
         class="st8"
         x1="12.035"
         x2="12.035"
         y1="18.777"
         y2="27.056"
         id="line1111" />
      <line
         class="st8"
         x1="15.443"
         x2="15.443"
         y1="20.238001"
         y2="25.594999"
         id="line1113" />
      <line
         class="st8"
         x1="18.365"
         x2="18.365"
         y1="20.238001"
         y2="25.594999"
         id="line1115" />
      <line
         class="st8"
         x1="21.774"
         x2="21.774"
         y1="18.777"
         y2="27.056"
         id="line1117" />
      <line
         class="st8"
         x1="25.183001"
         x2="25.183001"
         y1="20.238001"
         y2="25.594999"
         id="line1119" />
      <line
         class="st8"
         x1="28.591"
         x2="28.591"
         y1="20.238001"
         y2="25.594999"
         id="line1121" />
      <line
         class="st8"
         x1="32"
         x2="32"
         y1="18.777"
         y2="27.056"
         id="line1123" />
      <line
         class="st8"
         x1="35.409"
         x2="35.409"
         y1="20.238001"
         y2="25.594999"
         id="line1125" />
      <line
         class="st8"
         x1="38.817001"
         x2="38.817001"
         y1="20.238001"
         y2="25.594999"
         id="line1127" />
      <line
         class="st8"
         x1="42.226002"
         x2="42.226002"
         y1="18.777"
         y2="27.056"
         id="line1129" />
      <line
         class="st8"
         x1="51.965"
         x2="51.965"
         y1="18.777"
         y2="27.056"
         id="line1131" />
      <line
         class="st8"
         x1="45.634998"
         x2="45.634998"
         y1="20.238001"
         y2="25.594999"
         id="line1133" />
      <line
         class="st8"
         x1="48.556999"
         x2="48.556999"
         y1="20.238001"
         y2="25.594999"
         id="line1135" />
    </g>
    <line
       class="st9"
       x1="27.129999"
       x2="27.129999"
       y1="16.83"
       y2="29.49"
       stroke="#de3e80"
       stroke-width="1.0668"
       id="line1139" />
  </g>
  <g
     id="g1218"
     transform="matrix(0.82875325,0,0,0.82875325,-59.83933,10.114147)">
    <circle
       class="st10"
       cx="111.0591"
       cy="42.521999"
       r="8.5216999"
       fill="url(#SVGID_7_)"
       stroke-width="0.48696"
       id="circle1167"
       style="fill:url(#radialGradient1220)" />
    <circle
       class="st11"
       cx="111.0591"
       cy="42.521999"
       r="6.8174"
       fill="#273445"
       stroke="#de3e80"
       stroke-linecap="round"
       stroke-linejoin="round"
       stroke-width="0.44484"
       id="circle1169" />
    <circle
       class="st12"
       cx="111.0591"
       cy="42.521999"
       r="5.8435001"
       fill="url(#SVGID_8_)"
       stroke="#abacae"
       stroke-linecap="round"
       stroke-linejoin="round"
       stroke-width="0.31935"
       id="circle1171"
       style="fill:url(#radialGradient1222)" />
    <path
       class="st13"
       d="m 111.0591,39.746 c -0.14609,0 -0.24348,-0.09739 -0.24348,-0.24348 v -2.2887 c 0,-0.14609 0.0974,-0.24348 0.24348,-0.24348 0.14609,0 0.24348,0.09739 0.24348,0.24348 v 2.2887 c 0,0.14609 -0.0974,0.24348 -0.24348,0.24348 z"
       fill="#d3d3d3"
       stroke="#ababad"
       stroke-width="0.12987"
       id="path1173" />
    <g
       stroke-width="0.48696"
       id="g1199"
       transform="translate(78.816104)">
      <path
         class="st14"
         d="m 44.466,40.33 c -1.0226,0 -1.8504,-0.92522 -1.6556,-1.9965 0.14609,-0.82783 0.92522,-1.4122 1.753,-1.4122 h 9.7878 c 0.82782,0 1.607,0.58435 1.753,1.4122 0.19478,1.0713 -0.63304,1.9965 -1.6556,1.9965 z"
         fill="url(#SVGID_9_)"
         id="path1175"
         style="fill:url(#linearGradient1224)" />
      <path
         class="st15"
         d="M 54.643,39.843 H 44.417 c -0.68173,0 -1.2174,-0.53565 -1.2174,-1.2174 0,-0.68175 0.53566,-1.2174 1.2174,-1.2174 h 10.226 c 0.68174,0 1.2174,0.53565 1.2174,1.2174 0,0.68175 -0.53565,1.2174 -1.2174,1.2174 z"
         fill="#101520"
         id="path1177" />
      <path
         class="st16"
         d="m 45.05,44.226 c -1.0226,0 -1.8504,-0.92522 -1.6556,-1.9965 0.14608,-0.82783 0.92521,-1.4122 1.753,-1.4122 h 9.1548 c 0.82783,0 1.607,0.58435 1.753,1.4122 0.19478,1.0713 -0.63305,1.9965 -1.6557,1.9965 z"
         fill="url(#SVGID_10_)"
         id="path1179"
         style="fill:url(#linearGradient1226)" />
      <path
         class="st15"
         d="m 54.643,43.739 h -9.7391 c -0.68174,0 -1.2174,-0.53565 -1.2174,-1.2174 0,-0.68175 0.53565,-1.2174 1.2174,-1.2174 h 9.7391 c 0.68174,0 1.2174,0.53565 1.2174,1.2174 0,0.68175 -0.53565,1.2174 -1.2174,1.2174 z"
         fill="#101520"
         id="path1181" />
      <path
         class="st17"
         d="m 44.466,48.122 c -1.0226,0 -1.8504,-0.92522 -1.6556,-1.9965 0.14609,-0.82783 0.92522,-1.4122 1.753,-1.4122 h 9.7878 c 0.82782,0 1.607,0.58435 1.753,1.4122 0.19478,1.0713 -0.63304,1.9965 -1.6556,1.9965 z"
         fill="url(#SVGID_11_)"
         id="path1183"
         style="fill:url(#linearGradient1228)" />
      <path
         class="st15"
         d="M 54.643,47.635 H 44.417 c -0.68173,0 -1.2174,-0.53565 -1.2174,-1.2174 0,-0.68174 0.53566,-1.2174 1.2174,-1.2174 h 10.226 c 0.68174,0 1.2174,0.53565 1.2174,1.2174 0,0.68174 -0.53565,1.2174 -1.2174,1.2174 z"
         fill="#101520"
         id="path1185" />
      <path
         class="st18"
         d="m 19.534,40.33 c 1.0226,0 1.8504,-0.92522 1.6556,-1.9965 -0.0974,-0.82783 -0.87652,-1.4122 -1.753,-1.4122 H 9.6975 c -0.82783,0 -1.607,0.58435 -1.753,1.4122 -0.24348,1.0713 0.58434,1.9965 1.6556,1.9965 z"
         fill="url(#SVGID_12_)"
         id="path1187"
         style="fill:url(#linearGradient1230)" />
      <path
         class="st15"
         d="m 9.3565,39.843 h 10.226 c 0.68174,0 1.2174,-0.53565 1.2174,-1.2174 0,-0.68175 -0.53566,-1.2174 -1.2174,-1.2174 H 9.3565 c -0.68174,0 -1.2174,0.53565 -1.2174,1.2174 0,0.68175 0.53565,1.2174 1.2174,1.2174 z"
         fill="#101520"
         id="path1189" />
      <path
         class="st19"
         d="m 18.95,44.226 c 1.0226,0 1.8504,-0.92522 1.6556,-1.9965 -0.14608,-0.82783 -0.92521,-1.4122 -1.753,-1.4122 H 9.6491 c -0.82782,0 -1.607,0.58435 -1.753,1.4122 -0.19478,1.0713 0.63304,1.9965 1.6556,1.9965 z"
         fill="url(#SVGID_13_)"
         id="path1191"
         style="fill:url(#linearGradient1232)" />
      <path
         class="st15"
         d="m 9.3565,43.739 h 9.7391 c 0.68174,0 1.2174,-0.53565 1.2174,-1.2174 0,-0.68175 -0.53565,-1.2174 -1.2174,-1.2174 H 9.3565 c -0.68174,0 -1.2174,0.53565 -1.2174,1.2174 0,0.68175 0.53565,1.2174 1.2174,1.2174 z"
         fill="#101520"
         id="path1193" />
      <path
         class="st20"
         d="m 19.534,48.122 c 1.0226,0 1.8504,-0.92522 1.6556,-1.9965 -0.14609,-0.82783 -0.92522,-1.4122 -1.753,-1.4122 H 9.6975 c -0.82783,0 -1.607,0.58435 -1.753,1.4122 -0.19479,1.0713 0.63304,1.9965 1.6556,1.9965 z"
         fill="url(#SVGID_14_)"
         id="path1195"
         style="fill:url(#linearGradient1234)" />
      <path
         class="st15"
         d="m 9.3565,47.635 h 10.226 c 0.68174,0 1.2174,-0.53565 1.2174,-1.2174 0,-0.68174 -0.53566,-1.2174 -1.2174,-1.2174 H 9.3565 c -0.68174,0 -1.2174,0.53565 -1.2174,1.2174 0,0.68174 0.53565,1.2174 1.2174,1.2174 z"
         fill="#101520"
         id="path1197" />
    </g>
  </g>
</svg>
