<?xml version="1.0" encoding="UTF-8"?>
<svg id="Apps-Visual-Studio-Code" width="64" height="64" enable-background="new 0 0 1024 1024" image-rendering="optimizeSpeed" version="1.1" viewBox="0 0 64 64" xmlns="http://www.w3.org/2000/svg" xmlns:xlink="http://www.w3.org/1999/xlink">
 <defs>
  <linearGradient id="c-3" x1="32" x2="32" y1="11" y2="53" gradientUnits="userSpaceOnUse">
   <stop stop-color="#f7bd39" offset="0"/>
   <stop stop-color="#f9e657" offset="1"/>
  </linearGradient>
  <filter id="f" x="-.06" y="-.06" width="1.12" height="1.12" color-interpolation-filters="sRGB">
   <feGaussianBlur stdDeviation="0.18520833"/>
  </filter>
  <linearGradient id="b-5" x1="8.4666" x2="8.4666" y1="284.83" y2="292.24" gradientUnits="userSpaceOnUse">
   <stop stop-color="#e0e0e0" offset="0"/>
   <stop stop-color="#fff" offset="1"/>
  </linearGradient>
  <linearGradient id="linearGradient964" x1="30" x2="30" y1="10" y2="70" gradientTransform="matrix(1.0792 0 0 1.0792 -2.5055 -2.5197)" gradientUnits="userSpaceOnUse">
   <stop offset="0"/>
   <stop stop-opacity=".35" offset="1"/>
  </linearGradient>
  <linearGradient id="linearGradient983" x1="122.64" x2="122.64" y1="80.75" y2="21.147" gradientTransform="translate(-90.522 -19.261)" gradientUnits="userSpaceOnUse">
   <stop stop-color="#414343" offset="0"/>
   <stop stop-color="#a5b3b6" offset="1"/>
  </linearGradient>
 </defs>
 <circle cx="32" cy="32" r="30" fill="url(#linearGradient983)" fill-rule="evenodd" stroke-linejoin="round" stroke-width="1.9114"/>
 <path d="m33.109 2.0273v9.668l3.2383-3.2363v-6.1406a30 30 0 0 0-3.2383-0.29102zm-2.1582 0.046875a30 30 0 0 0-3.2383 0.23438v14.783l3.4238-3.4219h-0.18555v-11.596zm7.5547 0.64844v6.6289l-10.885 10.885 1.1719 1.1719 12.951-12.949v-4.8262a30 30 0 0 0-3.2383-0.91016zm-12.951 0.054688a30 30 0 0 0-3.2383 0.89648v11.26l3.7773 3.7773 0.72656-0.72461h-1.2656v-15.209zm18.348 1.6934v4.8809l-14.502 14.502-0.60742-0.60938-0.60938 0.60938-2.0898-2.0898-2.0879 2.0898-0.60938-0.60938-0.60938 0.60938-12.479-12.479a30 30 0 0 0-1.4766 1.6406 1.6189 1.6189 0 0 1 0.5332 1.1934 1.6189 1.6189 0 0 1-0.029297 0.30859l9.3613 9.3613h30.768l7.4785-8.5469a30 30 0 0 0 0-0.001953 30 30 0 0 0-2.4043-3.1172l-6.2383 7.0195h-3.4863l7.9141-8.9062a30 30 0 0 0-3.4316-2.8262v1.8516l-14.5 14.5-1.5254-1.5254 13.867-13.867v-2.3535a30 30 0 0 0-3.2363-1.6348zm-23.744 0.0078125a30 30 0 0 0-4.3164 2.25v1.7305l4.3164 4.3164v-8.2969zm-6.4746 3.8535a30 30 0 0 0-1.8496 1.5156l11.562 11.561 1.1719-1.1719-2.252-2.25h-2.1582v-2.1582l-6.4746-6.4766v-1.0195zm-6.7695 7.2461a30 30 0 0 0-3.2227 6.6953l1.6055 1.6055h10.348l-8.0605-8.0605a1.6189 1.6189 0 0 1-0.66992-0.24023zm6.5195 22.248v0.001953l-8.5918 6.873a30 30 0 0 0 1.5566 2.8516l2.3848-1.5898v2.3242l-1.3145 0.87695a30 30 0 0 0 5.9648 6.3164v-6.0293l6.9727-5.8125h3.4863l-6.9727 5.8125v8.4082a30 30 0 0 0 4.3164 2.0625v-3.2227l14.502-14.502 0.60938 0.60938 0.60938-0.60938 2.0879 2.0898 2.0898-2.0898 0.60938 0.60938 0.60742-0.60938 10.885 10.885a30 30 0 0 0 1.1719-1.1719l-8.1855-8.1855 1.5254-1.5273 8.0039 8.0059a30 30 0 0 0 2.8047-4.3965l-4.4453-5.6562h-2.3223l-2.3242-2.3242h-13.982l0.25586 0.25391-13.451 13.451a1.6189 1.6189 0 0 1 0.029297 0.31055 1.6189 1.6189 0 0 1-1.6191 1.6191 1.6189 1.6189 0 0 1-1.6191-1.6191 1.6189 1.6189 0 0 1 1.457-1.6113l12.404-12.404h-19.506zm22.914 6.8164-12.951 12.951v3.1348a30 30 0 0 0 3.2363 0.72852v-4.7578l6.4766-6.4746v-2.1602h2.1582l2.252-2.25-1.1719-1.1719zm5.3945 0-1.1719 1.1719 9.8086 9.8066a30 30 0 0 0 1.3301-1.0117l-9.9668-9.9668zm-2.6973 2.6973-3.7773 3.7773v10.65a30 30 0 0 0 3.2383-0.55859v-13.145h1.2637l-0.72461-0.72461zm1.6191 1.6191v11.746a30 30 0 0 0 3.2383-1.207v-7.1172h0.18359l-3.4219-3.4219zm-7.5547 4.3164-4.3164 4.3184v4.1777a30 30 0 0 0 3.207 0.22852 30 30 0 0 0 1.1094-0.080078v-8.6445zm12.951 1.0801v4.0605a30 30 0 0 0 2.5723-1.4883l-2.5723-2.5723z" fill="url(#linearGradient964)" opacity=".3"/>
 <g transform="translate(77.867 .047883)">
  <g transform="matrix(3.7796 0 0 3.7796 -77.867 -1058.6)">
   <g transform="translate(0 -.0088674)">
    <path transform="matrix(.26458 0 0 .26458 0 280.07)" d="m19 15.033v3.9666h-4.0001v2h4.0001v2h-4.0001v2h4.0001v2h-4.0001v2h4.0001v2h-4.0001v2h4.0001v2h-4.0001v2h4.0001v2h-4.0001v2h4.0001v2h-4.0001v2h4.0001v4.0331h2v-4.0331h2v4.0331h2v-4.0331h2v4.0331h2v-4.0331h2v4.0331h2v-4.0331h2v4.0331h2v-4.0331h2v4.0331h2v-4.0331h2v4.0331h2v-4.0331h3.9997v-2h-3.9997v-2h3.9997v-2h-3.9997v-2h3.9997v-2h-3.9997v-2h3.9997v-2h-3.9997v-2h3.9997v-2h-3.9997v-2h3.9997v-2h-3.9997v-2h3.9997v-2h-3.9997v-3.9666h-2v3.9666h-2v-3.9666h-2v3.9666h-2v-3.9666h-2v3.9666h-2v-3.9666h-2v3.9666h-2v-3.9666h-2v3.9666h-2v-3.9666h-2v3.9666h-2v-3.9666zm2 5.9666h2v2h-2zm4 0h2v2h-2zm4 0h2v2h-2zm4 0h2v2h-2zm4 0h2v2h-2zm4 0h2v2h-2zm-20 4h2v2h-2zm4 0h2v2h-2zm4 0h2v2h-2zm4 0h2v2h-2zm4 0h2v2h-2zm4 0h2v2h-2zm-20 4h2v2h-2zm4 0h2v2h-2zm4 0h2v2h-2zm4 0h2v2h-2zm4 0h2v2h-2zm4 0h2v2h-2zm-20 4h2v2h-2zm4 0h2v2h-2zm4 0h2v2h-2zm4 0h2v2h-2zm4 0h2v2h-2zm4 0h2v2h-2zm-20 4h2v2h-2zm4 0h2v2h-2zm4 0h2v2h-2zm4 0h2v2h-2zm4 0h2v2h-2zm4 0h2v2h-2zm-20 4h2v2h-2zm4 0h2v2h-2zm4 0h2v2h-2zm4 0h2v2h-2zm4 0h2v2h-2zm4 0h2v2h-2z" fill="url(#c-3)" stroke-width="3.0996"/>
    <rect x="4.7625" y="284.83" width="7.4083" height="7.4083" rx=".52917" ry=".52915" fill-rule="evenodd" filter="url(#f)" opacity=".5"/>
    <rect x="4.7625" y="284.83" width="7.4083" height="7.4083" rx=".52917" ry=".52915" fill="url(#b-5)" fill-rule="evenodd"/>
   </g>
   <g fill-rule="evenodd">
    <circle cx="5.424" cy="285.49" r=".13229" opacity=".35" style="paint-order:stroke fill markers"/>
    <circle cx="11.509" cy="285.49" r=".13229" opacity=".35" style="paint-order:stroke fill markers"/>
    <circle cx="5.424" cy="291.58" r=".13229" opacity=".35" style="paint-order:stroke fill markers"/>
    <circle cx="11.509" cy="291.58" r=".13229" opacity=".35" style="paint-order:stroke fill markers"/>
   </g>
  </g>
  <path d="m-52.397 36q-1.0057 0-1.7129-0.5912-0.70716-0.5912-1.0219-1.4696-0.31503-0.87843-0.31503-1.9392 0-1.0055 0.32608-1.8949 0.3258-0.88949 1.0386-1.4971 0.71256-0.60793 1.6851-0.60793 0.89488 0 1.4418 0.41993 0.54697 0.41993 0.94478 1.1382l-1.1603 0.66293q-0.51946-0.97228-1.2263-0.97228-0.5858 0-0.97796 0.44744-0.39242 0.44744-0.54696 1.0386-0.15482 0.5912-0.15482 1.2652 0 1.1382 0.43098 1.9446 0.431 0.80669 1.2487 0.80669 0.59659 0 0.91132-0.39782 0.31503-0.39782 0.31503-1.0386v-0.16559h-1.348v-1.2377h2.696v1.0718q0 1.4254-0.71822 2.221-0.71822 0.79563-1.8561 0.79563zm5.4362-0.13271h-1.3148v-7.7346h2.7291q1.3369 0 1.9613 0.69611 0.62436 0.69611 0.62436 1.7016 0 0.95017-0.65187 1.6741-0.65217 0.72361-1.9338 0.72361h-1.4143zm0-6.4972v2.3205h1.4807q0.59657 0 0.88949-0.34252 0.2929-0.34252 0.2929-0.81775 0-0.45311-0.28184-0.80669t-0.90054-0.35358zm8.055 6.6299q-1.1489 0-1.8782-0.73496-0.72928-0.73467-0.72928-2.3481v-4.7843h1.3037v4.7843q0 1.0057 0.34253 1.42 0.34252 0.41426 0.96122 0.41426 1.304 0 1.304-1.8343v-4.7843h1.3148v4.7843q0 1.5913-0.72929 2.337-0.72928 0.74601-1.8896 0.74601z" fill-rule="evenodd" opacity=".25" stroke-width="1.5064" style="isolation:isolate"/>
 </g>
</svg>
