<?xml version="1.0" encoding="UTF-8" standalone="no"?>
<svg
   xmlns:dc="http://purl.org/dc/elements/1.1/"
   xmlns:cc="http://creativecommons.org/ns#"
   xmlns:rdf="http://www.w3.org/1999/02/22-rdf-syntax-ns#"
   xmlns:svg="http://www.w3.org/2000/svg"
   xmlns="http://www.w3.org/2000/svg"
   xmlns:xlink="http://www.w3.org/1999/xlink"
   xmlns:sodipodi="http://sodipodi.sourceforge.net/DTD/sodipodi-0.dtd"
   xmlns:inkscape="http://www.inkscape.org/namespaces/inkscape"
   width="64"
   height="64"
   version="1.1"
   viewBox="0 0 16.933 16.933"
   id="svg45"
   sodipodi:docname="datagrip.svg"
   inkscape:version="1.0 (4035a4fb49, 2020-05-01)">
  <metadata
     id="metadata49">
    <rdf:RDF>
      <cc:Work
         rdf:about="">
        <dc:format>image/svg+xml</dc:format>
        <dc:type
           rdf:resource="http://purl.org/dc/dcmitype/StillImage" />
        <dc:title></dc:title>
      </cc:Work>
    </rdf:RDF>
  </metadata>
  <sodipodi:namedview
     inkscape:document-rotation="0"
     pagecolor="#ffffff"
     bordercolor="#666666"
     borderopacity="1"
     objecttolerance="10"
     gridtolerance="10"
     guidetolerance="10"
     inkscape:pageopacity="0"
     inkscape:pageshadow="2"
     inkscape:window-width="1920"
     inkscape:window-height="985"
     id="namedview47"
     showgrid="false"
     inkscape:zoom="4.5078057"
     inkscape:cx="15.442281"
     inkscape:cy="26.047251"
     inkscape:window-x="0"
     inkscape:window-y="0"
     inkscape:window-maximized="1"
     inkscape:current-layer="svg45" />
  <defs
     id="defs15">
    <linearGradient
       id="linearGradient858"
       inkscape:collect="always">
      <stop
         id="stop854"
         offset="0"
         style="stop-color:#3fdb7a;stop-opacity:1" />
      <stop
         id="stop856"
         offset="1"
         style="stop-color:#a2df53;stop-opacity:1" />
    </linearGradient>
    <filter
       id="h"
       x="-.06"
       y="-.06"
       width="1.12"
       height="1.12"
       color-interpolation-filters="sRGB">
      <feGaussianBlur
         stdDeviation="0.85"
         id="feGaussianBlur2" />
    </filter>
    <linearGradient
       id="g"
       x1="32"
       x2="32"
       y1="15"
       y2="49"
       gradientTransform="matrix(0.26458,0,0,0.26458,-22.458237,0)"
       gradientUnits="userSpaceOnUse">
      <stop
         stop-color="#303030"
         offset="0"
         id="stop5" />
      <stop
         stop-color="#424242"
         offset="1"
         id="stop7" />
    </linearGradient>
    <linearGradient
       id="linearGradient862-3"
       x1="7.9373"
       x2="7.9373"
       y1="15.081"
       y2="1.852"
       gradientTransform="matrix(0.99996,0,0,0.99996,-22.458199,0.0083453)"
       gradientUnits="userSpaceOnUse">
      <stop
         stop-color="#33db7f"
         offset="0"
         id="stop10" />
      <stop
         stop-color="#addf4f"
         offset="1"
         id="stop12" />
    </linearGradient>
    <linearGradient
       inkscape:collect="always"
       xlink:href="#g"
       id="linearGradient908"
       gradientUnits="userSpaceOnUse"
       gradientTransform="matrix(0.26458,0,0,0.26458,-22.458237,0)"
       x1="32"
       y1="15"
       x2="32"
       y2="49" />
    <linearGradient
       gradientTransform="translate(-20.847911)"
       gradientUnits="userSpaceOnUse"
       y2="0.64632523"
       x2="37.161617"
       y1="16.149681"
       x1="21.689413"
       id="linearGradient860"
       xlink:href="#linearGradient858"
       inkscape:collect="always" />
  </defs>
  <circle
     r="7.9373436"
     cy="8.4665003"
     cx="8.4665003"
     id="path852"
     style="fill:url(#linearGradient860);fill-opacity:1;stroke-width:0.760453;stroke-linecap:round" />
  <g
     id="g906"
     transform="translate(22.45828,-5.279314e-5)">
    <rect
       transform="matrix(0.26458,0,0,0.26458,-22.500673,-0.04234)"
       x="15.16"
       y="15.16"
       width="34"
       height="34"
       ry="5"
       fill="#303030"
       fill-rule="evenodd"
       filter="url(#h)"
       opacity="0.5"
       style="paint-order:stroke fill markers"
       id="rect888" />
    <rect
       x="-18.489536"
       y="3.9686999"
       width="8.9956999"
       height="8.9956999"
       ry="1.3229001"
       fill="url(#g)"
       fill-rule="evenodd"
       stroke-width="0.26458"
       style="fill:url(#linearGradient908);paint-order:stroke fill markers"
       id="rect890" />
    <g
       transform="translate(-45.441237)"
       fill="#f9f9f9"
       stroke-width="0.26457"
       id="g898">
      <path
         d="m 28.321,5.3604 h 1.3434 c 0.80349,0 1.4516,0.62645 1.4516,1.7005 v 0.015529 c 0,1.0845 -0.7792,1.6876 -1.3806,1.6948 l -0.48297,0.00563 h -0.93176 z m 1.2423,2.7953 c 0.37385,0 0.93176,-0.30535 0.93176,-1.0793 V 7.06087 c 0,-0.76342 -0.55781,-1.0793 -0.93176,-1.0793 h -0.62118 v 2.1741 z"
         id="path892" />
      <path
         d="m 33.135,5.3604 c -0.49293,0 -0.93164,0.16246 -1.2387,0.46951 -0.30718,0.30686 -0.46961,0.74572 -0.46961,1.2386 0,0.49293 0.16246,0.93164 0.46951,1.2387 0.30686,0.30717 0.74572,0.46961 1.2386,0.46961 0.45107,0 0.7893,-0.14115 1.0082,-0.28876 0.21892,-0.14759 0.33788,-0.32211 0.33788,-0.32211 l 0.05156,-0.077653 v -1.175 h -1.553 v 0.62118 h 0.93176 v 0.33547 c -0.01928,0.023807 -0.02509,0.042331 -0.11526,0.10313 -0.13044,0.087902 -0.33575,0.18262 -0.66125,0.18262 -0.36121,0 -0.62118,-0.10933 -0.79945,-0.28761 -0.17828,-0.17828 -0.28761,-0.43824 -0.28761,-0.79946 0,-0.36121 0.10933,-0.62118 0.28761,-0.79945 0.17828,-0.17828 0.43824,-0.28761 0.79945,-0.28761 0.36119,0 0.62133,0.10931 0.79952,0.28754 l 0.4392,-0.4392 c -0.30686,-0.30717 -0.74572,-0.46961 -1.2386,-0.46961 z"
         id="path894" />
      <path
         d="m 28.01,10.951 h 3.1059 v 0.62118 H 28.01 Z"
         id="path896" />
    </g>
  </g>
</svg>
