<?xml version="1.0" encoding="UTF-8"?>
<svg width="64" height="64" version="1.1" viewBox="0 0 16.933 16.933" xmlns="http://www.w3.org/2000/svg" xmlns:cc="http://creativecommons.org/ns#" xmlns:dc="http://purl.org/dc/elements/1.1/" xmlns:rdf="http://www.w3.org/1999/02/22-rdf-syntax-ns#">
 <defs>
  <linearGradient id="a-3" x1="99.036" x2="99.036" y1="-.50472" y2="199.84" gradientTransform="matrix(.079375 0 0 .079375 19.925 2.0851)" gradientUnits="userSpaceOnUse">
   <stop stop-color="#4bd2f5" offset="0"/>
   <stop stop-color="#5587ff" offset="1"/>
  </linearGradient>
 </defs>
 <metadata>
  <rdf:RDF>
   <cc:Work rdf:about="">
    <dc:format>image/svg+xml</dc:format>
    <dc:type rdf:resource="http://purl.org/dc/dcmitype/StillImage"/>
    <dc:title/>
   </cc:Work>
  </rdf:RDF>
 </metadata>
 <g transform="translate(-19.396 -1.5559)">
  <circle cx="27.863" cy="10.023" r="7.9375" color="#000000" fill="url(#a-3)" stroke-width=".26458"/>
  <path d="m29.801 13.107c0.64399-0.20217 1.1996-0.51569 1.6315-1.074-2.3638 1.366-4.7023 1.3242-7.0616 0.0095 0.1925 0.27466 0.42431 0.48333 0.69487 0.63996 0.26976 0.15618 0.55609 0.28378 0.84482 0.42882-0.1245 0.15546-0.27226 0.31803-0.39396 0.49814-0.11583 0.17156-0.2472 0.23168-0.45891 0.20706-0.79774-0.09271-1.5149-0.3582-2.1095-0.9135-0.01724-0.01614-0.03344-0.03338-0.05093-0.04913-0.24278-0.21864-0.34414-0.46268-0.32324-0.81571 0.09878-1.6709 0.51571-3.2522 1.2456-4.754 0.03578-0.073615 0.09689-0.14447 0.16375-0.19192 0.5831-0.41389 1.2225-0.69979 1.93-0.82338 0.13503-0.023604 0.27203-0.04128 0.40876-0.047347 0.05558-0.00245 0.11289 0.033306 0.16817 0.073311-0.84055 0.28099-1.6394 0.61952-2.3418 1.1851 2.4139-1.1499 4.814-1.2068 7.2205-0.029148-0.64333-0.5199-1.3871-0.84205-2.1651-1.0966 0.05808-0.1195 0.13916-0.14249 0.26342-0.13092 0.84197 0.078244 1.5938 0.38774 2.2802 0.86919 0.06441 0.045175 0.12454 0.11157 0.15921 0.18168 0.53254 1.0781 0.89153 2.2125 1.095 3.3976 0.0945 0.55074 0.14318 1.1053 0.15283 1.6631 0.0011 0.07841-0.03197 0.17185-0.08025 0.2345-0.44844 0.58185-1.0462 0.94124-1.7501 1.1209-0.27188 0.06941-0.55541 0.09413-0.83455 0.13252-0.04324 6e-3 -0.10867-0.0095-0.13458-0.03996-0.18593-0.21792-0.36425-0.44224-0.55408-0.67572zm-3.7287-1.4901c0.30859-7.49e-4 0.49154-0.0661 0.65212-0.1995 0.26247-0.21817 0.36039-0.50561 0.38061-0.83927 0.02256-0.37315-0.1223-0.65067-0.43232-0.84002-0.31984-0.19531-0.65403-0.21146-0.97775-0.00834-0.5196 0.32606-0.61718 1.1017-0.20375 1.5691 0.1809 0.20449 0.40562 0.31586 0.58112 0.31802zm3.406 0.0144c0.10608-0.02433 0.21712-0.0359 0.31744-0.0751 0.6191-0.24154 0.81626-1.0729 0.38816-1.6207-0.33358-0.42692-0.95511-0.46538-1.3351-0.07871-0.2514 0.25574-0.32982 0.5686-0.28696 0.91874 0.05676 0.46405 0.46295 0.83935 0.91657 0.85584z" fill="#fff" stroke-width=".047108"/>
 </g>
</svg>
