<?xml version="1.0" encoding="UTF-8"?>
<svg width="64" height="64" version="1.1" viewBox="0 0 16.933 16.933" xmlns="http://www.w3.org/2000/svg" xmlns:cc="http://creativecommons.org/ns#" xmlns:dc="http://purl.org/dc/elements/1.1/" xmlns:rdf="http://www.w3.org/1999/02/22-rdf-syntax-ns#">
 <defs>
  <linearGradient id="b" x1="197.72" x2="2.1257" y1="1.9527" y2="197.34" gradientTransform="matrix(.079373 0 0 .079373 -3.7231 17.917)" gradientUnits="userSpaceOnUse">
   <stop stop-color="#505050" offset="0"/>
   <stop stop-color="#323232" offset="1"/>
  </linearGradient>
  <filter id="filter1012" x="-.10384" y="-.11251" width="1.2077" height="1.225" color-interpolation-filters="sRGB">
   <feGaussianBlur stdDeviation="1.5000926"/>
  </filter>
  <linearGradient id="linearGradient884" x1="21.016" x2="44.623" y1="26.164" y2="37.223" gradientTransform="matrix(.26458 0 0 .26458 -4.2523 17.388)" gradientUnits="userSpaceOnUse">
   <stop stop-color="#d1d1d1" offset="0"/>
   <stop stop-color="#fff" offset=".4419"/>
   <stop stop-color="#d1d1d1" offset="1"/>
  </linearGradient>
 </defs>
 <metadata>
  <rdf:RDF>
   <cc:Work rdf:about="">
    <dc:format>image/svg+xml</dc:format>
    <dc:type rdf:resource="http://purl.org/dc/dcmitype/StillImage"/>
    <dc:title/>
   </cc:Work>
  </rdf:RDF>
 </metadata>
 <g transform="translate(4.2523 -17.388)">
  <circle cx="4.2142" cy="25.855" r="7.9373" color="#000000" fill="url(#b)" stroke-width=".26458"/>
  <path transform="matrix(.26458 0 0 .26458 -4.2523 17.388)" d="m36.097 17.243c-3.3072 0.42673-6.8611 2.0363-9.7522 6.7984-6.6104 10.882-6.141 14.669-7.1945 15.893-1.0575 1.2189-3.9073 1.8803-3.4952 3.2658 0.41206 1.3802 0.82813 1.2029 0.82813 1.2029s4.162 6.0276 16.232 4.4647c12.069-1.5629 13.742-4.11 13.633-5.3742-0.10935-1.2655-2.6564-2.1883-2.6564-2.1883s-1.8856-6.6464-1.4016-9.3748c0.48408-2.7298 2.323-6.7077 4.1406-7.5639 1.8123-0.86413 2.7191 2.8911 3.6566 1.9643 0.93214-0.92681-1.5736-8.0813-4.3447-8.1373-1.5522-0.03067-5.4128-1.4949-9.6468-0.94281m0.01066 9.1321 0.92148 2.7244 2.7978 0.79212-2.3644 1.6829 0.10402 2.8604-2.3644-1.6829-2.7871 0.97349 0.89614-2.6938-1.7976-2.2604 2.9378-0.02667m-7.7879 5.6369 0.09868 1.9736 1.7656 1.0575-1.907 0.68811-0.47874 1.9536-1.2975-1.5216-2.031 0.13069 1.0882-1.6456-0.77612-1.8496 1.9696 0.51075m9.4441-0.88547 1.891 2.5311 3.1938-0.12535-1.855 2.5631 1.0882 2.9178-3.0631-0.94815-2.5164 1.943-0.02134-3.1458-2.6511-1.7296 3.0365-0.99482" filter="url(#filter1012)" opacity=".35"/>
  <path d="m5.0468 21.652c-0.87501 0.1129-1.8153 0.53876-2.5802 1.7987-1.749 2.8791-1.6248 3.8811-1.9035 4.2049-0.27979 0.32249-1.0338 0.49749-0.92475 0.86406 0.10902 0.36517 0.21911 0.31826 0.21911 0.31826s1.1012 1.5948 4.2946 1.1813c3.1932-0.41351 3.6358-1.0874 3.607-1.4219-0.028932-0.33482-0.70283-0.57898-0.70283-0.57898s-0.49889-1.7585-0.37083-2.4804c0.12808-0.72224 0.61462-1.7747 1.0955-2.0012 0.47949-0.22863 0.71941 0.76492 0.96746 0.51971 0.24662-0.24521-0.41634-2.1381-1.1495-2.153-0.41068-0.008115-1.4321-0.39552-2.5523-0.24945m0.00282 2.4162 0.2438 0.72082 0.74024 0.20958-0.62557 0.44526 0.027521 0.7568-0.62557-0.44526-0.73741 0.25756 0.2371-0.71272-0.47561-0.59805 0.77728-0.0071m-2.0605 1.4914 0.026109 0.52217 0.46714 0.27979-0.50455 0.18206-0.12666 0.51688-0.34329-0.40258-0.53736 0.03458 0.28791-0.43539-0.20534-0.48936 0.52111 0.13513m2.4987-0.23428 0.50032 0.66967 0.84501-0.03317-0.49079 0.67814 0.28791 0.77199-0.81043-0.25086-0.66578 0.51408-0.00565-0.83231-0.70142-0.45761 0.80339-0.26321" fill="url(#linearGradient884)" stroke-width=".26458"/>
 </g>
</svg>
