<?xml version="1.0" encoding="UTF-8"?>
<svg width="64" height="64" version="1.1" viewBox="0 0 16.933 16.933" xmlns="http://www.w3.org/2000/svg" xmlns:cc="http://creativecommons.org/ns#" xmlns:dc="http://purl.org/dc/elements/1.1/" xmlns:rdf="http://www.w3.org/1999/02/22-rdf-syntax-ns#">
 <metadata>
  <rdf:RDF>
   <cc:Work rdf:about="">
    <dc:format>image/svg+xml</dc:format>
    <dc:type rdf:resource="http://purl.org/dc/dcmitype/StillImage"/>
    <dc:title/>
   </cc:Work>
  </rdf:RDF>
 </metadata>
 <g transform="translate(-.30358 -16.477)">
  <circle cx="8.7701" cy="24.943" r="7.9373" color="#000000" fill="#333644" stroke-width=".26458"/>
  <path d="m9.4086 20.978-1.3627 0.01918-0.27704 0.20718 0.023079 0.02321-0.90047 0.02052 0.068719-0.09272-2.0536-0.05261-0.023553 0.13947-0.023749 0.20792 0.13748 0.25502-0.069999 0.53184-0.11775 0.46326 0.068491 0.43933 0.022135 0.3476 0.13687 0.46268-0.0473 0.23232 0.022407 0.25468 0.16083 0.18531 0.045747 0.30104-0.29992 0.11552 0.042607 0.925 0.18444 0.14008-0.11743 0.80946-0.093053 0.04635-0.072964 1.55 0.081373-0.01001 0.1963 0.04058s0.23619 0.08336 0.28508 0.10036c0.048894 0.01568 0.12157-0.07471 0.12157-0.07471l0.19642 5.56e-4 0.1641-0.03193 0.089159 0.04159 0.082693-0.0087 0.20407-0.01495 0.097005-0.04105 0.041047 0.09833 0.032478-0.02438 0.090392-0.04107 0.1872-0.015 0.039845 0.05699s0.22842 0.02514 0.31009 0.02537c0.082667 2.41e-4 0.065994-0.06561 0.065994-0.06561s0.024489-0.0065 0.064382 0.03392c0.041213 0.04145 0.098257-0.01658 0.098257-0.01658l0.081465-0.0411 0.058027 0.05837 0.056754 0.0415 0.15518-0.03328 0.25329 7.14e-4 0.056924-0.0167 0.23677 0.33665 0.016041-0.17058 0.38357 0.0011c0.032405 9.5e-5 0.016533 0.1138 0.016533 0.1138l0.2522-0.08061 0.13023 0.13099 0.27032-0.17116 0.14722-0.02404 0.28541-0.01471 0.40804 0.0012 0.46482 0.03376 0.12282-0.04858 0.08952-0.08241 0.24495 0.14026 0.17977-0.07322s0.1962 0.07431 0.22825 0.08333c0.03238 0.0077 0.33473-0.03275 0.33473-0.03275l0.1873-0.04839-0.1211-0.08963 0.08144-0.03349 0.34219 0.01654 0.45697 0.11872 0.0011-2.9892 5.56e-4 -0.18848-0.11512 0.01653-0.14722 0.02404 2.58e-4 -0.08928 0.08289-0.07482 0.06477-0.09802 0.01788-0.35145-0.02373-0.25568-0.10491-0.31047-0.09782-0.13189-0.01651-0.12273 0.0247-0.08127 9e-3 -0.02444 0.10593-0.04102 0.01566-0.04129-0.08094-0.13846 0.07386-0.04244 0.1166-0.06943 0.04651-0.41585 0.02395-0.27769 0.0028-0.97249-0.06764-0.27796 0.04618-0.30077 0.02348-0.115-0.20772-0.09352-0.7836-0.14182-0.11687 0.16235-0.04476-0.1863-1.5008-0.0262-0.04737 0.25448-0.36949 0.04555-0.044831-0.1615-0.32391-0.04889m-2.8207 1.1607 5.36 3.6662-0.42934 1.5215-1.0129 0.02945-4.669-5.0199m5.01-0.11701 0.58801 0.31287-0.16735 1.1453-0.11517 0.03339-1.5632-1.1993m-3.1577 2.9867 1.5944 1.6091-0.96456 0.33943-0.50483-0.03387-0.61979-0.52625" fill="#d63d20"/>
 </g>
</svg>
