<?xml version="1.0" encoding="UTF-8"?>
<svg width="64" height="64" version="1.1" viewBox="0 0 16.933 16.933" xmlns="http://www.w3.org/2000/svg" xmlns:cc="http://creativecommons.org/ns#" xmlns:dc="http://purl.org/dc/elements/1.1/" xmlns:rdf="http://www.w3.org/1999/02/22-rdf-syntax-ns#">
 <defs>
  <linearGradient id="linearGradient1005-3-3-7" x1="5.2535" x2="9.3824" y1="15.383" y2="2.9421" gradientTransform="matrix(.99997 0 0 .99997 11.27 -2.0571)" gradientUnits="userSpaceOnUse">
   <stop stop-color="#fa8200" offset="0"/>
   <stop stop-color="#ff9600" offset=".36953"/>
   <stop stop-color="#ffb400" offset="1"/>
  </linearGradient>
  <filter id="filter3977" x="-.055846" y="-.0605" width="1.1117" height="1.121" color-interpolation-filters="sRGB">
   <feGaussianBlur stdDeviation="0.84699915"/>
  </filter>
 </defs>
 <metadata>
  <rdf:RDF>
   <cc:Work rdf:about="">
    <dc:format>image/svg+xml</dc:format>
    <dc:type rdf:resource="http://purl.org/dc/dcmitype/StillImage"/>
    <dc:title/>
   </cc:Work>
  </rdf:RDF>
 </metadata>
 <g transform="translate(-11.305 2.0638)">
  <path d="m27.709 6.4027c0 0.95153-0.16749 1.8638-0.47463 2.7093-0.2135 0.58768-0.49439 1.1433-0.83392 1.6572-0.14222 0.21608-0.29514 0.42475-0.45746 0.62528-0.51963 0.64179-1.1372 1.2007-1.8304 1.6542-0.25529 0.16717-0.52064 0.32009-0.79535 0.45711-1.0668 0.53389-2.2711 0.83419-3.5456 0.83419-1.2746 0-2.4788-0.30032-3.5456-0.83422-0.27474-0.13705-0.5404-0.28995-0.79569-0.45711-0.70206-0.45973-1.327-1.0274-1.8508-1.6798-0.16262-0.20216-0.31522-0.41274-0.45746-0.63076-0.33046-0.5054-0.60419-1.0507-0.81347-1.627-0.3071-0.84527-0.47428-1.7572-0.47428-2.7085 0-4.3838 3.5535-7.9373 7.9373-7.9373 2.2005 0 4.1917 0.89546 5.6294 2.3416 0.41436 0.4166 0.78273 0.87927 1.0963 1.3795 0.29643 0.47105 0.54426 0.97579 0.73704 1.5068 0.30718 0.84557 0.47465 1.7579 0.47465 2.7093z" fill="url(#linearGradient1005-3-3-7)" stroke-width=".031006"/>
  <path transform="matrix(.26458 0 0 .26458 11.305 -2.0638)" d="m27.8 15.2c-1.5512 0-2.8 1.2488-2.8 2.8v7c0 1.1906 0.7394 2.1967 1.7828 2.6032l-5.0285 8.5968h-5.1542c-1.5512 0-2.8 1.2488-2.8 2.8v7c0 1.5512 1.2488 2.8 2.8 2.8h8.4c1.5512 0 2.8-1.2488 2.8-2.8v-7c0-1.5512-1.2488-2.8-2.8-2.8h-0.20782l4.9109-8.4h4.5937l4.9301 8.4h-0.22695c-1.5512 0-2.8 1.2488-2.8 2.8v7c0 1.5512 1.2488 2.8 2.8 2.8h8.4c1.5512 0 2.8-1.2488 2.8-2.8v-7c0-1.5512-1.2488-2.8-2.8-2.8h-5.1981l-5.0231-8.5833c1.0634-0.39645 1.8211-1.4119 1.8211-2.6167v-7c0-1.5512-1.2488-2.8-2.8-2.8z" fill="#f04b00" filter="url(#filter3977)" stroke-width="0"/>
  <path d="m18.661 1.9578c-0.41041 0-0.74082 0.33041-0.74082 0.74082v1.852c0 0.31501 0.19563 0.5812 0.47169 0.68875l-1.3304 2.2745h-1.3637c-0.41041 0-0.74082 0.33041-0.74082 0.74082v1.852c0 0.41041 0.3304 0.74082 0.74082 0.74082h2.2225c0.41041 0 0.74082-0.3304 0.74082-0.74082v-1.852c0-0.41041-0.33041-0.74082-0.74082-0.74082h-0.05499l1.2993-2.2225h1.2161l1.3037 2.2225h-0.06005c-0.41041 0-0.74082 0.33041-0.74082 0.74082v1.852c0 0.41041 0.3304 0.74082 0.74082 0.74082h2.2225c0.41041 0 0.74082-0.3304 0.74082-0.74082v-1.852c0-0.41041-0.3304-0.74082-0.74082-0.74082h-1.3753l-1.329-2.271c0.28135-0.10489 0.48182-0.37356 0.48182-0.69232v-1.852c0-0.41041-0.33041-0.74082-0.74082-0.74082z" fill="#f9f9f9" stroke-width=".05704"/>
 </g>
</svg>
