<?xml version="1.0" encoding="UTF-8"?>
<svg width="64" height="64" version="1.1" viewBox="0 0 16.933 16.933" xmlns="http://www.w3.org/2000/svg" xmlns:cc="http://creativecommons.org/ns#" xmlns:dc="http://purl.org/dc/elements/1.1/" xmlns:rdf="http://www.w3.org/1999/02/22-rdf-syntax-ns#" xmlns:xlink="http://www.w3.org/1999/xlink">
 <defs>
  <linearGradient id="b-5" x1="9.2603" x2="9.2603" y1="-.26249" y2="15.612" gradientTransform="translate(1.2901 9.3991)" gradientUnits="userSpaceOnUse">
   <stop stop-color="#1c1d1d" offset="0"/>
   <stop stop-color="#313232" offset="1"/>
  </linearGradient>
  <linearGradient id="linearGradient1252" x1="6.7421" x2="57.258" y1="53.542" y2="53.542" gradientTransform="matrix(.18352 -.049174 .049174 .18352 2.796 12.694)" gradientUnits="userSpaceOnUse">
   <stop stop-color="#1a1a1a" offset="0"/>
   <stop stop-color="#2c2c2e" offset=".11054"/>
   <stop stop-color="#2b2b2d" offset=".29001"/>
   <stop stop-color="#2a2b2d" offset=".51187"/>
   <stop stop-color="#2b2b2d" offset=".75173"/>
   <stop stop-color="#323232" offset=".89659"/>
   <stop stop-color="#171717" offset="1"/>
  </linearGradient>
  <linearGradient id="linearGradient1240" x1="28.406" x2="28.406" y1="4.4402" y2="51.07" gradientTransform="matrix(.18352 -.049174 .049174 .18352 2.796 12.694)" gradientUnits="userSpaceOnUse">
   <stop stop-color="#d7e1e5" offset="0"/>
   <stop stop-color="#a1a1a2" offset="1"/>
  </linearGradient>
  <linearGradient id="linearGradient1350" x1="30.14" x2="30.14" y1="56.527" y2="54.734" gradientTransform="matrix(.18352 -.049174 .049174 .18352 2.796 12.694)" gradientUnits="userSpaceOnUse">
   <stop stop-color="#197cf1" offset="0"/>
   <stop stop-color="#20bcfa" offset="1"/>
  </linearGradient>
 </defs>
 <metadata>
  <rdf:RDF>
   <cc:Work rdf:about="">
    <dc:format>image/svg+xml</dc:format>
    <dc:type rdf:resource="http://purl.org/dc/dcmitype/StillImage"/>
    <dc:title/>
   </cc:Work>
  </rdf:RDF>
 </metadata>
 <g transform="translate(-2.0839 -8.6074)">
  <circle cx="10.55" cy="17.074" r="7.9373" fill="url(#b-5)" image-rendering="optimizeSpeed" stroke-width=".96298" style="paint-order:stroke markers fill"/>
  <g stroke-linecap="round" stroke-width=".056998">
   <path d="m6.5219 21.055c-0.15444 0.07156-0.079766 0.33457 0.00846 0.59358 0.098013 0.34045 0.22225 0.73274 0.34799 1.0808 0.095917 0.29154 0.34107 0.48256 0.58652 0.4168l8.2591-2.213c0.24545-0.06577 0.36225-0.35378 0.29954-0.65421-0.06513-0.36428-0.15369-0.76614-0.23902-1.11-0.0531-0.26842-0.11994-0.5335-0.28947-0.51828l-8.3232 2.2302z" fill="url(#linearGradient1252)" style="paint-order:stroke fill markers"/>
   <path d="m5.4343 12.98c-0.093404 0.02485-0.17008 0.06198-0.22692 0.11228-0.096099 0.06834-0.12142 0.1549-0.1197 0.28447l1.3629 8.0328c0.00669 0.03944 0.019288 0.07611 0.03632 0.10974 0.00682 0.01345 0.014462 0.02643 0.022709 0.03886 0.00413 0.0062 0.00819 0.01255 0.012644 0.01851 0.013372 0.01787 0.028403 0.03451 0.044496 0.04993 0.026826 0.02571 0.057168 0.04789 0.089956 0.06618 0.00655 0.0036 0.012967 0.0072 0.019709 0.01047 0.033747 0.01672 0.069976 0.02927 0.1073 0.03771 0.00747 0.0017 0.014845 0.0034 0.022404 0.0048 0.068033 0.01205 0.13966 0.0098 0.20895-0.0087l8.3939-2.2492c0.16166-0.04331 0.28946-0.16994 0.33307-0.31975 0.0062-0.02139 0.01093-0.04332 0.01357-0.06549 8.47e-4 -0.0074 0.0012-0.01491 0.0017-0.02235 9.26e-4 -0.01488 1e-3 -0.02996 2.32e-4 -0.04501-0.0021-0.03764-0.0095-0.0757-0.02342-0.1132l-2.8361-7.638c-0.0633-0.11307-0.12851-0.17537-0.2459-0.18651-0.07438-0.01513-0.15935-9e-3 -0.25266 0.01622l-3.481 0.93889z" fill="#202020" style="paint-order:stroke fill markers"/>
   <path d="m5.4073 12.879c-0.093405 0.02485-0.17008 0.06198-0.22692 0.11228-0.0961 0.06834-0.12142 0.1549-0.1197 0.28447l1.363 8.0331c0.00669 0.03944 0.019288 0.07611 0.03632 0.10974 0.00682 0.01345 0.014454 0.0264 0.022709 0.03886 0.00413 0.0062 0.00809 0.01219 0.012546 0.01815 0.013372 0.01787 0.028401 0.03451 0.044496 0.04993 0.026826 0.02571 0.057167 0.04789 0.089956 0.06618 0.00655 0.0036 0.012967 0.0072 0.019708 0.01047 0.033747 0.01672 0.070071 0.02963 0.1074 0.03807 0.00746 0.0017 0.014748 0.0031 0.022307 0.0044 0.068033 0.01205 0.13966 0.0098 0.20895-0.0087l8.3939-2.2491c0.16166-0.04332 0.28946-0.16994 0.33307-0.31975 0.0062-0.02139 0.01093-0.04332 0.01357-0.06549 8.46e-4 -0.0074 0.0013-0.01455 0.0018-0.02199 9e-4 -0.01491 0.0011-0.02996 2.32e-4 -0.04501-0.0021-0.03765-0.0095-0.0757-0.02341-0.1132l-2.8362-7.6384c-0.0633-0.11307-0.12851-0.17538-0.2459-0.18651-0.07438-0.01514-0.15935-9e-3 -0.25266 0.01622l-3.481 0.93884z" fill="url(#linearGradient1240)" style="paint-order:stroke fill markers"/>
  </g>
  <path d="m10.956 13.429c-0.05802-0.21655-0.28015-0.3448-0.49548-0.2871-0.21534 0.0577-0.34358 0.27982-0.28588 0.49516 0.03944 0.1472 0.15551 0.25432 0.29388 0.28896 0.02071 0.01401 0.04143 0.04757 0.04633 0.06583l0.0013 0.0049c0.04764 0.21672 0.05776 0.40047 0.04956 0.53045-0.01124 0.1673-0.33564 0.60628-0.48897 0.68127-0.06665 0.03351-0.098065 0.01845-0.12936-0.09834l-0.45769-1.7081c-0.00489-0.01825-0.00901-0.04322 0.00681-0.06702 0.085719-0.09859 0.12312-0.2364 0.086606-0.37266-0.058025-0.21655-0.28015-0.3448-0.49548-0.2871-0.21534 0.0577-0.34358 0.27982-0.28555 0.49638 0.036835 0.13747 0.13999 0.24022 0.26563 0.28088l0.00156 8.73e-4c0.00156 8.73e-4 0.00273 5.55e-4 0.00553 0.0011 0.00273 5.56e-4 0.00553 0.0011 0.00861 0.0029 0.032871 0.01075 0.049925 0.02574 0.053836 0.04034l0.63989 2.3881c0.02282 0.08516 0.026717 0.15322-0.063728 0.17094-0.090447 0.017705-0.58392-0.14994-0.76907-0.36893-0.085715-0.1009-0.14401-0.20655-0.174-0.31848l-0.00161-0.0061c-0.010107-0.03771-0.036835-0.13747-0.0054-0.17588 0.075661-0.0972 0.10617-0.22664 0.071942-0.35439-0.058025-0.21655-0.28015-0.3448-0.49548-0.2871-0.21534 0.0577-0.34788 0.27837-0.28985 0.49492 0.038791 0.14477 0.15177 0.2501 0.28527 0.28605 0.034087 0.01043 0.045952 0.0255 0.080783 0.11657 0.034833 0.09107 0.11669 0.28949 0.24077 0.45575 0.14944 0.20249 0.36053 0.32847 0.63032 0.42047 0.19577 0.06881 0.3619 0.11948 0.47658 0.21654 0.11467 0.09705 0.1681 0.13099 0.2121 0.29522 0.041724 0.15572-0.00303 0.18336-0.055117 0.24687-0.14318 0.1518-0.20701 0.37102-0.14898 0.58756l0.00359 0.01339c0.089644 0.33456 0.43363 0.53316 0.76819 0.44351 0.33456-0.08964 0.53316-0.43363 0.44351-0.76819-0.04336-0.1618-0.14606-0.29206-0.27848-0.37262-0.04571-0.02948-0.09256-0.05344-0.14385-0.06968-0.10819-0.03882-0.16279-0.10633-0.18431-0.18662l-0.07856-0.2932c-0.08182-0.30536-0.0841-0.51337-0.03871-0.68462 0.04741-0.1783 0.14896-0.3346 0.31918-0.53146 0.18764-0.21457 0.30502-0.42857 0.33442-0.67897 0.0224-0.19376-0.0086-0.40191-0.0613-0.64727-0.0046-0.02223-0.0019-0.07512 0.01798-0.09349 0.08207-0.09762 0.11858-0.23388 0.08272-0.3677z" fill="#0d0e0e" opacity=".25" stroke-width=".018796"/>
  <path d="m7.969 22.081c-0.084416 0.02262-0.13414 0.10874-0.11152 0.19315 0.022622 0.08442 0.10883 0.1345 0.19325 0.11188l6.7859-1.8183c0.08442-0.02262 0.13404-0.1091 0.11142-0.19351-0.02262-0.08442-0.10874-0.13414-0.19315-0.11152z" fill="url(#linearGradient1350)" stroke-linecap="round" stroke-width=".056998" style="paint-order:stroke fill markers"/>
 </g>
</svg>
