<?xml version="1.0" encoding="UTF-8"?>
<svg width="64" height="64" version="1.1" viewBox="0 0 16.933 16.933" xmlns="http://www.w3.org/2000/svg" xmlns:cc="http://creativecommons.org/ns#" xmlns:dc="http://purl.org/dc/elements/1.1/" xmlns:rdf="http://www.w3.org/1999/02/22-rdf-syntax-ns#">
 <defs>
  <filter id="filter1272" x="-.096004" y="-.096181" width="1.192" height="1.1924" color-interpolation-filters="sRGB">
   <feGaussianBlur stdDeviation="0.39771105"/>
  </filter>
  <filter id="filter1066-3" x="-.063923" y="-.056531" width="1.1278" height="1.1131" color-interpolation-filters="sRGB">
   <feGaussianBlur stdDeviation="0.22705935"/>
  </filter>
  <linearGradient id="linearGradient1040" x1="80.368" x2="82.141" y1="13.177" y2="14.704" gradientTransform="matrix(1.0235 0 0 1.0235 -59.088 1.0929)" gradientUnits="userSpaceOnUse">
   <stop stop-color="#e4e6e9" offset="0"/>
   <stop stop-color="#2f3240" offset="1"/>
  </linearGradient>
  <linearGradient id="f-3" x1="408.58" x2="408.71" y1="539.83" y2="507.76" gradientTransform="matrix(.25355 0 0 .25355 -84.059 -120.78)" gradientUnits="userSpaceOnUse">
   <stop stop-color="#ccc" offset="0"/>
   <stop stop-color="#fff" offset="1"/>
  </linearGradient>
 </defs>
 <metadata>
  <rdf:RDF>
   <cc:Work rdf:about="">
    <dc:format>image/svg+xml</dc:format>
    <dc:type rdf:resource="http://purl.org/dc/dcmitype/StillImage"/>
    <dc:title/>
   </cc:Work>
  </rdf:RDF>
 </metadata>
 <g transform="translate(-11.104 -3.5336)">
  <circle cx="19.498" cy="12.042" r="7.9373" color="#000000" fill="#333644" stroke-width=".26458"/>
  <path transform="matrix(.88975 0 0 .97317 -24.722 -.9076)" d="m57.641 9.8253c0.81583 3.5615-6.4071 9.5974-9.8786 10.551l4.6899-0.01017c4.0983-2.6261 3.5124-2.2804 5.4351-4.4455z" fill="#323543" filter="url(#filter1272)" opacity=".2"/>
  <path d="m19.43 3.9987a7.9373 7.9831 0 0 0-7.9373 7.9834 7.9373 7.9831 0 0 0 5.5381 7.6066l0.53278-0.06029c3.7573-1.0394 9.0459-4.2555 9.2552-10.46a7.9373 7.9831 0 0 0-7.3886-5.0696zm7.4066 5.1175 0.44544 3.9647a7.9373 7.9831 0 0 0 5.03e-4 -0.0021l-0.44441-3.9578a7.9373 7.9831 0 0 0-0.0015-0.00468z" color="#000000" fill="#2f3240" stroke-width=".26534"/>
  <path transform="matrix(1.0996 0 0 1.0321 -36.644 -.65466)" d="m57.818 9.8288s0.05354 3.0782-2.6636 4.5408c-2.2449 1.2084 0.9386 2.689-5.8599 5.0989 8.8505-2.5748 8.5235-9.6396 8.5235-9.6396z" fill="#141414" filter="url(#filter1066-3)" opacity=".3"/>
  <path transform="matrix(1.0685 0 0 .99563 -34.741 .017898)" d="m57.818 9.8288s0.05354 3.0782-2.6636 4.5408c-2.2449 1.2084 0.9386 2.689-5.8599 5.0989 8.8505-2.5748 8.5235-9.6396 8.5235-9.6396z" fill="#141414" filter="url(#filter1066-3)" opacity=".3"/>
  <path d="m26.595 9.3885s0.0548 3.1506-2.7262 4.6476c-2.2976 1.2368 0.96066 2.7521-5.9977 5.2188 9.0584-2.6353 8.7956-9.8301 8.7956-9.8301z" fill="url(#linearGradient1040)" stroke-width="1.0235"/>
  <path d="m26.595 9.3885s-0.19305 3.2014-2.5649 4.5126c-2.7286 1.5087 0.99328 2.8569-6.1954 5.2982" fill="none" stroke="#323541" stroke-width=".1354"/>
  <path d="m26.837 9.1162 0.44544 3.9644a7.9373 7.9831 0 0 0 5.3e-4 -0.0021l-0.44441-3.9578a7.9373 7.9831 0 0 0-1e-3 -0.00465h-5.29e-4z" color="#000000" fill="#fafafa" stroke-width=".26534"/>
  <path d="m26.837 9.1159 0.44544 3.9647a7.9373 7.9831 0 0 0 5.03e-4 -0.0021l-0.44441-3.9578a7.9373 7.9831 0 0 0-0.0015-0.00468z" color="#000000" fill="#fafafa" stroke-width=".26534"/>
  <path d="m19.571 7.9669c-0.27892 0-0.50712 0.22769-0.50712 0.50635 0 0.27892 0.2282 0.50712 0.50712 0.50712 0.21121 0 0.393-0.13109 0.46883-0.31567 0.3466 0.19929 0.66608 0.61866 0.90012 1.1953 0.25634 0.63134 0.41176 1.443 0.41176 2.3276 0 0.72135-0.10294 1.3943-0.27992 1.9602l0.17875 0.05578c0.18357-0.58646 0.28879-1.2769 0.28879-2.0157 0-0.90671-0.15822-1.7399-0.42597-2.3986-0.25482-0.62829-0.60903-1.0992-1.0355-1.317a0.50812 0.50812 0 0 0-0.50685-0.50534zm0 0.18763c0.17749 0 0.31871 0.14148 0.31871 0.31871 0 0.17749-0.14148 0.31948-0.31871 0.31948-0.17749 0-0.31871-0.14199-0.31871-0.31948 0-0.17723 0.14148-0.31871 0.31871-0.31871zm-1.836 1.4521a2.6696 2.6696 0 0 0-0.63261 0.067698c-0.38488 0.092801-0.69372 0.28574-0.86665 0.58496-0.25609 0.44396-0.16101 1.0223 0.17318 1.6055l0.16278-0.09306c-0.31543-0.55022-0.38414-1.0535-0.17368-1.4184 0.14199-0.24595 0.39808-0.41227 0.74849-0.49672 0.3499-0.084432 0.79082-0.082911 1.2784 0.00583l0.03347-0.18509c-0.25355-0.046142-0.49595-0.069975-0.72338-0.070988zm3.7208 0.00558-2e-3 0.18814c0.61893 0.00811 1.0763 0.19929 1.2835 0.55808 0.14199 0.24544 0.15771 0.54945 0.05629 0.89404-0.10117 0.34459-0.32099 0.72516-0.64023 1.1022l0.14376 0.12094c0.33165-0.392 0.56543-0.79109 0.67698-1.1699 0.11155-0.3788 0.09838-0.74214-0.07404-1.0408-0.25207-0.43661-0.78758-0.64404-1.4443-0.65264zm-0.93282 0.10142c-0.61308 0.13134-1.2812 0.38896-1.9384 0.76826-0.79794 0.46095-1.4485 1.0249-1.8854 1.5954-0.42393 0.553-0.64909 1.1136-0.59586 1.6004a0.50862 0.50862 0 0 0-0.30426 0.46399c0 0.27892 0.2282 0.50635 0.50685 0.50635s0.50635-0.22769 0.50635-0.50635-0.22769-0.50712-0.50635-0.50712c-0.0063 0-0.01192 0.0018-0.01826 2e-3 -0.036-0.40975 0.16075-0.92396 0.56035-1.4453 0.41835-0.54641 1.052-1.0976 1.8306-1.5472 0.6415-0.3702 1.2924-0.62044 1.8836-0.74722zm-0.95185 2.0442c-0.25812 0-0.46907 0.21121-0.46907 0.46907 0 0.25786 0.21096 0.46934 0.46907 0.46934 0.25812 0 0.46907-0.21121 0.46907-0.46907 0-0.25786-0.21096-0.46907-0.46907-0.46907zm-2.4721 0.72415-0.13895 0.12652c0.41862 0.46021 0.97111 0.90443 1.6215 1.2799 0.77511 0.44753 1.5652 0.72566 2.263 0.82683 0.65975 0.09559 1.2373 0.03322 1.643-0.20867 0.09128 0.08697 0.21374 0.14148 0.3489 0.14148 0.27892 0 0.50712-0.22769 0.50712-0.50635 0-0.27865-0.2282-0.50712-0.50712-0.50712s-0.50635 0.2282-0.50635 0.50712c0 0.07607 0.01775 0.14706 0.04818 0.21172-0.35067 0.20183-0.8821 0.26622-1.5069 0.17571-0.66912-0.09686-1.4399-0.36663-2.1963-0.8035-0.63464-0.36639-1.1722-0.79995-1.5761-1.2437zm-0.79313 1.3403c0.17723 0 0.31871 0.14199 0.31871 0.31948 0 0.17749-0.14148 0.31871-0.31871 0.31871-0.17723 0-0.31948-0.14148-0.31948-0.31871 0-0.17723 0.14199-0.31948 0.31948-0.31948zm6.5306 0c0.17749 0 0.31948 0.14199 0.31948 0.31948 0 0.17749-0.14199 0.31871-0.31948 0.31871-0.17749 0-0.31871-0.14148-0.31871-0.31871 0-0.17723 0.14148-0.31948 0.31871-0.31948zm-4.7045 0.51624-0.17673 0.06313c0.17343 0.48428 0.40213 0.88795 0.67497 1.1745 0.27257 0.28651 0.59408 0.4574 0.93941 0.4574 0.5005 0 0.94473-0.35446 1.2794-0.91152l-0.16075-0.0966c-0.31517 0.52461-0.7074 0.82051-1.1187 0.82051-0.28397 0-0.55553-0.13869-0.80376-0.39935-0.24823-0.26066-0.46703-0.642-0.63388-1.108z" fill="url(#f-3)" stroke-width=".25355"/>
 </g>
</svg>
