<?xml version="1.0" encoding="UTF-8"?>
<svg id="Flamingo" width="64" height="64" enable-background="new 0 0 1024 1024" image-rendering="optimizeSpeed" version="1.1" viewBox="0 0 64 64" xmlns="http://www.w3.org/2000/svg" xmlns:cc="http://creativecommons.org/ns#" xmlns:dc="http://purl.org/dc/elements/1.1/" xmlns:rdf="http://www.w3.org/1999/02/22-rdf-syntax-ns#">
 <metadata>
  <rdf:RDF>
   <cc:Work rdf:about="">
    <dc:format>image/svg+xml</dc:format>
    <dc:type rdf:resource="http://purl.org/dc/dcmitype/StillImage"/>
    <dc:title/>
   </cc:Work>
  </rdf:RDF>
 </metadata>
 <defs>
  <linearGradient id="linearGradient980" x1="5.0121" x2="50.126" y1="9.2204" y2="51.254" gradientTransform="translate(-23.398,-147.17)" gradientUnits="userSpaceOnUse">
   <stop stop-color="#55c3f8" offset="0"/>
   <stop stop-color="#1484f4" offset="1"/>
  </linearGradient>
  <linearGradient id="linearGradient984" x1="5.6964" x2="50.126" y1="9.9047" y2="50.57" gradientTransform="matrix(-.56046 0 0 .56046 52.85 25.251)" gradientUnits="userSpaceOnUse">
   <stop stop-color="#f4f4f4" offset="0"/>
   <stop stop-color="#dce3ec" offset="1"/>
  </linearGradient>
  <linearGradient id="a-3-3" x1="61.559" x2="1.6271" y1="1.322" y2="60.78" gradientTransform="translate(.25274 .81329)" gradientUnits="userSpaceOnUse">
   <stop stop-color="#f5faff" offset="0"/>
   <stop stop-color="#cfdef0" offset="1"/>
  </linearGradient>
  <filter id="filter1072" x="-.059887" y="-.060113" width="1.1198" height="1.1202" color-interpolation-filters="sRGB">
   <feGaussianBlur stdDeviation="1.3775831"/>
  </filter>
 </defs>
 <circle cx="32" cy="32" r="30" fill="url(#a-3-3)" image-rendering="optimizeSpeed" style="paint-order:stroke markers fill"/>
 <g transform="matrix(.72454 0 0 .72454 8.8155 8.8155)" filter="url(#filter1072)" opacity=".3">
  <g transform="matrix(1.2092,0,0,1.2092,-1.337,-6.2034)">
   <path d="m43.664 14.653c-4.3048-3.7414-10.02-5.802-16.095-5.802-6.074 0-11.79 2.0605-16.095 5.802-4.3421 3.7739-6.7335 8.8036-6.7335 14.162 0 5.1148 2.1799 9.9287 6.1534 13.637-0.07165 0.17209-0.12852 0.35317-0.16482 0.54356l-1.3056 6.859c-0.15525 0.81516 0.05339 1.3013 0.25554 1.5656 0.23374 0.30539 0.58015 0.47366 0.97558 0.47366 0.29855 0 0.61942-0.09407 0.95377-0.27968l7.5944-4.2135c2.6293 0.90384 5.4562 1.3778 8.3653 1.3778 6.074 0 11.79-2.0605 16.095-5.802 4.3421-3.7738 6.7335-8.8032 6.7335-14.162 0-5.3592-2.3913-10.389-6.7335-14.163z"/>
   <path d="m28.379 33.463c2.4126-2.0969 5.616-3.2517 9.0204-3.2517 3.4042 0 6.6078 1.1548 9.0204 3.2517 2.4336 2.1151 3.7738 4.9341 3.7738 7.9372 0 2.8666-1.2217 5.5646-3.4487 7.6431 0.04016 0.09645 0.07203 0.19794 0.09237 0.30464l0.73175 3.8442c0.08701 0.45686-0.02992 0.72931-0.14322 0.87745-0.131 0.17116-0.32515 0.26547-0.54677 0.26547-0.16733 0-0.34716-0.05272-0.53455-0.15675l-4.2563-2.3615c-1.4736 0.50656-3.058 0.77218-4.6884 0.77218-3.4042 0-6.6078-1.1548-9.0204-3.2517-2.4335-2.115-3.7738-4.9338-3.7738-7.9372 0-3.0036 1.3402-5.8223 3.7738-7.9379z"/>
  </g>
  <g transform="translate(.49981)">
   <circle cx="37.874" cy="42.216" r="2.3051"/>
   <circle cx="48.9" cy="42.216" r="2.3051"/>
  </g>
 </g>
 <g transform="matrix(.72454 0 0 .72454 8.8155 8.8155)">
  <g transform="matrix(1.2092,0,0,1.2092,-1.337,-6.2034)">
   <path d="m43.664 14.653c-4.3048-3.7414-10.02-5.802-16.095-5.802-6.074 0-11.79 2.0605-16.095 5.802-4.3421 3.7739-6.7335 8.8036-6.7335 14.162 0 5.1148 2.1799 9.9287 6.1534 13.637-0.07165 0.17209-0.12852 0.35317-0.16482 0.54356l-1.3056 6.859c-0.15525 0.81516 0.05339 1.3013 0.25554 1.5656 0.23374 0.30539 0.58015 0.47366 0.97558 0.47366 0.29855 0 0.61942-0.09407 0.95377-0.27968l7.5944-4.2135c2.6293 0.90384 5.4562 1.3778 8.3653 1.3778 6.074 0 11.79-2.0605 16.095-5.802 4.3421-3.7738 6.7335-8.8032 6.7335-14.162 0-5.3592-2.3913-10.389-6.7335-14.163z" fill="url(#linearGradient980)"/>
   <path d="m28.379 33.463c2.4126-2.0969 5.616-3.2517 9.0204-3.2517 3.4042 0 6.6078 1.1548 9.0204 3.2517 2.4336 2.1151 3.7738 4.9341 3.7738 7.9372 0 2.8666-1.2217 5.5646-3.4487 7.6431 0.04016 0.09645 0.07203 0.19794 0.09237 0.30464l0.73175 3.8442c0.08701 0.45686-0.02992 0.72931-0.14322 0.87745-0.131 0.17116-0.32515 0.26547-0.54677 0.26547-0.16733 0-0.34716-0.05272-0.53455-0.15675l-4.2563-2.3615c-1.4736 0.50656-3.058 0.77218-4.6884 0.77218-3.4042 0-6.6078-1.1548-9.0204-3.2517-2.4335-2.115-3.7738-4.9338-3.7738-7.9372 0-3.0036 1.3402-5.8223 3.7738-7.9379z" fill="url(#linearGradient984)"/>
  </g>
  <g transform="translate(.49981)" fill="#2998f5">
   <circle cx="37.874" cy="42.216" r="2.3051"/>
   <circle cx="48.9" cy="42.216" r="2.3051"/>
  </g>
 </g>
 <g transform="matrix(3.7796 0 0 3.7796 -110.64 -15.186)" fill="#5e4aa6" stroke-width=".26458">
  <g transform="translate(55.677,-3.157)">
   <circle cx="-322.63" cy="-345.67" r="0"/>
   <circle cx="-31.726" cy="-10.849" r="0" fill-rule="evenodd"/>
   <circle cx="-306.92" cy="-328.72" r="0"/>
  </g>
  <g transform="translate(47.177,-15.995)" image-rendering="optimizeSpeed">
   <circle cx="-330.35" cy="-328.38" r="0"/>
   <circle cx="-312.11" cy="-326.25" r="0"/>
   <circle cx="-306.02" cy="-333.07" r="0"/>
   <circle cx="-308.84" cy="-326.01" r="0"/>
  </g>
  <g transform="translate(47.177,-15.995)" image-rendering="optimizeSpeed">
   <circle cx="-330.35" cy="-328.38" r="0"/>
   <circle cx="-312.11" cy="-326.25" r="0"/>
   <circle cx="-306.02" cy="-333.07" r="0"/>
   <circle cx="-308.84" cy="-326.01" r="0"/>
  </g>
 </g>
</svg>
