<?xml version="1.0" encoding="UTF-8"?>
<!-- Created with Inkscape (http://www.inkscape.org/) -->
<svg width="64" height="64" version="1.1" viewBox="0 0 16.933 16.933" xmlns="http://www.w3.org/2000/svg" xmlns:cc="http://creativecommons.org/ns#" xmlns:dc="http://purl.org/dc/elements/1.1/" xmlns:rdf="http://www.w3.org/1999/02/22-rdf-syntax-ns#">
 <defs>
  <linearGradient id="linearGradient1159" x1="-177.09" x2="-177.09" y1="-1.3372" y2="-15.674" gradientTransform="matrix(1.0908 0 0 1.0908 202.44 18.097)" gradientUnits="userSpaceOnUse">
   <stop stop-color="#78b4dc" offset="0"/>
   <stop stop-color="#0096f0" offset="1"/>
  </linearGradient>
  <linearGradient id="linearGradient981" x1="12.022" x2="10.339" y1="15.435" y2="9.1891" gradientTransform="matrix(1.0908 0 0 1.0908 -.39586 -.34607)" gradientUnits="userSpaceOnUse">
   <stop stop-color="#ff8c14" offset="0"/>
   <stop stop-color="#ffb932" offset="1"/>
  </linearGradient>
  <linearGradient id="linearGradient991" x1="-177.09" x2="-184.76" y1="-1.3372" y2="-7.9214" gradientTransform="matrix(1.0908 0 0 1.0908 202.44 18.097)" gradientUnits="userSpaceOnUse">
   <stop stop-color="#ff820f" offset="0"/>
   <stop stop-color="#ff8c0f" offset="1"/>
  </linearGradient>
 </defs>
 <metadata>
  <rdf:RDF>
   <cc:Work rdf:about="">
    <dc:format>image/svg+xml</dc:format>
    <dc:type rdf:resource="http://purl.org/dc/dcmitype/StillImage"/>
    <dc:title/>
   </cc:Work>
  </rdf:RDF>
 </metadata>
 <g transform="translate(-.37374 -.31248)" stroke-width="1.0908">
  <path d="m8.8258 0.84215a7.9373 7.9373 0 0 0-7.9224 7.9265v0.024804a7.9373 7.9373 0 0 0 7.9265 7.9224h0.024804a7.9373 7.9373 0 0 0 7.9224-7.9265v-0.024804a7.9373 7.9373 0 0 0-7.9265-7.9224z" fill="url(#linearGradient1159)"/>
  <path d="m0.93855 9.4637a7.9373 7.9373 0 0 0 7.8914 7.2521h0.024804a7.9373 7.9373 0 0 0 1.9652-0.26148c-0.68841-1.0609-1.6497-2.2157-3.0023-3.4209-2.6467-2.3585-5.061-3.2623-6.879-3.5697z" fill="url(#linearGradient991)"/>
  <path d="m12.319 10.042c-3.1267 0.058436-5.237 2.2292-6.6263 3.3119-0.66895 0.52126-1.6069 0.79753-2.5455 0.94204a7.9373 7.9373 0 0 0 5.6833 2.42h0.024804a7.9373 7.9373 0 0 0 7.5637-5.6063c-0.04131-0.02163-0.07926-0.04434-0.12144-0.06563-1.3534-0.68293-2.5736-0.97301-3.6721-1.001h-5.29e-4c-0.10298-0.0026-0.20506-0.0029-0.30592-1e-3z" fill="url(#linearGradient981)"/>
  <circle cx="11.84" cy="5.4714" r="1.9509" fill="#ffffe1"/>
 </g>
 <g transform="translate(23.606 -5.5965)" fill="#5e4aa6" stroke-width=".26458">
  <circle cx="-322.63" cy="-345.67" r="0"/>
  <circle cx="-31.726" cy="-10.849" r="0" fill-rule="evenodd"/>
  <circle cx="-306.92" cy="-328.72" r="0"/>
 </g>
</svg>
