<?xml version="1.0" encoding="UTF-8"?>
<svg width="64" height="64" version="1.1" viewBox="0 0 16.933 16.933" xmlns="http://www.w3.org/2000/svg" xmlns:cc="http://creativecommons.org/ns#" xmlns:dc="http://purl.org/dc/elements/1.1/" xmlns:rdf="http://www.w3.org/1999/02/22-rdf-syntax-ns#">
 <metadata>
  <rdf:RDF>
   <cc:Work rdf:about="">
    <dc:format>image/svg+xml</dc:format>
    <dc:type rdf:resource="http://purl.org/dc/dcmitype/StillImage"/>
    <dc:title/>
   </cc:Work>
  </rdf:RDF>
 </metadata>
 <g transform="translate(-11.95 -5.2651)">
  <circle cx="20.416" cy="13.732" r="7.9373" fill="#313642" stroke-width="1.07" style="paint-order:stroke markers fill"/>
  <g stroke-width=".25855">
   <path d="m18.671 15.477a1.7452 1.7452 0 0 0-1.7452 1.7452 1.7452 1.7452 0 0 0 1.7452 1.7452 1.7452 1.7452 0 0 0 1.7452-1.7452v-1.7452z" fill="#09c37b"/>
   <path d="m18.671 11.986h1.7452v3.4904h-1.7452c-0.96681 0-1.7452-0.77836-1.7452-1.7452 0-0.96681 0.77835-1.7452 1.7452-1.7452z" fill="#9154dd"/>
   <circle cx="22.162" cy="13.731" r="1.7452" fill="#01b1f8"/>
   <path d="m18.671 8.4961c-0.96681 0-1.7452 0.77835-1.7452 1.7452 0 0.96681 0.77835 1.7452 1.7452 1.7452h1.7452v-3.4904z" fill="#f24e1e"/>
   <path d="m20.417 8.4961h1.7452c0.96681 0 1.7452 0.77835 1.7452 1.7452 0 0.96681-0.77835 1.7452-1.7452 1.7452h-1.7452z" fill="#ff7262"/>
  </g>
 </g>
</svg>
