<?xml version="1.0" encoding="UTF-8"?>
<!-- Created with Inkscape (http://www.inkscape.org/) -->
<svg width="64" height="64" version="1.1" viewBox="0 0 16.933 16.933" xmlns="http://www.w3.org/2000/svg" xmlns:cc="http://creativecommons.org/ns#" xmlns:dc="http://purl.org/dc/elements/1.1/" xmlns:rdf="http://www.w3.org/1999/02/22-rdf-syntax-ns#">
 <defs>
  <style type="text/css"/>
  <style type="text/css"/>
  <filter id="filter1877" x="-.041878" y="-.031569" width="1.0838" height="1.0631" color-interpolation-filters="sRGB">
   <feGaussianBlur stdDeviation="0.19012955"/>
  </filter>
  <linearGradient id="linearGradient3389" x1="-182.7" x2="-177.97" y1="-4.3191" y2="-14.276" gradientTransform="matrix(5.0261 0 0 4.1337 924.06 67.314)" gradientUnits="userSpaceOnUse">
   <stop stop-color="#5587ff" offset="0"/>
   <stop stop-color="#4bd2f5" offset="1"/>
  </linearGradient>
  <linearGradient id="linearGradient3391" x1="-176.72" x2="-170.2" y1="-1.2665" y2="-15.817" gradientTransform="matrix(5.0261 0 0 4.1337 924.06 67.314)" gradientUnits="userSpaceOnUse">
   <stop stop-color="#c8e6ff" offset="0"/>
   <stop stop-color="#fff" offset="1"/>
  </linearGradient>
 </defs>
 <metadata>
  <rdf:RDF>
   <cc:Work rdf:about="">
    <dc:format>image/svg+xml</dc:format>
    <dc:type rdf:resource="http://purl.org/dc/dcmitype/StillImage"/>
    <dc:title/>
   </cc:Work>
  </rdf:RDF>
 </metadata>
 <g fill="#5e4aa6" stroke-width=".26458">
  <circle cx="-330.35" cy="-328.38" r="0"/>
  <circle cx="-312.11" cy="-326.25" r="0"/>
  <circle cx="-306.02" cy="-333.07" r="0"/>
  <circle cx="-308.84" cy="-326.01" r="0"/>
  <circle cx="-328.8" cy="-330.45" r="0"/>
  <circle cx="-352.16" cy="-345.43" r="0"/>
  <circle cx="-333.92" cy="-343.3" r="0"/>
  <circle cx="-327.83" cy="-350.12" r="0"/>
  <circle cx="-330.65" cy="-343.06" r="0"/>
  <circle cx="-298.23" cy="-336.03" r="0"/>
  <circle cx="-279.99" cy="-333.9" r="0"/>
  <circle cx="-273.9" cy="-340.72" r="0"/>
  <circle cx="-276.72" cy="-333.66" r="0"/>
  <circle cx="-230.28" cy="-338.96" r="0"/>
  <circle cx="60.63" cy="-4.1433" r="0" fill-rule="evenodd"/>
  <circle cx="-329.34" cy="-345.48" r="0"/>
  <circle cx="-311.1" cy="-343.35" r="0"/>
  <circle cx="-305.01" cy="-350.17" r="0"/>
  <circle cx="-307.83" cy="-343.11" r="0"/>
  <circle cx="-336.69" cy="-323.35" r="0"/>
  <circle cx="-318.45" cy="-321.22" r="0"/>
  <circle cx="-312.36" cy="-328.04" r="0"/>
  <circle cx="-315.18" cy="-320.98" r="0"/>
  <circle cx="-268.73" cy="-326.29" r="0"/>
  <circle cx="22.175" cy="8.5291" r="0" fill-rule="evenodd"/>
  <circle cx="-333.08" cy="-322.6" r="0"/>
  <circle cx="-314.84" cy="-320.47" r="0"/>
  <circle cx="-308.75" cy="-327.29" r="0"/>
  <circle cx="-311.57" cy="-320.23" r="0"/>
  <circle cx="-279.16" cy="-313.2" r="0"/>
  <circle cx="-260.92" cy="-311.07" r="0"/>
  <circle cx="-254.83" cy="-317.89" r="0"/>
  <circle cx="-257.65" cy="-310.83" r="0"/>
  <circle cx="-211.2" cy="-316.13" r="0"/>
  <circle cx="79.706" cy="18.687" r="0" fill-rule="evenodd"/>
  <circle cx="-310.27" cy="-322.65" r="0"/>
  <circle cx="-292.03" cy="-320.52" r="0"/>
  <circle cx="-285.94" cy="-327.34" r="0"/>
  <circle cx="-288.76" cy="-320.28" r="0"/>
  <circle cx="-317.61" cy="-300.52" r="0"/>
  <circle cx="-299.37" cy="-298.39" r="0"/>
  <circle cx="-293.28" cy="-305.21" r="0"/>
  <circle cx="-296.1" cy="-298.15" r="0"/>
  <circle cx="-249.66" cy="-303.46" r="0"/>
  <circle cx="41.251" cy="31.36" r="0" fill-rule="evenodd"/>
 </g>
 <path transform="scale(.26458)" d="m32 2a30 30 0 0 0-30 30 30 30 0 0 0 30 30 30 30 0 0 0 3.6602-0.26172c-0.022646-0.048388-0.048257-0.085482-0.066406-0.15039-0.24688-0.88196-0.44335-1.943-0.59766-3.1211-0.30867-2.3561-0.45032-5.1807-0.50586-7.9746-0.1111-5.5879 0.12796-11.057 0.09375-12.424-0.016473-0.68354-0.29426-1.1107-0.71289-1.3691-0.41873-0.25848-0.97956-0.3469-1.5605-0.35547-1.1621-0.016587-2.4092 0.28903-2.7852 0.2207-0.37597-0.068375-1.3011-0.22398-2.1914-0.97852-0.44518-0.37731-0.88062-0.90366-1.2363-1.6445-0.3557-0.74088-0.63108-1.6952-0.75195-2.9277-0.060404-0.61625 0.060571-1.5435 0.31836-2.6973 0.25774-1.1538 0.65348-2.535 1.1406-4.0508 0.97423-3.0315 2.3183-6.6096 3.6777-10.035 2.4592-6.1974 4.5978-11.021 5.0332-12.002a30 30 0 0 0-3.5156-0.22852z" fill="url(#linearGradient3389)" stroke-width="4.5582"/>
 <path transform="matrix(.26372 0 0 .26372 .019687 .054433)" d="m34.426 2.5762c-0.29512 0.6696-2.5316 5.7289-5.0098 12.021-1.3184 3.3475-2.6235 6.8426-3.5684 9.8047-0.47242 1.4811-0.85554 2.8296-1.1055 3.957-0.24997 1.1275-0.36717 2.0345-0.30859 2.6367 0.11719 1.2044 0.38551 2.1374 0.73047 2.8613 0.345 0.72397 0.76552 1.2387 1.1973 1.6074 0.86345 0.73731 1.7604 0.88826 2.125 0.95508 0.36462 0.06677 1.5762-0.23351 2.7031-0.2168 0.56348 0.0085 1.1057 0.09703 1.5117 0.34961 0.40603 0.25257 0.67482 0.67191 0.69141 1.3398 0.0331 1.3359-0.19756 6.6781-0.08984 12.139 0.05388 2.7302 0.19092 5.4889 0.49024 7.791 0.14971 1.1512 0.34069 2.189 0.58008 3.0508 0.05773 0.20784 0.14736 0.29581 0.21094 0.48242h3.4453a30 30 0 0 0 17.695-11.055 29.695 30.824 0 0 0 5.8887-18.338 29.695 30.824 0 0 0-4.918-16.938 30 30 0 0 0-18.877-12.449z" filter="url(#filter1877)" opacity=".2" stroke-width="4.4372"/>
 <path transform="scale(.26458)" d="m35.516 2.2285c-0.43544 0.98052-2.574 5.8046-5.0332 12.002-1.3594 3.4257-2.7035 7.0039-3.6777 10.035-0.48711 1.5157-0.88289 2.895-1.1406 4.0488-0.25774 1.1538-0.37876 2.083-0.31836 2.6992 0.12085 1.2325 0.39628 2.1869 0.75195 2.9277 0.3557 0.74088 0.79117 1.2673 1.2363 1.6445 0.89031 0.75456 1.8155 0.91019 2.1914 0.97852 0.37597 0.068328 1.6231-0.23975 2.7852-0.22266 0.58103 0.008769 1.1419 0.098991 1.5605 0.35742 0.41868 0.25848 0.69582 0.6856 0.71289 1.3691 0.03447 1.3671-0.20486 6.8359-0.09375 12.424 0.055511 2.794 0.19718 5.6169 0.50586 7.9727 0.15436 1.1781 0.35083 2.2391 0.59766 3.1211 0.018384 0.065715 0.045399 0.10348 0.068359 0.15234a30 30 0 0 0 26.338-29.738 30 30 0 0 0-26.484-29.771z" fill="url(#linearGradient3391)" stroke-width="4.5582"/>
 <g fill="#0a46a0" stroke-width=".86412">
  <circle cx="4.6395" cy="5.9127" r=".83592" style="paint-order:stroke fill markers"/>
  <circle cx="11.551" cy="5.9127" r=".83592" style="paint-order:stroke fill markers"/>
 </g>
</svg>
