<?xml version="1.0" encoding="UTF-8"?>
<svg width="64" height="64" version="1.1" viewBox="0 0 16.933 16.933" xmlns="http://www.w3.org/2000/svg" xmlns:cc="http://creativecommons.org/ns#" xmlns:dc="http://purl.org/dc/elements/1.1/" xmlns:rdf="http://www.w3.org/1999/02/22-rdf-syntax-ns#" xmlns:xlink="http://www.w3.org/1999/xlink">
 <metadata>
  <rdf:RDF>
   <cc:Work rdf:about="">
    <dc:format>image/svg+xml</dc:format>
    <dc:type rdf:resource="http://purl.org/dc/dcmitype/StillImage"/>
    <dc:title/>
   </cc:Work>
  </rdf:RDF>
 </metadata>
 <defs>
  <filter id="b" x="-.073838" y="-.05053" width="1.1477" height="1.1011" color-interpolation-filters="sRGB">
   <feGaussianBlur stdDeviation="0.19531952"/>
  </filter>
  <linearGradient id="linearGradient857" x1="-16.536" x2="-.8087" y1=".40438" y2="16.355" gradientTransform="translate(17.094)" gradientUnits="userSpaceOnUse">
   <stop stop-color="#ff630b" offset="0"/>
   <stop stop-color="#f5511d" offset="1"/>
  </linearGradient>
 </defs>
 <circle cx="8.4665" cy="8.4665" r="7.9373" fill="url(#linearGradient857)" stroke-width=".85515"/>
 <path d="m11.133 6.37c-0.016 0.08-0.158 0.239-0.238 0.239h-2.378a0.341 0.341 0 0 0-0.317 0.317v0.159c0 0.158 0.158 0.317 0.317 0.317h2.061c0.159 0 0.278 0.142 0.238 0.317a9.38 9.38 0 0 1-0.238 0.793c-0.079 0.198-0.158 0.476-0.475 0.476h-1.586c-0.238 0-0.317 0.174-0.476 0.396-0.143 0.174-1.427 1.982-1.427 1.982v-5.47c0-0.477 0.317-0.873 0.872-0.873h3.647c0.159 0 0.278 0.159 0.238 0.317zm-3.647-2.14c-1.269 0-1.665 0.317-1.665 1.665v7.216c0 0.317 0.119 0.396 0.198 0.396 0.08 0 0.182-0.087 0.278-0.238 0.063-0.095 2.458-3.489 2.458-3.489h1.545c0.793 0 0.872-0.475 1.03-1.03 0.08-0.397 0.556-2.22 0.793-3.33 0.159-0.794-0.079-1.19-0.872-1.19z" filter="url(#b)" opacity=".15"/>
 <path d="m11.133 6.37c-0.016 0.08-0.158 0.239-0.238 0.239h-2.378a0.341 0.341 0 0 0-0.317 0.317v0.159c0 0.158 0.158 0.317 0.317 0.317h2.061c0.159 0 0.278 0.142 0.238 0.317a9.38 9.38 0 0 1-0.238 0.793c-0.079 0.198-0.158 0.476-0.475 0.476h-1.586c-0.238 0-0.317 0.174-0.476 0.396-0.143 0.174-1.427 1.982-1.427 1.982v-5.47c0-0.477 0.317-0.873 0.872-0.873h3.647c0.159 0 0.278 0.159 0.238 0.317zm-3.647-2.14c-1.269 0-1.665 0.317-1.665 1.665v7.216c0 0.317 0.119 0.396 0.198 0.396 0.08 0 0.182-0.087 0.278-0.238 0.063-0.095 2.458-3.489 2.458-3.489h1.545c0.793 0 0.872-0.475 1.03-1.03 0.08-0.397 0.556-2.22 0.793-3.33 0.159-0.794-0.079-1.19-0.872-1.19z" fill="#fff"/>
</svg>
