<?xml version="1.0" encoding="UTF-8"?>
<svg width="64" height="64" version="1.1" viewBox="0 0 16.933 16.933" xmlns="http://www.w3.org/2000/svg" xmlns:cc="http://creativecommons.org/ns#" xmlns:dc="http://purl.org/dc/elements/1.1/" xmlns:rdf="http://www.w3.org/1999/02/22-rdf-syntax-ns#" xmlns:xlink="http://www.w3.org/1999/xlink">
 <defs>
  <linearGradient id="linearGradient981" x1="-33.459" x2="-33.459" y1="2.0604" y2="61.844" gradientTransform="matrix(.26458 0 0 .26458 20.983 12.755)" gradientUnits="userSpaceOnUse">
   <stop stop-color="#f5f5f5" offset="0"/>
   <stop stop-color="#dae4ea" offset="1"/>
  </linearGradient>
  <filter id="filter2224" x="-.029349" y="-.044499" width="1.0587" height="1.089" color-interpolation-filters="sRGB">
   <feGaussianBlur stdDeviation="6.2610835"/>
  </filter>
 </defs>
 <metadata>
  <rdf:RDF>
   <cc:Work rdf:about="">
    <dc:format>image/svg+xml</dc:format>
    <dc:type rdf:resource="http://purl.org/dc/dcmitype/StillImage"/>
    <dc:title/>
   </cc:Work>
  </rdf:RDF>
 </metadata>
 <g transform="translate(-3.7349 -12.755)">
  <circle cx="12.201" cy="21.222" r="7.9373" fill="url(#linearGradient981)" stroke-linecap="round" stroke-linejoin="round" stroke-width=".66307" style="paint-order:stroke fill markers"/>
  <path transform="matrix(.019077 0 0 .02314 7.5501 16.262)" d="m243.68 248.14c-14.299-0.13568-13.813-16.021-13.241-26.339-4.8917-17.029 22.596-25.377 26.213-7.2263-0.40299 11.9 4.9575 32.647-12.972 33.565zm0 119.17c-13.099-1.9965-7.6929-17.443-8.828-26.688 0.45418-24.595-0.91382-49.372 0.69313-73.852 12.477-15.348 19.94 6.4893 16.963 17.724-0.4551 25.786 0.91509 51.753-0.69327 77.424-1.3139 3.2075-4.659 5.4447-8.1347 5.392zm0-145.66c-7.6697-4.1445-10.286-14.441-15.732-21.257-10.82-17.743-22.466-35.078-32.765-53.079 4.0553-12.697 12.596 3.5694 15.673 9.0772 10.941 17.506 21.883 35.012 32.824 52.518 13.966-21.894 27.175-44.376 41.609-65.908 13.179-1.9023 2.2951 12.895-1.3025 18.072-12.86 19.895-24.589 40.712-38.164 60.024zm0 13.387c57.834 8.0814 116.5 7.5515 174.78 8.5915 19.561-0.58972 30.713-18.873 36.546-35.311 17.261-39.177 37.307-78.162 44.575-120.69 1.312-26.981-34.21-20.214-49.617-12.169-55.392 25.082-101.73 65.788-147.53 104.98-20.029 17.712-39.676 35.864-58.754 54.598zm4.966 0.406c46.161 1.2873 92.322 2.5747 138.48 3.862 24.927 11.764 51.573 31.31 53.142 61.287 5.3316 44.948-27.497 88.558-70.649 99.855-19.204 5.1145-42.404 10.206-60.378-0.9461-25.601-26.132-38.95-61.346-54.396-93.917-4.5895-12.535-14.029-24.534-9.8197-38.384 1.206-10.586 2.4121-21.171 3.6181-31.757zm-241-167.15c-28.105-1.3816-19.753 32.769-12.928 48.91 13.453 38.711 29.686 76.683 48.841 112.85 13.762 18.896 38.84 12.793 58.777 13.218 47.15-1.4207 94.608-1.2335 141.35-8.2321-56.477-53.933-114.63-107.52-182.05-147.62-16.743-9.12-34.548-18.458-53.99-19.128zm231.07 167.15c-46.161 1.2873-92.322 2.5747-138.48 3.862-24.927 11.764-51.573 31.31-53.142 61.287-5.3316 44.948 27.497 88.558 70.649 99.855 19.204 5.1145 42.404 10.206 60.378-0.9461 25.601-26.132 38.95-61.346 54.396-93.917 4.5895-12.535 14.029-24.534 9.8197-38.384-1.206-10.586-2.4121-21.171-3.6181-31.757z" fill="#4d4d4d" filter="url(#filter2224)" opacity=".25"/>
  <g stroke-width=".020489">
   <path d="m12.162 21.615-2.5762 0.08715s-0.48683 0.26022-0.78005 0.69719c-0.2395 0.35689-0.39686 1.3114 0.16423 2.1911 0.50242 0.78777 1.5396 1.0084 1.9706 0.79677 0.48138-0.23632 1.3138-2.7887 1.3138-2.7887z" fill="#ffaa41"/>
   <path d="m12.199 22.003-0.03652-0.38882-2.5762 0.08715s-0.062953 0.03389-0.15653 0.09676c0.82646 0.09996 1.9971 0.49907 2.7693 0.20491z" fill="#be824b"/>
   <path d="m7.8636 17.843c-0.070487 0-0.13519 0.01155-0.19345 0.03597-0.075677 0.03177-0.17788 0.14112-0.17788 0.3403 0 0.60639 0.64114 2.3068 0.9658 3.129 0.1095 0.27732 0.33925 0.45322 0.59231 0.45322 0.00241 0 0.00478-2.3e-5 0.00718-4.6e-5 0.73828-0.0097 2.5863-0.04768 3.1971-0.19586 0 2.2e-5 -3.1203-3.7626-4.3911-3.7626z" fill="#594759"/>
   <path d="m9.0503 21.403c-0.12738 0-0.24084-0.08694-0.29609-0.22694l-0.00135-0.0034c-0.09322-0.23612-0.15697-0.48808-0.18895-0.74697-0.055698-0.45074-0.074487-0.8876-0.016705-0.97872 0.094932-0.14972 0.52169-0.13961 0.99077-0.04578 0.10786 0.02157 0.21003 0.07338 0.29668 0.15423 0.51136 0.47721 1.0394 1.026 1.5059 1.5443 0.06919 0.07686 0.02889 0.21712-0.06476 0.22369-0.56701 0.03985-1.3322 0.06779-2.2255 0.07954z" fill="#ffaa41"/>
   <ellipse cx="8.2312" cy="18.714" rx=".30792" ry=".3735" fill="#be824b"/>
   <path d="m9.1755 23.656c-0.24699-0.60632-0.072794-0.92573-0.29949-1.3534-0.024167 0.03105-0.047773 0.0628-0.070004 0.09595-0.2395 0.35689-0.39686 1.3114 0.16423 2.1911 0.50242 0.78777 1.5396 1.0084 1.9707 0.79677 0.10827-0.05316 0.23431-0.22403 0.3646-0.45606-0.84148 0.16369-1.7517-0.3459-2.13-1.2744z" fill="#594759"/>
   <path d="m9.8347 19.555c-0.086654-0.08085-0.18882-0.13266-0.29668-0.15423-0.40739-0.0815-0.78219-0.09949-0.93609-0.0048 0.89535 0.52825 2.0394 1.4847 2.5604 1.9344 0.03788-0.0025 0.07724-0.0048 0.11352-0.0074 0.09367-0.0066 0.13394-0.14681 0.06476-0.22369-0.46644-0.5183-0.99451-1.0671-1.5059-1.5443z" fill="#be824b"/>
   <path d="m12.347 21.615 2.5762 0.08715s0.48683 0.26022 0.78005 0.69719c0.2395 0.35689 0.39686 1.3114-0.16423 2.1911-0.50242 0.78777-1.5396 1.0084-1.9706 0.79677-0.48138-0.23632-1.3138-2.7887-1.3138-2.7887z" fill="#ffaa41"/>
   <path d="m12.31 22.003 0.03652-0.38882 2.5762 0.08715s0.06295 0.03389 0.15653 0.09676c-0.82646 0.09996-1.9971 0.49907-2.7693 0.20491z" fill="#be824b"/>
   <path d="m12.255 21.605c0.6108 0.14818 2.4588 0.18612 3.1971 0.19586 0.0024 2.3e-5 0.0048 4.5e-5 0.0072 4.5e-5 0.25306 0 0.48281-0.17589 0.5923-0.45322 0.32466-0.82216 0.9658-2.5226 0.9658-3.129 0-0.1992-0.10221-0.30856-0.17792-0.3403-0.05827-0.02442-0.12297-0.03597-0.19345-0.03597-1.2707 0-4.391 3.7626-4.391 3.7626z" fill="#594759"/>
   <path d="m13.233 21.323c-0.09367-0.0066-0.13394-0.14683-0.06476-0.22369 0.46646-0.51832 0.99452-1.0671 1.5059-1.5443 0.08665-0.08085 0.18884-0.13266 0.29668-0.15423 0.46908-0.09383 0.89582-0.10394 0.99077 0.04579 0.05778 0.09114 0.03897 0.528-0.0167 0.97871-0.03198 0.25891-0.09573 0.51085-0.18895 0.74697l-0.0013 0.0034c-0.05525 0.13999-0.16871 0.22694-0.29609 0.22694-0.89336-0.01178-1.6585-0.03972-2.2255-0.07954z" fill="#ffaa41"/>
   <ellipse cx="16.278" cy="18.714" rx=".30792" ry=".3735" fill="#be824b"/>
   <ellipse cx="15.62" cy="18.869" rx=".16066" ry=".19487" fill="#908490"/>
   <ellipse cx="16.331" cy="19.496" rx=".12933" ry=".15687" fill="#908490"/>
   <path d="m15.334 23.656c0.24699-0.60632 0.07279-0.92573 0.29949-1.3534 0.02417 0.03105 0.04777 0.0628 0.07 0.09595 0.2395 0.35689 0.39686 1.3114-0.16423 2.1911-0.50242 0.78777-1.5396 1.0084-1.9706 0.79677-0.10827-0.05316-0.23431-0.22403-0.3646-0.45606 0.84148 0.16369 1.7517-0.3459 2.13-1.2744z" fill="#594759"/>
   <path d="m14.675 19.555c0.08665-0.08085 0.18882-0.13266 0.29668-0.15423 0.40739-0.0815 0.78219-0.09949 0.93609-0.0048-0.89535 0.52825-2.0394 1.4847-2.5604 1.9344-0.03788-0.0025-0.07724-0.0048-0.11352-0.0074-0.09367-0.0066-0.13394-0.14681-0.06476-0.22369 0.46644-0.5183 0.99451-1.0671 1.5059-1.5443z" fill="#be824b"/>
   <path d="m12.255 21.303c-0.02839 0-0.05469-0.01771-0.06961-0.04678l-0.8211-1.5936c-0.02405-0.04669-0.01235-0.10815 0.02614-0.13724 0.03815-0.02909 0.08917-0.01516 0.11307 0.03161l0.75151 1.4585 0.75149-1.4584c0.02422-0.04678 0.07521-0.06068 0.11307-0.03161 0.03849 0.02909 0.05019 0.09055 0.02614 0.13724l-0.82111 1.5936c-0.0149 0.02906-0.04121 0.04676-0.06959 0.04676z" fill="#908490"/>
   <path d="m12.255 24.59c-0.09077 0-0.16423-0.0892-0.16423-0.1992v-1.992c0-0.11 0.07345-0.1992 0.16423-0.1992 0.09076 0 0.16423 0.0892 0.16423 0.1992v1.992c0 0.11-0.07346 0.1992-0.16423 0.1992z" fill="#463246"/>
   <path d="m12.255 21.901c-0.13599 0-0.24632-0.13374-0.24632-0.29878v-0.39839c0-0.16506 0.11034-0.29878 0.24632-0.29878s0.24632 0.13374 0.24632 0.29878v0.39839c0 0.16506-0.11034 0.29878-0.24632 0.29878z" fill="#463246"/>
   <path d="m12.255 22.598c-0.1814 0-0.32844-0.17836-0.32844-0.39839v-0.39839c0-0.22003 0.14704-0.39839 0.32844-0.39839s0.32844 0.17836 0.32844 0.39839v0.39839c0 0.22003-0.14704 0.39839-0.32844 0.39839z" fill="#594759"/>
   <ellipse cx="8.8898" cy="18.869" rx=".16066" ry=".19487" fill="#908490"/>
   <ellipse cx="8.1784" cy="19.496" rx=".12933" ry=".15687" fill="#908490"/>
  </g>
 </g>
</svg>
