<?xml version="1.0" encoding="UTF-8"?>
<svg width="64" height="64" version="1.1" viewBox="0 0 64 64" xmlns="http://www.w3.org/2000/svg">
 <defs>
  <linearGradient id="linearGradient4402" x1="14.806" x2="14.806" y1="8.4554" y2="51.189" gradientUnits="userSpaceOnUse">
   <stop stop-color="#ff4b00" offset="0"/>
   <stop stop-color="#f50f2d" offset="1"/>
  </linearGradient>
  <linearGradient id="linearGradient14061" x1="19.16" x2="60" y1="37.768" y2="37.768" gradientUnits="userSpaceOnUse">
   <stop stop-color="#15c3fc" offset="0"/>
   <stop stop-color="#1869ef" offset="1"/>
  </linearGradient>
  <linearGradient id="linearGradient1005-9" x1=".73911" x2="16.388" y1="16.296" y2=".64687" gradientTransform="matrix(3.7795 0 0 3.7795 -.13213 .025328)" gradientUnits="userSpaceOnUse">
   <stop stop-color="#cfdade" offset="0"/>
   <stop stop-color="#eaeff2" offset="1"/>
  </linearGradient>
 </defs>
 <path d="m62 32c0 3.5964-0.63304 7.0444-1.7939 10.24-0.80695 2.2212-1.8686 4.3212-3.1519 6.2636-0.53753 0.8167-1.1155 1.6054-1.729 2.3633-1.964 2.4257-4.2982 4.5382-6.9182 6.2522-0.9649 0.63184-1.9678 1.2098-3.0061 1.7277-4.0321 2.0179-8.5839 3.1529-13.401 3.1529-4.8171 0-9.3689-1.1351-13.401-3.153-1.0384-0.51799-2.0425-1.0959-3.0074-1.7277-2.6535-1.7376-5.0155-3.8832-6.9953-6.349-0.61464-0.76408-1.1914-1.56-1.729-2.384-1.249-1.9102-2.2836-3.9712-3.0746-6.1494-1.1607-3.1948-1.7926-6.6415-1.7926-10.237 0-16.569 13.431-30 30-30 8.317 0 15.843 3.3845 21.277 8.8503 1.5661 1.5746 2.9584 3.3233 4.1436 5.214 1.1204 1.7804 2.0571 3.6881 2.7857 5.6951 1.161 3.1959 1.794 6.6442 1.794 10.24z" fill="url(#linearGradient1005-9)" image-rendering="optimizeSpeed" stroke-width=".11719"/>
 <g transform="matrix(.625 0 0 .625 12 12)">
  <path d="m14.495 53.901h-10.495v-48.09h29.366v13.811h-18.872v8.2092h7.6457v7.2179h-7.6457z" fill="url(#linearGradient4402)" stroke-width="1.408" style="isolation:isolate"/>
  <path d="m36.538 17.462c-0.2216 0.0045-0.35252 0.18869-0.39001 0.40713l-1.15 6.6993a13.978 13.978 0 0 0-2.048 0.90661l-5.7263-3.6777c-0.18623-0.11908-0.41226-0.14774-0.56535 0.01239l-3.5876 3.7502c-0.15309 0.1601-0.11481 0.38549 0.01239 0.56536l3.9182 5.5473a13.978 13.978 0 0 0-0.79672 2.0919l-6.6544 1.4449c-0.21689 0.04784-0.39451 0.18553-0.39001 0.40713l0.11328 5.194c0.0045 0.2216 0.18867 0.35251 0.40713 0.39001l6.6993 1.15a13.978 13.978 0 0 0 0.90661 2.048l-3.6777 5.7263c-0.11909 0.1862-0.14776 0.41226 0.01239 0.56535l3.7502 3.5876c0.1601 0.15309 0.3855 0.1148 0.56535-0.01239l5.5473-3.9182a13.978 13.978 0 0 0 2.0919 0.79673l1.4449 6.6544c0.04789 0.21692 0.18553 0.39451 0.40713 0.39001l5.194-0.11329c0.2216-0.0045 0.35251-0.18867 0.39001-0.40713l1.15-6.6993a13.978 13.978 0 0 0 2.048-0.90661l5.7263 3.6777c0.1862 0.11909 0.41226 0.14776 0.56535-0.01239l3.5876-3.7502c0.1531-0.16012 0.1148-0.3855-0.01239-0.56536l-3.9182-5.5473a13.978 13.978 0 0 0 0.79672-2.0919l6.6544-1.4449c0.21689-0.04785 0.39451-0.18553 0.39001-0.40713l-0.11328-5.194c-0.0045-0.2216-0.18867-0.35251-0.40713-0.39001l-6.6993-1.15a13.978 13.978 0 0 0-0.90661-2.048l3.6777-5.7263c0.11909-0.18623 0.14776-0.41226-0.01239-0.56535l-3.7502-3.5876c-0.1601-0.15309-0.3855-0.1148-0.56535 0.01239l-5.5473 3.9182a13.978 13.978 0 0 0-2.0919-0.79674l-1.4449-6.6544c-0.04784-0.21689-0.18553-0.39451-0.40714-0.38999zm2.9134 14.316a5.9904 5.9904 0 0 1 6.1201 5.8564 5.9904 5.9904 0 0 1-5.8564 6.1201 5.9904 5.9904 0 0 1-6.1201-5.8564 5.9904 5.9904 0 0 1 5.8564-6.1201z" fill="url(#linearGradient14061)" stroke-width="2.2774"/>
 </g>
</svg>
