<?xml version="1.0" encoding="UTF-8" standalone="no"?>
<svg
   xmlns:dc="http://purl.org/dc/elements/1.1/"
   xmlns:cc="http://creativecommons.org/ns#"
   xmlns:rdf="http://www.w3.org/1999/02/22-rdf-syntax-ns#"
   xmlns:svg="http://www.w3.org/2000/svg"
   xmlns="http://www.w3.org/2000/svg"
   xmlns:xlink="http://www.w3.org/1999/xlink"
   xmlns:sodipodi="http://sodipodi.sourceforge.net/DTD/sodipodi-0.dtd"
   xmlns:inkscape="http://www.inkscape.org/namespaces/inkscape"
   width="64"
   height="64"
   version="1.1"
   id="svg32"
   sodipodi:docname="geany.svg"
   inkscape:version="1.0.1 (3bc2e813f5, 2020-09-07)">
  <sodipodi:namedview
     pagecolor="#ffffff"
     bordercolor="#666666"
     borderopacity="1"
     objecttolerance="10"
     gridtolerance="10"
     guidetolerance="10"
     inkscape:pageopacity="0"
     inkscape:pageshadow="2"
     inkscape:window-width="1920"
     inkscape:window-height="935"
     id="namedview34"
     showgrid="false"
     inkscape:zoom="6.0546875"
     inkscape:cx="7.8259959"
     inkscape:cy="37.155681"
     inkscape:window-x="0"
     inkscape:window-y="38"
     inkscape:window-maximized="1"
     inkscape:current-layer="svg32"
     inkscape:document-rotation="0" />
  <metadata
     id="metadata2">
    <rdf:RDF>
      <cc:Work
         rdf:about="">
        <dc:format>image/svg+xml</dc:format>
        <dc:type
           rdf:resource="http://purl.org/dc/dcmitype/StillImage" />
        <dc:title></dc:title>
      </cc:Work>
    </rdf:RDF>
  </metadata>
  <defs
     id="defs22">
    <linearGradient
       inkscape:collect="always"
       id="linearGradient873">
      <stop
         style="stop-color:#1c2d44;stop-opacity:1"
         offset="0"
         id="stop869" />
      <stop
         style="stop-color:#334057;stop-opacity:1"
         offset="1"
         id="stop871" />
    </linearGradient>
    <linearGradient
       id="a"
       x1="99.036"
       x2="99.036"
       y1="-.50472"
       y2="199.84"
       gradientTransform="matrix(0.3,0,0,0.3,93.494556,2.0015)"
       gradientUnits="userSpaceOnUse">
      <stop
         stop-color="#ffc731"
         offset="0"
         id="stop4" />
      <stop
         stop-color="#ffc831"
         offset=".5"
         id="stop6" />
      <stop
         stop-color="#efff2e"
         offset="1"
         id="stop8" />
    </linearGradient>
    <filter
       id="c"
       x="-.036"
       y="-.036"
       width="1.072"
       height="1.072"
       color-interpolation-filters="sRGB">
      <feGaussianBlur
         stdDeviation="14.059863"
         id="feGaussianBlur11" />
    </filter>
    <linearGradient
       id="linearGradient4572"
       x1="33.820999"
       x2="33.820999"
       y1="43.692001"
       y2="20.308001"
       gradientUnits="userSpaceOnUse"
       xlink:href="#a">
      <stop
         stop-color="#d11628"
         offset="0"
         id="stop14" />
      <stop
         stop-color="#ff2919"
         offset="1"
         id="stop16" />
    </linearGradient>
    <filter
       id="filter4592"
       x="-.048461"
       y="-.078752"
       width="1.0969"
       height="1.1575"
       color-interpolation-filters="sRGB">
      <feGaussianBlur
         stdDeviation="0.76729678"
         id="feGaussianBlur19" />
    </filter>
    <filter
       id="b"
       x="-.036"
       y="-.036"
       width="1.072"
       height="1.072"
       color-interpolation-filters="sRGB">
      <feGaussianBlur
         stdDeviation="0.23812032"
         id="feGaussianBlur2" />
    </filter>
    <linearGradient
       id="a-3"
       x1="8.4665"
       x2="8.4665"
       y1=".52915"
       y2="16.404"
       gradientUnits="userSpaceOnUse"
       gradientTransform="translate(19.451456)">
      <stop
         stop-color="#1c2d44"
         offset="0"
         id="stop5" />
      <stop
         stop-color="#334057"
         offset="1"
         id="stop7" />
    </linearGradient>
    <linearGradient
       id="linearGradient1056"
       x1="-170.14"
       x2="-177.47"
       y1="-1.3647"
       y2="-8.5413"
       gradientTransform="translate(169.34311,16.756286)"
       gradientUnits="userSpaceOnUse">
      <stop
         stop-color="#0096ff"
         offset="0"
         id="stop857" />
      <stop
         stop-color="#00dcff"
         offset="1"
         id="stop859" />
    </linearGradient>
    <linearGradient
       id="linearGradient1058"
       x1="-184.75"
       x2="-170.19"
       y1="-8.5413"
       y2="-15.811"
       gradientTransform="translate(169.34311,16.756286)"
       gradientUnits="userSpaceOnUse">
      <stop
         stop-color="#505f64"
         offset="0"
         id="stop862" />
      <stop
         stop-color="#647378"
         offset="1"
         id="stop864" />
    </linearGradient>
    <filter
       id="filter1255"
       x="-.06"
       y="-.06"
       width="1.12"
       height="1.12"
       color-interpolation-filters="sRGB">
      <feGaussianBlur
         stdDeviation="0.064633745"
         id="feGaussianBlur867" />
    </filter>
    <filter
       id="filter1269"
       x="-.06"
       y="-.06"
       width="1.12"
       height="1.12"
       color-interpolation-filters="sRGB">
      <feGaussianBlur
         stdDeviation="0.082435125"
         id="feGaussianBlur870" />
    </filter>
    <filter
       id="filter1287"
       x="-.051958"
       y="-.070988"
       width="1.1039"
       height="1.142"
       color-interpolation-filters="sRGB">
      <feGaussianBlur
         stdDeviation="0.07138584"
         id="feGaussianBlur873" />
    </filter>
    <filter
       id="filter959"
       x="-.037149"
       y="-.14184"
       width="1.0743"
       height="1.2837"
       color-interpolation-filters="sRGB">
      <feGaussianBlur
         stdDeviation="0.051039421"
         id="feGaussianBlur876" />
    </filter>
    <linearGradient
       inkscape:collect="always"
       xlink:href="#a"
       id="linearGradient938"
       x1="14.821255"
       y1="32.000164"
       x2="52.82077"
       y2="32.000164"
       gradientUnits="userSpaceOnUse" />
    <linearGradient
       inkscape:collect="always"
       xlink:href="#linearGradient873"
       id="linearGradient875"
       x1="-30.279839"
       y1="2.3603477"
       x2="-30.279839"
       y2="61.998287"
       gradientUnits="userSpaceOnUse"
       gradientTransform="translate(63.415005)" />
  </defs>
  <circle
     style="fill:url(#linearGradient875);fill-opacity:1;stroke-width:3.40689;stroke-linecap:round;stroke-linejoin:round;paint-order:stroke fill markers"
     id="path867"
     cx="32"
     cy="32"
     r="30" />
  <path
     d="m25 43.692c0.33139-1.3566 1.4032-2.3404 2.3353-3.1327 0.611-0.39353 0.64207-0.71974 0.15016-0.94757-2.4854-1.1443-4.5307-1.8537-6.5864-2.9773-3.4796-1.9314-5.4731-4.7327-6.0013-8.4297-0.10874-0.88543-0.10874-1.8071 0.0466-2.4544 0.2123-0.46084 0.6576-0.73527 1.1858-0.73527 0.33657 0 0.53333 0.07767 1.4757 0.60065 2.1489 1.1858 4.2511 2.1281 5.3488 2.4026 0.45048 0.10874 0.49709 0.10874 0.75081-0.03107 1.2116-0.66796 2.1489-1.6828 2.5683-1.833h9.631c3.3605 3.5883 8.0673 4.567 12.142 2.387 1.0822-0.63689 1.7294-1.2893 2.0815-2.387h2.6925c0 0.20194-0.55922 1.688-0.95793 2.2214-1.2841 1.7191-3.2828 3.1068-6.3171 4.3806-4.3547 2.1644-7.2854 5.1262-11.045 6.8556-0.73009 0.36764-0.12427 0.57993 0.19158 0.94239 1.0149 0.9165 1.745 1.89 2.0815 3.1327m-14.048-9.631-0.66278-3.2984c-0.05696-0.03625-0.33657-0.14498-0.62654-0.23819-0.57476-0.18641-2.0815-0.81294-2.7391-1.1443-0.48673-0.24336-0.75081-0.26926-0.75081-0.07249 0 0.2589 0.60582 1.4602 1.0511 2.0919 0.49191 0.69385 1.0356 1.2479 1.7812 1.8226 0.68867 0.52298 1.5948 1.0615 1.8019 1.0615 0.15534 0 0.17087-0.03107 0.13981-0.21748zm4.0388-9.3618c0.03107-0.05696 0.35728-0.67832 0.72492-1.2738 1.5327-2.4595 2.2421-3.112 3.3916-3.112 1.0977 0 1.8744 0.69385 3.3294 2.998 0.45566 0.71456 0.8233 1.3618 0.8233 1.3877z"
     filter="url(#filter4592)"
     opacity=".15"
     stroke-width="5.178"
     id="path28" />
  <path
     d="m25 43.692c0.33139-1.3566 1.4032-2.3404 2.3353-3.1327 0.611-0.39353 0.64207-0.71974 0.15016-0.94757-2.4854-1.1443-4.5307-1.8537-6.5864-2.9773-3.4796-1.9314-5.4731-4.7327-6.0013-8.4297-0.10874-0.88543-0.10874-1.8071 0.0466-2.4544 0.2123-0.46084 0.6576-0.73527 1.1858-0.73527 0.33657 0 0.53333 0.07767 1.4757 0.60065 2.1489 1.1858 4.2511 2.1281 5.3488 2.4026 0.45048 0.10874 0.49709 0.10874 0.75081-0.03107 1.2116-0.66796 2.1489-1.6828 2.5683-1.833h9.631c3.3605 3.5883 8.0673 4.567 12.142 2.387 1.0822-0.63689 1.7294-1.2893 2.0815-2.387h2.6925c0 0.20194-0.55922 1.688-0.95793 2.2214-1.2841 1.7191-3.2828 3.1068-6.3171 4.3806-4.3547 2.1644-7.2854 5.1262-11.045 6.8556-0.73009 0.36764-0.12427 0.57993 0.19158 0.94239 1.0149 0.9165 1.745 1.89 2.0815 3.1327m-14.048-9.631-0.66278-3.2984c-0.05696-0.03625-0.33657-0.14498-0.62654-0.23819-0.57476-0.18641-2.0815-0.81294-2.7391-1.1443-0.48673-0.24336-0.75081-0.26926-0.75081-0.07249 0 0.2589 0.60582 1.4602 1.0511 2.0919 0.49191 0.69385 1.0356 1.2479 1.7812 1.8226 0.68867 0.52298 1.5948 1.0615 1.8019 1.0615 0.15534 0 0.17087-0.03107 0.13981-0.21748zm4.0388-9.3618c0.03107-0.05696 0.35728-0.67832 0.72492-1.2738 1.5327-2.4595 2.2421-3.112 3.3916-3.112 1.0977 0 1.8744 0.69385 3.3294 2.998 0.45566 0.71456 0.8233 1.3618 0.8233 1.3877z"
     fill="url(#linearGradient4572)"
     stroke-width="5.178"
     id="path30"
     style="fill-opacity:1.0;fill:url(#linearGradient938)" />
</svg>
