<?xml version="1.0" encoding="UTF-8"?>
<svg id="Flamingo" width="64" height="64" enable-background="new 0 0 1024 1024" image-rendering="optimizeSpeed" version="1.1" viewBox="0 0 64 64" xmlns="http://www.w3.org/2000/svg" xmlns:cc="http://creativecommons.org/ns#" xmlns:dc="http://purl.org/dc/elements/1.1/" xmlns:rdf="http://www.w3.org/1999/02/22-rdf-syntax-ns#" xmlns:xlink="http://www.w3.org/1999/xlink">
 <metadata>
  <rdf:RDF>
   <cc:Work rdf:about="">
    <dc:format>image/svg+xml</dc:format>
    <dc:type rdf:resource="http://purl.org/dc/dcmitype/StillImage"/>
   </cc:Work>
  </rdf:RDF>
 </metadata>
 <defs>
  <linearGradient id="linearGradient1394" x1="-9.4731" x2="-9.4731" y1="16.326" y2=".57806" gradientTransform="matrix(3.7796 0 0 3.7796 110.4 31.138)" gradientUnits="userSpaceOnUse">
   <stop stop-color="#d0dff0" offset="0"/>
   <stop stop-color="#f5faff" offset="1"/>
  </linearGradient>
 </defs>
 <g transform="translate(-41.322 -31.138)">
  <circle cx="73.322" cy="63.138" r="30" fill="url(#linearGradient1394)" image-rendering="optimizeSpeed" stroke-linecap="round" stroke-width=".83649"/>
  <path d="m68.436 43.442c-0.36286 0.25531-0.46049 0.64717-0.47006 1.1072-0.01777 0.85382 0.31775 1.912 0.48829 2.3098 0 0 0.17239 4.6029 0.25084 5.1302-0.80555 0.04895-2.2365 0.0849-2.7753 0.20508l-0.71481-0.01488c-1.5204 0.03428-2.9513 0.07003-3.5865 0.51667l-0.27217 0.19145 0.2626 0.26829c0.43855 0.40334 0.59406 1.5236 0.74816 2.7096 0.39619 2.4392 0.86945 5.4715 3.5255 6.7097l0.53202 0.20818 0.0096-0.45973s0.09361-0.19516 0.09907-0.45787c0.0041-0.19702-0.07858-0.52728-0.15812-0.98887 0.71344 0.08055 2.2297 0.2435 2.7657 0.25466 0.07851 0.52737 1.9562 21.988 1.9562 21.988l0.89366 0.01859s1.4229-21.126 1.4366-21.784c0.62544 0.01302 3.394 0.13628 4.1969 0.21876-0.18669 0.3904-0.93563 2.0175-0.93563 2.0175l1.2684-0.82771c0.36149-0.18983 8.2429-5.2163 7.2438-8.654-0.33614-1.124-1.5696-1.9382-3.6178-2.3748l-0.17912-0.0038c-1.1616-0.02417-4.7372-0.03287-7.4206 0.04271 0.12511-1.7057 0.14424-2.6252 0.15381-3.0851l0.0123-0.59111c0.0068-0.3284 0.46314-0.77884 0.82742-1.0998 0.36562-0.38661 0.81925-0.70571 0.82745-1.0998 0.0027-0.13138-0.08405-0.26457-0.17041-0.39776-0.52238-0.6025-4.4225-2.195-6.1174-2.3615-0.53763 0.05432-0.89639 0.11278-1.0794 0.30591zm-0.13457 10.773 0.44674 0.0092c-0.0123 0.59111 0.16968 4.7342 0.24671 5.327-0.71341-0.08076-2.4082-0.24746-2.9444-0.25861-0.25057-0.85932-0.32048-1.7809-0.3908-2.702-0.07304-0.79011-0.14569-1.5802-0.30955-2.3063 0.80419 0.01673 2.9514-0.07002 2.9514-0.07002zm5.4083 2.149s0.12208-1.5744 0.13302-2.0998c1.1588 0.15554 2.6764 0.2528 4.106 0.28254l1.6084 0.03346c-0.0055 0.26271-0.10184 0.58925-0.10184 0.58925-0.20867 1.4412-0.51234 3.1431-1.3521 4.834-0.53608-0.01118-3.8393-0.21132-4.5529-0.29184 0.0096-0.45973 0.15923-3.3477 0.15923-3.3477z" fill="#e64c4c" stroke-width="1.1413"/>
 </g>
</svg>
