<?xml version="1.0" encoding="UTF-8"?>
<svg id="Flamingo" width="64" height="64" enable-background="new 0 0 1024 1024" image-rendering="optimizeSpeed" version="1.1" viewBox="0 0 64 64" xmlns="http://www.w3.org/2000/svg" xmlns:cc="http://creativecommons.org/ns#" xmlns:dc="http://purl.org/dc/elements/1.1/" xmlns:rdf="http://www.w3.org/1999/02/22-rdf-syntax-ns#" xmlns:xlink="http://www.w3.org/1999/xlink">
 <metadata>
  <rdf:RDF>
   <cc:Work rdf:about="">
    <dc:format>image/svg+xml</dc:format>
    <dc:type rdf:resource="http://purl.org/dc/dcmitype/StillImage"/>
   </cc:Work>
  </rdf:RDF>
 </metadata>
 <defs>
  <linearGradient id="linearGradient1394" x1="-9.4731" x2="-9.4731" y1="16.326" y2=".57806" gradientTransform="matrix(3.7796 0 0 3.7796 118.71 35.055)" gradientUnits="userSpaceOnUse">
   <stop stop-color="#d0dff0" offset="0"/>
   <stop stop-color="#f5faff" offset="1"/>
  </linearGradient>
  <linearGradient id="linearGradient908" x1="225.9" x2="222.17" y1="459.72" gradientTransform="matrix(-.067899 -.00025908 -.00025908 .067899 97.902 50.87)" gradientUnits="userSpaceOnUse" xlink:href="#linearGradient4179"/>
  <linearGradient id="linearGradient4179">
   <stop stop-color="#e02d2d" offset="0"/>
   <stop stop-color="#f75151" offset="1"/>
  </linearGradient>
 </defs>
 <g transform="translate(-49.625 -35.055)">
  <circle cx="81.625" cy="67.055" r="30" fill="url(#linearGradient1394)" stroke-linecap="round" stroke-width=".83649"/>
  <g fill="url(#linearGradient908)" stroke-width=".067899">
   <path d="m86.176 50.825c1.5327 0.0058 2.8419 0.91853 3.4463 2.2229 0.61375-1.2997 1.9298-2.2024 3.4626-2.1965 2.111 0.0081 3.8128 2.4936 3.8047 4.604-0.01752 4.5904-7.3089 8.4931-7.3089 8.4931s-7.262-3.9582-7.2445-8.5486c0.0081-2.1104 1.7288-4.5829 3.8398-4.5748z"/>
   <path d="m89.572 66.411s7.2614 3.9581 7.2439 8.5487c-0.0081 2.1104-1.7288 4.5828-3.8397 4.5748-0.61564-0.0023-1.1932-0.15291-1.7039-0.41621-0.14441-0.0745-0.31927-0.05248-0.44054 0.05583-0.1208 0.10777-0.16267 0.27926-0.10567 0.43096l1.0026 2.6492c0.08833 0.23425 0.05615 0.4971-0.08661 0.70298-0.14283 0.20587-0.37776 0.32862-0.62851 0.32766l-3.0123-0.01149c-0.25082-9.6e-4 -0.48473-0.12543-0.62599-0.33245-0.14126-0.20695-0.17135-0.47011-0.08124-0.70361l1.0228-2.6415c0.05816-0.15126 0.0176-0.32307-0.10238-0.43176-0.12052-0.10869-0.2952-0.13265-0.44017-0.05919-0.51261 0.25939-1.0914 0.40554-1.707 0.40319-2.111-0.0081-3.8128-2.4936-3.8047-4.6039 0.01745-4.5906 7.3094-8.4932 7.3094-8.4932z"/>
   <path d="m70.106 71.984c0.0052 2.7e-5 0.01 0.0016 0.01527 0.0017-0.41114-0.60248-0.65281-1.3293-0.64981-2.114 0.0079-2.0614 1.6848-3.7251 3.7451-3.7172 2.0614 0.0079 3.7256 1.6843 3.7177 3.7457-3e-3 0.78464-0.25027 1.5096-0.66593 2.1089 0.0048 1.3e-5 9e-3 -0.0016 0.01372-0.0016 2.0618 0.0079 3.726 1.6855 3.7182 3.7462-0.0079 2.0614-1.6848 3.7251-3.7466 3.7172-0.46042-0.0018-0.89946-0.08953-1.3044-0.24622-0.14435-0.05548-0.30771-0.02127-0.41744 0.08763-0.10973 0.1089-0.14519 0.2724-0.09027 0.41676l0.93203 2.4625c0.08833 0.2348 0.05615 0.49765-0.08668 0.70352-0.14276 0.20587-0.37769 0.32862-0.62844 0.32766l-3.0123-0.01149c-0.25075-9.53e-4 -0.48473-0.12543-0.62606-0.33245-0.14119-0.20695-0.1719-0.47011-0.08124-0.70362l0.9508-2.4564c0.05602-0.14394 0.02181-0.30771-0.08708-0.41744-0.1089-0.10973-0.27193-0.14519-0.41683-0.09027-0.40662 0.1536-0.84673 0.23801-1.3082 0.23628-2.0603-0.0079-3.7245-1.6843-3.7167-3.7457 0.0078-2.0608 1.6848-3.7256 3.7451-3.7177zm3.0825 1.6502c0.0042-0.0064 0.01009-0.01161 0.01486-0.01787-0.0053-2.1e-5 -0.01005 0.0015-0.01536 0.0014-0.0048-1.4e-5 -0.0095-0.0015-0.01425-0.0016 0.0047 0.0063 0.01056 0.01158 0.01473 0.01798z"/>
   <path d="m73.516 64.729c-0.07481 0.08364-0.18166 0.13124-0.29355 0.13081-0.1119-4.33e-4 -0.21845-0.04884-0.29255-0.13305l-5.8162-6.6129c-0.13136-0.1494-0.12996-0.37381 0.0036-0.52112l5.8662-6.4922c0.07419-0.08262 0.18057-0.12974 0.29192-0.12932 0.11135 4.21e-4 0.21737 0.04836 0.29092 0.13155l5.817 6.5363c0.13245 0.14887 0.13213 0.37327-4.97e-4 0.52167z"/>
  </g>
 </g>
</svg>
