<?xml version="1.0" encoding="UTF-8"?>
<svg id="Flamingo" width="64" height="64" enable-background="new 0 0 1024 1024" image-rendering="optimizeSpeed" version="1.1" viewBox="0 0 64 64" xmlns="http://www.w3.org/2000/svg" xmlns:cc="http://creativecommons.org/ns#" xmlns:dc="http://purl.org/dc/elements/1.1/" xmlns:rdf="http://www.w3.org/1999/02/22-rdf-syntax-ns#">
 <metadata>
  <rdf:RDF>
   <cc:Work rdf:about="">
    <dc:format>image/svg+xml</dc:format>
    <dc:type rdf:resource="http://purl.org/dc/dcmitype/StillImage"/>
    <dc:title/>
   </cc:Work>
  </rdf:RDF>
 </metadata>
 <defs>
  <linearGradient id="e" x1="239.39" x2="242.95" y1="-101.44" y2="-585.55" gradientTransform="matrix(1.2449 0 0 1.2449 218.38 -46.244)" gradientUnits="userSpaceOnUse">
   <stop stop-color="#17191d" offset="0"/>
   <stop stop-color="#535961" offset="1"/>
  </linearGradient>
  <linearGradient id="c" x1="540" x2="532.83" y1="4" y2="694.36" gradientTransform="matrix(.06356 0 0 .06356 -.54555 -.54555)" gradientUnits="userSpaceOnUse">
   <stop stop-color="#28b162" offset="0"/>
   <stop stop-color="#35e981" offset="1"/>
  </linearGradient>
  <linearGradient id="b" x1="32.213" x2="31.939" y1="62.062" y2="23.498" gradientUnits="userSpaceOnUse">
   <stop stop-color="#3a7af0" offset="0"/>
   <stop stop-color="#43adf1" offset="1"/>
  </linearGradient>
  <linearGradient id="a" x1="31.791" x2="32" y1="46.159" y2="2" gradientUnits="userSpaceOnUse">
   <stop stop-color="#e1e7f2" offset="0"/>
   <stop stop-color="#fff" offset="1"/>
  </linearGradient>
 </defs>
 <g transform="translate(5.8e-4,-2.47e-4)">
  <path d="m60.859 23.509c-0.1589-0.55615-0.34004-1.1186-0.53708-1.6748-0.40996-1.16-0.89937-2.2913-1.4714-3.41-0.24153-0.47034-0.5053-0.95022-0.78178-1.4237-1.2903-2.1928-2.911-4.2712-4.8528-6.2129-4.6144-4.6144-9.9884-7.4142-16.122-8.393-1.0328-0.16525-2.0848-0.27966-3.1812-0.34004-0.61653-0.034958-1.2617-0.054026-1.9131-0.054026-0.59428 0-1.1822 0.01589-1.7733 0.04767-7.5223 0.38771-14.002 3.3019-19.44 8.7394q-8.7871 8.7871-8.7871 21.213c0 8.285 2.9301 15.359 8.7871 21.216 5.4375 5.4343 11.917 8.3485 19.44 8.7394h0.02542c0.54026 0.0286 1.0551 0.04449 1.5572 0.04449h0.53708c0.54343-0.0064 1.0678-0.02542 1.5667-0.05085 0.1589-0.0095 0.30191-0.01907 0.44174-0.0286 1.2839-0.09216 2.536-0.25742 3.7309-0.48941 0.5053-0.09852 1.0042-0.20975 1.4873-0.32733 5.1356-1.2903 9.6706-3.9153 13.643-7.8877 3.089-3.089 5.3644-6.5148 6.8231-10.284 1.0551-2.7267 1.6875-5.6346 1.8909-8.7363 0.02225-0.33051 0.03814-0.67373 0.05085-1.0201 0.01271-0.38454 0.01907-0.7786 0.01907-1.1759v-0.19068c-0.01271-2.5837-0.31462-5.053-0.9089-7.4365-0.06992-0.27648-0.14936-0.57204-0.23199-0.86441z" fill="url(#b)" stroke-width=".9961"/>
  <path d="m32 2c-0.59428 0-1.1823 0.015095-1.7734 0.046875-7.5223 0.38771-14.002 3.3027-19.439 8.7402-5.8581 5.8581-8.7871 12.929-8.7871 21.213 0 2.5487 0.27951 4.9815 0.83398 7.3008l58.086-15.564c-0.02124-0.07718-0.03874-0.15137-0.06055-0.22852-0.1589-0.55615-0.34008-1.1177-0.53711-1.6738-0.40996-1.16-0.89867-2.2915-1.4707-3.4102-0.24153-0.47034-0.50672-0.95031-0.7832-1.4238-1.2903-2.1928-2.9098-4.2711-4.8516-6.2129-4.6144-4.6144-9.9896-7.4138-16.123-8.3926-1.0328-0.16525-2.0833-0.27946-3.1797-0.33984-0.61653-0.034958-1.2626-0.054688-1.9141-0.054688z" fill="url(#c)" stroke-width=".9961"/>
  <path d="m19.41 4.6738c-2.4308 1.1298-4.7133 2.6191-6.8477 4.4668l20.074 20.074-30.201 8.0898c0.44925 2.6927 1.248 5.2408 2.4043 7.6406l34.328-9.1992 0.42773-0.11524 22.318-5.9805c-0.12648-1.8097-0.39572-3.5666-0.82226-5.2773-0.06992-0.27648-0.1498-0.57286-0.23242-0.86524-0.1589-0.55615-0.34008-1.1177-0.53711-1.6738-4e-3 -0.01126-0.0097-0.02194-0.01367-0.0332l-18.748 5.0234-22.15-22.15z" fill="url(#a)" fill-rule="evenodd" style="paint-order:fill markers stroke"/>
 </g>
 <g transform="matrix(.047134 0 0 .047134 7.4508 54.291)" stroke-width=".94984">
  <path d="m520.84-775.21c-117.17 0-212.16 94.991-212.16 212.16 0 8.9696 0.71956 17.711 1.8163 26.377 18.129 165.72 196.57 356.73 196.57 356.73 3.1795 3.558 6.2445 5.7528 9.1962 7.3413l0.15188 0.0759 5.942 1.8923 5.942-1.8923 0.15188-0.0759c2.9517-1.5898 6.018-3.8978 9.1962-7.3413 0 0 175.87-191.34 193.58-357.1 1.0594-8.5526 1.779-17.22 1.779-26.038-0.0386-117.13-94.991-212.12-212.16-212.12zm0 348.63c-75.236 0-136.47-61.233-136.47-136.47s61.233-136.47 136.47-136.47 136.43 61.233 136.43 136.47-61.195 136.47-136.43 136.47z" fill="url(#e)" stroke-width=".94984"/>
 </g>
</svg>
