<?xml version="1.0" encoding="UTF-8" standalone="no"?>
<svg
   xmlns:dc="http://purl.org/dc/elements/1.1/"
   xmlns:cc="http://creativecommons.org/ns#"
   xmlns:rdf="http://www.w3.org/1999/02/22-rdf-syntax-ns#"
   xmlns:svg="http://www.w3.org/2000/svg"
   xmlns="http://www.w3.org/2000/svg"
   xmlns:xlink="http://www.w3.org/1999/xlink"
   xmlns:sodipodi="http://sodipodi.sourceforge.net/DTD/sodipodi-0.dtd"
   xmlns:inkscape="http://www.inkscape.org/namespaces/inkscape"
   id="Calculator"
   width="64"
   height="64"
   enable-background="new 0 0 1024 1024"
   image-rendering="optimizeSpeed"
   version="1.1"
   viewBox="0 0 64 64"
   sodipodi:docname="gnome-aisleriot.svg"
   inkscape:version="1.0 (4035a4fb49, 2020-05-01)">
  <metadata
     id="metadata23">
    <rdf:RDF>
      <cc:Work
         rdf:about="">
        <dc:format>image/svg+xml</dc:format>
        <dc:type
           rdf:resource="http://purl.org/dc/dcmitype/StillImage" />
        <dc:title></dc:title>
      </cc:Work>
    </rdf:RDF>
  </metadata>
  <sodipodi:namedview
     inkscape:guide-bbox="true"
     showguides="true"
     inkscape:document-rotation="0"
     pagecolor="#ffffff"
     bordercolor="#666666"
     borderopacity="1"
     objecttolerance="10"
     gridtolerance="10"
     guidetolerance="10"
     inkscape:pageopacity="0"
     inkscape:pageshadow="2"
     inkscape:window-width="1920"
     inkscape:window-height="949"
     id="namedview21"
     showgrid="false"
     inkscape:zoom="2.154466"
     inkscape:cx="-63.570422"
     inkscape:cy="11.516413"
     inkscape:window-x="0"
     inkscape:window-y="36"
     inkscape:window-maximized="1"
     inkscape:current-layer="Calculator" />
  <defs
     id="defs10">
    <linearGradient
       id="d"
       x1="520"
       x2="520"
       y1="4"
       y2="1024"
       gradientTransform="matrix(0.069456,0,0,0.069456,126.05539,-3.596)"
       gradientUnits="userSpaceOnUse">
      <stop
         id="stop2"
         stop-color="#202020"
         offset="0" />
      <stop
         id="stop4"
         stop-color="#565656"
         offset="1" />
    </linearGradient>
    <filter
       id="e"
       x="-.036"
       y="-.036"
       width="1.072"
       height="1.072"
       color-interpolation-filters="sRGB">
      <feGaussianBlur
         id="feGaussianBlur7"
         stdDeviation="14.343749" />
    </filter>
    <filter
       id="filter911"
       x="-.069001"
       y="-.053076"
       width="1.138"
       height="1.1062"
       color-interpolation-filters="sRGB">
      <feGaussianBlur
         id="feGaussianBlur913"
         stdDeviation="0.5750183" />
    </filter>
    <linearGradient
       id="linearGradient921"
       x1="14"
       x2="34.001"
       y1="24.006"
       y2="24.006"
       gradientUnits="userSpaceOnUse">
      <stop
         id="stop915"
         stop-color="#fff"
         offset="0" />
      <stop
         id="stop917"
         stop-color="#e6e6e6"
         offset="1" />
    </linearGradient>
    <linearGradient
       id="linearGradient3776">
      <stop
         style="stop-color:#e7f0f4;stop-opacity:1"
         offset="0"
         id="stop3778" />
      <stop
         style="stop-color:#f4faff;stop-opacity:1"
         offset="1"
         id="stop3780" />
    </linearGradient>
    <linearGradient
       id="linearGradient4179"
       inkscape:collect="always">
      <stop
         id="stop4181"
         offset="0"
         style="stop-color:#e02d2d;stop-opacity:1" />
      <stop
         id="stop4183"
         offset="1"
         style="stop-color:#f75151;stop-opacity:1" />
    </linearGradient>
    <linearGradient
       gradientTransform="matrix(-0.06789869,-2.5908438e-4,-2.5908438e-4,0.06789869,47.981237,15.698111)"
       inkscape:collect="always"
       xlink:href="#linearGradient4179"
       id="linearGradient908"
       gradientUnits="userSpaceOnUse"
       x1="225.9034"
       y1="459.71533"
       x2="222.16588"
       y2="0" />
    <linearGradient
       gradientTransform="matrix(-0.06789869,-2.5908438e-4,-2.5908438e-4,0.06789869,47.981237,15.698111)"
       inkscape:collect="always"
       xlink:href="#linearGradient4179"
       id="linearGradient910"
       gradientUnits="userSpaceOnUse"
       x1="225.9034"
       y1="459.71533"
       x2="222.16588"
       y2="0" />
    <linearGradient
       gradientTransform="matrix(-0.06789869,-2.5908438e-4,-2.5908438e-4,0.06789869,47.981237,15.698111)"
       inkscape:collect="always"
       xlink:href="#linearGradient4179"
       id="linearGradient912"
       gradientUnits="userSpaceOnUse"
       x1="225.9034"
       y1="459.71533"
       x2="222.16588"
       y2="0" />
    <linearGradient
       gradientTransform="matrix(-0.06789869,-2.5908438e-4,-2.5908438e-4,0.06789869,47.981237,15.698111)"
       inkscape:collect="always"
       xlink:href="#linearGradient4179"
       id="linearGradient914"
       gradientUnits="userSpaceOnUse"
       x1="225.9034"
       y1="459.71533"
       x2="222.16588"
       y2="0" />
    <linearGradient
       id="b">
      <stop
         id="stop2-3"
         offset="0"
         stop-color="#3af63a" />
      <stop
         id="stop4-6"
         offset="1"
         stop-color="#3af68b" />
    </linearGradient>
    <linearGradient
       id="a">
      <stop
         id="stop7"
         offset="0"
         stop-color="#a2a2a2" />
      <stop
         id="stop9"
         offset="1"
         stop-color="#d0d0d0" />
    </linearGradient>
    <filter
       color-interpolation-filters="sRGB"
       height="1.072"
       width="1.072"
       y="-.036"
       x="-.036"
       id="d-7">
      <feGaussianBlur
         id="feGaussianBlur12"
         stdDeviation="14.16" />
    </filter>
    <linearGradient
       gradientUnits="userSpaceOnUse"
       gradientTransform="matrix(1.0827,0,0,1.0827,84.626525,-1.4784)"
       y2="58.151"
       y1="2.9252"
       x2="18.792"
       x1="19.751"
       id="h">
      <stop
         id="stop15"
         offset="0"
         stop-color="#ff4949" />
      <stop
         id="stop17"
         offset="1"
         stop-color="#ff4c83" />
    </linearGradient>
    <linearGradient
       gradientTransform="translate(73.491525)"
       gradientUnits="userSpaceOnUse"
       y2="48"
       y1="16"
       x2="32"
       x1="32"
       id="g">
      <stop
         id="stop20"
         offset="0"
         stop-color="#333" />
      <stop
         id="stop22"
         offset="1"
         stop-color="#484848" />
    </linearGradient>
    <linearGradient
       xlink:href="#a"
       gradientUnits="userSpaceOnUse"
       gradientTransform="matrix(1.125,0,0,1.125,-78,-25.592)"
       y2="45.333"
       y1="40"
       x2="32"
       x1="32"
       id="f" />
    <linearGradient
       xlink:href="#a"
       gradientUnits="userSpaceOnUse"
       gradientTransform="matrix(1.125,0,0,1.125,-78,-15.999)"
       y2="45.333"
       y1="40"
       x2="32"
       x1="32"
       id="e-5" />
    <linearGradient
       xlink:href="#a"
       gradientUnits="userSpaceOnUse"
       gradientTransform="matrix(1.125,0,0,1.125,-78,-6.9994)"
       y2="45.333"
       y1="40"
       x2="32"
       x1="32"
       id="c" />
    <filter
       color-interpolation-filters="sRGB"
       height="1.12"
       width="1.12"
       y="-.06"
       x="-.06"
       id="m">
      <feGaussianBlur
         id="feGaussianBlur28"
         stdDeviation="0.8" />
    </filter>
    <filter
       color-interpolation-filters="sRGB"
       height="1.12"
       width="1.12"
       y="-.06"
       x="-.06"
       id="l">
      <feGaussianBlur
         id="feGaussianBlur31"
         stdDeviation="0.14999813" />
    </filter>
    <filter
       color-interpolation-filters="sRGB"
       height="1.12"
       width="1.12"
       y="-.06"
       x="-.06"
       id="o">
      <feGaussianBlur
         id="feGaussianBlur34"
         stdDeviation="0.14999813" />
    </filter>
    <filter
       color-interpolation-filters="sRGB"
       height="1.12"
       width="1.12"
       y="-.06"
       x="-.06"
       id="n">
      <feGaussianBlur
         id="feGaussianBlur37"
         stdDeviation="0.14999813" />
    </filter>
    <linearGradient
       gradientTransform="translate(73.491525)"
       xlink:href="#b"
       gradientUnits="userSpaceOnUse"
       y2="36"
       y1="20"
       x2="23.5"
       x1="23.5"
       id="k" />
    <linearGradient
       gradientTransform="translate(73.491525)"
       xlink:href="#b"
       gradientUnits="userSpaceOnUse"
       y2="36"
       y1="30"
       x2="32"
       x1="32"
       id="j" />
    <linearGradient
       gradientTransform="translate(73.491525)"
       gradientUnits="userSpaceOnUse"
       y2="36"
       y1="26"
       x2="40.5"
       x1="40.5"
       id="i">
      <stop
         id="stop42"
         offset="0"
         stop-color="#0ef1c9" />
      <stop
         id="stop44"
         offset="1"
         stop-color="#0e95f1" />
    </linearGradient>
    <filter
       id="d-6"
       x="-.036"
       y="-.036"
       width="1.072"
       height="1.072"
       color-interpolation-filters="sRGB">
      <feGaussianBlur
         stdDeviation="14.16"
         id="feGaussianBlur12-2" />
    </filter>
    <linearGradient
       id="g-9"
       x1="32"
       x2="32"
       y1="16"
       y2="48"
       gradientUnits="userSpaceOnUse"
       gradientTransform="translate(8.1857659,-4.7920084)">
      <stop
         stop-color="#333"
         offset="0"
         id="stop15-1" />
      <stop
         stop-color="#484848"
         offset="1"
         id="stop17-2" />
    </linearGradient>
    <filter
       id="m-7"
       x="-.06"
       y="-.06"
       width="1.12"
       height="1.12"
       color-interpolation-filters="sRGB">
      <feGaussianBlur
         stdDeviation="0.8"
         id="feGaussianBlur23" />
    </filter>
    <filter
       id="l-0"
       x="-.06"
       y="-.06"
       width="1.12"
       height="1.12"
       color-interpolation-filters="sRGB">
      <feGaussianBlur
         stdDeviation="0.14999813"
         id="feGaussianBlur26" />
    </filter>
    <filter
       id="o-9"
       x="-.06"
       y="-.06"
       width="1.12"
       height="1.12"
       color-interpolation-filters="sRGB">
      <feGaussianBlur
         stdDeviation="0.14999813"
         id="feGaussianBlur29" />
    </filter>
    <filter
       id="n-3"
       x="-.06"
       y="-.06"
       width="1.12"
       height="1.12"
       color-interpolation-filters="sRGB">
      <feGaussianBlur
         stdDeviation="0.14999813"
         id="feGaussianBlur32" />
    </filter>
    <linearGradient
       id="k-6"
       x1="23.5"
       x2="23.5"
       y1="20"
       y2="36"
       gradientUnits="userSpaceOnUse"
       xlink:href="#b"
       gradientTransform="translate(8.1857659,-4.7920084)" />
    <linearGradient
       id="j-0"
       x1="32"
       x2="32"
       y1="30"
       y2="36"
       gradientUnits="userSpaceOnUse"
       xlink:href="#b"
       gradientTransform="translate(8.1857659,-4.7920084)" />
    <linearGradient
       id="i-6"
       x1="40.5"
       x2="40.5"
       y1="26"
       y2="36"
       gradientUnits="userSpaceOnUse"
       gradientTransform="translate(8.1857659,-4.7920084)">
      <stop
         stop-color="#0ef1c9"
         offset="0"
         id="stop37" />
      <stop
         stop-color="#0e95f1"
         offset="1"
         id="stop39" />
    </linearGradient>
    <linearGradient
       id="h-2"
       x1="32"
       x2="32"
       y1="2"
       y2="62"
       gradientUnits="userSpaceOnUse"
       gradientTransform="translate(54.101695,-8)">
      <stop
         stop-color="#999"
         offset="0"
         id="stop42-6" />
      <stop
         stop-color="#bebebe"
         offset="1"
         id="stop44-1" />
    </linearGradient>
    <style
       id="style906"
       type="text/css" />
    <linearGradient
       gradientUnits="userSpaceOnUse"
       gradientTransform="matrix(0.99241,0.12302,-0.12302,0.99241,424.49969,39.144)"
       y2="60.157"
       y1="60.157"
       x2="-369.54"
       x1="-409.54"
       id="linearGradient1670">
      <stop
         id="stop908"
         offset="0"
         stop-color="#e3e9f2" />
      <stop
         id="stop910"
         offset="1"
         stop-color="#dee6f0" />
    </linearGradient>
    <linearGradient
       id="linearGradient863">
      <stop
         offset="0"
         stop-color="#f60"
         id="stop859" />
      <stop
         offset="1"
         stop-opacity="0"
         stop-color="#f60"
         id="stop861" />
    </linearGradient>
    <linearGradient
       gradientUnits="userSpaceOnUse"
       gradientTransform="matrix(1.3276,0,0,1.3276,-503.70358,-681.42047)"
       y2="498.89"
       y1="547.6"
       x2="407.94"
       x1="408.25"
       id="b-3">
      <stop
         offset="0"
         stop-color="#fff"
         id="stop2-6" />
      <stop
         offset="1"
         stop-color="#e6e6e6"
         id="stop4-7" />
    </linearGradient>
    <filter
       color-interpolation-filters="sRGB"
       height="1.1223"
       width="1.1178"
       y="-.061161"
       x="-.058883"
       id="d-5">
      <feGaussianBlur
         stdDeviation="10.562379"
         id="feGaussianBlur12-3" />
    </filter>
    <filter
       color-interpolation-filters="sRGB"
       height="1.072"
       width="1.072"
       y="-.036"
       x="-.036"
       id="c-5">
      <feGaussianBlur
         stdDeviation="0.88972449"
         id="feGaussianBlur15" />
    </filter>
    <linearGradient
       gradientUnits="userSpaceOnUse"
       gradientTransform="translate(-1.0711,-0.33699)"
       y2="14.844"
       y1="47.827"
       x2="32.42"
       x1="32.243"
       id="linearGradient867">
      <stop
         offset="0"
         stop-color="#ff4c1c"
         id="stop7-6" />
      <stop
         offset="1"
         stop-color="#ffbf25"
         id="stop9-2" />
    </linearGradient>
    <linearGradient
       xlink:href="#linearGradient863"
       gradientUnits="userSpaceOnUse"
       y2="29.802"
       y1="29.802"
       x2="48.336"
       x1="12.684"
       id="linearGradient869" />
    <linearGradient
       xlink:href="#linearGradient863"
       gradientUnits="userSpaceOnUse"
       gradientTransform="translate(-1.0711,-0.33699)"
       y2="29.802"
       y1="29.802"
       x2="48.336"
       x1="12.684"
       id="linearGradient871" />
    <filter
       color-interpolation-filters="sRGB"
       height="1.117"
       width="1.1231"
       y="-.05851"
       x="-.061568"
       id="filter908">
      <feGaussianBlur
         stdDeviation="0.74084545"
         id="feGaussianBlur910" />
    </filter>
    <linearGradient
       id="linearGradient1005-9"
       x1=".73911"
       x2="16.388"
       y1="16.296"
       y2=".64687"
       gradientTransform="matrix(3.7795,0,0,3.7795,-0.13143,0.0251)"
       gradientUnits="userSpaceOnUse">
      <stop
         stop-color="#cfdade"
         offset="0"
         id="stop874" />
      <stop
         stop-color="#eaeff2"
         offset="1"
         id="stop876" />
    </linearGradient>
    <clipPath
       id="clipPath13429">
      <path
         d="m481 318h22v22h-22z"
         id="path879" />
    </clipPath>
    <clipPath
       id="clipPath13465">
      <path
         d="m507 318h22v22h-22z"
         id="path882" />
    </clipPath>
    <clipPath
       id="clipPath13501">
      <path
         d="m530 318h22v22h-22z"
         id="path885" />
    </clipPath>
    <clipPath
       id="clipPath13753">
      <path
         d="m672 1064c0-1.105 4.925-2 11-2s11 0.895 11 2-4.925 2-11 2-11-0.895-11-2"
         id="path888-3" />
    </clipPath>
    <clipPath
       id="clipPath13771">
      <path
         d="m660 1057h51v65.001h-51z"
         id="path891" />
    </clipPath>
    <clipPath
       id="clipPath14035">
      <path
         d="m659 517h53v18h-53z"
         id="path894" />
    </clipPath>
    <clipPath
       id="clipPath14127">
      <path
         d="m659 500h53v18h-53z"
         id="path897" />
    </clipPath>
    <clipPath
       id="clipPath14445">
      <path
         d="m648 112h73v60h-73z"
         id="path900" />
    </clipPath>
    <clipPath
       id="clipPath14609">
      <path
         d="m826 1056h59v60h-59z"
         id="path903" />
    </clipPath>
    <clipPath
       id="clipPath15305">
      <path
         d="m805 276h100v100h-100z"
         id="path906" />
    </clipPath>
    <clipPath
       id="clipPath15341">
      <path
         d="m145 1063.8h74.152v45.21h-74.152z"
         id="path909" />
    </clipPath>
    <clipPath
       id="clipPath15715">
      <path
         d="m151 667h57v57h-57z"
         id="path912" />
    </clipPath>
    <clipPath
       id="clipPath15807">
      <path
         d="m154 697h51v51h-51z"
         id="path915" />
    </clipPath>
    <clipPath
       id="clipPath16001">
      <path
         d="m500.04 864.45h36.012v67.52h-36.012z"
         id="path918" />
    </clipPath>
    <clipPath
       id="clipPath16093">
      <path
         d="m836 870.54h47v55.539h-47z"
         id="path921" />
    </clipPath>
    <clipPath
       id="clipPath16477">
      <path
         d="m318.03 702.35h62.848v37.991h-62.848z"
         id="path924" />
    </clipPath>
    <clipPath
       id="clipPath16579">
      <path
         d="m485.03 133.35h62.847v37.991h-62.847z"
         id="path927" />
    </clipPath>
    <clipPath
       id="clipPath16709">
      <path
         d="m493.37 677.93h45.643v68.067h-45.643z"
         id="path930" />
    </clipPath>
    <clipPath
       id="clipPath24218">
      <path
         d="m144.34 1018.2h71.467v78h-71.467z"
         id="path933" />
    </clipPath>
    <clipPath
       id="clipPath24382">
      <path
         d="m293.21 1068.6 66.323-38.292 36.047 62.435-66.323 38.292z"
         id="path936" />
    </clipPath>
    <clipPath
       id="clipPath24650">
      <path
         d="m488.86 1054.5h10v10.706h-10z"
         id="path939" />
    </clipPath>
    <clipPath
       id="clipPath24700">
      <path
         d="m508 1066.8h10.001v10.705h-10.001z"
         id="path942" />
    </clipPath>
    <clipPath
       id="clipPath24750">
      <path
         d="m525 1045.8h10v10.706h-10z"
         id="path945" />
    </clipPath>
    <clipPath
       id="clipPath24864">
      <path
         d="m836 1043.7h25.5v31.5h-25.5z"
         id="path948" />
    </clipPath>
    <clipPath
       id="clipPath24896">
      <path
         d="m838 1062.2h24v24h-24z"
         id="path951" />
    </clipPath>
    <clipPath
       id="clipPath25070">
      <path
         d="m134 489.24h7v6h-7z"
         id="path954" />
    </clipPath>
    <clipPath
       id="clipPath25100">
      <path
         d="m216 489.24h7v6h-7z"
         id="path957" />
    </clipPath>
    <clipPath
       id="clipPath25502">
      <path
         d="m838 477.24h22v22h-22z"
         id="path960" />
    </clipPath>
    <clipPath
       id="clipPath25686">
      <path
         d="m704 1061.2h25v25h-25z"
         id="path963" />
    </clipPath>
    <clipPath
       id="clipPath25788">
      <path
         d="m663.04 1078.6-1.808-3.514-21.07-47.453c13.336-18.439 48.336-26.938 73.836-3.439 0.842 0 6.476 6.246 6 7l-18.386 25.895c-0.483 0.765-1.453 0.946-2.177 0.431l-15.505-11.011c-0.359-0.255-0.847-0.153-1.07 0.238l-18.272 31.869c-0.218 0.384-0.502 0.578-0.782 0.578-0.282 0-0.561-0.197-0.766-0.594"
         id="path966" />
    </clipPath>
    <clipPath
       id="clipPath26420">
      <path
         d="m127 820.24h100v100h-100z"
         id="path969" />
    </clipPath>
    <clipPath
       id="clipPath26860">
      <path
         d="m809 680.24c0-22.092 17.908-40 40-40s40 17.908 40 40c0 22.091-17.908 40-40 40s-40-17.909-40-40"
         id="path972" />
    </clipPath>
    <clipPath
       id="clipPath27506">
      <path
         d="m658 469.24h44v45h-44z"
         id="path975" />
    </clipPath>
    <clipPath
       id="clipPath27772">
      <path
         d="m651 271.24h58v58h-58z"
         id="path978" />
    </clipPath>
    <clipPath
       id="clipPath27864">
      <path
         d="m662 307.24h38v8h-38z"
         id="path981" />
    </clipPath>
    <clipPath
       id="clipPath28028">
      <path
         d="m858.98 137.24c0.013-0.101 0.021-0.203 0.021-0.307v-6.693h15.75c1.237 0 2.25-1.013 2.25-2.25v-11.25l-27-4.5-27 4.5v-2.25l27-4.5 27 4.5v-27c0-1.237-1.013-2.25-2.25-2.25h-49.5c-1.237 0-2.25 1.013-2.25 2.25v-4.25h54v54zm-35.979 0v-9.25c0 1.237 1.013 2.25 2.25 2.25h15.75v6.693c0 0.104 7e-3 0.207 0.02 0.307zm22.5-7h9v4.5h-9zm1.125-9c-0.62 0-1.125-0.506-1.125-1.125v-2.25c0-0.619 0.505-1.125 1.125-1.125h6.75c0.619 0 1.125 0.506 1.125 1.125v2.25c0 0.619-0.506 1.125-1.125 1.125z"
         id="path984" />
    </clipPath>
    <clipPath
       id="clipPath28200">
      <path
         d="m531.27 136.24c6.325-2.29 10.727-8.277 10.727-15.484 0-11.316-10.2-20.563-25.65-34.575l-4.35-3.941-4.35 3.941c-15.45 14.012-25.65 23.259-25.65 34.575v-39.516h60v55zm-26.983 0c2.995-1.052 5.686-2.883 7.71-5.25 2.024 2.367 4.715 4.198 7.71 5.25zm-22.29 0v-15.484c0 7.207 4.402 13.194 10.727 15.484z"
         id="path987" />
    </clipPath>
    <clipPath
       id="clipPath28364">
      <path
         d="m648 79.241h64v64h-64z"
         id="path990" />
    </clipPath>
    <clipPath
       id="clipPath28984">
      <path
         d="m500 691.74c0-3.037 2.463-5.5 5.5-5.5s5.5 2.463 5.5 5.5-2.463 5.5-5.5 5.5-5.5-2.463-5.5-5.5"
         id="path993" />
    </clipPath>
    <clipPath
       id="clipPath29012">
      <path
         d="m500 669.74c0-3.037 2.463-5.5 5.5-5.5s5.5 2.463 5.5 5.5c0 3.038-2.463 5.5-5.5 5.5s-5.5-2.462-5.5-5.5"
         id="path996" />
    </clipPath>
    <clipPath
       id="clipPath29040">
      <path
         d="m494 680.74c0-3.037 2.462-5.5 5.5-5.5s5.5 2.463 5.5 5.5c0 3.038-2.462 5.5-5.5 5.5s-5.5-2.462-5.5-5.5"
         id="path999" />
    </clipPath>
    <clipPath
       id="clipPath29068">
      <path
         d="m513 691.74c0-3.037 2.463-5.5 5.5-5.5s5.5 2.463 5.5 5.5-2.463 5.5-5.5 5.5-5.5-2.463-5.5-5.5"
         id="path1002" />
    </clipPath>
    <clipPath
       id="clipPath29096">
      <path
         d="m513 669.74c0-3.037 2.463-5.5 5.5-5.5s5.5 2.463 5.5 5.5c0 3.038-2.463 5.5-5.5 5.5s-5.5-2.462-5.5-5.5"
         id="path1005" />
    </clipPath>
    <clipPath
       id="clipPath29124">
      <path
         d="m507 680.74c0-3.037 2.463-5.5 5.5-5.5s5.5 2.463 5.5 5.5c0 3.038-2.463 5.5-5.5 5.5s-5.5-2.462-5.5-5.5"
         id="path1008" />
    </clipPath>
    <clipPath
       id="clipPath29152">
      <path
         d="m520 680.74c0-3.037 2.463-5.5 5.5-5.5s5.5 2.463 5.5 5.5c0 3.038-2.463 5.5-5.5 5.5s-5.5-2.462-5.5-5.5"
         id="path1011" />
    </clipPath>
    <clipPath
       id="clipPath29252">
      <path
         d="m321 322.24c-4.97 0-9-4.029-9-9 0-4.97 4.03-9 9-9h45c4.971 0 9 4.03 9 9 0 4.971-4.029 9-9 9z"
         id="path1014" />
    </clipPath>
    <clipPath
       id="clipPath29280">
      <path
         d="m322 297.24c-4.971 0-9-4.029-9-9 0-4.97 4.029-9 9-9h45c4.971 0 9 4.03 9 9 0 4.971-4.029 9-9 9z"
         id="path1017" />
    </clipPath>
    <clipPath
       id="clipPath29400">
      <path
         d="m155 83.24h44v53h-44z"
         id="path1020" />
    </clipPath>
    <linearGradient
       id="linearGradient1011">
      <stop
         stop-color="#4bebfb"
         offset="0"
         id="stop1023" />
      <stop
         stop-color="#2fcaf5"
         offset=".49979"
         id="stop1025" />
      <stop
         stop-color="#40bce8"
         offset="1"
         id="stop1027" />
    </linearGradient>
    <style
       type="text/css"
       id="style1030" />
    <linearGradient
       id="linearGradient995"
       x1="32.342"
       x2="32.342"
       y1="2.1827"
       y2="62.01"
       gradientTransform="scale(0.26458)"
       gradientUnits="userSpaceOnUse">
      <stop
         stop-color="#99b4c0"
         offset="0"
         id="stop1032" />
      <stop
         stop-color="#537080"
         offset="1"
         id="stop1034" />
    </linearGradient>
    <linearGradient
       id="linearGradient1013"
       x1="6.0853"
       x2="10.848"
       y1="-8.4665"
       y2="-8.4665"
       gradientTransform="matrix(0.94444,0,0,0.94444,0.47036,-0.47036)"
       gradientUnits="userSpaceOnUse"
       xlink:href="#linearGradient1011" />
    <linearGradient
       id="linearGradient1025"
       x1="3.5957"
       x2="7.5688"
       y1="-8.4665"
       y2="-8.4665"
       gradientUnits="userSpaceOnUse">
      <stop
         stop-color="#58edfd"
         offset="0"
         id="stop1038" />
      <stop
         stop-color="#24ccf5"
         offset="1"
         id="stop1040" />
    </linearGradient>
    <linearGradient
       id="linearGradient1029"
       x1="13.313"
       x2="7.3018"
       y1="-8.4665"
       y2="-8.4665"
       gradientUnits="userSpaceOnUse">
      <stop
         stop-color="#7dafc6"
         offset="0"
         id="stop1043" />
      <stop
         stop-color="#cee1ea"
         offset="1"
         id="stop1045" />
    </linearGradient>
    <filter
       id="filter1139"
       x="-.432"
       y="-.432"
       width="1.864"
       height="1.864"
       color-interpolation-filters="sRGB">
      <feGaussianBlur
         stdDeviation="0.80960904"
         id="feGaussianBlur1048" />
    </filter>
    <filter
       id="filter904"
       x="-.108"
       y="-.108"
       width="1.216"
       height="1.216"
       color-interpolation-filters="sRGB">
      <feGaussianBlur
         stdDeviation="0.20240099"
         id="feGaussianBlur1051" />
    </filter>
    <linearGradient
       id="b-6"
       x1="410.79"
       x2="410.79"
       y1="546.47"
       y2="501.28"
       gradientTransform="matrix(1.3182436,0,0,1.3182436,-502.67982,-676.56249)"
       gradientUnits="userSpaceOnUse">
      <stop
         stop-color="#cfdef0"
         offset="0"
         id="stop1835" />
      <stop
         stop-color="#f5faff"
         offset="1"
         id="stop1837" />
    </linearGradient>
    <linearGradient
       id="linearGradient905"
       x1="25.093"
       x2="25.093"
       y1="31.228"
       y2="4.6139"
       gradientUnits="userSpaceOnUse">
      <stop
         stop-color="#f5501e"
         offset="0"
         id="stop1840" />
      <stop
         stop-color="#ff640a"
         offset="1"
         id="stop1842" />
    </linearGradient>
    <linearGradient
       id="linearGradient913"
       x1="26.502"
       x2="26.502"
       y1="58.559"
       y2="33.547"
       gradientUnits="userSpaceOnUse">
      <stop
         stop-color="#64c82d"
         offset="0"
         id="stop1845" />
      <stop
         stop-color="#87eb32"
         offset="1"
         id="stop1847" />
    </linearGradient>
    <linearGradient
       id="linearGradient921-9"
       x1="42.579"
       x2="42.579"
       y1="58.516"
       y2="32.964"
       gradientUnits="userSpaceOnUse">
      <stop
         stop-color="#1973d2"
         offset="0"
         id="stop1850" />
      <stop
         stop-color="#1e87e6"
         offset="1"
         id="stop1852" />
    </linearGradient>
    <filter
       id="filter1025"
       x="-.12462"
       y="-.12462"
       width="1.2492"
       height="1.2492"
       color-interpolation-filters="sRGB">
      <feGaussianBlur
         stdDeviation="1.3487305"
         id="feGaussianBlur1855" />
    </filter>
    <filter
       id="filter1029"
       x="-.12462"
       y="-.12462"
       width="1.2492"
       height="1.2492"
       color-interpolation-filters="sRGB">
      <feGaussianBlur
         stdDeviation="1.3487305"
         id="feGaussianBlur1858" />
    </filter>
    <filter
       id="filter1033"
       x="-.12462"
       y="-.12462"
       width="1.2492"
       height="1.2492"
       color-interpolation-filters="sRGB">
      <feGaussianBlur
         stdDeviation="1.3487305"
         id="feGaussianBlur1861" />
    </filter>
    <filter
       id="filter1139-7"
       x="-.2494"
       y="-.18634"
       width="1.4988"
       height="1.3727"
       color-interpolation-filters="sRGB">
      <feGaussianBlur
         stdDeviation="0.77642176"
         id="feGaussianBlur1864" />
    </filter>
    <filter
       id="filter1143"
       x="-.23972"
       y="-.18634"
       width="1.4794"
       height="1.3727"
       color-interpolation-filters="sRGB">
      <feGaussianBlur
         stdDeviation="0.77642176"
         id="feGaussianBlur1867" />
    </filter>
    <filter
       id="filter1147"
       x="-.22342"
       y="-.18634"
       width="1.4468"
       height="1.3727"
       color-interpolation-filters="sRGB">
      <feGaussianBlur
         stdDeviation="0.77642176"
         id="feGaussianBlur1870" />
    </filter>
    <linearGradient
       id="linearGradient1392"
       inkscape:collect="always">
      <stop
         id="stop1388"
         offset="0"
         style="stop-color:#d0dff0;stop-opacity:1" />
      <stop
         id="stop1390"
         offset="1"
         style="stop-color:#f5faff;stop-opacity:1" />
    </linearGradient>
    <linearGradient
       id="linearGradient951">
      <stop
         offset="0"
         stop-color="#ec4520"
         id="stop947" />
      <stop
         offset="1"
         stop-color="#f58517"
         id="stop949" />
    </linearGradient>
    <linearGradient
       id="linearGradient935">
      <stop
         offset="0"
         stop-color="#548fed"
         id="stop931" />
      <stop
         offset="1"
         stop-color="#5ebae3"
         id="stop933" />
    </linearGradient>
    <linearGradient
       id="linearGradient913-5">
      <stop
         offset="0"
         stop-color="#8ae234"
         id="stop909" />
      <stop
         offset="1"
         stop-color="#47e767"
         id="stop911" />
    </linearGradient>
    <filter
       color-interpolation-filters="sRGB"
       height="1.072"
       width="1.072"
       y="-.036"
       x="-.036"
       id="d-3">
      <feGaussianBlur
         stdDeviation="0.23812032"
         id="feGaussianBlur5" />
    </filter>
    <linearGradient
       gradientUnits="userSpaceOnUse"
       gradientTransform="translate(1.1176874,-3.3630783)"
       y2="15.612"
       y1="-.26249"
       x2="9.2603"
       x1="9.2603"
       id="b-5">
      <stop
         offset="0"
         stop-color="#3c3c3c"
         id="stop8" />
      <stop
         offset="1"
         stop-opacity=".98824"
         stop-color="#505050"
         id="stop10" />
    </linearGradient>
    <linearGradient
       xlink:href="#linearGradient913-5"
       gradientUnits="userSpaceOnUse"
       y2="4.305"
       y1="4.305"
       x2="7.0494"
       x1="4.9328"
       id="linearGradient903" />
    <linearGradient
       xlink:href="#linearGradient913-5"
       gradientUnits="userSpaceOnUse"
       y2="6.4216"
       y1="6.4216"
       x2="9.1661"
       x1="7.0494"
       id="linearGradient905-6" />
    <linearGradient
       xlink:href="#linearGradient913-5"
       gradientUnits="userSpaceOnUse"
       y2="10.655"
       y1="10.655"
       x2="13.399"
       x1="11.283"
       id="linearGradient907" />
    <linearGradient
       xlink:href="#linearGradient935"
       gradientUnits="userSpaceOnUse"
       y2="4.305"
       y1="4.305"
       x2="13.399"
       x1="11.283"
       id="linearGradient921-2" />
    <linearGradient
       xlink:href="#linearGradient935"
       gradientUnits="userSpaceOnUse"
       y2="10.655"
       y1="10.655"
       x2="7.0494"
       x1="4.9328"
       id="linearGradient923" />
    <linearGradient
       xlink:href="#linearGradient935"
       gradientUnits="userSpaceOnUse"
       y2="8.5382"
       y1="8.5382"
       x2="9.1661"
       x1="7.0494"
       id="linearGradient925" />
    <linearGradient
       xlink:href="#linearGradient935"
       gradientUnits="userSpaceOnUse"
       y2="10.655"
       y1="10.655"
       x2="11.283"
       x1="9.1661"
       id="linearGradient927" />
    <linearGradient
       xlink:href="#linearGradient935"
       gradientUnits="userSpaceOnUse"
       y2="6.4216"
       y1="6.4216"
       x2="11.283"
       x1="9.1661"
       id="linearGradient929" />
    <linearGradient
       xlink:href="#linearGradient951"
       gradientUnits="userSpaceOnUse"
       y2="8.5382"
       y1="8.5382"
       x2="13.399"
       x1="11.283"
       id="linearGradient943" />
    <linearGradient
       xlink:href="#linearGradient951"
       gradientUnits="userSpaceOnUse"
       y2="4.305"
       y1="4.305"
       x2="9.1661"
       x1="7.0494"
       id="linearGradient945" />
    <filter
       color-interpolation-filters="sRGB"
       height="1.12"
       width="1.12"
       y="-.06"
       x="-.06"
       id="filter999">
      <feGaussianBlur
         stdDeviation="0.21166249"
         id="feGaussianBlur1001" />
    </filter>
    <linearGradient
       id="linearGradient4675">
      <stop
         stop-color="#70e4f6"
         offset="0"
         id="stop887" />
      <stop
         stop-color="#15b5f4"
         stop-opacity="0"
         offset="1"
         id="stop889" />
    </linearGradient>
    <linearGradient
       id="linearGradient4655">
      <stop
         stop-color="#60c6f7"
         offset="0"
         id="stop892" />
      <stop
         stop-color="#0e90f8"
         stop-opacity="0"
         offset="1"
         id="stop894" />
    </linearGradient>
    <linearGradient
       id="linearGradient4629"
       x1="-99.069"
       x2="-141.12"
       y1="30.13"
       y2="120.37"
       gradientTransform="translate(-85.111,0.44894)"
       gradientUnits="userSpaceOnUse">
      <stop
         stop-color="#0e90f8"
         offset="0"
         id="stop897" />
      <stop
         stop-color="#0e90f8"
         stop-opacity="0"
         offset="1"
         id="stop899" />
    </linearGradient>
    <linearGradient
       id="linearGradient4637"
       x1="-126.9"
       x2="-106.55"
       y1="117.45"
       y2="54.149"
       gradientTransform="translate(-85.111,0.44894)"
       gradientUnits="userSpaceOnUse">
      <stop
         stop-color="#3699f4"
         stop-opacity="0"
         offset="0"
         id="stop902" />
      <stop
         stop-color="#369bf3"
         offset="1"
         id="stop904" />
    </linearGradient>
    <linearGradient
       id="linearGradient4641"
       x1="-151.71"
       x2="-117.55"
       y1="33.273"
       y2="93.657"
       gradientTransform="matrix(0.57145,0,0,0.57145,-186.7,39.463)"
       gradientUnits="userSpaceOnUse"
       xlink:href="#linearGradient4655" />
    <linearGradient
       id="linearGradient4649"
       x1="129.89"
       x2="147.11"
       y1="78.616"
       y2="106"
       gradientTransform="translate(-394.88,0.89789)"
       gradientUnits="userSpaceOnUse">
      <stop
         stop-color="#8bd9f7"
         offset="0"
         id="stop908-1" />
      <stop
         stop-color="#8bd9f7"
         stop-opacity="0"
         offset="1"
         id="stop910-2" />
    </linearGradient>
    <linearGradient
       id="linearGradient4661"
       x1="-99.069"
       x2="-141.12"
       y1="30.13"
       y2="120.37"
       gradientTransform="matrix(0.73783,0,0,0.73783,-24.493,-332.07)"
       gradientUnits="userSpaceOnUse"
       xlink:href="#linearGradient4675" />
    <linearGradient
       id="linearGradient4669"
       x1="-116.63"
       x2="-116.63"
       y1="99.89"
       y2="136.25"
       gradientTransform="translate(0.44894,-385.45)"
       gradientUnits="userSpaceOnUse">
      <stop
         stop-color="#92dcf7"
         offset="0"
         id="stop914" />
      <stop
         stop-color="#92dcf7"
         stop-opacity="0"
         offset="1"
         id="stop916" />
    </linearGradient>
    <linearGradient
       id="linearGradient4681"
       x1="-99.069"
       x2="-141.12"
       y1="30.13"
       y2="120.37"
       gradientTransform="matrix(0.70253,0,0,0.70253,-31.28,107.23)"
       gradientUnits="userSpaceOnUse">
      <stop
         stop-color="#135ddf"
         offset="0"
         id="stop919" />
      <stop
         stop-color="#318aea"
         stop-opacity="0"
         offset="1"
         id="stop921" />
    </linearGradient>
    <linearGradient
       id="linearGradient4689"
       x1="-114.68"
       x2="-114.68"
       y1="-123.91"
       y2="-71.382"
       gradientTransform="translate(0,266.03)"
       gradientUnits="userSpaceOnUse">
      <stop
         stop-color="#377ff0"
         offset="0"
         id="stop924" />
      <stop
         stop-color="#377ff0"
         stop-opacity="0"
         offset="1"
         id="stop926" />
    </linearGradient>
    <radialGradient
       id="radialGradient4705"
       cx="82.614"
       cy="234.39"
       r="52.538"
       gradientTransform="matrix(0.99998,0.0064555,-0.0042726,0.66183,-301.95,-9.5202)"
       gradientUnits="userSpaceOnUse">
      <stop
         stop-color="#43c3fc"
         offset="0"
         id="stop929" />
      <stop
         stop-color="#46c2fe"
         stop-opacity="0"
         offset="1"
         id="stop931-3" />
    </radialGradient>
    <linearGradient
       id="linearGradient4641-2"
       x1="-151.71"
       x2="-117.55"
       y1="33.273"
       y2="93.657"
       gradientTransform="matrix(0.57145,0,0,0.57145,-186.82,38.875)"
       gradientUnits="userSpaceOnUse"
       xlink:href="#linearGradient4655" />
    <linearGradient
       id="linearGradient4822"
       x1="-99.069"
       x2="-141.12"
       y1="30.13"
       y2="120.37"
       gradientTransform="matrix(0,-0.73783,0.73783,0,-332.07,24.493)"
       gradientUnits="userSpaceOnUse"
       xlink:href="#linearGradient4675" />
    <linearGradient
       id="linearGradient4831"
       x1="-279.32"
       x2="-263.39"
       y1="88.274"
       y2="98.75"
       gradientUnits="userSpaceOnUse">
      <stop
         stop-color="#68c4f3"
         offset="0"
         id="stop936" />
      <stop
         stop-color="#6fcaf3"
         stop-opacity="0"
         offset="1"
         id="stop938" />
    </linearGradient>
    <linearGradient
       id="linearGradient4850"
       x1="-244.96"
       x2="-239.23"
       y1="74.693"
       y2="89.919"
       gradientUnits="userSpaceOnUse">
      <stop
         stop-color="#25b6f6"
         offset="0"
         id="stop941" />
      <stop
         stop-color="#29b8f6"
         stop-opacity="0"
         offset="1"
         id="stop943" />
    </linearGradient>
    <linearGradient
       id="a-3-3"
       x1="32"
       x2="32"
       y1="2"
       y2="62"
       gradientTransform="matrix(0.26459,0,0,0.26459,0.06675503,0.21412)"
       gradientUnits="userSpaceOnUse">
      <stop
         stop-color="#f5faff"
         offset="0"
         id="stop946" />
      <stop
         stop-color="#cfdef0"
         offset="1"
         id="stop948" />
    </linearGradient>
    <linearGradient
       gradientTransform="matrix(3.779602,0,0,3.779602,69.08215,-5.4003906e-7)"
       gradientUnits="userSpaceOnUse"
       y2="0.57805741"
       x2="-9.4730625"
       y1="16.32641"
       x1="-9.4730625"
       id="linearGradient1394"
       xlink:href="#linearGradient1392"
       inkscape:collect="always" />
    <linearGradient
       id="d-9"
       x1="520"
       x2="520"
       y1="4"
       y2="1024"
       gradientTransform="matrix(0.069456,0,0,0.069456,-3.5266,-3.596)"
       gradientUnits="userSpaceOnUse">
      <stop
         id="stop2-36"
         stop-color="#202020"
         offset="0" />
      <stop
         id="stop4-0"
         stop-color="#565656"
         offset="1" />
    </linearGradient>
    <filter
       id="e-6"
       x="-.036"
       y="-.036"
       width="1.072"
       height="1.072"
       color-interpolation-filters="sRGB">
      <feGaussianBlur
         id="feGaussianBlur7-2"
         stdDeviation="14.343749" />
    </filter>
    <filter
       id="filter911-6"
       x="-.069001"
       y="-.053076"
       width="1.138"
       height="1.1062"
       color-interpolation-filters="sRGB">
      <feGaussianBlur
         id="feGaussianBlur913-1"
         stdDeviation="0.5750183" />
    </filter>
  </defs>
  <circle
     r="30"
     cy="32"
     cx="32"
     id="path1386"
     style="fill:url(#linearGradient1394);fill-opacity:1;stroke-width:0.836486;stroke-linecap:round" />
  <circle
     cx="22.667"
     cy="42.667"
     r="0"
     fill="#b0b0b0"
     stroke-width="1.3333"
     style="paint-order:normal;image-rendering:optimizeSpeed"
     id="ellipse67" />
  <circle
     cx="22.667"
     cy="42.667"
     r="0"
     style="fill:#b0b0b0;stroke-width:1.3333;paint-order:normal;image-rendering:optimizeSpeed"
     id="ellipse69" />
  <text
     style="image-rendering:optimizeSpeed"
     x="-0.11241045"
     y="16.954878"
     id="text917"><tspan
       x="-0.11241045"
       y="16.954878"
       id="tspan915" /></text>
  <g
     style="fill:#5e4aa6;stroke-width:0.26458;image-rendering:optimizeSpeed"
     transform="matrix(3.7796,0,0,3.7796,0.01893545,-0.0012367)"
     id="g927">
    <circle
       cx="-330.35001"
       cy="-328.38"
       r="0"
       id="circle919" />
    <circle
       style="fill-rule:evenodd"
       cx="-39.433998"
       cy="6.4400001"
       r="0"
       id="circle921" />
    <circle
       cx="-330.38"
       cy="-328.5"
       r="0"
       id="circle923" />
    <circle
       cx="-301.70001"
       cy="-344.42999"
       r="0"
       id="circle925" />
  </g>
  <circle
     id="circle933"
     r="0"
     cy="-1318.1"
     cx="-1274.8004"
     style="fill:#5e4aa6;image-rendering:optimizeSpeed" />
  <g
     style="fill:#5e4aa6;stroke-width:0.26458;image-rendering:optimizeSpeed"
     transform="matrix(3.7796,0,0,3.7796,-112.84031,-73.604994)"
     id="g945">
    <circle
       cx="-330.35001"
       cy="-328.38"
       r="0"
       id="circle937" />
    <circle
       cx="-312.10999"
       cy="-326.25"
       r="0"
       id="circle939" />
    <circle
       cx="-306.01999"
       cy="-333.07001"
       r="0"
       id="circle941" />
    <circle
       cx="-308.84"
       cy="-326.01001"
       r="0"
       id="circle943" />
  </g>
  <g
     transform="translate(0.29533915,0.11689004)"
     id="g1482">
    <path
       style="fill:url(#linearGradient908);fill-opacity:1;stroke-width:0.0678992"
       inkscape:connector-curvature="0"
       id="path5"
       d="m 36.255609,15.653369 c 1.532745,0.0058 2.841899,0.918527 3.446254,2.222877 0.613747,-1.299702 1.929828,-2.202363 3.462642,-2.196514 2.11097,0.0081 3.812761,2.493565 3.804708,4.603992 -0.01752,4.590427 -7.308944,8.493113 -7.308944,8.493113 0,0 -7.261976,-3.958218 -7.244461,-8.548645 0.0081,-2.110426 1.728763,-4.582878 3.839801,-4.574823 z" />
    <path
       style="fill:url(#linearGradient910);fill-opacity:1;stroke-width:0.0678992"
       inkscape:connector-curvature="0"
       id="path7"
       d="m 39.650874,31.23898 c 0,0 7.261433,3.958148 7.243917,8.548711 -0.0081,2.110359 -1.728762,4.58281 -3.839733,4.574755 -0.615638,-0.0023 -1.193229,-0.152913 -1.703916,-0.416208 -0.144411,-0.0745 -0.319268,-0.05248 -0.440543,0.05583 -0.120797,0.10777 -0.162666,0.279262 -0.105666,0.430964 l 1.002615,2.649196 c 0.08833,0.234253 0.05615,0.497105 -0.08661,0.702975 -0.142832,0.20587 -0.377758,0.328619 -0.628508,0.327662 l -3.012258,-0.01149 c -0.250818,-9.6e-4 -0.484732,-0.125427 -0.625988,-0.332449 -0.141257,-0.206954 -0.171346,-0.470113 -0.08124,-0.703614 l 1.022803,-2.641469 c 0.05816,-0.151262 0.0176,-0.323068 -0.10238,-0.431757 -0.120518,-0.10869 -0.295197,-0.132648 -0.440172,-0.05919 -0.512614,0.259389 -1.091405,0.405542 -1.706974,0.403194 -2.111039,-0.0081 -3.812762,-2.493566 -3.804709,-4.603925 0.01745,-4.590563 7.309352,-8.493179 7.309352,-8.493179 z" />
    <path
       style="fill:url(#linearGradient912);fill-opacity:1;stroke-width:0.0678992"
       inkscape:connector-curvature="0"
       id="path9"
       d="m 20.185179,36.811716 c 0.0052,2.7e-5 0.01,0.0016 0.01527,0.0017 -0.411142,-0.60248 -0.652807,-1.329318 -0.649814,-2.113955 0.0079,-2.061405 1.684817,-3.725066 3.745135,-3.717204 2.061405,0.0079 3.725612,1.684276 3.717746,3.74568 -0.003,0.784638 -0.250267,1.509609 -0.665927,2.108935 0.0048,1.3e-5 0.009,-0.0016 0.01372,-0.0016 2.061811,0.0079 3.726014,1.685501 3.71815,3.746226 -0.0079,2.061404 -1.684817,3.725066 -3.746629,3.717199 -0.460422,-0.0018 -0.899465,-0.08953 -1.304364,-0.246225 -0.144346,-0.05548 -0.307709,-0.02127 -0.417442,0.08763 -0.109734,0.108896 -0.14519,0.272403 -0.09027,0.416764 l 0.932033,2.462474 c 0.08833,0.234796 0.05615,0.497648 -0.08668,0.703518 -0.142764,0.20587 -0.37769,0.328619 -0.62844,0.327662 l -3.012326,-0.01149 c -0.250748,-9.53e-4 -0.484731,-0.125428 -0.626056,-0.33245 -0.141188,-0.206953 -0.171895,-0.470113 -0.08124,-0.703615 l 0.950802,-2.456377 c 0.05602,-0.143937 0.02181,-0.307706 -0.08708,-0.417441 -0.108896,-0.109734 -0.271927,-0.145189 -0.416832,-0.09027 -0.406625,0.153601 -0.846734,0.238011 -1.308168,0.236284 -2.060318,-0.0079 -3.724525,-1.684273 -3.716659,-3.745677 0.0078,-2.060793 1.684752,-3.72561 3.74507,-3.717748 z m 3.08246,1.650249 c 0.0042,-0.0064 0.01009,-0.01161 0.01486,-0.01787 -0.0053,-2.1e-5 -0.01005,0.0015 -0.01536,0.0014 -0.0048,-1.4e-5 -0.0095,-0.0015 -0.01425,-0.0016 0.0047,0.0063 0.01056,0.01158 0.01473,0.01798 z" />
    <path
       style="fill:url(#linearGradient914);fill-opacity:1;stroke-width:0.0678992"
       inkscape:connector-curvature="0"
       id="path11"
       d="m 23.594741,29.556744 c -0.07481,0.08364 -0.181657,0.131236 -0.293554,0.130813 -0.111897,-4.33e-4 -0.21845,-0.04884 -0.292546,-0.133046 l -5.816178,-6.612878 c -0.131359,-0.149405 -0.129963,-0.373807 0.0036,-0.521117 l 5.866182,-6.49225 c 0.07419,-0.08262 0.180566,-0.129744 0.29192,-0.129324 0.111352,4.21e-4 0.217366,0.04836 0.290923,0.131546 l 5.817011,6.536288 c 0.132447,0.148866 0.132133,0.373273 -4.97e-4,0.521671 z" />
  </g>
</svg>
