<?xml version="1.0" encoding="UTF-8"?>
<svg id="Flamingo" width="64" height="64" enable-background="new 0 0 1024 1024" image-rendering="optimizeSpeed" version="1.1" viewBox="0 0 64 64" xmlns="http://www.w3.org/2000/svg" xmlns:cc="http://creativecommons.org/ns#" xmlns:dc="http://purl.org/dc/elements/1.1/" xmlns:rdf="http://www.w3.org/1999/02/22-rdf-syntax-ns#" xmlns:xlink="http://www.w3.org/1999/xlink">
 <metadata>
  <rdf:RDF>
   <cc:Work rdf:about="">
    <dc:format>image/svg+xml</dc:format>
    <dc:type rdf:resource="http://purl.org/dc/dcmitype/StillImage"/>
   </cc:Work>
  </rdf:RDF>
 </metadata>
 <defs>
  <linearGradient id="linearGradient1920" x1="2.3738" x2="61.483" y1="62.182" y2="2.6229" gradientTransform="translate(47.745 36.622)" gradientUnits="userSpaceOnUse">
   <stop stop-color="#1566ff" offset="0"/>
   <stop stop-color="#15a8ff" offset="1"/>
  </linearGradient>
 </defs>
 <g transform="translate(-47.745 -36.622)">
  <circle cx="79.745" cy="68.622" r="30" fill="url(#linearGradient1920)" stroke-linecap="round" stroke-width="2.5149"/>
  <path d="m91.686 52.557-28.008 4.1297 4.1297 28.008 28.008-4.1297zm-3.7526 3.7331-3.9803 5.3515-10.248 1.5117-5.3586-3.9714 0.0018-0.0054zm1.2627 0.94082 2.8883 19.585-5.3568-3.9803-1.5117-10.249 3.9767-5.3515zm-21.785 3.212 5.3533 3.9803 1.5117 10.248-3.9767 5.3533-2.8865-19.578zm16.316 2.826 1.3766 9.3353-9.3353 1.3783-1.3783-9.3371zm2.0631 10.826 5.3515 3.9767-19.578 2.8865 3.9767-5.3533z" fill="#fff" stroke-width="3.9854"/>
  <path d="m64.772 53.345a4.7185 4.7185 0 0 0-3.9768 5.3525 4.7185 4.7185 0 0 0 5.3535 3.9836 4.7185 4.7185 0 0 0 3.986-5.3608 4.7185 4.7185 0 0 0-5.3627-3.9753zm24.9-3.6716a4.7185 4.7185 0 0 0-3.9802 5.353 4.7185 4.7185 0 0 0 5.3535 3.9836 4.7185 4.7185 0 0 0 3.9831-5.3569 4.7185 4.7185 0 0 0-5.3564-3.9797zm-16.519 11.975a2.361 2.361 0 0 0-1.9884 2.6762 2.361 2.361 0 0 0 2.6767 1.9918 2.361 2.361 0 0 0 1.9913-2.6801 2.361 2.361 0 0 0-2.6796-1.9879zm10.896-1.6066a2.361 2.361 0 0 0-1.9918 2.6767 2.361 2.361 0 0 0 2.6767 1.9918 2.361 2.361 0 0 0 1.9913-2.6801 2.361 2.361 0 0 0-2.6796-1.9879zm-9.2894 12.499a2.361 2.361 0 0 0-1.9884 2.6762 2.361 2.361 0 0 0 2.6767 1.9918 2.361 2.361 0 0 0 1.9913-2.6801 2.361 2.361 0 0 0-2.6796-1.9879zm10.896-1.6066a2.361 2.361 0 0 0-1.9918 2.6767 2.361 2.361 0 0 0 2.6767 1.9918 2.361 2.361 0 0 0 1.9913-2.6801 2.361 2.361 0 0 0-2.6796-1.9879zm-17.212 7.3006a4.7185 4.7185 0 0 0-3.9792 5.3598 4.7185 4.7185 0 0 0 5.3525 3.9768 4.7185 4.7185 0 0 0 3.9836-5.3535 4.7185 4.7185 0 0 0-5.3564-3.9797zm24.896-3.6711a4.7185 4.7185 0 0 0-3.9792 5.3598 4.7185 4.7185 0 0 0 5.3525 3.9768 4.7185 4.7185 0 0 0 3.9836-5.3535 4.7185 4.7185 0 0 0-5.3564-3.9797z" fill="#fff" stroke-width="3.9854"/>
 </g>
</svg>
