<?xml version="1.0" encoding="UTF-8"?>
<svg width="64" height="64" version="1.1" viewBox="0 0 16.933 16.933" xmlns="http://www.w3.org/2000/svg" xmlns:cc="http://creativecommons.org/ns#" xmlns:dc="http://purl.org/dc/elements/1.1/" xmlns:rdf="http://www.w3.org/1999/02/22-rdf-syntax-ns#">
 <metadata>
  <rdf:RDF>
   <cc:Work rdf:about="">
    <dc:format>image/svg+xml</dc:format>
    <dc:type rdf:resource="http://purl.org/dc/dcmitype/StillImage"/>
   </cc:Work>
  </rdf:RDF>
 </metadata>
 <defs>
  <linearGradient id="linearGradient2209" x1="109.83" x2="141.14" y1="21.006" y2="28.757" gradientUnits="userSpaceOnUse">
   <stop stop-color="#e56236" offset="0"/>
   <stop stop-color="#f2c933" offset="1"/>
  </linearGradient>
  <linearGradient id="linearGradient29255" x1="103.9" x2="119.65" y1="48.786" y2="15.728" gradientUnits="userSpaceOnUse">
   <stop stop-color="#13a082" offset="0"/>
   <stop stop-color="#fee64c" offset="1"/>
  </linearGradient>
  <linearGradient id="linearGradient46934" x1="104.2" x2="142.95" y1="46.333" y2="46.333" gradientUnits="userSpaceOnUse">
   <stop stop-color="#7ac0fe" offset="0"/>
   <stop stop-color="#6580fc" offset="1"/>
  </linearGradient>
  <linearGradient id="linearGradient61493" x1="133.65" x2="135.49" y1="50.545" y2="41.319" gradientUnits="userSpaceOnUse">
   <stop stop-color="#7e4ec4" offset="0"/>
   <stop stop-color="#9b34a2" offset="1"/>
  </linearGradient>
  <linearGradient id="linearGradient75579" x1="118.54" x2="141.01" y1="41.652" y2="39.325" gradientUnits="userSpaceOnUse">
   <stop stop-color="#e2316b" offset="0"/>
   <stop stop-color="#f64d85" offset="1"/>
  </linearGradient>
  <linearGradient id="a-3" x1="32" x2="32" y1="2" y2="62" gradientTransform="matrix(.26459 0 0 .26459 .066755 .21412)" gradientUnits="userSpaceOnUse">
   <stop stop-color="#f5faff" offset="0"/>
   <stop stop-color="#cfdef0" offset="1"/>
  </linearGradient>
 </defs>
 <circle cx="8.4665" cy="8.4665" r="7.9376" fill="url(#a-3)" stroke-width=".26459" style="paint-order:stroke markers fill"/>
 <g transform="translate(1.6537 1.7197)">
  <path d="m6.8878 0.79376c-2.5697 0.0063409-5.0837 2.047-5.6702 4.7994-0.076606 0.35954-0.12088 0.73125-0.12749 1.1122-0.062043 3.5759 2.8049 5.7081 5.4405 5.9669 2.6355 0.25872 4.9937-1.3628 5.8261-3.2759 0.03783-0.086949 0.06902-0.17222 0.09461-0.25579 0.11018-0.35968 0.10967-0.68833 0.02005-0.98942-2.52e-4 -2.785e-4 -5.49e-4 -5.245e-4 -7.75e-4 -7.759e-4 -0.34826-1.1679-2.0349-1.9206-3.7895-2.4544-2.3125-0.70359-2.8818 0.82169-2.7467 1.8883 0.13506 1.0666 1.1966 1.4226 1.9336 0.94698 0.67993-0.43877 0.96126-0.58832 1.1017-0.53282 0.011801 0.00465 0.022918 0.010528 0.032872 0.018038 0.12852 0.096964 1.0795 0.57672-0.00318 1.4802-0.56476 0.47127-1.2686 0.63923-1.9184 0.62943-5.071e-4 -8e-6 -0.00106 7e-6 -0.0016 0-0.29554-0.0046-0.58003-0.04626-0.83473-0.11226-0.25834-0.066937-0.48632-0.15913-0.66474-0.2646-0.74129-0.43821-2.233-1.5104-1.8502-3.6055 0 0 0.43553-2.019 2.2439-2.5655s3.8192 0.1571 5.0965 1.0617c1.2773 0.90455 1.2451 0.45967 1.1791-0.41495-0.053067-0.70295-0.9767-2.1429-2.9692-2.9331-0.48656-0.19295-1.0368-0.34778-1.6538-0.44301-0.24558-0.037909-0.49227-0.055533-0.73849-0.054925zm-2.0731 2.5907c-0.028015 0.039806-0.055158 0.079469-0.081788 0.11947-0.026635 0.040005-0.053303 0.080159-0.078576 0.12028 0.025285-0.040116 0.051545-0.080267 0.078181-0.12028 0.026626-0.040005 0.054171-0.079663 0.082183-0.11947zm-0.23374 0.36042c-0.023965 0.040138-0.04749 0.079802-0.07016 0.11987-0.02267 0.040072-0.044738 0.079958-0.066152 0.11987 0.021429-0.039919 0.043073-0.079802 0.06575-0.11987 0.02267-0.040072 0.046611-0.07974 0.070562-0.11987zm-0.45865 0.93853c-0.029218 0.074317-0.05657 0.14703-0.081788 0.21809-0.02523 0.071072-0.048269 0.14055-0.069759 0.20768 0.021475-0.067125 0.044536-0.1366 0.069759-0.20768 0.025207-0.071072 0.052567-0.14378 0.081788-0.21809zm3.1749 5.4661c0.10787 0.0108 0.22934 0.02168 0.36243 0.03208-0.13309-0.01039-0.25456-0.02128-0.36243-0.03208z" fill="#844bbe" stroke-width=".77583"/>
  <g transform="matrix(.95947 0 0 .95947 -23.836 -2.6154)">
   <path transform="scale(.26458)" d="m130.46 15.391c-0.12136-0.0036-0.24519-0.0097-0.36523-0.01172-0.31711-0.0054-0.62956-7e-3 -0.9375-2e-3s-0.61126 0.01609-0.91016 0.03125-0.59282 0.03562-0.88281 0.06055c-0.29 0.02492-0.5762 0.05354-0.85742 0.08789s-0.5575 0.07376-0.83008 0.11719-0.54062 0.09237-0.80469 0.14453-0.52361 0.10742-0.7793 0.16797-0.50841 0.12477-0.75586 0.19336c-0.24744 0.06859-0.49113 0.14246-0.73046 0.21875-0.23934 0.07629-0.47373 0.1566-0.70508 0.24023-0.23136 0.08364-0.45814 0.17108-0.68164 0.26172-0.22351 0.09064-0.44437 0.18395-0.66016 0.28125s-0.42655 0.19717-0.63476 0.30078c-0.20822 0.10361-0.41253 0.21073-0.61329 0.32031s-0.39835 0.22269-0.59179 0.33789c-0.19345 0.1152-0.38406 0.23304-0.57032 0.35352-0.18625 0.12048-0.36766 0.24373-0.54687 0.36914s-0.35506 0.25282-0.52734 0.38281c-0.17229 0.12999-0.34232 0.26226-0.50782 0.39648s-0.32748 0.27008-0.48633 0.4082c-0.15884 0.13812-0.31447 0.27825-0.46679 0.41992s-0.30134 0.28482-0.44727 0.42969-0.28806 0.29173-0.42773 0.43945-0.27661 0.29703-0.41016 0.44726c-0.13354 0.15023-0.26307 0.30073-0.39062 0.45312-0.12756 0.1524-0.25331 0.30672-0.375 0.46094-0.1217 0.15421-0.23951 0.30916-0.35547 0.46484-0.11597 0.15569-0.22948 0.31194-0.33985 0.46875-0.11036 0.15681-0.21736 0.31311-0.32226 0.4707-0.10491 0.15759-0.20902 0.31658-0.30859 0.47461-0.0996 0.15803-0.19469 0.31649-0.28907 0.47461-0.0944 0.15812-0.18803 0.3148-0.27734 0.47266-0.0893 0.15786-0.17539 0.3154-0.25977 0.47266-0.0844 0.15726-0.16652 0.31439-0.24609 0.4707-0.0796 0.15631-0.15556 0.31178-0.23047 0.4668-0.0749 0.15502-0.14838 0.30952-0.21875 0.46289-0.0704 0.15337-0.13911 0.30564-0.20508 0.45703-0.13193 0.30278-0.25403 0.60177-0.36914 0.89453s-0.22292 0.5794-0.32226 0.85938c-0.0994 0.27998-0.19075 0.55393-0.27539 0.81836-0.0846 0.26443-0.16142 0.51951-0.23243 0.76562-0.071 0.24611-0.13689 0.482-0.19531 0.70703-0.0584 0.22503-0.10935 0.43944-0.15625 0.64062s-0.0886 0.38989-0.125 0.56445-0.0687 0.33528-0.0957 0.48047c-0.054 0.29037-0.0905 0.51953-0.11328 0.67578-0.0228 0.15625-0.0312 0.24023-0.0312 0.24023s1.716-7.9527 8.8398-10.105 15.045 0.6184 20.076 4.1816c5.0315 3.5632 4.9046 1.8106 4.6445-1.6348-0.20906-2.7692-3.8462-8.4421-11.695-11.555z" fill="url(#linearGradient2209)"/>
   <path transform="scale(.26458)" d="m129.23 41.811c0.0465 0.01836 0.0897 0.04072 0.1289 0.07031 0.50631 0.38197 4.2535 2.273-0.0117 5.832-2.2248 1.8565-4.999 2.5171-7.5586 2.4785 0.25825 0.02972 0.52248 0.0608 0.85156 0.09375 0.42494 0.04255 0.90346 0.08603 1.4277 0.12695 0.52427 0.04092 1.0928 0.07798 1.6953 0.10938 0.60245 0.0314 1.239 0.05634 1.8984 0.07031 0.65948 0.01397 1.3418 0.01722 2.0371 0.0059 0.69536-0.01136 1.4052-0.03744 2.1152-0.08203 0.35504-0.0223 0.7097-0.04994 1.0644-0.08203 0.35476-0.03209 0.70872-0.06846 1.0606-0.11133 0.35182-0.04286 0.70062-0.09185 1.0469-0.14648 0.34625-0.05463 0.68932-0.11426 1.0274-0.18164 0.33803-0.06738 0.67283-0.14153 1-0.22266s0.64727-0.16977 0.96094-0.26562c0.31366-0.09585 0.62045-0.19898 0.91796-0.31055 0.29752-0.11157 0.58652-0.2311 0.86524-0.35937 0.27871-0.12828 0.54741-0.26614 0.80469-0.41211 0.25727-0.14597 0.50313-0.3002 0.73632-0.46484 0.2332-0.16465 0.4537-0.33912 0.66016-0.52344s0.39908-0.37901 0.57617-0.58398c0.0885-0.10248 0.1732-0.20662 0.25391-0.31445 0.0551-0.07363 0.10493-0.15039 0.15625-0.22656 0.43402-1.4169 0.43115-2.7122 0.0781-3.8984-0.0729-0.08011-0.14293-0.1599-0.23437-0.24414-0.064-0.05897-0.13315-0.11784-0.20703-0.17774-0.0739-0.05989-0.1539-0.11977-0.23828-0.17969-0.0844-0.05991-0.17402-0.12066-0.26954-0.17969-0.0955-0.05903-0.19544-0.11658-0.30273-0.17383-0.10728-0.05725-0.22211-0.11341-0.3418-0.16797-0.11968-0.05456-0.24424-0.10724-0.37695-0.1582s-0.27355-0.10002-0.41992-0.14648-0.29833-0.0898-0.45899-0.13086-0.33027-0.08048-0.50585-0.11524c-0.17559-0.03476-0.3577-0.0662-0.54883-0.09375-0.19114-0.02755-0.39034-0.05088-0.59766-0.07031s-0.42235-0.03451-0.64648-0.04492c-0.22414-0.01042-0.45764-0.01708-0.69922-0.01758-0.24158-4.95e-4 -0.4923 0.0053-0.75196 0.01563-0.25965 0.01033-0.52827 0.02677-0.80664 0.04883-0.27836 0.02206-0.56557 0.04929-0.86328 0.08398-0.2977 0.03469-0.60615 0.07677-0.92383 0.125-0.31767 0.04823-0.64414 0.10335-0.98242 0.16602s-0.68736 0.13292-1.0469 0.21094c-0.35952 0.07801-0.72995 0.16355-1.1113 0.25781-0.38138 0.09426-0.77386 0.19718-1.1777 0.30859-0.0912 0.02516-0.18888 0.05597-0.28124 0.08203z" fill="url(#linearGradient61493)"/>
   <path transform="scale(.26458)" d="m129.23 41.811c0.0924-0.02606 0.19005-0.05687 0.28124-0.08203 0.40388-0.11141 0.79636-0.21433 1.1777-0.30859 0.38138-0.09426 0.75181-0.1798 1.1113-0.25781 0.35951-0.07801 0.70859-0.14827 1.0469-0.21094 0.33828-0.06267 0.66475-0.11779 0.98242-0.16602 0.31768-0.04823 0.62613-0.09031 0.92383-0.125 0.29771-0.03469 0.58492-0.06193 0.86328-0.08398 0.27837-0.02206 0.54699-0.0385 0.80664-0.04883 0.25966-0.01033 0.51038-0.01612 0.75196-0.01563 0.24158 4.95e-4 0.47508 0.0072 0.69922 0.01758 0.22413 0.01042 0.43916 0.02549 0.64648 0.04492s0.40652 0.04277 0.59766 0.07031c0.19113 0.02755 0.37324 0.05899 0.54883 0.09375 0.17558 0.03476 0.34519 0.07417 0.50585 0.11524 0.16066 0.04106 0.31262 0.0844 0.45899 0.13086s0.28721 0.09552 0.41992 0.14648 0.25727 0.10365 0.37695 0.1582c0.11969 0.05456 0.23452 0.11072 0.3418 0.16797 0.10729 0.05725 0.20722 0.1148 0.30273 0.17383 0.0955 0.05903 0.18515 0.11977 0.26954 0.17969 0.0844 0.05991 0.1644 0.1198 0.23828 0.17969 0.0739 0.05989 0.14302 0.11877 0.20703 0.17774 0.0914 0.08424 0.16152 0.16403 0.23437 0.24414-1.3696-4.6023-8.0162-7.5684-14.93-9.6719-9.1096-2.7717-11.352 3.2376-10.82 7.4395 0.53205 4.2019 4.7138 5.6041 7.6172 3.7305 2.6785-1.7285 3.7866-2.3182 4.3398-2.0996z" fill="url(#linearGradient75579)"/>
   <path transform="scale(.26458)" d="m121.79 50.191c-1.1642-0.01804-2.2838-0.18141-3.2871-0.44141-0.19056-0.02204-0.26291-0.02418-0.71289-0.09766-0.36491-0.05959-0.80564-0.13899-1.3066-0.24414s-1.0618-0.23524-1.668-0.39648c-0.30309-0.08062-0.61782-0.16901-0.94141-0.26562s-0.65586-0.20249-0.99609-0.31641-0.68802-0.2366-1.041-0.36914c-0.35299-0.13254-0.71231-0.2733-1.0742-0.42578-0.36191-0.15248-0.7268-0.3165-1.0938-0.49024-0.36696-0.17373-0.73539-0.35839-1.1035-0.55469s-0.73611-0.40287-1.1016-0.62305-0.72899-0.45384-1.0879-0.69922-0.71206-0.50351-1.0606-0.77539c-0.34849-0.27188-0.69117-0.55771-1.0254-0.85742-0.33422-0.29971-0.66048-0.61256-0.97656-0.94141-0.31609-0.32885-0.62194-0.6739-0.91602-1.0332s-0.57553-0.73393-0.84375-1.125c-0.26821-0.39107-0.52323-0.7985-0.76172-1.2227-0.11924-0.21208-0.23461-0.42784-0.3457-0.64844-0.11109-0.22059-0.21787-0.44455-0.32031-0.67383-0.10245-0.22928-0.2016-0.46305-0.29492-0.70117s-0.18191-0.48138-0.26562-0.72852c-0.08372-0.24713-0.1627-0.49955-0.23633-0.75586s-0.14202-0.5156-0.20508-0.78125-0.11987-0.53735-0.17188-0.8125c-0.052-0.27515-0.0982-0.55503-0.13867-0.83984-0.04047-0.28482-0.07507-0.57449-0.10352-0.86914-0.0053-0.05443-0.0069-0.11124-0.01172-0.16602-0.30177 1.4164-0.47592 2.8804-0.50195 4.3809-0.24443 14.087 11.049 22.487 21.432 23.506 10.382 1.0192 19.672-5.368 22.951-12.904 0.14904-0.34252 0.27221-0.67862 0.37305-1.0078-0.0513 0.07617-0.10114 0.15293-0.15625 0.22656-0.0807 0.10784-0.16536 0.21197-0.25391 0.31445-0.17709 0.20497-0.36971 0.39967-0.57617 0.58398s-0.42696 0.35879-0.66016 0.52344c-0.23319 0.16465-0.47905 0.31888-0.73632 0.46484-0.25728 0.14597-0.52598 0.28383-0.80469 0.41211-0.27872 0.12828-0.56772 0.2478-0.86524 0.35937-0.29751 0.11157-0.6043 0.21469-0.91796 0.31055-0.31367 0.09586-0.63377 0.1845-0.96094 0.26562-0.32717 0.08113-0.66197 0.15527-1 0.22266-0.33803 0.06738-0.6811 0.12701-1.0274 0.18164s-0.69505 0.10362-1.0469 0.14648c-0.35183 0.04286-0.70579 0.07924-1.0606 0.11133-0.35475 0.03209-0.70941 0.05973-1.0644 0.08203-0.71008 0.04459-1.4199 0.07067-2.1152 0.08203-0.69535 0.01136-1.3776 0.0081-2.0371-0.0059-0.65949-0.01397-1.296-0.03892-1.8984-0.07031-0.60246-0.0314-1.171-0.06845-1.6953-0.10938-0.52428-0.04092-1.0028-0.08441-1.4277-0.12695-0.32908-0.03295-0.59331-0.06403-0.85156-0.09375-2e-3 -2.9e-5 -4e-3 3e-5 -6e-3 0z" fill="url(#linearGradient46934)"/>
   <path transform="scale(.26458)" d="m98.695 32.336c0.0048 0.05477 0.0065 0.11158 0.01172 0.16602 0.02845 0.29465 0.06305 0.58432 0.10352 0.86914s0.08667 0.56469 0.13867 0.83984 0.10882 0.54685 0.17188 0.8125 0.13145 0.52494 0.20508 0.78125 0.15261 0.50873 0.23633 0.75586 0.1723 0.49039 0.26562 0.72852c0.09332 0.23812 0.19247 0.4719 0.29492 0.70117 0.10244 0.22928 0.20922 0.45323 0.32031 0.67383s0.22646 0.43636 0.3457 0.64844c0.23849 0.42416 0.49351 0.83158 0.76172 1.2227 0.26822 0.39107 0.54967 0.7657 0.84375 1.125s0.59993 0.70435 0.91602 1.0332c0.31608 0.32885 0.64234 0.6417 0.97656 0.94141s0.6769 0.58554 1.0254 0.85742c0.34849 0.27188 0.70164 0.53002 1.0606 0.77539 0.3589 0.24538 0.72244 0.47904 1.0879 0.69922s0.73343 0.42675 1.1016 0.62305 0.73656 0.38096 1.1035 0.55469c0.36695 0.17373 0.73184 0.33775 1.0938 0.49024 0.3619 0.15248 0.72122 0.29324 1.0742 0.42578 0.353 0.13254 0.70079 0.25522 1.041 0.36914 0.34023 0.11392 0.6725 0.21979 0.99609 0.31641 0.32359 0.09661 0.63832 0.185 0.94141 0.26562 0.60618 0.16124 1.167 0.29133 1.668 0.39648s0.94173 0.18456 1.3066 0.24414c0.44998 0.07348 0.52233 0.07561 0.71289 0.09766-1.0176-0.2637-1.9163-0.6275-2.6191-1.043-2.9202-1.7263-8.7968-5.9501-7.2891-14.203 0 0 8e-3 -0.08398 0.0312-0.24023 0.0228-0.15625 0.0592-0.38541 0.11328-0.67578 0.027-0.14518 0.0593-0.3059 0.0957-0.48047s0.0781-0.36327 0.125-0.56445 0.0978-0.4156 0.15625-0.64062c0.0584-0.22503 0.12431-0.46092 0.19531-0.70703s0.14778-0.5012 0.23243-0.76562c0.0846-0.26443 0.17604-0.53838 0.27539-0.81836 0.0993-0.27998 0.20715-0.56661 0.32226-0.85938 0.11511-0.29276 0.23721-0.59175 0.36914-0.89453 0.066-0.15139 0.13471-0.30366 0.20508-0.45703 0.0704-0.15338 0.14384-0.30788 0.21875-0.46289 0.0749-0.15502 0.15089-0.31049 0.23047-0.4668 0.0796-0.15631 0.16172-0.31345 0.24609-0.4707 0.0844-0.15726 0.17046-0.3148 0.25977-0.47266 0.0893-0.15786 0.18297-0.31454 0.27734-0.47266 0.0944-0.15812 0.18949-0.31658 0.28907-0.47461 0.0996-0.15803 0.20368-0.31702 0.30859-0.47461 0.1049-0.15759 0.2119-0.31389 0.32226-0.4707 0.11037-0.15681 0.22388-0.31306 0.33985-0.46875 0.11596-0.15569 0.23377-0.31063 0.35547-0.46484 0.12169-0.15422 0.24744-0.30854 0.375-0.46094 0.12755-0.1524 0.25708-0.30289 0.39062-0.45312 0.13355-0.15023 0.27049-0.29954 0.41016-0.44726s0.2818-0.29458 0.42773-0.43945 0.29495-0.28802 0.44727-0.42969 0.30796-0.2818 0.46679-0.41992c0.15885-0.13812 0.32083-0.27397 0.48633-0.4082s0.33553-0.26649 0.50782-0.39648c0.17228-0.12999 0.34813-0.25741 0.52734-0.38281 0.17921-0.12541 0.36062-0.24866 0.54687-0.36914 0.18626-0.12048 0.37687-0.23831 0.57032-0.35352 0.19344-0.1152 0.39103-0.22831 0.59179-0.33789s0.40507-0.2167 0.61329-0.32031c0.2082-0.10361 0.41897-0.20348 0.63476-0.30078s0.43665-0.19061 0.66016-0.28125c0.2235-0.09064 0.45028-0.17808 0.68164-0.26172 0.23135-0.08364 0.46574-0.16395 0.70508-0.24023 0.23933-0.07629 0.48302-0.15016 0.73046-0.21875 0.24745-0.06859 0.50017-0.13281 0.75586-0.19336s0.51523-0.11581 0.7793-0.16797 0.53211-0.1011 0.80469-0.14453 0.54886-0.08284 0.83008-0.11719 0.56742-0.06297 0.85742-0.08789c0.28999-0.02492 0.58391-0.04539 0.88281-0.06055s0.60222-0.02621 0.91016-0.03125c0.30794-5e-3 0.62039-0.0035 0.9375 2e-3 0.12004 0.0021 0.24387 0.0081 0.36523 0.01172-1.9168-0.7601-4.0852-1.369-6.5156-1.7441-0.96743-0.14934-1.9382-0.21919-2.9082-0.2168-10.123 0.02498-20.028 8.064-22.338 18.906z" fill="url(#linearGradient29255)"/>
  </g>
 </g>
</svg>
