<?xml version="1.0" encoding="UTF-8" standalone="no"?>
<svg
   xmlns:dc="http://purl.org/dc/elements/1.1/"
   xmlns:cc="http://creativecommons.org/ns#"
   xmlns:rdf="http://www.w3.org/1999/02/22-rdf-syntax-ns#"
   xmlns:svg="http://www.w3.org/2000/svg"
   xmlns="http://www.w3.org/2000/svg"
   xmlns:xlink="http://www.w3.org/1999/xlink"
   xmlns:sodipodi="http://sodipodi.sourceforge.net/DTD/sodipodi-0.dtd"
   xmlns:inkscape="http://www.inkscape.org/namespaces/inkscape"
   width="64"
   height="64"
   version="1.1"
   viewBox="0 0 16.933 16.933"
   id="svg43"
   sodipodi:docname="goland.svg"
   inkscape:version="1.0 (4035a4fb49, 2020-05-01)">
  <metadata
     id="metadata47">
    <rdf:RDF>
      <cc:Work
         rdf:about="">
        <dc:format>image/svg+xml</dc:format>
        <dc:type
           rdf:resource="http://purl.org/dc/dcmitype/StillImage" />
        <dc:title></dc:title>
      </cc:Work>
    </rdf:RDF>
  </metadata>
  <sodipodi:namedview
     inkscape:document-rotation="0"
     pagecolor="#ffffff"
     bordercolor="#666666"
     borderopacity="1"
     objecttolerance="10"
     gridtolerance="10"
     guidetolerance="10"
     inkscape:pageopacity="0"
     inkscape:pageshadow="2"
     inkscape:window-width="1920"
     inkscape:window-height="985"
     id="namedview45"
     showgrid="false"
     inkscape:zoom="4.5078057"
     inkscape:cx="18.765261"
     inkscape:cy="33.981926"
     inkscape:window-x="0"
     inkscape:window-y="0"
     inkscape:window-maximized="1"
     inkscape:current-layer="svg43" />
  <defs
     id="defs15">
    <linearGradient
       id="linearGradient856"
       inkscape:collect="always">
      <stop
         id="stop852"
         offset="0"
         style="stop-color:#44df6f;stop-opacity:1" />
      <stop
         id="stop854"
         offset="1"
         style="stop-color:#ad6ef0;stop-opacity:1" />
    </linearGradient>
    <filter
       id="h"
       x="-.06"
       y="-.06"
       width="1.12"
       height="1.12"
       color-interpolation-filters="sRGB">
      <feGaussianBlur
         stdDeviation="0.85"
         id="feGaussianBlur2" />
    </filter>
    <linearGradient
       id="g"
       x1="32"
       x2="32"
       y1="15"
       y2="49"
       gradientTransform="matrix(0.26458,0,0,0.26458,-25.036065,0)"
       gradientUnits="userSpaceOnUse">
      <stop
         stop-color="#303030"
         offset="0"
         id="stop5" />
      <stop
         stop-color="#424242"
         offset="1"
         id="stop7" />
    </linearGradient>
    <linearGradient
       id="linearGradient912"
       x1="7.6938"
       x2="7.6938"
       y1="14.87"
       y2="2.0085"
       gradientTransform="translate(1086.1639)"
       gradientUnits="userSpaceOnUse">
      <stop
         stop-color="#3aea62"
         offset="0"
         id="stop10" />
      <stop
         stop-color="#b763fd"
         offset="1"
         id="stop12" />
    </linearGradient>
    <linearGradient
       inkscape:collect="always"
       xlink:href="#g"
       id="linearGradient906"
       gradientUnits="userSpaceOnUse"
       gradientTransform="matrix(0.26458,0,0,0.26458,-25.036065,0)"
       x1="32"
       y1="15"
       x2="32"
       y2="49" />
    <linearGradient
       gradientTransform="translate(-22.524411)"
       gradientUnits="userSpaceOnUse"
       y2="0.68999416"
       x2="38.795685"
       y1="16.269722"
       x1="23.186152"
       id="linearGradient858"
       xlink:href="#linearGradient856"
       inkscape:collect="always" />
  </defs>
  <circle
     r="7.9373436"
     cy="8.4665003"
     cx="8.4665003"
     id="path850"
     style="fill:url(#linearGradient858);fill-opacity:1;stroke-width:0.612318;stroke-linecap:round" />
  <g
     id="g904"
     transform="translate(25.036108,-5.279314e-5)">
    <rect
       transform="matrix(0.26458,0,0,0.26458,-25.078501,-0.04234)"
       x="15.16"
       y="15.16"
       width="34"
       height="34"
       ry="5"
       fill="#303030"
       fill-rule="evenodd"
       filter="url(#h)"
       opacity="0.5"
       style="paint-order:stroke fill markers"
       id="rect886" />
    <path
       d="m -19.744465,3.9687 h 6.3499 c 0.73289,0 1.3229,0.59001 1.3229,1.3229 v 6.3499 c 0,0.73289 -0.59001,1.3229 -1.3229,1.3229 h -6.3499 c -0.73289,0 -1.3229,-0.59001 -1.3229,-1.3229 V 5.2916 c 0,-0.73289 0.59001,-1.3229 1.3229,-1.3229 z"
       fill="url(#g)"
       fill-rule="evenodd"
       stroke-width="0.26458"
       style="fill:url(#linearGradient906);paint-order:stroke fill markers"
       id="path888" />
    <path
       d="m -19.744465,11.02 h 3.1059 v 0.62118 h -3.1059 z"
       fill="#f9f9f9"
       stroke-width="0.26457"
       id="path890" />
    <g
       fill="#ffffff"
       stroke-width="0.1127"
       aria-label="GO"
       id="g896"
       transform="translate(-25.036065)">
      <path
         d="m 6.8538,8.8866 c 0.46431,0 0.8565,-0.18032 1.0819,-0.4012 V 6.9798 H 6.7501 V 7.52525 H 7.34063 V 8.1834 C 7.245964,8.264542 7.08368,8.30962 6.9259,8.30962 c -0.65815,0 -0.99173,-0.43726 -0.99173,-1.163 0,-0.71675 0.38768,-1.1495 0.94215,-1.1495 0.30203,0 0.49136,0.12171 0.65815,0.27949 L 7.88609,5.85287 C 7.66971,5.63198 7.33613,5.42462 6.85379,5.42462 c -0.88805,0 -1.6003,0.64463 -1.6003,1.7446 0,1.1134 0.69421,1.7175 1.6003,1.7175 z"
         id="path892" />
      <path
         d="m 9.9777,8.8866 c 0.88355,0 1.4921,-0.66266 1.4921,-1.7446 0,-1.0819 -0.60856,-1.7175 -1.4921,-1.7175 -0.88354,0 -1.4921,0.6311 -1.4921,1.7175 0,1.0819 0.60856,1.7446 1.4921,1.7446 z m 0,-0.57701 c -0.49587,0 -0.81142,-0.4553 -0.81142,-1.1675 0,-0.71675 0.31555,-1.145 0.81142,-1.145 0.49587,0 0.81142,0.42825 0.81142,1.145 0,0.71225 -0.31555,1.1675 -0.81142,1.1675 z"
         id="path894" />
    </g>
  </g>
</svg>
