<?xml version="1.0" encoding="UTF-8"?>
<!-- Created with Inkscape (http://www.inkscape.org/) -->
<svg width="64" height="64" version="1.1" viewBox="0 0 16.933 16.933" xmlns="http://www.w3.org/2000/svg" xmlns:cc="http://creativecommons.org/ns#" xmlns:dc="http://purl.org/dc/elements/1.1/" xmlns:rdf="http://www.w3.org/1999/02/22-rdf-syntax-ns#">
 <defs>
  <linearGradient id="linearGradient977" x1="-81.044" x2="-69.273" y1="-2.4143" y2="7.8046" gradientTransform="translate(78.576,24.134)" gradientUnits="userSpaceOnUse">
   <stop stop-color="#ffd250" offset="0"/>
   <stop stop-color="#ffb42d" offset="1"/>
  </linearGradient>
  <linearGradient id="linearGradient986" x1="-84.008" x2="-81.044" y1="12.888" y2="-2.4143" gradientTransform="translate(78.576,24.134)" gradientUnits="userSpaceOnUse">
   <stop stop-color="#0faa96" offset="0"/>
   <stop stop-color="#23b955" offset="1"/>
  </linearGradient>
  <linearGradient id="linearGradient994" x1="-84.008" x2="-69.273" y1="12.888" y2="7.8046" gradientTransform="translate(78.576,24.134)" gradientUnits="userSpaceOnUse">
   <stop stop-color="#3c82eb" offset="0"/>
   <stop stop-color="#05aaff" offset="1"/>
  </linearGradient>
  <linearGradient id="a-3-3" x1="61.559" x2="1.6271" y1="1.322" y2="60.78" gradientTransform="matrix(.26458 0 0 .26458 .06687 .21518)" gradientUnits="userSpaceOnUse">
   <stop stop-color="#f5faff" offset="0"/>
   <stop stop-color="#cfdef0" offset="1"/>
  </linearGradient>
  <filter id="filter1035" x="-.033604" y="-.038764" width="1.0672" height="1.0775" color-interpolation-filters="sRGB">
   <feGaussianBlur stdDeviation="0.24745875"/>
  </filter>
 </defs>
 <metadata>
  <rdf:RDF>
   <cc:Work rdf:about="">
    <dc:format>image/svg+xml</dc:format>
    <dc:type rdf:resource="http://purl.org/dc/dcmitype/StillImage"/>
    <dc:title/>
   </cc:Work>
  </rdf:RDF>
 </metadata>
 <circle cx="8.4665" cy="8.4665" r="7.9373" fill="url(#a-3-3)" image-rendering="optimizeSpeed" stroke-width=".26458" style="paint-order:stroke markers fill"/>
 <g transform="matrix(.67366 0 0 .67366 8.1283 -11.314)" filter="url(#filter1035)" opacity=".3">
  <path d="m-2.4679 21.72h5.8703l5.8998 10.219h-5.8337z"/>
  <path d="m-2.4533 21.702 2.9352 5.0839-5.8998 10.219-2.9168-5.0521z"/>
  <path d="m9.3023 31.939-2.9352 5.0839-11.8-2e-6 2.9386-5.0842z"/>
  <path d="m-2.4533 21.702 2.9352 5.0839-0.13466 0.23324z" opacity=".2"/>
  <path d="m-5.4292 37.022 2.9352-5.0839h0.26933z" opacity=".2"/>
  <path d="m9.3389 31.939h-5.8703l-0.13466-0.23325z" opacity=".2"/>
 </g>
 <g transform="translate(-2.4384 -6.1704)" fill="#5e4aa6" image-rendering="optimizeSpeed" stroke-width=".26458">
  <g transform="translate(55.677,-3.157)">
   <circle cx="-322.63" cy="-345.67" r="0"/>
   <circle cx="-31.726" cy="-10.849" r="0" fill-rule="evenodd"/>
   <circle cx="-306.92" cy="-328.72" r="0"/>
  </g>
  <g transform="translate(47.177,-15.995)" image-rendering="optimizeSpeed">
   <circle cx="-330.35" cy="-328.38" r="0"/>
   <circle cx="-312.11" cy="-326.25" r="0"/>
   <circle cx="-306.02" cy="-333.07" r="0"/>
   <circle cx="-308.84" cy="-326.01" r="0"/>
  </g>
  <g transform="translate(47.177,-15.995)" image-rendering="optimizeSpeed">
   <circle cx="-330.35" cy="-328.38" r="0"/>
   <circle cx="-312.11" cy="-326.25" r="0"/>
   <circle cx="-306.02" cy="-333.07" r="0"/>
   <circle cx="-308.84" cy="-326.01" r="0"/>
  </g>
 </g>
 <g transform="matrix(.67366 0 0 .67366 8.1283 -11.314)">
  <path d="m-2.4679 21.72h5.8703l5.8998 10.219h-5.8337z" fill="url(#linearGradient977)"/>
  <path d="m-2.4533 21.702 2.9352 5.0839-5.8998 10.219-2.9168-5.0521z" fill="url(#linearGradient986)"/>
  <path d="m9.3023 31.939-2.9352 5.0839-11.8-2e-6 2.9386-5.0842z" fill="url(#linearGradient994)"/>
  <path d="m-2.4533 21.702 2.9352 5.0839-0.13466 0.23324z" opacity=".2"/>
  <path d="m-5.4292 37.022 2.9352-5.0839h0.26933z" opacity=".2"/>
  <path d="m9.3389 31.939h-5.8703l-0.13466-0.23325z" opacity=".2"/>
 </g>
</svg>
