<?xml version="1.0" encoding="UTF-8" standalone="no"?>
<svg
   xmlns:dc="http://purl.org/dc/elements/1.1/"
   xmlns:cc="http://creativecommons.org/ns#"
   xmlns:rdf="http://www.w3.org/1999/02/22-rdf-syntax-ns#"
   xmlns:svg="http://www.w3.org/2000/svg"
   xmlns="http://www.w3.org/2000/svg"
   xmlns:xlink="http://www.w3.org/1999/xlink"
   xmlns:sodipodi="http://sodipodi.sourceforge.net/DTD/sodipodi-0.dtd"
   xmlns:inkscape="http://www.inkscape.org/namespaces/inkscape"
   id="Calendar"
   width="64"
   height="64"
   enable-background="new 0 0 1024 1024"
   image-rendering="optimizeSpeed"
   version="1.1"
   viewBox="0 0 64 64"
   sodipodi:docname="google-calendar.svg"
   inkscape:version="1.0.1 (3bc2e813f5, 2020-09-07)">
  <metadata
     id="metadata53">
    <rdf:RDF>
      <cc:Work
         rdf:about="">
        <dc:format>image/svg+xml</dc:format>
        <dc:type
           rdf:resource="http://purl.org/dc/dcmitype/StillImage" />
        <dc:title></dc:title>
      </cc:Work>
    </rdf:RDF>
  </metadata>
  <sodipodi:namedview
     pagecolor="#ffffff"
     bordercolor="#666666"
     borderopacity="1"
     objecttolerance="10"
     gridtolerance="10"
     guidetolerance="10"
     inkscape:pageopacity="0"
     inkscape:pageshadow="2"
     inkscape:window-width="1920"
     inkscape:window-height="942"
     id="namedview51"
     showgrid="false"
     inkscape:zoom="6.0546875"
     inkscape:cx="47.273827"
     inkscape:cy="39.633815"
     inkscape:window-x="0"
     inkscape:window-y="38"
     inkscape:window-maximized="1"
     inkscape:current-layer="Calendar"
     inkscape:document-rotation="0" />
  <defs
     id="defs20">
    <linearGradient
       inkscape:collect="always"
       id="linearGradient953">
      <stop
         style="stop-color:#6e7ceb;stop-opacity:1"
         offset="0"
         id="stop949" />
      <stop
         style="stop-color:#a285f4;stop-opacity:1"
         offset="1"
         id="stop951" />
    </linearGradient>
    <linearGradient
       id="d"
       x1="280"
       x2="280"
       y1="4"
       y2="1024"
       gradientTransform="translate(5.7023,-0.2354)"
       gradientUnits="userSpaceOnUse">
      <stop
         stop-color="#5e75e3"
         offset="0"
         id="stop2" />
      <stop
         stop-color="#8189fa"
         offset="1"
         id="stop4" />
    </linearGradient>
    <linearGradient
       id="c"
       x1="422"
       x2="884.67"
       y1="166.12"
       y2="166.12"
       gradientTransform="translate(0.052793,1.2146)"
       gradientUnits="userSpaceOnUse">
      <stop
         stop-color="#5e91e3"
         offset="0"
         id="stop7" />
      <stop
         stop-color="#a781fa"
         offset="1"
         id="stop9" />
    </linearGradient>
    <linearGradient
       id="b"
       x1="520"
       x2="520"
       y1="4"
       y2="1024"
       gradientTransform="matrix(1,0,0,1.0052,2.0077,-3.0664)"
       gradientUnits="userSpaceOnUse">
      <stop
         stop-color="#d7d7d7"
         offset="0"
         id="stop12" />
      <stop
         stop-color="#fff"
         offset="1"
         id="stop14" />
    </linearGradient>
    <filter
       id="e"
       x="-.036"
       y="-.036"
       width="1.072"
       height="1.072"
       color-interpolation-filters="sRGB">
      <feGaussianBlur
         stdDeviation="14.074851"
         id="feGaussianBlur17" />
    </filter>
    <linearGradient
       id="linearGradient1003"
       x1="80.552"
       x2="81.596"
       y1="13.364"
       y2="14.091"
       gradientTransform="matrix(2.2818969,0.27502652,-0.25791248,2.4333078,-132.79783,-8.41733)"
       gradientUnits="userSpaceOnUse">
      <stop
         stop-color="#fbc7ba"
         offset="0"
         id="stop878"
         style="stop-color:#a482f9;stop-opacity:1" />
      <stop
         stop-color="#f8d2c8"
         offset="1"
         id="stop880"
         style="stop-color:#6076e4;stop-opacity:1" />
    </linearGradient>
    <linearGradient
       id="linearGradient848"
       x1="-170.2"
       x2="-184.75"
       y1="-1.2654"
       y2="-15.817"
       gradientTransform="matrix(3.779602,0,0,3.779602,702.77882,63.973387)"
       gradientUnits="userSpaceOnUse">
      <stop
         stop-color="#f5501e"
         offset="0"
         id="stop883"
         style="stop-color:#a686f4;stop-opacity:0.87843138" />
      <stop
         stop-color="#ff640a"
         offset="1"
         id="stop885"
         style="stop-color:#6a7ceb;stop-opacity:1" />
    </linearGradient>
    <linearGradient
       id="linearGradient848-3"
       x1="-172.53354"
       x2="-182.27777"
       y1="-3.5989354"
       y2="-13.343172"
       gradientTransform="matrix(4.1231293,0,0,4.1231293,764.73875,61.682993)"
       gradientUnits="userSpaceOnUse">
      <stop
         stop-color="#f5501e"
         offset="0"
         id="stop856"
         style="stop-color:#a285f4;stop-opacity:0.88627452" />
      <stop
         stop-color="#ff640a"
         offset="1"
         id="stop858"
         style="stop-color:#6e7ceb;stop-opacity:0.99215686" />
    </linearGradient>
    <linearGradient
       inkscape:collect="always"
       xlink:href="#linearGradient953"
       id="linearGradient955"
       x1="84.652985"
       y1="2.0449951"
       x2="144.36584"
       y2="61.757847"
       gradientUnits="userSpaceOnUse"
       gradientTransform="translate(-82.330566)" />
  </defs>
  <circle
     style="fill:url(#linearGradient955);fill-opacity:1;stroke-width:0.669368;stroke-linecap:round;stroke-linejoin:round;paint-order:stroke fill markers"
     id="path947"
     cx="32"
     cy="32"
     r="30" />
  <rect
     x="16.246393"
     y="10.346434"
     width="31.506763"
     height="4.1416879"
     ry="2.0708439"
     fill="#ebf0f0"
     stroke-width="4.12317"
     style="paint-order:stroke fill markers"
     id="rect867" />
  <path
     d="m 9.9903949,21.668609 c -0.1818669,-1.4e-5 -0.3579548,0.02128 -0.530694,0.05209 A 25.004713,25.004713 0 0 0 6.9998982,32.370488 V 32.61956 A 25.004713,25.004713 0 0 0 32.000076,57.479514 25.004713,25.004713 0 0 0 57.000253,32.56589 V 32.349375 A 25.004713,25.004713 0 0 0 54.550239,21.727182 c -0.174768,-0.0316 -0.35309,-0.05533 -0.537232,-0.05535 z"
     fill="#ebf0f0"
     stroke-width="2.90897"
     id="path869" />
  <g
     aria-label="15"
     id="text873"
     style="font-weight:bold;font-size:21.0879px;line-height:1.25;font-family:Hack;font-variant-ligatures:normal;font-variant-caps:normal;font-variant-numeric:normal;font-feature-settings:normal;letter-spacing:0px;word-spacing:0px;fill:#6177e5;fill-opacity:1;stroke-width:0.527179">
    <g
       id="g964"
       style="opacity:1">
      <path
         style="color:#000000;font-style:normal;font-variant:normal;font-weight:bold;font-stretch:normal;font-size:21.0879px;line-height:1.25;font-family:Hack;font-variant-ligatures:normal;font-variant-position:normal;font-variant-caps:normal;font-variant-numeric:normal;font-variant-alternates:normal;font-variant-east-asian:normal;font-feature-settings:normal;font-variation-settings:normal;text-indent:0;text-align:start;text-decoration:none;text-decoration-line:none;text-decoration-style:solid;text-decoration-color:#000000;letter-spacing:0px;word-spacing:0px;text-transform:none;writing-mode:lr-tb;direction:ltr;text-orientation:mixed;dominant-baseline:auto;baseline-shift:baseline;text-anchor:start;white-space:normal;shape-padding:0;shape-margin:0;inline-size:0;clip-rule:nonzero;display:inline;overflow:visible;visibility:visible;isolation:auto;mix-blend-mode:normal;color-interpolation:sRGB;color-interpolation-filters:linearRGB;solid-color:#000000;solid-opacity:1;vector-effect:none;fill:#6177e5;fill-opacity:1;fill-rule:nonzero;stroke-width:0.527179;stroke-linecap:butt;stroke-linejoin:miter;stroke-miterlimit:4;stroke-dasharray:none;stroke-dashoffset:0;stroke-opacity:1.0;color-rendering:auto;image-rendering:auto;shape-rendering:auto;text-rendering:auto;enable-background:accumulate;stop-color:#000000;stop-opacity:1;stroke:none;"
         d="m 21.162383,43.332812 h 3.397953 V 33.76706 l -2.306489,2.502129 -1.441556,-1.503336 3.768638,-4.129028 h 2.934596 v 12.695987 h 3.397952 v 2.677175 h -9.751094 z"
         id="path966" />
      <path
         style="color:#000000;font-style:normal;font-variant:normal;font-weight:bold;font-stretch:normal;font-size:21.0879px;line-height:1.25;font-family:Hack;font-variant-ligatures:normal;font-variant-position:normal;font-variant-caps:normal;font-variant-numeric:normal;font-variant-alternates:normal;font-variant-east-asian:normal;font-feature-settings:normal;font-variation-settings:normal;text-indent:0;text-align:start;text-decoration:none;text-decoration-line:none;text-decoration-style:solid;text-decoration-color:#000000;letter-spacing:0px;word-spacing:0px;text-transform:none;writing-mode:lr-tb;direction:ltr;text-orientation:mixed;dominant-baseline:auto;baseline-shift:baseline;text-anchor:start;white-space:normal;shape-padding:0;shape-margin:0;inline-size:0;clip-rule:nonzero;display:inline;overflow:visible;visibility:visible;isolation:auto;mix-blend-mode:normal;color-interpolation:sRGB;color-interpolation-filters:linearRGB;solid-color:#000000;solid-opacity:1;vector-effect:none;fill-opacity:1;fill-rule:nonzero;stroke-width:0.527179;stroke-linecap:butt;stroke-linejoin:miter;stroke-miterlimit:4;stroke-dasharray:none;stroke-dashoffset:0;stroke-opacity:1.0;color-rendering:auto;image-rendering:auto;shape-rendering:auto;text-rendering:auto;enable-background:accumulate;stop-color:#000000;stop-opacity:1;stroke:none;"
         d="M 24.464844 30.373047 L 20.451172 34.769531 L 22.257812 36.654297 L 24.296875 34.441406 L 24.296875 43.068359 L 20.898438 43.068359 L 20.898438 43.332031 L 20.898438 46.273438 L 31.177734 46.273438 L 31.177734 43.068359 L 27.779297 43.068359 L 27.779297 30.373047 L 24.464844 30.373047 z M 24.697266 30.900391 L 27.251953 30.900391 L 27.251953 43.595703 L 30.650391 43.595703 L 30.650391 45.746094 L 21.425781 45.746094 L 21.425781 43.595703 L 24.824219 43.595703 L 24.824219 33.091797 L 22.25 35.884766 L 21.173828 34.761719 L 24.697266 30.900391 z "
         id="path968" />
    </g>
    <g
       id="g970"
       style="opacity:1">
      <path
         style="color:#000000;font-style:normal;font-variant:normal;font-weight:bold;font-stretch:normal;font-size:21.0879px;line-height:1.25;font-family:Hack;font-variant-ligatures:normal;font-variant-position:normal;font-variant-caps:normal;font-variant-numeric:normal;font-variant-alternates:normal;font-variant-east-asian:normal;font-feature-settings:normal;font-variation-settings:normal;text-indent:0;text-align:start;text-decoration:none;text-decoration-line:none;text-decoration-style:solid;text-decoration-color:#000000;letter-spacing:0px;word-spacing:0px;text-transform:none;writing-mode:lr-tb;direction:ltr;text-orientation:mixed;dominant-baseline:auto;baseline-shift:baseline;text-anchor:start;white-space:normal;shape-padding:0;shape-margin:0;inline-size:0;clip-rule:nonzero;display:inline;overflow:visible;visibility:visible;isolation:auto;mix-blend-mode:normal;color-interpolation:sRGB;color-interpolation-filters:linearRGB;solid-color:#000000;solid-opacity:1;vector-effect:none;fill:#6177e5;fill-opacity:1;fill-rule:nonzero;stroke-width:0.527179;stroke-linecap:butt;stroke-linejoin:miter;stroke-miterlimit:4;stroke-dasharray:none;stroke-dashoffset:0;stroke-opacity:1.0;color-rendering:auto;image-rendering:auto;shape-rendering:auto;text-rendering:auto;enable-background:accumulate;stop-color:#000000;stop-opacity:1;stroke:none;"
         d="m 37.410775,46.308595 c -0.295176,0 -0.610945,-0.01373 -0.947308,-0.04119 -0.336363,-0.02746 -0.672726,-0.06865 -1.009089,-0.123562 -0.343227,-0.05492 -0.689887,-0.123566 -1.03998,-0.205937 -0.343227,-0.08924 -0.683022,-0.185343 -1.019385,-0.288311 v -2.738956 c 0.308905,0.15102 0.600648,0.274582 0.87523,0.370686 0.274582,0.0961 0.569758,0.18191 0.885527,0.257421 0.576622,0.144155 1.173838,0.216233 1.791648,0.216233 1.091463,0 1.908345,-0.229962 2.450644,-0.689887 0.556029,-0.46679 0.834043,-1.11549 0.834043,-1.946101 0,-0.871798 -0.27115,-1.537659 -0.813449,-1.997584 -0.535435,-0.466789 -1.290536,-0.700184 -2.265302,-0.700184 -0.240259,0 -0.49768,0.01716 -0.772262,0.05148 -0.267717,0.02746 -0.538867,0.07551 -0.813449,0.144156 -0.281447,0.06865 -0.569758,0.157884 -0.864933,0.267717 -0.288311,0.109833 -0.552597,0.223098 -0.792856,0.339795 V 30.636825 H 42.26058 V 33.314 h -5.889785 v 2.852221 c 0.06865,-0.02746 0.178479,-0.06178 0.329499,-0.102968 0.15102,-0.04805 0.305472,-0.08581 0.463357,-0.113265 0.123562,-0.02059 0.27115,-0.03432 0.442764,-0.04119 0.171613,-0.01373 0.329498,-0.02059 0.473654,-0.02059 0.727642,0 1.410665,0.123562 2.049068,0.370685 0.638403,0.240259 1.187567,0.593784 1.647492,1.060574 0.446196,0.45306 0.792856,0.998792 1.03998,1.637195 0.247123,0.638403 0.370685,1.352317 0.370685,2.14174 0,1.613169 -0.507977,2.886543 -1.52393,3.820122 -1.009089,0.926715 -2.426618,1.390072 -4.252589,1.390072 z"
         id="path972" />
      <path
         style="color:#000000;font-style:normal;font-variant:normal;font-weight:bold;font-stretch:normal;font-size:21.0879px;line-height:1.25;font-family:Hack;font-variant-ligatures:normal;font-variant-position:normal;font-variant-caps:normal;font-variant-numeric:normal;font-variant-alternates:normal;font-variant-east-asian:normal;font-feature-settings:normal;font-variation-settings:normal;text-indent:0;text-align:start;text-decoration:none;text-decoration-line:none;text-decoration-style:solid;text-decoration-color:#000000;letter-spacing:0px;word-spacing:0px;text-transform:none;writing-mode:lr-tb;direction:ltr;text-orientation:mixed;dominant-baseline:auto;baseline-shift:baseline;text-anchor:start;white-space:normal;shape-padding:0;shape-margin:0;inline-size:0;clip-rule:nonzero;display:inline;overflow:visible;visibility:visible;isolation:auto;mix-blend-mode:normal;color-interpolation:sRGB;color-interpolation-filters:linearRGB;solid-color:#000000;solid-opacity:1;vector-effect:none;fill-opacity:1;fill-rule:nonzero;stroke-width:0.527179;stroke-linecap:butt;stroke-linejoin:miter;stroke-miterlimit:4;stroke-dasharray:none;stroke-dashoffset:0;stroke-opacity:1.0;color-rendering:auto;image-rendering:auto;shape-rendering:auto;text-rendering:auto;enable-background:accumulate;stop-color:#000000;stop-opacity:1;stroke:none;"
         d="M 33.646484 30.373047 L 33.646484 39.644531 L 34.025391 39.460938 C 34.257114 39.348386 34.51358 39.23809 34.794922 39.130859 C 35.081256 39.024316 35.360245 38.93905 35.630859 38.873047 C 35.89391 38.807286 36.153564 38.760494 36.408203 38.734375 L 36.410156 38.734375 L 36.414062 38.734375 C 36.679256 38.701228 36.926588 38.685547 37.154297 38.685547 C 38.086988 38.685547 38.770381 38.905589 39.246094 39.320312 L 39.248047 39.322266 C 39.72769 39.729051 39.96875 40.301998 39.96875 41.119141 C 39.96875 41.890934 39.725577 42.445994 39.228516 42.863281 C 38.752745 43.266783 38.001705 43.492187 36.947266 43.492188 C 36.349957 43.492187 35.773883 43.421986 35.21875 43.283203 L 35.216797 43.283203 C 34.90882 43.209556 34.622584 43.12601 34.357422 43.033203 C 34.094384 42.941139 33.812758 42.821003 33.511719 42.673828 L 33.130859 42.488281 L 33.130859 45.84375 L 33.318359 45.902344 C 33.658337 46.006418 34.000829 46.103184 34.347656 46.193359 L 34.351562 46.193359 L 34.353516 46.195312 C 34.709589 46.279091 35.062387 46.348338 35.412109 46.404297 C 35.755366 46.460337 36.097942 46.501257 36.441406 46.529297 C 36.784001 46.557266 37.106806 46.572266 37.410156 46.572266 C 39.280719 46.572266 40.774369 46.093573 41.841797 45.113281 C 42.913446 44.128522 43.451172 42.766161 43.451172 41.097656 C 43.451172 40.280728 43.322827 39.533842 43.0625 38.861328 C 42.803674 38.192695 42.437401 37.614592 41.964844 37.134766 C 41.478628 36.641292 40.895048 36.266392 40.224609 36.013672 C 39.554765 35.754378 38.83756 35.625 38.080078 35.625 C 37.927556 35.625 37.763398 35.63229 37.585938 35.646484 C 37.410959 35.653812 37.256613 35.666867 37.121094 35.689453 L 37.119141 35.689453 C 36.954354 35.71811 36.792951 35.758921 36.634766 35.808594 L 36.634766 33.578125 L 42.523438 33.578125 L 42.523438 30.373047 L 33.646484 30.373047 z M 34.173828 30.900391 L 41.996094 30.900391 L 41.996094 33.050781 L 36.107422 33.050781 L 36.107422 36.554688 L 36.46875 36.410156 C 36.5177 36.390575 36.623077 36.3583 36.769531 36.318359 L 36.775391 36.316406 L 36.779297 36.314453 C 36.918848 36.270049 37.062696 36.234424 37.208984 36.208984 L 37.207031 36.210938 C 37.31576 36.192816 37.453566 36.178422 37.617188 36.171875 L 37.623047 36.171875 L 37.626953 36.171875 C 37.792719 36.158616 37.944289 36.152344 38.080078 36.152344 C 38.77788 36.152344 39.42624 36.268953 40.033203 36.503906 L 40.035156 36.505859 L 40.037109 36.505859 C 40.641836 36.733445 41.155132 37.065027 41.587891 37.503906 C 42.007726 37.9302 42.33489 38.444561 42.570312 39.052734 C 42.804232 39.657028 42.923828 40.335738 42.923828 41.097656 C 42.923828 42.65549 42.444632 43.842211 41.484375 44.724609 C 40.533625 45.597747 39.191535 46.044922 37.410156 46.044922 C 37.123154 46.044922 36.814505 46.030857 36.484375 46.003906 C 36.155112 45.977026 35.825562 45.936602 35.496094 45.882812 C 35.161343 45.829249 34.822513 45.763923 34.480469 45.683594 L 34.474609 45.681641 C 34.199565 45.610056 33.928734 45.531651 33.658203 45.451172 L 33.658203 43.306641 C 33.834697 43.383356 34.017329 43.471104 34.183594 43.529297 C 34.467034 43.6285 34.768953 43.717658 35.091797 43.794922 C 35.689908 43.944449 36.308954 44.019531 36.947266 44.019531 C 38.075753 44.019531 38.959532 43.781972 39.568359 43.265625 C 40.182534 42.749376 40.496094 42.00797 40.496094 41.119141 C 40.496094 40.193772 40.195335 39.434913 39.591797 38.921875 C 38.996639 38.40302 38.171138 38.158203 37.154297 38.158203 C 36.901487 38.158203 36.631627 38.175444 36.347656 38.210938 C 36.068701 38.239832 35.788107 38.29028 35.503906 38.361328 C 35.212187 38.432557 34.914738 38.523822 34.611328 38.636719 L 34.609375 38.638672 C 34.451895 38.698664 34.318051 38.761887 34.173828 38.824219 L 34.173828 30.900391 z "
         id="path974" />
    </g>
  </g>
</svg>
