<?xml version="1.0" encoding="UTF-8"?>
<svg width="64" height="64" version="1" xmlns="http://www.w3.org/2000/svg" xmlns:xlink="http://www.w3.org/1999/xlink">
 <defs>
  <filter id="filter1272" x="-.094272" y="-.090466" width="1.1885" height="1.1809" color-interpolation-filters="sRGB">
   <feGaussianBlur stdDeviation="0.39771105"/>
  </filter>
  <linearGradient id="linearGradient8202" x1="3.1511" x2="15.102" y1="3.2015" y2="14.108" gradientTransform="matrix(3.7796 0 0 3.7796 88.195 19.545)" gradientUnits="userSpaceOnUse">
   <stop stop-color="#ffef5c" offset="0"/>
   <stop stop-color="#fef78c" offset="1"/>
  </linearGradient>
  <filter id="filter1066" x="-.063923" y="-.056531" width="1.1278" height="1.1131" color-interpolation-filters="sRGB">
   <feGaussianBlur stdDeviation="0.22705935"/>
  </filter>
  <linearGradient id="linearGradient6981" x1="13.332" x2="12.191" y1="12.151" y2="10.824" gradientTransform="matrix(4.1886 0 0 4.0672 82.403 16.51)" gradientUnits="userSpaceOnUse">
   <stop stop-color="#fbc54c" offset="0"/>
   <stop stop-color="#fde465" offset="1"/>
  </linearGradient>
 </defs>
 <g transform="matrix(.98354 0 0 .98354 -86.188 -18.696)">
  <circle cx="119.92" cy="51.702" r="30" color="#000000" fill="#fcd13e"/>
  <path transform="matrix(3.3629 0 0 3.6782 -47.209 2.759)" d="m57.641 9.8253c0.81583 3.5615-6.4071 9.5974-9.8786 10.551l4.6899-0.01017c4.0983-2.6261 3.5124-2.2804 5.4351-4.4455z" fill="#f97000" filter="url(#filter1272)" opacity=".2"/>
  <path d="m119.66 21.303a30 30.173 0 0 0-30 30.174 30 30.173 0 0 0 20.932 28.75l2.0136-0.22787c14.201-3.9285 34.19-16.084 34.981-39.535a30 30.173 0 0 0-27.926-19.161zm27.994 19.342 1.6836 14.985a30 30.173 0 0 0 2e-3 -0.0079l-1.6797-14.959a30 30.173 0 0 0-6e-3 -0.01769z" color="#000000" fill="url(#linearGradient8202)" stroke-width="1.0029"/>
  <path transform="matrix(4.1561 0 0 3.9009 -92.265 3.7157)" d="m57.818 9.8288s0.05354 3.0782-2.6636 4.5408c-2.2449 1.2084 0.9386 2.689-5.8599 5.0989 8.8505-2.5748 8.5235-9.6396 8.5235-9.6396z" fill="#f71414" filter="url(#filter1066)" opacity=".3"/>
  <path transform="matrix(4.0385 0 0 3.7631 -85.303 5.703)" d="m57.818 9.8288s0.05354 3.0782-2.6636 4.5408c-2.2449 1.2084 0.9386 2.689-5.8599 5.0989 8.8505-2.5748 8.5235-9.6396 8.5235-9.6396z" fill="#f79418" filter="url(#filter1066)"/>
  <path d="m147.29 40.323s0.22953 12.814-11.419 18.903c-9.6236 5.0303 4.0238 11.194-25.122 21.225 37.943-10.718 36.841-39.981 36.841-39.981z" fill="url(#linearGradient6981)" stroke-width="4.2245"/>
  <path d="m147.29 40.323s-0.80861 13.02-10.744 18.354c-11.429 6.1362 4.1606 11.62-25.95 21.549" fill="none" stroke="#fddf61" stroke-width=".55885"/>
  <path d="m147.66 40.645 1.6836 14.984a30 30.173 0 0 0 2e-3 -0.0078l-1.6797-14.959a30 30.173 0 0 0-4e-3 -0.01758h-2e-3z" color="#000000" fill="#fafafa" stroke-width="1.0029"/>
  <g fill="#f4af3c" stroke-width=".50254">
   <path d="m114.53 58.649-1.968-3.4086-2.8051 1.6195-0.81469-1.4111 4.5053-2.6011 3.1459 5.4491q-0.5872 1.2797-1.5747 2.3373-0.99244 1.049-2.3525 1.8342-2.9751 1.7177-5.6592 0.95537-2.6806-0.77572-4.472-3.8782-1.7962-3.1111-1.1228-5.8119 0.67704-2.7143 3.6522-4.432 1.2411-0.71654 2.5313-1.0534 1.2987-0.34179 2.5858-0.29155l1.0552 1.8276q-1.4183-0.2579-2.7249-0.04751-1.3066 0.21036-2.4882 0.89252-2.3291 1.3447-2.7513 3.3225-0.41368 1.9729 1.0734 4.5484 1.4821 2.5671 3.3975 3.1954 1.9239 0.62329 4.2532-0.72141 0.90952-0.5251 1.5352-1.0904 0.6208-0.57374 0.99891-1.2341z"/>
   <path d="m110.71 46.352 10.736-6.1985 0.83431 1.4451-4.5053 2.6011 6.493 11.246-1.7256 0.99627-6.493-11.246-4.5053 2.6011z"/>
   <path d="m123.1 39.197 1.7171-0.99135 3.0968 5.3636 2.5984-8.6519 2.2101-1.276-2.8832 9.5529 10.661 2.878-2.2611 1.3054-9.6236-2.5929 3.5286 6.1116-1.7171 0.99135z"/>
  </g>
 </g>
</svg>
