<?xml version="1.0" encoding="UTF-8" standalone="no"?>
<svg
   xmlns:dc="http://purl.org/dc/elements/1.1/"
   xmlns:cc="http://creativecommons.org/ns#"
   xmlns:rdf="http://www.w3.org/1999/02/22-rdf-syntax-ns#"
   xmlns:svg="http://www.w3.org/2000/svg"
   xmlns="http://www.w3.org/2000/svg"
   xmlns:xlink="http://www.w3.org/1999/xlink"
   xmlns:sodipodi="http://sodipodi.sourceforge.net/DTD/sodipodi-0.dtd"
   xmlns:inkscape="http://www.inkscape.org/namespaces/inkscape"
   width="64"
   height="64"
   version="1.1"
   id="svg55"
   sodipodi:docname="hwinfo.svg"
   inkscape:version="1.0 (4035a4fb49, 2020-05-01)">
  <metadata
     id="metadata59">
    <rdf:RDF>
      <cc:Work
         rdf:about="">
        <dc:format>image/svg+xml</dc:format>
        <dc:type
           rdf:resource="http://purl.org/dc/dcmitype/StillImage" />
        <dc:title></dc:title>
      </cc:Work>
    </rdf:RDF>
  </metadata>
  <sodipodi:namedview
     inkscape:document-rotation="0"
     pagecolor="#ffffff"
     bordercolor="#666666"
     borderopacity="1"
     objecttolerance="10"
     gridtolerance="10"
     guidetolerance="10"
     inkscape:pageopacity="0"
     inkscape:pageshadow="2"
     inkscape:window-width="1920"
     inkscape:window-height="985"
     id="namedview57"
     showgrid="false"
     inkscape:zoom="6.375"
     inkscape:cx="-19.757459"
     inkscape:cy="39.647246"
     inkscape:window-x="0"
     inkscape:window-y="0"
     inkscape:window-maximized="1"
     inkscape:current-layer="svg55" />
  <defs
     id="defs25">
    <linearGradient
       id="linearGradient919"
       inkscape:collect="always">
      <stop
         id="stop915"
         offset="0"
         style="stop-color:#299039;stop-opacity:1" />
      <stop
         id="stop917"
         offset="1"
         style="stop-color:#20df5f;stop-opacity:1" />
    </linearGradient>
    <linearGradient
       id="c"
       x1="32"
       x2="32"
       y1="11"
       y2="53"
       gradientTransform="translate(-1.0175e-5,-0.033043)"
       gradientUnits="userSpaceOnUse">
      <stop
         stop-color="#dcdede"
         offset="0"
         id="stop2" />
      <stop
         stop-color="#939493"
         offset="1"
         id="stop4" />
    </linearGradient>
    <filter
       id="f"
       x="-.06"
       y="-.06"
       width="1.12"
       height="1.12"
       color-interpolation-filters="sRGB">
      <feGaussianBlur
         stdDeviation="0.18520833"
         id="feGaussianBlur7" />
    </filter>
    <linearGradient
       id="b"
       x1="8.4666"
       x2="8.4666"
       y1="284.83"
       y2="292.24"
       gradientUnits="userSpaceOnUse">
      <stop
         stop-color="#4c5557"
         offset="0"
         id="stop10" />
      <stop
         stop-color="#282929"
         offset="1"
         id="stop12" />
    </linearGradient>
    <linearGradient
       id="linearGradient862-3"
       x1="7.9373"
       x2="7.9373"
       y1="15.081"
       y2="1.852"
       gradientTransform="matrix(3.7796,0,0,3.7796,-83.675717,0)"
       gradientUnits="userSpaceOnUse">
      <stop
         stop-color="#298f38"
         offset="0"
         id="stop15" />
      <stop
         stop-color="#20df5f"
         offset="1"
         id="stop17" />
    </linearGradient>
    <linearGradient
       id="linearGradient964"
       x1="30"
       x2="30"
       y1="10"
       y2="70"
       gradientUnits="userSpaceOnUse"
       gradientTransform="translate(-83.675717)">
      <stop
         offset="0"
         id="stop20" />
      <stop
         stop-opacity=".35"
         offset="1"
         id="stop22" />
    </linearGradient>
    <linearGradient
       gradientUnits="userSpaceOnUse"
       gradientTransform="matrix(1.5573094,0,0,1.5573094,465.83557,-49.528283)"
       y2="50.385"
       y1="44.527"
       x2="-275.5"
       x1="-272.21"
       id="linearGradient958">
      <stop
         id="stop884"
         offset="0"
         stop-color="#3650ae" />
      <stop
         id="stop886"
         offset="1"
         stop-color="#388fc9" />
    </linearGradient>
    <linearGradient
       gradientUnits="userSpaceOnUse"
       gradientTransform="matrix(1.5573094,0,0,1.5573094,465.83557,-49.528283)"
       y2="49.026"
       y1="54.907"
       x2="-267.62"
       x1="-272.86"
       id="linearGradient966">
      <stop
         id="stop889"
         offset="0"
         stop-color="#3491cb" />
      <stop
         id="stop891"
         offset="1"
         stop-color="#3850bb" />
    </linearGradient>
    <linearGradient
       gradientUnits="userSpaceOnUse"
       gradientTransform="matrix(1.5573094,0,0,1.5573094,465.83557,-49.528283)"
       y2="58.222"
       y1="59.727"
       x2="-270.88"
       x1="-277.66"
       id="linearGradient974">
      <stop
         id="stop894"
         offset="0"
         stop-color="#2fb1dc" />
      <stop
         id="stop896"
         offset="1"
         stop-color="#3491cb" />
    </linearGradient>
    <linearGradient
       gradientUnits="userSpaceOnUse"
       gradientTransform="matrix(1.5573094,0,0,1.5573094,465.83557,-49.528283)"
       y2="62.018"
       y1="54.154"
       x2="-278.76"
       x1="-282.61"
       id="linearGradient982">
      <stop
         id="stop899"
         offset="0"
         stop-color="#30add9" />
      <stop
         id="stop901"
         offset="1"
         stop-color="#329ed2" />
    </linearGradient>
    <linearGradient
       gradientUnits="userSpaceOnUse"
       gradientTransform="matrix(1.5573094,0,0,1.5573094,465.83557,-49.528283)"
       y2="49.414"
       y1="57.278"
       x2="-282.53"
       x1="-286.34"
       id="linearGradient990">
      <stop
         id="stop904"
         offset="0"
         stop-color="#329fd2" />
      <stop
         id="stop906"
         offset="1"
         stop-color="#2c80c1" />
    </linearGradient>
    <linearGradient
       gradientUnits="userSpaceOnUse"
       gradientTransform="matrix(1.5573094,0,0,1.5573094,465.83557,-49.528283)"
       y2="49.908"
       y1="43.16"
       x2="-282.55"
       x1="-281.51"
       id="linearGradient998">
      <stop
         id="stop909"
         offset="0"
         stop-color="#3857ba" />
      <stop
         id="stop911"
         offset="1"
         stop-color="#367dc1" />
    </linearGradient>
    <filter
       color-interpolation-filters="sRGB"
       height="1.1169"
       width="1.1234"
       y="-.058451"
       x="-.061721"
       id="filter1030">
      <feGaussianBlur
         id="feGaussianBlur914"
         stdDeviation="0.24897588" />
    </filter>
    <filter
       color-interpolation-filters="sRGB"
       height="1.1097"
       width="1.1324"
       y="-.054853"
       x="-.066213"
       id="filter1040">
      <feGaussianBlur
         id="feGaussianBlur917"
         stdDeviation="0.2340379" />
    </filter>
    <filter
       color-interpolation-filters="sRGB"
       height="1.1642"
       width="1.0945"
       y="-.082105"
       x="-.047273"
       id="filter1046">
      <feGaussianBlur
         id="feGaussianBlur920"
         stdDeviation="0.22334751" />
    </filter>
    <filter
       color-interpolation-filters="sRGB"
       height="1.1168"
       width="1.1234"
       y="-.058409"
       x="-.06168"
       id="filter1052">
      <feGaussianBlur
         id="feGaussianBlur923"
         stdDeviation="0.24881069" />
    </filter>
    <filter
       color-interpolation-filters="sRGB"
       height="1.1097"
       width="1.1324"
       y="-.054853"
       x="-.066213"
       id="filter1058">
      <feGaussianBlur
         id="feGaussianBlur926"
         stdDeviation="0.23403799" />
    </filter>
    <filter
       color-interpolation-filters="sRGB"
       height="1.1642"
       width="1.0945"
       y="-.082105"
       x="-.047273"
       id="filter1064">
      <feGaussianBlur
         id="feGaussianBlur929"
         stdDeviation="0.22334755" />
    </filter>
    <linearGradient
       gradientUnits="userSpaceOnUse"
       gradientTransform="matrix(1.5573094,0,0,1.5573094,465.83557,-49.528283)"
       y2="50.385"
       y1="44.527"
       x2="-275.5"
       x1="-272.21"
       id="linearGradient1098">
      <stop
         id="stop932"
         offset="0"
         stop-color="#3851ba" />
      <stop
         id="stop934"
         offset="1"
         stop-color="#348dc9" />
    </linearGradient>
    <filter
       color-interpolation-filters="sRGB"
       height="1.1203"
       width="1.1198"
       y="-.060125"
       x="-.059886"
       id="filter1103">
      <feGaussianBlur
         id="feGaussianBlur937"
         stdDeviation="0.60007942" />
    </filter>
    <linearGradient
       gradientUnits="userSpaceOnUse"
       gradientTransform="translate(237.02 -44.947)"
       y2="52.342"
       y1="49.422"
       x2="-228.54"
       x1="-228.54"
       id="linearGradient1227">
      <stop
         id="stop940"
         offset="0"
         stop-color="#fff" />
      <stop
         id="stop942"
         offset="1"
         stop-opacity="0"
         stop-color="#fff" />
    </linearGradient>
    <filter
       color-interpolation-filters="sRGB"
       height="1.2142"
       width="1.1382"
       y="-.1071"
       x="-.069096"
       id="filter1229">
      <feGaussianBlur
         id="feGaussianBlur945"
         stdDeviation="0.1347133" />
    </filter>
    <filter
       color-interpolation-filters="sRGB"
       height="1.5673"
       width="1.416"
       y="-.28364"
       x="-.208"
       id="filter1251">
      <feGaussianBlur
         id="feGaussianBlur948"
         stdDeviation="0.069956252" />
    </filter>
    <filter
       color-interpolation-filters="sRGB"
       height="1.12"
       width="1.12"
       y="-.06"
       x="-.06"
       id="filter1275">
      <feGaussianBlur
         id="feGaussianBlur951"
         stdDeviation="0.04134033" />
    </filter>
    <filter
       color-interpolation-filters="sRGB"
       height="1.048"
       width="1.048"
       y="-.024"
       x="-.024"
       id="filter1299">
      <feGaussianBlur
         id="feGaussianBlur954"
         stdDeviation="0.18834042" />
    </filter>
    <filter
       color-interpolation-filters="sRGB"
       height="1.12"
       width="1.12"
       y="-.06"
       x="-.06"
       id="filter1305">
      <feGaussianBlur
         id="feGaussianBlur957"
         stdDeviation="0.61852427" />
    </filter>
    <linearGradient
       gradientUnits="userSpaceOnUse"
       gradientTransform="matrix(3.779602,0,0,3.779602,702.81661,64.286872)"
       y2="-15.817"
       y1="-1.2655"
       x2="-170.2"
       x1="-184.75"
       id="linearGradient1159-3">
      <stop
         id="stop960"
         offset="0"
         stop-color="#05a0f0" />
      <stop
         id="stop962"
         offset="1"
         stop-color="#2db4f0" />
    </linearGradient>
    <linearGradient
       inkscape:collect="always"
       xlink:href="#linearGradient964"
       id="linearGradient1142"
       gradientUnits="userSpaceOnUse"
       gradientTransform="matrix(1.1109723,0,0,1.1109723,-3.5199847,-3.5345871)"
       x1="30"
       y1="10"
       x2="30"
       y2="70" />
    <linearGradient
       gradientUnits="userSpaceOnUse"
       y2="2.502738"
       x2="32.298603"
       y1="62.254486"
       x1="32.298603"
       id="linearGradient921"
       xlink:href="#linearGradient919"
       inkscape:collect="always" />
  </defs>
  <circle
     r="30"
     cy="32"
     cx="32"
     id="path913"
     style="fill:url(#linearGradient921);stroke-width:2.07406;stroke-linecap:round;fill-opacity:1" />
  <path
     d="M 30.919922 2.0195312 A 30 30 0 0 0 27.587891 2.328125 L 27.587891 16.654297 L 31.111328 13.130859 L 30.919922 13.130859 L 30.919922 2.0195312 z M 33.142578 2.0214844 L 33.142578 11.097656 L 36.474609 7.765625 L 36.474609 2.3359375 A 30 30 0 0 0 33.142578 2.0214844 z M 25.365234 2.7421875 A 30 30 0 0 0 22.033203 3.7050781 L 22.033203 14.431641 L 25.921875 18.320312 L 26.666016 17.572266 L 25.365234 17.572266 L 25.365234 2.7421875 z M 38.697266 2.7578125 L 38.697266 8.6855469 L 27.492188 19.890625 L 28.697266 21.097656 L 42.029297 7.765625 L 42.029297 3.7265625 A 30 30 0 0 0 38.697266 2.7578125 z M 19.810547 4.5878906 A 30 30 0 0 0 15.365234 7.0351562 L 15.365234 7.765625 L 19.810547 12.210938 L 19.810547 4.5878906 z M 44.251953 4.6171875 L 44.251953 8.6855469 L 29.324219 23.613281 L 28.697266 22.984375 L 28.070312 23.613281 L 25.921875 21.462891 L 23.769531 23.613281 L 23.142578 22.984375 L 22.515625 23.613281 L 10.246094 11.34375 A 30 30 0 0 0 8.6269531 13.193359 A 1.6664584 1.6664584 0 0 1 8.7011719 13.685547 A 1.6664584 1.6664584 0 0 1 8.6699219 14.003906 L 18.306641 23.640625 L 49.976562 23.640625 L 57.072266 15.529297 A 30 30 0 0 0 54.615234 12.289062 L 48.779297 18.855469 L 45.191406 18.855469 L 52.757812 10.341797 A 30 30 0 0 0 49.806641 7.8574219 L 49.806641 8.6855469 L 34.878906 23.613281 L 33.308594 22.041016 L 47.583984 7.765625 L 47.583984 6.3671875 A 30 30 0 0 0 44.251953 4.6171875 z M 13.146484 8.6660156 A 30 30 0 0 0 11.833984 9.7890625 L 23.142578 21.097656 L 24.349609 19.890625 L 22.033203 17.572266 L 19.810547 17.572266 L 19.810547 15.353516 L 13.146484 8.6855469 L 13.146484 8.6660156 z M 6.9785156 15.453125 A 30 30 0 0 0 3.5 22.628906 L 4.5117188 23.640625 L 15.164062 23.640625 L 6.9785156 15.453125 z M 12.888672 37.998047 L 4.7382812 44.517578 A 30 30 0 0 0 6.34375 47.546875 L 8.1015625 46.373047 L 8.1015625 48.765625 L 7.4296875 49.212891 A 30 30 0 0 0 12.888672 55.125 L 12.888672 49.962891 L 20.066406 43.980469 L 23.654297 43.980469 L 16.478516 49.962891 L 16.478516 57.671875 A 30 30 0 0 0 20.919922 59.876953 L 20.919922 57.425781 L 35.847656 42.498047 L 36.474609 43.125 L 37.103516 42.498047 L 39.251953 44.648438 L 41.402344 42.498047 L 42.029297 43.125 L 42.658203 42.498047 L 53.291016 53.132812 A 30 30 0 0 0 54.458984 51.888672 L 46.640625 44.068359 L 48.212891 42.498047 L 55.876953 50.162109 A 30 30 0 0 0 58.785156 45.509766 L 54.761719 40.390625 L 52.371094 40.390625 L 49.976562 37.998047 L 35.585938 37.998047 L 35.847656 38.259766 L 22 52.105469 A 1.6664584 1.6664584 0 0 1 22.033203 52.423828 A 1.6664584 1.6664584 0 0 1 20.365234 54.091797 A 1.6664584 1.6664584 0 0 1 18.697266 52.423828 A 1.6664584 1.6664584 0 0 1 20.197266 50.767578 L 32.966797 37.998047 L 12.888672 37.998047 z M 36.474609 45.013672 L 23.142578 58.345703 L 23.142578 60.662109 A 30 30 0 0 0 26.474609 61.486328 L 26.474609 57.425781 L 33.142578 50.757812 L 33.142578 48.539062 L 35.365234 48.539062 L 37.679688 46.220703 L 36.474609 45.013672 z M 42.029297 45.013672 L 40.822266 46.220703 L 50.341797 55.738281 A 30 30 0 0 0 51.667969 54.652344 L 42.029297 45.013672 z M 39.251953 47.791016 L 35.365234 51.679688 L 35.365234 61.810547 A 30 30 0 0 0 38.697266 61.242188 L 38.697266 48.537109 L 39.998047 48.537109 L 39.251953 47.791016 z M 40.919922 49.457031 L 40.919922 60.642578 A 30 30 0 0 0 44.251953 59.382812 L 44.251953 52.980469 L 44.443359 52.980469 L 40.919922 49.457031 z M 33.142578 53.900391 L 28.697266 58.345703 L 28.697266 61.816406 A 30 30 0 0 0 32 62 L 32.144531 62 A 30 30 0 0 0 33.142578 61.976562 L 33.142578 53.900391 z M 46.474609 55.013672 L 46.474609 58.275391 A 30 30 0 0 0 48.509766 57.048828 L 46.474609 55.013672 z "
     style="opacity:0.1;fill:url(#linearGradient1142);stroke-width:1.09091"
     id="path1140" />
  <g
     id="g1138"
     transform="translate(83.675507)">
    <g
       id="g51"
       transform="matrix(3.7796,0,0,3.7796,-83.675727,-1058.6)">
      <g
         id="g39"
         transform="translate(0,-0.0088674)">
        <path
           style="fill:url(#c)"
           id="path33"
           fill="url(#c)"
           d="m 20,13 -0.5,2 H 19 v 3.9668 H 15 V 19.5 l -2,0.5 2,0.5 v 0.4668 h 4 v 2 H 15 V 23.5 l -2,0.5 2,0.5 v 0.4668 h 4 v 2 H 15 V 27.5 l -2,0.5 2,0.5 v 0.4668 h 4 v 2 H 15 V 31.5 l -2,0.5 2,0.5 v 0.4668 h 4 v 2 H 15 V 35.5 l -2,0.5 2,0.5 v 0.4668 h 4 v 2 H 15 V 39.5 l -2,0.5 2,0.5 v 0.4668 h 4 v 2 H 15 V 43.5 l -2,0.5 2,0.5 v 0.4668 h 4 V 49 h 0.5 l 0.5,2 0.5,-2 H 21 v -4.0332 h 2 V 49 h 0.5 l 0.5,2 0.5,-2 H 25 v -4.0332 h 2 V 49 h 0.5 l 0.5,2 0.5,-2 H 29 v -4.0332 h 2 V 49 h 0.5 l 0.5,2 0.5,-2 H 33 v -4.0332 h 2 V 49 h 0.5 l 0.5,2 0.5,-2 H 37 v -4.0332 h 2 V 49 h 0.5 l 0.5,2 0.5,-2 H 41 v -4.0332 h 2 V 49 h 0.5 l 0.5,2 0.5,-2 H 45 v -4.0332 h 4 V 44.5 L 51,44 49,43.5 v -0.5332 h -4 v -2 h 4 V 40.5 L 51,40 49,39.5 v -0.5332 h -4 v -2 h 4 V 36.5 L 51,36 49,35.5 v -0.5332 h -4 v -2 h 4 V 32.5 L 51,32 49,31.5 v -0.5332 h -4 v -2 h 4 V 28.5 L 51,28 49,27.5 v -0.5332 h -4 v -2 h 4 V 24.5 L 51,24 49,23.5 v -0.5332 h -4 v -2 h 4 V 20.5 L 51,20 49,19.5 V 18.9668 H 45 V 15 H 44.5 L 44,13 43.5,15 H 43 v 3.9668 H 41 V 15 H 40.5 L 40,13 39.5,15 H 39 v 3.9668 H 37 V 15 H 36.5 L 36,13 35.5,15 H 35 v 3.9668 H 33 V 15 H 32.5 L 32,13 31.5,15 H 31 v 3.9668 H 29 V 15 H 28.5 L 28,13 27.5,15 H 27 v 3.9668 H 25 V 15 H 24.5 L 24,13 23.5,15 H 23 v 3.9668 H 21 V 15 h -0.5 z m 1,7.9668 h 2 v 2 h -2 z m 4,0 h 2 v 2 h -2 z m 4,0 h 2 v 2 h -2 z m 4,0 h 2 v 2 h -2 z m 4,0 h 2 v 2 h -2 z m 4,0 h 2 v 2 h -2 z m -20,4 h 2 v 2 h -2 z m 4,0 h 2 v 2 h -2 z m 4,0 h 2 v 2 h -2 z m 4,0 h 2 v 2 h -2 z m 4,0 h 2 v 2 h -2 z m 4,0 h 2 v 2 h -2 z m -20,4 h 2 v 2 h -2 z m 4,0 h 2 v 2 h -2 z m 4,0 h 2 v 2 h -2 z m 4,0 h 2 v 2 h -2 z m 4,0 h 2 v 2 h -2 z m 4,0 h 2 v 2 h -2 z m -20,4 h 2 v 2 h -2 z m 4,0 h 2 v 2 h -2 z m 4,0 h 2 v 2 h -2 z m 4,0 h 2 v 2 h -2 z m 4,0 h 2 v 2 h -2 z m 4,0 h 2 v 2 h -2 z m -20,4 h 2 v 2 h -2 z m 4,0 h 2 v 2 h -2 z m 4,0 h 2 v 2 h -2 z m 4,0 h 2 v 2 h -2 z m 4,0 h 2 v 2 h -2 z m 4,0 h 2 v 2 h -2 z m -20,4 h 2 v 2 h -2 z m 4,0 h 2 v 2 h -2 z m 4,0 h 2 v 2 h -2 z m 4,0 h 2 v 2 h -2 z m 4,0 h 2 v 2 h -2 z m 4,0 h 2 v 2 h -2 z"
           transform="matrix(0.26458,0,0,0.26458,2.692e-6,280.08)" />
        <path
           id="path35"
           opacity="0.5"
           filter="url(#f)"
           fill-rule="evenodd"
           d="m 5.2917,284.83 h 6.35 c 0.29316,0 0.52917,0.236 0.52917,0.52915 v 6.35 c 0,0.29315 -0.23601,0.52915 -0.52917,0.52915 h -6.35 c -0.29316,0 -0.52917,-0.236 -0.52917,-0.52915 v -6.35 c 0,-0.29315 0.23601,-0.52915 0.52917,-0.52915 z" />
        <path
           style="fill:url(#b)"
           id="path37"
           fill-rule="evenodd"
           fill="url(#b)"
           d="m 5.2917,284.83 h 6.35 c 0.29316,0 0.52917,0.236 0.52917,0.52915 v 6.35 c 0,0.29315 -0.23601,0.52915 -0.52917,0.52915 h -6.35 c -0.29316,0 -0.52917,-0.236 -0.52917,-0.52915 v -6.35 c 0,-0.29315 0.23601,-0.52915 0.52917,-0.52915 z" />
      </g>
      <g
         id="g49"
         fill-rule="evenodd">
        <path
           id="path41"
           style="paint-order:stroke fill markers"
           opacity="0.35"
           d="M 5.5563,285.49 A 0.13229,0.13229 0 0 1 5.42401,285.62229 0.13229,0.13229 0 0 1 5.29172,285.49 0.13229,0.13229 0 0 1 5.42401,285.35771 0.13229,0.13229 0 0 1 5.5563,285.49" />
        <path
           id="path43"
           style="paint-order:stroke fill markers"
           opacity="0.35"
           d="M 11.641,285.49 A 0.13229,0.13229 0 0 1 11.50871,285.62229 0.13229,0.13229 0 0 1 11.37642,285.49 0.13229,0.13229 0 0 1 11.50871,285.35771 0.13229,0.13229 0 0 1 11.641,285.49" />
        <path
           id="path45"
           style="paint-order:stroke fill markers"
           opacity="0.35"
           d="M 5.5563,291.58 A 0.13229,0.13229 0 0 1 5.42401,291.71229 0.13229,0.13229 0 0 1 5.29172,291.58 0.13229,0.13229 0 0 1 5.42401,291.44771 0.13229,0.13229 0 0 1 5.5563,291.58" />
        <path
           id="path47"
           style="paint-order:stroke fill markers"
           opacity="0.35"
           d="M 11.641,291.58 A 0.13229,0.13229 0 0 1 11.50871,291.71229 0.13229,0.13229 0 0 1 11.37642,291.58 0.13229,0.13229 0 0 1 11.50871,291.44771 0.13229,0.13229 0 0 1 11.641,291.58" />
      </g>
    </g>
    <path
       id="path53"
       opacity="0.5"
       fill="#ffffff"
       d="m -48.976717,25.756 c -2.7223,0.03489 -5.7618,0.79114 -8.211,2.2305 v 0.36523 c 5.5911,-2.7764 13.524,-2.7587 14.246,1.2188 0.20672,1.1197 -0.3197,2.2736 -1.3242,3.0801 v -4.1992 h -1.1094 v 4.666 c 0,0.39152 0.15271,0.73907 0.53711,0.93751 v 0.02344 c 0.0067,-0.0023 0.01287,-0.0074 0.01953,-0.0098 0.14972,0.07304 0.327,0.12791 0.55273,0.14844 v -0.39844 c 1.4432,-0.77326 2.7142,-2.4819 2.2812,-4.5293 -0.51797,-2.4287 -3.492,-3.5781 -6.9922,-3.5332 z m -9.6231,2.8359 v 0.99415 h 1.1094 V 28.5919 Z m 6.4824,0.44336 v 4.0469 c 0,0.58222 0.37915,1.1738 1.2793,1.1738 h 0.65039 v -0.8672 h -0.44726 c -0.26231,0 -0.38477,-0.13101 -0.38477,-0.36914 v -2.0234 h 0.83204 v -0.83985 h -0.83204 v -1.1211 h -1.0977 z m -7.1993,0.28906 c -1.6206,1.3723 -2.5005,3.1087 -1.9922,5.1582 0.64822,2.63 4.1025,4.1187 9.3771,3.623 2.0884,-0.19395 4.8222,-0.84457 6.7188,-1.8516 v -1.4297 c -1.7237,0.99304 -4.5754,1.8139 -6.9512,2.0254 -3.8634,0.34393 -7.8896,-0.19726 -8.4532,-3.1133 -0.27993,-1.4357 0.40174,-2.9605 1.3008,-3.9062 v -0.50586 z m 11.447,0.76173 c -1.1586,0 -2.0391,0.76356 -2.0391,2.1152 0,1.5806 1.0089,2.123 2.0625,2.123 0.80739,0 1.2632,-0.24593 1.6992,-0.6504 l -0.67774,-0.61328 c -0.28259,0.26256 -0.5251,0.39062 -1.0137,0.39062 -0.62172,0 -0.97657,-0.39059 -0.97657,-0.92189 h 2.793 v -0.375 c 0,-1.1741 -0.6729,-2.0684 -1.8477,-2.0684 z m -10.73,0.07031 v 3.0469 c 0,0.54823 0.27778,1.026 1.1094,1.1016 v -4.1484 h -1.1094 z m 2.0898,0 v 4.1035 h 1.0996 v -3.2656 l 0.91212,0.002 c 0.32288,0 0.45508,0.14871 0.45508,0.39258 v 2.8711 h 1.1035 v -2.875 c 0,-0.58421 -0.33206,-1.2285 -1.2969,-1.2285 h -2.2734 z m 8.5919,0.78906 c 0.56522,0 0.77849,0.4288 0.80275,0.87696 h -1.6992 c 0.01198,-0.18348 0.03674,-0.29797 0.10938,-0.44727 0.12116,-0.2477 0.41176,-0.42969 0.78712,-0.42969 z" />
  </g>
</svg>
