<?xml version="1.0" encoding="UTF-8"?>
<!-- Created with Inkscape (http://www.inkscape.org/) -->
<svg width="64" height="64" version="1.1" viewBox="0 0 16.933 16.933" xmlns="http://www.w3.org/2000/svg" xmlns:cc="http://creativecommons.org/ns#" xmlns:dc="http://purl.org/dc/elements/1.1/" xmlns:rdf="http://www.w3.org/1999/02/22-rdf-syntax-ns#" xmlns:xlink="http://www.w3.org/1999/xlink">
 <defs>
  <linearGradient id="i" x1="400.4" x2="400.4" y1="545.62" y2="517.62" gradientTransform="matrix(.41967 0 0 .41967 -173.34 -178.23)" gradientUnits="userSpaceOnUse">
   <stop stop-color="#d3d3d3" offset="0"/>
   <stop stop-color="#fcf9f9" offset="1"/>
  </linearGradient>
  <linearGradient id="f" x1="400.4" x2="400.4" y1="545.62" y2="517.62" gradientTransform="matrix(.43343 0 0 .43343 -193.09 -179.69)" gradientUnits="userSpaceOnUse">
   <stop stop-color="#8d3aff" offset="0"/>
   <stop stop-color="#ff3680" offset="1"/>
  </linearGradient>
  <linearGradient id="linearGradient2163" x1="-177.09" x2="-177.09" y1="-1.3372" y2="-15.638" gradientTransform="matrix(4.123 0 0 4.123 763.76 66.092)" gradientUnits="userSpaceOnUse">
   <stop stop-color="#78b4dc" offset="0"/>
   <stop stop-color="#0096f0" offset="1"/>
  </linearGradient>
  <linearGradient id="linearGradient2208" x1="-230.89" x2="-207.22" y1="41.878" y2="41.878" gradientTransform="matrix(1.0909 0 0 1.0909 253.87 -3.3806)" gradientUnits="userSpaceOnUse">
   <stop stop-color="#b4dcff" offset="0"/>
   <stop stop-color="#c8faff" offset="1"/>
  </linearGradient>
  <linearGradient id="linearGradient2216" x1="-192.39" x2="-175.89" y1="41.967" y2="34.297" gradientTransform="matrix(1.0909 0 0 1.0909 253.87 -3.3806)" gradientUnits="userSpaceOnUse">
   <stop stop-color="#96d9ff" offset="0"/>
   <stop stop-color="#f0fafa" offset="1"/>
  </linearGradient>
  <linearGradient id="linearGradient2266" x1="-56.397" x2="-53.079" y1="10.521" y2="6.9878" gradientTransform="matrix(1.0909 0 0 1.0909 67.179 -.89442)" gradientUnits="userSpaceOnUse">
   <stop stop-color="#ecf2fb" offset="0"/>
   <stop stop-color="#a6c0dc" offset=".22547"/>
   <stop stop-color="#c8d9e8" offset=".49357"/>
   <stop stop-color="#fbfcfd" offset=".88103"/>
   <stop stop-color="#ebf3fc" offset="1"/>
  </linearGradient>
  <linearGradient id="linearGradient2274" x1="-51.828" x2="-48.344" y1="15.061" y2="11.535" gradientTransform="matrix(4.123 0 0 4.123 253.87 -3.3806)" gradientUnits="userSpaceOnUse">
   <stop stop-color="#466d93" offset="0"/>
   <stop stop-color="#3f6b95" offset=".10596"/>
   <stop stop-color="#203549" offset=".22767"/>
   <stop stop-color="#7496a9" offset=".51854"/>
   <stop stop-color="#496785" offset=".90577"/>
   <stop stop-color="#4c6a8a" offset="1"/>
  </linearGradient>
  <filter id="filter2295" x="-.056566" y="-.063878" width="1.1131" height="1.1278" color-interpolation-filters="sRGB">
   <feGaussianBlur stdDeviation="0.2628844"/>
  </filter>
  <linearGradient id="linearGradient2230-5" x1="-235.64" x2="-175.89" y1="49.391" y2="49.391" gradientTransform="matrix(.29415 0 0 .29415 68.296 -.91601)" gradientUnits="userSpaceOnUse">
   <stop stop-color="#2d69e6" offset="0"/>
   <stop stop-color="#3791d7" offset=".3497"/>
   <stop stop-color="#2887cd" offset="1"/>
  </linearGradient>
  <linearGradient id="linearGradient1233" x1="400.4" x2="400.4" y1="545.62" y2="517.62" gradientTransform="matrix(.4578 0 0 .4578 -190.77 -195.32)" gradientUnits="userSpaceOnUse" xlink:href="#i"/>
  <linearGradient id="linearGradient1235" x1="400.4" x2="400.4" y1="545.62" y2="517.62" gradientTransform="matrix(.47281 0 0 .47281 -212.31 -196.91)" gradientUnits="userSpaceOnUse" xlink:href="#f"/>
  <filter id="filter1300" x="-.098702" y="-.10553" width="1.1974" height="1.2111" color-interpolation-filters="sRGB">
   <feGaussianBlur stdDeviation="1.2057169"/>
  </filter>
 </defs>
 <metadata>
  <rdf:RDF>
   <cc:Work rdf:about="">
    <dc:format>image/svg+xml</dc:format>
    <dc:type rdf:resource="http://purl.org/dc/dcmitype/StillImage"/>
    <dc:title/>
   </cc:Work>
  </rdf:RDF>
 </metadata>
 <path transform="scale(.26458)" d="m32 2a30 30 0 0 0-30 30 30 30 0 0 0 21.969 28.873h16.156a30 30 0 0 0 21.873-28.834v-0.09375a30 30 0 0 0-29.998-29.945z" fill="url(#linearGradient2163)" stroke-width="4.123"/>
 <path d="m16.027 10.875-14.368 1.6546a7.9373 7.9373 0 0 0 6.8082 3.8741 7.9373 7.9373 0 0 0 7.5596-5.5288z" fill="url(#linearGradient2230-5)" stroke-width="1.1118"/>
 <path transform="scale(.26458)" d="m3.9414 37.209c-0.47535 0.0078-0.95755 0.07322-1.4414 0.16602 0.62246 3.3712 1.9696 7.0321 3.7714 9.9824l21.605-2.5508s-3.0062-1.817-6.1124-3.6289c-3.1061-1.8119-6.1002 0.37174-6.7656 1.1113-0.66562 0.73954-0.51737 0.14646-1.5527-0.4082-1.0354-0.55471-1.2593 1.7762-2.2207-0.73828-0.78114-2.043-3.8563-3.9899-7.2832-3.9336z" fill="url(#linearGradient2208)" stroke-width="4.123"/>
 <path transform="scale(.26458)" d="m61.252 25.518c-1.5152 0.29247-3.0364 1.3617-3.4922 4.3613 0 0-2.1964 1.1526-2.5625 3.5059 0 0-3.5043 0.15485-4.498 3.7109 0 0-4.4205 1.1391-7.1924 6.0025l17.069-1.9947c0.91614-2.9206 1.4188-6.1584 1.4239-9.0859v-0.041016c-0.0146-2.1737-0.26543-4.3394-0.74805-6.459z" fill="url(#linearGradient2216)" stroke-width="4.123"/>
 <path transform="matrix(1.0275 0 0 1.1086 63.498 -.69271)" d="m-54.31 5.7976s-0.16323-0.1007-0.61165-0.089489c-0.2219 0.00555-2.4652 0.45987-2.7696 2.8951 0 0-0.0096 0.30734 0.19806 0.50344 0.15695 0.13902 2.6488 2.8035 2.6488 2.8035s-0.0759-2.9553 3.2726-3.3992z" filter="url(#filter2295)" opacity=".5"/>
 <path transform="scale(.26458)" d="m39.705 33.045c-13.446 0.94246-12.709 13.248-12.709 13.248l14.352 14.174a30 30 0 0 0 14.959-10.932z" filter="url(#filter1300)" opacity=".5" stroke-width="4.034"/>
 <path d="m7.9252 5.4299s-0.17806-0.10985-0.66722-0.09762c-0.24206 0.00605-2.6892 0.50165-3.0212 3.1581 0 0-0.010472 0.33526 0.21606 0.54918 0.17121 0.15165 2.909 2.9702 2.909 2.9702s-0.10237-3.1358 3.5504-3.62z" fill="url(#linearGradient2266)" stroke-width="1.0909"/>
 <path transform="scale(.26458)" d="m41.242 31.709c-14.275 0.99702-13.418 13.684-13.418 13.684l14.57 14.727a30 30 0 0 0 15.08-12.344l-16.232-16.066z" fill="url(#linearGradient2274)" stroke-width="4.123"/>
 <g transform="matrix(1.0909 0 0 1.0909 25.241 -1.351)" fill="#b9e7f2">
  <path transform="matrix(.80005 .15607 -.15607 .80005 38.674 12.43)" d="m-68.859 3.7133-0.75886 0.017016-0.51314 0.54931-0.25068-0.71646-0.68099-0.31827 0.60392-0.45981 0.09226-0.74602 0.62393 0.43228 0.73801-0.14279-0.21832 0.72697z" opacity=".3"/>
  <path transform="matrix(.33479 .065311 -.065311 .33479 3.485 8.5236)" d="m-68.859 3.7133-0.75886 0.017016-0.51314 0.54931-0.25068-0.71646-0.68099-0.31827 0.60392-0.45981 0.09226-0.74602 0.62393 0.43228 0.73801-0.14279-0.21832 0.72697z" opacity=".3"/>
  <path transform="matrix(.33479 .065311 -.065311 .33479 4.7788 9.4622)" d="m-68.859 3.7133-0.75886 0.017016-0.51314 0.54931-0.25068-0.71646-0.68099-0.31827 0.60392-0.45981 0.09226-0.74602 0.62393 0.43228 0.73801-0.14279-0.21832 0.72697z" opacity=".6"/>
  <path transform="matrix(.18182 .035468 -.035468 .18182 -7.0481 9.4207)" d="m-68.859 3.7133-0.75886 0.017016-0.51314 0.54931-0.25068-0.71646-0.68099-0.31827 0.60392-0.45981 0.09226-0.74602 0.62393 0.43228 0.73801-0.14279-0.21832 0.72697z"/>
 </g>
 <g transform="translate(-21.834 .89695)" fill="#5e4aa6" stroke-width=".26458">
  <circle cx="-330.35" cy="-328.38" r="0"/>
  <circle cx="-312.11" cy="-326.25" r="0"/>
  <circle cx="-306.02" cy="-333.07" r="0"/>
  <circle cx="-308.84" cy="-326.01" r="0"/>
 </g>
 <circle cx="-5.2346" cy="44.956" r="0" fill="url(#i)" image-rendering="optimizeSpeed" stroke-width=".26458"/>
 <circle cx="-19.466" cy="50.818" r="0" fill="none" image-rendering="optimizeSpeed" stroke="url(#f)" stroke-width=".56347"/>
 <g transform="matrix(1.0909 0 0 1.0909 -25.498 .084022)" fill="#5e4aa6" stroke-width=".26458">
  <circle cx="-330.35" cy="-328.38" r="0"/>
  <circle cx="-312.11" cy="-326.25" r="0"/>
  <circle cx="-306.02" cy="-333.07" r="0"/>
  <circle cx="-308.84" cy="-326.01" r="0"/>
 </g>
 <circle cx="-7.39" cy="48.146" r="0" fill="url(#linearGradient1233)" image-rendering="optimizeSpeed" stroke-width=".28862"/>
 <circle cx="-22.914" cy="54.541" r="0" fill="none" image-rendering="optimizeSpeed" stroke="url(#linearGradient1235)" stroke-width=".61466"/>
</svg>
