<?xml version="1.0" encoding="UTF-8"?>
<svg width="64" height="64" version="1.1" xmlns="http://www.w3.org/2000/svg" xmlns:cc="http://creativecommons.org/ns#" xmlns:dc="http://purl.org/dc/elements/1.1/" xmlns:rdf="http://www.w3.org/1999/02/22-rdf-syntax-ns#" xmlns:xlink="http://www.w3.org/1999/xlink">
 <metadata>
  <rdf:RDF>
   <cc:Work rdf:about="">
    <dc:format>image/svg+xml</dc:format>
    <dc:type rdf:resource="http://purl.org/dc/dcmitype/StillImage"/>
    <dc:title/>
   </cc:Work>
  </rdf:RDF>
 </metadata>
 <defs>
  <linearGradient id="d" x1="32" x2="32" y1="2" y2="62" gradientUnits="userSpaceOnUse">
   <stop stop-opacity="0" offset="0"/>
   <stop offset="1"/>
  </linearGradient>
  <filter id="e-3" x="-.036" y="-.036" width="1.072" height="1.072" color-interpolation-filters="sRGB">
   <feGaussianBlur stdDeviation="0.9"/>
  </filter>
  <filter id="g-6" x="-.036" y="-.036" width="1.072" height="1.072" color-interpolation-filters="sRGB">
   <feGaussianBlur stdDeviation="0.72"/>
  </filter>
  <linearGradient id="b-5" x1="45" x2="45" y1="27" y2="63" gradientUnits="userSpaceOnUse">
   <stop stop-color="#004095" offset="0"/>
   <stop stop-color="#0766d3" offset="1"/>
  </linearGradient>
  <linearGradient id="a-3" x1="32" x2="32" y1="2" y2="62" gradientUnits="userSpaceOnUse">
   <stop stop-color="#37ccfe" offset="0"/>
   <stop stop-color="#30c9fd" offset=".22539"/>
   <stop stop-color="#21a5ff" offset=".22539"/>
   <stop stop-color="#1aa7f4" offset=".46111"/>
   <stop stop-color="#1150b3" offset=".46111"/>
   <stop stop-color="#3366b7" offset=".75362"/>
   <stop stop-color="#005fb6" offset=".75362"/>
   <stop stop-color="#27468e" offset="1"/>
  </linearGradient>
  <filter id="h" x="-.062398" y="-.057779" width="1.1248" height="1.1156" color-interpolation-filters="sRGB">
   <feGaussianBlur stdDeviation="0.51998702"/>
  </filter>
 </defs>
 <circle cx="39" cy="38" r="0" fill="#e7fce8" fill-rule="evenodd" style="paint-order:normal"/>
 <g transform="translate(-.068001 -.068001)">
  <g fill-rule="evenodd">
   <circle cx="32" cy="32" r="30" filter="url(#e-3)" opacity=".25" style="paint-order:stroke fill markers"/>
   <circle cx="32" cy="32" r="30" fill="url(#d)" opacity=".15" style="paint-order:stroke fill markers"/>
   <circle cx="32" cy="32" r="30" fill="url(#a-3)" style="paint-order:stroke fill markers"/>
  </g>
  <circle transform="matrix(.75 0 0 .75 21 21)" cx="32" cy="32" r="24" fill-rule="evenodd" filter="url(#g-6)" opacity=".15" style="paint-order:stroke fill markers"/>
  <circle cx="45" cy="45" r="18" fill="url(#b-5)" fill-rule="evenodd" style="paint-order:stroke fill markers"/>
  <path d="m45.224 34.201c-3.0326 0-5.6143 1.1007-7.4144 3.0418-1.8002 1.9412-2.8097 4.7016-2.8097 7.9628 0 3.1542 0.93409 5.8078 2.6376 7.6746 1.7035 1.8668 4.1679 2.9198 7.0963 2.9198 3.0338 0 5.6246-1.1131 7.4345-3.0638 1.8099-1.9508 2.8317-4.7205 2.8317-7.9828 0-3.1554-0.94711-5.8026-2.6616-7.6586-1.7145-1.856-4.1872-2.8937-7.1143-2.8937zm-0.45027 3.8923c1.7662 0 3.2136 0.70508 4.2546 1.9392 1.041 1.2341 1.667 3.0183 1.667 5.1731 0 2.0787-0.5677 3.7583-1.5249 4.9069-0.95721 1.1487-2.2969 1.7931-3.9864 1.7931-1.7681 0-3.2045-0.69553-4.2345-1.9232-1.0301-1.2276-1.647-3.0094-1.647-5.1871 0-2.1017 0.56061-3.7829 1.5069-4.925s2.273-1.7771 3.9644-1.7771z" filter="url(#h)" opacity=".25"/>
  <path d="m45.224 34.201c-3.0326 0-5.6143 1.1007-7.4144 3.0418-1.8002 1.9412-2.8097 4.7016-2.8097 7.9628 0 3.1542 0.93409 5.8078 2.6376 7.6746 1.7035 1.8668 4.1679 2.9198 7.0963 2.9198 3.0338 0 5.6246-1.1131 7.4345-3.0638 1.8099-1.9508 2.8317-4.7205 2.8317-7.9828 0-3.1554-0.94711-5.8026-2.6616-7.6586-1.7145-1.856-4.1872-2.8937-7.1143-2.8937zm-0.45027 3.8923c1.7662 0 3.2136 0.70508 4.2546 1.9392 1.041 1.2341 1.667 3.0183 1.667 5.1731 0 2.0787-0.5677 3.7583-1.5249 4.9069-0.95721 1.1487-2.2969 1.7931-3.9864 1.7931-1.7681 0-3.2045-0.69553-4.2345-1.9232-1.0301-1.2276-1.647-3.0094-1.647-5.1871 0-2.1017 0.56061-3.7829 1.5069-4.925s2.273-1.7771 3.9644-1.7771z" fill="#fff"/>
 </g>
</svg>
