<?xml version="1.0" encoding="UTF-8"?>
<svg width="64" height="64" version="1.1" viewBox="0 0 64 64" xmlns="http://www.w3.org/2000/svg" xmlns:cc="http://creativecommons.org/ns#" xmlns:dc="http://purl.org/dc/elements/1.1/" xmlns:rdf="http://www.w3.org/1999/02/22-rdf-syntax-ns#" xmlns:xlink="http://www.w3.org/1999/xlink">
 <metadata>
  <rdf:RDF>
   <cc:Work rdf:about="">
    <dc:format>image/svg+xml</dc:format>
    <dc:type rdf:resource="http://purl.org/dc/dcmitype/StillImage"/>
    <dc:title/>
   </cc:Work>
  </rdf:RDF>
 </metadata>
 <defs>
  <filter id="e" x="-.036" y="-.036" width="1.072" height="1.072" color-interpolation-filters="sRGB">
   <feGaussianBlur stdDeviation="0.9"/>
  </filter>
  <linearGradient id="d" x1="32" x2="32" y1="2" y2="62" gradientUnits="userSpaceOnUse">
   <stop stop-opacity="0" offset="0"/>
   <stop offset="1"/>
  </linearGradient>
  <filter id="g" x="-.036" y="-.036" width="1.072" height="1.072" color-interpolation-filters="sRGB">
   <feGaussianBlur stdDeviation="0.72"/>
  </filter>
  <linearGradient id="b-36" x1="32" x2="32" y1="2" y2="62" gradientUnits="userSpaceOnUse">
   <stop stop-color="#b757e4" offset="0"/>
   <stop stop-color="#ce63fe" offset=".22539"/>
   <stop stop-color="#a43dde" offset=".22539"/>
   <stop stop-color="#a147e8" offset=".46111"/>
   <stop stop-color="#782dc4" offset=".46111"/>
   <stop stop-color="#69369f" offset=".75362"/>
   <stop stop-color="#5e338b" offset=".75414"/>
   <stop stop-color="#5b4770" offset="1"/>
  </linearGradient>
  <linearGradient id="a" x1="32" x2="32" y1="2" y2="62" gradientTransform="matrix(-1,0,0,1,64,0)" gradientUnits="userSpaceOnUse">
   <stop stop-color="#b757e4" offset="0"/>
   <stop stop-color="#ce63fe" offset=".22539"/>
   <stop stop-color="#bc67e5" offset="1"/>
  </linearGradient>
  <linearGradient id="c" x1="45" x2="45" y1="27" y2="63" gradientUnits="userSpaceOnUse">
   <stop stop-color="#722bb3" offset="0"/>
   <stop stop-color="#8535ce" offset="1"/>
  </linearGradient>
  <filter id="filter7682" x="-.066444" y="-.054695" width="1.1329" height="1.1094" color-interpolation-filters="sRGB">
   <feGaussianBlur stdDeviation="0.45579371"/>
  </filter>
 </defs>
 <filter id="b" x="-.27495" y="-.20549" width="1.5499" height="1.411" color-interpolation-filters="sRGB">
  <feGaussianBlur stdDeviation="16.133919"/>
 </filter>
 <g transform="translate(-.068001 -.068001)" fill-rule="evenodd">
  <circle cx="32" cy="32" r="30" filter="url(#e)" opacity=".25" style="paint-order:stroke fill markers"/>
  <circle cx="32" cy="32" r="30" fill="url(#b-36)" style="paint-order:stroke fill markers"/>
  <path d="m32 2a30 30 0 0 1 30 30 30 30 0 0 1-30 30 30 30 0 0 1-13-2.9922v-54.002a30 30 0 0 1 13-3.0059z" fill="url(#a)" style="paint-order:stroke fill markers"/>
  <circle cx="32" cy="32" r="30" fill="url(#d)" opacity=".15" style="paint-order:stroke fill markers"/>
  <circle transform="matrix(.75 0 0 .75 21 21)" cx="32" cy="32" r="24" filter="url(#g)" opacity=".15" style="paint-order:stroke fill markers"/>
  <circle cx="45" cy="45" r="18" fill="url(#c)" style="paint-order:stroke fill markers"/>
 </g>
 <g>
  <g filter="url(#filter7682)" opacity=".25" style="font-feature-settings:normal;font-variant-caps:normal;font-variant-ligatures:normal;font-variant-numeric:normal" aria-label="B">
   <path d="m45.999 42.675q1.219 0 1.8486-0.53583t0.6296-1.5807q0-1.0315-0.6296-1.5673-0.6296-0.54923-1.8486-0.54923h-2.8533v4.2331zm0.17415 8.7475q1.5539 0 2.3309-0.6564 0.79036-0.6564 0.79036-1.9826 0-1.2994-0.77696-1.9424-0.77696-0.6564-2.3443-0.6564h-3.0275v5.2378zm4.7957-7.1936q1.6611 0.48225 2.572 1.7816 0.91092 1.2994 0.91092 3.1882 0 2.8935-1.9558 4.3135t-5.9478 1.42h-8.5599v-20h7.7428q4.1661 0 6.0281 1.2592 1.8754 1.2592 1.8754 4.0322 0 1.4601-0.68319 2.4916-0.68319 1.0181-1.9826 1.5137z" stroke-width=".68587"/>
  </g>
  <g fill="#fff" style="font-feature-settings:normal;font-variant-caps:normal;font-variant-ligatures:normal;font-variant-numeric:normal" aria-label="B">
   <path d="m45.999 42.675q1.219 0 1.8486-0.53583t0.6296-1.5807q0-1.0315-0.6296-1.5673-0.6296-0.54923-1.8486-0.54923h-2.8533v4.2331zm0.17415 8.7475q1.5539 0 2.3309-0.6564 0.79036-0.6564 0.79036-1.9826 0-1.2994-0.77696-1.9424-0.77696-0.6564-2.3443-0.6564h-3.0275v5.2378zm4.7957-7.1936q1.6611 0.48225 2.572 1.7816 0.91092 1.2994 0.91092 3.1882 0 2.8935-1.9558 4.3135t-5.9478 1.42h-8.5599v-20h7.7428q4.1661 0 6.0281 1.2592 1.8754 1.2592 1.8754 4.0322 0 1.4601-0.68319 2.4916-0.68319 1.0181-1.9826 1.5137z" fill="#fff" stroke-width=".68587"/>
  </g>
  <text x="86.791679" y="61.315392" fill="#000000" font-family="'Noto Sans Sinhala'" font-size="27.435px" font-weight="bold" letter-spacing="0px" stroke-width=".68587" word-spacing="0px" style="font-feature-settings:normal;font-variant-caps:normal;font-variant-ligatures:normal;font-variant-numeric:normal;line-height:1.25" xml:space="preserve"><tspan x="86.791679" y="61.315392" stroke-width=".68587">N</tspan></text>
 </g>
</svg>
