<?xml version="1.0" encoding="UTF-8"?>
<!-- Created with Inkscape (http://www.inkscape.org/) -->
<svg width="64" height="64" version="1.1" viewBox="0 0 64 64" xmlns="http://www.w3.org/2000/svg" xmlns:cc="http://creativecommons.org/ns#" xmlns:dc="http://purl.org/dc/elements/1.1/" xmlns:rdf="http://www.w3.org/1999/02/22-rdf-syntax-ns#" xmlns:xlink="http://www.w3.org/1999/xlink">
 <metadata>
  <rdf:RDF>
   <cc:Work rdf:about="">
    <dc:format>image/svg+xml</dc:format>
    <dc:type rdf:resource="http://purl.org/dc/dcmitype/StillImage"/>
    <dc:title/>
   </cc:Work>
  </rdf:RDF>
 </metadata>
 <defs>
  <linearGradient id="linearGradient3426" x1="399.57" x2="399.57" y1="545.8" y2="517.8" gradientTransform="matrix(1.4701 0 0 1.4701 -828.58 -1031.8)" gradientUnits="userSpaceOnUse">
   <stop stop-color="#3889e9" offset="0"/>
   <stop stop-color="#5ea5fb" offset="1"/>
  </linearGradient>
  <filter id="e" x="-.036" y="-.036" width="1.072" height="1.072" color-interpolation-filters="sRGB">
   <feGaussianBlur stdDeviation="0.9"/>
  </filter>
  <linearGradient id="b-36" x1="32" x2="32" y1="2" y2="62" gradientUnits="userSpaceOnUse">
   <stop stop-color="#6969e8" offset="0"/>
   <stop stop-color="#5063d4" offset=".515"/>
   <stop stop-color="#6d7cde" offset=".515"/>
   <stop stop-color="#3d51b6" offset="1"/>
  </linearGradient>
  <linearGradient id="d" x1="32" x2="32" y1="2" y2="62" gradientTransform="translate(.067999)" gradientUnits="userSpaceOnUse">
   <stop stop-opacity="0" offset="0"/>
   <stop offset="1"/>
  </linearGradient>
  <filter id="g" x="-.036" y="-.036" width="1.072" height="1.072" color-interpolation-filters="sRGB">
   <feGaussianBlur stdDeviation="0.72"/>
  </filter>
  <linearGradient id="c" x1="32" x2="32" y1="2" y2="62" gradientUnits="userSpaceOnUse">
   <stop stop-color="#8e9dee" offset="0"/>
   <stop stop-color="#6675da" offset=".52239"/>
   <stop stop-color="#5366d9" offset=".52239"/>
   <stop stop-color="#3c50b4" offset="1"/>
  </linearGradient>
  <filter id="filter1167" x="-.062551" y="-.057649" width="1.1251" height="1.1153" color-interpolation-filters="sRGB">
   <feGaussianBlur stdDeviation="0.4804139"/>
  </filter>
  <linearGradient id="linearGradient916" x1="67.525" x2="103.53" y1="10.339" y2="46" gradientTransform="translate(-40.729 16.695)" gradientUnits="userSpaceOnUse">
   <stop stop-color="#697dfa" offset="0"/>
   <stop stop-color="#2d3c9b" offset="1"/>
  </linearGradient>
 </defs>
 <circle cx="-239.71" cy="-250.06" r="0" fill="url(#linearGradient3426)"/>
 <g transform="translate(-.068001 -.068001)" fill-rule="evenodd">
  <circle cx="32" cy="32" r="30" filter="url(#e)" opacity=".25" style="paint-order:stroke fill markers"/>
  <circle cx="32" cy="32" r="30" fill="url(#b-36)" style="paint-order:stroke fill markers"/>
  <path d="m32 2a30 30 0 0 0-30 30 30 30 0 0 0 30 30z" fill="url(#c)" style="paint-order:stroke fill markers"/>
 </g>
 <g transform="translate(-.068001 -.068001)" fill-rule="evenodd">
  <circle cx="32.068" cy="32" r="30" fill="url(#d)" opacity=".15" style="paint-order:stroke fill markers"/>
  <circle transform="matrix(.75 0 0 .75 21 21)" cx="32" cy="32" r="24" filter="url(#g)" opacity=".15" style="paint-order:stroke fill markers"/>
 </g>
 <circle cx="44.932" cy="44.932" r="18" fill="url(#linearGradient916)"/>
 <g stroke-width=".68587" style="font-feature-settings:normal;font-variant-caps:normal;font-variant-ligatures:normal;font-variant-numeric:normal" aria-label="T">
  <path d="m35.716 35.542h18.433v3.8982h-6.631v16.102h-5.1575v-16.102h-6.6444z" filter="url(#filter1167)" opacity=".25"/>
  <path d="m35.716 35.542h18.433v3.8982h-6.631v16.102h-5.1575v-16.102h-6.6444z" fill="#fff"/>
 </g>
</svg>
