<?xml version="1.0" encoding="UTF-8"?>
<!-- Created with Inkscape (http://www.inkscape.org/) -->
<svg width="64" height="64" version="1.1" viewBox="0 0 16.933 16.933" xmlns="http://www.w3.org/2000/svg">
 <defs>
  <linearGradient id="linearGradient1005-9" x1=".73911" x2="16.388" y1="16.296" y2=".64687" gradientTransform="matrix(.99999 0 0 .99999 -5.6677 1.9944)" gradientUnits="userSpaceOnUse">
   <stop stop-color="#6e7a83" offset="0"/>
   <stop stop-color="#848f93" offset="1"/>
  </linearGradient>
  <linearGradient id="linearGradient8014" x1="8.9886" x2="8.9886" y1="16.471" y2=".57478" gradientTransform="matrix(.83649 0 0 .83649 -4.2776 3.3777)" gradientUnits="userSpaceOnUse">
   <stop stop-color="#233736" offset="0"/>
   <stop stop-color="#232b2d" offset=".49214"/>
   <stop stop-color="#363f3e" offset="1"/>
  </linearGradient>
 </defs>
 <g transform="translate(5.6323 -1.9878)">
  <path d="m10.772 10.455c0 0.95155-0.16749 1.8638-0.47464 2.7094-0.2135 0.58769-0.4944 1.1433-0.83394 1.6572-0.14222 0.21608-0.29515 0.42476-0.45747 0.62529-0.51964 0.6418-1.1372 1.2007-1.8304 1.6542-0.2553 0.16717-0.52065 0.3201-0.79537 0.45712-1.0668 0.5339-2.2711 0.83421-3.5457 0.83421s-2.4788-0.30033-3.5457-0.83424c-0.27475-0.13705-0.54041-0.28996-0.79571-0.45712-0.70207-0.45974-1.327-1.0274-1.8508-1.6798-0.16262-0.20216-0.31523-0.41275-0.45747-0.63076-0.33047-0.50541-0.6042-1.0507-0.81349-1.627-0.30711-0.8453-0.47429-1.7572-0.47429-2.7086 0-4.3839 3.5536-7.9375 7.9375-7.9375 2.2005 0 4.1918 0.89548 5.6295 2.3416 0.41437 0.41661 0.78275 0.87929 1.0963 1.3795 0.29644 0.47106 0.54427 0.97581 0.73705 1.5068 0.30719 0.84559 0.47466 1.7579 0.47466 2.7094z" fill="url(#linearGradient1005-9)" image-rendering="optimizeSpeed" stroke-width=".031007"/>
  <path d="m9.4738 10.455c0 0.79597-0.1401 1.5591-0.39703 2.2663-0.17859 0.4916-0.41356 0.95638-0.69758 1.3862-0.11896 0.18075-0.24688 0.35531-0.38267 0.52305-0.43468 0.53686-0.95128 1.0044-1.5311 1.3837-0.21355 0.13984-0.43552 0.26776-0.66531 0.38238-0.89239 0.4466-1.8998 0.6978-2.966 0.6978s-2.0735-0.25122-2.966-0.69783c-0.22982-0.11464-0.45205-0.24254-0.6656-0.38238-0.58728-0.38457-1.11-0.85943-1.5482-1.4051-0.13603-0.1691-0.26369-0.34526-0.38267-0.52763-0.27644-0.42277-0.50541-0.87892-0.68047-1.361-0.2569-0.70708-0.39674-1.4699-0.39674-2.2656 0-3.6671 2.9726-6.6396 6.6396-6.6396 1.8407 0 3.5064 0.74905 4.709 1.9587 0.34662 0.34849 0.65476 0.73551 0.91706 1.1539 0.24796 0.39404 0.45528 0.81626 0.61654 1.2604 0.25696 0.70732 0.39705 1.4705 0.39705 2.2663z" fill="url(#linearGradient8014)" image-rendering="optimizeSpeed" stroke="#232b2d" stroke-width=".52917"/>
  <rect transform="rotate(90)" x="7.1522" y="-3.0899" width="3.0476" height=".50793" ry=".25397" fill="#eaeaea" fill-rule="evenodd" stroke-width=".25396" style="paint-order:stroke fill markers"/>
  <path d="m1.3092 7.8124a3.05 3.05 0 0 0-1.421 3.4306 3.05 3.05 0 0 0 2.946 2.2606 3.05 3.05 0 0 0 2.946-2.2606 3.05 3.05 0 0 0-1.421-3.4306" fill="none" stroke="#eaeaea" stroke-dashoffset="3" stroke-linecap="round" stroke-width=".50652" style="paint-order:stroke fill markers"/>
 </g>
</svg>
