<?xml version="1.0" encoding="UTF-8"?>
<!-- Created with Inkscape (http://www.inkscape.org/) -->
<svg width="64" height="64" version="1.1" viewBox="0 0 16.933 16.933" xmlns="http://www.w3.org/2000/svg">
 <defs>
  <linearGradient id="linearGradient1005-3-3-7" x1="5.2535" x2="9.3824" y1="15.383" y2="2.9421" gradientTransform="matrix(.99999 0 0 .99999 15.753 9.1462)" gradientUnits="userSpaceOnUse">
   <stop stop-color="#fa8200" offset="0"/>
   <stop stop-color="#ff9600" offset=".36953"/>
   <stop stop-color="#ffb400" offset="1"/>
  </linearGradient>
  <filter id="filter6150" x="-.064626" y="-.088435" width="1.1293" height="1.1769" color-interpolation-filters="sRGB">
   <feGaussianBlur stdDeviation="0.1852335"/>
  </filter>
 </defs>
 <g transform="translate(-15.788 -9.1397)">
  <path d="m32.192 17.606c0 0.95153-0.16749 1.8638-0.47464 2.7094-0.2135 0.58768-0.49438 1.1433-0.83392 1.6572-0.14222 0.21608-0.29514 0.42475-0.45745 0.62528-0.51965 0.64178-1.1372 1.2007-1.8304 1.6543-0.2553 0.16717-0.52064 0.3201-0.79535 0.45712-1.0668 0.53388-2.2711 0.8342-3.5456 0.8342s-2.4788-0.30032-3.5456-0.83422c-0.27474-0.13705-0.5404-0.28996-0.79569-0.45712-0.70206-0.45972-1.327-1.0274-1.8508-1.6798-0.16262-0.20216-0.31523-0.41275-0.45745-0.63077-0.33046-0.50539-0.6042-1.0507-0.81348-1.627-0.3071-0.84527-0.4743-1.7572-0.4743-2.7084 0-4.3837 3.5537-7.9374 7.9374-7.9374 2.2005 0 4.1916 0.89547 5.6294 2.3416 0.41435 0.41661 0.78273 0.87928 1.0963 1.3795 0.29644 0.47107 0.54427 0.9758 0.73703 1.5068 0.30718 0.84558 0.47466 1.7579 0.47466 2.7094z" fill="url(#linearGradient1005-3-3-7)" stroke-width=".031006"/>
  <path transform="matrix(1.1389 0 0 1.1389 -7.2009 9.1201)" d="m24.708 3.4817c-0.29307 0-0.52916 0.23609-0.52916 0.52916v6.8801c0 0.29307 0.23609 0.52916 0.52916 0.52916h5.8207c0.29307 0 0.52916-0.23609 0.52916-0.52916v-6.8801c0-0.29307-0.23609-0.52916-0.52916-0.52916zm0.26511 0.52812a0.265 0.265 0 0 1 0.26458 0.26511 0.265 0.265 0 0 1-0.26458 0.26511 0.265 0.265 0 0 1-0.26511-0.26511 0.265 0.265 0 0 1 0.26511-0.26511zm0 1.588a0.265 0.265 0 0 1 0.26458 0.26511 0.265 0.265 0 0 1-0.26458 0.26511 0.265 0.265 0 0 1-0.26511-0.26511 0.265 0.265 0 0 1 0.26511-0.26511zm0 1.5869a0.265 0.265 0 0 1 0.26458 0.26511 0.265 0.265 0 0 1-0.26458 0.26511 0.265 0.265 0 0 1-0.26511-0.26511 0.265 0.265 0 0 1 0.26511-0.26511zm0 1.588a0.265 0.265 0 0 1 0.26458 0.26511 0.265 0.265 0 0 1-0.26458 0.26511 0.265 0.265 0 0 1-0.26511-0.26511 0.265 0.265 0 0 1 0.26511-0.26511zm0 1.5869a0.265 0.265 0 0 1 0.26458 0.26511 0.265 0.265 0 0 1-0.26458 0.26511 0.265 0.265 0 0 1-0.26511-0.26511 0.265 0.265 0 0 1 0.26511-0.26511z" fill="#f04b00" filter="url(#filter6150)" stroke-width=".26458" style="paint-order:markers stroke fill"/>
  <path transform="matrix(1.1389 0 0 1.1389 -7.2009 9.1201)" d="m24.179 4.8048h6.8801v0.264h-6.8801zm0 1.587h6.8801v0.265h-6.8801zm0 1.588h6.8801v0.264h-6.8801zm0 1.587h6.8801v0.265h-6.8801z" fill="#f04b00" filter="url(#filter6150)" opacity=".1" style="paint-order:markers stroke fill"/>
  <path d="m20.939 13.085c-0.33378 0-0.60266 0.26888-0.60266 0.60266v7.8357c0 0.33378 0.26888 0.60266 0.60266 0.60266h6.6292c0.33378 0 0.60266-0.26888 0.60266-0.60266v-7.8357c0-0.33378-0.26888-0.60266-0.60266-0.60266zm0.30193 0.60148a0.30181 0.30181 0 0 1 0.30133 0.30193 0.30181 0.30181 0 0 1-0.30133 0.30193 0.30181 0.30181 0 0 1-0.30193-0.30193 0.30181 0.30181 0 0 1 0.30193-0.30193zm0 1.8086a0.30181 0.30181 0 0 1 0.30133 0.30193 0.30181 0.30181 0 0 1-0.30133 0.30193 0.30181 0.30181 0 0 1-0.30193-0.30193 0.30181 0.30181 0 0 1 0.30193-0.30193zm0 1.8073a0.30181 0.30181 0 0 1 0.30133 0.30193 0.30181 0.30181 0 0 1-0.30133 0.30193 0.30181 0.30181 0 0 1-0.30193-0.30193 0.30181 0.30181 0 0 1 0.30193-0.30193zm0 1.8086a0.30181 0.30181 0 0 1 0.30133 0.30193 0.30181 0.30181 0 0 1-0.30133 0.30193 0.30181 0.30181 0 0 1-0.30193-0.30193 0.30181 0.30181 0 0 1 0.30193-0.30193zm0 1.8073a0.30181 0.30181 0 0 1 0.30133 0.30193 0.30181 0.30181 0 0 1-0.30133 0.30193 0.30181 0.30181 0 0 1-0.30193-0.30193 0.30181 0.30181 0 0 1 0.30193-0.30193z" fill="#fff" stroke-width=".30133" style="paint-order:markers stroke fill"/>
  <path d="m20.337 14.592h7.8357v0.30067h-7.8357zm0 1.8074h7.8357v0.30181h-7.8357zm0 1.8086h7.8357v0.30067h-7.8357zm0 1.8074h7.8357v0.30181h-7.8357z" opacity=".1" stroke-width="1.1389" style="paint-order:markers stroke fill"/>
 </g>
</svg>
