<?xml version="1.0" encoding="UTF-8"?>
<!-- Created with Inkscape (http://www.inkscape.org/) -->
<svg width="64" height="64" version="1.1" viewBox="0 0 16.933 16.933" xmlns="http://www.w3.org/2000/svg" xmlns:xlink="http://www.w3.org/1999/xlink">
 <defs>
  <linearGradient id="linearGradient5371" x1="-13.603" x2="-13.603" y1="16.714" y2="34.573" gradientTransform="matrix(.99998 0 0 .99998 35.1 -11.076)" gradientUnits="userSpaceOnUse">
   <stop stop-color="#5beaff" offset="0"/>
   <stop stop-color="#4076ff" offset="1"/>
  </linearGradient>
  <radialGradient id="radialGradient4106" cx="233.65" cy="90.547" r="54.818" gradientTransform="matrix(-.038285 .17111 -.17744 -.0397 44.684 -24.899)" gradientUnits="userSpaceOnUse">
   <stop stop-color="#9aaabd" offset="0"/>
   <stop stop-color="#808fa3" offset=".28398"/>
   <stop stop-color="#5b6474" offset=".51511"/>
   <stop stop-color="#282825" offset="1"/>
  </radialGradient>
  <linearGradient id="linearGradient3180" x1="305.99" x2="305.99" y1="9.0115" y2="116.17" gradientTransform="matrix(.042895 0 0 .042895 6.7052 10.449)" gradientUnits="userSpaceOnUse">
   <stop stop-color="#1b00bc" offset="0"/>
   <stop stop-color="#109cd8" offset="1"/>
  </linearGradient>
  <linearGradient id="linearGradient4114" x1="301.06" x2="301.06" y1="92.4" y2="-52.842" gradientTransform="matrix(.7 0 0 .7 66.103 -6.4425)" gradientUnits="userSpaceOnUse">
   <stop stop-color="#0beafa" offset="0"/>
   <stop stop-color="#798eff" stop-opacity="0" offset="1"/>
  </linearGradient>
  <filter id="filter4091" x="-.071429" y="-.071429" width="1.1429" height="1.1429">
   <feGaussianBlur stdDeviation="3.2629835"/>
  </filter>
  <radialGradient id="radialGradient3173" cx="-498.85" cy="944.67" r="11.015" gradientTransform="matrix(5.2229e-7 .60045 -.53291 0 522.93 309.52)" gradientUnits="userSpaceOnUse">
   <stop stop-color="#bcc5d5" offset="0"/>
   <stop stop-color="#6e78a9" offset=".51511"/>
   <stop stop-color="#232a30" offset="1"/>
  </radialGradient>
  <radialGradient id="radialGradient3194" cx="53.787" cy="1025.4" r="25.322" gradientTransform="matrix(-1.056e-7 .3163 -.38034 -1.1255e-7 409.29 -3.9423)" gradientUnits="userSpaceOnUse">
   <stop stop-color="#bcc5d5" offset="0"/>
   <stop stop-color="#94a5b9" offset=".28398"/>
   <stop stop-color="#69758a" offset=".51511"/>
   <stop stop-color="#282825" offset="1"/>
  </radialGradient>
 </defs>
 <g transform="translate(-12.649 -6.1232)">
  <circle cx="21.115" cy="14.59" r="7.9373" fill="url(#linearGradient5371)" stroke-width=".2811"/>
  <ellipse cx="21.093" cy="14.568" rx="5.2695" ry="5.2697" fill="url(#radialGradient4106)"/>
  <ellipse cx="21.115" cy="14.568" rx="3.3592" ry="3.3592" fill="url(#linearGradient3180)"/>
  <circle transform="matrix(.056615 0 0 .056617 3.9367 11.018)" cx="303.04" cy="62.699" r="54.818" fill="url(#linearGradient4114)" filter="url(#filter4091)"/>
  <path d="m21.094 13.501c-0.58891 0-1.0679 0.47902-1.0679 1.0679-8e-3 0.24616 0.07558 0.48721 0.24504 0.67767 0.01232 0.01389 0.02303 0.02909 0.0363 0.04235l0.0091 0.0091c0.01866 0.01985 0.03736 0.03912 0.05748 0.05747l4.5227 4.5257h1.5096l-0.01208-1.5185-4.4773-4.4744c-0.01085-0.01314-0.02485-0.02369-0.0363-0.03629l-0.03328-0.03936c-0.01077-0.0107-0.02206-0.01992-0.03328-0.03023-0.01328-0.01329-0.0285-0.02399-0.04235-0.0363-0.19044-0.16945-0.43152-0.25298-0.67764-0.24502z" fill="url(#radialGradient3173)"/>
  <path d="m21.094 13.501c-0.58891 0-1.0679 0.47902-1.0679 1.0679-8e-3 0.24616 0.07558 0.48721 0.24504 0.67767 0.01232 0.01389 0.02303 0.02909 0.0363 0.04235l0.0091 0.0091c0.01866 0.01985 0.03736 0.03912 0.05748 0.05747l4.5227 4.5257h1.5096l-0.01208-1.5185-4.4773-4.4744c-0.01085-0.01314-0.02485-0.02369-0.0363-0.03629l-0.03328-0.03936c-0.01077-0.0107-0.02206-0.01992-0.03328-0.03023-0.01328-0.01329-0.0285-0.02399-0.04235-0.0363-0.19044-0.16945-0.43152-0.25298-0.67764-0.24502z" fill="url(#radialGradient3194)"/>
 </g>
</svg>
