<?xml version="1.0" encoding="UTF-8"?>
<svg width="64" height="64" version="1.1" viewBox="0 0 16.933 16.933" xmlns="http://www.w3.org/2000/svg" xmlns:cc="http://creativecommons.org/ns#" xmlns:dc="http://purl.org/dc/elements/1.1/" xmlns:rdf="http://www.w3.org/1999/02/22-rdf-syntax-ns#" xmlns:xlink="http://www.w3.org/1999/xlink">
 <defs>
  <linearGradient id="linearGradient1035" x1="320.41" x2="325.61" y1="10.661" y2="13.513" gradientTransform="matrix(-.55658 .24742 -.0017733 .49858 207.13 -78.526)" gradientUnits="userSpaceOnUse" xlink:href="#linearGradient9254"/>
  <linearGradient id="linearGradient9254" x1="320.3" x2="325.61" y1="10.191" y2="13.513" gradientTransform="matrix(-.43876 .16872 -.27305 -.27112 143.09 -40.49)" gradientUnits="userSpaceOnUse">
   <stop stop-color="#cedbe4" offset="0"/>
   <stop stop-color="#d6e3eb" offset=".14129"/>
   <stop stop-color="#fdfffe" offset=".25656"/>
   <stop stop-color="#f0f5f8" offset=".74517"/>
   <stop stop-color="#d4e1e9" offset=".84074"/>
   <stop stop-color="#c4d3dd" offset="1"/>
  </linearGradient>
  <linearGradient id="linearGradient1021" x1="313.5" x2="318.45" y1="22.384" y2="24.271" gradientTransform="matrix(-.56851 -.21861 -.3538 .3513 210.59 73.872)" gradientUnits="userSpaceOnUse" xlink:href="#linearGradient9252"/>
  <linearGradient id="linearGradient9252" x1="313.5" x2="318.45" y1="22.384" y2="24.271" gradientTransform="matrix(-.43876 .16872 -.27305 -.27112 143.09 -40.49)" gradientUnits="userSpaceOnUse">
   <stop stop-color="#f6b669" offset="0"/>
   <stop stop-color="#d49353" offset=".19183"/>
   <stop stop-color="#e7c387" offset=".41812"/>
   <stop stop-color="#e9c68b" offset=".73563"/>
   <stop stop-color="#d39f64" offset="1"/>
  </linearGradient>
  <linearGradient id="linearGradient1023" x1="320.3" x2="325.61" y1="10.191" y2="13.513" gradientTransform="matrix(-.56851 -.21861 -.3538 .3513 210.59 73.872)" gradientUnits="userSpaceOnUse" xlink:href="#linearGradient9254"/>
  <linearGradient id="linearGradient1061" x1="320.3" x2="325.61" y1="10.191" y2="13.513" gradientTransform="matrix(-.56851 .21861 -.3538 -.3513 220.27 -57.915)" gradientUnits="userSpaceOnUse" xlink:href="#linearGradient9254"/>
  <linearGradient id="linearGradient1074" x1="1.4551" x2="4.6443" y1="14.084" y2="14.084" gradientTransform="matrix(1.2957 0 0 1.2957 -36.405 -15.121)" gradientUnits="userSpaceOnUse" xlink:href="#linearGradient9254"/>
  <linearGradient id="linearGradient1082" x1="1.4551" x2="4.6443" y1="14.084" y2="14.084" gradientTransform="matrix(1.2957 0 0 .7253 -36.405 -9.0095)" gradientUnits="userSpaceOnUse" xlink:href="#f"/>
  <linearGradient id="f" x1="9.7333" x2="12.236" y1="5.7579" y2="5.7938" gradientUnits="userSpaceOnUse">
   <stop stop-color="#ff482c" offset="0"/>
   <stop stop-color="#ff9a63" offset="1"/>
  </linearGradient>
  <linearGradient id="linearGradient1090" x1="1.4551" x2="4.6443" y1="14.084" y2="14.084" gradientTransform="matrix(1.2957 0 0 .7253 -36.405 -8.411)" gradientUnits="userSpaceOnUse" xlink:href="#f"/>
  <linearGradient id="linearGradient1086" x1="1.4551" x2="4.6443" y1="14.084" y2="14.084" gradientTransform="matrix(1.2957 0 0 .23533 -36.405 -.88751)" gradientUnits="userSpaceOnUse" xlink:href="#linearGradient9252"/>
  <linearGradient id="b-6" x1="197.72" x2="2.1257" y1="1.9527" y2="197.34" gradientTransform="matrix(.079377 0 0 .079377 .52881 .52881)" gradientUnits="userSpaceOnUse">
   <stop stop-color="#505050" offset="0"/>
   <stop stop-color="#323232" offset="1"/>
  </linearGradient>
 </defs>
 <metadata>
  <rdf:RDF>
   <cc:Work rdf:about="">
    <dc:format>image/svg+xml</dc:format>
    <dc:type rdf:resource="http://purl.org/dc/dcmitype/StillImage"/>
    <dc:title/>
   </cc:Work>
  </rdf:RDF>
 </metadata>
 <circle cx="8.4667" cy="8.4667" r="7.9377" color="#000000" fill="url(#b-6)" stroke-width=".26458"/>
 <g transform="matrix(.63639 0 0 .63639 -9.1229 3.6558)">
  <g stroke-width=".52638">
   <path d="m24.907 1.8542 1.3867 1.5566 6.9774 7.8956s0.08122 0.14214 0.08738 0.15753c-0.1048 0.0436-0.23982 0.10178-0.3 0.12168-0.06006 0.02287-0.12023 0.04764-0.18044 0.07437-0.0846 0.03772-0.16914 0.07923-0.25333 0.1243-0.08468 0.04521-0.1689 0.094-0.25233 0.1462-0.08295 0.052-0.16501 0.1073-0.24588 0.1657-0.0812 0.05845-0.16112 0.11993-0.23945 0.18421-0.07837 0.06445-0.15503 0.13163-0.22973 0.2013-0.07444 0.06931-0.14677 0.14109-0.21676 0.21496-0.07044 0.07428-0.13848 0.15056-0.20378 0.22864-0.06498 0.07763-0.1272 0.15687-0.18644 0.23747-0.05915 0.08081-0.11522 0.16285-0.16802 0.24581-0.05331 0.08333-0.10324 0.1675-0.14959 0.25221-0.04591 0.08429-0.08823 0.16895-0.1268 0.25373-0.03888 0.08471-0.07394 0.16942-0.1051 0.25382-0.01122 0.03364-0.02188 0.06723-0.0318 0.10066-4e-3 -0.0017-0.09108-0.02271-0.09108-0.02271l-6.8518-7.8231-1.6856-1.7052c-0.10375-0.81921 0.51294-1.343 1.1188-1.9488 0.89561-0.89561 1.2005-0.99008 1.9477-0.91508z" fill="url(#linearGradient1035)"/>
   <path d="m20.775 12.359c0.03073-0.01661 0.06195-0.03285 0.09367-0.04869 0.08167-0.03765 0.16641-0.07273 0.25378-0.10516 0.08722-0.03266 0.17704-0.06262 0.26908-0.08975 0.09269-0.02711 0.1875-0.05132 0.28411-0.07256 0.09601-0.02133 0.19366-0.03969 0.29261-0.055 0.09889-0.0151 0.19892-0.02715 0.29975-0.03608 0.10138-0.0091 0.20343-0.01489 0.30578-0.01758 0.10173-0.0027 0.20361-0.0023 0.30527 0.0013 0.10208 0.0036 0.20379 0.01024 0.30478 0.02011 0.10085 0.01 0.20084 0.02296 0.29957 0.03905 0.09847 0.0159 0.1956 0.03483 0.29103 0.0567 0.09591 0.02209 0.18995 0.04714 0.28181 0.07505 0.09141 0.02766 0.18052 0.05811 0.26702 0.09124 0.0615 0.02367 0.12158 0.04869 0.18018 0.075 0.14192 0.05469 0.20434 0.0864 0.29821 0.1261-0.06513 0.15098-0.29574 0.87993-0.99933 1.6822-0.02535-0.01143-0.16846-0.04069-0.19493-0.05116-0.04346-0.01664-0.08817-0.03195-0.13407-0.04584-0.04637-0.01399-0.09391-0.02655-0.14236-0.0376-0.04807-0.01109-0.097-0.0207-0.14662-0.02878-0.04966-0.0082-0.10008-0.01486-0.1509-0.01994-0.05065-5e-3 -0.10171-0.0084-0.15294-0.01026-0.05131-0.0016-0.10262-0.0017-0.15388-1.78e-4 -0.05136 0.0013-0.10256 0.0041-0.15344 0.0086-0.05104 0.0047-0.10152 0.01101-0.15147 0.01886-0.04989 0.0075-0.09905 0.01654-0.14743 0.02708-0.04824 0.01081-0.09557 0.02311-0.14184 0.03684-0.04648 0.01352-0.09193 0.02846-0.136 0.04479-0.0438 0.01632-0.08632 0.03397-0.1272 0.05293-0.0114 0.0054-0.05026 0.02123-0.06102 0.02698-0.12115-0.12241-0.9776-1.2138-1.0331-1.7641z" fill="url(#linearGradient1021)"/>
   <path d="m21.867 14.097c0.041-0.01891 0.08341-0.03661 0.12721-0.05293 0.04407-0.01632 0.08948-0.03127 0.136-0.04479 0.04626-0.01373 0.09359-0.02603 0.14184-0.03684 0.04839-0.01052 0.09757-0.01958 0.14743-0.02708 0.04994-0.0079 0.10051-0.01414 0.15147-0.01886 0.05092-0.0044 0.10209-0.0073 0.15344-0.0086 0.05131-0.0016 0.10262-0.0014 0.15388 1.79e-4 0.05119 0.0018 0.10226 0.0053 0.15294 0.01026 0.05077 0.0051 0.10117 0.01174 0.1509 0.01994 0.04961 0.0081 0.09857 0.01768 0.14664 0.02878 0.04839 0.01104 0.09595 0.0236 0.14236 0.0376 0.04582 0.01388 0.10864 0.02661 0.17399 0.04597 0.0265 0.01044 0.12972 0.03968 0.15512 0.05111-0.16773 0.22784-0.45186 0.44429-0.64023 0.61713-0.43885 0.30663-0.96532-0.02974-1.3539-0.59486 0.0286-0.01348 0.04269-0.01896 0.06095-0.02705z" fill="#eaf1f5"/>
   <path d="m24.907 1.8542 0.0075 2.0991-0.06816 8.2923s-0.04308 0.15795-0.04961 0.17319c-0.10494-0.04328-0.24155-0.0976-0.29818-0.12609-0.05864-0.0263-0.11871-0.05132-0.18018-0.075-0.0865-0.03314-0.17562-0.06358-0.26702-0.09124-0.09184-0.02791-0.1859-0.05296-0.28181-0.07505-0.09542-0.02188-0.19256-0.0408-0.29102-0.0567-0.09875-0.01609-0.19874-0.02913-0.29957-0.03905-0.10099-0.0098-0.2027-0.01655-0.30479-0.02011-0.10165-0.0036-0.20354-4e-3 -0.30527-0.0013-0.10234 0.0027-0.20439 0.0086-0.30576 0.01758-0.10083 0.0089-0.20088 0.02098-0.29975 0.03608-0.09897 0.01532-0.19663 0.03368-0.29263 0.055-0.09662 0.02122-0.19144 0.04544-0.28413 0.07256-0.09206 0.02713-0.18187 0.05707-0.26908 0.08975-0.0874 0.0324-0.17207 0.06751-0.25378 0.10516-0.03172 0.01585-0.06301 0.03207-0.09367 0.04869-0.0017-4e-3 -0.04834-0.08046-0.04834-0.08046l-0.02201-8.1698 0.01383-2.3977c0.50592-0.65263 1.3123-0.58695 2.1692-0.58695 1.2666 0 1.5489 0.14879 2.0243 0.73017z" fill="url(#linearGradient1023)"/>
   <path d="m34.572 14.103 0.0075-2.0991-0.06816-8.2923s-0.04308-0.15795-0.04961-0.17319c-0.10494 0.043277-0.24155 0.097607-0.29819 0.12609-0.05864 0.026304-0.11871 0.051324-0.18018 0.074996-0.08649 0.033145-0.17562 0.063581-0.26702 0.091245-0.09184 0.02791-0.1859 0.052956-0.28181 0.075048-0.09542 0.021885-0.19256 0.040803-0.29102 0.056701-0.09874 0.016093-0.19874 0.029128-0.29957 0.039053-0.10099 0.00985-0.2027 0.016546-0.30479 0.020109-0.10165 0.00363-0.20355 0.00402-0.30527 0.00127-0.10234-0.00272-0.20439-0.00855-0.30576-0.017583-0.10083-0.00894-0.20088-0.020977-0.29975-0.036086-0.09897-0.015315-0.19663-0.033676-0.29263-0.055004-0.09662-0.021224-0.19144-0.045441-0.28413-0.07256-0.09206-0.027133-0.18187-0.057077-0.26908-0.089755-0.0874-0.032406-0.17207-0.067507-0.25378-0.10516-0.03172-0.015846-0.06301-0.03207-0.09367-0.048693-0.0017 0.00402-0.04834 0.080464-0.04834 0.080464l-0.022 8.1698 0.01383 2.3977c0.50592 0.65263 1.3123 0.58695 2.1692 0.58695 1.2666 0 1.5489-0.14879 2.0243-0.73017z" fill="url(#linearGradient1061)"/>
  </g>
  <rect transform="scale(-1,1)" x="-34.52" y="1.4798" width="4.1322" height="3.2952" ry="1.098" fill="url(#linearGradient1074)" stroke-width=".96316"/>
  <rect transform="scale(-1,1)" x="-34.52" y=".28383" width="4.1322" height="1.8445" ry=".62209" fill="url(#linearGradient1082)" stroke-width=".7206"/>
  <rect transform="scale(-1,1)" x="-34.52" y=".88116" width="4.1322" height="1.8445" ry=".62209" fill="url(#linearGradient1090)" stroke-width=".7206"/>
  <rect transform="scale(-1,1)" x="-34.52" y="2.1276" width="4.1322" height=".59847" ry="0" fill="url(#linearGradient1086)" stroke-width=".41047"/>
 </g>
</svg>
