<?xml version="1.0" encoding="UTF-8"?>
<svg width="64" height="64" version="1.1" xmlns="http://www.w3.org/2000/svg" xmlns:cc="http://creativecommons.org/ns#" xmlns:dc="http://purl.org/dc/elements/1.1/" xmlns:rdf="http://www.w3.org/1999/02/22-rdf-syntax-ns#" xmlns:xlink="http://www.w3.org/1999/xlink">
 <metadata>
  <rdf:RDF>
   <cc:Work rdf:about="">
    <dc:format>image/svg+xml</dc:format>
    <dc:type rdf:resource="http://purl.org/dc/dcmitype/StillImage"/>
    <dc:title/>
   </cc:Work>
  </rdf:RDF>
 </metadata>
 <defs>
  <radialGradient id="radialGradient870" cx="8.067" cy="39.411" r="16.568" gradientTransform="matrix(1.4438 -.081913 .065895 1.1615 -5.9412 -5.2325)" gradientUnits="userSpaceOnUse">
   <stop stop-color="#eab869" offset="0"/>
   <stop stop-color="#dca245" offset="1"/>
  </radialGradient>
  <linearGradient id="linearGradient878" x1="13.033" x2="24.195" y1="59.32" y2="34.151" gradientUnits="userSpaceOnUse">
   <stop stop-color="#5a3316" offset="0"/>
   <stop stop-color="#ab6f45" offset="1"/>
  </linearGradient>
  <linearGradient id="linearGradient886" x1="45.186" x2="44.21" y1="24.692" y2="15.811" gradientUnits="userSpaceOnUse">
   <stop stop-color="#5a3316" offset="0"/>
   <stop stop-color="#bc6e39" offset="1"/>
  </linearGradient>
  <linearGradient id="linearGradient900" x1="39.91" x2="49.394" y1="20.228" y2="20.228" gradientUnits="userSpaceOnUse">
   <stop stop-color="#38200e" offset="0"/>
   <stop stop-color="#38200e" offset="1"/>
  </linearGradient>
  <linearGradient id="linearGradient902" x1="-6.4079" x2="22.764" y1="53.998" y2="30.249" gradientUnits="userSpaceOnUse">
   <stop stop-color="#38200e" offset="0"/>
   <stop stop-color="#38200e" stop-opacity=".95429" offset="1"/>
  </linearGradient>
  <linearGradient id="linearGradient904" x1="12.308" x2="26.388" y1="51.014" y2="36.815" gradientUnits="userSpaceOnUse">
   <stop stop-color="#38200e" offset="0"/>
   <stop stop-color="#77441e" offset="1"/>
  </linearGradient>
  <linearGradient id="linearGradient941" x1="3.1427" x2="6.6351" y1="58.286" y2="34.628" gradientUnits="userSpaceOnUse">
   <stop stop-opacity=".45143" offset="0"/>
   <stop stop-color="#e5af5b" stop-opacity=".32571" offset="1"/>
  </linearGradient>
  <filter id="filter1030" x="-.23547" y="-.35719" width="1.4709" height="1.7144" color-interpolation-filters="sRGB">
   <feGaussianBlur stdDeviation="0.81547844"/>
  </filter>
  <filter id="filter1034" x="-.063194" y="-.063322" width="1.1264" height="1.1266" color-interpolation-filters="sRGB">
   <feGaussianBlur stdDeviation="0.81547844"/>
  </filter>
  <filter id="filter1038" x="-.090824" y="-.074928" width="1.1816" height="1.1499" color-interpolation-filters="sRGB">
   <feGaussianBlur stdDeviation="0.81547844"/>
  </filter>
  <filter id="filter1066-3" x="-.063923" y="-.056531" width="1.1278" height="1.1131" color-interpolation-filters="sRGB">
   <feGaussianBlur stdDeviation="0.22705935"/>
  </filter>
  <linearGradient id="linearGradient1040" x1="80.368" x2="82.141" y1="13.177" y2="14.704" gradientTransform="matrix(3.8684 0 0 3.8684 -195.04 -9.225)" gradientUnits="userSpaceOnUse">
   <stop stop-color="#fafafa" offset="0"/>
   <stop stop-color="#90a0b3" offset="1"/>
  </linearGradient>
 </defs>
 <g transform="translate(-70.199)">
  <circle cx="101.98" cy="32.157" r="30.001" color="#000000" fill="#f3f3f3"/>
  <path d="m101.72 1.7578a30.001 30.174 0 0 0-30.001 30.174 30.001 30.174 0 0 0 20.933 28.751l2.0137-0.22787c14.201-3.9285 34.191-16.084 34.982-39.535a30.001 30.174 0 0 0-27.927-19.161zm27.994 19.342 1.6836 14.985a30.001 30.174 0 0 0 2e-3 -0.0079l-1.6798-14.959a30.001 30.174 0 0 0-6e-3 -0.01769z" color="#000000" fill="#fafafa" stroke-width="1.0029"/>
  <path transform="matrix(4.1561 0 0 3.9009 -110.21 -15.83)" d="m57.818 9.8288s0.05354 3.0782-2.6636 4.5408c-2.2449 1.2084 0.9386 2.689-5.8599 5.0989 8.8505-2.5748 8.5235-9.6396 8.5235-9.6396z" fill="#141414" filter="url(#filter1066-3)" opacity=".3"/>
  <path transform="matrix(4.0385 0 0 3.7632 -103.03 -13.288)" d="m57.818 9.8288s0.05354 3.0782-2.6636 4.5408c-2.2449 1.2084 0.9386 2.689-5.8599 5.0989 8.8505-2.5748 8.5235-9.6396 8.5235-9.6396z" fill="#141414" filter="url(#filter1066-3)" opacity=".3"/>
  <path d="m128.81 22.129s0.20712 11.908-10.304 17.566c-8.684 4.6746 3.631 10.402-22.669 19.725 34.238-9.9608 33.245-37.155 33.245-37.155z" fill="url(#linearGradient1040)" stroke-width="3.8684"/>
  <path d="m128.81 22.129s-0.72965 12.1-9.6947 17.056c-10.313 5.7023 3.7543 10.798-23.417 20.025" fill="none" stroke="#fafafa" stroke-width=".51176"/>
  <path d="m129.72 21.101 1.6836 14.984a30.001 30.174 0 0 0 2e-3 -0.0078l-1.6797-14.959a30.001 30.174 0 0 0-4e-3 -0.01758h-2e-3z" color="#000000" fill="#fafafa" stroke-width="1.0029"/>
  <path d="m129.72 21.1 1.6836 14.985a30.001 30.174 0 0 0 2e-3 -0.0079l-1.6796-14.959a30.001 30.174 0 0 0-6e-3 -0.01769z" color="#000000" fill="#fafafa" stroke-width="1.0029"/>
 </g>
 <g transform="matrix(.93825 0 0 .93825 3.2875 3.1054)">
  <path d="m40.576 20.542s1.2596-1.1356 2.3051-1.8644 2.5767-1.563 3.9394-1.2782c1.3628 0.28479 2.4713 2.0896 1.925 3.1426s-1.524-0.22822-2.969-0.15134-3.5768 2.4307-3.5768 2.4307z" filter="url(#filter1030)" opacity=".35" stroke="url(#linearGradient900)" stroke-linecap="round" stroke-linejoin="bevel" stroke-width="1px" style="paint-order:stroke fill markers"/>
  <path transform="rotate(-32.061)" d="m24.25 42.689c0 6.725-3.2991 15.028-15.213 15.028-11.914 0-18.204-10.193-17.913-13.504 0.45843-5.2093 8.7399-15.314 20.651-15.582 7.839-0.1767 12.475 7.3332 12.475 14.058z" filter="url(#filter1034)" opacity=".35" style="paint-order:stroke markers fill"/>
  <path transform="rotate(-32.061)" d="m24.25 42.689c0.21788 7.3705-3.8856 14.125-9.355 15.7-0.53528 0.15415-1.9181-0.69362-1.5266-1.1962 0.42532-0.54605 1.5849-1.1758 1.9021-2.3192 0.59864-2.1579 0.71306-3.1606 0.73691-5.7608 0.02046-2.231 0.03833-5.7826-0.1133-7.5994-0.23406-2.8044-0.92931-6.9768-2.157-10.841-0.37975-1.1952-1.5109-1.4378-1.9034-2.1461-0.30582-0.55178 0.19415-1.0574 0.81648-0.93117 7.6845 1.5589 11.401 8.372 11.6 15.094z" filter="url(#filter1038)" opacity=".35" stroke="url(#linearGradient904)" style="paint-order:stroke markers fill"/>
  <path transform="rotate(-32.061)" d="m24.25 42.689c0 6.725-3.2991 15.028-15.213 15.028-11.914 0-18.204-10.193-17.913-13.504 0.45843-5.2093 8.7399-15.314 20.651-15.582 7.839-0.1767 12.475 7.3332 12.475 14.058z" fill="url(#radialGradient870)" stroke="url(#linearGradient902)" style="paint-order:stroke markers fill"/>
  <path d="m40.576 20.542s1.2596-1.1356 2.3051-1.8644 2.5767-1.563 3.9394-1.2782c1.3628 0.28479 2.4713 2.0896 1.925 3.1426s-1.524-0.22822-2.969-0.15134-3.5768 2.4307-3.5768 2.4307z" fill="url(#linearGradient886)" stroke="url(#linearGradient900)" stroke-linecap="round" stroke-linejoin="bevel" stroke-width="1px" style="paint-order:stroke fill markers"/>
  <path d="m32.826 16.293c1.621 1.1926 3.0244 2.68 4.0566 4.3281 3.5697 5.6993 5.1812 14.488-4.916 20.812-5.0155 3.1414-10.187 3.4107-14.311 2.5273 3.7282 2.7346 12.395 5.3199 20.639 0.15625 10.097-6.3243 8.4857-15.111 4.916-20.811-2.23-3.5604-6.1554-6.4196-10.385-7.0137z" fill="#975c25" opacity=".5" style="paint-order:stroke markers fill"/>
  <path transform="rotate(-32.061)" d="m24.25 42.689c0 6.725-3.2991 15.028-15.213 15.028-11.914 0-18.204-10.193-17.913-13.504 0.45843-5.2093 8.7399-15.314 20.651-15.582 7.839-0.1767 12.475 7.3332 12.475 14.058z" fill="url(#linearGradient941)" style="paint-order:stroke markers fill"/>
  <path transform="rotate(-32.061)" d="m24.25 42.689c0.21788 7.3705-3.8856 14.125-9.355 15.7-0.53528 0.15415-1.9181-0.69362-1.5266-1.1962 0.42532-0.54605 1.5849-1.1758 1.9021-2.3192 0.59864-2.1579 0.71306-3.1606 0.73691-5.7608 0.02046-2.231 0.03833-5.7826-0.1133-7.5994-0.23406-2.8044-0.92931-6.9768-2.157-10.841-0.37975-1.1952-1.5109-1.4378-1.9034-2.1461-0.30582-0.55178 0.19415-1.0574 0.81648-0.93117 7.6845 1.5589 11.401 8.372 11.6 15.094z" fill="url(#linearGradient878)" stroke="url(#linearGradient904)" style="paint-order:stroke markers fill"/>
  <path transform="translate(-1.883,1.0406)" d="m45.438 22.822c0.18727 3.3067-1.2717 8.0101-4.418 8.4609 0.15664 0.25401 0.35889 0.57402 0.49805 0.80078 1.36 2.2162 1.7955 3.1268 2.4336 5.2734 0.33813 1.1374-0.31026 2.2861-0.38086 2.9746-0.06498 0.63376 1.5579 0.61985 1.9297 0.20508 3.6861-4.1119 3.6822-11.669-0.0625-17.715z" fill="#5d3417" opacity=".75" style="paint-order:stroke markers fill"/>
 </g>
</svg>
