<?xml version="1.0" encoding="UTF-8"?>
<svg width="64" height="64" version="1.1" xmlns="http://www.w3.org/2000/svg" xmlns:cc="http://creativecommons.org/ns#" xmlns:dc="http://purl.org/dc/elements/1.1/" xmlns:rdf="http://www.w3.org/1999/02/22-rdf-syntax-ns#" xmlns:xlink="http://www.w3.org/1999/xlink">
 <metadata>
  <rdf:RDF>
   <cc:Work rdf:about="">
    <dc:format>image/svg+xml</dc:format>
    <dc:type rdf:resource="http://purl.org/dc/dcmitype/StillImage"/>
    <dc:title/>
   </cc:Work>
  </rdf:RDF>
 </metadata>
 <defs>
  <linearGradient id="linearGradient1108" x2="48" y1="1047.5" y2="1047.5" gradientTransform="matrix(1.2066,0,0,1.1626,3.0425,-1163.9)" gradientUnits="userSpaceOnUse">
   <stop stop-color="#257b0c" offset="0"/>
   <stop stop-color="#93e62f" offset="1"/>
  </linearGradient>
  <linearGradient id="linearGradient1110" x1="24.413" x2="48" y1="34.717" y2="34.717" gradientTransform="matrix(1.1871 0 0 1.1871 5.0202 1.3)" gradientUnits="userSpaceOnUse">
   <stop stop-color="#36b512" offset="0"/>
   <stop stop-color="#93e62f" offset="1"/>
  </linearGradient>
  <linearGradient id="linearGradient862" x1="102.77" x2="102.77" y1="6.9714" y2="57.52" gradientTransform="translate(-71.567)" gradientUnits="userSpaceOnUse">
   <stop stop-color="#505050" offset="0"/>
   <stop stop-color="#262626" offset="1"/>
  </linearGradient>
 </defs>
 <circle cx="32" cy="32" r="30" fill="url(#linearGradient862)" stroke-width=".53793"/>
 <path d="m61.904 29.604c-14.483 0.30385-27.689 7.7129-27.689 7.7129s0.55355 7.4251 4.4883 15.617h6.9004c-2.8317-6.5097-3.0801-12.465-3.0801-12.465 0 0 7.6596-6.5798 19.43-6.7871a30 30 0 0 0 0.046875-1.6816 30 30 0 0 0 0-0.14453 30 30 0 0 0-0.095703-2.252zm-0.72852 9.3789c-7.3517 0.51014-12.42 3.75-12.42 3.75s-7.71e-4 4.9715 2.4863 10.201h2.2441a30 30 0 0 0 2.5703-3.0098c-0.70296-2.5766-0.73438-4.5957-0.73438-4.5957s1.8748-1.2837 4.4453-1.9727a30 30 0 0 0 1.4082-4.373z" fill="url(#linearGradient1110)"/>
 <path d="m9.293 51.605a30 30 0 0 0 22.707 10.395 30 30 0 0 0 22.705-10.395c-15.137-4.4e-5 -30.275 1.66e-4 -45.412 0z" fill="url(#linearGradient1108)"/>
</svg>
