<?xml version="1.0" encoding="UTF-8" standalone="no"?>
<svg
   xmlns:dc="http://purl.org/dc/elements/1.1/"
   xmlns:cc="http://creativecommons.org/ns#"
   xmlns:rdf="http://www.w3.org/1999/02/22-rdf-syntax-ns#"
   xmlns:svg="http://www.w3.org/2000/svg"
   xmlns="http://www.w3.org/2000/svg"
   xmlns:xlink="http://www.w3.org/1999/xlink"
   xmlns:sodipodi="http://sodipodi.sourceforge.net/DTD/sodipodi-0.dtd"
   xmlns:inkscape="http://www.inkscape.org/namespaces/inkscape"
   width="64"
   height="64"
   version="1.1"
   viewBox="0 0 16.933 16.933"
   id="svg41"
   sodipodi:docname="phpstorm.svg"
   inkscape:version="1.0 (4035a4fb49, 2020-05-01)">
  <metadata
     id="metadata45">
    <rdf:RDF>
      <cc:Work
         rdf:about="">
        <dc:format>image/svg+xml</dc:format>
        <dc:type
           rdf:resource="http://purl.org/dc/dcmitype/StillImage" />
        <dc:title></dc:title>
      </cc:Work>
    </rdf:RDF>
  </metadata>
  <sodipodi:namedview
     inkscape:document-rotation="0"
     pagecolor="#ffffff"
     bordercolor="#666666"
     borderopacity="1"
     objecttolerance="10"
     gridtolerance="10"
     guidetolerance="10"
     inkscape:pageopacity="0"
     inkscape:pageshadow="2"
     inkscape:window-width="1920"
     inkscape:window-height="985"
     id="namedview43"
     showgrid="false"
     inkscape:zoom="4.5078057"
     inkscape:cx="53.926509"
     inkscape:cy="32.591638"
     inkscape:window-x="0"
     inkscape:window-y="0"
     inkscape:window-maximized="1"
     inkscape:current-layer="svg41" />
  <defs
     id="defs15">
    <linearGradient
       id="linearGradient854"
       inkscape:collect="always">
      <stop
         id="stop850"
         offset="0"
         style="stop-color:#9040f0;stop-opacity:1" />
      <stop
         id="stop852"
         offset="1"
         style="stop-color:#ea5bf3;stop-opacity:1" />
    </linearGradient>
    <filter
       id="h"
       x="-.06"
       y="-.06"
       width="1.12"
       height="1.12"
       color-interpolation-filters="sRGB">
      <feGaussianBlur
         stdDeviation="0.85"
         id="feGaussianBlur2" />
    </filter>
    <linearGradient
       id="g"
       x1="32"
       x2="32"
       y1="15"
       y2="49"
       gradientTransform="matrix(0.26458,0,0,0.26458,-25.221291,0)"
       gradientUnits="userSpaceOnUse">
      <stop
         stop-color="#303030"
         offset="0"
         id="stop5" />
      <stop
         stop-color="#424242"
         offset="1"
         id="stop7" />
    </linearGradient>
    <linearGradient
       id="linearGradient862-3"
       x1="7.9373"
       x2="7.9373"
       y1="15.081"
       y2="1.852"
       gradientTransform="matrix(0.99996,0,0,0.99996,-25.221253,0.0083453)"
       gradientUnits="userSpaceOnUse">
      <stop
         stop-color="#873df0"
         offset="0"
         id="stop10" />
      <stop
         stop-color="#f25ef3"
         offset="1"
         id="stop12" />
    </linearGradient>
    <linearGradient
       inkscape:collect="always"
       xlink:href="#g"
       id="linearGradient898"
       gradientUnits="userSpaceOnUse"
       gradientTransform="matrix(0.26458,0,0,0.26458,-25.221291,0)"
       x1="32"
       y1="15"
       x2="32"
       y2="49" />
    <linearGradient
       gradientTransform="translate(-23.706134)"
       gradientUnits="userSpaceOnUse"
       y2="0.67182803"
       x2="40.121319"
       y1="16.373621"
       x1="24.440964"
       id="linearGradient856"
       xlink:href="#linearGradient854"
       inkscape:collect="always" />
  </defs>
  <circle
     r="7.9373436"
     cy="8.4665003"
     cx="8.4665003"
     id="path848"
     style="fill:url(#linearGradient856);fill-opacity:1;stroke-width:0.513401;stroke-linecap:round" />
  <g
     id="g896"
     transform="translate(25.221334)">
    <rect
       transform="matrix(0.26458,0,0,0.26458,-25.263727,-0.04234)"
       x="15.16"
       y="15.16"
       width="34"
       height="34"
       ry="5"
       fill="#303030"
       fill-rule="evenodd"
       filter="url(#h)"
       opacity="0.5"
       style="paint-order:stroke fill markers"
       id="rect884" />
    <rect
       x="-21.25259"
       y="3.9686999"
       width="8.9956999"
       height="8.9956999"
       ry="1.3229001"
       fill="url(#g)"
       fill-rule="evenodd"
       stroke-width="0.26458"
       style="fill:url(#linearGradient898);paint-order:stroke fill markers"
       id="rect886" />
    <path
       d="m -19.929691,11.02 h 3.1059 v 0.62118 h -3.1059 z"
       fill="#f9f9f9"
       stroke-width="0.26457"
       id="path888" />
    <path
       d="m -19.308491,5.4287 v 3.4165 h 0.62118 V 7.6029 h 0.62118 c 0.74772,0 1.2423,-0.30489 1.2423,-1.0713 V 6.515829 c 0,-0.69164 -0.33726,-1.0871 -1.141,-1.0871 z m 4.3561,6.066e-4 c -0.67294,0 -1.2569,0.33795 -1.2569,0.95482 v 0.018806 c 0,0.43285 0.43413,0.81752 1.1071,0.98576 0.56078,0.14954 0.77101,0.28502 0.77101,0.47194 v 0.018806 c 0,0.20562 -0.32209,0.34516 -0.62118,0.34516 -0.37385,0 -0.63268,-0.13976 -0.93176,-0.38277 l -0.40583,0.4398 c 0.39255,0.35516 0.83288,0.54546 1.3375,0.56415 0.71033,0 1.229,-0.44413 1.229,-1.0222 v -0.018806 c 0,-0.51188 -0.40077,-0.72542 -1.0737,-0.91236 -0.56078,-0.14954 -0.77648,-0.25431 -0.77648,-0.47862 v -0.058235 c 0,-0.16823 0.34078,-0.30513 0.62118,-0.30513 0.2804,0 0.49072,0.02004 0.78981,0.22566 l 0.34577,-0.47134 c -0.35323,-0.21339 -0.64958,-0.3755 -1.1356,-0.3755 z m -3.735,0.62057 h 0.62118 c 0.37385,0 0.62118,0.12941 0.62118,0.46589 v 0.015771 c 0,0.2804 -0.24732,0.45011 -0.62118,0.45011 h -0.62118 z"
       fill="#f9f9f9"
       stroke-width="0.26457"
       id="path890" />
  </g>
</svg>
