<?xml version="1.0" encoding="UTF-8"?>
<svg width="64" height="64" version="1.1" xmlns="http://www.w3.org/2000/svg" xmlns:cc="http://creativecommons.org/ns#" xmlns:dc="http://purl.org/dc/elements/1.1/" xmlns:rdf="http://www.w3.org/1999/02/22-rdf-syntax-ns#">
 <metadata>
  <rdf:RDF>
   <cc:Work rdf:about="">
    <dc:format>image/svg+xml</dc:format>
    <dc:type rdf:resource="http://purl.org/dc/dcmitype/StillImage"/>
   </cc:Work>
  </rdf:RDF>
 </metadata>
 <defs>
  <filter id="filter883" x="-.096" y="-.043636" width="1.192" height="1.0873" color-interpolation-filters="sRGB">
   <feGaussianBlur stdDeviation="0.5"/>
  </filter>
  <linearGradient id="linearGradient1005-3" x1=".73911" x2="16.388" y1="16.296" y2=".64687" gradientTransform="matrix(3.7796 0 0 3.7796 -.13467 .024492)" gradientUnits="userSpaceOnUse">
   <stop stop-color="#00a0ff" offset="0"/>
   <stop stop-color="#37beff" offset="1"/>
  </linearGradient>
 </defs>
 <path d="m62 31.999c0 3.5964-0.63304 7.0444-1.794 10.24-0.80694 2.2212-1.8686 4.3212-3.1519 6.2636-0.53754 0.8167-1.1155 1.6054-1.729 2.3633-1.9641 2.4257-4.2982 4.5382-6.9186 6.2526-0.96494 0.63184-1.9678 1.2099-3.0061 1.7277-4.0321 2.0179-8.5839 3.153-13.401 3.153s-9.3689-1.1351-13.401-3.1531c-1.0384-0.51799-2.0425-1.096-3.0074-1.7277-2.6535-1.7376-5.0155-3.8832-6.9957-6.349-0.61464-0.76408-1.1914-1.56-1.729-2.3841-1.249-1.9102-2.2837-3.9712-3.0747-6.1494-1.1608-3.1948-1.7927-6.6419-1.7927-10.237 0-16.569 13.432-30 30-30 8.317 0 15.843 3.3845 21.277 8.8507 1.5661 1.5746 2.9584 3.3233 4.1436 5.214 1.1205 1.7805 2.0571 3.6882 2.7857 5.6951 1.161 3.196 1.794 6.6442 1.794 10.24z" fill="url(#linearGradient1005-3)" stroke-width=".11719"/>
 <path transform="matrix(1.6,0,0,1.6,-608.62,-818.18)" d="m402.89 517.61h3.75l-6.5037 10.736h5.4449l-7.0443 11.194 2.2695 0.94816-6.6664 4.6218 1.4728-7.9496 1.6068 1.5702 4.2569-7.776h-5.5287z" fill-rule="evenodd" filter="url(#filter883)" opacity=".15"/>
 <path d="m36.004 9.996h6l-10.406 17.178h8.7118l-11.271 17.91 3.6312 1.5171-10.666 7.3949 2.3565-12.719 2.5709 2.5123 6.811-12.442h-8.8459z" fill="#fffff9" fill-rule="evenodd" stroke-width="1.6"/>
</svg>
