<?xml version="1.0" encoding="UTF-8"?>
<svg width="64" height="64" version="1.1" viewBox="0 0 16.933 16.933" xmlns="http://www.w3.org/2000/svg" xmlns:cc="http://creativecommons.org/ns#" xmlns:dc="http://purl.org/dc/elements/1.1/" xmlns:rdf="http://www.w3.org/1999/02/22-rdf-syntax-ns#" xmlns:xlink="http://www.w3.org/1999/xlink">
 <metadata>
  <rdf:RDF>
   <cc:Work rdf:about="">
    <dc:format>image/svg+xml</dc:format>
    <dc:type rdf:resource="http://purl.org/dc/dcmitype/StillImage"/>
   </cc:Work>
  </rdf:RDF>
 </metadata>
 <defs>
  <style type="text/css"/>
  <radialGradient id="radialGradient1539" cx="33.299" cy="5.9839" r="3.2704" gradientTransform="translate(-25.951 4.8991)" gradientUnits="userSpaceOnUse">
   <stop stop-color="#fff" stop-opacity=".204" offset="0"/>
   <stop stop-color="#fff" stop-opacity=".204" offset=".7"/>
   <stop stop-color="#191919" offset="1"/>
  </radialGradient>
  <linearGradient id="linearGradient2181" x1="32.855" x2="32.855" y1="1.7684" y2="10.314" gradientTransform="rotate(-10.161 40.039 141.11)" gradientUnits="userSpaceOnUse">
   <stop stop-color="#f6ffff" offset="0"/>
   <stop stop-color="#583e3f" offset="1"/>
  </linearGradient>
  <linearGradient id="linearGradient27086" x1="32.855" x2="32.855" y1="1.7684" y2="10.314" gradientTransform="matrix(.96953 -.17377 .17377 .96953 -23.764 9.2791)" gradientUnits="userSpaceOnUse">
   <stop stop-color="#f4fbfb" offset="0"/>
   <stop stop-color="#565050" offset=".49983"/>
   <stop stop-color="#c2b4b2" offset="1"/>
  </linearGradient>
  <linearGradient id="linearGradient59103" x1="31.418" x2="31.418" y1="9.3065" y2="2.6166" gradientTransform="translate(-24.007 4.8504)" gradientUnits="userSpaceOnUse">
   <stop stop-color="#f3f7f6" offset="0"/>
   <stop stop-color="#605e5d" offset="1"/>
  </linearGradient>
  <linearGradient id="linearGradient80038" x1="33.014" x2="34.219" y1="10.136" y2="9.4466" gradientTransform="rotate(-10.161 39.269 132.45)" gradientUnits="userSpaceOnUse">
   <stop stop-color="#3c292c" offset="0"/>
   <stop stop-color="#c2bbc2" offset=".1557"/>
   <stop stop-color="#50393c" offset=".42952"/>
   <stop stop-color="#dddee3" offset=".60187"/>
   <stop stop-color="#6a5a5b" offset=".88993"/>
   <stop stop-color="#806e74" offset="1"/>
  </linearGradient>
  <linearGradient id="linearGradient126082" x1="33.173" x2="34.636" y1="10.722" y2="9.847" gradientTransform="rotate(-10.161 39.269 132.45)" gradientUnits="userSpaceOnUse">
   <stop stop-color="#533c3c" offset="0"/>
   <stop stop-color="#c2bac0" offset=".079999"/>
   <stop stop-color="#432c2d" offset=".46848"/>
   <stop stop-color="#cecbd2" offset=".60206"/>
   <stop stop-color="#675556" offset=".91407"/>
   <stop stop-color="#8a7b84" offset="1"/>
  </linearGradient>
  <linearGradient id="linearGradient181487" x1="33.624" x2="35.493" y1="12.027" y2="10.924" gradientTransform="matrix(3.7203 -.66681 .66681 3.7203 -85.991 34.037)" gradientUnits="userSpaceOnUse">
   <stop stop-color="#542a2e" offset="0"/>
   <stop stop-color="#482a2d" offset=".063817"/>
   <stop stop-color="#341e21" offset=".19594"/>
   <stop stop-color="#664748" offset=".53477"/>
   <stop stop-color="#d2cad1" offset=".66939"/>
   <stop stop-color="#55363a" offset=".95152"/>
   <stop stop-color="#70494f" offset="1"/>
  </linearGradient>
  <filter id="filter1229" x="-.069096" y="-.1071" width="1.1382" height="1.2142" color-interpolation-filters="sRGB">
   <feGaussianBlur stdDeviation="0.1347133"/>
  </filter>
  <filter id="filter1251" x="-.208" y="-.28364" width="1.416" height="1.5673" color-interpolation-filters="sRGB">
   <feGaussianBlur stdDeviation="0.069956252"/>
  </filter>
  <linearGradient id="linearGradient997" x1="-228.54" x2="-228.54" y1="49.422" y2="52.342" gradientTransform="translate(237.02,-44.947)" gradientUnits="userSpaceOnUse">
   <stop stop-color="#fff" offset="0"/>
   <stop stop-color="#fff" stop-opacity="0" offset="1"/>
  </linearGradient>
  <linearGradient id="linearGradient2163-3" x1="-177.09" x2="-177.09" y1="-1.3372" y2="-15.638" gradientTransform="matrix(1.0909 0 0 1.0909 202.08 17.487)" gradientUnits="userSpaceOnUse">
   <stop stop-color="#78b4dc" offset="0"/>
   <stop stop-color="#0096f0" offset="1"/>
  </linearGradient>
  <linearGradient id="linearGradient2230-5" x1="-235.64" x2="-175.89" y1="49.391" y2="49.391" gradientTransform="matrix(.29415 0 0 .29415 68.296 -.91594)" gradientUnits="userSpaceOnUse">
   <stop stop-color="#2d69e6" offset="0"/>
   <stop stop-color="#3791d7" offset=".3497"/>
   <stop stop-color="#2887cd" offset="1"/>
  </linearGradient>
  <linearGradient id="linearGradient2208-3" x1="-230.89" x2="-207.22" y1="41.878" y2="41.878" gradientTransform="matrix(.28863 0 0 .28863 67.169 -.89437)" gradientUnits="userSpaceOnUse">
   <stop stop-color="#b4dcff" offset="0"/>
   <stop stop-color="#c8faff" offset="1"/>
  </linearGradient>
  <linearGradient id="linearGradient2216-5" x1="-192.39" x2="-175.89" y1="41.967" y2="34.297" gradientTransform="matrix(.28863 0 0 .28863 67.169 -.89437)" gradientUnits="userSpaceOnUse">
   <stop stop-color="#96d9ff" offset="0"/>
   <stop stop-color="#f0fafa" offset="1"/>
  </linearGradient>
  <linearGradient id="linearGradient1541" x1="-228.54" x2="-228.54" y1="49.422" y2="52.342" gradientTransform="translate(237.02,-44.947)" gradientUnits="userSpaceOnUse" xlink:href="#linearGradient997"/>
  <linearGradient id="linearGradient1902" x1="32" x2="32" y1="2.0005" y2="61.906" gradientUnits="userSpaceOnUse">
   <stop stop-color="#f5f5f5" offset="0"/>
   <stop stop-color="#dcdcdc" offset="1"/>
  </linearGradient>
 </defs>
 <g transform="translate(-19.369)" fill="#5e4aa6" stroke-width=".26458">
  <circle cx="-330.35" cy="-328.38" r="0"/>
  <circle cx="-330.35" cy="-328.37" r="0"/>
  <circle cx="-330.35" cy="-328.37" r="0"/>
  <circle cx="-352.63" cy="-336.83" r="0"/>
 </g>
 <path d="m8.4665 0.52923a7.9374 7.9374 0 0 0-7.9374 7.9374 7.9374 7.9374 0 0 0 5.8126 7.6392h4.2746a7.9374 7.9374 0 0 0 5.7872-7.6289v-0.024804a7.9374 7.9374 0 0 0-7.9369-7.9228z" fill="url(#linearGradient2163-3)" stroke-width="1.0909"/>
 <path d="m16.027 10.875-14.368 1.6546a7.9373 7.9373 0 0 0 6.8082 3.8741 7.9373 7.9373 0 0 0 7.5596-5.5288z" fill="url(#linearGradient2230-5)" stroke-width="1.1118"/>
 <path d="m1.0428 9.8448c-0.12577 0.00206-0.25335 0.019373-0.38137 0.043926 0.16469 0.89195 0.52112 1.8606 0.99784 2.6411l5.7163-0.67489s-0.79538-0.48074-1.6172-0.96013c-0.82181-0.47939-1.614 0.09835-1.79 0.29403-0.17611 0.19567-0.13689 0.03875-0.41081-0.108-0.27395-0.14676-0.33319 0.46995-0.58755-0.19533-0.20667-0.54054-1.0203-1.0556-1.927-1.0408z" fill="url(#linearGradient2208-3)" stroke-width="1.0909"/>
 <path d="m16.206 6.7516c-0.40089 0.077382-0.80337 0.36028-0.92397 1.1539 0 0-0.58112 0.30495-0.67799 0.92759 0 0-0.92717 0.04097-1.1901 0.98183 0 0-1.1696 0.30138-1.903 1.5881l4.5161-0.52776c0.24239-0.77273 0.37539-1.6294 0.37674-2.4039v-0.010853c-0.00386-0.57512-0.070227-1.1481-0.19792-1.7089z" fill="url(#linearGradient2216-5)" stroke-width="1.0909"/>
 <g transform="matrix(1.0909 0 0 1.0909 26.19 -.77091)" fill="#b9e7f2">
  <path transform="matrix(.80005 .15607 -.15607 .80005 38.674 12.43)" d="m-68.859 3.7133-0.75886 0.017016-0.51314 0.54931-0.25068-0.71646-0.68099-0.31827 0.60392-0.45981 0.09226-0.74602 0.62393 0.43228 0.73801-0.14279-0.21832 0.72697z" opacity=".3"/>
  <path transform="matrix(.33479 .065311 -.065311 .33479 3.485 8.5236)" d="m-68.859 3.7133-0.75886 0.017016-0.51314 0.54931-0.25068-0.71646-0.68099-0.31827 0.60392-0.45981 0.09226-0.74602 0.62393 0.43228 0.73801-0.14279-0.21832 0.72697z" opacity=".3"/>
  <path transform="matrix(.33479 .065311 -.065311 .33479 4.7788 9.4622)" d="m-68.859 3.7133-0.75886 0.017016-0.51314 0.54931-0.25068-0.71646-0.68099-0.31827 0.60392-0.45981 0.09226-0.74602 0.62393 0.43228 0.73801-0.14279-0.21832 0.72697z" opacity=".6"/>
  <path transform="matrix(.18182 .035468 -.035468 .18182 -7.0481 9.4207)" d="m-68.859 3.7133-0.75886 0.017016-0.51314 0.54931-0.25068-0.71646-0.68099-0.31827 0.60392-0.45981 0.09226-0.74602 0.62393 0.43228 0.73801-0.14279-0.21832 0.72697z"/>
 </g>
 <path d="m11.348 12.952 0.40007 0.45215 1.0537-0.90196-0.43174-0.46639z" fill="url(#linearGradient80038)"/>
 <path d="m11.609 13.509 0.33894 0.38186 1.2999-1.107-0.34112-0.39107z" fill="url(#linearGradient126082)"/>
 <path transform="scale(.26458)" d="m32 2a30 30 0 0 0-30 30 30 30 0 0 0 30 30 30 30 0 0 0 30-30 30 30 0 0 0-30-30zm0 4a26 26 0 0 1 26 26 26 26 0 0 1-26 26 26 26 0 0 1-26-26 26 26 0 0 1 26-26z" fill="url(#linearGradient1902)" stroke-linecap="round" stroke-linejoin="round" stroke-opacity=".3" stroke-width=".98976"/>
 <path transform="scale(.26458)" d="m47.982 57.381a30 30 0 0 0 0.85742-0.56055 30 30 0 0 0 0.85938-0.60547 30 30 0 0 0 0.83789-0.63672 30 30 0 0 0 0.81445-0.66406 30 30 0 0 0 0.79102-0.69141 30 30 0 0 0 0.76758-0.7207 30 30 0 0 0 0.74024-0.74609 30 30 0 0 0 0.71289-0.77148c-1.748-2.0737-3.3418-3.959-3.3418-3.959s-0.39714-0.20412-0.63672 0.003906c-0.23959 0.20818-5.6016 4.7305-5.6016 4.7305s-0.40804 0.40562 0.041016 0.90625c0.22228 0.24784 1.658 1.9415 3.1582 3.7148z" fill="url(#linearGradient181487)"/>
 <path d="m8.3977 5.1975a4.2857 4.2857 0 0 0-3.4627 4.9744 4.2857 4.2857 0 0 0 4.9749 3.4626 4.2857 4.2857 0 0 0 3.4621-4.9748 4.2857 4.2857 0 0 0-4.9743-3.4622zm0.17905 0.99899a3.2704 3.2704 0 0 1 3.7957 2.6423 3.2704 3.2704 0 0 1-2.6417 3.7961 3.2704 3.2704 0 0 1-3.7962-2.6422 3.2704 3.2704 0 0 1 2.6422-3.7962z" fill="url(#linearGradient2181)"/>
 <path d="m8.4091 5.2606a4.2213 4.2213 0 0 0-3.4104 4.8999 4.2213 4.2213 0 0 0 4.8999 3.4104 4.2213 4.2213 0 0 0 3.4099-4.8998 4.2213 4.2213 0 0 0-4.8994-3.4105zm0.16775 0.93591a3.2704 3.2704 0 0 1 3.7957 2.6423 3.2704 3.2704 0 0 1-2.6417 3.7961 3.2704 3.2704 0 0 1-3.7962-2.6422 3.2704 3.2704 0 0 1 2.6422-3.7962z" fill="url(#linearGradient27086)"/>
 <circle transform="rotate(-10.161)" cx="7.3488" cy="10.883" r="3.2704" fill="url(#radialGradient1539)" opacity=".302"/>
 <circle transform="rotate(-10.161)" cx="7.3488" cy="10.82" r="3.3137" fill="none" stroke="url(#linearGradient59103)" stroke-linecap="round" stroke-linejoin="round" stroke-width=".10723"/>
 <ellipse transform="matrix(.99354 0 0 1.1029 .79756 1.191)" cx="8.4666" cy="6.4479" rx="2.3396" ry="1.5094" fill="url(#linearGradient1541)" filter="url(#filter1229)" opacity=".4"/>
 <ellipse transform="matrix(.99354 0 0 1.1029 .79756 1.191)" cx="8.4666" cy="6.4479" rx="2.3396" ry="1.5094" fill="url(#linearGradient1541)" filter="url(#filter1229)" opacity=".4"/>
 <ellipse cx="9.2095" cy="7.3252" rx=".40359" ry=".29597" fill="#fff" filter="url(#filter1251)" opacity=".7"/>
</svg>
