<?xml version="1.0" encoding="UTF-8"?>
<svg width="64" height="64" version="1.1" viewBox="0 0 16.933 16.933" xmlns="http://www.w3.org/2000/svg" xmlns:cc="http://creativecommons.org/ns#" xmlns:dc="http://purl.org/dc/elements/1.1/" xmlns:rdf="http://www.w3.org/1999/02/22-rdf-syntax-ns#" xmlns:xlink="http://www.w3.org/1999/xlink">
 <defs>
  <linearGradient id="b-5" x1="9.2603" x2="9.2603" y1="-.26249" y2="15.612" gradientTransform="translate(-3.5677 1.3092)" gradientUnits="userSpaceOnUse">
   <stop stop-color="#1c1d1d" offset="0"/>
   <stop stop-color="#313232" offset="1"/>
  </linearGradient>
  <linearGradient id="linearGradient8783" x1="58.975" x2="55.07" y1="3.7576" y2="-3.3891" gradientTransform="matrix(.42547 0 0 .42547 -14.49 6.4787)" gradientUnits="userSpaceOnUse">
   <stop stop-color="#6892c6" offset="0"/>
   <stop stop-color="#5a82a1" offset=".25781"/>
   <stop stop-color="#dcf6fc" offset=".75942"/>
   <stop stop-color="#f8fcf8" offset="1"/>
  </linearGradient>
  <linearGradient id="linearGradient66615" x1="55.1" x2="58.802" y1="-2.6891" y2="3.435" gradientTransform="matrix(.42547 0 0 .42547 -14.49 6.4787)" gradientUnits="userSpaceOnUse">
   <stop stop-color="#ebfcfc" offset="0"/>
   <stop stop-color="#d8f8ef" offset=".25956"/>
   <stop stop-color="#596f80" offset=".64992"/>
   <stop stop-color="#4883c8" offset="1"/>
  </linearGradient>
  <linearGradient id="linearGradient35758" x1="210.9" x2="225.83" y1="-13.819" y2="12.34" gradientTransform="matrix(.11257 0 0 .11257 -14.49 6.4787)" gradientUnits="userSpaceOnUse">
   <stop stop-color="#f1f7fd" offset="0"/>
   <stop stop-color="#949b7e" offset=".27521"/>
   <stop stop-color="#566f98" offset=".71852"/>
   <stop stop-color="#7ea0d0" offset="1"/>
  </linearGradient>
  <linearGradient id="linearGradient105832" x1="43.232" x2="50.706" y1="-.51481" y2="12.432" gradientTransform="matrix(.42547 0 0 .42547 -14.49 6.4787)" gradientUnits="userSpaceOnUse">
   <stop stop-color="#e4f1fd" offset="0"/>
   <stop stop-color="#e3f6fa" offset=".49011"/>
   <stop stop-color="#96b4c1" offset=".80346"/>
   <stop stop-color="#75a5b6" offset="1"/>
  </linearGradient>
  <linearGradient id="linearGradient110655" x1="43.357" x2="50.313" y1=".036586" y2="12.085" gradientTransform="matrix(.42547 0 0 .42547 -14.49 6.4787)" gradientUnits="userSpaceOnUse">
   <stop stop-color="#ecf2f5" offset="0"/>
   <stop stop-color="#f3f4f6" offset=".17096"/>
   <stop stop-color="#e6f3f9" offset=".42739"/>
   <stop stop-color="#a0bac7" offset=".71105"/>
   <stop stop-color="#98b4c2" offset=".87159"/>
   <stop stop-color="#748e9d" offset="1"/>
  </linearGradient>
  <linearGradient id="linearGradient135300" x1="50.426" x2="45.343" y1="2.289" y2="4.2915" gradientTransform="matrix(.42547 0 0 .42547 -14.49 6.4787)" gradientUnits="userSpaceOnUse">
   <stop stop-color="#52906d" offset="0"/>
   <stop stop-color="#adf3cf" offset="1"/>
  </linearGradient>
  <linearGradient id="linearGradient159556" x1="155.76" x2="182.62" y1="25.058" y2="21.826" gradientTransform="matrix(.11257 0 0 .11257 -14.49 6.4787)" gradientUnits="userSpaceOnUse">
   <stop stop-color="#8ee242" offset="0"/>
   <stop stop-color="#82d932" offset="1"/>
  </linearGradient>
 </defs>
 <metadata>
  <rdf:RDF>
   <cc:Work rdf:about="">
    <dc:format>image/svg+xml</dc:format>
    <dc:type rdf:resource="http://purl.org/dc/dcmitype/StillImage"/>
   </cc:Work>
  </rdf:RDF>
 </metadata>
 <g transform="translate(2.7739 -.51751)">
  <circle cx="5.6926" cy="8.984" r="7.9373" fill="url(#b-5)" image-rendering="optimizeSpeed" stroke-width=".96298" style="paint-order:stroke markers fill"/>
  <path d="m8.4051 5.361s0.69036-0.59387 1.042-0.40036c0.35163 0.19353 0.71347 0.7527 1.0002 1.2268 0.28671 0.47406 0.70245 1.4227 0.46691 1.692-0.23552 0.26933-0.90301 0.54643-0.90301 0.54643l-1.9349-2.8728z" fill="url(#linearGradient8783)" stroke-width=".42547"/>
  <path d="m8.4298 5.6435s0.74908-0.56106 0.91327-0.43474c0.16419 0.12634 0.564 0.56749 0.89587 1.1898 0.33926 0.6362 0.65003 1.187 0.36429 1.4109-0.28573 0.22386-0.83775 0.57804-0.83775 0.57804l-1.6585-2.5219z" fill="url(#linearGradient66615)" stroke-width=".42547"/>
  <path d="m9.2824 4.9219c-0.19746 2.911e-4 -0.43644 0.12767-0.61496 0.24514 0.22899-0.14358 0.53414-0.28388 0.73193-0.17501 0.35164 0.19353 0.71345 0.75277 1.0002 1.2268 0.28672 0.47407 0.70229 1.4228 0.46677 1.692-0.058881 0.067333-0.14461 0.13512-0.24032 0.19898 0.11488-0.072796 0.22045-0.15188 0.28912-0.23042 0.23553-0.26934-0.18028-1.218-0.46699-1.692-0.28672-0.47407-0.64853-1.0333-1.0002-1.2268-0.049448-0.027216-0.10557-0.038783-0.16556-0.038696zm-0.91265 0.46018-0.29264 0.17105 0.00153 0.0022 0.27857-0.16292s0.00899-0.00736 0.012533-0.010334z" fill="url(#linearGradient35758)" stroke-width=".11257"/>
  <path d="m7.7363 4.2261s-0.14958-0.073342-0.29439 0.010263c-0.14481 0.083605-6.9092 3.9891-6.9092 3.9891s-0.21456 0.095671-0.095224 0.54103c0.11934 0.44538 0.56826 1.661 1.1925 2.6768 0.6242 1.0158 1.64 2.5527 2.0763 2.3008 0.43632-0.25191 6.8564-3.9586 6.8564-3.9586s0.18082-0.078759 0.1788-0.38121c-0.002037-0.30244-0.3445-1.4853-1.0032-2.6687-0.65871-1.1835-1.4753-2.2004-2.002-2.5094z" fill="url(#linearGradient105832)" stroke-width=".42547"/>
  <path d="m7.6137 4.4959s-0.1411-0.069181-0.27769 0.00968c-0.1366 0.078865-6.5177 3.7629-6.5177 3.7629s-0.2024 0.090246-0.089825 0.51035c0.11257 0.42012 0.536 1.5668 1.1249 2.525 0.58885 0.9582 1.547 2.4079 1.9586 2.1703 0.41158-0.23762 6.468-3.7342 6.468-3.7342s0.17057-0.074295 0.16866-0.35959c-0.001905-0.2853-0.32496-1.4011-0.94633-2.5175-0.62135-1.1163-1.3916-2.0756-1.8885-2.3671z" fill="url(#linearGradient110655)" stroke-width=".42547"/>
  <path d="m4.5286 8.286c0.00714 0.00377 0.013996 0.00768 0.021328 0.011432 0.014927 0.00765 0.030186 0.015293 0.045951 0.022865 0.015766 0.00757 0.031963 0.015176 0.04859 0.022645 0.016626 0.00747 0.033719 0.014859 0.051228 0.022206 0.01751 0.00735 0.035453 0.014562 0.053867 0.021767 0.018412 0.0072 0.037385 0.01429 0.056724 0.021325 0.019341 0.00704 0.039076 0.014038 0.059364 0.020888s0.040962 0.013589 0.062221 0.020227c0.021259 0.00664 0.043048 0.013158 0.0653 0.019568 0.022251 0.00641 0.045111 0.012753 0.068377 0.018909 0.023267 0.00616 0.046933 0.012147 0.071236 0.018028 0.024301 0.00588 0.049173 0.011782 0.074534 0.01737 0.02536 0.00559 0.051391 0.011001 0.077832 0.016269 0.026442 0.00527 0.053366 0.010242 0.08091 0.015171 0.027544 0.00493 0.055539 0.00972 0.084207 0.01429 0.028669 0.00457 0.057912 9e-3 0.087726 0.013192 0.029815 0.00419 0.06026 0.00809 0.091244 0.011874 0.030984 0.00378 0.062587 0.00741 0.094762 0.010774 0.032174 0.00336 0.064892 0.00654 0.098278 0.00945 0.033387 0.00291 0.067396 0.00547 0.10202 0.00791 0.034621 0.00243 0.069877 0.00464 0.10576 0.0066 0.00756 4.233e-4 0.015465 7.144e-4 0.023084 0.00111-0.025155-0.15985 0.16035-0.16326 0.35156-0.17985 0.1833-0.015901 1.3949-0.089045 1.3949-0.089045l-0.79678-1.0268s-1.9435 0.24561-2.4955 0.53493c-0.12692 0.066532-0.18639 0.14309 0.021325 0.41686z" fill="#e0eef8" stroke-width=".11257"/>
  <path d="m4.8291 8.6281c0.013104 0.00394 0.024577 0.00796 0.038037 0.011872 0.059377 0.017243 0.122 0.03405 0.18821 0.050129 0.033098 0.00804 0.067239 0.015914 0.10202 0.023526 0.034776 0.00761 0.070194 0.014898 0.10663 0.021986 0.03644 0.00709 0.073826 0.013972 0.11191 0.020447 0.038086 0.00647 0.077034 0.012702 0.11675 0.018468 0.039715 0.00577 0.080258 0.011081 0.12159 0.016049 0.041327 0.00497 0.083279 0.00955 0.1262 0.013631 0.042922 0.00408 0.086759 0.00768 0.13126 0.010774 0.044498 0.0031 0.089813 0.00568 0.13587 0.00769 0.046059 0.00201 0.092886 0.00355 0.14049 0.0044 0.00217 3.86e-5 0.00442-3.63e-5 0.0066 0-0.054725-0.078852-0.092523-0.14677-0.1007-0.19414-2.251e-4 -0.00106-2.251e-4 -0.00204-4.497e-4 -0.00308-0.00762-3.969e-4 -0.01552-6.879e-4 -0.023085-0.00111-0.035878-0.00196-0.071134-0.00415-0.10576-0.0066-0.034621-0.00243-0.06863-5e-3 -0.10202-0.00791-0.033386-0.00291-0.066105-0.0061-0.098278-0.00945-0.032175-0.00336-0.063778-0.00699-0.094762-0.010774-0.030984-0.00378-0.061428-0.00769-0.091244-0.011872-0.029814-0.00419-0.059057-0.00862-0.087726-0.013192-0.028667-0.00457-0.056663-0.00936-0.084207-0.01429s-0.054468-0.0099-0.08091-0.015171c-0.026442-0.00527-0.052471-0.010684-0.077832-0.016269-0.02536-0.00559-0.050231-0.011485-0.074534-0.017369-0.024304-0.00588-0.04797-0.011872-0.071236-0.018028-0.023267-0.00616-0.046126-0.012499-0.068377-0.018909s-0.044041-0.012927-0.0653-0.019568c-0.021259-0.00664-0.041932-0.013377-0.062221-0.020227-0.020288-0.00685-0.040023-0.013851-0.059364-0.020888-0.019341-0.00704-0.038311-0.014123-0.056724-0.021325-0.018415-0.0072-0.036358-0.01442-0.053867-0.021767-0.01751-0.00735-0.034602-0.014734-0.051228-0.022206-0.016626-0.00747-0.032825-0.015073-0.04859-0.022645-0.015766-0.00757-0.031024-0.015213-0.045951-0.022865-0.00733-0.00376-0.014195-0.00766-0.021328-0.011432 0.068426 0.090185 0.16658 0.20242 0.30011 0.34211z" fill="#e0eef8" stroke-width=".11257"/>
  <path d="m7.7997 8.361-0.79669-1.0269s-1.9436 0.24562-2.4955 0.53494c-0.19704 0.10329-0.23262 0.2304 0.64403 1.0828l-2.7589 0.43049s3.6205 0.4121 3.9796 0.41534c0.35905 0.00324 0.52452 0.040169 0.48376-0.097126-0.04076-0.13729-0.76282-0.83924-0.80222-1.0676-0.028124-0.16298 0.15864-0.16626 0.35111-0.18296 0.1833-0.015901 1.3948-0.088923 1.3948-0.088923z" fill="none" stroke="#ddeef7" stroke-linecap="round" stroke-linejoin="round" stroke-width=".33771"/>
  <path d="m7.7997 8.361-0.79669-1.0269s-1.9436 0.24562-2.4955 0.53494c-0.19704 0.10329-0.23262 0.2304 0.64403 1.0828l-2.7589 0.43049s3.6205 0.4121 3.9796 0.41534c0.35905 0.00324 0.52452 0.040169 0.48376-0.097126-0.04076-0.13729-0.76282-0.83924-0.80222-1.0676-0.028124-0.16298 0.15864-0.16626 0.35111-0.18296 0.1833-0.015901 1.3948-0.088923 1.3948-0.088923z" fill="url(#linearGradient135300)" stroke-width=".42547"/>
  <g stroke-width=".11257">
   <path d="m4.5286 8.286c0.11475 0.15125 0.31068 0.36263 0.62266 0.66597l-2.7589 0.43049s3.6205 0.41209 3.9796 0.41533c0.35905 0.00324 0.52447 0.040116 0.4837-0.09718-0.040761-0.13729-0.76265-0.83926-0.80206-1.0677-2.251e-4 -0.00106-2.251e-4 -0.00204-4.497e-4 -0.00308-0.00762-3.969e-4 -0.01552-6.879e-4 -0.023084-0.00111-0.035878-0.00196-0.071134-0.00415-0.10576-0.0066-0.034621-0.00243-0.06863-5e-3 -0.10202-0.00791-0.033386-0.00291-0.066105-0.0061-0.098278-0.00945-0.032175-0.00336-0.063778-0.00699-0.094762-0.010774-0.030984-0.00378-0.061428-0.00769-0.091244-0.011872-0.029814-0.00419-0.059056-0.00862-0.087726-0.013192-0.028668-0.00457-0.056663-0.00936-0.084207-0.01429s-0.054468-0.0099-0.08091-0.015171c-0.026442-0.00527-0.052471-0.010684-0.077832-0.016269-0.02536-0.00559-0.050231-0.011488-0.074534-0.01737-0.024301-0.00588-0.04797-0.011872-0.071236-0.018028-0.023267-0.00616-0.046126-0.012499-0.068377-0.018909s-0.044041-0.012927-0.0653-0.019568c-0.021259-0.00664-0.041932-0.013377-0.062221-0.020227-0.020288-0.00685-0.040023-0.013851-0.059364-0.020888-0.019341-0.00704-0.038311-0.014123-0.056724-0.021328-0.018415-0.0072-0.036358-0.014419-0.053867-0.021767-0.01751-0.00735-0.034602-0.014734-0.051228-0.022206-0.016626-0.00747-0.032825-0.015076-0.04859-0.022645-0.015766-0.00757-0.031024-0.015213-0.045951-0.022865-0.00733-0.00376-0.014195-0.00766-0.021328-0.011432z" fill="#adfe71"/>
   <path d="m7.0029 7.3342s-1.9435 0.24561-2.4955 0.53493c-0.092202 0.048333-0.1491 0.10175-0.093662 0.2324 0.020394-0.028924 0.053546-0.051087 0.093662-0.072115 0.55192-0.28932 2.4955-0.53493 2.4955-0.53493l0.67784 0.87374c0.01978-0.00119 0.11894-0.00725 0.11894-0.00725zm-1.9919 1.6397-2.6184 0.40851s0.23898 0.027212 0.59649 0.067279l2.1624-0.33749c-0.05002-0.048635-0.096275-0.094252-0.14049-0.13829z" fill="#4c8065"/>
   <path d="m4.8291 8.6281c0.09042 0.094586 0.19658 0.20139 0.32254 0.32386l-2.7589 0.43049s3.6205 0.41209 3.9796 0.41533c0.35905 0.00324 0.52446 0.040116 0.4837-0.09718-0.032307-0.10882-0.49224-0.5722-0.70137-0.87352-0.00217-3.62e-5 -0.00443 3.89e-5 -0.0066 0-0.047607-8.466e-4 -0.094431-0.00238-0.14049-0.0044-0.046057-0.00201-0.091376-0.0046-0.13587-0.0077-0.044497-0.0031-0.088337-0.0067-0.13126-0.010774-0.042922-0.00408-0.084874-0.00866-0.1262-0.013631-0.041327-0.00497-0.08187-0.010284-0.12159-0.016049-0.03971-0.00576-0.078658-0.011987-0.11674-0.018461-0.038085-0.00647-0.07547-0.013361-0.11191-0.020447-0.036439-0.00709-0.071857-0.014377-0.10663-0.021986-0.034777-0.00761-0.068919-0.015486-0.10202-0.023526-0.066196-0.016078-0.12883-0.032885-0.18821-0.050129-0.013459-0.00391-0.024931-0.00793-0.038036-0.011872z" fill="url(#linearGradient159556)"/>
   <path d="m7.6873 8.2166c-0.029354 0.00177-1.1982 0.072242-1.3792 0.087946-0.19247 0.016697-0.37925 0.019944-0.35112 0.18293 0.00993 0.057514 0.063137 0.14526 0.13785 0.24625-0.021955-0.03915-0.036614-0.073346-0.041334-0.1007-0.028124-0.16298 0.15865-0.16623 0.35112-0.18293 0.1833-0.015901 1.3949-0.089046 1.3949-0.089046zm-4.7939 1.0877-0.50107 0.078271s3.6205 0.41209 3.9796 0.41533c0.35905 0.00324 0.52446 0.040116 0.4837-0.09718-0.00812-0.027349-0.044016-0.07764-0.095421-0.14159 0.036355 0.13259-0.12926 0.096429-0.4848 0.093222-0.26731-0.00241-2.339-0.23116-3.382-0.34805z" fill="#4c8065"/>
  </g>
 </g>
</svg>
