<?xml version="1.0" encoding="UTF-8" standalone="no"?>
<svg
   xmlns:osb="http://www.openswatchbook.org/uri/2009/osb"
   xmlns:dc="http://purl.org/dc/elements/1.1/"
   xmlns:cc="http://creativecommons.org/ns#"
   xmlns:rdf="http://www.w3.org/1999/02/22-rdf-syntax-ns#"
   xmlns:svg="http://www.w3.org/2000/svg"
   xmlns="http://www.w3.org/2000/svg"
   xmlns:xlink="http://www.w3.org/1999/xlink"
   xmlns:sodipodi="http://sodipodi.sourceforge.net/DTD/sodipodi-0.dtd"
   xmlns:inkscape="http://www.inkscape.org/namespaces/inkscape"
   width="64"
   height="64"
   viewBox="0 0 16.933333 16.933334"
   version="1.1"
   id="svg880"
   inkscape:version="1.0 (4035a4fb49, 2020-05-01)"
   sodipodi:docname="qtop.svg">
  <defs
     id="defs874">
    <linearGradient
       osb:paint="solid"
       id="linearGradient6987">
      <stop
         id="stop6985"
         offset="0"
         style="stop-color:#77d2fb;stop-opacity:1;" />
    </linearGradient>
    <linearGradient
       gradientUnits="userSpaceOnUse"
       gradientTransform="matrix(0.41967,0,0,0.41967,-173.34,-178.23)"
       y2="517.62"
       y1="545.62"
       x2="400.39999"
       x1="400.39999"
       id="i">
      <stop
         id="stop2"
         offset="0"
         stop-color="#d3d3d3" />
      <stop
         id="stop4"
         offset="1"
         stop-color="#fcf9f9" />
    </linearGradient>
    <linearGradient
       gradientUnits="userSpaceOnUse"
       gradientTransform="matrix(0.43343,0,0,0.43343,-193.09,-179.69)"
       y2="517.62"
       y1="545.62"
       x2="400.39999"
       x1="400.39999"
       id="f">
      <stop
         id="stop7"
         offset="0"
         stop-color="#8d3aff" />
      <stop
         id="stop9"
         offset="1"
         stop-color="#ff3680" />
    </linearGradient>
    <linearGradient
       gradientUnits="userSpaceOnUse"
       gradientTransform="matrix(0.91146693,0,0,0.91146693,0.7496588,280.8163)"
       y2="2.6458001"
       y1="16.403999"
       x2="3.9686999"
       x1="3.9686999"
       id="linearGradient1448">
      <stop
         id="stop12"
         offset="0"
         stop-color="#ebf0f5" />
      <stop
         id="stop14"
         offset="1"
         stop-color="#fafafa" />
    </linearGradient>
    <linearGradient
       gradientUnits="userSpaceOnUse"
       gradientTransform="matrix(0.48338,0,0,0.48338,-200.71,-248.05)"
       y2="524.16998"
       y1="540.19"
       x2="433.31"
       x1="423.39001"
       id="k-7">
      <stop
         id="stop17"
         offset="0"
         stop-opacity=".8"
         stop-color="#ff4bfa" />
      <stop
         id="stop19"
         offset="1"
         stop-color="#ffaa4b" />
    </linearGradient>
    <filter
       height="1.0426"
       width="1.0549999"
       y="-0.021303"
       x="-0.027479"
       id="filter1877-5"
       style="color-interpolation-filters:sRGB">
      <feGaussianBlur
         id="feGaussianBlur22"
         stdDeviation="0.072702461" />
    </filter>
    <filter
       height="1.054"
       width="1.054"
       y="-0.027000001"
       x="-0.027000001"
       id="filter861-3"
       style="color-interpolation-filters:sRGB">
      <feGaussianBlur
         id="feGaussianBlur25"
         stdDeviation="0.16371" />
    </filter>
    <linearGradient
       xlink:href="#i"
       gradientUnits="userSpaceOnUse"
       gradientTransform="matrix(0.41967827,0,0,0.41967827,-173.34342,101.83314)"
       y2="517.62"
       y1="545.62"
       x2="400.39999"
       x1="400.39999"
       id="linearGradient1407" />
    <linearGradient
       xlink:href="#f"
       gradientUnits="userSpaceOnUse"
       gradientTransform="matrix(0.43343854,0,0,0.43343854,-193.0938,100.37311)"
       y2="517.62"
       y1="545.62"
       x2="400.39999"
       x1="400.39999"
       id="linearGradient1409" />
    <linearGradient
       inkscape:collect="always"
       xlink:href="#i"
       id="linearGradient1030"
       gradientUnits="userSpaceOnUse"
       gradientTransform="matrix(0.41967827,0,0,0.41967827,-173.34342,101.83314)"
       x1="400.39999"
       y1="545.62"
       x2="400.39999"
       y2="517.62" />
    <linearGradient
       inkscape:collect="always"
       xlink:href="#f"
       id="linearGradient1032"
       gradientUnits="userSpaceOnUse"
       gradientTransform="matrix(0.43343854,0,0,0.43343854,-193.0938,100.37311)"
       x1="400.39999"
       y1="545.62"
       x2="400.39999"
       y2="517.62" />
    <linearGradient
       gradientUnits="userSpaceOnUse"
       gradientTransform="matrix(0.96155894,0,0,0.96155894,-65.276341,278.375)"
       y2="14.704"
       y1="13.177"
       x2="82.141"
       x1="80.368"
       id="linearGradient938">
      <stop
         id="stop936"
         offset="0"
         stop-color="#fafafa" />
      <stop
         id="stop938"
         offset="1"
         stop-color="#90a0b3" />
    </linearGradient>
    <filter
       color-interpolation-filters="sRGB"
       height="1.1131"
       width="1.1278"
       y="-.056531"
       x="-.063923"
       id="filter1066">
      <feGaussianBlur
         id="feGaussianBlur941"
         stdDeviation="0.22705935" />
    </filter>
    <filter
       color-interpolation-filters="sRGB"
       height="1.237"
       width="1.2439"
       y="-.11848"
       x="-.12197"
       id="filter1100">
      <feGaussianBlur
         id="feGaussianBlur944"
         stdDeviation="0.47586465" />
    </filter>
    <linearGradient
       gradientUnits="userSpaceOnUse"
       gradientTransform="matrix(0.96155894,0,0,0.96155894,-66.747971,277.1188)"
       y2="14.704"
       y1="13.177"
       x2="82.141"
       x1="80.368"
       id="linearGradient938-5">
      <stop
         id="stop1040"
         offset="0"
         stop-color="#fafafa" />
      <stop
         id="stop1042"
         offset="1"
         stop-color="#90a0b3" />
    </linearGradient>
    <filter
       color-interpolation-filters="sRGB"
       height="1.1131"
       width="1.1278"
       y="-.056531"
       x="-.063923"
       id="filter1066-6">
      <feGaussianBlur
         id="feGaussianBlur1045"
         stdDeviation="0.22705935" />
    </filter>
    <filter
       color-interpolation-filters="sRGB"
       height="1.237"
       width="1.2439"
       y="-.11848"
       x="-.12197"
       id="filter1100-2">
      <feGaussianBlur
         id="feGaussianBlur1048"
         stdDeviation="0.47586465" />
    </filter>
  </defs>
  <sodipodi:namedview
     id="base"
     pagecolor="#ffffff"
     bordercolor="#666666"
     borderopacity="1.0"
     inkscape:pageopacity="0.0"
     inkscape:pageshadow="2"
     inkscape:zoom="3.3796875"
     inkscape:cx="-16.844432"
     inkscape:cy="54.799673"
     inkscape:document-units="mm"
     inkscape:current-layer="layer1"
     showgrid="true"
     inkscape:window-width="1920"
     inkscape:window-height="936"
     inkscape:window-x="0"
     inkscape:window-y="36"
     inkscape:window-maximized="1"
     units="px"
     inkscape:document-rotation="0"
     inkscape:snap-nodes="false">
    <inkscape:grid
       type="xygrid"
       id="grid1624" />
  </sodipodi:namedview>
  <metadata
     id="metadata877">
    <rdf:RDF>
      <cc:Work
         rdf:about="">
        <dc:format>image/svg+xml</dc:format>
        <dc:type
           rdf:resource="http://purl.org/dc/dcmitype/StillImage" />
        <dc:title></dc:title>
      </cc:Work>
    </rdf:RDF>
  </metadata>
  <g
     inkscape:label="Layer 1"
     inkscape:groupmode="layer"
     id="layer1"
     transform="translate(0,-280.06665)">
    <g
       style="fill:#5e4aa6;stroke-width:0.26458001"
       transform="matrix(1.0000197,0,0,1.0000197,-21.83443,280.96362)"
       id="g42">
      <circle
         cx="-330.35001"
         cy="-328.38"
         r="0"
         id="circle34" />
      <circle
         cx="-312.10999"
         cy="-326.25"
         r="0"
         id="circle36" />
      <circle
         cx="-306.01999"
         cy="-333.07001"
         r="0"
         id="circle38" />
      <circle
         cx="-308.84"
         cy="-326.01001"
         r="0"
         id="circle40" />
    </g>
    <circle
       style="fill:url(#linearGradient1030);stroke-width:0.26458523;image-rendering:optimizeSpeed"
       cx="-5.2347035"
       cy="325.02353"
       r="0"
       id="circle44" />
    <circle
       style="fill:none;stroke:url(#linearGradient1032);stroke-width:0.56348109;image-rendering:optimizeSpeed"
       cx="-19.466383"
       cy="330.88565"
       r="0"
       id="circle46" />
    <g
       style="fill:#5e4aa6;stroke-width:0.26458001"
       transform="matrix(1.0000197,0,0,1.0000197,-21.83443,280.96362)"
       id="g56">
      <circle
         cx="-330.35001"
         cy="-328.38"
         r="0"
         id="circle48" />
      <circle
         cx="-312.10999"
         cy="-326.25"
         r="0"
         id="circle50" />
      <circle
         cx="-306.01999"
         cy="-333.07001"
         r="0"
         id="circle52" />
      <circle
         cx="-308.84"
         cy="-326.01001"
         r="0"
         id="circle54" />
    </g>
    <circle
       style="fill:url(#linearGradient1407);stroke-width:0.26458523;image-rendering:optimizeSpeed"
       cx="-5.2347035"
       cy="325.02353"
       r="0"
       id="circle58" />
    <circle
       style="fill:none;stroke:url(#linearGradient1409);stroke-width:0.56348109;image-rendering:optimizeSpeed"
       cx="-19.466383"
       cy="330.88565"
       r="0"
       id="circle60" />
    <circle
       r="7.9375"
       cy="288.53333"
       cx="8.4666662"
       id="path900"
       style="fill:#000000;fill-opacity:1;stroke:#a6b0b3;stroke-width:0.372856;stroke-opacity:1" />
    <circle
       style="fill:#282828;fill-opacity:1;stroke:none;stroke-width:0.310713;stroke-opacity:1"
       id="circle941"
       cx="8.4666662"
       cy="288.53333"
       r="6.6145835" />
    <path
       d="m 8.4806192,281.91903 a 6.6145835,6.6145835 0 0 0 -0.044958,10e-4 l -0.013953,13.2271 a 6.6145835,6.6145835 0 0 0 0.048576,5.1e-4 l 0.013953,-13.22865 a 6.6145835,6.6145835 0 0 0 -0.00362,0 z m 1.3931966,0.13901 -0.013436,12.95373 a 6.6145835,6.6145835 0 0 0 0.048576,-0.01 l 0.013436,-12.93307 a 6.6145835,6.6145835 0 0 0 -0.048576,-0.0108 z m -2.8132648,0.0253 a 6.6145835,6.6145835 0 0 0 -0.048576,0.0114 l -0.013436,12.87467 a 6.6145835,6.6145835 0 0 0 0.048576,0.0114 z m 4.256588,0.45372 -0.0124,11.99875 a 6.6145835,6.6145835 0 0 0 0.04858,-0.0227 l 0.0124,-11.95276 a 6.6145835,6.6145835 0 0 0 -0.04858,-0.0233 z m -5.690609,0.0512 a 6.6145835,6.6145835 0 0 0 -0.048576,0.0238 l -0.012402,11.83701 a 6.6145835,6.6145835 0 0 0 0.048576,0.0243 z m 7.102925,0.83871 -0.01085,10.2216 a 6.6145835,6.6145835 0 0 0 0.04909,-0.0398 l 0.0098,-10.14098 a 6.6145835,6.6145835 0 0 0 -0.04806,-0.0408 z m -8.5415969,0.11266 a 6.6145835,6.6145835 0 0 0 -0.048576,0.0429 l -0.010335,9.89345 a 6.6145835,6.6145835 0 0 0 0.048576,0.0424 z m 9.9730349,1.53169 -0.0072,6.93704 a 6.6145835,6.6145835 0 0 0 0.04858,-0.0801 l 0.0072,-6.77633 a 6.6145835,6.6145835 0 0 0 -0.04857,-0.0806 z m -11.3817345,0.18655 a 6.6145835,6.6145835 0 0 0 -0.048576,0.0863 l -0.00672,6.36653 a 6.6145835,6.6145835 0 0 0 0.048059,0.0868 z"
       style="color:#000000;font-style:normal;font-variant:normal;font-weight:normal;font-stretch:normal;font-size:medium;line-height:normal;font-family:sans-serif;font-variant-ligatures:normal;font-variant-position:normal;font-variant-caps:normal;font-variant-numeric:normal;font-variant-alternates:normal;font-variant-east-asian:normal;font-feature-settings:normal;font-variation-settings:normal;text-indent:0;text-align:start;text-decoration:none;text-decoration-line:none;text-decoration-style:solid;text-decoration-color:#000000;letter-spacing:normal;word-spacing:normal;text-transform:none;writing-mode:lr-tb;direction:ltr;text-orientation:mixed;dominant-baseline:auto;baseline-shift:baseline;text-anchor:start;white-space:normal;shape-padding:0;shape-margin:0;inline-size:0;clip-rule:nonzero;display:inline;overflow:visible;visibility:visible;opacity:1;isolation:auto;mix-blend-mode:normal;color-interpolation:sRGB;color-interpolation-filters:linearRGB;solid-color:#000000;solid-opacity:1;vector-effect:none;fill:#42d2b2;fill-opacity:1;fill-rule:nonzero;stroke:none;stroke-width:0.0485598;stroke-linecap:butt;stroke-linejoin:miter;stroke-miterlimit:4;stroke-dasharray:none;stroke-dashoffset:0;stroke-opacity:1;color-rendering:auto;image-rendering:auto;shape-rendering:auto;text-rendering:auto;enable-background:accumulate;stop-color:#000000;stop-opacity:1"
       id="path1105" />
    <path
       d="m 3.436493,284.22556 a 6.6145835,6.6145835 0 0 0 -0.038241,0.0455 h 10.136849 a 6.6145835,6.6145835 0 0 0 -0.03876,-0.0455 z m -0.9306925,1.42834 a 6.6145835,6.6145835 0 0 0 -0.021704,0.0455 H 14.449257 a 6.6145835,6.6145835 0 0 0 -0.0217,-0.0455 z m -0.495577,1.43092 a 6.6145835,6.6145835 0 0 0 -0.00982,0.0455 H 14.933463 a 6.6145835,6.6145835 0 0 0 -0.01033,-0.0455 z m -0.1581299,1.42523 a 6.6145835,6.6145835 0 0 0 0,0.0109 6.6145835,6.6145835 0 0 0 0,0.0346 H 15.080743 a 6.6145835,6.6145835 0 0 0 5.17e-4,-0.0346 6.6145835,6.6145835 0 0 0 0,-0.0109 z m 0.153479,1.42731 a 6.6145835,6.6145835 0 0 0 0.010335,0.0455 H 14.917446 a 6.6145835,6.6145835 0 0 0 0.0098,-0.0455 z m 0.4893758,1.42782 a 6.6145835,6.6145835 0 0 0 0.022221,0.0455 H 14.416701 a 6.6145835,6.6145835 0 0 0 0.0217,-0.0455 z m 0.9244914,1.4304 a 6.6145835,6.6145835 0 0 0 0.038757,0.0455 H 13.475157 a 6.6145835,6.6145835 0 0 0 0.03876,-0.0455 z"
       style="color:#000000;font-style:normal;font-variant:normal;font-weight:normal;font-stretch:normal;font-size:medium;line-height:normal;font-family:sans-serif;font-variant-ligatures:normal;font-variant-position:normal;font-variant-caps:normal;font-variant-numeric:normal;font-variant-alternates:normal;font-variant-east-asian:normal;font-feature-settings:normal;font-variation-settings:normal;text-indent:0;text-align:start;text-decoration:none;text-decoration-line:none;text-decoration-style:solid;text-decoration-color:#000000;letter-spacing:normal;word-spacing:normal;text-transform:none;writing-mode:lr-tb;direction:ltr;text-orientation:mixed;dominant-baseline:auto;baseline-shift:baseline;text-anchor:start;white-space:normal;shape-padding:0;shape-margin:0;inline-size:0;clip-rule:nonzero;display:inline;overflow:visible;visibility:visible;opacity:1;isolation:auto;mix-blend-mode:normal;color-interpolation:sRGB;color-interpolation-filters:linearRGB;solid-color:#000000;solid-opacity:1;vector-effect:none;fill:#42d2b2;fill-opacity:1;fill-rule:nonzero;stroke:none;stroke-width:0.0455824;stroke-linecap:butt;stroke-linejoin:miter;stroke-miterlimit:4;stroke-dasharray:none;stroke-dashoffset:0;stroke-opacity:1;color-rendering:auto;image-rendering:auto;shape-rendering:auto;text-rendering:auto;enable-background:accumulate;stop-color:#000000;stop-opacity:1"
       id="path1113" />
    <path
       inkscape:connector-curvature="0"
       d="m 7.8527373,285.63326 c -0.02576,0.004 -0.04638,0.0373 -0.0737,0.10903 -0.05282,0.13867 -0.06497,0.33826 -0.134313,2.20053 -0.0366,0.98288 -0.116317,1.86365 -0.184953,2.04382 -0.08884,0.23325 -0.236935,0.16029 -0.60913,-0.29982 -0.191541,-0.23679 -0.408362,-0.47776 -0.481896,-0.5355 -0.126549,-0.0993 -0.14088,-0.10013 -0.269352,-0.0162 -0.07466,0.0488 -0.171969,0.17639 -0.216173,0.2835 -0.114148,0.27666 -0.270543,0.4265 -0.488066,0.46721 -0.103625,0.0194 -0.638185,0.005 -1.187767,-0.0331 l -0.953809,-0.0652 c 1.59e-4,0.0532 3.87e-4,0.1064 3.52e-4,0.1596 l 0.499865,0.0433 c 0.299587,0.0261 0.832757,0.0475 1.184862,0.0475 0.746643,0 0.874362,-0.0524 1.040204,-0.42662 0.05656,-0.12761 0.126348,-0.24646 0.155006,-0.26413 0.110065,-0.0678 0.262591,0.0448 0.575551,0.42535 0.17844,0.217 0.383369,0.43315 0.455396,0.48026 0.17529,0.11463 0.341136,0.055 0.428353,-0.15381 0.08876,-0.21255 0.176914,-1.10106 0.213811,-2.15613 0.03189,-0.9118 0.05949,-1.12445 0.131409,-1.00833 0.04156,0.0671 0.08255,0.44292 0.133044,1.22046 0.01041,0.16044 0.05729,0.72128 0.104184,1.24637 0.157418,1.76272 0.213936,2.07748 0.364461,2.02769 0.07927,-0.0262 0.183885,-0.46328 0.19058,-0.79618 0.0028,-0.13951 0.03988,-0.33634 0.08222,-0.43749 0.08746,-0.20895 0.129883,-0.21695 0.646521,-0.12193 0.469085,0.0862 0.5686877,0.0319 0.7701247,-0.42028 0.270513,-0.60715 0.280702,-0.62195 0.436882,-0.64003 0.121743,-0.0141 0.194228,0.0358 0.422542,0.29167 0.838342,0.93916 0.933708,0.97676 1.388513,0.54744 0.154522,-0.14585 0.303823,-0.2652 0.331972,-0.2652 0.02816,0 0.177342,0.1073 0.331429,0.23858 0.228947,0.19505 0.318302,0.23876 0.489155,0.23876 h 0.04974 v -0.15906 h -0.01778 c -0.13206,0 -0.246673,-0.06 -0.456484,-0.23876 -0.377034,-0.32121 -0.501934,-0.31723 -0.819131,0.0264 -0.358475,0.3884 -0.375633,0.38254 -1.045105,-0.36285 -0.687721,-0.76571 -0.846807,-0.75604 -1.168529,0.0712 -0.06807,0.17502 -0.1796057,0.37675 -0.2477527,0.44835 -0.119802,0.12589 -0.1341,0.12809 -0.433797,0.0663 -0.453597,-0.0935 -0.628485,-0.0814 -0.752701,0.0515 -0.05927,0.0635 -0.121569,0.15892 -0.138488,0.21212 -0.039,0.12259 -0.114166,0.1246 -0.15083,0.004 -0.04248,-0.13977 -0.132111,-0.93612 -0.162629,-1.44546 -0.03872,-0.64623 -0.234539,-2.70489 -0.273527,-2.87569 -0.01812,-0.0793 -0.0657,-0.17147 -0.105818,-0.2047 -0.02166,-0.018 -0.03901,-0.0268 -0.05445,-0.0246 z"
       style="opacity:0.25;fill:#000000;fill-opacity:1;stroke-width:0.41877"
       id="path1217" />
    <path
       id="path1056"
       style="fill:#00e6b5;fill-opacity:1;stroke-width:0.41877"
       d="m 7.8527373,285.63321 c -0.02576,0.004 -0.04638,0.0373 -0.0737,0.10905 -0.05282,0.13864 -0.06497,0.33825 -0.134313,2.20052 -0.0366,0.98288 -0.116317,1.86363 -0.184953,2.0438 -0.08884,0.23326 -0.236935,0.1603 -0.60913,-0.29979 -0.191541,-0.2368 -0.408362,-0.47777 -0.481896,-0.53551 -0.126549,-0.0993 -0.14088,-0.10013 -0.269352,-0.0162 -0.07466,0.0488 -0.171969,0.17638 -0.216173,0.2835 -0.114148,0.27663 -0.270543,0.42649 -0.488066,0.46721 -0.103625,0.0193 -0.638185,0.005 -1.187767,-0.0331 l -0.953809,-0.0652 c 1.59e-4,0.0532 3.87e-4,0.1064 3.52e-4,0.15959 l 0.499865,0.0433 c 0.299587,0.0261 0.832757,0.0475 1.184862,0.0475 0.746643,0 0.874362,-0.0524 1.040204,-0.42663 0.05656,-0.1276 0.126348,-0.24645 0.155006,-0.26412 0.110065,-0.0678 0.262591,0.0448 0.575551,0.42535 0.17844,0.217 0.383369,0.43315 0.455396,0.48025 0.17529,0.11465 0.341136,0.055 0.428353,-0.1538 0.08876,-0.21256 0.176914,-1.10106 0.213811,-2.15613 0.03189,-0.91181 0.05949,-1.12446 0.131409,-1.00834 0.04156,0.0671 0.08255,0.44292 0.133044,1.22047 0.01041,0.16044 0.05729,0.72127 0.104184,1.24636 0.157418,1.76273 0.213936,2.07748 0.364461,2.02769 0.07927,-0.0262 0.183885,-0.46327 0.19058,-0.79617 0.0028,-0.13951 0.03988,-0.33633 0.08222,-0.43751 0.08746,-0.20892 0.129883,-0.21693 0.646521,-0.12192 0.469085,0.0862 0.5686877,0.0319 0.7701247,-0.42028 0.270513,-0.60714 0.280702,-0.62195 0.436882,-0.64003 0.121743,-0.0141 0.194228,0.0358 0.422542,0.29166 0.838342,0.93916 0.933708,0.97678 1.388513,0.54746 0.154522,-0.14585 0.303823,-0.26522 0.331972,-0.26522 0.02816,0 0.177342,0.10732 0.331429,0.2386 0.228947,0.19504 0.318302,0.23875 0.489155,0.23875 h 0.04974 v -0.15906 h -0.01778 c -0.13206,0 -0.246673,-0.0601 -0.456484,-0.23876 -0.377034,-0.32121 -0.501934,-0.31722 -0.819131,0.0264 -0.358475,0.38841 -0.375633,0.38255 -1.045105,-0.36285 -0.687721,-0.76572 -0.846807,-0.75603 -1.168529,0.0712 -0.06807,0.17503 -0.1796057,0.37675 -0.2477527,0.44835 -0.119802,0.1259 -0.1341,0.1281 -0.433797,0.0663 -0.453597,-0.0935 -0.628485,-0.0814 -0.752701,0.0516 -0.05927,0.0635 -0.121569,0.15893 -0.138488,0.21212 -0.039,0.1226 -0.114166,0.12461 -0.15083,0.004 -0.04248,-0.13976 -0.132111,-0.93611 -0.162629,-1.44545 -0.03872,-0.64623 -0.234539,-2.70489 -0.273527,-2.87569 -0.01812,-0.0793 -0.0657,-0.17146 -0.105818,-0.2047 -0.02166,-0.018 -0.03901,-0.0268 -0.05445,-0.0246 z"
       inkscape:connector-curvature="0" />
  </g>
</svg>
