<?xml version="1.0" encoding="UTF-8"?>
<svg width="64" height="64" version="1.1" viewBox="0 0 16.933 16.933" xmlns="http://www.w3.org/2000/svg" xmlns:cc="http://creativecommons.org/ns#" xmlns:dc="http://purl.org/dc/elements/1.1/" xmlns:rdf="http://www.w3.org/1999/02/22-rdf-syntax-ns#" xmlns:xlink="http://www.w3.org/1999/xlink">
 <defs>
  <linearGradient id="a-8" x1="400.57" x2="400.57" y1="545.8" y2="517.8" gradientTransform="matrix(.56702 0 0 .56702 -216.3 -291.34)" gradientUnits="userSpaceOnUse">
   <stop stop-color="#efd033" offset="0"/>
   <stop stop-color="#ff6b3e" offset="1"/>
  </linearGradient>
  <filter id="d-7" x="-.083001" y="-.046981" width="1.166" height="1.094" color-interpolation-filters="sRGB">
   <feGaussianBlur stdDeviation="0.93963163"/>
  </filter>
  <radialGradient id="SVGID_1_" cx="488.23" cy="963.87" r="81.495" gradientTransform="matrix(.013168 -.00086455 .0004292 .0065372 3.6651 10.208)" gradientUnits="userSpaceOnUse">
   <stop stop-color="#727375" offset=".3169"/>
   <stop stop-color="#727375" offset=".5207"/>
   <stop stop-color="#747576" offset=".724"/>
   <stop stop-color="#7B7C7B" offset=".7973"/>
   <stop stop-color="#868784" offset=".8495"/>
   <stop stop-color="#979890" offset=".8917"/>
   <stop stop-color="#ADAEA0" offset=".9274"/>
   <stop stop-color="#B2B3A4" offset=".934"/>
   <stop stop-color="#B0B1A3" offset=".9736"/>
   <stop stop-color="#9DA5B0" offset="1"/>
  </radialGradient>
  <radialGradient id="SVGID_2_" cx="530.28" cy="942.51" r="82.471" gradientTransform="matrix(-.012966 .0024544 -.0017537 -.0092635 19.59 23.234)" gradientUnits="userSpaceOnUse">
   <stop stop-color="#727375" stop-opacity="0" offset=".5207"/>
   <stop stop-color="#747576" stop-opacity=".1968" offset=".724"/>
   <stop stop-color="#7B7C7B" stop-opacity=".2676" offset=".7973"/>
   <stop stop-color="#868784" stop-opacity=".3182" offset=".8495"/>
   <stop stop-color="#979890" stop-opacity=".359" offset=".8917"/>
   <stop stop-color="#ADAEA0" stop-opacity=".3936" offset=".9274"/>
   <stop stop-color="#B2B3A4" stop-opacity=".4" offset=".934"/>
   <stop stop-color="#B0B1A3" stop-opacity=".6" offset=".9736"/>
   <stop stop-color="#B2B3A4" offset="1"/>
  </radialGradient>
  <radialGradient id="SVGID_3_" cx="552.17" cy="970.28" r="30.148" gradientTransform="matrix(-.011675 .0061492 -.0026866 -.0051002 20.405 17.724)" gradientUnits="userSpaceOnUse">
   <stop stop-color="#8B8986" offset="0"/>
   <stop stop-color="#8B8986" stop-opacity="0" offset=".7171"/>
  </radialGradient>
  <radialGradient id="SVGID_4_" cx="512.87" cy="954.24" r="28.923" gradientTransform="matrix(.0002604 .013193 -.029509 .00058239 38.857 8.6371)" gradientUnits="userSpaceOnUse">
   <stop stop-opacity=".4" offset="0"/>
   <stop stop-color="#131313" stop-opacity=".3164" offset=".209"/>
   <stop stop-color="#434445" stop-opacity=".1474" offset=".6314"/>
   <stop stop-color="#727375" stop-opacity="0" offset="1"/>
  </radialGradient>
  <linearGradient id="SVGID_5_" x1="511.5" x2="511.5" y1="47.659" y2="493.14" gradientTransform="matrix(.013196 0 0 .013196 4.0649 3.3673)" gradientUnits="userSpaceOnUse">
   <stop stop-color="#FFFB6C" offset="0"/>
   <stop stop-color="#FEF669" offset=".2225"/>
   <stop stop-color="#FAE761" offset=".4924"/>
   <stop stop-color="#F3CF53" offset=".7858"/>
   <stop stop-color="#EDB847" offset="1"/>
  </linearGradient>
  <radialGradient id="SVGID_6_" cx="511.5" cy="297.18" r="244.56" gradientTransform="matrix(.013196 0 0 .013196 4.0649 3.3673)" gradientUnits="userSpaceOnUse">
   <stop stop-color="#FFFEF8" offset="0"/>
   <stop stop-color="#FFFDE5" offset=".1681"/>
   <stop stop-color="#FEF9B5" offset=".5059"/>
   <stop stop-color="#FEF9B0" offset=".5418"/>
   <stop stop-color="#FEF8AE" offset=".7222"/>
   <stop stop-color="#FEF6A6" offset=".8138"/>
   <stop stop-color="#FDF299" offset=".8853"/>
   <stop stop-color="#FCEC86" offset=".9461"/>
   <stop stop-color="#FBE56E" offset="1"/>
  </radialGradient>
  <linearGradient id="SVGID_7_" x1="511.5" x2="511.5" y1="489.54" y2="452.53" gradientTransform="matrix(.013196 0 0 .013196 4.0649 3.3673)" gradientUnits="userSpaceOnUse">
   <stop stop-color="#FCE46E" stop-opacity=".6" offset="0"/>
   <stop stop-color="#FBE56E" stop-opacity="0" offset="1"/>
  </linearGradient>
  <linearGradient id="SVGID_8_" x1="398.74" x2="617.05" y1="897.5" y2="897.5" gradientTransform="matrix(.013196 0 0 .013196 4.0649 3.3673)" gradientUnits="userSpaceOnUse">
   <stop stop-color="#999795" offset="0"/>
   <stop stop-color="#9B9A98" offset=".149"/>
   <stop stop-color="#A3A2A1" offset=".2567"/>
   <stop stop-color="#B1B1B1" offset=".351"/>
   <stop stop-color="#C0C2C3" offset=".4239"/>
   <stop stop-color="#C0C2C3" offset=".5097"/>
   <stop stop-color="#C0C2C3" offset=".5936"/>
   <stop stop-color="#AEAFAE" offset=".7272"/>
   <stop stop-color="#9F9D9C" offset=".8871"/>
   <stop stop-color="#999795" offset="1"/>
  </linearGradient>
  <linearGradient id="SVGID_9_" x1="589.66" x2="550.74" y1="930.65" y2="940.95" gradientTransform="matrix(.013196 0 0 .013196 4.0649 3.3673)" gradientUnits="userSpaceOnUse">
   <stop stop-color="#A4A197" offset=".2835"/>
   <stop stop-color="#A9A7A3" stop-opacity=".4259" offset=".8697"/>
   <stop stop-color="#AAA8A6" stop-opacity=".3141" offset=".984"/>
   <stop stop-color="#AAA8A6" stop-opacity=".3" offset="1"/>
  </linearGradient>
  <linearGradient id="SVGID_10_" x1="429.24" x2="481.42" y1="934.46" y2="937.38" gradientTransform="matrix(.013196 0 0 .013196 4.0649 3.3673)" gradientUnits="userSpaceOnUse">
   <stop stop-color="#A4A197" offset=".055878"/>
   <stop stop-color="#AAA8A6" stop-opacity=".3" offset="1"/>
  </linearGradient>
  <linearGradient id="SVGID_11_" x1="562.24" x2="599.68" y1="964.24" y2="927.03" gradientTransform="matrix(.013196 0 0 .013196 4.0649 3.3673)" gradientUnits="userSpaceOnUse">
   <stop stop-color="#FEFEFE" stop-opacity="0" offset=".055878"/>
   <stop stop-color="#CCD5E0" stop-opacity=".3988" offset=".4324"/>
   <stop stop-color="#A1B1C5" stop-opacity=".7976" offset=".8089"/>
   <stop stop-color="#90A3BB" offset="1"/>
  </linearGradient>
  <linearGradient id="SVGID_12_" x1="622.96" x2="544.4" y1="839.91" y2="869.03" gradientTransform="matrix(.013196 0 0 .013196 4.0649 3.3673)" gradientUnits="userSpaceOnUse">
   <stop stop-color="#95AAC3" offset="0"/>
   <stop stop-color="#BFDAE6" offset=".369"/>
   <stop stop-color="#D0DEE4" stop-opacity=".9118" offset=".4537"/>
   <stop stop-color="#DAE0E3" stop-opacity=".8115" offset=".55"/>
   <stop stop-color="#DEE1E3" stop-opacity=".7" offset=".657"/>
   <stop stop-color="#E0E2E3" stop-opacity="0" offset="1"/>
  </linearGradient>
  <linearGradient id="SVGID_13_" x1="398.32" x2="592.72" y1="914.36" y2="914.36" gradientTransform="matrix(.013196 0 0 .013196 4.0649 3.3673)" gradientUnits="userSpaceOnUse">
   <stop stop-color="#90A3BB" offset="0"/>
   <stop stop-color="#92A6BD" offset=".069455"/>
   <stop stop-color="#9AAFC4" offset=".1196"/>
   <stop stop-color="#A7BFCF" offset=".1638"/>
   <stop stop-color="#B9D5DF" offset=".2042"/>
   <stop stop-color="#D1F2F4" offset=".2421"/>
   <stop stop-color="#D2F3F5" offset=".2436"/>
   <stop stop-color="#D8F4F6" offset=".3049"/>
   <stop stop-color="#E8F9FA" offset=".3848"/>
   <stop stop-color="#FEFEFE" offset=".46"/>
   <stop stop-color="#FEFEFE" stop-opacity="0" offset=".9441"/>
  </linearGradient>
  <linearGradient id="SVGID_14_" x1="433.25" x2="592.42" y1="951.5" y2="951.5" gradientTransform="matrix(.013196 0 0 .013196 4.0649 3.3673)" gradientUnits="userSpaceOnUse">
   <stop stop-color="#FEFEFE" stop-opacity="0" offset=".03638"/>
   <stop stop-color="#FEFEFE" offset=".46"/>
   <stop stop-color="#FEFEFE" stop-opacity="0" offset=".9441"/>
  </linearGradient>
  <linearGradient id="SVGID_15_" x1="400.28" x2="456.82" y1="850.45" y2="863.8" gradientTransform="matrix(.013196 0 0 .013196 4.0649 3.3673)" gradientUnits="userSpaceOnUse">
   <stop stop-color="#93A6BB" offset="0"/>
   <stop stop-color="#A2B7C8" offset=".3687"/>
   <stop stop-color="#ABC0CF" offset=".6895"/>
   <stop stop-color="#AEC2CF" stop-opacity=".9771" offset=".7051"/>
   <stop stop-color="#C0CBCE" stop-opacity=".8153" offset=".8153"/>
   <stop stop-color="#C7CFCE" stop-opacity=".7" offset=".8937"/>
   <stop stop-color="#C8CFCE" stop-opacity=".6607" offset=".902"/>
   <stop stop-color="#CDD2CE" stop-opacity=".2" offset=".9992"/>
  </linearGradient>
  <linearGradient id="SVGID_16_" x1="436.23" x2="547.22" y1="879.82" y2="879.82" gradientTransform="matrix(.013196 0 0 .013196 4.0649 3.3673)" gradientUnits="userSpaceOnUse">
   <stop stop-color="#484A4C" offset="0"/>
   <stop stop-color="#484A4C" stop-opacity="0" offset="1"/>
  </linearGradient>
  <linearGradient id="SVGID_17_" x1="585.22" x2="434.68" y1="863.53" y2="876.3" gradientTransform="matrix(.013196 0 0 .013196 4.0649 3.3673)" gradientUnits="userSpaceOnUse">
   <stop stop-color="#484A4C" offset="0"/>
   <stop stop-color="#484A4C" stop-opacity="0" offset="1"/>
  </linearGradient>
  <linearGradient id="SVGID_18_" x1="453.76" x2="583.72" y1="901.12" y2="901.12" gradientTransform="matrix(.013196 0 0 .013196 4.0649 3.3673)" gradientUnits="userSpaceOnUse">
   <stop stop-color="#484A4C" stop-opacity="0" offset="0"/>
   <stop stop-color="#484A4C" offset="1"/>
  </linearGradient>
  <linearGradient id="SVGID_19_" x1="618.62" x2="540.56" y1="900.35" y2="921.85" gradientTransform="matrix(.013196 0 0 .013196 4.0649 3.3673)" gradientUnits="userSpaceOnUse">
   <stop stop-color="#90A3BB" offset="0"/>
   <stop stop-color="#99AEC3" offset=".078475"/>
   <stop stop-color="#B0CAD7" offset=".2149"/>
   <stop stop-color="#D2F3F5" offset=".3737"/>
   <stop stop-color="#D2F3F5" stop-opacity="0" offset="1"/>
  </linearGradient>
  <linearGradient id="SVGID_20_" x1="398.06" x2="625.53" y1="879.07" y2="879.07" gradientTransform="matrix(.013196 0 0 .013196 4.0649 3.3673)" gradientUnits="userSpaceOnUse">
   <stop stop-color="#9CB1C7" offset="0"/>
   <stop stop-color="#A0B6CB" offset=".022397"/>
   <stop stop-color="#ADC5D7" offset=".049301"/>
   <stop stop-color="#C2DDEA" offset=".078411"/>
   <stop stop-color="#C9E5F1" offset=".086583"/>
   <stop stop-color="#C9E5F1" offset=".235"/>
   <stop stop-color="#D9EBF3" offset=".2857"/>
   <stop stop-color="#E9F1F5" offset=".357"/>
   <stop stop-color="#F2F5F6" offset=".4388"/>
   <stop stop-color="#F5F6F6" offset=".554"/>
   <stop stop-color="#E9F1F5" offset=".6039"/>
   <stop stop-color="#D2E8F2" offset=".7198"/>
   <stop stop-color="#C9E5F1" offset=".7924"/>
   <stop stop-color="#9CB1C7" offset="1"/>
  </linearGradient>
  <linearGradient id="SVGID_21_" x1="405.23" x2="621.77" y1="846.51" y2="846.51" gradientTransform="matrix(.013196 0 0 .013196 4.0649 3.3673)" gradientUnits="userSpaceOnUse">
   <stop stop-color="#fff" stop-opacity="0" offset="0"/>
   <stop stop-color="#E3E4E4" stop-opacity=".032447" offset=".0050673"/>
   <stop stop-color="#BFC0C0" stop-opacity=".082893" offset=".012946"/>
   <stop stop-color="#9FA0A1" stop-opacity=".1396" offset=".021803"/>
   <stop stop-color="#838586" stop-opacity=".2023" offset=".031597"/>
   <stop stop-color="#6D6F71" stop-opacity=".2732" offset=".042661"/>
   <stop stop-color="#5C5E60" stop-opacity=".3559" offset=".055582"/>
   <stop stop-color="#515354" stop-opacity=".4582" offset=".071559"/>
   <stop stop-color="#4A4C4E" stop-opacity=".6017" offset=".093966"/>
   <stop stop-color="#484A4C" offset=".1562"/>
   <stop stop-color="#484A4C" offset=".205"/>
   <stop stop-color="#484A4C" offset=".5013"/>
   <stop stop-color="#484A4C" offset=".8051"/>
   <stop stop-color="#4A4C4E" stop-opacity=".6017" offset=".8827"/>
   <stop stop-color="#515354" stop-opacity=".4582" offset=".9107"/>
   <stop stop-color="#5C5E60" stop-opacity=".3559" offset=".9306"/>
   <stop stop-color="#6D6F71" stop-opacity=".2732" offset=".9468"/>
   <stop stop-color="#838586" stop-opacity=".2023" offset=".9606"/>
   <stop stop-color="#9FA0A1" stop-opacity=".1396" offset=".9728"/>
   <stop stop-color="#BFC0C0" stop-opacity=".082893" offset=".9838"/>
   <stop stop-color="#E3E4E4" stop-opacity=".032447" offset=".9937"/>
   <stop stop-color="#fff" stop-opacity="0" offset="1"/>
  </linearGradient>
  <linearGradient id="SVGID_22_" x1="511.5" x2="511.5" y1="513.84" y2="840.48" gradientTransform="matrix(.013196 0 0 .013196 4.0649 3.3673)" gradientUnits="userSpaceOnUse">
   <stop stop-color="#DFE0E4" offset="0"/>
   <stop stop-color="#DFE0E4" offset=".111"/>
   <stop stop-color="#E7E8EC" offset=".2268"/>
   <stop stop-color="#F0F0F4" offset=".4419"/>
   <stop stop-color="#F2F2F6" offset=".8147"/>
  </linearGradient>
  <radialGradient id="SVGID_23_" cx="507.95" cy="842.89" r="421.87" gradientTransform="matrix(-2.1782e-5 -.013196 .007515 -1.2404e-5 4.4446 21.203)" gradientUnits="userSpaceOnUse">
   <stop stop-color="#F3F3F7" stop-opacity=".03" offset="0"/>
   <stop stop-color="#D7D8DC" offset="1"/>
  </radialGradient>
  <linearGradient id="SVGID_24_" x1="720.02" x2="641.86" y1="651.21" y2="644.02" gradientTransform="matrix(.013196 0 0 .013196 4.0649 3.3673)" gradientUnits="userSpaceOnUse">
   <stop stop-color="#D0D4DB" offset=".1621"/>
   <stop stop-color="#D0D4DB" stop-opacity=".026117" offset=".9781"/>
   <stop stop-color="#D0D4DB" stop-opacity="0" offset="1"/>
  </linearGradient>
  <linearGradient id="SVGID_25_" x1="667.84" x2="629.79" y1="532.05" y2="811.87" gradientTransform="matrix(.013196 0 0 .013196 4.0649 3.3673)" gradientUnits="userSpaceOnUse">
   <stop stop-color="#DFE1E6" stop-opacity=".7" offset="0"/>
   <stop stop-color="#DFE1E6" stop-opacity="0" offset="1"/>
  </linearGradient>
  <radialGradient id="SVGID_26_" cx="492.52" cy="497.59" r="115.96" gradientTransform="matrix(6.2208e-5 .013196 -.11534 .00054376 67.929 3.1638)" gradientUnits="userSpaceOnUse">
   <stop stop-color="#FDFEFF" offset="0"/>
   <stop stop-color="#FDFEFF" offset=".05886"/>
   <stop stop-color="#FDFEFF" offset=".068549"/>
   <stop stop-color="#FBFCFD" stop-opacity=".8912" offset=".1357"/>
   <stop stop-color="#F4F5F7" stop-opacity=".8491" offset=".1616"/>
   <stop stop-color="#E8E9EB" stop-opacity=".8187" offset=".1804"/>
   <stop stop-color="#DCDDE0" stop-opacity=".8" offset=".192"/>
   <stop stop-color="#DDDEE1" stop-opacity="0" offset=".2951"/>
   <stop stop-color="#DFE0E4" stop-opacity="0" offset="1"/>
  </radialGradient>
  <linearGradient id="SVGID_27_" x1="348.4" x2="357.68" y1="636.25" y2="635.09" gradientTransform="matrix(.013196 0 0 .013196 4.0649 3.3673)" gradientUnits="userSpaceOnUse">
   <stop stop-color="#DDE9F3" stop-opacity=".6" offset="0"/>
   <stop stop-color="#DDE9F3" stop-opacity=".5857" offset=".019282"/>
   <stop stop-color="#DDE9F3" stop-opacity=".5" offset=".1348"/>
  </linearGradient>
 </defs>
 <metadata>
  <rdf:RDF>
   <cc:Work rdf:about="">
    <dc:format>image/svg+xml</dc:format>
    <dc:type rdf:resource="http://purl.org/dc/dcmitype/StillImage"/>
    <dc:title/>
   </cc:Work>
  </rdf:RDF>
 </metadata>
 <g transform="translate(-2.3577 -1.723)">
  <rect x="2.8863" y="2.2515" width="15.876" height="15.876" ry="7.9381" fill="url(#a-8)" stroke-width=".38345"/>
  <path transform="matrix(.26459 0 0 .26459 2.3476 1.71)" d="m32.001 7.9997c-7.5058 0-13.586 6.0851-13.586 13.586 0 3.3116 1.1863 6.3491 3.1562 8.7031 2.57e-4 -1.71e-4 -2.35e-4 0.0021 0 2e-3 -0.17533 0.1239-0.4556 0.42449 0.10547 0.83594 0.74809 0.5486 3.5412 12.118 2.6934 14.512 0.74809 0.39898 1.4961 1.5957 1.4961 1.5957s0.14885 0.09947-0.15039 0.19922c-0.13174 0.04391 0.22916 0.26395 1.0254 0.49414-1e-4 5e-6 -0.02344 0-0.02344 0s-0.967 0.66887 0.11523 1.5117c-1.0972 0.75807 0 1.5859 0 1.5859s-1.2873 1.0223 0.35352 1.7754c1.0972 1.2618 1.7773 1.1465 1.7773 1.1465s0.02794 0.0092 0.0293 0.0098c-0.0031 3.42e-4 -0.06055 0.0059-0.06055 0.0059s0.16453 2.1199 2.6133 2.0352c2.4488-0.08478 3.002-0.88281 3.002-0.88281s0.41092-0.50133 0.33008-1.1133c0.0751-0.01932 0.14264-0.02777 0.21875-0.04883 1.9151-0.55858 1.8164-1.7656 1.8164-1.7656s1.3352-0.64426 0.4375-1.916c0.76804-0.9426 0-1.6348 0-1.6348s0.44458-0.44498 0.33984-0.83398c-4.47e-4 -0.0017-0.0089-0.0023-0.0098-0.0039 0.49864-0.1772 0.70989-0.32978 0.60352-0.36523-0.29924-0.09975-0.15039-0.19922-0.15039-0.19922s0.748-1.1967 1.4961-1.5957c-0.84784-2.3939 1.9453-13.963 2.6934-14.512 0.56107-0.41145 0.2808-0.71204 0.10547-0.83594 2.35e-4 1.13e-4 -2.57e-4 -0.0021 0-2e-3 1.97-2.359 3.1562-5.3916 3.1562-8.7031 3.7e-5 -7.5009-6.0781-13.586-13.584-13.586z" filter="url(#d-7)" opacity=".25" stroke-width=".1287"/>
  <g stroke-width=".034053">
   <path class="st0" d="m10.003 15.988s0.04354 0.56082 0.69146 0.53839c0.64791-0.02243 0.79439-0.23356 0.79439-0.23356s0.11612-0.13855 0.08709-0.30615c-0.02903-0.16758-1.5729 0.0013-1.5729 0.0013z" fill="url(#SVGID_1_)"/>
   <path class="st1" d="m10.003 15.988s0.04354 0.56082 0.69146 0.53839c0.64791-0.02243 0.79439-0.23356 0.79439-0.23356s0.11612-0.13855 0.08709-0.30615c-0.02903-0.16758-1.5729 0.0013-1.5729 0.0013z" fill="url(#SVGID_2_)"/>
   <path class="st2" d="m10.003 15.988s0.04354 0.56082 0.69146 0.53839c0.64791-0.02243 0.79439-0.23356 0.79439-0.23356s0.11612-0.13855 0.08709-0.30615c-0.02903-0.16758-1.5729 0.0013-1.5729 0.0013z" fill="url(#SVGID_3_)"/>
   <path class="st3" d="m10.003 15.988s0.04354 0.56082 0.69146 0.53839c0.64791-0.02243 0.79439-0.23356 0.79439-0.23356s0.11612-0.13855 0.08709-0.30615c-0.02903-0.16758-1.5729 0.0013-1.5729 0.0013z" fill="url(#SVGID_4_)"/>
   <path class="st6" d="m10.815 10.091c2.8899 0.02639 2.7435-0.3774 2.7593-0.36685 0.52123-0.62416 0.8353-1.4264 0.8353-2.3026 0-1.9846-1.6085-3.5946-3.5946-3.5946-1.9859 0-3.5946 1.6099-3.5946 3.5946 0 0.87621 0.31406 1.6798 0.8353 2.3026 0.015835-0.01056-0.13064 0.39324 2.7593 0.36685z" fill="url(#SVGID_5_)"/>
   <path class="st7" d="m10.815 9.9577c2.7672 0.02507 2.626-0.36157 2.6405-0.35101 0.4988-0.59645 0.79966-1.3657 0.79966-2.205 0-1.9002-1.5399-3.4402-3.4402-3.4402-1.9002 0-3.4402 1.5399-3.4402 3.4402 0 0.83926 0.30087 1.6072 0.79967 2.205 0.014515-0.01056-0.12668 0.37608 2.6405 0.35101z" fill="url(#SVGID_6_)"/>
   <path class="st8" d="m10.815 9.9577c2.7672 0.02507 2.626-0.36157 2.6405-0.35101 0.4988-0.59645 0.79966-1.3657 0.79966-2.205 0-1.9002-1.5399-3.4402-3.4402-3.4402-1.9002 0-3.4402 1.5399-3.4402 3.4402 0 0.83926 0.30087 1.6072 0.79967 2.205 0.014515-0.01056-0.12668 0.37608 2.6405 0.35101z" fill="url(#SVGID_7_)"/>
   <path class="st9" d="m9.4171 14.391s-0.256 0.17682 0.030351 0.39983c-0.29031 0.20057 0 0.41963 0 0.41963s-0.34046 0.27052 0.09369 0.46977c0.29031 0.33386 0.46977 0.30351 0.46977 0.30351s0.65979 0.26788 1.6231 0.0013c0.50672-0.14779 0.48033-0.46713 0.48033-0.46713s0.35365-0.17022 0.11612-0.50672c0.20321-0.2494 0-0.43282 0-0.43282s0.11744-0.11744 0.08973-0.22037c-0.02771-0.10424-2.9031 0.03299-2.9031 0.03299z" fill="url(#SVGID_8_)"/>
   <path class="st10" d="m11.985 15.558s-0.36157 0.17286-0.62548 0.18342c-0.26524 0.0092 0.11084 0.03431 0.11084 0.03431s0.51464-0.07258 0.51464-0.14383z" fill="url(#SVGID_9_)"/>
   <path class="st11" d="m9.5557 15.621s0.31802 0.13723 0.78516 0.13196c0.46713-0.0053-0.19793 0.09633-0.72181-0.02375-0.19397-0.13856-0.06334-0.1082-0.06334-0.1082z" fill="url(#SVGID_10_)"/>
   <path class="st12" d="m11.925 15.452s-0.02771 0.36421-0.34573 0.48957c-0.31802 0.12536 0.14251 0.0541 0.29162-0.05806 0.1148-0.0739 0.2362-0.18078 0.2428-0.35233 0.0066-0.17154-0.1887-0.07917-0.1887-0.07917z" fill="url(#SVGID_11_)"/>
   <path class="st13" d="m11.256 14.791c0.36949 0.01716 0.63076-0.11348 0.65187-0.12668-0.1346 0.13591-0.52387 0.2362-0.52387 0.2362s0.60833-0.0475 0.83662-0.29691c0.1082-0.12536 0.12404-0.23488 0.08445-0.26656-0.15835-0.12668-1.2285 0.40379-1.049 0.45394z" fill="url(#SVGID_12_)"/>
   <path class="st14" d="m9.6744 15.114s0.11612 0.0066 0.10952 0.07126c-0.0066 0.06466-0.20585 0.03299-0.20585 0.03299s0.14911 0.15967 0.1821 0.21641c0.03299 0.05674 0.79175 0.19793 1.1124 0.15307 0.31934-0.04354 0.8221-0.08577 0.88412-0.15175 0.0607-0.06598 0.26524 0.06598-0.0079 0.08049-0.27316 0.01583-1.1955 0.2494-1.7339 0.13987-0.53839-0.10952-0.39192 0.11612-0.39192 0.11612s-0.038268-0.05278-0.081815-0.09501c-0.3022-0.1346-0.25073-0.33254-0.093706-0.46977 0.12272-0.18606 0.22696-0.09369 0.22696-0.09369z" fill="url(#SVGID_13_)"/>
   <path class="st15" d="m9.8064 15.844s0.29823 0.23356 0.9976 0.20057c0.69937-0.03431 0.87489-0.12668 1.0108-0.25864 0.13592-0.13196 0.05806 0.1016-0.17286 0.17814-0.23092 0.07653-0.51464 0.14515-0.85905 0.13591-0.34441-0.0092-0.97385-0.13196-0.99497-0.20321-0.021114-0.07126 0.018473-0.05278 0.018473-0.05278z" fill="url(#SVGID_14_)"/>
   <path class="st16" d="m9.5451 14.431s-0.14647 0.10688 0.060701 0.16362c0.20717 0.05674 0.51068 0.07258 0.51068 0.07258s0.05806 0.06598-0.03563 0.05542c-0.093691-0.01188-0.47769-0.04618-0.47769-0.04618s-0.13591 0-0.019793 0.0739c0.11612 0.0739 0.18738 0.12272 0.18738 0.12272s0.064659 0.07917-0.03299 0.03959c-0.097649-0.03959-0.18606-0.06334-0.34441-0.1689-0.084454-0.10556-0.14515-0.19266 0.022434-0.35365 0.12272-0.01451 0.12932 0.04091 0.12932 0.04091z" fill="url(#SVGID_15_)"/>
   <path class="st17" d="m9.8209 14.939s0.34573 0.15043 1.4647 0.03431c-0.69674 0.04354-1.4647-0.03431-1.4647-0.03431z" fill="url(#SVGID_16_)" opacity=".5"/>
   <path class="st18" d="m10.318 14.848s1.2166 0.03035 1.5887-0.18474c-0.45526 0.40643-1.5887 0.18474-1.5887 0.18474z" fill="url(#SVGID_17_)" opacity=".5"/>
   <path class="st19" d="m11.768 15.159s-0.93163 0.19398-1.7154 0.08973c0.0013 0.0013 0.72709 0.29559 1.7154-0.08973z" fill="url(#SVGID_18_)" opacity=".5"/>
   <path class="st20" d="m11.934 15.128s0.03827 0.09897-0.12008 0.13723c-0.15835 0.03827-0.24676 0.12008-0.30087 0.12008-0.05542 0-0.37872 0.08181-0.37872 0.08181s-0.12008 0.07126 0.08181 0.08181c0.20321 0.01056 0.72181-0.08181 0.72181-0.08181s0.10029 0.02375 0.02903 0.08313c-0.07126 0.05938 0.22828-0.03167 0.29031-0.16494 0.09765-0.10425 0.05014-0.26656-0.02771-0.37476-0.07653-0.02771-0.29558 0.11744-0.29558 0.11744z" fill="url(#SVGID_19_)"/>
   <path class="st21" d="m9.4461 14.792s0.21113 0.11612 0.23884 0.14911c0.027712 0.03299 0.054103 0.07521 0.043546 0.10556-0.010557 0.03035 0.59117 0.1214 0.86829 0.11216 0.27712-0.0092 1.1031-0.17022 1.1163-0.19266 0.01319-0.02243-0.08313-0.04618-0.01847-0.07785s0.47901-0.17418 0.53575-0.31143c0.07258 0.06862 0.15835 0.24676 0 0.43283-0.01847 0.01188-0.30218 0.19661-0.59909 0.2362l0.36157-0.1755s-1.1256 0.12932-1.7247 0.10688c-0.59909-0.02243-0.74952-0.14911-0.73104 0.0066 0.15439 0.08181 0.25204 0.17286 0.25204 0.17286s-0.24676-0.03959-0.32726-0.12932c-0.10293-0.09897-0.25732-0.2692-0.015835-0.43546z" fill="url(#SVGID_20_)"/>
   <path class="st22" d="m12.27 14.362s-0.20585 0.35497-1.6059 0.34969c-1.4-0.0053-1.247-0.29823-1.247-0.29823z" fill="url(#SVGID_21_)"/>
   <path class="st23" d="m13.546 9.7077s0.15835 0.40907-2.7316 0.38268c-2.8899 0.02639-2.7316-0.38268-2.7316-0.38268s-0.19793 0.092372 0 0.23752c0.19793 0.14515 0.93691 3.2066 0.71257 3.84 0.19793 0.10556 0.39588 0.42227 0.39588 0.42227s0.039588 0.02639-0.039588 0.05278c-0.079175 0.02639 0.47505 0.2903 1.6626 0.2903 1.1876 0 1.7418-0.26392 1.6626-0.2903-0.07917-0.02639-0.03959-0.05278-0.03959-0.05278s0.19793-0.3167 0.39588-0.42227c-0.22432-0.6334 0.51464-3.6949 0.71257-3.84 0.19793-0.14515 0-0.23752 0-0.23752z" fill="url(#SVGID_22_)"/>
   <path class="st24" d="m13.546 9.7077s0.15835 0.40907-2.7316 0.38268c-2.8899 0.02639-2.7316-0.38268-2.7316-0.38268s-0.19793 0.092372 0 0.23752c0.19793 0.14515 0.93691 3.2066 0.71257 3.84 0.19793 0.10556 0.39588 0.42227 0.39588 0.42227s0.039588 0.02639-0.039588 0.05278c-0.079175 0.02639 0.47505 0.2903 1.6626 0.2903 1.1876 0 1.7418-0.26392 1.6626-0.2903-0.07917-0.02639-0.03959-0.05278-0.03959-0.05278s0.19793-0.3167 0.39588-0.42227c-0.22432-0.6334 0.51464-3.6949 0.71257-3.84 0.19793-0.14515 0-0.23752 0-0.23752z" fill="url(#SVGID_23_)"/>
   <path class="st25" d="m13.095 9.9517s-0.94878 3.5246-0.59249 4.1607c0.09633-0.09501 0.19793-0.27316 0.33122-0.32858-0.15175-0.81287 0.38268-3.2396 0.71257-3.84 0.01056-0.042231 0.08841-0.046181 0.08841-0.12668 0.0132-0.054101-0.08841-0.11084-0.08841-0.11084s0.02771 0.084452-0.15835 0.15571c-0.15307 0.071261-0.29294 0.089732-0.29294 0.089732z" fill="url(#SVGID_24_)"/>
   <path class="st26" d="m12.987 9.9867s-1.0464 3.2211-0.50804 4.22l0.06862-0.08709c-0.35629-0.87621 0.58853-4.1659 0.58853-4.1659z" fill="url(#SVGID_25_)"/>
   <path class="st27" d="m13.546 9.7077s0.15835 0.40907-2.7316 0.38268c-2.8899 0.02639-2.7316-0.38268-2.7316-0.38268s-0.19793 0.092372 0 0.23752c0.031671 0.02375 0.19002 0.51859 0.24544 0.6743 0.64791 0.27448 1.9899 0.14911 4.6251-0.38268 0.2362-0.0475 0.3365-0.23356 0.59381-0.29163 0.19661-0.14515-0.0013-0.23752-0.0013-0.23752z" fill="url(#SVGID_26_)"/>
   <path class="st28" d="m8.083 9.7077s-0.19793 0.092372 0 0.23752c0.19793 0.14515 0.93691 3.2066 0.71257 3.84 0.035629 0.01979 0.072577 0.04487 0.10688 0.07522 0 0 0-0.0013 0.00132-0.0013 0.27184-0.73632-0.55818-3.8202-0.65847-3.8822-0.071257-0.043541-0.09501-0.12536-0.10424-0.17022-0.073896-0.056741-0.058061-0.098972-0.058062-0.098972z" fill="url(#SVGID_27_)"/>
  </g>
 </g>
</svg>
