<?xml version="1.0" encoding="UTF-8"?>
<svg width="64" height="64" version="1.1" viewBox="0 0 16.933 16.933" xmlns="http://www.w3.org/2000/svg" xmlns:xlink="http://www.w3.org/1999/xlink">
 <defs>
  <linearGradient id="linearGradient122580" x1="-253" x2="-198" y1="58.33" y2="58.33" gradientTransform="matrix(.17924 -.048026 .048026 .17924 44.669 -12.232)" gradientUnits="userSpaceOnUse">
   <stop stop-color="#ddd" offset="0"/>
   <stop stop-color="#ebebeb" offset=".03522"/>
   <stop stop-color="#d5d5d5" offset=".054766"/>
   <stop stop-color="#f0f0f0" offset=".33059"/>
   <stop stop-color="#f0f0f0" offset=".50575"/>
   <stop stop-color="#f0f0f0" offset=".71508"/>
   <stop stop-color="#d3d3d3" offset=".94353"/>
   <stop stop-color="#ebebeb" offset=".96526"/>
   <stop stop-color="#e1e1e1" offset="1"/>
  </linearGradient>
  <linearGradient id="linearGradient158037" x1="-252.13" x2="-198.87" y1="33.15" y2="33.15" gradientTransform="matrix(.17924 -.048026 .048026 .17924 44.669 -12.232)" gradientUnits="userSpaceOnUse">
   <stop stop-color="#189df7" offset="0"/>
   <stop stop-color="#189bf7" offset=".060278"/>
   <stop stop-color="#0587e4" offset=".10041"/>
   <stop stop-color="#1cadfa" offset=".31932"/>
   <stop stop-color="#1eaefb" offset=".50599"/>
   <stop stop-color="#1dacfa" offset=".69492"/>
   <stop stop-color="#068ee7" offset=".90466"/>
   <stop stop-color="#1ba1f9" offset=".9339"/>
   <stop stop-color="#169cf5" offset="1"/>
  </linearGradient>
  <linearGradient id="linearGradient3986" x1="-59.557" x2="-59.557" y1="15.884" y2="18.79" gradientTransform="matrix(.67741 -.18151 .18151 .67741 44.669 -12.232)" gradientUnits="userSpaceOnUse">
   <stop stop-color="#dfdfdf" offset="0"/>
   <stop stop-color="#d2d2d2" offset=".53197"/>
   <stop stop-color="#cacaca" offset="1"/>
  </linearGradient>
  <linearGradient id="linearGradient12298" x1="-58.757" x2="-58.757" y1="16.466" y2="18.206" gradientTransform="matrix(.67741 -.18151 .17914 .66857 44.708 -12.086)" gradientUnits="userSpaceOnUse">
   <stop stop-color="#c8c8c8" offset="0"/>
   <stop stop-color="#b8b8b8" offset="1"/>
  </linearGradient>
  <linearGradient id="linearGradient988" x1="-61.911" x2="-61.911" y1="14.023" y2="15.081" gradientTransform="matrix(.70131 0 0 .70131 43.459 1.7315)" gradientUnits="userSpaceOnUse" xlink:href="#linearGradient24279"/>
  <linearGradient id="linearGradient24279">
   <stop stop-color="#0d0d0d" offset="0"/>
   <stop stop-color="#414141" offset="1"/>
  </linearGradient>
  <linearGradient id="linearGradient990" x1="-61.911" x2="-61.911" y1="14.023" y2="15.081" gradientTransform="matrix(.70131 0 0 .70131 43.832 1.7581)" gradientUnits="userSpaceOnUse" xlink:href="#linearGradient24279"/>
  <linearGradient id="linearGradient992" x1="-61.911" x2="-61.911" y1="14.023" y2="15.081" gradientTransform="matrix(.70131 0 0 .70131 44.206 1.7848)" gradientUnits="userSpaceOnUse" xlink:href="#linearGradient24279"/>
  <linearGradient id="linearGradient994" x1="-61.911" x2="-61.911" y1="14.023" y2="15.081" gradientTransform="matrix(.70131 0 0 .70131 44.579 1.8113)" gradientUnits="userSpaceOnUse" xlink:href="#linearGradient24279"/>
  <linearGradient id="linearGradient24281" x1="-61.911" x2="-61.911" y1="14.023" y2="15.081" gradientTransform="matrix(.70131 0 0 .70131 44.953 1.8379)" gradientUnits="userSpaceOnUse" xlink:href="#linearGradient24279"/>
  <linearGradient id="linearGradient45238" x1="-55.576" x2="-55.576" y1="13.942" y2="14.996" gradientTransform="matrix(.70131 0 0 .70131 47.115 1.7479)" gradientUnits="userSpaceOnUse">
   <stop stop-color="#070509" offset="0"/>
   <stop stop-color="#8e8e8e" offset="1"/>
  </linearGradient>
  <linearGradient id="linearGradient59949" x1="-55.566" x2="-55.566" y1="13.99" y2="14.865" gradientTransform="matrix(.70131 0 0 .70131 47.115 1.7479)" gradientUnits="userSpaceOnUse">
   <stop stop-color="#276000" offset="0"/>
   <stop stop-color="#90b800" offset="1"/>
  </linearGradient>
  <linearGradient id="linearGradient69044" x1="-55.566" x2="-55.566" y1="13.99" y2="14.865" gradientTransform="matrix(.58011 0 0 .58011 40.379 3.5424)" gradientUnits="userSpaceOnUse">
   <stop stop-color="#cef59a" offset="0"/>
   <stop stop-color="#91ba00" offset="1"/>
  </linearGradient>
  <linearGradient id="linearGradient106117" x1="-55.566" x2="-55.566" y1="13.99" y2="14.223" gradientTransform="matrix(.56035 -.15015 .15015 .56035 39.92 -7.0292)" gradientUnits="userSpaceOnUse">
   <stop stop-color="#fff" offset="0"/>
   <stop stop-color="#bee571" offset="1"/>
  </linearGradient>
  <linearGradient id="b-5-6" x1="9.2603" x2="9.2603" y1="-.26249" y2="15.612" gradientTransform="translate(-.79384 .79164)" gradientUnits="userSpaceOnUse">
   <stop stop-color="#1c1d1d" offset="0"/>
   <stop stop-color="#313232" offset="1"/>
  </linearGradient>
 </defs>
 <circle cx="8.4665" cy="8.4665" r="7.9373" fill="url(#b-5-6)" image-rendering="optimizeSpeed" stroke-width=".96298" style="paint-order:stroke markers fill"/>
 <g transform="translate(1.8775 2.1677)">
  <g stroke-width=".71449">
   <path d="m11.585 6.8225c-0.0056-0.00199-0.01119-0.0039-0.01689-0.0056-0.0099-0.00301-0.02002-0.00543-0.03019-0.00766-0.01012-0.00223-0.02041-0.00418-0.03078-0.00564-0.01042-0.00142-0.02076-0.00261-0.03127-0.00325-0.01053-6.67e-4 -0.02109-6.64e-4 -0.03165-5.251e-4 -0.01056 1.486e-4 -0.02123 7.501e-4 -0.03179 0.00177-0.01056 0.00102-0.021 0.00243-0.03149 0.0043-0.01048 0.00187-0.02085 0.00406-0.03118 0.00683l-9.1356 2.4479c-0.010344 0.00277-0.020761 0.00614-0.030774 0.00977-0.010014 0.00363-0.019769 0.00762-0.029421 0.012024-0.00965 0.0044-0.01919 0.00921-0.028416 0.014364-0.00922 0.00515-0.018042 0.010352-0.026802 0.016189-0.00877 0.00584-0.017544 0.012103-0.025794 0.018543-0.00827 0.00643-0.01614 0.013249-0.023836 0.020269-0.00769 7e-3 -0.015235 0.014187-0.022318 0.021735-0.00411 0.00445-0.00781 0.00906-0.011728 0.013649l0.25718 1.5283c0.00708 0.04187 0.020282 0.08083 0.038341 0.11654 0.00724 0.01428 0.015395 0.02794 0.024174 0.04117 0.00438 0.0066 0.00879 0.0133 0.013524 0.01964 0.014185 0.01898 0.030137 0.03663 0.047222 0.053 0.028475 0.02728 0.060528 0.05071 0.095332 0.07013 0.00691 0.0038 0.013868 0.0077 0.021014 0.01126 0.035824 0.01775 0.074285 0.03106 0.1139 0.04001 0.00789 0.0017 0.015789 0.0034 0.023813 0.0049 0.072214 0.0128 0.148 0.01061 0.22156-0.0091l8.9107-2.3876c0.1716-0.045981 0.30702-0.18028 0.35332-0.33929 0.0066-0.022713 0.01158-0.045984 0.0144-0.069514 9.04e-4 -0.00783 0.0017-0.015964 0.0022-0.023853 9.4e-4 -0.015811 8.32e-4 -0.031668-1.3e-5 -0.047647-0.0022-0.039956-0.01029-0.080288-0.02504-0.12011z" fill="url(#linearGradient122580)"/>
   <path d="m11.538 6.6993c-0.01072-0.0033-0.02175-0.00645-0.03277-0.00886-0.01223-0.00268-0.02445-0.0047-0.03693-0.00624-0.01249-0.00152-0.02529-0.00259-0.03794-0.00297-0.01265-3.888e-4 -0.02502-1.176e-4 -0.0377 7.215e-4 -0.0127 7.933e-4 -0.02564 0.00222-0.03826 0.00423-0.0126 0.00207-0.02482 0.00477-0.03722 0.00809l-9.1363 2.4481c-0.012403 0.00332-0.024349 0.00708-0.036285 0.011607-0.011949 0.00451-0.023865 0.00981-0.03525 0.01547-0.01141 0.00559-0.022258 0.011555-0.033016 0.018226-0.010761 0.00666-0.021324 0.013955-0.031373 0.021541-0.010056 0.00756-0.019625 0.015446-0.028869 0.023868-0.00834 0.00761-0.016323 0.015846-0.023948 0.024053l0.021694 0.13001c0.00392-0.00461 0.00758-0.00922 0.011728-0.013648 0.00707-0.00756 0.014616-0.014712 0.022318-0.021735 0.00769-7e-3 0.01558-0.013823 0.023836-0.020269 0.00827-0.00643 0.017027-0.012731 0.0258-0.018544 0.00876-0.00584 0.017578-0.011025 0.026802-0.016189 0.00923-0.00515 0.01877-0.00997 0.028417-0.014364 0.00965-0.0044 0.019401-0.0084 0.029421-0.012025 0.01002-0.00363 0.020429-7e-3 0.030774-0.00977l9.1356-2.4479c0.01035-0.00277 0.0207-0.00497 0.03118-0.00683 0.01049-0.00187 0.02093-0.00329 0.03149-0.0043 0.01056-0.00102 0.02122-0.00162 0.0318-0.00177 0.01056-1.485e-4 0.02115-1.496e-4 0.03165 5.251e-4 0.01053 6.67e-4 0.02089 0.00181 0.03127 0.00325 0.01042 0.00142 0.0206 0.0034 0.03078 0.00564 0.01012 0.00223 0.02029 0.00467 0.03019 0.00766 0.0056 0.00176 0.01133 0.00364 0.01688 0.0056z" fill="#015cbe"/>
   <path d="m1.2269 2.0918c-0.099152 0.02638-0.18046 0.065902-0.2408 0.1193-0.10202 0.072544-0.12879 0.16436-0.12696 0.3019l1.1343 6.7439c0.00761-0.00821 0.015614-0.016461 0.023948-0.024053 0.00925-0.00843 0.018825-0.01629 0.028869-0.023868 0.010056-0.00756 0.020608-0.014891 0.031373-0.021541 0.010761-0.00666 0.021611-0.012613 0.033009-0.018224 0.011392-0.00566 0.023326-0.010899 0.03525-0.015471 0.011956-0.00451 0.023882-0.00828 0.036285-0.011607l9.1362-2.448c0.0124-0.00332 0.02462-0.00604 0.03722-0.00809 0.0126-0.00207 0.02557-0.00344 0.03826-0.00423 0.0127-7.933e-4 0.02505-0.00112 0.0377-7.215e-4 0.01265 3.888e-4 0.02544 0.00142 0.03794 0.00297 0.01249 0.00152 0.02472 0.00356 0.03693 0.00624 0.01102 0.00242 0.02206 0.00556 0.03277 0.00886l-2.3896-6.4075c-0.067196-0.12003-0.13639-0.1865-0.261-0.19833-0.078959-0.016068-0.16905-0.0092957-0.26809 0.017431l-3.6951 0.99648z" fill="url(#linearGradient158037)"/>
  </g>
  <g stroke-linecap="round" stroke-linejoin="round">
   <path d="m2.5632 10.577 9.1403-2.4491c0.19859-0.053212 0.42992 0.0583 0.45452 0.26242l0.15693 1.3026c0.02459 0.20412-0.06382 0.4013-0.26242 0.45452l-8.782 2.3531c-0.19859 0.053212-0.37375-0.073349-0.45452-0.26242l-0.5154-1.2065c-0.080764-0.18907 0.063818-0.4013 0.26242-0.45452z" color="#000000" fill="url(#linearGradient3986)" stroke-width=".037342" style="-inkscape-stroke:none"/>
   <path d="m2.838 10.888 8.782-2.3531c0.09929-0.026606 0.21128 0.029657 0.22726 0.1312l0.14503 0.92163c0.01598 0.10155-0.03191 0.20065-0.1312 0.22725l-8.5936 2.3027c-0.099295 0.026606-0.1905-0.035206-0.22725-0.13121l-0.33363-0.87109c-0.036764-0.09599 0.03191-0.20065 0.13121-0.22725z" color="#000000" fill="#6c6c6c" stroke-width=".028685" style="-inkscape-stroke:none"/>
   <path d="m2.563 10.576c-0.19859 0.05321-0.34318 0.26545-0.26242 0.45452l0.0099 0.02286c-0.0088108-0.15986 0.11867-0.31471 0.28424-0.35907l9.141-2.4493c0.16557-0.044365 0.3534 0.025984 0.4257 0.16884l-0.0029-0.024736c-0.024548-0.20414-0.25588-0.31564-0.45447-0.26243z" color="#000000" fill="#fafafa" stroke-width=".037343" style="-inkscape-stroke:none"/>
   <path d="m2.8761 10.913 8.7244-2.3377c0.09864-0.02643 0.20631 0.00941 0.22293 0.11977l0.12992 0.86273c0.01431 0.095055-0.03453 0.18876-0.13317 0.21519l-8.5374 2.2876c-0.098645 0.026432-0.18797-0.03022-0.22293-0.11977l-0.31727-0.81253c-0.041815-0.10709 0.034538-0.18876 0.13318-0.21518z" color="#000000" fill="url(#linearGradient12298)" stroke-width=".027638" style="-inkscape-stroke:none"/>
   <path d="m2.7 11.088c0.00162 9e-3 0.00388 0.01799 0.00722 0.02696l0.33359 0.8711c0.036766 0.096 0.12796 0.15781 0.22725 0.1312l8.5936-2.3027c0.09929-0.026606 0.14719-0.12571 0.1312-0.22725l-0.1449-0.92166c-0.0016-0.00941-0.0041-0.01833-0.0072-0.026956l0.1449 0.92166c0.01597 0.10155-0.03191 0.20065-0.1312 0.22725l-8.5937 2.3027c-0.099295 0.02661-0.19049-0.03522-0.22725-0.1312z" color="#000000" fill="#f0f0f0" stroke-width=".028685" style="-inkscape-stroke:none"/>
   <g stroke-width=".037111">
    <rect transform="rotate(-19.072)" x="-.14641" y="11.566" width=".18556" height=".74219" ry=".092776" fill="url(#linearGradient988)"/>
    <path d="m3.6682 11.059c6.22e-4 0.0024 0.00112 0.0049 0.00197 0.0073l0.18221 0.52598c0.016795 0.04858 0.069218 0.07415 0.1178 0.05737 0.047516-0.01646 0.073194-0.06706 0.058551-0.11474 0.01 0.04543-0.015349 0.09215-0.060428 0.10774-0.048594 0.01675-0.1011-0.0091-0.11789-0.0577z" fill="#f0f0f0"/>
    <rect transform="rotate(-19.072)" x=".22668" y="11.592" width=".18556" height=".74219" ry=".092776" fill="url(#linearGradient990)"/>
    <path d="m4.0299 10.962c6.22e-4 0.0024 0.00112 0.0049 0.00197 0.0073l0.18221 0.52598c0.016795 0.04858 0.069218 0.07415 0.1178 0.05736 0.047517-0.01646 0.073194-0.06706 0.058551-0.11474 0.01 0.04543-0.015349 0.09215-0.060428 0.10774-0.048594 0.01675-0.1011-0.0091-0.11789-0.0577z" fill="#f0f0f0"/>
    <rect transform="rotate(-19.072)" x=".60048" y="11.619" width=".18556" height=".74219" ry=".092776" fill="url(#linearGradient992)"/>
    <path d="m4.3917 10.866c6.22e-4 0.0024 0.00112 0.0049 0.00197 0.0073l0.18221 0.52598c0.016795 0.04858 0.069218 0.07415 0.1178 0.05737 0.047517-0.01646 0.073194-0.06706 0.058551-0.11474 0.01 0.04543-0.015349 0.09215-0.060428 0.10774-0.048594 0.01675-0.1011-0.0091-0.11789-0.0577z" fill="#f0f0f0"/>
    <rect transform="rotate(-19.072)" x=".97358" y="11.646" width=".18556" height=".74219" ry=".092776" fill="url(#linearGradient994)"/>
    <path d="m4.7527 10.769c6.22e-4 0.0024 0.00112 0.0049 0.00197 0.0073l0.18221 0.52598c0.016795 0.04858 0.069218 0.07415 0.1178 0.05737 0.047517-0.01646 0.073194-0.06706 0.058551-0.11474 0.01 0.04543-0.015349 0.09215-0.060428 0.10774-0.048587 0.01675-0.1011-0.0091-0.11789-0.0577z" fill="#f0f0f0"/>
    <rect transform="rotate(-19.072)" x="1.3474" y="11.672" width=".18556" height=".74219" ry=".092776" fill="url(#linearGradient24281)"/>
    <path d="m5.1145 10.672c6.22e-4 0.0024 0.00112 0.0049 0.00197 0.0073l0.18221 0.52598c0.016795 0.04858 0.069218 0.07415 0.1178 0.05737 0.047517-0.01646 0.073194-0.06706 0.058551-0.11474 0.01 0.04543-0.015349 0.09215-0.060428 0.10774-0.048587 0.01675-0.1011-0.0091-0.11789-0.0577z" fill="#f0f0f0"/>
   </g>
   <circle transform="rotate(-15)" cx="8.1392" cy="11.897" r=".37111" fill="url(#linearGradient45238)" stroke-width=".041779"/>
   <path d="m11.295 9.2708a0.37111 0.37111 45 0 1-0.26524 0.44252 0.37111 0.37111 45 0 1-0.44978-0.24754 0.37111 0.37111 45 0 0 0.0034 0.015606 0.37111 0.37111 45 0 0 0.45452 0.26242 0.37111 0.37111 45 0 0 0.26242-0.45452 0.37111 0.37111 45 0 0-0.0053-0.018459z" fill="#d9d9d9" stroke-width=".04178"/>
   <ellipse transform="rotate(-15)" cx="8.1392" cy="11.872" rx=".33734" ry=".31331" fill="#33323a" stroke-width=".0366"/>
   <ellipse transform="rotate(-15)" cx="8.1392" cy="11.868" rx=".33138" ry=".30778" fill="url(#linearGradient59949)" stroke-width=".035953"/>
   <ellipse transform="rotate(-15)" cx="8.1392" cy="11.913" rx=".27411" ry=".25459" fill="url(#linearGradient69044)" stroke-width=".02974"/>
   <path d="m10.879 9.1548a0.25458 0.27411 75 0 0-0.19872 0.317 0.25458 0.27411 75 0 0 0.01752 0.04559 0.25237 0.27173 75 0 1-0.01163-0.033648 0.25237 0.27173 75 0 1 0.19682-0.31425 0.25237 0.27173 75 0 1 0.32792 0.17364 0.25237 0.27173 75 0 1 0.0062 0.032851 0.25458 0.27411 75 0 0-0.0072-0.046103 0.25458 0.27411 75 0 0-0.33094-0.17508z" fill="url(#linearGradient106117)" stroke-width=".029741"/>
  </g>
  <path d="m2.1799 9.1425c-0.012403 0.00332-0.024349 0.00708-0.036285 0.011607-0.011956 0.00451-0.023865 0.00981-0.03525 0.015471-0.011392 0.00566-0.022258 0.011554-0.033009 0.018224-0.010761 0.00666-0.021324 0.013955-0.031373 0.021541-0.010056 0.00756-0.019625 0.015446-0.028869 0.023868-0.00834 0.00761-0.016323 0.015846-0.023948 0.024053l0.021694 0.13001c0.00133-0.00152 0.00278-0.00292 0.00409-0.00451l-0.01319-0.078636c0.00761-0.00821 0.015617-0.016447 0.023948-0.024053 0.00925-0.00843 0.01882-0.016311 0.028868-0.023868 0.010056-0.00756 0.020611-0.014881 0.031373-0.021541 0.010761-0.00666 0.021629-0.012545 0.033016-0.018226 0.011392-0.00566 0.023308-0.010966 0.03525-0.015471 0.011949-0.00451 0.023882-0.00828 0.036285-0.011607l9.1362-2.448c0.0124-0.00332 0.02462-0.00602 0.03723-0.00809 0.01262-2e-3 0.02559-0.00337 0.03826-0.00423 0.01268-8.609e-4 0.02504-0.00112 0.0377-7.215e-4 0.01265 3.888e-4 0.02545 0.00145 0.03794 0.00297 0.01247 0.00152 0.02471 0.00356 0.03693 0.00624 0.01102 0.00242 0.02206 0.00555 0.03277 0.00886l0.02779 0.07435c0.0019 6.418e-4 0.0038 0.00115 0.0057 0.00189l-0.04614-0.12309c-0.01072-0.0033-0.02175-0.00645-0.03277-0.00886-0.01223-0.00268-0.02445-0.0047-0.03693-0.00624-0.01249-0.00152-0.02529-0.00259-0.03794-0.00297-0.01265-3.887e-4 -0.02502-1.175e-4 -0.0377 7.215e-4 -0.01268 8.61e-4 -0.02565 0.00222-0.03826 0.00423-0.0126 0.00207-0.02482 0.00477-0.03722 0.00809z" fill="#2cabfc" stroke-width=".71449"/>
 </g>
</svg>
