<?xml version="1.0" encoding="UTF-8" standalone="no"?>
<svg
   xmlns:dc="http://purl.org/dc/elements/1.1/"
   xmlns:cc="http://creativecommons.org/ns#"
   xmlns:rdf="http://www.w3.org/1999/02/22-rdf-syntax-ns#"
   xmlns:svg="http://www.w3.org/2000/svg"
   xmlns="http://www.w3.org/2000/svg"
   xmlns:sodipodi="http://sodipodi.sourceforge.net/DTD/sodipodi-0.dtd"
   xmlns:inkscape="http://www.inkscape.org/namespaces/inkscape"
   version="1.1"
   viewBox="0 0 64 64"
   id="svg35"
   sodipodi:docname="teamspeak.svg"
   width="64"
   height="64"
   inkscape:version="1.0 (4035a4fb49, 2020-05-01)">
  <metadata
     id="metadata39">
    <rdf:RDF>
      <cc:Work
         rdf:about="">
        <dc:format>image/svg+xml</dc:format>
        <dc:type
           rdf:resource="http://purl.org/dc/dcmitype/StillImage" />
        <dc:title></dc:title>
      </cc:Work>
    </rdf:RDF>
  </metadata>
  <sodipodi:namedview
     inkscape:document-rotation="0"
     pagecolor="#ffffff"
     bordercolor="#666666"
     borderopacity="1"
     objecttolerance="10"
     gridtolerance="10"
     guidetolerance="10"
     inkscape:pageopacity="0"
     inkscape:pageshadow="2"
     inkscape:window-width="1920"
     inkscape:window-height="1000"
     id="namedview37"
     showgrid="false"
     inkscape:zoom="4.328125"
     inkscape:cx="-31.156316"
     inkscape:cy="20.641322"
     inkscape:window-x="0"
     inkscape:window-y="0"
     inkscape:window-maximized="1"
     inkscape:current-layer="svg35" />
  <defs
     id="defs7">
    <linearGradient
       id="linearGradient3764"
       x1="1"
       x2="47"
       gradientTransform="rotate(-90,68.256517,-39.41379)"
       gradientUnits="userSpaceOnUse">
      <stop
         style="stop-color:#c4ccd2"
         offset="0"
         id="stop2" />
      <stop
         style="stop-color:#cfd6db"
         offset="1"
         id="stop4" />
    </linearGradient>
    <clipPath
       id="clipPath868">
      <rect
         id="rect866"
         height="384"
         width="384"
         x="0"
         y="0" />
    </clipPath>
    <clipPath
       id="clipPath872">
      <rect
         id="rect870"
         height="384"
         width="384"
         x="0"
         y="0" />
    </clipPath>
    <clipPath
       id="clipPath876">
      <rect
         id="rect874"
         height="384"
         width="384"
         x="0"
         y="0" />
    </clipPath>
    <clipPath
       id="clipPath880">
      <rect
         id="rect878"
         height="384"
         width="384"
         x="0"
         y="0" />
    </clipPath>
    <clipPath
       id="clipPath884">
      <rect
         id="rect882"
         height="384"
         width="384"
         x="0"
         y="0" />
    </clipPath>
    <linearGradient
       gradientUnits="userSpaceOnUse"
       gradientTransform="matrix(3.7795642,0,0,3.7795642,-105.85596,46.638249)"
       y2="0.64687002"
       y1="16.296"
       x2="16.388"
       x1="0.73910999"
       id="linearGradient1005-9">
      <stop
         id="stop886"
         offset="0"
         stop-color="#cfdade" />
      <stop
         id="stop888"
         offset="1"
         stop-color="#eaeff2" />
    </linearGradient>
    <clipPath
       id="clipPath13429">
      <path
         id="path891"
         d="m 481,318 h 22 v 22 h -22 z" />
    </clipPath>
    <clipPath
       id="clipPath13465">
      <path
         id="path894"
         d="m 507,318 h 22 v 22 h -22 z" />
    </clipPath>
    <clipPath
       id="clipPath13501">
      <path
         id="path897"
         d="m 530,318 h 22 v 22 h -22 z" />
    </clipPath>
    <clipPath
       id="clipPath13753">
      <path
         id="path900"
         d="m 672,1064 c 0,-1.105 4.925,-2 11,-2 6.075,0 11,0.895 11,2 0,1.105 -4.925,2 -11,2 -6.075,0 -11,-0.895 -11,-2" />
    </clipPath>
    <clipPath
       id="clipPath13771">
      <path
         id="path903"
         d="m 660,1057 h 51 v 65.001 h -51 z" />
    </clipPath>
    <clipPath
       id="clipPath14035">
      <path
         id="path906"
         d="m 659,517 h 53 v 18 h -53 z" />
    </clipPath>
    <clipPath
       id="clipPath14127">
      <path
         id="path909"
         d="m 659,500 h 53 v 18 h -53 z" />
    </clipPath>
    <clipPath
       id="clipPath14445">
      <path
         id="path912"
         d="m 648,112 h 73 v 60 h -73 z" />
    </clipPath>
    <clipPath
       id="clipPath14609">
      <path
         id="path915"
         d="m 826,1056 h 59 v 60 h -59 z" />
    </clipPath>
    <clipPath
       id="clipPath15305">
      <path
         id="path918"
         d="M 805,276 H 905 V 376 H 805 Z" />
    </clipPath>
    <clipPath
       id="clipPath15341">
      <path
         id="path921"
         d="m 145,1063.8 h 74.152 v 45.21 H 145 Z" />
    </clipPath>
    <clipPath
       id="clipPath15715">
      <path
         id="path924"
         d="m 151,667 h 57 v 57 h -57 z" />
    </clipPath>
    <clipPath
       id="clipPath15807">
      <path
         id="path927"
         d="m 154,697 h 51 v 51 h -51 z" />
    </clipPath>
    <clipPath
       id="clipPath16001">
      <path
         id="path930"
         d="m 500.04,864.45 h 36.012 v 67.52 H 500.04 Z" />
    </clipPath>
    <clipPath
       id="clipPath16093">
      <path
         id="path933"
         d="m 836,870.54 h 47 v 55.539 h -47 z" />
    </clipPath>
    <clipPath
       id="clipPath16477">
      <path
         id="path936"
         d="m 318.03,702.35 h 62.848 v 37.991 H 318.03 Z" />
    </clipPath>
    <clipPath
       id="clipPath16579">
      <path
         id="path939"
         d="m 485.03,133.35 h 62.847 v 37.991 H 485.03 Z" />
    </clipPath>
    <clipPath
       id="clipPath16709">
      <path
         id="path942"
         d="m 493.37,677.93 h 45.643 v 68.067 H 493.37 Z" />
    </clipPath>
    <clipPath
       id="clipPath24218">
      <path
         id="path945"
         d="m 144.34,1018.2 h 71.467 v 78 H 144.34 Z" />
    </clipPath>
    <clipPath
       id="clipPath24382">
      <path
         id="path948"
         d="m 293.21,1068.6 66.323,-38.292 36.047,62.435 -66.323,38.292 z" />
    </clipPath>
    <clipPath
       id="clipPath24650">
      <path
         id="path951"
         d="m 488.86,1054.5 h 10 v 10.706 h -10 z" />
    </clipPath>
    <clipPath
       id="clipPath24700">
      <path
         id="path954"
         d="m 508,1066.8 h 10.001 v 10.705 H 508 Z" />
    </clipPath>
    <clipPath
       id="clipPath24750">
      <path
         id="path957"
         d="m 525,1045.8 h 10 v 10.706 h -10 z" />
    </clipPath>
    <clipPath
       id="clipPath24864">
      <path
         id="path960"
         d="m 836,1043.7 h 25.5 v 31.5 H 836 Z" />
    </clipPath>
    <clipPath
       id="clipPath24896">
      <path
         id="path963"
         d="m 838,1062.2 h 24 v 24 h -24 z" />
    </clipPath>
    <clipPath
       id="clipPath25070">
      <path
         id="path966"
         d="m 134,489.24 h 7 v 6 h -7 z" />
    </clipPath>
    <clipPath
       id="clipPath25100">
      <path
         id="path969"
         d="m 216,489.24 h 7 v 6 h -7 z" />
    </clipPath>
    <clipPath
       id="clipPath25502">
      <path
         id="path972"
         d="m 838,477.24 h 22 v 22 h -22 z" />
    </clipPath>
    <clipPath
       id="clipPath25686">
      <path
         id="path975"
         d="m 704,1061.2 h 25 v 25 h -25 z" />
    </clipPath>
    <clipPath
       id="clipPath25788">
      <path
         id="path978"
         d="m 663.04,1078.6 -1.808,-3.514 -21.07,-47.453 c 13.336,-18.439 48.336,-26.938 73.836,-3.439 0.842,0 6.476,6.246 6,7 l -18.386,25.895 c -0.483,0.765 -1.453,0.946 -2.177,0.431 l -15.505,-11.011 c -0.359,-0.255 -0.847,-0.153 -1.07,0.238 l -18.272,31.869 c -0.218,0.384 -0.502,0.578 -0.782,0.578 -0.282,0 -0.561,-0.197 -0.766,-0.594" />
    </clipPath>
    <clipPath
       id="clipPath26420">
      <path
         id="path981"
         d="m 127,820.24 h 100 v 100 H 127 Z" />
    </clipPath>
    <clipPath
       id="clipPath26860">
      <path
         id="path984"
         d="m 809,680.24 c 0,-22.092 17.908,-40 40,-40 22.092,0 40,17.908 40,40 0,22.091 -17.908,40 -40,40 -22.092,0 -40,-17.909 -40,-40" />
    </clipPath>
    <clipPath
       id="clipPath27506">
      <path
         id="path987"
         d="m 658,469.24 h 44 v 45 h -44 z" />
    </clipPath>
    <clipPath
       id="clipPath27772">
      <path
         id="path990"
         d="m 651,271.24 h 58 v 58 h -58 z" />
    </clipPath>
    <clipPath
       id="clipPath27864">
      <path
         id="path993"
         d="m 662,307.24 h 38 v 8 h -38 z" />
    </clipPath>
    <clipPath
       id="clipPath28028">
      <path
         id="path996"
         d="m 858.98,137.24 c 0.013,-0.101 0.021,-0.203 0.021,-0.307 v -6.693 h 15.75 c 1.237,0 2.25,-1.013 2.25,-2.25 v -11.25 l -27,-4.5 -27,4.5 v -2.25 l 27,-4.5 27,4.5 v -27 c 0,-1.237 -1.013,-2.25 -2.25,-2.25 h -49.5 c -1.237,0 -2.25,1.013 -2.25,2.25 v -4.25 h 54 v 54 z m -35.979,0 v -9.25 c 0,1.237 1.013,2.25 2.25,2.25 h 15.75 v 6.693 c 0,0.104 0.007,0.207 0.02,0.307 z m 22.5,-7 h 9 v 4.5 h -9 z m 1.125,-9 c -0.62,0 -1.125,-0.506 -1.125,-1.125 v -2.25 c 0,-0.619 0.505,-1.125 1.125,-1.125 h 6.75 c 0.619,0 1.125,0.506 1.125,1.125 v 2.25 c 0,0.619 -0.506,1.125 -1.125,1.125 z" />
    </clipPath>
    <clipPath
       id="clipPath28200">
      <path
         id="path999"
         d="m 531.27,136.24 c 6.325,-2.29 10.727,-8.277 10.727,-15.484 0,-11.316 -10.2,-20.563 -25.65,-34.575 l -4.35,-3.941 -4.35,3.941 c -15.45,14.012 -25.65,23.259 -25.65,34.575 V 81.24 h 60 v 55 z m -26.983,0 c 2.995,-1.052 5.686,-2.883 7.71,-5.25 2.024,2.367 4.715,4.198 7.71,5.25 z m -22.29,0 v -15.484 c 0,7.207 4.402,13.194 10.727,15.484 z" />
    </clipPath>
    <clipPath
       id="clipPath28364">
      <path
         id="path1002"
         d="m 648,79.241 h 64 v 64 h -64 z" />
    </clipPath>
    <clipPath
       id="clipPath28984">
      <path
         id="path1005"
         d="m 500,691.74 c 0,-3.037 2.463,-5.5 5.5,-5.5 3.037,0 5.5,2.463 5.5,5.5 0,3.037 -2.463,5.5 -5.5,5.5 -3.037,0 -5.5,-2.463 -5.5,-5.5" />
    </clipPath>
    <clipPath
       id="clipPath29012">
      <path
         id="path1008"
         d="m 500,669.74 c 0,-3.037 2.463,-5.5 5.5,-5.5 3.037,0 5.5,2.463 5.5,5.5 0,3.038 -2.463,5.5 -5.5,5.5 -3.037,0 -5.5,-2.462 -5.5,-5.5" />
    </clipPath>
    <clipPath
       id="clipPath29040">
      <path
         id="path1011"
         d="m 494,680.74 c 0,-3.037 2.462,-5.5 5.5,-5.5 3.038,0 5.5,2.463 5.5,5.5 0,3.038 -2.462,5.5 -5.5,5.5 -3.038,0 -5.5,-2.462 -5.5,-5.5" />
    </clipPath>
    <clipPath
       id="clipPath29068">
      <path
         id="path1014"
         d="m 513,691.74 c 0,-3.037 2.463,-5.5 5.5,-5.5 3.037,0 5.5,2.463 5.5,5.5 0,3.037 -2.463,5.5 -5.5,5.5 -3.037,0 -5.5,-2.463 -5.5,-5.5" />
    </clipPath>
    <clipPath
       id="clipPath29096">
      <path
         id="path1017"
         d="m 513,669.74 c 0,-3.037 2.463,-5.5 5.5,-5.5 3.037,0 5.5,2.463 5.5,5.5 0,3.038 -2.463,5.5 -5.5,5.5 -3.037,0 -5.5,-2.462 -5.5,-5.5" />
    </clipPath>
    <clipPath
       id="clipPath29124">
      <path
         id="path1020"
         d="m 507,680.74 c 0,-3.037 2.463,-5.5 5.5,-5.5 3.037,0 5.5,2.463 5.5,5.5 0,3.038 -2.463,5.5 -5.5,5.5 -3.037,0 -5.5,-2.462 -5.5,-5.5" />
    </clipPath>
    <clipPath
       id="clipPath29152">
      <path
         id="path1023"
         d="m 520,680.74 c 0,-3.037 2.463,-5.5 5.5,-5.5 3.037,0 5.5,2.463 5.5,5.5 0,3.038 -2.463,5.5 -5.5,5.5 -3.037,0 -5.5,-2.462 -5.5,-5.5" />
    </clipPath>
    <clipPath
       id="clipPath29252">
      <path
         id="path1026"
         d="m 321,322.24 c -4.97,0 -9,-4.029 -9,-9 0,-4.97 4.03,-9 9,-9 h 45 c 4.971,0 9,4.03 9,9 0,4.971 -4.029,9 -9,9 z" />
    </clipPath>
    <clipPath
       id="clipPath29280">
      <path
         id="path1029"
         d="m 322,297.24 c -4.971,0 -9,-4.029 -9,-9 0,-4.97 4.029,-9 9,-9 h 45 c 4.971,0 9,4.03 9,9 0,4.971 -4.029,9 -9,9 z" />
    </clipPath>
    <clipPath
       id="clipPath29400">
      <path
         id="path1032"
         d="m 155,83.24 h 44 v 53 h -44 z" />
    </clipPath>
    <style
       id="style1035"
       type="text/css" />
    <linearGradient
       gradientUnits="userSpaceOnUse"
       gradientTransform="translate(-28.579,31.757)"
       y2="-33.216999"
       y1="-19.208"
       x2="11.614"
       x1="15.415"
       id="linearGradient2791">
      <stop
         id="stop1037"
         offset="0"
         stop-color="#343839" />
      <stop
         id="stop1039"
         offset="1"
         stop-color="#74858a" />
    </linearGradient>
    <linearGradient
       gradientUnits="userSpaceOnUse"
       gradientTransform="translate(14.22,29.157)"
       y2="-21.174999"
       y1="-18.114"
       x2="-35.658001"
       x1="-35.658001"
       id="linearGradient2793">
      <stop
         id="stop1042"
         offset="0"
         stop-color="#c3caca" />
      <stop
         id="stop1044"
         offset="1"
         stop-color="#d0dadd" />
    </linearGradient>
    <linearGradient
       id="b"
       x1="10.973"
       x2="36.937"
       y1="24"
       y2="24"
       gradientTransform="matrix(1.502,0,0,1.5037,-3.9827,-3.342)"
       gradientUnits="userSpaceOnUse">
      <stop
         stop-color="#2a2c2f"
         offset="0"
         id="stop2-36" />
      <stop
         stop-color="#424649"
         offset="1"
         id="stop4-75" />
    </linearGradient>
    <linearGradient
       id="a"
       x1="319.21"
       x2="657.65"
       y1="235.15"
       y2="269.49"
       gradientTransform="matrix(0.13235,0,0,0.13075,-32.379,1.0873)"
       gradientUnits="userSpaceOnUse">
      <stop
         stop-color="#e54c18"
         offset="0"
         id="stop7" />
      <stop
         stop-color="#fec350"
         offset="1"
         id="stop9" />
    </linearGradient>
    <filter
       id="c"
       x="-.099574"
       y="-.11801"
       width="1.1991"
       height="1.236"
       color-interpolation-filters="sRGB">
      <feGaussianBlur
         stdDeviation="1.9913168"
         id="feGaussianBlur12" />
    </filter>
    <linearGradient
       id="linearGradient862-3"
       x1="7.9373"
       x2="7.9373"
       y1="15.081"
       y2="1.852"
       gradientTransform="matrix(3.7795 0 0 3.7795 .00014309 .031541)"
       gradientUnits="userSpaceOnUse">
      <stop
         stop-color="#f1efeb"
         offset="0"
         id="stop15" />
      <stop
         stop-color="#fdfcfc"
         offset="1"
         id="stop17" />
    </linearGradient>
    <linearGradient
       id="linearGradient862-3-36"
       x1="7.9373"
       x2="7.9373"
       y1="15.081"
       y2="1.852"
       gradientTransform="scale(3.7796)"
       gradientUnits="userSpaceOnUse">
      <stop
         stop-color="#1560ff"
         offset="0"
         id="stop2-7" />
      <stop
         stop-color="#15afff"
         offset="1"
         id="stop4-5" />
    </linearGradient>
    <linearGradient
       id="e"
       x1="540"
       x2="540"
       y1="4"
       y2="1024"
       gradientTransform="matrix(0.063557,0,0,0.063557,94.615,19.296)"
       gradientUnits="userSpaceOnUse">
      <stop
         stop-color="#c8c4b7"
         offset="0"
         id="stop2-3" />
      <stop
         stop-color="#888"
         offset="1"
         id="stop4-6" />
    </linearGradient>
    <linearGradient
       id="g"
       x1="500"
       x2="500"
       y1="4"
       y2="1024"
       gradientTransform="matrix(0.063762,0,0,0.063762,94.514,19.784)"
       gradientUnits="userSpaceOnUse">
      <stop
         stop-color="#fff"
         offset="0"
         id="stop7-35" />
      <stop
         stop-color="#e6e6e6"
         offset="1"
         id="stop9-6" />
    </linearGradient>
    <linearGradient
       id="h"
       x1="555.95"
       x2="555.95"
       y1="2.8539"
       y2="932.3"
       gradientTransform="matrix(0.063762,0,0,0.063762,94.514,19.784)"
       gradientUnits="userSpaceOnUse">
      <stop
         offset="0"
         id="stop12" />
      <stop
         stop-color="#666"
         offset="1"
         id="stop14" />
    </linearGradient>
    <linearGradient
       id="linearGradient862-3-7"
       x1="7.9373"
       x2="7.9373"
       y1="15.081"
       y2="1.852"
       gradientTransform="matrix(3.7796,0,0,3.7796,0,-5.9484605)"
       gradientUnits="userSpaceOnUse">
      <stop
         stop-color="#1560ff"
         offset="0"
         id="stop17-2" />
      <stop
         stop-color="#15afff"
         offset="1"
         id="stop19" />
    </linearGradient>
    <linearGradient
       id="linearGradient862-3-3"
       x1="7.9373"
       x2="7.9373"
       y1="15.081"
       y2="1.852"
       gradientTransform="matrix(3.7796,0,0,3.7796,0.26679227,3.6354286)"
       gradientUnits="userSpaceOnUse">
      <stop
         stop-color="#1560ff"
         offset="0"
         id="stop2-6" />
      <stop
         stop-color="#15afff"
         offset="1"
         id="stop4-7" />
    </linearGradient>
    <linearGradient
       id="linearGradient1007"
       x1="46"
       x2="46"
       y1="60"
       y2="30"
       gradientTransform="translate(-109.06282,-1.7736203)"
       gradientUnits="userSpaceOnUse">
      <stop
         stop-color="#ff425e"
         offset="0"
         id="stop7-53" />
      <stop
         stop-color="#ff6e4f"
         offset="1"
         id="stop9-5" />
    </linearGradient>
    <filter
       id="h-62"
       x="-.06"
       y="-.06"
       width="1.12"
       height="1.12"
       color-interpolation-filters="sRGB">
      <feGaussianBlur
         stdDeviation="0.85"
         id="feGaussianBlur2" />
    </filter>
    <linearGradient
       id="g-9"
       x1="32"
       x2="32"
       y1="15"
       y2="49"
       gradientTransform="matrix(1.0000071,0,0,1.0000071,-115.64624,-8.5943959e-7)"
       gradientUnits="userSpaceOnUse">
      <stop
         stop-color="#303030"
         offset="0"
         id="stop5" />
      <stop
         stop-color="#424242"
         offset="1"
         id="stop7-3" />
    </linearGradient>
    <linearGradient
       id="linearGradient862-3-67"
       x1="7.9373"
       x2="7.9373"
       y1="15.081"
       y2="1.852"
       gradientTransform="matrix(0.99996,0,0,0.99996,21.356329,0.0083453)"
       gradientUnits="userSpaceOnUse">
      <stop
         stop-color="#54c0cd"
         offset="0"
         id="stop10" />
      <stop
         stop-color="#40dd9d"
         offset="1"
         id="stop12-1" />
    </linearGradient>
    <filter
       id="h-6"
       x="-.06"
       y="-.06"
       width="1.12"
       height="1.12"
       color-interpolation-filters="sRGB">
      <feGaussianBlur
         stdDeviation="0.85"
         id="feGaussianBlur2-7" />
    </filter>
    <linearGradient
       id="g-5"
       x1="32"
       x2="32"
       y1="15"
       y2="49"
       gradientTransform="matrix(0.26458,0,0,0.26458,-22.458237,0)"
       gradientUnits="userSpaceOnUse">
      <stop
         stop-color="#303030"
         offset="0"
         id="stop5-3" />
      <stop
         stop-color="#424242"
         offset="1"
         id="stop7-5" />
    </linearGradient>
    <linearGradient
       id="linearGradient862-3-6"
       x1="7.9373"
       x2="7.9373"
       y1="15.081"
       y2="1.852"
       gradientTransform="matrix(0.99996,0,0,0.99996,-22.458199,0.0083453)"
       gradientUnits="userSpaceOnUse">
      <stop
         stop-color="#33db7f"
         offset="0"
         id="stop10-2" />
      <stop
         stop-color="#addf4f"
         offset="1"
         id="stop12-9" />
    </linearGradient>
    <linearGradient
       id="linearGradient862-3-9"
       x1="7.9373"
       x2="7.9373"
       y1="15.081"
       y2="1.852"
       gradientTransform="matrix(3.7795 0 0 3.7795 .000143 .031541)"
       gradientUnits="userSpaceOnUse">
      <stop
         stop-color="#f1efeb"
         offset="0"
         id="stop2-1" />
      <stop
         stop-color="#fdfcfc"
         offset="1"
         id="stop4-2" />
    </linearGradient>
    <linearGradient
       id="linearGradient859"
       x1="33.201"
       x2="33.201"
       y1="49.576"
       y2="17.146"
       gradientUnits="userSpaceOnUse">
      <stop
         stop-color="#306fec"
         offset="0"
         id="stop7-7" />
      <stop
         stop-color="#33a5ff"
         offset="1"
         id="stop9-0" />
    </linearGradient>
    <filter
       id="filter867"
       x="-.11238"
       y="-.10395"
       width="1.2248"
       height="1.2079"
       color-interpolation-filters="sRGB">
      <feGaussianBlur
         stdDeviation="1.7324962"
         id="feGaussianBlur12-9" />
    </filter>
    <filter
       color-interpolation-filters="sRGB"
       height="1.1223"
       width="1.1178"
       y="-.061161"
       x="-.058883"
       id="d">
      <feGaussianBlur
         id="feGaussianBlur856"
         stdDeviation="10.562379" />
    </filter>
    <filter
       color-interpolation-filters="sRGB"
       height="1.12"
       width="1.12"
       y="-.06001"
       x="-.05999"
       id="filter883">
      <feGaussianBlur
         id="feGaussianBlur859"
         stdDeviation="0.21163584" />
    </filter>
    <linearGradient
       gradientUnits="userSpaceOnUse"
       gradientTransform="translate(0.25273915,0.81328)"
       y2="62"
       y1="2"
       x2="32"
       x1="32"
       id="a-3">
      <stop
         id="stop862"
         offset="0"
         stop-color="#f5faff" />
      <stop
         id="stop864"
         offset="1"
         stop-color="#cfdef0" />
    </linearGradient>
    <filter
       id="h-62-7"
       x="-.06"
       y="-.06"
       width="1.12"
       height="1.12"
       color-interpolation-filters="sRGB">
      <feGaussianBlur
         stdDeviation="0.85"
         id="feGaussianBlur2-3" />
    </filter>
    <filter
       id="h-6-1"
       x="-.06"
       y="-.06"
       width="1.12"
       height="1.12"
       color-interpolation-filters="sRGB">
      <feGaussianBlur
         stdDeviation="0.85"
         id="feGaussianBlur2-7-9" />
    </filter>
    <filter
       id="d-3"
       x="-.058883"
       y="-.061161"
       width="1.1178"
       height="1.1223"
       color-interpolation-filters="sRGB">
      <feGaussianBlur
         stdDeviation="10.562379"
         id="feGaussianBlur1239" />
    </filter>
    <filter
       id="filter883-6"
       x="-.05999"
       y="-.06001"
       width="1.12"
       height="1.12"
       color-interpolation-filters="sRGB">
      <feGaussianBlur
         stdDeviation="0.21163584"
         id="feGaussianBlur1242" />
    </filter>
    <linearGradient
       id="a-3-7"
       x1="32"
       x2="32"
       y1="2"
       y2="62"
       gradientTransform="translate(0.25274057,0.8132802)"
       gradientUnits="userSpaceOnUse">
      <stop
         stop-color="#f5faff"
         offset="0"
         id="stop1245" />
      <stop
         stop-color="#cfdef0"
         offset="1"
         id="stop1247" />
    </linearGradient>
  </defs>
  <circle
     id="circle1252"
     style="fill:url(#a-3-7);paint-order:stroke markers fill"
     fill="url(#a-3)"
     r="30"
     cy="32"
     cx="32" />
  <g
     transform="translate(1,1)"
     id="g17" />
  <style
     id="style1463"><![CDATA[.B{clip-path:url(#C)}.C{fill:#3e2723}.D{fill-opacity:.15}.E{fill-opacity:.2}]]></style>
  <style
     id="style1465"><![CDATA[.B{clip-path:url(#C)}.C{fill:#3e2723}.D{fill-opacity:.15}.E{fill-opacity:.2}]]></style>
  <style
     id="style1467"><![CDATA[.B{clip-path:url(#C)}.C{fill:#3e2723}.D{fill-opacity:.15}.E{fill-opacity:.2}]]></style>
  <style
     id="style1469"><![CDATA[.B{clip-path:url(#C)}.C{fill:#3e2723}.D{fill-opacity:.15}.E{fill-opacity:.2}]]></style>
  <g
     transform="matrix(1.0000071,0,0,1.0000071,-105.72443,46.613198)"
     fill="#5e4aa6"
     image-rendering="optimizeSpeed"
     id="g1067">
    <circle
       cx="-1403.4"
       cy="-1240.7"
       r="0"
       id="circle1055" />
    <circle
       cx="-1334.4"
       cy="-1232.6"
       r="0"
       id="circle1057" />
    <circle
       cx="-1311.4"
       cy="-1258.4"
       r="0"
       id="circle1059" />
    <circle
       cx="-1322.1"
       cy="-1231.7"
       r="0"
       id="circle1061" />
    <circle
       cx="-1146.5"
       cy="-1251.8"
       r="0"
       id="circle1063" />
    <circle
       cx="-47.027"
       cy="13.726"
       r="0"
       fill-rule="evenodd"
       id="circle1065" />
  </g>
  <g
     transform="matrix(4.1231678,0,0,4.1231678,-198.65748,47.40243)"
     fill="#5e4aa6"
     image-rendering="optimizeSpeed"
     stroke-width="0.26458"
     id="g1077">
    <circle
       cx="-330.35001"
       cy="-328.38"
       r="0"
       id="circle1069" />
    <circle
       cx="-312.10999"
       cy="-326.25"
       r="0"
       id="circle1071" />
    <circle
       cx="-306.01999"
       cy="-333.07001"
       r="0"
       id="circle1073" />
    <circle
       cx="-308.84"
       cy="-326.01001"
       r="0"
       id="circle1075" />
  </g>
  <g
     transform="matrix(4.1231678,0,0,4.1231678,-138.91634,134.9235)"
     fill="#5e4aa6"
     image-rendering="optimizeSpeed"
     stroke-width="0.26458"
     id="g1095">
    <g
       transform="translate(-21.833,0.89722)"
       id="g1089">
      <circle
         cx="-330.35001"
         cy="-328.38"
         r="0"
         id="circle1081" />
      <circle
         cx="-312.10999"
         cy="-326.25"
         r="0"
         id="circle1083" />
      <circle
         cx="-306.01999"
         cy="-333.07001"
         r="0"
         id="circle1085" />
      <circle
         cx="-308.84"
         cy="-326.01001"
         r="0"
         id="circle1087" />
    </g>
    <circle
       cx="-284.23001"
       cy="-330.42001"
       r="0"
       id="circle1091" />
    <circle
       cx="6.6785998"
       cy="4.3997998"
       r="0"
       fill-rule="evenodd"
       id="circle1093" />
  </g>
  <g
     transform="matrix(1.454542,0,0,-1.454542,680.54597,1136.4235)"
     image-rendering="optimizeSpeed"
     id="g1103">
    <g
       clip-path="url(#clipPath13429)"
       id="g1101">
      <g
         transform="translate(448,326)"
         id="g1099">
        <path
           d="M 0,0 C 3.866,0 7,3.134 7,7 7,10.866 3.866,14 0,14 -3.866,14 -7,10.866 -7,7 -7,3.134 -3.866,0 0,0"
           fill="#ffffff"
           fill-rule="evenodd"
           id="path1097" />
      </g>
    </g>
  </g>
  <g
     transform="matrix(1.454542,0,0,-1.454542,680.54597,1136.4235)"
     image-rendering="optimizeSpeed"
     id="g1111">
    <g
       clip-path="url(#clipPath13465)"
       id="g1109">
      <g
         transform="translate(474,326)"
         id="g1107">
        <path
           d="M 0,0 C 3.866,0 7,3.134 7,7 7,10.866 3.866,14 0,14 -3.866,14 -7,10.866 -7,7 -7,3.134 -3.866,0 0,0"
           fill="#ffffff"
           fill-rule="evenodd"
           id="path1105" />
      </g>
    </g>
  </g>
  <g
     transform="matrix(1.454542,0,0,-1.454542,680.54597,1136.4235)"
     image-rendering="optimizeSpeed"
     id="g1119">
    <g
       clip-path="url(#clipPath13501)"
       id="g1117">
      <g
         transform="translate(497,326)"
         id="g1115">
        <path
           d="M 0,0 C 3.866,0 7,3.134 7,7 7,10.866 3.866,14 0,14 -3.866,14 -7,10.866 -7,7 -7,3.134 -3.866,0 0,0"
           fill="#ffffff"
           fill-rule="evenodd"
           id="path1113" />
      </g>
    </g>
  </g>
  <g
     transform="matrix(1.454542,0,0,-1.454542,680.54597,1136.4235)"
     image-rendering="optimizeSpeed"
     id="g1125">
    <g
       clip-path="url(#clipPath13753)"
       id="g1123">
      <path
         d="m 593,1073 h 36 v -18 h -36 z m 18,-11 c 6.075,0 11,0.895 11,2 0,1.105 -4.925,2 -11,2 -6.075,0 -11,-0.895 -11,-2 0,-1.105 4.925,-2 11,-2"
         fill="#ffffff"
         fill-rule="evenodd"
         id="path1121" />
    </g>
  </g>
  <g
     transform="matrix(1.454542,0,0,-1.454542,680.54597,1136.4235)"
     image-rendering="optimizeSpeed"
     id="g1133">
    <g
       clip-path="url(#clipPath13771)"
       id="g1131">
      <g
         transform="translate(583.42,1063)"
         id="g1129">
        <path
           d="M 0,0 C 0,0 21.582,23.182 21.582,35.147 21.582,47.195 11.898,57 0,57 c -11.816,0 -21.418,-9.805 -21.418,-21.853 0,-8.06 9.766,-21.188 16.002,-28.832 z m 0,42.542 c 3.938,0 7.14,-3.323 7.14,-7.395 0,-3.822 -3.202,-7.146 -7.14,-7.146 -3.856,0 -7.222,3.324 -7.222,7.146 0,4.072 3.366,7.395 7.222,7.395"
           fill="#ffffff"
           id="path1127" />
      </g>
    </g>
  </g>
  <g
     transform="matrix(1.454542,0,0,-1.454542,680.54597,1136.4235)"
     image-rendering="optimizeSpeed"
     id="g1141">
    <g
       clip-path="url(#clipPath14035)"
       id="g1139">
      <g
         transform="translate(562,535)"
         id="g1137">
        <path
           d="m 0,0 h 35 c 2.762,0 5,-2.238 5,-5 0,-2.762 -2.238,-5 -5,-5 H 0 c -2.762,0 -5,2.238 -5,5 0,2.762 2.238,5 5,5"
           fill="#ffffff"
           fill-rule="evenodd"
           id="path1135" />
      </g>
    </g>
  </g>
  <g
     transform="matrix(1.454542,0,0,-1.454542,680.54597,1136.4235)"
     image-rendering="optimizeSpeed"
     id="g1149">
    <g
       clip-path="url(#clipPath14127)"
       id="g1147">
      <g
         transform="translate(562,518)"
         id="g1145">
        <path
           d="m 0,0 h 35 c 2.762,0 5,-2.238 5,-5 0,-2.762 -2.238,-5 -5,-5 H 0 c -2.762,0 -5,2.238 -5,5 0,2.762 2.238,5 5,5"
           fill="#ffffff"
           fill-rule="evenodd"
           id="path1143" />
      </g>
    </g>
  </g>
  <g
     transform="matrix(1.454542,0,0,-1.454542,680.54597,1136.4235)"
     image-rendering="optimizeSpeed"
     id="g1157">
    <g
       clip-path="url(#clipPath14445)"
       id="g1155">
      <g
         transform="translate(536.43,133.83)"
         id="g1153">
        <path
           d="M 0,0 C -10.01,-12.916 -22.288,-9.047 -24.23,-8.072 -29.077,-6.779 -30.694,1.943 -24.556,4.846 -14.538,8.072 -5.496,4.521 0.968,1.293 0.324,0.326 0,0 0,0 m 10.667,3.553 c 4.521,8.072 6.139,15.826 6.139,15.826 H 1.617 v 5.812 h 17.767 v 2.26 H 1.617 v 8.723 h -8.074 v -8.723 h -16.156 v -2.584 h 16.156 v -5.812 h -13.57 V 16.47 H 7.756 c 0,-0.325 0,-0.325 -0.324,-0.968 0,-2.909 -1.936,-6.779 -3.554,-10.014 -20.677,8.079 -26.491,3.235 -28.108,2.584 -13.564,-9.689 -0.968,-21.963 1.293,-21.638 14.538,-3.227 23.905,2.91 30.369,10.657 0.324,-0.325 0.967,-0.325 1.292,-0.325 4.528,-2.578 25.848,-12.592 25.848,-12.592 V -3.552 C 30.694,-3.227 19.066,0.643 10.667,3.553"
           fill="#ffffff"
           id="path1151" />
      </g>
    </g>
  </g>
  <g
     transform="matrix(1.454542,0,0,-1.454542,680.54597,1136.4235)"
     image-rendering="optimizeSpeed"
     id="g1165">
    <g
       clip-path="url(#clipPath14609)"
       id="g1163">
      <g
         transform="translate(720.03,1091.5)"
         id="g1161">
        <path
           d="m 0,0 c -0.149,0.354 -0.224,0.837 -0.224,1.451 0,0.372 0.103,0.828 0.306,1.368 0.205,0.539 0.428,0.958 0.671,1.256 -0.019,0.409 0.051,0.902 0.209,1.478 0.159,0.576 0.368,0.976 0.629,1.2 0,2.586 0.86,5.269 2.581,8.05 1.722,2.782 3.744,4.73 6.07,5.846 2.585,1.228 5.6,1.842 9.041,1.842 2.475,0 4.949,-0.511 7.423,-1.534 0.912,-0.391 1.749,-0.837 2.512,-1.34 0.762,-0.502 1.423,-1.022 1.981,-1.562 0.559,-0.54 1.07,-1.172 1.534,-1.897 0.465,-0.725 0.856,-1.413 1.172,-2.064 0.318,-0.651 0.619,-1.437 0.908,-2.358 0.287,-0.921 0.524,-1.753 0.71,-2.497 0.186,-0.744 0.391,-1.655 0.614,-2.734 l 0.028,-0.14 C 37.188,4.822 37.7,3.426 37.7,2.179 37.7,1.919 37.616,1.547 37.448,1.064 37.28,0.58 37.196,0.227 37.196,0.003 c 0,-0.019 0.015,-0.052 0.043,-0.099 0.028,-0.047 0.061,-0.093 0.098,-0.139 0.038,-0.046 0.057,-0.077 0.057,-0.098 1.432,-2.121 2.553,-4.116 3.363,-5.985 0.809,-1.869 1.214,-3.808 1.214,-5.817 0,-0.8 -0.182,-1.73 -0.544,-2.791 -0.363,-1.06 -0.879,-1.59 -1.549,-1.59 -0.167,0 -0.349,0.069 -0.544,0.209 -0.194,0.14 -0.371,0.303 -0.529,0.489 -0.159,0.186 -0.335,0.428 -0.53,0.725 -0.195,0.297 -0.344,0.543 -0.447,0.739 -0.103,0.196 -0.228,0.438 -0.377,0.725 -0.147,0.288 -0.231,0.451 -0.251,0.489 -0.019,0.019 -0.047,0.028 -0.085,0.028 l -0.138,-0.111 c -1.099,-2.864 -2.327,-4.938 -3.684,-6.222 0.372,-0.372 0.944,-0.73 1.716,-1.075 0.772,-0.345 1.414,-0.73 1.925,-1.158 0.511,-0.426 0.841,-1.031 0.991,-1.814 -0.037,-0.074 -0.074,-0.223 -0.112,-0.447 -0.036,-0.224 -0.101,-0.391 -0.195,-0.501 -1.19,-1.804 -4,-2.706 -8.427,-2.706 -0.986,0 -2.013,0.084 -3.084,0.251 -1.069,0.168 -1.981,0.354 -2.734,0.558 -0.753,0.204 -1.726,0.483 -2.916,0.837 -0.279,0.093 -0.493,0.158 -0.643,0.196 -0.259,0.075 -0.687,0.115 -1.282,0.125 -0.595,0.009 -0.967,0.023 -1.116,0.042 -0.763,-0.838 -1.949,-1.442 -3.559,-1.814 -1.609,-0.372 -3.176,-0.558 -4.702,-0.558 -0.65,0 -1.293,0.014 -1.925,0.042 -0.632,0.028 -1.498,0.113 -2.595,0.252 -1.098,0.139 -2.038,0.33 -2.82,0.572 -0.781,0.241 -1.473,0.613 -2.078,1.115 -0.604,0.502 -0.906,1.098 -0.906,1.786 0,0.744 0.093,1.298 0.279,1.661 0.187,0.364 0.569,0.815 1.144,1.353 0.205,0.038 0.581,0.159 1.131,0.363 0.549,0.204 1.009,0.316 1.381,0.334 0.074,0 0.204,0.019 0.39,0.057 0.038,0.037 0.057,0.074 0.057,0.111 l -0.057,0.084 c -0.892,0.204 -1.897,1.185 -3.014,2.944 -1.117,1.758 -1.796,3.214 -2.038,4.367 l -0.139,0.084 c -0.074,0 -0.186,-0.185 -0.334,-0.557 -0.335,-0.763 -0.842,-1.455 -1.521,-2.079 -0.679,-0.622 -1.4,-0.971 -2.163,-1.046 h -0.028 c -0.073,0 -0.129,0.041 -0.167,0.125 -0.037,0.083 -0.084,0.134 -0.139,0.153 -0.428,1.004 -0.642,1.934 -0.642,2.79 0,5.116 2.343,9.45 7.032,13.002 z"
           fill="#ffffff"
           id="path1159" />
      </g>
    </g>
  </g>
  <g
     transform="matrix(1.454542,0,0,-1.454542,680.54597,1136.4235)"
     image-rendering="optimizeSpeed"
     id="g1173">
    <g
       clip-path="url(#clipPath15305)"
       id="g1171">
      <g
         transform="translate(655,300)"
         id="g1169">
        <path
           d="M 0,0 C 16.568,0 30,13.432 30,30 30,46.568 16.568,60 0,60 -16.568,60 -30,46.568 -30,30 -30,13.432 -16.568,0 0,0 Z"
           fill="none"
           stroke="#ffffff"
           stroke-miterlimit="10"
           stroke-width="8"
           id="path1167" />
      </g>
    </g>
  </g>
  <g
     transform="matrix(1.454542,0,0,-1.454542,680.54597,1136.4235)"
     image-rendering="optimizeSpeed"
     id="g1181">
    <g
       clip-path="url(#clipPath15341)"
       id="g1179">
      <g
         transform="translate(66.849,1083.1)"
         id="g1177">
        <path
           d="m 0,0 c 0,5.302 -3.661,9.749 -8.591,10.948 -0.209,8.314 -7.006,14.991 -15.366,14.991 -4.897,0 -9.254,-2.293 -12.07,-5.861 -1.579,2.041 -4.05,3.358 -6.828,3.358 -4.769,0 -8.633,-3.868 -8.633,-8.639 0,-0.416 0.031,-0.825 0.089,-1.224 -0.726,0.13 -1.47,0.203 -2.232,0.203 -6.913,0 -12.515,-5.607 -12.515,-12.524 0,-6.916 5.602,-12.523 12.515,-12.523 h 42.394 c 6.21,0.013 11.241,5.053 11.241,11.269 z"
           fill="#ffffff"
           id="path1175" />
      </g>
    </g>
  </g>
  <g
     transform="matrix(1.454542,0,0,-1.454542,680.54597,1136.4235)"
     image-rendering="optimizeSpeed"
     id="g1189">
    <g
       clip-path="url(#clipPath15715)"
       id="g1187">
      <g
         transform="translate(65.5,681)"
         id="g1185">
        <path
           d="M 0,0 C 9.113,0 16.5,7.387 16.5,16.5 16.5,25.613 9.113,33 0,33 -9.113,33 -16.5,25.613 -16.5,16.5 -16.5,7.387 -9.113,0 0,0 Z"
           fill="none"
           stroke="#ffffff"
           stroke-miterlimit="10"
           stroke-width="4"
           id="path1183" />
      </g>
    </g>
  </g>
  <g
     transform="matrix(1.454542,0,0,-1.454542,680.54597,1136.4235)"
     image-rendering="optimizeSpeed"
     id="g1197">
    <g
       clip-path="url(#clipPath15807)"
       id="g1195">
      <g
         transform="translate(77.5,711)"
         id="g1193">
        <path
           d="M 0,0 C 7.456,0 13.5,6.044 13.5,13.5 13.5,20.956 7.456,27 0,27 -7.456,27 -13.5,20.956 -13.5,13.5 -13.5,6.044 -7.456,0 0,0 Z"
           fill="none"
           stroke="#ffffff"
           stroke-miterlimit="10"
           stroke-width="4"
           id="path1191" />
      </g>
    </g>
  </g>
  <g
     transform="matrix(1.454542,0,0,-1.454542,680.54597,1136.4235)"
     image-rendering="optimizeSpeed"
     id="g1205">
    <g
       clip-path="url(#clipPath16001)"
       id="g1203">
      <g
         transform="translate(455.91,931.53)"
         id="g1201">
        <path
           d="m 0,0 c -0.742,-1.039 -4.75,-2.821 -8.165,-3.563 -4.305,-0.891 -6.531,-1.633 -8.758,-2.82 -2.969,-1.782 -4.601,-4.009 -4.305,-6.087 0.149,-0.445 3.711,-5.64 7.868,-11.578 4.304,-5.938 7.868,-10.985 8.016,-11.134 0.149,-0.297 -0.445,-0.297 -2.524,-0.148 -6.531,0.445 -12.469,-2.969 -15.142,-8.314 -0.742,-1.632 -0.89,-2.523 -0.89,-4.453 0,-4.453 2.376,-8.016 6.829,-10.094 1.781,-0.742 2.375,-0.891 6.086,-0.891 4.007,0 4.156,0 6.829,1.336 7.125,3.414 10.093,10.095 7.125,16.181 -0.594,1.336 -4.305,7.719 -8.313,14.251 l -7.274,12.024 h 1.187 c 4.75,0.297 8.017,1.781 10.244,4.305 1.929,2.227 2.523,4.453 2.374,8.016 C 1.039,0.297 0.742,1.039 0,0"
           fill="#ffffff"
           id="path1199" />
      </g>
    </g>
  </g>
  <g
     transform="matrix(1.454542,0,0,-1.454542,680.54597,1136.4235)"
     image-rendering="optimizeSpeed"
     id="g1213">
    <g
       clip-path="url(#clipPath16093)"
       id="g1211">
      <g
         transform="translate(784,902.31)"
         id="g1209">
        <path
           d="m 0,0 c 0,-1.565 -0.904,-2.931 -2.251,-3.674 l -27.781,-18.472 c -0.012,-0.008 -0.026,-0.014 -0.037,-0.02 l -0.017,-0.011 c -0.684,-0.376 -1.48,-0.592 -2.331,-0.592 -2.53,0 -4.583,1.913 -4.583,4.269 v 37 c 0,2.356 2.053,4.27 4.583,4.27 0.851,0 1.647,-0.217 2.331,-0.596 l 0.017,-0.008 c 0.011,-0.009 0.022,-0.014 0.037,-0.02 L -2.251,3.675 C -0.904,2.932 0,1.565 0,0"
           fill="#ffffff"
           id="path1207" />
      </g>
    </g>
  </g>
  <g
     transform="matrix(1.454542,0,0,-1.454542,680.54597,1136.4235)"
     image-rendering="optimizeSpeed"
     id="g1221">
    <g
       clip-path="url(#clipPath16477)"
       id="g1219">
      <g
         transform="translate(223.75,708.35)"
         id="g1217">
        <path
           d="m 0,0 c -15.123,0 -27.418,12.329 -27.418,27.486 0,1.382 1.111,2.505 2.487,2.505 1.379,0 2.499,-1.123 2.499,-2.505 0,-12.4 10.06,-22.487 22.432,-22.487 12.375,0 22.443,10.087 22.443,22.487 0,1.382 1.112,2.505 2.488,2.505 1.378,0 2.499,-1.123 2.499,-2.505 C 27.43,12.329 15.126,0 0,0"
           fill="#ffffff"
           fill-rule="evenodd"
           id="path1215" />
      </g>
    </g>
  </g>
  <g
     transform="matrix(1.454542,0,0,-1.454542,680.54597,1136.4235)"
     image-rendering="optimizeSpeed"
     id="g1229">
    <g
       clip-path="url(#clipPath16579)"
       id="g1227">
      <g
         transform="translate(390.75,139.35)"
         id="g1225">
        <path
           d="m 0,0 c -15.123,0 -27.418,12.329 -27.418,27.485 0,1.383 1.111,2.506 2.487,2.506 1.379,0 2.499,-1.123 2.499,-2.506 0,-12.398 10.06,-22.486 22.432,-22.486 12.375,0 22.443,10.088 22.443,22.486 0,1.383 1.112,2.506 2.488,2.506 1.378,0 2.499,-1.123 2.499,-2.506 C 27.43,12.329 15.126,0 0,0"
           fill="#ffffff"
           fill-rule="evenodd"
           id="path1223" />
      </g>
    </g>
  </g>
  <g
     transform="matrix(1.454542,0,0,-1.454542,680.54597,1136.4235)"
     image-rendering="optimizeSpeed"
     id="g1237">
    <g
       clip-path="url(#clipPath16709)"
       id="g1235">
      <g
         transform="translate(423.93,686.39)"
         id="g1233">
        <path
           d="m 0,0 c 0.245,-0.286 0.605,-0.456 0.986,-0.456 0.382,0 0.743,0.17 0.988,0.456 L 19.49,20.497 c 0.333,0.388 0.408,0.933 0.191,1.388 -0.211,0.463 -0.674,0.756 -1.184,0.756 h -9.93 c -2.118,4.172 -3.109,8.382 -2.973,12.63 0.135,4.248 1.954,12.361 5.455,24.34 C 0.093,53.021 -6.607,41.171 -6.607,28.386 v -5.745 h -9.93 c -0.51,0 -0.966,-0.293 -1.184,-0.756 -0.211,-0.462 -0.135,-1 0.191,-1.388 z"
           fill="#ffffff"
           id="path1231" />
      </g>
    </g>
  </g>
  <g
     transform="matrix(1.454542,0,0,-1.454542,535.56044,1306.3544)"
     image-rendering="optimizeSpeed"
     id="g1245">
    <g
       clip-path="url(#clipPath24218)"
       id="g1243">
      <g
         transform="translate(9.1685,1040.9)"
         id="g1241">
        <path
           d="M 0,0 25.314,21.067 -0.763,39.718 c 5.846,7.671 15.079,12.622 25.468,12.622 17.673,0 32,-14.327 32,-32 0,-17.673 -14.327,-32 -32,-32 C 14.757,-11.66 5.869,-7.121 0,0 m 27.349,31.812 c 2.835,0 5.132,2.297 5.132,5.132 0,2.834 -2.297,5.132 -5.132,5.132 -2.834,0 -5.132,-2.298 -5.132,-5.132 0,-2.835 2.298,-5.132 5.132,-5.132"
           fill="#ffffff"
           fill-rule="evenodd"
           id="path1239" />
      </g>
    </g>
  </g>
  <g
     transform="matrix(1.454542,0,0,-1.454542,535.56044,1306.3544)"
     image-rendering="optimizeSpeed"
     id="g1253">
    <g
       clip-path="url(#clipPath24382)"
       id="g1251">
      <g
         transform="translate(194.25,1130.3)"
         id="g1249">
        <path
           d="M 0,0 C 20.173,-11.579 43.841,2 51.309,14.862 58.776,27.723 56.341,46 40.841,52.5 25.341,59 -4.646,59.111 -13.659,43.5 -22.672,27.889 -20.174,11.578 0,0"
           fill="#ffffff"
           fill-rule="evenodd"
           id="path1247" />
      </g>
    </g>
  </g>
  <g
     transform="matrix(1.454542,0,0,-1.454542,535.56044,1306.3544)"
     image-rendering="optimizeSpeed"
     id="g1261">
    <g
       clip-path="url(#clipPath24650)"
       id="g1259">
      <g
         transform="translate(473.86,1057.5)"
         id="g1257">
        <path
           d="M 0,0 C 1.657,0 3,1.501 3,3.353 3,5.205 1.657,6.706 0,6.706 -1.656,6.706 -3,5.205 -3,3.353 -3,1.501 -1.656,0 0,0"
           fill="#ffffff"
           fill-rule="evenodd"
           id="path1255" />
      </g>
    </g>
  </g>
  <g
     transform="matrix(1.454542,0,0,-1.454542,535.56044,1306.3544)"
     image-rendering="optimizeSpeed"
     id="g1269">
    <g
       clip-path="url(#clipPath24700)"
       id="g1267">
      <g
         transform="translate(493,1069.8)"
         id="g1265">
        <path
           d="M 0,0 C 1.657,0 3,1.501 3,3.353 3,5.205 1.657,6.706 0,6.706 -1.657,6.706 -3,5.205 -3,3.353 -3,1.501 -1.657,0 0,0"
           fill="#ffffff"
           fill-rule="evenodd"
           id="path1263" />
      </g>
    </g>
  </g>
  <g
     transform="matrix(1.454542,0,0,-1.454542,535.56044,1306.3544)"
     image-rendering="optimizeSpeed"
     id="g1277">
    <g
       clip-path="url(#clipPath24750)"
       id="g1275">
      <g
         transform="translate(510,1048.8)"
         id="g1273">
        <path
           d="M 0,0 C 1.657,0 3,1.501 3,3.353 3,5.205 1.657,6.706 0,6.706 -1.657,6.706 -3,5.205 -3,3.353 -3,1.501 -1.657,0 0,0"
           fill="#ffffff"
           fill-rule="evenodd"
           id="path1271" />
      </g>
    </g>
  </g>
  <g
     transform="matrix(1.454542,0,0,-1.454542,535.56044,1306.3544)"
     image-rendering="optimizeSpeed"
     id="g1285">
    <g
       clip-path="url(#clipPath24864)"
       id="g1283">
      <g
         transform="translate(806.5,1072.2)"
         id="g1281">
        <path
           d="M 0,0 C -3.667,-14 -9.5,-21.833 -17.5,-23.5"
           fill="none"
           stroke="#ffffff"
           stroke-linecap="round"
           stroke-miterlimit="10"
           id="path1279" />
      </g>
    </g>
  </g>
  <g
     transform="matrix(1.454542,0,0,-1.454542,535.56044,1306.3544)"
     image-rendering="optimizeSpeed"
     id="g1293">
    <g
       clip-path="url(#clipPath24896)"
       id="g1291">
      <g
         transform="translate(802,1066.2)"
         id="g1289">
        <path
           d="m 0,0 c -4.971,0 -9,4.029 -9,9 0,4.971 4.029,9 9,9 C 4.971,18 9,13.971 9,9 9,4.029 4.971,0 0,0 m 0,6 c 1.657,0 3,1.343 3,3 0,1.657 -1.343,3 -3,3 -1.657,0 -3,-1.343 -3,-3 0,-1.657 1.343,-3 3,-3"
           fill="#ffffff"
           fill-rule="evenodd"
           id="path1287" />
      </g>
    </g>
  </g>
  <g
     transform="matrix(1.454542,0,0,-1.454542,535.56044,1306.3544)"
     image-rendering="optimizeSpeed"
     id="g1301">
    <g
       clip-path="url(#clipPath25070)"
       id="g1299">
      <g
         transform="translate(122,495.24)"
         id="g1297">
        <path
           d="M 0,0 H 3 C 3.553,0 4,-0.447 4,-1 V -3 C 4,-3.553 3.553,-4 3,-4 H 0 c -0.553,0 -1,0.447 -1,1 v 2 c 0,0.553 0.447,1 1,1"
           fill="#ffffff"
           fill-rule="evenodd"
           id="path1295" />
      </g>
    </g>
  </g>
  <g
     transform="matrix(1.454542,0,0,-1.454542,535.56044,1306.3544)"
     image-rendering="optimizeSpeed"
     id="g1309">
    <g
       clip-path="url(#clipPath25100)"
       id="g1307">
      <g
         transform="translate(204,495.24)"
         id="g1305">
        <path
           d="M 0,0 H 3 C 3.553,0 4,-0.447 4,-1 V -3 C 4,-3.553 3.553,-4 3,-4 H 0 c -0.553,0 -1,0.447 -1,1 v 2 c 0,0.553 0.447,1 1,1"
           fill="#ffffff"
           fill-rule="evenodd"
           id="path1303" />
      </g>
    </g>
  </g>
  <g
     transform="matrix(1.454542,0,0,-1.454542,535.56044,1306.3544)"
     image-rendering="optimizeSpeed"
     id="g1317">
    <g
       clip-path="url(#clipPath25502)"
       id="g1315">
      <g
         transform="translate(805,482.24)"
         id="g1313">
        <path
           d="M 0,0 C 4.418,0 8,3.582 8,8 8,12.418 4.418,16 0,16 -4.418,16 -8,12.418 -8,8 -8,3.582 -4.418,0 0,0"
           fill="#ffffff"
           fill-rule="evenodd"
           id="path1311" />
      </g>
    </g>
  </g>
  <g
     transform="matrix(1.454542,0,0,-1.454542,535.56044,1306.3544)"
     image-rendering="optimizeSpeed"
     id="g1325">
    <g
       clip-path="url(#clipPath25686)"
       id="g1323">
      <g
         transform="translate(658,1075.7)"
         id="g1321">
        <path
           d="M 0,0 C 0,-4.694 3.806,-8.5 8.5,-8.5 13.194,-8.5 17,-4.694 17,0 17,4.694 13.194,8.5 8.5,8.5 3.806,8.5 0,4.694 0,0"
           fill="#ffffff"
           id="path1319" />
      </g>
    </g>
  </g>
  <g
     transform="matrix(1.454542,0,0,-1.454542,535.56044,1306.3544)"
     image-rendering="optimizeSpeed"
     id="g1331">
    <g
       clip-path="url(#clipPath25788)"
       id="g1329">
      <path
         d="m 465.44,1082.2 h 85.864 v -75.319 H 465.44 Z m 64.45,-25.106 c -0.483,0.765 -1.453,0.947 -2.178,0.431 l -15.504,-11.01 c -0.359,-0.255 -0.847,-0.153 -1.071,0.238 l -18.271,31.869 c -0.438,0.771 -1.139,0.776 -1.549,-0.016 l -1.807,-3.514 -21.07,-47.452 c 13.336,-18.44 48.336,-26.94 73.836,-3.44 0.841,0 6.477,6.246 6,7 z"
         fill="#ffffff"
         fill-rule="evenodd"
         id="path1327" />
    </g>
  </g>
  <g
     transform="matrix(1.454542,0,0,-1.454542,535.56044,1306.3544)"
     image-rendering="optimizeSpeed"
     id="g1339">
    <g
       clip-path="url(#clipPath26420)"
       id="g1337">
      <g
         transform="translate(-23,837.24)"
         id="g1335">
        <path
           d="M 0,0 C 18.778,0 34,15.222 34,34 34,52.778 18.778,68 0,68 -18.778,68 -34,52.778 -34,34 -34,15.222 -18.778,0 0,0 Z"
           fill="none"
           stroke="#ffffff"
           stroke-miterlimit="10"
           stroke-width="8"
           id="path1333" />
      </g>
    </g>
  </g>
  <g
     transform="matrix(1.454542,0,0,-1.454542,535.56044,1306.3544)"
     image-rendering="optimizeSpeed"
     id="g1345">
    <g
       clip-path="url(#clipPath26860)"
       id="g1343">
      <path
         d="m 644,721.24 h 82 v -82 h -82 z m 41,-81 c 22.092,0 40,17.908 40,40 0,22.092 -17.908,40 -40,40 -22.092,0 -40,-17.908 -40,-40 0,-22.092 17.908,-40 40,-40"
         fill="#ffffff"
         fill-rule="evenodd"
         id="path1341" />
    </g>
  </g>
  <g
     transform="matrix(1.454542,0,0,-1.454542,535.56044,1306.3544)"
     image-rendering="optimizeSpeed"
     id="g1353">
    <g
       clip-path="url(#clipPath27506)"
       id="g1351">
      <g
         transform="translate(613.88,476.03)"
         id="g1349">
        <path
           d="m 0,0 c 0.187,-0.771 0.148,-1.502 -0.116,-2.193 -0.266,-0.692 -0.678,-1.303 -1.239,-1.833 -0.561,-0.531 -1.247,-0.949 -2.057,-1.255 -0.81,-0.305 -1.683,-0.457 -2.617,-0.457 -5.889,-0.033 -11.156,-0.049 -15.798,-0.049 h -15.891 c -1.122,0 -2.111,0.209 -2.968,0.627 -0.857,0.418 -1.543,0.932 -2.056,1.543 -0.515,0.611 -0.858,1.279 -1.029,2.002 -0.171,0.723 -0.148,1.375 0.071,1.953 0.186,0.451 0.373,0.917 0.56,1.398 0.157,0.418 0.343,0.893 0.561,1.424 0.219,0.53 0.452,1.069 0.701,1.615 l 1.776,4.438 h 5.329 l -2.01,-6.077 h 30.099 l -2.009,6.077 h 5.094 C -2.944,7.573 -2.353,6.094 -1.822,4.775 -1.604,4.197 -1.387,3.635 -1.168,3.088 -0.95,2.541 -0.756,2.051 -0.584,1.616 -0.413,1.183 -0.272,0.812 -0.163,0.507 -0.055,0.201 0,0.033 0,0 m -22.922,9.236 c -0.601,0.698 -1.289,1.571 -2.064,2.618 -0.776,1.046 -1.575,2.125 -2.398,3.235 -0.822,1.11 -1.637,2.204 -2.443,3.283 -0.808,1.079 -1.527,2.015 -2.16,2.808 -0.728,0.856 -1.013,1.562 -0.855,2.117 0.158,0.555 0.696,0.832 1.614,0.832 0.506,-0.031 1.187,-0.024 2.041,0.024 0.855,0.048 1.567,0.072 2.136,0.072 0.633,0 1.029,0.19 1.187,0.57 0.158,0.381 0.237,0.889 0.237,1.523 0,0.698 -0.008,1.467 -0.024,2.308 -0.016,0.841 -0.024,1.705 -0.024,2.593 0,0.888 -0.008,1.76 -0.023,2.617 -0.016,0.856 -0.024,1.65 -0.024,2.379 0,0.318 0.024,0.65 0.071,1 0.047,0.348 0.158,0.666 0.333,0.951 0.173,0.285 0.426,0.523 0.758,0.714 0.332,0.19 0.784,0.285 1.353,0.285 0.665,0 1.274,0.009 1.827,0.024 0.555,0.016 1.195,0.024 1.923,0.024 1.044,0 1.748,-0.246 2.112,-0.737 0.364,-0.492 0.562,-1.277 0.593,-2.356 v -1.855 c 0,-0.73 0.008,-1.507 0.023,-2.331 0.017,-0.826 0.025,-1.651 0.025,-2.475 v -2.236 c 0,-0.92 0.095,-1.659 0.284,-2.213 0.191,-0.555 0.617,-0.817 1.282,-0.785 0.475,0 1.052,-0.016 1.732,-0.047 0.68,-0.032 1.274,-0.049 1.78,-0.049 0.855,0 1.4,-0.23 1.638,-0.69 0.237,-0.46 0.071,-1.054 -0.498,-1.784 -0.602,-0.76 -1.298,-1.68 -2.089,-2.759 -0.791,-1.08 -1.606,-2.197 -2.445,-3.355 -0.838,-1.158 -1.661,-2.284 -2.467,-3.379 -0.807,-1.094 -1.528,-2.037 -2.16,-2.83 -0.57,-0.73 -1.116,-1.103 -1.637,-1.119 -0.523,-0.016 -1.069,0.326 -1.638,1.023"
           fill="#ffffff"
           id="path1347" />
      </g>
    </g>
  </g>
  <g
     transform="matrix(1.454542,0,0,-1.454542,535.56044,1306.3544)"
     image-rendering="optimizeSpeed"
     id="g1361">
    <g
       clip-path="url(#clipPath27772)"
       id="g1359">
      <g
         transform="translate(588.67,331.24)"
         id="g1357">
        <path
           d="m 0,0 h -49.301 c -2.41,0 -4.367,-1.941 -4.367,-4.299 v -49.402 c 0,-2.393 1.957,-4.299 4.367,-4.299 H 0 c 2.41,0 4.332,1.941 4.332,4.299 V -4.334 C 4.332,-1.941 2.375,0 0,0 m -33.403,-53.008 h -8.839 v 6.795 h 8.839 z m -8.91,24.58 h 8.84 v -6.795 h -8.84 z m 8.945,-15.566 h -8.84 v 6.795 h 8.84 z m 12.998,-9.014 h -8.84 v 6.795 h 8.84 z m -8.91,24.58 h 8.84 v -6.795 h -8.84 z m 8.944,-15.566 h -8.839 v 6.795 h 8.839 z m 13.277,-9.014 h -8.84 v 6.795 h 8.84 z m -8.909,24.58 h 8.84 v -6.795 h -8.84 z m 8.945,-15.566 h -8.84 v 6.795 h 8.84 z m 5.276,24.441 c 0,-2.392 -1.957,-4.299 -4.368,-4.299 h -37.77 c -2.411,-0.035 -4.367,1.907 -4.367,4.299 v 10.054 c 0,2.392 1.956,4.333 4.332,4.333 h 37.805 c 2.411,0 4.368,-1.941 4.368,-4.333 z"
           fill="#ffffff"
           id="path1355" />
      </g>
    </g>
  </g>
  <g
     transform="matrix(1.454542,0,0,-1.454542,535.56044,1306.3544)"
     image-rendering="optimizeSpeed"
     id="g1369">
    <g
       clip-path="url(#clipPath27864)"
       id="g1367">
      <g
         transform="translate(609.3,312.46)"
         id="g1365">
        <path
           d="m 0,0 h -0.72 c -0.206,0 -0.377,0 -0.514,-0.212 -0.103,-0.142 -0.103,-0.283 -0.103,-0.46 v -0.566 c 0,-0.178 0,-0.319 0.103,-0.461 0.137,-0.212 0.308,-0.212 0.514,-0.212 H 0 c 0.205,0 0.376,0 0.514,0.212 0.102,0.142 0.102,0.283 0.102,0.461 v 0.566 c 0,0.213 0,0.318 -0.102,0.46 C 0.376,0 0.239,0 0,0 M -5.003,4.779 H -7.95 c -0.548,0 -0.993,-0.46 -0.993,-1.026 V 1.346 h 0.993 v 2.407 h 2.947 V 1.346 h 0.993 v 2.407 c 0,0.566 -0.445,1.026 -0.993,1.026 m 0,-6.973 H -7.95 v 2.407 h -0.993 v -2.407 c 0,-0.567 0.411,-1.027 0.993,-1.027 h 2.947 c 0.582,0 0.993,0.46 0.993,1.027 v 2.407 h -0.993 z m -14.357,0 h -2.947 V 0.39 h -0.994 v -2.584 c 0,-0.567 0.411,-1.027 0.994,-1.027 h 2.947 c 0.583,0 0.994,0.46 0.994,1.027 V 0.39 h -0.994 z m 0,6.973 h -2.947 c -0.548,0 -0.994,-0.46 -0.994,-1.026 V 1.522 h 0.994 v 2.231 h 2.947 V 1.522 h 0.994 v 2.231 c 0,0.566 -0.446,1.026 -0.994,1.026 m 7.195,0 h -2.946 c -0.549,0 -0.994,-0.46 -0.994,-1.026 V 1.522 h 0.994 v 2.231 h 2.946 V 1.522 h 0.994 v 2.231 c 0,0.566 -0.445,1.026 -0.994,1.026 m 0,-6.973 h -2.946 V 0.39 h -0.994 v -2.584 c 0,-0.567 0.445,-1.027 0.994,-1.027 h 2.946 c 0.583,0 0.994,0.46 0.994,1.027 V 0.39 h -0.994 z M 6.51,4.779 H 3.563 C 3.015,4.779 2.569,4.319 2.569,3.753 V 1.169 H 3.563 V 3.753 H 6.51 V 1.169 h 0.994 v 2.584 c 0,0.566 -0.445,1.026 -0.994,1.026 m 0,-6.973 H 3.563 v 2.23 H 2.569 v -2.23 c 0,-0.567 0.446,-1.027 0.994,-1.027 H 6.51 c 0.583,0 0.994,0.46 0.994,1.027 v 2.23 H 6.51 Z m 7.195,0 h -2.946 v 2.053 H 9.765 v -2.053 c 0,-0.567 0.411,-1.027 0.994,-1.027 h 2.946 c 0.583,0 0.994,0.46 0.994,1.027 v 2.053 h -0.994 z m 0,6.973 h -2.946 c -0.548,0 -0.994,-0.46 -0.994,-1.026 V 0.992 h 0.994 v 2.761 h 2.946 V 0.992 h 0.994 v 2.761 c 0,0.566 -0.479,1.026 -0.994,1.026"
           fill="#ffffff"
           id="path1363" />
      </g>
    </g>
  </g>
  <g
     transform="matrix(1.454542,0,0,-1.454542,535.56044,1306.3544)"
     image-rendering="optimizeSpeed"
     id="g1377">
    <g
       clip-path="url(#clipPath28028)"
       id="g1375">
      <g
         transform="translate(766.75,130.24)"
         id="g1373">
        <path
           d="M 0,0 H -15.75 V 6.693 C -15.75,7.932 -16.763,9 -18.057,9 H -31.443 C -32.682,9 -33.75,7.987 -33.75,6.693 V 0 H -49.5 c -1.237,0 -2.25,-1.013 -2.25,-2.25 V -13.5 l 27,-4.5 27,4.5 V -2.25 C 2.25,-1.013 1.237,0 0,0 m -29.25,4.5 h 9 V 0 h -9 z m 9,-16.875 c 0,-0.619 -0.506,-1.125 -1.125,-1.125 h -6.75 c -0.619,0 -1.125,0.506 -1.125,1.125 v 2.25 c 0,0.619 0.506,1.125 1.125,1.125 h 6.75 c 0.619,0 1.125,-0.506 1.125,-1.125 z m -4.5,-7.875 27,4.5 v -27 C 2.25,-43.987 1.237,-45 0,-45 h -49.5 c -1.237,0 -2.25,1.013 -2.25,2.25 v 27 z"
           fill="#ffffff"
           id="path1371" />
      </g>
    </g>
  </g>
  <g
     transform="matrix(1.454542,0,0,-1.454542,535.56044,1306.3544)"
     image-rendering="optimizeSpeed"
     id="g1385">
    <g
       clip-path="url(#clipPath28200)"
       id="g1383">
      <g
         transform="translate(392,82.24)"
         id="g1381">
        <path
           d="M 0,0 -4.35,3.941 C -19.8,17.953 -30,27.2 -30,38.516 -30,47.762 -22.755,55 -13.5,55 -8.28,55 -3.27,52.572 0,48.75 3.27,52.572 8.28,55 13.5,55 22.755,55 30,47.762 30,38.516 30,27.2 19.8,17.953 4.35,3.941 Z"
           fill="#ffffff"
           id="path1379" />
      </g>
    </g>
  </g>
  <g
     transform="matrix(1.454542,0,0,-1.454542,535.56044,1306.3544)"
     image-rendering="optimizeSpeed"
     id="g1393">
    <g
       clip-path="url(#clipPath28364)"
       id="g1391">
      <g
         transform="translate(542.77,113.24)"
         id="g1389">
        <path
           d="m 0,0 c 0,2.621 0.885,4.8 2.689,6.604 1.804,1.804 3.983,2.689 6.604,2.689 2.622,0 4.801,-0.885 6.604,-2.689 1.805,-1.804 2.69,-3.983 2.69,-6.604 0,-2.621 -0.885,-4.834 -2.69,-6.639 -1.803,-1.803 -3.982,-2.689 -6.604,-2.689 -2.621,0 -4.809,0.877 -6.604,2.689 C 0.876,-4.809 0,-2.588 0,0 m -13.141,-6.06 c 0.545,-1.94 1.363,-3.846 2.35,-5.617 l -6.128,-7.523 6.944,-6.945 7.524,6.127 c 1.769,-0.986 3.71,-1.803 5.65,-2.382 L 4.221,-32 h 10.008 l 1.022,9.6 c 1.94,0.579 3.778,1.396 5.651,2.382 l 7.49,-6.127 7.012,6.945 -6.162,7.523 c 0.953,1.771 1.805,3.677 2.383,5.617 l 9.601,1.056 V 5.004 l -9.601,1.021 c -0.578,1.941 -1.43,3.745 -2.383,5.618 l 6.162,7.523 -7.012,7.013 -7.49,-6.161 c -1.907,0.953 -3.711,1.803 -5.651,2.382 L 14.229,32 H 4.221 L 3.199,22.4 c -2.008,-0.579 -3.88,-1.429 -5.65,-2.382 l -7.524,6.161 -6.944,-7.013 6.128,-7.523 C -11.744,9.77 -12.562,7.966 -13.141,6.025 L -22.774,5.004 V -5.004 Z"
           fill="#ffffff"
           id="path1387" />
      </g>
    </g>
  </g>
  <g
     transform="matrix(1.454542,0,0,-1.454542,535.56044,1306.3544)"
     image-rendering="optimizeSpeed"
     id="g1399">
    <g
       clip-path="url(#clipPath28984)"
       id="g1397">
      <path
         d="m 473,698.24 h 13 v -13 h -13 z m 6.5,-12 c 3.037,0 5.5,2.463 5.5,5.5 0,3.038 -2.463,5.5 -5.5,5.5 -3.037,0 -5.5,-2.462 -5.5,-5.5 0,-3.037 2.463,-5.5 5.5,-5.5"
         fill="#ffffff"
         fill-rule="evenodd"
         id="path1395" />
    </g>
  </g>
  <g
     transform="matrix(1.454542,0,0,-1.454542,535.56044,1306.3544)"
     image-rendering="optimizeSpeed"
     id="g1405">
    <g
       clip-path="url(#clipPath29012)"
       id="g1403">
      <path
         d="m 473,676.24 h 13 v -13 h -13 z m 6.5,-12 c 3.037,0 5.5,2.463 5.5,5.5 0,3.038 -2.463,5.5 -5.5,5.5 -3.037,0 -5.5,-2.462 -5.5,-5.5 0,-3.037 2.463,-5.5 5.5,-5.5"
         fill="#ffffff"
         fill-rule="evenodd"
         id="path1401" />
    </g>
  </g>
  <g
     transform="matrix(1.454542,0,0,-1.454542,535.56044,1306.3544)"
     image-rendering="optimizeSpeed"
     id="g1411">
    <g
       clip-path="url(#clipPath29040)"
       id="g1409">
      <path
         d="m 467,687.24 h 13 v -13 h -13 z m 6.5,-12 c 3.037,0 5.5,2.463 5.5,5.5 0,3.038 -2.463,5.5 -5.5,5.5 -3.037,0 -5.5,-2.462 -5.5,-5.5 0,-3.037 2.463,-5.5 5.5,-5.5"
         fill="#ffffff"
         fill-rule="evenodd"
         id="path1407" />
    </g>
  </g>
  <g
     transform="matrix(1.454542,0,0,-1.454542,535.56044,1306.3544)"
     image-rendering="optimizeSpeed"
     id="g1417">
    <g
       clip-path="url(#clipPath29068)"
       id="g1415">
      <path
         d="m 486,698.24 h 13 v -13 h -13 z m 6.5,-12 c 3.037,0 5.5,2.463 5.5,5.5 0,3.038 -2.463,5.5 -5.5,5.5 -3.037,0 -5.5,-2.462 -5.5,-5.5 0,-3.037 2.463,-5.5 5.5,-5.5"
         fill="#ffffff"
         fill-rule="evenodd"
         id="path1413" />
    </g>
  </g>
  <g
     transform="matrix(1.454542,0,0,-1.454542,535.56044,1306.3544)"
     image-rendering="optimizeSpeed"
     id="g1423">
    <g
       clip-path="url(#clipPath29096)"
       id="g1421">
      <path
         d="m 486,676.24 h 13 v -13 h -13 z m 6.5,-12 c 3.037,0 5.5,2.463 5.5,5.5 0,3.038 -2.463,5.5 -5.5,5.5 -3.037,0 -5.5,-2.462 -5.5,-5.5 0,-3.037 2.463,-5.5 5.5,-5.5"
         fill="#ffffff"
         fill-rule="evenodd"
         id="path1419" />
    </g>
  </g>
  <g
     transform="matrix(1.454542,0,0,-1.454542,535.56044,1306.3544)"
     image-rendering="optimizeSpeed"
     id="g1429">
    <g
       clip-path="url(#clipPath29124)"
       id="g1427">
      <path
         d="m 480,687.24 h 13 v -13 h -13 z m 6.5,-12 c 3.037,0 5.5,2.463 5.5,5.5 0,3.038 -2.463,5.5 -5.5,5.5 -3.037,0 -5.5,-2.462 -5.5,-5.5 0,-3.037 2.463,-5.5 5.5,-5.5"
         fill="#ffffff"
         fill-rule="evenodd"
         id="path1425" />
    </g>
  </g>
  <g
     transform="matrix(1.454542,0,0,-1.454542,535.56044,1306.3544)"
     image-rendering="optimizeSpeed"
     id="g1435">
    <g
       clip-path="url(#clipPath29152)"
       id="g1433">
      <path
         d="m 493,687.24 h 13 v -13 h -13 z m 6.5,-12 c 3.037,0 5.5,2.463 5.5,5.5 0,3.038 -2.463,5.5 -5.5,5.5 -3.037,0 -5.5,-2.462 -5.5,-5.5 0,-3.037 2.463,-5.5 5.5,-5.5"
         fill="#ffffff"
         fill-rule="evenodd"
         id="path1431" />
    </g>
  </g>
  <g
     transform="matrix(1.454542,0,0,-1.454542,535.56044,1306.3544)"
     image-rendering="optimizeSpeed"
     id="g1441">
    <g
       clip-path="url(#clipPath29252)"
       id="g1439">
      <path
         d="m 161,327.24 h 73 v -28 h -73 z m 14,-5 h 45 c 4.971,0 9,-4.029 9,-9 0,-4.97 -4.029,-9 -9,-9 h -45 c -4.971,0 -9,4.03 -9,9 0,4.971 4.029,9 9,9"
         fill="#ffffff"
         fill-rule="evenodd"
         id="path1437" />
    </g>
  </g>
  <g
     transform="matrix(1.454542,0,0,-1.454542,535.56044,1306.3544)"
     image-rendering="optimizeSpeed"
     id="g1447">
    <g
       clip-path="url(#clipPath29280)"
       id="g1445">
      <path
         d="m 162,302.24 h 73 v -28 h -73 z m 14,-5 h 45 c 4.971,0 9,-4.029 9,-9 0,-4.97 -4.029,-9 -9,-9 h -45 c -4.971,0 -9,4.03 -9,9 0,4.971 4.029,9 9,9"
         fill="#ffffff"
         fill-rule="evenodd"
         id="path1443" />
    </g>
  </g>
  <g
     transform="matrix(1.454542,0,0,-1.454542,535.56044,1306.3544)"
     image-rendering="optimizeSpeed"
     id="g1455">
    <g
       clip-path="url(#clipPath29400)"
       id="g1453">
      <g
         transform="translate(104.49,129.57)"
         id="g1451">
        <path
           d="m 0,0 c -4.298,-0.338 -8.165,-0.637 -11.604,-0.898 -1.458,-0.113 -2.906,-0.225 -4.344,-0.336 -1.44,-0.114 -2.747,-0.207 -3.924,-0.282 -1.178,-0.074 -2.168,-0.149 -2.972,-0.224 -0.803,-0.074 -1.28,-0.113 -1.428,-0.113 -0.188,-0.037 -0.403,-0.065 -0.645,-0.084 -0.244,-0.018 -0.459,-0.065 -0.645,-0.139 l -0.673,-0.225 -2.467,1.121 c 0.187,0.263 0.412,0.506 0.674,0.731 0.185,0.186 0.42,0.364 0.7,0.533 0.28,0.168 0.569,0.27 0.868,0.309 0.225,0.037 0.822,0.093 1.795,0.168 0.971,0.074 2.167,0.168 3.588,0.28 0,0.486 0.047,1.15 0.14,1.992 0.092,0.841 0.317,1.674 0.672,2.497 0.356,0.822 0.869,1.553 1.541,2.188 0.673,0.636 1.589,1.009 2.747,1.123 1.346,0.111 2.439,-0.094 3.281,-0.618 0.84,-0.523 1.494,-1.169 1.961,-1.935 0.467,-0.768 0.795,-1.553 0.981,-2.358 0.187,-0.804 0.299,-1.43 0.337,-1.878 1.606,0.111 2.942,0.205 4.008,0.279 1.064,0.076 1.653,0.131 1.765,0.169 0.412,0.038 0.87,-0.038 1.373,-0.225 0.505,-0.186 0.907,-0.43 1.206,-0.729 C -0.99,1.271 -0.888,1.158 -0.757,1.01 -0.626,0.859 -0.505,0.71 -0.392,0.561 -0.243,0.41 -0.112,0.224 0,0 m -15.528,6.676 c -0.709,-0.074 -1.28,-0.326 -1.709,-0.757 -0.43,-0.431 -0.758,-0.944 -0.982,-1.543 -0.223,-0.599 -0.374,-1.206 -0.448,-1.823 -0.075,-0.617 -0.112,-1.114 -0.112,-1.488 1.159,0.076 2.344,0.169 3.559,0.281 1.215,0.112 2.402,0.206 3.56,0.281 -0.037,0.336 -0.121,0.804 -0.252,1.402 -0.131,0.599 -0.346,1.178 -0.645,1.74 -0.299,0.561 -0.691,1.028 -1.176,1.403 -0.487,0.373 -1.084,0.542 -1.795,0.504 m 21.919,-41.24 c 0.186,-1.047 0.159,-1.917 -0.084,-2.61 -0.244,-0.691 -0.925,-1.168 -2.046,-1.43 -0.374,-0.113 -1.187,-0.299 -2.439,-0.562 -1.252,-0.262 -2.747,-0.579 -4.485,-0.953 -1.737,-0.374 -3.597,-0.777 -5.577,-1.207 -1.982,-0.43 -3.878,-0.832 -5.691,-1.205 -1.812,-0.375 -3.437,-0.711 -4.877,-1.011 -1.438,-0.3 -2.457,-0.505 -3.054,-0.617 -1.383,-0.3 -2.402,-0.206 -3.055,0.28 -0.654,0.486 -0.982,1.217 -0.982,2.189 v 34.452 c 0,0.934 0.197,1.691 0.589,2.271 0.393,0.58 0.962,0.889 1.709,0.926 0.299,0 0.664,0.02 1.094,0.057 0.43,0.037 0.85,0.074 1.261,0.112 0.485,0.037 0.991,0.075 1.514,0.112 l 0.504,-8.023 c -0.037,-0.038 -0.112,-0.057 -0.224,-0.057 -0.074,0 -0.187,-0.01 -0.336,-0.027 -0.15,-0.02 -0.318,-0.029 -0.505,-0.029 -0.784,-0.075 -1.159,-0.542 -1.121,-1.403 0.038,-0.336 0.075,-0.805 0.112,-1.402 0.037,-0.599 0.066,-1.225 0.084,-1.88 0.019,-0.655 0.047,-1.29 0.084,-1.907 0.037,-0.617 0.074,-1.114 0.113,-1.488 0.037,-0.711 0.149,-1.112 0.336,-1.206 0.186,-0.093 0.598,-0.14 1.233,-0.14 h 0.785 c 0.225,0 0.439,0.01 0.645,0.027 0.205,0.02 0.439,0.038 0.701,0.057 0.261,0.018 0.597,0.047 1.008,0.084 0.785,0.075 1.29,0.243 1.513,0.506 0.225,0.261 0.319,0.654 0.281,1.177 0,0.262 -0.028,0.721 -0.084,1.375 -0.056,0.655 -0.113,1.337 -0.168,2.048 -0.056,0.71 -0.103,1.384 -0.14,2.02 -0.037,0.635 -0.074,1.085 -0.112,1.346 -0.076,0.45 -0.168,0.768 -0.281,0.954 -0.112,0.187 -0.318,0.262 -0.617,0.224 -0.148,0 -0.299,-0.009 -0.447,-0.027 -0.151,-0.019 -0.3,-0.028 -0.449,-0.028 h -0.449 l -0.505,7.967 c 2.542,0.225 4.877,0.412 7.008,0.561 0.897,0.076 1.803,0.15 2.719,0.224 0.916,0.076 1.766,0.141 2.551,0.198 0.785,0.055 1.476,0.111 2.074,0.168 0.598,0.056 1.046,0.103 1.346,0.14 1.083,0.074 1.942,-0.113 2.578,-0.561 0.635,-0.449 1.027,-1.122 1.178,-2.021 0.037,-0.299 0.168,-1.196 0.391,-2.693 0.224,-1.496 0.505,-3.291 0.841,-5.386 0.336,-2.095 0.691,-4.349 1.065,-6.761 0.374,-2.413 0.729,-4.667 1.066,-6.761 0.336,-2.095 0.625,-3.891 0.869,-5.387 0.242,-1.496 0.4,-2.395 0.476,-2.693 m -35.261,-4.881 c 0,-0.525 0.028,-0.983 0.084,-1.375 0.057,-0.393 0.122,-0.701 0.197,-0.926 0.074,-0.299 0.168,-0.524 0.279,-0.674 -0.933,0.486 -1.831,0.973 -2.69,1.459 -0.747,0.412 -1.495,0.832 -2.242,1.263 -0.747,0.43 -1.383,0.795 -1.906,1.094 -0.972,0.561 -1.635,1.235 -1.99,2.02 -0.355,0.785 -0.439,1.608 -0.253,2.469 0.076,0.224 0.244,1.047 0.505,2.469 0.262,1.421 0.588,3.142 0.981,5.162 0.392,2.019 0.803,4.189 1.233,6.508 0.43,2.32 0.831,4.49 1.205,6.509 0.374,2.02 0.701,3.76 0.982,5.218 0.28,1.459 0.439,2.319 0.476,2.581 0.15,0.823 0.42,1.459 0.813,1.908 0.392,0.449 0.849,0.561 1.373,0.336 0.299,-0.149 0.543,-0.317 0.728,-0.504 0.114,-0.113 0.188,-0.207 0.225,-0.281 z"
           fill="#ffffff"
           id="path1449" />
      </g>
    </g>
  </g>
  <g
     id="g38"
     stroke-width="0.66672"
     font-size="12.666px"
     transform="matrix(1.4999,0,0,1.4999,-580.81,-753.64)">
    <text
       id="text36"
       stroke-width="0.66672"
       font-family="'Droid Sans'"
       y="132.19"
       x="730.88" />
  </g>
  <g
     id="g42"
     stroke-width="0.66672"
     font-size="12.666px"
     transform="matrix(1.4999,0,0,1.4999,-580.81,-753.64)">
    <text
       id="text40"
       stroke-width="0.66672"
       font-family="'Droid Sans'"
       y="132.19"
       x="730.88" />
  </g>
  <rect
     id="rect44"
     opacity="0.40741"
     fill="#000cff"
     height="0"
     width="0.067495003"
     y="29.792999"
     x="64.964996" />
  <g
     id="g2201"
     transform="matrix(1.6666665,0,0,1.6666665,-181.19236,-8.0083128)">
    <path
       id="path21"
       style="fill:#a3b1cc;fill-opacity:1;fill-rule:evenodd"
       d="m 123.91543,14 c 0.76429,0.68456 2.7485,2.4074 3.5645,5.9434 0.14013,0.39369 0.0275,0.8663 -0.0215,1.2676 -0.109,0.266 -0.38086,0.68359 -0.38086,0.68359 -0.074,0.098 -0.14642,0.26956 0.0176,0.47656 0.85609,1.098 1.8696,2.0973 2.2129,3.2266 0.20728,0.68186 -0.43508,0.78101 -0.99219,1.0176 -0.41,0.102 -0.99184,0.34161 -0.58984,0.84961 0.004,0.01141 0.0172,0.02151 0.0234,0.02929 0.031,0.035 0.086,0.10538 0.16797,0.23438 0.078,0.164 0.14525,0.43019 -0.0937,0.61719 -0.125,0.082 -0.53698,0.26566 -0.33398,0.47266 l -0.0117,-0.01563 c 0.23082,0.24215 0.14158,0.59168 -0.01,0.80859 -0.16845,0.18913 -0.10081,0.41236 -0.0859,0.5996 0.0519,0.65357 -0.0557,1.1811 -0.22266,1.7871 5.9005,0.0019 8.7559,-4.9981 8.7559,-8.9981 0,-5.3552 -5.1727,-9 -12,-9 z" />
    <path
       id="path23"
       style="fill:#8595b9;fill-rule:evenodd"
       d="m 124.91543,15 c 1,1 2.123,2.846 2.611,5.32 1.389,0.09 2.977,1.862 2.938,3.539 -0.046,1.965 -1.311,3.878 -2.711,4.803 -0.027,0.016 -0.059,0.03 -0.094,0.051 -0.063,0.079 -0.093,0.179 -0.02,0.285 0.043,0.008 0.093,-0.012 0.15,-0.031 0.768,-0.254 1.486,-0.623 2.102,-1.025 1.807,-1.182 3.057,-2.145 3.715,-3.994 0.33,-0.928 0.432,-2.087 0.123,-3.148 -1.137,-3.915 -5.59,-5.507 -8.814,-5.799" />
    <path
       id="path25"
       style="fill:#445277;fill-rule:evenodd"
       d="m 128.15543,25.25 c -0.66,-0.957 -1.289,-1.824 -1.844,-2.855 -0.098,-0.176 -0.223,-0.367 -0.191,-0.598 0.043,-0.293 0.32,-0.441 0.445,-0.656 0.289,-0.512 0.09,-1.188 -0.09,-1.727 -0.80176,-2.3608 -2.4398,-4.8089 -4.56,-5.414 v 5.218 c 0.07,0.07 0.376,0.164 0.446,0.219 2.079,1.563 2.76,4.174 2.797,6.04 0.049,2.483 -0.84,4.931 -2.621,6.469 -0.039,0.035 -0.125,0.066 -0.113,0.137 1.207,0.242 3.812,0.557 4.106,-0.582 0.27,-1.048 -0.4088,-1.6285 0.171,-2.363 0.23186,-0.29372 0.0503,-0.26679 -0.043,-0.333 -0.10014,-0.07107 -0.188,-0.141 -0.188,-0.285 0,-0.316 0.493,-0.332 0.496,-0.574 0.004,-0.314 -0.17,-0.613 -0.27,-0.887 -0.035,-0.199 -0.043,-0.43 0.273,-0.602 0.48,-0.141 0.99597,-0.28704 1.344,-0.554 0.14997,-0.11504 -0.058,-0.5 -0.164,-0.652" />
    <path
       id="path29"
       style="fill:#445277"
       d="m 124.88243,12.01 c -1.6679,0.0028 -2.699,0.26165 -3.967,0.599 -0.949,0.221 -1.559,0.71 -1.699,1.393 l -1.301,6.322 3,-0.322 v -6.453 c 1.291,-0.358 2.641,-0.54836 4,-0.549 7.18,-0.0034 13,4.927 13,11.002 0,6.075 -5.82,10.999 -13,11 -2.179,2.33e-4 -4.322,-0.462 -6.234,-1.346 l -0.516,0.738 c 2.75,1.2598 4.3212,1.606 6.75,1.606 6.4777,0 15,-2.7847 15,-12 0,-8.2373 -9.161,-12 -15.033,-11.99 z" />
    <circle
       id="circle31"
       style="fill:#445277"
       r="3.5"
       cy="22.5"
       cx="119.41543" />
    <circle
       id="circle33"
       style="fill:#4cba36"
       r="2"
       cy="23"
       cx="118.91543" />
  </g>
</svg>
