<?xml version="1.0" encoding="UTF-8"?>
<!-- Created with Inkscape (http://www.inkscape.org/) -->
<svg width="64" height="64" version="1.1" viewBox="0 0 16.933 16.933" xmlns="http://www.w3.org/2000/svg">
 <defs>
  <linearGradient id="a-3-7" x1="32" x2="32" y1="2" y2="62" gradientTransform="matrix(.26458 0 0 .26458 21.114 7.0029)" gradientUnits="userSpaceOnUse">
   <stop stop-color="#f5faff" offset="0"/>
   <stop stop-color="#cfdef0" offset="1"/>
  </linearGradient>
 </defs>
 <g transform="translate(-21.047 -6.7877)">
  <circle cx="29.514" cy="15.254" r="7.9373" fill="url(#a-3-7)" stroke-width=".26458" style="paint-order:stroke markers fill"/>
  <path d="m27.75 10.842c0.33702 0.30187 1.212 1.0616 1.5718 2.6208 0.06179 0.1736 0.01213 0.38201-0.0095 0.55896-0.04807 0.1173-0.16794 0.30144-0.16794 0.30144-0.03263 0.04321-0.06457 0.11887 0.0078 0.21014 0.3775 0.48418 0.82442 0.92483 0.97581 1.4228 0.0914 0.30068-0.19185 0.3444-0.43752 0.44872-0.1808 0.04498-0.43737 0.15064-0.2601 0.37465 0.0018 5e-3 0.0076 0.0095 0.01032 0.01292 0.01367 0.01543 0.03792 0.04647 0.07407 0.10335 0.03439 0.07232 0.06405 0.1897-0.04132 0.27216-0.05512 0.03616-0.23679 0.11715-0.14727 0.20843l-0.0052-0.0069c0.10178 0.10678 0.06243 0.26091-0.0044 0.35656-0.07428 0.0834-0.04445 0.18184-0.03788 0.2644 0.02289 0.2882-0.02456 0.52082-0.09818 0.78805 2.6019 8.47e-4 3.861-2.204 3.861-3.9678 0-2.3614-2.281-3.9687-5.2916-3.9687z" fill="#a3b1cc" fill-rule="evenodd" stroke-width=".44096"/>
  <path d="m28.191 11.283c0.44096 0.44096 0.93616 1.255 1.1514 2.3459 0.6125 0.03969 1.3127 0.82107 1.2956 1.5606-0.02028 0.86649-0.5781 1.7101-1.1955 2.1179-0.01191 0.0071-0.02602 0.01323-0.04145 0.02249-0.02778 0.03484-0.04101 0.07893-0.0088 0.12568 0.01896 0.0035 0.04101-0.0053 0.06615-0.01367 0.33866-0.112 0.65527-0.27472 0.9269-0.45199 0.79682-0.52122 1.348-0.94587 1.6382-1.7612 0.14552-0.40922 0.1905-0.92029 0.05424-1.3882-0.50138-1.7264-2.465-2.4284-3.8867-2.5571" fill="#8595b9" fill-rule="evenodd" stroke-width=".44096"/>
  <g fill="#445277" stroke-width=".44096">
   <path d="m29.619 15.803c-0.29104-0.422-0.5684-0.80432-0.81314-1.259-0.04321-0.07761-0.09833-0.16183-0.08422-0.2637 0.01896-0.1292 0.14111-0.19446 0.19623-0.28927 0.12744-0.22577 0.03969-0.52386-0.03969-0.76154-0.35355-1.041-1.0759-2.1205-2.0108-2.3874v2.3009c0.03087 0.03087 0.1658 0.07232 0.19667 0.09657 0.91676 0.68923 1.2171 1.8406 1.2334 2.6634 0.02161 1.0949-0.37041 2.1744-1.1558 2.8526-0.0172 0.01543-0.05512 0.0291-0.04983 0.06041 0.53224 0.10671 1.681 0.24562 1.8106-0.25664 0.11906-0.46213-0.18027-0.71811 0.0754-1.042 0.10224-0.12952 0.02218-0.11764-0.01896-0.14684-0.04416-0.03134-0.0829-0.06218-0.0829-0.12567 0-0.13934 0.2174-0.1464 0.21872-0.25311 0.0018-0.13846-0.07496-0.27031-0.11906-0.39113-0.01543-0.08775-0.01896-0.18962 0.12038-0.26546 0.21166-0.06218 0.43919-0.12657 0.59266-0.24429 0.06613-0.05073-0.02558-0.22048-0.07232-0.28751" fill-rule="evenodd"/>
   <path d="m28.176 9.9649c-0.73548 0.00124-1.1902 0.11538-1.7493 0.26414-0.41847 0.09745-0.68746 0.31308-0.7492 0.61426l-0.57369 2.7878 1.3229-0.14199v-2.8455c0.56928-0.15786 1.1646-0.24181 1.7639-0.24209 3.1661-0.0015 5.7325 2.1726 5.7325 4.8515 0 2.6789-2.5664 4.8502-5.7325 4.8506-0.96086 1.03e-4 -1.9058-0.20372-2.749-0.59354l-0.22754 0.32543c1.2126 0.55553 1.9055 0.70819 2.9765 0.70819 2.8564 0 6.6145-1.228 6.6145-5.2916 0-3.6323-4.0397-5.2916-6.629-5.2872z"/>
   <circle cx="25.765" cy="14.591" r="1.5434"/>
  </g>
  <circle cx="25.545" cy="14.811" r=".88193" fill="#4cba36" stroke-width=".44096"/>
 </g>
</svg>
