<?xml version="1.0" encoding="UTF-8"?>
<svg width="64" height="64" version="1.1" viewBox="0 0 16.933 16.933" xmlns="http://www.w3.org/2000/svg" xmlns:cc="http://creativecommons.org/ns#" xmlns:dc="http://purl.org/dc/elements/1.1/" xmlns:rdf="http://www.w3.org/1999/02/22-rdf-syntax-ns#">
 <defs>
  <filter id="filter1066" x="-.063923" y="-.056531" width="1.1278" height="1.1131" color-interpolation-filters="sRGB">
   <feGaussianBlur stdDeviation="0.22705935"/>
  </filter>
  <linearGradient id="linearGradient9197" x1="11.503" x2="13.411" y1="10.86" y2="11.864" gradientTransform="translate(6.7518 -.3188)" gradientUnits="userSpaceOnUse">
   <stop stop-color="#b4b4b4" offset="0"/>
   <stop stop-color="#646464" offset="1"/>
  </linearGradient>
 </defs>
 <metadata>
  <rdf:RDF>
   <cc:Work rdf:about="">
    <dc:format>image/svg+xml</dc:format>
    <dc:type rdf:resource="http://purl.org/dc/dcmitype/StillImage"/>
   </cc:Work>
  </rdf:RDF>
 </metadata>
 <g transform="translate(-6.7443 .31899)">
  <circle cx="15.146" cy="8.1891" r="7.9373" color="#000000" fill="#787879" stroke-width=".26458"/>
  <path d="m15.078 0.14624a7.9373 7.9832 0 0 0-7.9373 7.9833 7.9373 7.9832 0 0 0 5.5381 7.6065l0.53277-0.06029c3.7573-1.0394 9.046-4.2555 9.2551-10.46a7.9373 7.9832 0 0 0-7.3886-5.0696zm7.4066 5.1174 0.44544 3.9646a7.9373 7.9832 0 0 0 5.15e-4 -0.00208l-0.44441-3.9579a7.9373 7.9832 0 0 0-0.0015-0.00468z" color="#000000" fill="#646464" stroke-width=".26534"/>
  <path transform="matrix(1.0996 0 0 1.0321 -40.994 -4.507)" d="m57.818 9.8288s0.05354 3.0782-2.6636 4.5408c-2.2449 1.2084 0.9386 2.689-5.8599 5.0989 8.8505-2.5748 8.5235-9.6396 8.5235-9.6396z" fill="#141414" filter="url(#filter1066)" opacity=".3"/>
  <path transform="matrix(1.0685 0 0 .99563 -39.093 -3.8345)" d="m57.818 9.8288s0.05354 3.0782-2.6636 4.5408c-2.2449 1.2084 0.9386 2.689-5.8599 5.0989 8.8505-2.5748 8.5235-9.6396 8.5235-9.6396z" fill="#141414" filter="url(#filter1066)" opacity=".3"/>
  <path d="m22.243 5.536s0.0548 3.1505-2.7262 4.6475c-2.2976 1.2368 0.96065 2.7522-5.9976 5.2187 9.0584-2.6353 8.7956-9.8302 8.7956-9.8302z" fill="url(#linearGradient9197)" stroke-width="1.0235"/>
  <path d="m22.243 5.536s-0.19305 3.2013-2.5649 4.5127c-2.7286 1.5087 0.99327 2.857-6.1953 5.2983" fill="none" stroke="#9d9d9d" stroke-width=".1354"/>
  <path d="m22.485 5.2637 0.44545 3.9645a7.9374 7.9832 0 0 0 5.29e-4 -0.00206l-0.44442-3.9579a7.9374 7.9832 0 0 0-1e-3 -0.00465h-5.29e-4z" color="#000000" fill="#fafafa" stroke-width=".26535"/>
  <g fill="#cdcdcd" stroke-width="1.0227">
   <rect transform="rotate(30)" x="11.228" y="-1.4891" width="3.1749" height=".51448" ry=".25724" style="paint-order:stroke fill markers"/>
   <rect transform="matrix(.86603 -.5 -.5 -.86603 0 0)" x="5.218" y="-11.899" width="3.1749" height=".51448" ry=".25724" style="paint-order:stroke fill markers"/>
   <rect transform="scale(1,-1)" x="12.859" y="-8.63" width="3.1749" height=".51448" ry=".25724" style="paint-order:stroke fill markers"/>
  </g>
 </g>
</svg>
