<?xml version="1.0" encoding="UTF-8"?>
<!-- Created with Inkscape (http://www.inkscape.org/) -->
<svg width="64" height="64" version="1.1" viewBox="0 0 16.933 16.933" xmlns="http://www.w3.org/2000/svg">
 <defs>
  <linearGradient id="linearGradient1005" x1=".73911" x2="16.388" y1="16.296" y2=".64687" gradientTransform="matrix(.99999 0 0 .99999 10.193 8.1647)" gradientUnits="userSpaceOnUse">
   <stop stop-color="#00a0ff" offset="0"/>
   <stop stop-color="#37beff" offset="1"/>
  </linearGradient>
  <filter id="filter1054" x="-.011077" y="-.013091" width="1.0222" height="1.0262" color-interpolation-filters="sRGB">
   <feGaussianBlur stdDeviation="0.1199987"/>
  </filter>
 </defs>
 <g transform="translate(-10.228 -8.1581)">
  <path d="m26.632 16.625c0 0.95154-0.16749 1.8638-0.47464 2.7094-0.2135 0.58768-0.49438 1.1433-0.83392 1.6572-0.14222 0.21608-0.29514 0.42475-0.45746 0.62528-0.51965 0.64179-1.1372 1.2007-1.8305 1.6543-0.2553 0.16717-0.52064 0.3201-0.79536 0.45712-1.0668 0.53389-2.2711 0.83421-3.5456 0.83421-1.2745 0-2.4788-0.30032-3.5456-0.83423-0.27474-0.13705-0.5404-0.28997-0.7957-0.45712-0.70206-0.45972-1.327-1.0274-1.8509-1.6798-0.16262-0.20216-0.31523-0.41275-0.45745-0.63077-0.33046-0.50539-0.60421-1.0507-0.81349-1.627-0.3071-0.84528-0.4743-1.7573-0.4743-2.7084 0-4.3838 3.5537-7.9374 7.9374-7.9374 2.2005 0 4.1916 0.89547 5.6295 2.3417 0.41435 0.41661 0.78274 0.87928 1.0963 1.3795 0.29645 0.47107 0.54427 0.97581 0.73704 1.5068 0.30718 0.84558 0.47466 1.7579 0.47466 2.7094z" fill="url(#linearGradient1005)" stroke-width=".031006"/>
  <path transform="matrix(.29399 0 0 .29399 11.661 9.5832)" d="m27.29 13.258c-2.348 0.875-3.832 3.129-3.664 5.594l0.055 0.953-0.938-0.117c-3.418-0.445-6.406-1.961-8.941-4.504l-1.242-1.266-0.316 0.934c-0.68 2.078-0.246 4.273 1.164 5.75 0.75 0.813 0.582 0.93-0.715 0.445-0.449-0.156-0.848-0.273-0.883-0.215-0.133 0.137 0.316 1.906 0.676 2.602 0.488 0.973 1.484 1.926 2.574 2.488l0.918 0.445-1.086 0.02c-1.055 0-1.09 0.02-0.98 0.426 0.379 1.266 1.863 2.605 3.523 3.188l1.164 0.41-1.023 0.617c-1.5 0.895-3.266 1.398-5.03 1.438-0.848 0.02-1.543 0.098-1.543 0.156 0 0.195 2.293 1.281 3.625 1.707 4 1.266 8.754 0.719 12.324-1.434 2.535-1.535 5.074-4.586 6.258-7.535 0.637-1.574 1.277-4.449 1.277-5.828 0-0.891 0.055-1.01 1.109-2.078 0.617-0.621 1.199-1.301 1.313-1.492 0.188-0.371 0.168-0.371-0.789-0.039-1.598 0.578-1.824 0.504-1.031-0.371 0.582-0.621 1.273-1.746 1.273-2.078 0-0.059-0.281 0.039-0.598 0.215-0.34 0.191-1.09 0.484-1.652 0.66l-1.016 0.328-0.922-0.641c-0.516-0.348-1.227-0.738-1.605-0.855-0.957-0.27-2.422-0.23-3.285 0.078" fill="#0a1496" filter="url(#filter1054)" opacity=".1"/>
  <path d="m19.553 13.367c-0.69028 0.25724-1.1266 0.91989-1.0772 1.6446l0.01617 0.28017-0.27576-0.0344c-1.0049-0.13082-1.8833-0.57651-2.6286-1.3241l-0.36513-0.37219-0.0929 0.27458c-0.19991 0.61091-0.07232 1.2562 0.3422 1.6904 0.22049 0.23901 0.1711 0.27341-0.2102 0.13082-0.132-0.04586-0.2493-0.08026-0.25959-0.06321-0.0391 0.04028 0.0929 0.56034 0.19874 0.76496 0.14347 0.28605 0.43628 0.56622 0.75673 0.73144l0.26988 0.13082-0.31927 0.0059c-0.31016 0-0.32045 0.0059-0.28811 0.12524 0.11142 0.37219 0.5477 0.76584 1.0357 0.93724l0.3422 0.12054-0.30075 0.18139c-0.44098 0.26312-0.96017 0.411-1.4788 0.42276-0.2493 0.0059-0.45362 0.02881-0.45362 0.04586 0 0.05733 0.67412 0.3766 1.0657 0.50184 1.176 0.37219 2.5736 0.21138 3.6231-0.42158 0.74526-0.45127 1.4917-1.3482 1.8398-2.2152 0.18727-0.46274 0.37542-1.308 0.37542-1.7134 0-0.26194 0.01617-0.29693 0.32603-0.61091 0.18139-0.18257 0.35249-0.38248 0.38601-0.43863 0.05527-0.10907 0.04939-0.10907-0.23196-0.01146-0.46979 0.16992-0.53624 0.14817-0.3031-0.10907 0.1711-0.18257 0.37425-0.5133 0.37425-0.61091 0-0.01735-0.08261 0.01146-0.1758 0.06321-0.09996 0.05615-0.32045 0.14229-0.48567 0.19403l-0.29869 0.09643-0.27106-0.18845c-0.1517-0.10231-0.36072-0.21696-0.47185-0.25136-0.28135-0.07938-0.71204-0.06762-0.96575 0.02293" fill="#f1f5f8"/>
 </g>
</svg>
