<?xml version="1.0" encoding="UTF-8"?>
<svg width="64" height="64" version="1.1" viewBox="0 0 64 64" xmlns="http://www.w3.org/2000/svg" xmlns:cc="http://creativecommons.org/ns#" xmlns:dc="http://purl.org/dc/elements/1.1/" xmlns:rdf="http://www.w3.org/1999/02/22-rdf-syntax-ns#">
 <metadata>
  <rdf:RDF>
   <cc:Work rdf:about="">
    <dc:format>image/svg+xml</dc:format>
    <dc:type rdf:resource="http://purl.org/dc/dcmitype/StillImage"/>
    <dc:title/>
   </cc:Work>
  </rdf:RDF>
 </metadata>
 <defs>
  <filter id="filter998" x="-.0552" y="-.042462" width="1.1104" height="1.0849" color-interpolation-filters="sRGB">
   <feGaussianBlur stdDeviation="0.46"/>
  </filter>
  <linearGradient id="linearGradient996" x1="19.5" x2="19.5" y1="34" y2="17" gradientTransform="matrix(1.4904 -.1697 .1697 1.4904 -4.8237 -.11775)" gradientUnits="userSpaceOnUse">
   <stop stop-color="#f60" offset="0"/>
   <stop stop-color="#f80" offset="1"/>
  </linearGradient>
  <linearGradient id="linearGradient998" x1="32" x2="32" y1="37" y2="11" gradientTransform="matrix(1.4904 -.1697 .1697 1.4904 -4.8237 -.11775)" gradientUnits="userSpaceOnUse">
   <stop stop-color="#2d2d2d" offset="0"/>
   <stop stop-color="#535353" offset="1"/>
  </linearGradient>
  <filter id="filter1272" x="-.096004" y="-.096181" width="1.192" height="1.1924" color-interpolation-filters="sRGB">
   <feGaussianBlur stdDeviation="0.39771105"/>
  </filter>
  <filter id="filter1066-3" x="-.063923" y="-.056531" width="1.1278" height="1.1131" color-interpolation-filters="sRGB">
   <feGaussianBlur stdDeviation="0.22705935"/>
  </filter>
  <linearGradient id="linearGradient1040" x1="80.368" x2="82.141" y1="13.177" y2="14.704" gradientTransform="matrix(3.8684 0 0 3.8684 -265.29 -9.2249)" gradientUnits="userSpaceOnUse">
   <stop stop-color="#fafafa" offset="0"/>
   <stop stop-color="#90a0b3" offset="1"/>
  </linearGradient>
 </defs>
 <circle cx="31.726" cy="32.156" r="30" color="#000000" fill="#f3f3f3"/>
 <path transform="matrix(3.3629 0 0 3.6782 -135.4 -16.786)" d="m57.641 9.8253c0.81583 3.5615-6.4071 9.5974-9.8786 10.551l4.6899-0.01017c4.0983-2.6261 3.5124-2.2804 5.4351-4.4455z" fill="#9cb8d7" filter="url(#filter1272)" opacity=".2"/>
 <path d="m31.469 1.7576a30 30.173 0 0 0-30 30.174 30 30.173 0 0 0 20.932 28.75l2.0137-0.22787c14.201-3.9285 34.19-16.084 34.981-39.535a30 30.173 0 0 0-27.926-19.161zm27.994 19.342 1.6836 14.985a30 30.173 0 0 0 2e-3 -0.0079l-1.6797-14.959a30 30.173 0 0 0-6e-3 -0.01769z" color="#000000" fill="#fafafa" stroke-width="1.0029"/>
 <path d="m42.081 51.849 8.9709-1.0156-0.082-0.7168-7.7735 0.8828c-0.16396 0.12556-0.30373 0.29277-0.46874 0.41602-0.21083 0.15742-0.43409 0.2798-0.6465 0.4336z" color="#000000" color-rendering="auto" dominant-baseline="auto" fill="#dcdcdc" image-rendering="auto" shape-rendering="auto" solid-color="#000000" style="font-feature-settings:normal;font-variant-alternates:normal;font-variant-caps:normal;font-variant-ligatures:normal;font-variant-numeric:normal;font-variant-position:normal;isolation:auto;mix-blend-mode:normal;shape-padding:0;text-decoration-color:#000000;text-decoration-line:none;text-decoration-style:solid;text-indent:0;text-orientation:mixed;text-transform:none;white-space:normal"/>
 <path d="m51.307 40.835 6.8022-0.77081" fill="none" stroke="#dcdcdc" stroke-width=".71642"/>
 <path transform="matrix(4.1561 0 0 3.9009 -180.46 -15.83)" d="m57.818 9.8288s0.05354 3.0782-2.6636 4.5408c-2.2449 1.2084 0.9386 2.689-5.8599 5.0989 8.8505-2.5748 8.5235-9.6396 8.5235-9.6396z" fill="#141414" filter="url(#filter1066-3)" opacity=".3"/>
 <path transform="matrix(4.0385 0 0 3.7631 -173.28 -13.288)" d="m57.818 9.8288s0.05354 3.0782-2.6636 4.5408c-2.2449 1.2084 0.9386 2.689-5.8599 5.0989 8.8505-2.5748 8.5235-9.6396 8.5235-9.6396z" fill="#141414" filter="url(#filter1066-3)" opacity=".3"/>
 <g transform="translate(67.372 1.3129)">
  <path transform="matrix(1.4904 -.1697 .1697 1.4904 -73.482 -.11775)" d="m13 17v9.348c0 1.133 0.118 2.165 0.348 3.107 0.231 0.917 0.583 1.735 1.133 2.4 1.375 1.662 3.397 2.143 5.254 2.145 2.266 3e-3 4.266-0.245 6.266-1v-15.996h-3v13.996c-1 0.259-2 0.365-2.949 0.374-1.489 0.014-2.547-0.437-3.18-1.311-0.629-0.874-0.871-2.326-0.871-4.352v-8.71" filter="url(#filter998)" opacity=".15"/>
  <g transform="translate(-68.658)" stroke-width="1.5">
   <path d="m47.275 46.422c0.94175-0.93243 1.8319-1.9282 2.6816-2.9707l-3.7324-32.775-2.9805 0.33984 4.0312 35.406z" filter="url(#filter998)" opacity=".15"/>
   <path d="m17.436 23.012 1.5864 13.932c0.19228 1.6886 0.54327 3.2066 1.0459 4.5715 0.4999 1.3275 1.1633 2.4869 2.0959 3.3846 2.3313 2.2436 5.4265 2.6174 8.1944 2.3052 3.3777-0.38008 6.3163-1.0891 9.1689-2.5537l-2.7146-23.84-4.4711 0.50912 2.3752 20.859c-1.4464 0.55571-2.9188 0.8834-4.3316 1.0579-2.2168 0.27356-3.8701-0.21905-4.9619-1.4142-1.0858-1.1958-1.6928-3.3188-2.0367-6.3383l-1.4781-12.981" fill="url(#linearGradient996)"/>
   <path d="m47.275 46.422c0.94175-0.93243 1.8319-1.9282 2.6816-2.9707l-3.7324-32.775-2.9805 0.33984 4.0312 35.406z" fill="url(#linearGradient998)"/>
  </g>
 </g>
 <path d="m58.549 22.129s0.20712 11.908-10.304 17.566c-8.684 4.6746 3.6309 10.402-22.669 19.725 34.237-9.9604 33.244-37.154 33.244-37.154z" fill="url(#linearGradient1040)" stroke-width="3.8684"/>
 <path d="m58.549 22.129s-0.72965 12.1-9.6943 17.056c-10.313 5.7023 3.7542 10.798-23.416 20.025" fill="none" stroke="#fafafa" stroke-width=".51176"/>
 <path d="m59.464 21.1 1.6836 14.984a30 30.173 0 0 0 2e-3 -0.0078l-1.6797-14.959a30 30.173 0 0 0-4e-3 -0.01758h-2e-3z" color="#000000" fill="#fafafa" stroke-width="1.0029"/>
 <path d="m59.464 21.099 1.6836 14.985a30 30.173 0 0 0 2e-3 -0.0079l-1.6797-14.959a30 30.173 0 0 0-6e-3 -0.01769z" color="#000000" fill="#fafafa" stroke-width="1.0029"/>
</svg>
