<?xml version="1.0" encoding="UTF-8"?>
<!-- Created with Inkscape (http://www.inkscape.org/) -->
<svg width="64" height="64" version="1.1" viewBox="0 0 16.933 16.933" xmlns="http://www.w3.org/2000/svg" xmlns:xlink="http://www.w3.org/1999/xlink">
 <defs>
  <linearGradient id="linearGradient122580" x1="-253" x2="-198" y1="58.33" y2="58.33" gradientTransform="matrix(.17924 -.048026 .048026 .17924 46.843 -9.9779)" gradientUnits="userSpaceOnUse">
   <stop stop-color="#ddd" offset="0"/>
   <stop stop-color="#ebebeb" offset=".03522"/>
   <stop stop-color="#d5d5d5" offset=".054766"/>
   <stop stop-color="#f0f0f0" offset=".33059"/>
   <stop stop-color="#f0f0f0" offset=".50575"/>
   <stop stop-color="#f0f0f0" offset=".71508"/>
   <stop stop-color="#d3d3d3" offset=".94353"/>
   <stop stop-color="#ebebeb" offset=".96526"/>
   <stop stop-color="#e1e1e1" offset="1"/>
  </linearGradient>
  <linearGradient id="linearGradient158037" x1="-252.13" x2="-198.87" y1="33.15" y2="33.15" gradientTransform="matrix(.17924 -.048026 .048026 .17924 46.843 -9.9779)" gradientUnits="userSpaceOnUse">
   <stop stop-color="#189df7" offset="0"/>
   <stop stop-color="#189bf7" offset=".060278"/>
   <stop stop-color="#0587e4" offset=".10041"/>
   <stop stop-color="#1cadfa" offset=".31932"/>
   <stop stop-color="#1eaefb" offset=".50599"/>
   <stop stop-color="#1dacfa" offset=".69492"/>
   <stop stop-color="#068ee7" offset=".90466"/>
   <stop stop-color="#1ba1f9" offset=".9339"/>
   <stop stop-color="#169cf5" offset="1"/>
  </linearGradient>
  <linearGradient id="linearGradient3986" x1="-59.557" x2="-59.557" y1="15.884" y2="18.79" gradientTransform="matrix(.67741 -.18151 .18151 .67741 46.843 -9.9779)" gradientUnits="userSpaceOnUse">
   <stop stop-color="#dfdfdf" offset="0"/>
   <stop stop-color="#d2d2d2" offset=".53197"/>
   <stop stop-color="#cacaca" offset="1"/>
  </linearGradient>
  <linearGradient id="linearGradient12298" x1="-58.757" x2="-58.757" y1="16.466" y2="18.206" gradientTransform="matrix(.67741 -.18151 .17914 .66857 46.882 -9.8321)" gradientUnits="userSpaceOnUse">
   <stop stop-color="#c8c8c8" offset="0"/>
   <stop stop-color="#b8b8b8" offset="1"/>
  </linearGradient>
  <linearGradient id="linearGradient988" x1="-61.911" x2="-61.911" y1="14.023" y2="15.081" gradientTransform="matrix(.70131 0 0 .70131 44.777 4.572)" gradientUnits="userSpaceOnUse" xlink:href="#linearGradient24279"/>
  <linearGradient id="linearGradient24279">
   <stop stop-color="#0d0d0d" offset="0"/>
   <stop stop-color="#414141" offset="1"/>
  </linearGradient>
  <linearGradient id="linearGradient990" x1="-61.911" x2="-61.911" y1="14.023" y2="15.081" gradientTransform="matrix(.70131 0 0 .70131 45.15 4.5986)" gradientUnits="userSpaceOnUse" xlink:href="#linearGradient24279"/>
  <linearGradient id="linearGradient992" x1="-61.911" x2="-61.911" y1="14.023" y2="15.081" gradientTransform="matrix(.70131 0 0 .70131 45.524 4.6252)" gradientUnits="userSpaceOnUse" xlink:href="#linearGradient24279"/>
  <linearGradient id="linearGradient994" x1="-61.911" x2="-61.911" y1="14.023" y2="15.081" gradientTransform="matrix(.70131 0 0 .70131 45.897 4.6518)" gradientUnits="userSpaceOnUse" xlink:href="#linearGradient24279"/>
  <linearGradient id="linearGradient24281" x1="-61.911" x2="-61.911" y1="14.023" y2="15.081" gradientTransform="matrix(.70131 0 0 .70131 46.271 4.6784)" gradientUnits="userSpaceOnUse" xlink:href="#linearGradient24279"/>
  <linearGradient id="linearGradient45238" x1="-55.576" x2="-55.576" y1="13.942" y2="14.996" gradientTransform="matrix(.70131 0 0 .70131 48.632 4.4875)" gradientUnits="userSpaceOnUse">
   <stop stop-color="#070509" offset="0"/>
   <stop stop-color="#8e8e8e" offset="1"/>
  </linearGradient>
  <linearGradient id="linearGradient59949" x1="-55.566" x2="-55.566" y1="13.99" y2="14.865" gradientTransform="matrix(.70131 0 0 .70131 48.632 4.4875)" gradientUnits="userSpaceOnUse">
   <stop stop-color="#276000" offset="0"/>
   <stop stop-color="#90b800" offset="1"/>
  </linearGradient>
  <linearGradient id="linearGradient69044" x1="-55.566" x2="-55.566" y1="13.99" y2="14.865" gradientTransform="matrix(.58011 0 0 .58011 41.896 6.282)" gradientUnits="userSpaceOnUse">
   <stop stop-color="#cef59a" offset="0"/>
   <stop stop-color="#91ba00" offset="1"/>
  </linearGradient>
  <linearGradient id="linearGradient106117" x1="-55.566" x2="-55.566" y1="13.99" y2="14.223" gradientTransform="matrix(.56035 -.15015 .15015 .56035 42.094 -4.7755)" gradientUnits="userSpaceOnUse">
   <stop stop-color="#fff" offset="0"/>
   <stop stop-color="#bee571" offset="1"/>
  </linearGradient>
  <linearGradient id="linearGradient199209" x1="-28.818" x2="-28.818" y1="5.0549" y2="13.503" gradientTransform="matrix(.53308 -.14284 .14284 .53308 23.301 -2.7278)" gradientUnits="userSpaceOnUse">
   <stop stop-color="#0079c7" offset="0"/>
   <stop stop-color="#27acfe" offset="1"/>
  </linearGradient>
  <linearGradient id="b-5-6" x1="9.2603" x2="9.2603" y1="-.26249" y2="15.612" gradientTransform="translate(-.79384 .79164)" gradientUnits="userSpaceOnUse">
   <stop stop-color="#1c1d1d" offset="0"/>
   <stop stop-color="#313232" offset="1"/>
  </linearGradient>
 </defs>
 <circle cx="8.4665" cy="8.4665" r="7.9373" fill="url(#b-5-6)" image-rendering="optimizeSpeed" stroke-width=".96298" style="paint-order:stroke markers fill"/>
 <g stroke-width=".71449">
  <path d="m13.759 9.0763c-0.0056-0.00202-0.0112-0.00394-0.01689-0.00562-0.0099-0.00303-0.02002-0.00543-0.03019-0.00767-0.01013-0.00226-0.0204-0.00416-0.03078-0.00564-0.01033-0.00148-0.02076-0.00261-0.03127-0.00326-0.01054-6.96e-4 -0.02109-6.64e-4 -0.03165-5.251e-4s-0.02124 7.211e-4 -0.03179 0.00179c-0.01057 9.686e-4 -0.021 0.00242-0.03149 0.0043-0.01049 0.00187-0.02086 0.00404-0.03119 0.0068l-9.1356 2.4479c-0.010344 0.0028-0.02076 0.0061-0.030766 0.0098-0.010013 0.0036-0.01978 0.0076-0.029421 0.01202-0.00964 0.0044-0.019198 0.0092-0.028422 0.01435-0.00922 0.0052-0.018049 0.01032-0.026802 0.01619-0.00876 0.0059-0.017556 0.01206-0.025792 0.01855-0.00826 0.0065-0.016145 0.01323-0.023836 0.02027-0.00768 7e-3 -0.015225 0.01422-0.022318 0.02174-0.00412 0.0044-0.00782 9e-3 -0.011728 0.01365l0.25718 1.5283c0.00708 0.04188 0.020283 0.08084 0.03834 0.11654 0.00724 0.01428 0.015395 0.02794 0.024175 0.04118 0.00438 0.0066 0.00879 0.01331 0.013524 0.01964 0.014184 0.01897 0.030137 0.03663 0.047223 0.053 0.028476 0.02729 0.060527 0.05071 0.095333 0.07014 0.00691 0.0038 0.013868 0.0077 0.021014 0.01125 0.035824 0.01775 0.074285 0.03106 0.1139 0.04001 0.00789 0.0017 0.015789 0.0034 0.023814 0.0049 0.072214 0.0128 0.14801 0.01063 0.22156-0.0091l8.9107-2.3876c0.1716-0.04598 0.30702-0.18028 0.35332-0.33929 0.0066-0.02271 0.01158-0.04598 0.0144-0.06951 9.12e-4 -0.0078 0.0016-0.01594 0.0022-0.02385 9.39e-4 -0.01581 8.33e-4 -0.03166-1.4e-5 -0.04765-0.0022-0.03996-0.01029-0.08029-0.02504-0.12011z" fill="url(#linearGradient122580)"/>
  <path d="m13.712 8.953c-0.01073-0.00334-0.02175-0.00645-0.03277-0.00885-0.01224-0.00272-0.02445-0.00469-0.03693-0.00623-0.01249-0.00152-0.02528-0.00254-0.03794-0.00297-0.01264-3.405e-4 -0.02503-1.273e-4 -0.03771 6.828e-4 -0.01269 8.127e-4 -0.02564 0.00221-0.03825 0.00425-0.01261 0.00203-0.02482 0.00479-0.03722 0.00811l-9.1363 2.448c-0.012403 0.0033-0.024349 0.0071-0.03629 0.01159-0.011938 0.0045-0.023865 0.0098-0.035255 0.01545-0.011397 0.0056-0.022258 0.01155-0.033005 0.01826-0.010774 0.0066-0.021314 0.01399-0.031372 0.02154-0.010056 0.0076-0.019636 0.01541-0.02887 0.02387-0.00833 0.0076-0.016323 0.01584-0.023949 0.02405l0.021694 0.13001c0.00393-0.0046 0.00759-0.0092 0.011728-0.01365 0.00707-0.0076 0.014616-0.01471 0.022318-0.02174 0.00768-7e-3 0.015585-0.0138 0.023836-0.02027 0.00826-0.0065 0.017025-0.01274 0.025799-0.01855 0.00875-0.0059 0.017578-0.01103 0.026802-0.01619 0.00922-0.0052 0.018762-0.01 0.028422-0.01434 0.00964-0.0044 0.019398-0.0084 0.029421-0.01202 0.01002-0.0036 0.020422-7e-3 0.030766-0.0098l9.1356-2.4479c0.01035-0.00277 0.0207-0.00497 0.03119-0.0068 0.01048-0.00187 0.02092-0.00333 0.03149-0.0043 0.01057-9.686e-4 0.02122-0.00165 0.03179-0.00179 0.01056-1.389e-4 0.02114-1.786e-4 0.03166 5.251e-4 0.01054 6.96e-4 0.02088 0.00176 0.03127 0.00326 0.01033 0.00148 0.0206 0.00338 0.03078 0.00564 0.01013 0.00226 0.0203 0.00471 0.03019 0.00767 0.0057 0.0018 0.01134 0.00369 0.01689 0.00562z" fill="#015cbe"/>
  <path d="m3.401 4.3456c-0.099152 0.02638-0.18046 0.065902-0.2408 0.1193-0.10202 0.072544-0.12879 0.16436-0.12696 0.3019l1.1343 6.7439c0.0076-0.0082 0.015613-0.01646 0.023949-0.02405 0.00924-0.0085 0.018826-0.01629 0.02887-0.02387 0.010056-0.0076 0.020621-0.01484 0.031372-0.02154 0.010774-0.0066 0.021608-0.01262 0.032999-0.01826 0.011397-0.0056 0.023324-0.01091 0.035255-0.01545 0.011945-0.0045 0.023887-0.0083 0.03629-0.01159l9.1362-2.448c0.0124-0.00332 0.02462-0.00604 0.03722-0.00811 0.01261-0.00203 0.02557-0.00344 0.03825-0.00425 0.01269-8.127e-4 0.02505-0.00112 0.03771-6.829e-4 0.01264 3.405e-4 0.02546 0.00146 0.03794 0.00297 0.01249 0.00152 0.0247 0.00353 0.03693 0.00623 0.01102 0.00243 0.02206 0.00556 0.03277 0.00885l-2.3896-6.4075c-0.0672-0.12003-0.13639-0.1865-0.261-0.19833-0.07896-0.016068-0.16905-0.0093-0.26809 0.017431l-3.6951 0.99648z" fill="url(#linearGradient158037)"/>
 </g>
 <g stroke-linecap="round" stroke-linejoin="round">
  <path d="m4.7373 12.831 9.1403-2.4491c0.19859-0.05321 0.42992 0.0583 0.45452 0.26242l0.15693 1.3026c0.02459 0.20412-0.06382 0.4013-0.26242 0.45452l-8.782 2.3531c-0.19859 0.053212-0.37375-0.073348-0.45452-0.26242l-0.5154-1.2065c-0.080764-0.18907 0.063818-0.4013 0.26242-0.45452z" color="#000000" fill="url(#linearGradient3986)" stroke-width=".037342" style="-inkscape-stroke:none"/>
  <path d="m5.0122 13.141 8.782-2.3531c0.09929-0.02661 0.21128 0.02966 0.22726 0.1312l0.14503 0.92163c0.01598 0.10155-0.03191 0.20065-0.1312 0.22725l-8.5936 2.3027c-0.099295 0.02661-0.1905-0.03521-0.22725-0.1312l-0.33363-0.87109c-0.036764-0.09599 0.03191-0.20065 0.13121-0.22725z" color="#000000" fill="#6c6c6c" stroke-width=".028685" style="-inkscape-stroke:none"/>
  <path d="m4.7371 12.83c-0.19859 0.05321-0.34318 0.26545-0.26242 0.45452l0.0099 0.02286c-0.00881-0.15985 0.11867-0.3147 0.28424-0.35907l9.141-2.4493c0.16557-0.04436 0.3534 0.02599 0.4257 0.16884l-0.0029-0.02473c-0.02459-0.20412-0.25593-0.31563-0.45452-0.26242z" color="#000000" fill="#fafafa" stroke-width=".037343" style="-inkscape-stroke:none"/>
  <path d="m5.0502 13.167 8.7244-2.3377c0.09864-0.02643 0.20631 0.0094 0.22293 0.11977l0.12992 0.86273c0.01431 0.09506-0.03453 0.18876-0.13317 0.21519l-8.5374 2.2876c-0.098645 0.02643-0.18797-0.03023-0.22293-0.11977l-0.31727-0.81253c-0.041815-0.10709 0.034538-0.18876 0.13318-0.21518z" color="#000000" fill="url(#linearGradient12298)" stroke-width=".027638" style="-inkscape-stroke:none"/>
  <path d="m4.8742 13.342c0.00161 9e-3 0.00388 0.01799 0.00722 0.02696l0.33359 0.8711c0.036766 0.096 0.12796 0.15781 0.22725 0.13121l8.5936-2.3027c0.0993-0.02661 0.14719-0.12571 0.1312-0.22726l-0.1449-0.92166c-0.0016-0.0094-0.0041-0.01833-0.0072-0.02696l0.1449 0.92166c0.01597 0.10155-0.03191 0.20065-0.13121 0.22725l-8.5936 2.3027c-0.099295 0.02661-0.19049-0.03522-0.22725-0.1312z" color="#000000" fill="#f0f0f0" stroke-width=".028685" style="-inkscape-stroke:none"/>
  <g stroke-width=".037111">
   <rect transform="rotate(-19.072)" x="1.172" y="14.407" width=".18556" height=".74219" ry=".092776" fill="url(#linearGradient988)"/>
   <path d="m5.8424 13.313c6.219e-4 0.0024 0.00114 5e-3 0.00197 0.0073l0.18221 0.52598c0.016793 0.04857 0.069218 0.07415 0.1178 0.05737 0.047517-0.01646 0.073194-0.06706 0.058551-0.11474 0.01 0.04543-0.015349 0.09215-0.060428 0.10774-0.048594 0.01675-0.1011-0.0091-0.11789-0.0577z" fill="#f0f0f0"/>
   <rect transform="rotate(-19.072)" x="1.5451" y="14.433" width=".18556" height=".74219" ry=".092776" fill="url(#linearGradient990)"/>
   <path d="m6.2041 13.216c6.22e-4 0.0024 0.00114 5e-3 0.00197 0.0073l0.18221 0.52598c0.016793 0.04857 0.069218 0.07415 0.1178 0.05736 0.047517-0.01646 0.073194-0.06706 0.058551-0.11474 0.01 0.04543-0.015349 0.09215-0.060428 0.10774-0.048594 0.01675-0.1011-0.0091-0.11789-0.0577z" fill="#f0f0f0"/>
   <rect transform="rotate(-19.072)" x="1.9189" y="14.459" width=".18556" height=".74219" ry=".092776" fill="url(#linearGradient992)"/>
   <path d="m6.5658 13.119c6.221e-4 0.0024 0.00114 5e-3 0.00197 0.0073l0.18221 0.52598c0.016793 0.04857 0.069218 0.07415 0.1178 0.05737 0.047517-0.01646 0.073194-0.06706 0.058551-0.11474 0.01 0.04543-0.015349 0.09215-0.060428 0.10774-0.048594 0.01675-0.1011-0.0091-0.11789-0.0577z" fill="#f0f0f0"/>
   <rect transform="rotate(-19.072)" x="2.292" y="14.486" width=".18556" height=".74219" ry=".092776" fill="url(#linearGradient994)"/>
   <path d="m6.9269 13.023c6.221e-4 0.0024 0.00114 5e-3 0.00197 0.0073l0.18221 0.52598c0.016793 0.04857 0.069218 0.07415 0.1178 0.05736 0.047517-0.01646 0.073194-0.06706 0.058551-0.11474 0.01 0.04543-0.015349 0.09215-0.060428 0.10774-0.048587 0.01675-0.1011-0.0091-0.11789-0.0577z" fill="#f0f0f0"/>
   <rect transform="rotate(-19.072)" x="2.6658" y="14.513" width=".18556" height=".74219" ry=".092776" fill="url(#linearGradient24281)"/>
   <path d="m7.2886 12.926c6.219e-4 0.0024 0.00114 5e-3 0.00197 0.0073l0.18221 0.52598c0.016793 0.04857 0.069218 0.07415 0.1178 0.05737 0.047517-0.01646 0.073194-0.06706 0.058551-0.11474 0.01 0.04543-0.015349 0.09215-0.060428 0.10774-0.048587 0.01675-0.1011-0.0091-0.11789-0.0577z" fill="#f0f0f0"/>
  </g>
  <circle transform="rotate(-15)" cx="9.656" cy="14.637" r=".37111" fill="url(#linearGradient45238)" stroke-width=".041779"/>
  <path d="m13.469 11.525a0.37111 0.37111 45 0 1-0.26524 0.44252 0.37111 0.37111 45 0 1-0.44978-0.24754 0.37111 0.37111 45 0 0 0.0034 0.01561 0.37111 0.37111 45 0 0 0.45452 0.26242 0.37111 0.37111 45 0 0 0.26242-0.45452 0.37111 0.37111 45 0 0-0.0053-0.01846z" fill="#d9d9d9" stroke-width=".04178"/>
  <ellipse transform="rotate(-15)" cx="9.656" cy="14.612" rx=".33734" ry=".31331" fill="#33323a" stroke-width=".0366"/>
  <ellipse transform="rotate(-15)" cx="9.656" cy="14.607" rx=".33138" ry=".30778" fill="url(#linearGradient59949)" stroke-width=".035953"/>
  <ellipse transform="rotate(-15)" cx="9.656" cy="14.653" rx=".27411" ry=".25459" fill="url(#linearGradient69044)" stroke-width=".02974"/>
  <path d="m13.054 11.409a0.25458 0.27411 75 0 0-0.19872 0.317 0.25458 0.27411 75 0 0 0.0175 0.0456 0.25237 0.27173 75 0 1-0.01161-0.03366 0.25237 0.27173 75 0 1 0.19682-0.31425 0.25237 0.27173 75 0 1 0.32792 0.17364 0.25237 0.27173 75 0 1 0.0062 0.03285 0.25458 0.27411 75 0 0-0.0071-0.04613 0.25458 0.27411 75 0 0-0.33094-0.17508z" fill="url(#linearGradient106117)" stroke-width=".029741"/>
 </g>
 <path d="m4.3544 11.396c-0.012404 0.0033-0.024349 0.0071-0.036291 0.01159-0.011945 0.0045-0.023865 0.0098-0.035255 0.01545-0.011397 0.0056-0.022258 0.01155-0.032999 0.01826-0.010774 0.0066-0.021314 0.01399-0.031372 0.02154-0.010056 0.0076-0.019635 0.01541-0.02887 0.02387-0.00833 0.0076-0.016323 0.01585-0.023949 0.02405l0.021694 0.13001c0.00134-0.0015 0.00278-0.0029 0.00409-0.0045l-0.013192-0.07864c0.0076-0.0082 0.015618-0.01644 0.023949-0.02405 0.00924-0.0085 0.018818-0.01632 0.02887-0.02387 0.010056-0.0076 0.020621-0.01484 0.031372-0.02154 0.010774-0.0066 0.021634-0.01253 0.033005-0.01826 0.011397-0.0056 0.023298-0.011 0.035255-0.01545 0.011938-0.0045 0.023887-0.0083 0.03629-0.01159l9.1362-2.4481c0.0124-0.00332 0.02462-0.00602 0.03722-0.00811 0.01261-0.00203 0.0256-0.00334 0.03825-0.00425 0.01269-8.127e-4 0.02504-0.00112 0.03771-6.829e-4 0.01264 3.405e-4 0.02545 0.00146 0.03794 0.00297 0.01247 0.00152 0.0247 0.00353 0.03693 0.00623 0.01103 0.00243 0.02206 0.00555 0.03277 0.00885l0.02779 0.074351c0.0019 6.225e-4 0.0038 0.00115 0.0057 0.00189l-0.046129-0.12308c-0.01073-0.00334-0.02175-0.00645-0.03277-0.00885-0.01224-0.00272-0.02445-0.00469-0.03693-0.00623-0.01249-0.00152-0.02528-0.00254-0.03794-0.00297-0.01264-3.405e-4 -0.02502-1.273e-4 -0.03771 6.828e-4 -0.01269 8.127e-4 -0.02564 0.00221-0.03826 0.00425-0.01261 0.00203-0.02482 0.00479-0.03722 0.00811z" fill="#2cabfc" stroke-width=".71449"/>
 <path d="m8.9201 5.0544c-0.047578-0.17756-0.2297-0.28271-0.40627-0.2354-0.17657 0.047311-0.28172 0.22944-0.23441 0.406 0.03234 0.12069 0.12751 0.20853 0.24096 0.23693 0.016982 0.011488 0.033975 0.039005 0.037984 0.053969l0.00107 4e-3c0.039064 0.17771 0.047355 0.32836 0.040636 0.43495-0.0092144 0.13718-0.2752 0.49712-0.40093 0.55861-0.05465 0.027473-0.080401 0.015154-0.10607-0.080632l-0.37526-1.4005c-0.00401-0.014964-0.00739-0.035439 0.00558-0.054954 0.070286-0.080838 0.10095-0.19384 0.071009-0.30556-0.047576-0.17756-0.2297-0.28271-0.40627-0.2354-0.17657 0.047311-0.28172 0.22944-0.23414 0.407 0.030202 0.11271 0.11479 0.19697 0.2178 0.23031l0.00129 7.425e-4c0.00129 7.424e-4 0.00223 4.888e-4 0.00452 8.893e-4 0.00223 4.888e-4 0.00452 8.893e-4 0.00703 0.0024 0.026953 0.00882 0.040935 0.021109 0.044142 0.033078l0.5247 1.9582c0.01871 0.069828 0.021908 0.12563-0.05225 0.14016-0.074161 0.014502-0.47878-0.12296-0.6306-0.30252-0.070284-0.082734-0.11808-0.16937-0.14267-0.26114l-0.00134-0.00501c-0.0082894-0.030927-0.030205-0.11272-0.0044329-0.14421 0.062037-0.079702 0.087052-0.18583 0.058985-0.29058-0.047578-0.17756-0.2297-0.28271-0.40627-0.2354s-0.28525 0.22825-0.23767 0.40581c0.031806 0.1187 0.12444 0.20508 0.2339 0.23455 0.027949 0.00855 0.037679 0.020906 0.066238 0.095573 0.02856 0.074674 0.095681 0.23737 0.19742 0.37369 0.12253 0.16603 0.29562 0.26933 0.51683 0.34477 0.16052 0.056422 0.29675 0.097962 0.39077 0.17755 0.094021 0.079576 0.13783 0.1074 0.17391 0.24207 0.034211 0.12768-0.00248 0.15035-0.045193 0.20242-0.1174 0.12447-0.16973 0.30422-0.12216 0.48177l0.00294 0.010981c0.073506 0.27432 0.35556 0.43715 0.62987 0.36365s0.43715-0.35555 0.36365-0.62987c-0.035547-0.13266-0.11976-0.23947-0.22833-0.30553-0.037485-0.024167-0.075892-0.043811-0.11794-0.057134-0.088712-0.031823-0.13348-0.087183-0.15112-0.15303l-0.064419-0.24041c-0.067089-0.25038-0.068957-0.42093-0.031742-0.56135 0.038871-0.14619 0.12214-0.27436 0.26171-0.43577 0.15386-0.17594 0.2501-0.35141 0.27421-0.55672 0.018368-0.15887-0.0070496-0.32954-0.050263-0.53073-0.0038-0.01823-0.00153-0.061594 0.014741-0.076649 0.067292-0.080036 0.097224-0.19176 0.067821-0.3015z" fill="#0892e7" stroke="url(#linearGradient199209)" stroke-width=".0092776"/>
</svg>
