<?xml version="1.0" encoding="UTF-8"?>
<svg width="64" height="64" version="1.1" viewBox="0 0 16.933 16.933" xmlns="http://www.w3.org/2000/svg" xmlns:cc="http://creativecommons.org/ns#" xmlns:dc="http://purl.org/dc/elements/1.1/" xmlns:rdf="http://www.w3.org/1999/02/22-rdf-syntax-ns#">
 <defs>
  <linearGradient id="a-3-35" x1="99.036" x2="99.036" y1="-.50472" y2="199.84" gradientTransform="matrix(.079373 0 0 .079373 14.368 7.924)" gradientUnits="userSpaceOnUse">
   <stop stop-color="#00a8f1" offset="0"/>
   <stop stop-color="#0093ed" offset="1"/>
  </linearGradient>
  <filter id="filter3926" x="-.013809" y="-.0030687" width="1.0276" height="1.0061" color-interpolation-filters="sRGB">
   <feGaussianBlur stdDeviation="0.057538167"/>
  </filter>
  <clipPath id="a-6">
   <path d="m-1 1335h1029v-1334h-1029z"/>
  </clipPath>
 </defs>
 <metadata>
  <rdf:RDF>
   <cc:Work rdf:about="">
    <dc:format>image/svg+xml</dc:format>
    <dc:type rdf:resource="http://purl.org/dc/dcmitype/StillImage"/>
   </cc:Work>
  </rdf:RDF>
 </metadata>
 <g transform="translate(-13.838 -7.3948)">
  <circle cx="22.305" cy="15.861" r="7.9373" color="#000000" fill="url(#a-3-35)" stroke-width=".26458"/>
  <circle transform="matrix(1 0 0 -1 14.5 304.48)" cx="7.8047" cy="292.32" r=".94494" fill-rule="evenodd" filter="url(#filter3926)" opacity=".15" stroke-width=".3004"/>
  <path transform="matrix(.15891 0 0 .15891 -76.808 -71.125)" d="m618.69 538.71c0-2.761 2.239-5 5-5 2.762 0 5 2.239 5 5v35c0 2.762-2.238 5-5 5-2.761 0-5-2.238-5-5z" filter="url(#filter3926)" opacity=".15"/>
  <circle transform="scale(1,-1)" cx="22.305" cy="-11.945" r=".94494" fill="#fff" fill-rule="evenodd" stroke-width=".3004"/>
  <g transform="matrix(.15891 0 0 .15891 -76.808 -71.345)" clip-path="url(#a-6)" fill="#fff">
   <path d="m618.69 538.71c0-2.761 2.239-5 5-5 2.762 0 5 2.239 5 5v35c0 2.762-2.238 5-5 5-2.761 0-5-2.238-5-5z" fill="#fff"/>
  </g>
 </g>
</svg>
