<?xml version="1.0" encoding="UTF-8" standalone="no"?>
<svg
   xmlns:dc="http://purl.org/dc/elements/1.1/"
   xmlns:cc="http://creativecommons.org/ns#"
   xmlns:rdf="http://www.w3.org/1999/02/22-rdf-syntax-ns#"
   xmlns:svg="http://www.w3.org/2000/svg"
   xmlns="http://www.w3.org/2000/svg"
   xmlns:xlink="http://www.w3.org/1999/xlink"
   xmlns:sodipodi="http://sodipodi.sourceforge.net/DTD/sodipodi-0.dtd"
   xmlns:inkscape="http://www.inkscape.org/namespaces/inkscape"
   id="Calculator"
   width="64"
   height="64"
   enable-background="new 0 0 1024 1024"
   image-rendering="optimizeSpeed"
   version="1.1"
   viewBox="0 0 64 64"
   sodipodi:docname="virtualbox.svg"
   inkscape:version="1.0 (4035a4fb49, 2020-05-01)">
  <metadata
     id="metadata53">
    <rdf:RDF>
      <cc:Work
         rdf:about="">
        <dc:format>image/svg+xml</dc:format>
        <dc:type
           rdf:resource="http://purl.org/dc/dcmitype/StillImage" />
        <dc:title></dc:title>
      </cc:Work>
    </rdf:RDF>
  </metadata>
  <sodipodi:namedview
     inkscape:document-rotation="0"
     pagecolor="#ffffff"
     bordercolor="#666666"
     borderopacity="1"
     objecttolerance="10"
     gridtolerance="10"
     guidetolerance="10"
     inkscape:pageopacity="0"
     inkscape:pageshadow="2"
     inkscape:window-width="1920"
     inkscape:window-height="932"
     id="namedview51"
     showgrid="false"
     inkscape:zoom="2.1075097"
     inkscape:cx="10.458817"
     inkscape:cy="47.500706"
     inkscape:window-x="0"
     inkscape:window-y="36"
     inkscape:window-maximized="1"
     inkscape:current-layer="Calculator" />
  <defs
     id="defs26">
    <linearGradient
       id="linearGradient925"
       inkscape:collect="always">
      <stop
         id="stop921"
         offset="0"
         style="stop-color:#7bcbea;stop-opacity:1" />
      <stop
         id="stop923"
         offset="1"
         style="stop-color:#03b9fe;stop-opacity:1" />
    </linearGradient>
    <linearGradient
       inkscape:collect="always"
       id="linearGradient915">
      <stop
         style="stop-color:#7bcbe9;stop-opacity:0.60000002"
         offset="0"
         id="stop911" />
      <stop
         style="stop-color:#00b9ff;stop-opacity:0.60000002"
         offset="1"
         id="stop913" />
    </linearGradient>
    <linearGradient
       id="linearGradient903"
       inkscape:collect="always">
      <stop
         id="stop899"
         offset="0"
         style="stop-color:#00b2ed;stop-opacity:1" />
      <stop
         id="stop901"
         offset="1"
         style="stop-color:#009bdb;stop-opacity:1" />
    </linearGradient>
    <linearGradient
       id="c"
       x1="98.123"
       x2="510.56"
       y1="1517.5"
       y2="828.58"
       gradientTransform="matrix(.04938 0 0 .047429 27.948 -18.091)"
       gradientUnits="userSpaceOnUse">
      <stop
         stop-color="#7ccbea"
         offset="0"
         id="stop2" />
      <stop
         stop-color="#00b9ff"
         offset="1"
         id="stop4" />
    </linearGradient>
    <linearGradient
       id="i"
       x1="98.123"
       x2="510.56"
       y1="1517.5"
       y2="828.58"
       gradientTransform="matrix(0.035272,0,0,0.033878,29.106,-3.7792)"
       gradientUnits="userSpaceOnUse"
       xlink:href="#c" />
    <linearGradient
       id="h"
       x1="23"
       x2="40"
       y1="46"
       y2="19"
       gradientUnits="userSpaceOnUse"
       xlink:href="#c" />
    <linearGradient
       id="g"
       x1="22"
       x2="43"
       y1="49"
       y2="16"
       gradientUnits="userSpaceOnUse">
      <stop
         stop-color="#00b2ed"
         offset="0"
         id="stop9" />
      <stop
         stop-color="#009bdb"
         offset="1"
         id="stop11" />
    </linearGradient>
    <linearGradient
       id="b"
       x1="25.36"
       x2="422.28"
       y1="1469.4"
       y2="819.98"
       gradientTransform="matrix(0.035272,0,0,0.033878,29.106,-3.7792)"
       gradientUnits="userSpaceOnUse"
       xlink:href="#c" />
    <filter
       id="k"
       x="-.064"
       y="-.056471"
       width="1.128"
       height="1.1129"
       color-interpolation-filters="sRGB">
      <feGaussianBlur
         stdDeviation="0.8"
         id="feGaussianBlur15" />
    </filter>
    <filter
       id="j"
       x="-.064163"
       y="-.056344"
       width="1.1283"
       height="1.1127"
       color-interpolation-filters="sRGB">
      <feGaussianBlur
         stdDeviation="0.96245117"
         id="feGaussianBlur18" />
    </filter>
    <linearGradient
       id="linearGradient862-3"
       x1="7.9373"
       x2="7.9373"
       y1="15.081"
       y2="1.852"
       gradientTransform="matrix(3.7796,0,0,3.7796,-120.04512,1.9984759)"
       gradientUnits="userSpaceOnUse">
      <stop
         stop-color="#f1efeb"
         offset="0"
         id="stop21" />
      <stop
         stop-color="#fdfcfc"
         offset="1"
         id="stop23" />
    </linearGradient>
    <linearGradient
       gradientTransform="translate(77.847908)"
       gradientUnits="userSpaceOnUse"
       y2="2.2888737"
       x2="-16.097355"
       y1="61.504597"
       x1="-75.191689"
       id="linearGradient905"
       xlink:href="#linearGradient903"
       inkscape:collect="always" />
    <linearGradient
       gradientTransform="matrix(0.83333333,0,0,0.83333333,70.20659,5.3333309)"
       y2="2.2888737"
       x2="-16.097355"
       y1="61.504597"
       x1="-75.191689"
       gradientUnits="userSpaceOnUse"
       id="linearGradient909"
       xlink:href="#linearGradient915"
       inkscape:collect="always" />
    <linearGradient
       y2="2.2888737"
       x2="-16.097355"
       y1="61.504597"
       x1="-75.191689"
       gradientTransform="matrix(0.66666666,0,0,0.66666666,62.565272,10.666665)"
       gradientUnits="userSpaceOnUse"
       id="linearGradient919"
       xlink:href="#linearGradient925"
       inkscape:collect="always" />
  </defs>
  <circle
     r="30"
     cy="32"
     cx="32"
     id="path855"
     style="opacity:1;fill:url(#linearGradient905);fill-opacity:1;stroke-width:2.69104;stroke-linecap:round" />
  <circle
     style="opacity:1;fill:url(#linearGradient909);fill-opacity:1;stroke-width:2.24253;stroke-linecap:round"
     id="circle907"
     cx="32"
     cy="32"
     r="25" />
  <circle
     r="20"
     cy="32"
     cx="32"
     id="circle917"
     style="opacity:1;fill:url(#linearGradient919);fill-opacity:1;stroke-width:1.79402;stroke-linecap:round" />
  <path
     id="path929"
     fill-opacity="0.80102"
     fill="#ffffff"
     d="m 37.686835,32.84245 c -0.0912,0.298105 -0.43986,0.545309 -0.77926,0.550651 l -3.75926,0.05917 c -0.30697,0.0048 -0.50523,-0.18957 -0.46249,-0.457514 l 0.62144,-4.192544 -4.65056,10.835715 c -0.11013,0.25517 -0.40674,0.462742 -0.70729,0.486495 -0.0176,0.0012 -0.0325,0.003 -0.051,0.0033 -0.2741,0.0043 -0.46722,-0.150587 -0.46762,-0.385187 l -0.082,-6.235674 -2.97824,3.3283 c -0.17883,0.200339 -0.4629,0.3249 -0.70372,0.295258 -0.24574,-0.02284 -0.4027,-0.181193 -0.39912,-0.397411 l 0.0746,-3.361757 -4.62365,0.07278 c -0.3377,0.0055 -0.53978,-0.233412 -0.44869,-0.53113 0.0915,-0.29907 0.44204,-0.545343 0.77969,-0.550658 l 5.10196,-0.08031 c 0.28134,-0.0044 0.4768,0.16062 0.47056,0.400513 l -0.0532,2.400128 2.92939,-3.272002 c 0.17612,-0.199335 0.45413,-0.321879 0.69352,-0.296826 0.24198,0.01944 0.40307,0.171387 0.40892,0.382461 l 0.0637,4.863868 5.32381,-12.398253 c 0.11541,-0.271009 0.43506,-0.480481 0.74794,-0.489633 0.3374,0.02044 0.5128,0.189067 0.47304,0.458693 l -1.19472,8.03098 3.22507,-0.05077 c 0.33825,-0.0051 0.5382,0.233629 0.44711,0.531347 z m 3.413544,-0.591925 -1.941744,0.03057 c -0.33743,0.0053 -0.68838,0.252936 -0.77948,0.550654 -0.0912,0.298105 0.11099,0.536638 0.44842,0.531327 l 1.941749,-0.03057 c 0.336771,-0.0053 0.68826,-0.25255 0.779472,-0.550655 0.09115,-0.297912 -0.111646,-0.536628 -0.448417,-0.531326 z m 4.181265,-0.06582 -2.066421,0.03253 c -0.336772,0.0053 -0.688379,0.252936 -0.779472,0.550654 -0.09121,0.298105 0.111646,0.536628 0.448417,0.531327 l 2.066421,-0.03253 c 0.336552,-0.0053 0.68826,-0.25255 0.779472,-0.550655 0.09115,-0.297911 -0.111865,-0.536624 -0.448417,-0.531326 z"
     style="stroke-width:0.205184" />
</svg>
