<?xml version="1.0" encoding="UTF-8"?>
<!-- Created with Inkscape (http://www.inkscape.org/) -->
<svg width="64" height="64" version="1.1" viewBox="0 0 16.933 16.933" xmlns="http://www.w3.org/2000/svg">
 <defs>
  <linearGradient id="c-3" x1="24.535" x2="24.535" y1="7.0931" y2="44.483" gradientTransform="matrix(.38005 0 0 .38005 17.378 -26.673)" gradientUnits="userSpaceOnUse">
   <stop stop-color="#76dd38" offset="0"/>
   <stop stop-color="#42c440" offset=".48433"/>
   <stop stop-color="#14ab4b" offset="1"/>
  </linearGradient>
  <filter id="filter5339" x="-.1891" y="-.079887" width="1.3782" height="1.1598" color-interpolation-filters="sRGB">
   <feGaussianBlur stdDeviation="0.21156371"/>
  </filter>
  <linearGradient id="linearGradient4773" x1="63.287" x2="65.973" y1="22.316" y2="22.316" gradientTransform="matrix(1.1725 0 0 1.1725 -45.849 -9.0588)" gradientUnits="userSpaceOnUse">
   <stop stop-color="#faffff" offset="0"/>
   <stop stop-color="#fff" offset="1"/>
  </linearGradient>
  <linearGradient id="linearGradient3039" x1="63.887" x2="57.767" y1="19.031" y2="24.171" gradientTransform="matrix(.31022 0 0 .31022 2.3343 7.1802)" gradientUnits="userSpaceOnUse">
   <stop stop-color="#82dc82" offset="0"/>
   <stop stop-color="#f0f0ff" offset="1"/>
  </linearGradient>
  <linearGradient id="d-39" x1="87" x2="63" y1="46" y2="24" gradientTransform="matrix(.31022 0 0 .31022 2.3343 7.1802)" gradientUnits="userSpaceOnUse">
   <stop stop-color="#82dc82" offset="0"/>
   <stop stop-color="#ebebfa" offset=".46709"/>
   <stop stop-color="#f0f5ff" offset="1"/>
  </linearGradient>
 </defs>
 <g transform="translate(-18.064 -8.4928)">
  <circle transform="scale(1,-1)" cx="26.531" cy="-16.959" r="7.9375" color="#000000" fill="url(#c-3)" overflow="visible" stroke-width=".26458" style="isolation:auto;mix-blend-mode:normal"/>
  <g fill-rule="evenodd">
   <g stroke-width=".26458">
    <path transform="matrix(1.1145 0 0 1.1758 -42.271 -9.133)" d="m63.643 18.096c-0.09052 0.0101-0.17861 0.04111-0.26664 0.09922 0.13772 0.17144-0.1403 1.7855 0.20785 2.004l0.2717 0.17053v3.8922l-0.42679 0.31977c-0.32895 0.24647 0.02978 1.6662-0.05651 1.8488 0.09533 0.05818 0.23775 0.12029 0.36237 0.10514 0.03992-0.0049 0.08033-0.01602 0.1204-0.03566l1.7368-0.85162c0.18929-0.09277 0.38033-0.16953 0.38033-0.38033v-5.9043c0-0.2108-0.19104-0.28757-0.38033-0.38033l-1.7368-0.85162c-0.04007-0.01964-0.08048-0.0308-0.1204-0.03566-0.03116-0.0038-0.06181-0.0034-0.09198 0z" filter="url(#filter5339)" opacity=".2" style="paint-order:stroke fill markers"/>
    <path transform="matrix(1.1145 0 0 1.1758 -42.271 -9.133)" d="m57.616 23.498 5.6511-5.2228c0.25656-0.23712 0.58887-0.15304 0.58887 0.33742v1.7579l-5.2244 3.9957c-0.09136 0.07175-0.32943 0.24313-0.53715 0.04563l-0.52855-0.50251c-0.1387-0.13187-0.05988-0.30961 0.0501-0.41126z" filter="url(#filter5339)" opacity=".2" style="paint-order:stroke fill markers"/>
    <path transform="matrix(1.1145 0 0 1.1758 -42.271 -9.133)" d="m57.616 21.132 5.6511 5.2228c0.25656 0.23712 0.58887 0.15304 0.58887-0.33742v-1.7579l-5.2244-3.9957c-0.09136-0.07175-0.32943-0.24313-0.53715-0.04563l-0.52855 0.50251c-0.1387 0.13186-0.05988 0.30961 0.0501 0.41126z" filter="url(#filter5339)" opacity=".2" style="paint-order:stroke fill markers"/>
   </g>
   <g stroke-width=".31022">
    <path d="m28.772 12.159c-0.10613 0.01184-0.20942 0.0482-0.31263 0.11634 0.16148 0.20101-0.1645 2.0935 0.2437 2.3497l0.31857 0.19994v4.5636l-0.50041 0.37493c-0.38569 0.28898 0.03492 1.9536-0.06626 2.1677 0.11177 0.06822 0.27876 0.14104 0.42488 0.12328 0.04681-0.0057 0.09419-0.01878 0.14117-0.04181l2.0364-0.99852c0.22194-0.10877 0.44593-0.19877 0.44593-0.44593v-6.9227c0-0.24716-0.22399-0.33717-0.44593-0.44593l-2.0364-0.99852c-0.04698-0.02303-0.09436-0.03611-0.14117-0.04181-0.03653-0.0045-0.07247-4e-3 -0.10784 0z" fill="url(#linearGradient4773)" style="paint-order:stroke fill markers"/>
    <path d="m21.705 18.492 6.6259-6.1237c0.30082-0.27802 0.69044-0.17944 0.69044 0.39562v2.0611l-6.1256 4.6849c-0.10712 0.08413-0.38625 0.28507-0.6298 0.0535l-0.61972-0.58919c-0.16262-0.15462-0.07021-0.36302 0.05874-0.4822z" fill="url(#linearGradient3039)" style="paint-order:stroke fill markers"/>
    <path d="m21.705 15.718 6.6259 6.1237c0.30082 0.27802 0.69044 0.17944 0.69044-0.39562v-2.0611l-6.1256-4.6849c-0.10712-0.08413-0.38625-0.28507-0.6298-0.0535l-0.61972 0.58919c-0.16262 0.1546-0.07021 0.36302 0.05874 0.4822z" fill="url(#d-39)" style="paint-order:stroke fill markers"/>
   </g>
  </g>
 </g>
</svg>
