<?xml version="1.0" encoding="UTF-8"?>
<!-- Created with Inkscape (http://www.inkscape.org/) -->
<svg width="64" height="64" version="1.1" viewBox="0 0 16.933 16.933" xmlns="http://www.w3.org/2000/svg" xmlns:xlink="http://www.w3.org/1999/xlink">
 <defs>
  <linearGradient id="linearGradient1920" x1="2.3738" x2="61.483" y1="62.182" y2="2.6229" gradientTransform="matrix(.26458 0 0 .26458 9.4723 8.2238)" gradientUnits="userSpaceOnUse">
   <stop stop-color="#1566ff" offset="0"/>
   <stop stop-color="#15a8ff" offset="1"/>
  </linearGradient>
  <filter id="e" x="-.075" y="-.075" width="1.15" height="1.15" color-interpolation-filters="sRGB">
   <feGaussianBlur stdDeviation="7.9999998"/>
  </filter>
  <filter id="d" x="-.075" y="-.075" width="1.15" height="1.15" color-interpolation-filters="sRGB">
   <feGaussianBlur stdDeviation="7.9999998"/>
  </filter>
  <linearGradient id="c" x1="-1.3559" x2="-1.3559" y1="-59.119" y2="196.88" gradientTransform="matrix(.026338 -.0025256 .0025256 .026338 17.039 15.797)" gradientUnits="userSpaceOnUse">
   <stop stop-color="#ffeb42" offset="0"/>
   <stop stop-color="#ff9311" offset="1"/>
  </linearGradient>
  <linearGradient id="a" x1="62.644" x2="62.644" y1="-123.12" y2="132.88" gradientTransform="matrix(.026338 -.0025256 .0025256 .026338 17.039 15.797)" gradientUnits="userSpaceOnUse">
   <stop stop-color="#fff" offset="0"/>
   <stop stop-color="#e8e8e8" offset="1"/>
  </linearGradient>
 </defs>
 <g transform="translate(-9.4723 -8.2238)">
  <circle cx="17.939" cy="16.69" r="7.9375" fill="url(#linearGradient1920)" stroke-linecap="round" stroke-width=".6654"/>
  <path transform="matrix(.026338 -.0025256 .0025256 .026338 17.039 15.797)" d="m102.64 196.88c13.297 0 24-10.703 24-24v-208c0-13.297-10.703-24-24-24h-208c-13.297 0-24 10.703-24 24v208c0 13.297 10.703 24 24 24zm-40-64h-128v-128h128z" filter="url(#e)" opacity=".15" stroke-width="13.333"/>
  <path transform="matrix(.026338 -.0025256 .0025256 .026338 17.039 15.797)" d="m166.64 132.88c13.297 0 24-10.703 24-24v-208c0-13.297-10.703-24-24-24h-208c-13.297 0-24 10.703-24 24v40h192v128h-128v-64h-64v104c0 13.297 10.703 24 24 24z" filter="url(#d)" opacity=".15" stroke-width="13.333"/>
  <path d="m20.239 20.723c0.35021-0.03358 0.60507-0.3425 0.57149-0.69271l-0.52532-5.4782c-0.03358-0.35021-0.3425-0.60507-0.69271-0.57149l-5.4782 0.52532c-0.35021 0.03358-0.60507 0.3425-0.57149 0.69271l0.52532 5.4782c0.03358 0.35021 0.3425 0.60507 0.69271 0.57149zm-1.2151-1.5846-3.3712 0.32327-0.32327-3.3712 3.3712-0.32327z" fill="url(#c)" stroke-width=".35277"/>
  <path d="m21.763 18.875c0.35021-0.03358 0.60507-0.3425 0.57149-0.69271l-0.52532-5.4782c-0.03358-0.35021-0.3425-0.60507-0.69271-0.57149l-5.4782 0.52532c-0.35021 0.03358-0.60507 0.3425-0.57149 0.69271l0.10102 1.0535 5.0568-0.48491 0.32327 3.3712-3.3712 0.32327-0.16164-1.6856-1.6856 0.16164 0.26266 2.7391c0.03358 0.35021 0.3425 0.60507 0.69271 0.57149z" fill="url(#a)" stroke-width=".35277"/>
 </g>
</svg>
