<?xml version="1.0" encoding="UTF-8"?>
<!-- Created with Inkscape (http://www.inkscape.org/) -->
<svg width="64" height="64" version="1.1" viewBox="0 0 16.933 16.933" xmlns="http://www.w3.org/2000/svg">
 <defs>
  <linearGradient id="linearGradient1005-3-3" x1="7.4778" x2="9.0954" y1="15.67" y2="2.7627" gradientTransform="translate(-.059059 7.0474)" gradientUnits="userSpaceOnUse">
   <stop stop-color="#fe6d00" offset="0"/>
   <stop stop-color="#fe7100" offset=".36953"/>
   <stop stop-color="#ffb400" offset="1"/>
  </linearGradient>
  <filter id="b" x="-.06" y="-.06" width="1.12" height="1.12" color-interpolation-filters="sRGB">
   <feGaussianBlur stdDeviation="0.6"/>
  </filter>
 </defs>
 <g transform="translate(.022869 -7.041)">
  <path d="m16.381 15.508c0 0.95154-0.16749 1.8638-0.47464 2.7095-0.2135 0.58768-0.49439 1.1433-0.83393 1.6572-0.14222 0.21608-0.29513 0.42475-0.45746 0.62529-0.51965 0.64179-1.1372 1.2006-1.8304 1.6542-0.2553 0.16717-0.52065 0.3201-0.79537 0.45712-1.0668 0.53389-2.2711 0.83422-3.5457 0.83422-1.2745 0-2.4788-0.30033-3.5457-0.83424-0.27474-0.13705-0.5404-0.28997-0.79571-0.45712-0.70206-0.45973-1.327-1.0274-1.8508-1.6798-0.16262-0.20216-0.31524-0.41276-0.45746-0.63078-0.33047-0.50539-0.60421-1.0507-0.8135-1.627-0.30711-0.84529-0.4743-1.7572-0.4743-2.7085 0-4.3838 3.5537-7.9375 7.9375-7.9375 2.2005 0 4.1917 0.89548 5.6295 2.3416 0.41436 0.41662 0.78275 0.87929 1.0963 1.3794 0.29644 0.47108 0.54427 0.97582 0.73704 1.5068 0.30718 0.84559 0.47466 1.7579 0.47466 2.7095z" fill="url(#linearGradient1005-3-3)" stroke-width=".031006"/>
  <path transform="matrix(.39373 0 0 .39373 -1.0056 6.0583)" d="m14 12c-1 0-2 1-2 2v7c0 1 1 2 2 2s2-1 2-2v-3l2 2v3h3v-1c-0.031-0.664 0.301-0.996 1-1h1v-3h-3l-2-2h3c1 0 2-1 2-2s-1-2-2-2m6 0c-1 0-2 1-2 2s1 2 2 2h3l-2 2h-3v3h1c0.664-0.031 0.996 0.301 1 1v1h3v-3l2-2v3c0 1 1 2 2 2s2-1 2-2v-7c0-1-1-2-2-2m-16 13v3c0 1 1 2 2 2h3v-3h-1c-0.664 0.031-0.996-0.301-1-1v-1m6 0v1c0.031 0.664-0.301 0.996-1 1h-1v3h3l2 2h-3c-1 0-2 1-2 2s1 2 2 2h7c1 0 2-1 2-2v-7c0-1-1-2-2-2s-2 1-2 2v3l-2-2v-3" filter="url(#b)" opacity=".15" stroke-width=".76667"/>
  <path d="m4.5065 10.783c-0.39373 0-0.78745 0.39373-0.78745 0.78745v2.7561c0 0.39372 0.39373 0.78745 0.78745 0.78745 0.39373 0 0.78745-0.39372 0.78745-0.78745v-1.1812l0.78745 0.78745v1.1812h1.1812v-0.39372c-0.012205-0.26143 0.11851-0.39215 0.39373-0.39372h0.39373v-1.1812h-1.1812l-0.78745-0.78745h1.1812c0.39373 0 0.78745-0.39372 0.78745-0.78745s-0.39373-0.78745-0.78745-0.78745m2.3624 0c-0.39373 0-0.78745 0.39373-0.78745 0.78745s0.39373 0.78745 0.78745 0.78745h1.1812l-0.78745 0.78745h-1.1812v1.1812h0.39373c0.26143-0.0122 0.39215 0.11851 0.39373 0.39372v0.39372h1.1812v-1.1812l0.78745-0.78745v1.1812c0 0.39372 0.39372 0.78745 0.78745 0.78745s0.78745-0.39372 0.78745-0.78745v-2.7561c0-0.39372-0.39373-0.78745-0.78745-0.78745m-6.2996 5.1184v1.1812c0 0.39373 0.39373 0.78745 0.78745 0.78745h1.1812v-1.1812h-0.39373c-0.26143 0.012205-0.39215-0.11851-0.39373-0.39372v-0.39372m2.3624 0v0.39372c0.012205 0.26143-0.11851 0.39215-0.39373 0.39372h-0.39373v1.1812h1.1812l0.78745 0.78745h-1.1812c-0.39373 0-0.78745 0.39372-0.78745 0.78745 0 0.39372 0.39373 0.78745 0.78745 0.78745h2.7561c0.39372 0 0.78745-0.39372 0.78745-0.78745v-2.7561c0-0.39372-0.39373-0.78745-0.78745-0.78745s-0.78745 0.39372-0.78745 0.78745v1.1812l-0.78745-0.78745v-1.1812" fill-opacity=".70161" stroke-width=".30186"/>
 </g>
</svg>
