<?xml version="1.0" encoding="UTF-8"?>
<!-- Created with Inkscape (http://www.inkscape.org/) -->
<svg width="64" height="64" version="1.1" viewBox="0 0 16.933 16.933" xmlns="http://www.w3.org/2000/svg">
 <defs>
  <linearGradient id="linearGradient1005-3-3-7" x1="5.2535" x2="9.3824" y1="15.383" y2="2.9421" gradientTransform="matrix(.99999 0 0 .99999 7.4989 4.255)" gradientUnits="userSpaceOnUse">
   <stop stop-color="#0098f0" offset="0"/>
   <stop stop-color="#0087e6" offset=".36953"/>
   <stop stop-color="#00b9ff" offset="1"/>
  </linearGradient>
  <linearGradient id="linearGradient1989" x1="3.5601" x2="16.388" y1="13.475" y2=".64687" gradientTransform="matrix(.3966 0 0 .3966 12.629 9.3597)" gradientUnits="userSpaceOnUse">
   <stop stop-color="#0096f0" offset="0"/>
   <stop stop-color="#00b9ff" offset="1"/>
  </linearGradient>
  <filter id="filter2043" x="-.061541" y="-.061543" width="1.1231" height="1.1231" color-interpolation-filters="sRGB">
   <feGaussianBlur stdDeviation="0.12641235"/>
  </filter>
  <linearGradient id="linearGradient1967" x1="45.906" x2="47.124" y1="-12.504" y2="-11.243" gradientTransform="matrix(1.0296 0 0 1.0296 -31.532 24.713)" gradientUnits="userSpaceOnUse">
   <stop stop-color="#ff4632" offset="0"/>
   <stop stop-color="#ff6e41" offset=".51344"/>
   <stop stop-color="#ff2800" offset="1"/>
  </linearGradient>
  <linearGradient id="linearGradient1975" x1="44.636" x2="45.2" y1="-10.874" y2="-10.319" gradientTransform="matrix(1.0296 0 0 1.0296 -31.532 24.713)" gradientUnits="userSpaceOnUse">
   <stop stop-color="#fefffe" offset="0"/>
   <stop stop-color="#fff" offset=".78351"/>
   <stop stop-color="#c1e4f9" offset="1"/>
  </linearGradient>
 </defs>
 <g transform="translate(-7.5338 -4.2483)">
  <path d="m23.938 12.715c0 0.95154-0.16749 1.8638-0.47464 2.7094-0.2135 0.58768-0.49438 1.1433-0.83392 1.6572-0.14222 0.21608-0.29514 0.42475-0.45746 0.62528-0.51965 0.64179-1.1372 1.2007-1.8305 1.6543-0.2553 0.16717-0.52064 0.3201-0.79536 0.45712-1.0668 0.53388-2.2711 0.8342-3.5456 0.8342s-2.4788-0.30032-3.5456-0.83423c-0.27474-0.13705-0.5404-0.28997-0.7957-0.45712-0.70206-0.45972-1.327-1.0274-1.8509-1.6798-0.16262-0.20216-0.31523-0.41275-0.45746-0.63077-0.33046-0.50539-0.60421-1.0507-0.81349-1.627-0.30711-0.84528-0.4743-1.7573-0.4743-2.7084 0-4.3838 3.5537-7.9374 7.9374-7.9374 2.2005 0 4.1916 0.89547 5.6295 2.3417 0.41435 0.41661 0.78274 0.87928 1.0963 1.3795 0.29645 0.47107 0.54427 0.97581 0.73704 1.5068 0.30718 0.84558 0.47466 1.7579 0.47466 2.7094z" fill="url(#linearGradient1005-3-3-7)" stroke-width=".031006"/>
  <g fill="#5ad7fa">
   <path d="m20.643 12.715c0 0.55647-0.09795 1.09-0.27758 1.5845-0.12486 0.34368-0.28913 0.66862-0.48768 0.96916-0.08317 0.12636-0.17261 0.2484-0.26753 0.36568-0.3039 0.37533-0.66504 0.70217-1.0705 0.96744-0.1493 0.09776-0.30448 0.1872-0.46514 0.26733-0.62388 0.31222-1.3282 0.48786-2.0735 0.48786-0.74536 0-1.4496-0.17563-2.0735-0.48787-0.16067-0.08015-0.31603-0.16957-0.46533-0.26733-0.41058-0.26886-0.77605-0.60082-1.0824-0.98238-0.09511-0.11822-0.18435-0.24138-0.26753-0.36888-0.19326-0.29556-0.35335-0.61446-0.47574-0.95149-0.1796-0.49433-0.27738-1.0277-0.27738-1.5839 0-2.5637 2.0782-4.642 4.6419-4.642 1.2869 0 2.4513 0.52369 3.2922 1.3694 0.24232 0.24364 0.45775 0.51422 0.64111 0.80674 0.17337 0.27549 0.3183 0.57066 0.43103 0.88118 0.17964 0.49452 0.27759 1.0281 0.27759 1.5845z" stroke-width=".018133"/>
   <g stroke-width="1.0909">
    <path d="m15.982 6.1939-1.3028 2.2564h2.6456z"/>
    <path d="m15.982 19.236-1.3028-2.2564h2.6456z"/>
    <path d="m22.522 12.695-2.2564-1.3028v2.6456z"/>
    <path d="m9.4799 12.695 2.2564-1.3028v2.6456z"/>
   </g>
  </g>
  <path d="m19.149 12.715c0 0.37738-0.06642 0.73921-0.18824 1.0746-0.08468 0.23308-0.19607 0.45343-0.33074 0.65726-0.0564 0.0857-0.11706 0.16846-0.18143 0.24799-0.2061 0.25453-0.45101 0.47619-0.72597 0.65609-0.10125 0.06629-0.20649 0.12695-0.31544 0.18129-0.42309 0.21174-0.90072 0.33086-1.4062 0.33086-0.50548 0-0.9831-0.11911-1.4062-0.33086-0.10896-0.05436-0.21432-0.115-0.31558-0.18129-0.27845-0.18233-0.52629-0.40747-0.73406-0.66622-0.06449-0.08017-0.12502-0.1637-0.18143-0.25017-0.13106-0.20045-0.23963-0.41671-0.32263-0.64528-0.1218-0.33524-0.18811-0.69694-0.18811-1.0742 0-1.7386 1.4094-3.1481 3.1481-3.1481 0.87273 0 1.6625 0.35515 2.2327 0.92871 0.16434 0.16523 0.31043 0.34872 0.43479 0.54711 0.11757 0.18683 0.21586 0.387 0.29231 0.5976 0.12183 0.33536 0.18825 0.6972 0.18825 1.0746z" fill="url(#linearGradient1989)" stroke-width=".012297"/>
  <path class="shp40" transform="matrix(1.0296 0 0 1.0296 -31.532 24.713)" d="m45.499-12.155 1.4322 1.4322 3.4977-4.9299zm-3.4975 4.9299 4.9299-3.4977-1.4322-1.4322z" fill="#141414" filter="url(#filter2043)" opacity=".2" stroke-width=".46039"/>
  <path transform="matrix(1.0296 0 0 1.0296 -31.532 24.713)" d="m45.499-12.154-3.4975 4.9296 4.9299-3.4975-1.4322-1.4322z" fill="#141414" filter="url(#filter2043)" opacity=".2" stroke-width=".46039"/>
  <path class="shp40" d="m15.314 12.198 1.4746 1.4746 3.6013-5.0759zm-3.6011 5.0759 5.0759-3.6013-1.4746-1.4746z" fill="url(#linearGradient1967)" stroke-width=".47402"/>
  <path d="m15.314 12.199-3.6011 5.0756 5.0759-3.6011-1.4746-1.4746z" fill="url(#linearGradient1975)" stroke-width=".47402"/>
 </g>
</svg>
