<?xml version="1.0" encoding="UTF-8" standalone="no"?>
<svg
   xmlns:dc="http://purl.org/dc/elements/1.1/"
   xmlns:cc="http://creativecommons.org/ns#"
   xmlns:rdf="http://www.w3.org/1999/02/22-rdf-syntax-ns#"
   xmlns:svg="http://www.w3.org/2000/svg"
   xmlns="http://www.w3.org/2000/svg"
   xmlns:xlink="http://www.w3.org/1999/xlink"
   xmlns:sodipodi="http://sodipodi.sourceforge.net/DTD/sodipodi-0.dtd"
   xmlns:inkscape="http://www.inkscape.org/namespaces/inkscape"
   width="64"
   height="64"
   version="1.1"
   viewBox="0 0 16.933 16.933"
   id="svg41"
   sodipodi:docname="webstorm.svg"
   inkscape:version="1.0 (4035a4fb49, 2020-05-01)">
  <metadata
     id="metadata45">
    <rdf:RDF>
      <cc:Work
         rdf:about="">
        <dc:format>image/svg+xml</dc:format>
        <dc:type
           rdf:resource="http://purl.org/dc/dcmitype/StillImage" />
        <dc:title></dc:title>
      </cc:Work>
    </rdf:RDF>
  </metadata>
  <sodipodi:namedview
     inkscape:document-rotation="0"
     pagecolor="#ffffff"
     bordercolor="#666666"
     borderopacity="1"
     objecttolerance="10"
     gridtolerance="10"
     guidetolerance="10"
     inkscape:pageopacity="0"
     inkscape:pageshadow="2"
     inkscape:window-width="1920"
     inkscape:window-height="932"
     id="namedview43"
     showgrid="false"
     inkscape:zoom="4.2150193"
     inkscape:cx="52.444347"
     inkscape:cy="31.754645"
     inkscape:window-x="0"
     inkscape:window-y="36"
     inkscape:window-maximized="1"
     inkscape:current-layer="svg41" />
  <defs
     id="defs15">
    <linearGradient
       id="linearGradient860"
       inkscape:collect="always">
      <stop
         id="stop856"
         offset="0"
         style="stop-color:#52c3c9;stop-opacity:1" />
      <stop
         id="stop858"
         offset="1"
         style="stop-color:#42daa1;stop-opacity:1" />
    </linearGradient>
    <filter
       id="h"
       x="-.06"
       y="-.06"
       width="1.12"
       height="1.12"
       color-interpolation-filters="sRGB">
      <feGaussianBlur
         stdDeviation="0.85"
         id="feGaussianBlur2" />
    </filter>
    <linearGradient
       id="g"
       x1="32"
       x2="32"
       y1="15"
       y2="49"
       gradientTransform="scale(.26458)"
       gradientUnits="userSpaceOnUse">
      <stop
         stop-color="#303030"
         offset="0"
         id="stop5" />
      <stop
         stop-color="#424242"
         offset="1"
         id="stop7" />
    </linearGradient>
    <linearGradient
       id="linearGradient862-3"
       x1="7.9373"
       x2="7.9373"
       y1="15.081"
       y2="1.852"
       gradientTransform="matrix(0.99996,0,0,0.99996,21.356329,0.0083453)"
       gradientUnits="userSpaceOnUse">
      <stop
         stop-color="#54c0cd"
         offset="0"
         id="stop10" />
      <stop
         stop-color="#40dd9d"
         offset="1"
         id="stop12" />
    </linearGradient>
    <filter
       id="h-6"
       x="-.06"
       y="-.06"
       width="1.12"
       height="1.12"
       color-interpolation-filters="sRGB">
      <feGaussianBlur
         stdDeviation="0.85"
         id="feGaussianBlur2-7" />
    </filter>
    <linearGradient
       id="g-5"
       x1="32"
       x2="32"
       y1="15"
       y2="49"
       gradientTransform="matrix(0.26458,0,0,0.26458,-22.458237,0)"
       gradientUnits="userSpaceOnUse">
      <stop
         stop-color="#303030"
         offset="0"
         id="stop5-3" />
      <stop
         stop-color="#424242"
         offset="1"
         id="stop7-5" />
    </linearGradient>
    <linearGradient
       id="linearGradient862-3-6"
       x1="7.9373"
       x2="7.9373"
       y1="15.081"
       y2="1.852"
       gradientTransform="matrix(0.99996,0,0,0.99996,-22.458199,0.0083453)"
       gradientUnits="userSpaceOnUse">
      <stop
         stop-color="#33db7f"
         offset="0"
         id="stop10-2" />
      <stop
         stop-color="#addf4f"
         offset="1"
         id="stop12-9" />
    </linearGradient>
    <linearGradient
       gradientUnits="userSpaceOnUse"
       y2="0.65080768"
       x2="16.369019"
       y1="16.246002"
       x1="0.6186381"
       id="linearGradient862"
       xlink:href="#linearGradient860"
       inkscape:collect="always" />
  </defs>
  <circle
     r="7.9373436"
     cy="8.4665003"
     cx="8.4665003"
     id="path854"
     style="fill:url(#linearGradient862);stroke-width:0.40721;stroke-linecap:round;fill-opacity:1" />
  <rect
     transform="matrix(.26458 0 0 .26458 -.042436 -.04234)"
     x="15.16"
     y="15.16"
     width="34"
     height="34"
     ry="5"
     fill="#303030"
     fill-rule="evenodd"
     filter="url(#h)"
     opacity=".5"
     style="paint-order:stroke fill markers"
     id="rect33" />
  <rect
     x="3.9687"
     y="3.9687"
     width="8.9957"
     height="8.9957"
     ry="1.3229"
     fill="url(#g)"
     fill-rule="evenodd"
     stroke-width=".26458"
     style="paint-order:stroke fill markers"
     id="rect35" />
  <path
     d="m9.6858 7.8419c0.29909 0.24301 0.55791 0.38271 0.93176 0.38271 0.29909 0 0.62118-0.13949 0.62118-0.34511v-0.0187c0-0.18693-0.2101-0.3228-0.77089-0.47234-0.67294-0.16823-1.107-0.55285-1.107-0.9857v-0.018694c0-0.61686 0.58377-0.95474 1.2567-0.95474 0.48602 0 0.78274 0.16188 1.136 0.37527l-0.34594 0.47145c-0.29909-0.20562-0.50964-0.22555-0.79002-0.22555-0.2804 0-0.62118 0.13718-0.62118 0.30541v0.057777c0 0.22431 0.21569 0.329 0.77648 0.47854 0.67294 0.18693 1.0741 0.40063 1.0741 0.9125v0.018694c0 0.57802-0.5191 1.0224-1.2294 1.0224-0.50471-0.018688-0.94477-0.20911-1.3373-0.56427m-0.52621-2.8522-0.62118 2.1741-0.62118-2.1741h-0.62118l-0.62118 2.1741-0.62118-2.1741h-0.62118l0.93176 3.4165h0.62118l0.62118-2.1741 0.62118 2.1741h0.62118l0.93176-3.4165"
     fill="#f9f9f9"
     stroke-width=".26457"
     id="path37" />
  <path
     d="m5.027 11.02h3.1059v0.62118h-3.1059z"
     fill="#f9f9f9"
     stroke-width=".26457"
     id="path39" />
</svg>
