<?xml version="1.0" encoding="UTF-8"?>
<!-- Created with Inkscape (http://www.inkscape.org/) -->
<svg width="64" height="64" version="1.1" viewBox="0 0 16.933 16.933" xmlns="http://www.w3.org/2000/svg" xmlns:xlink="http://www.w3.org/1999/xlink">
 <defs>
  <linearGradient id="linearGradient886-2" x1="44.171" x2="44.171" y1="13.358" y2="154.97" gradientTransform="matrix(.066159 0 0 .066159 5.4159 1.4606)" gradientUnits="userSpaceOnUse">
   <stop stop-color="#4d717b" offset="0"/>
   <stop stop-color="#251e3c" offset="1"/>
  </linearGradient>
  <linearGradient id="b-5-3" x1="9.2603" x2="9.2603" y1="-.26249" y2="15.612" gradientTransform="matrix(1 0 0 1 10.354 7.5698)" gradientUnits="userSpaceOnUse">
   <stop stop-color="#1c1d1d" offset="0"/>
   <stop stop-color="#313232" offset="1"/>
  </linearGradient>
  <linearGradient id="linearGradient858-6" x1="-149.66" x2="-149.66" y1="195.4" y2="197.12" gradientTransform="matrix(.055133 0 0 .055133 27.758 10.176)" gradientUnits="userSpaceOnUse">
   <stop stop-color="#918a98" offset="0"/>
   <stop stop-color="#656268" offset="1"/>
  </linearGradient>
  <linearGradient id="linearGradient838-5" x1="-146.65" x2="-146.65" y1="195.59" y2="157.63" gradientTransform="matrix(.055133 0 0 .055133 27.758 10.176)" gradientUnits="userSpaceOnUse">
   <stop stop-color="#dee2e7" offset="0"/>
   <stop stop-color="#d5d9e1" offset=".187"/>
   <stop stop-color="#afb4b9" offset=".43348"/>
   <stop stop-color="#979da4" offset=".54615"/>
   <stop stop-color="#9398a0" offset=".69404"/>
   <stop stop-color="#818b91" offset=".81846"/>
   <stop stop-color="#6b7177" offset="1"/>
  </linearGradient>
  <linearGradient id="linearGradient41069-2" x1="44.171" x2="44.171" y1="13.358" y2="154.97" gradientTransform="matrix(.055133 0 0 .055133 17.072 10.117)" gradientUnits="userSpaceOnUse" xlink:href="#linearGradient886-2"/>
  <linearGradient id="linearGradient898-4" x1="37.639" x2="37.639" y1="15.912" y2="150.34" gradientTransform="matrix(.055133 0 0 .055133 17.072 10.117)" gradientUnits="userSpaceOnUse">
   <stop stop-color="#c1fff7" offset="0"/>
   <stop stop-color="#88feea" offset=".038424"/>
   <stop stop-color="#2f8ffe" offset="1"/>
  </linearGradient>
  <linearGradient id="linearGradient2592-3" x1="-62.269" x2="-71.96" y1="40.499" y2="31.752" gradientTransform="matrix(.88491 0 0 .88491 75.525 -12.896)" gradientUnits="userSpaceOnUse">
   <stop stop-color="#019c80" offset="0"/>
   <stop stop-color="#00b16f" offset="1"/>
  </linearGradient>
  <linearGradient id="linearGradient2594-8" x1="-60.03" x2="-38.806" y1="38.857" y2="33.707" gradientTransform="matrix(.88491 0 0 .88491 63.255 -13.859)" gradientUnits="userSpaceOnUse">
   <stop stop-color="#019c80" offset="0"/>
   <stop stop-color="#8fc53f" offset="1"/>
  </linearGradient>
  <linearGradient id="linearGradient10689-8" x1="44.171" x2="44.171" y1="13.358" y2="154.97" gradientTransform="matrix(.01893 0 0 .01893 21.743 11.23)" gradientUnits="userSpaceOnUse" xlink:href="#linearGradient886-2"/>
  <linearGradient id="linearGradient10691-4" x1="37.639" x2="37.639" y1="15.912" y2="150.34" gradientTransform="matrix(.01893 0 0 .01893 21.743 11.23)" gradientUnits="userSpaceOnUse">
   <stop stop-color="#fff" offset="0"/>
   <stop stop-color="#ebebeb" offset="1"/>
  </linearGradient>
 </defs>
 <g transform="translate(-11.148 -6.7782)">
  <circle cx="19.615" cy="15.245" r="7.9375" fill="url(#b-5-3)" stroke-width=".963" style="paint-order:stroke markers fill"/>
  <g stroke-width=".055133">
   <path d="m17.731 20.229c-0.20777 0.26442-0.4078 0.46528-0.40454 0.59317 0.0029 0.11527 0.11126 0.27078 0.22657 0.27078h4.142c0.11531 0 0.20522-0.15919 0.20815-0.27446 0.0033-0.12787-0.19677-0.32873-0.40454-0.59317z" fill-opacity=".1623" style="paint-order:fill markers stroke"/>
   <path d="m17.731 20.191c-0.20777 0.26442-0.4078 0.46528-0.40454 0.59317 0.0029 0.11527 0.11126 0.27078 0.22657 0.27078h4.142c0.11531 0 0.20522-0.15919 0.20815-0.27446 0.0033-0.12787-0.19677-0.32873-0.40454-0.59317z" fill="url(#linearGradient858-6)" style="paint-order:fill markers stroke"/>
   <path d="m17.731 20.3c-0.20777 0.26442-0.4078 0.46528-0.40454 0.59317 0.0029 0.11527 0.11126 0.27078 0.22657 0.27078h4.142c0.11531 0 0.20522-0.15919 0.20815-0.27446 0.0033-0.12787-0.19677-0.32873-0.40454-0.59317z" fill-opacity=".036649" style="paint-order:fill markers stroke"/>
   <path d="m17.731 20.259c-0.20777 0.26442-0.4078 0.46528-0.40454 0.59317 0.0029 0.11527 0.11126 0.27078 0.22657 0.27078h4.142c0.11531 0 0.20522-0.15919 0.20815-0.27446 0.0033-0.12787-0.19677-0.32873-0.40454-0.59318z" fill-opacity=".04712" style="paint-order:fill markers stroke"/>
   <path d="m19.575 18.782-2.8e-5 8.55e-4 -1.1668 0.01c-0.1153 9.88e-4 -0.21794 0.09326-0.20813 0.20816 0.0544 0.63717-0.21049 0.84794-0.44987 1.1526-0.20777 0.26442-0.4078 0.46528-0.40454 0.59317 0.0029 0.11527 0.09284 0.20815 0.20815 0.20815h4.142c0.11531 0 0.20522-0.09287 0.20815-0.20815 0.0033-0.12787-0.19677-0.32873-0.40454-0.59317-0.23938-0.30465-0.50427-0.5154-0.44987-1.1526 0.0098-0.1149-0.09282-0.20717-0.20813-0.20816l-1.1668-0.01-2.8e-5 -8.55e-4 -0.04974 4.41e-4z" fill="url(#linearGradient838-5)" style="paint-order:fill markers stroke"/>
  </g>
  <g stroke-width=".83334">
   <path d="m15.051 10.747h9.1376c0.84184 0 1.2153 0.40474 1.3334 1.3334l0.69884 5.4922c0.09324 0.73281-0.59471 1.3334-1.3334 1.3334h-10.545c-0.73872 0-1.4279-0.60079-1.3334-1.3334l0.70852-5.4922c0.11719-0.90842 0.40315-1.3334 1.3334-1.3334z" fill="#7a8693" style="paint-order:fill markers stroke"/>
   <path d="m15.051 10.747h9.1376c0.84184 0 1.2143 0.40486 1.3334 1.3334l0.678 5.2839c0.08512 0.66332-0.44884 1.3334-1.3126 1.3334h-10.545c-1.0923 0-1.3827-0.9665-1.3334-1.3334l0.70852-5.2839c0.12173-0.90784 0.40315-1.3334 1.3334-1.3334z" fill="url(#linearGradient41069-2)" style="paint-order:fill markers stroke"/>
   <path d="m15.269 10.997h8.6792c0.93026 0 1.1875 0.17822 1.3334 1.3334l0.60432 4.7829c0.12118 0.95909-0.37517 1.3334-1.2389 1.3334h-10.087c-1.0923 0-1.3213-0.6144-1.2303-1.3334l0.60537-4.7829c0.11978-0.94634 0.27054-1.3334 1.3334-1.3334z" fill="url(#linearGradient898-4)" style="paint-order:fill markers stroke"/>
  </g>
  <path d="m13.571 15.214-0.24028 1.8995c-0.09101 0.71904 0.13794 1.3337 1.2303 1.3337h5.6821c-1.7236-2.4672-4.7614-3.0949-6.6723-3.2332z" fill="url(#linearGradient2592-3)" stroke-width=".88492"/>
  <path d="m25.51 15.176c-1.4646 0.02228-3.8871 0.38973-6.3918 2.1906-0.60025 0.43156-1.2224 0.78603-1.8461 1.08h7.3754c0.86377 0 1.3601-0.3746 1.2389-1.3337l-0.2446-1.9366c-0.04429-4.6e-5 -0.08491-0.0012-0.13178-4.41e-4z" fill="url(#linearGradient2594-8)" stroke-width=".88492"/>
  <g stroke-width=".28614">
   <path d="m21.049 11.446h3.1375c0.28905 0 0.41726 0.13897 0.45784 0.45784l0.23995 1.8858c0.03202 0.25161-0.2042 0.45784-0.45784 0.45784h-3.6207c-0.25364 0-0.49029-0.20628-0.45784-0.45784l0.24327-1.8858c0.04024-0.31192 0.13842-0.45784 0.45784-0.45784z" fill="#7a8693" style="paint-order:fill markers stroke"/>
   <path d="m21.049 11.446h3.1375c0.28905 0 0.41692 0.13901 0.45784 0.45784l0.2328 1.8142c0.02922 0.22775-0.15411 0.45784-0.45068 0.45784h-3.6207c-0.37506 0-0.47475-0.33185-0.45784-0.45784l0.24327-1.8142c0.0418-0.3117 0.13842-0.45784 0.45784-0.45784z" fill="url(#linearGradient10689-8)" style="paint-order:fill markers stroke"/>
   <path d="m21.124 11.532h2.98c0.3194 0 0.40773 0.06119 0.45784 0.45784l0.20749 1.6422c0.0416 0.32931-0.12882 0.45784-0.42539 0.45784h-3.4633c-0.37506 0-0.45366-0.21095-0.42242-0.45784l0.20786-1.6422c0.04114-0.32493 0.09289-0.45784 0.45784-0.45784z" fill="url(#linearGradient10691-4)" style="paint-order:fill markers stroke"/>
  </g>
 </g>
</svg>
