<?xml version="1.0" encoding="UTF-8"?>
<!-- Created with Inkscape (http://www.inkscape.org/) -->
<svg width="64" height="64" version="1.1" viewBox="0 0 16.933 16.933" xmlns="http://www.w3.org/2000/svg" xmlns:cc="http://creativecommons.org/ns#" xmlns:dc="http://purl.org/dc/elements/1.1/" xmlns:rdf="http://www.w3.org/1999/02/22-rdf-syntax-ns#">
 <defs>
  <linearGradient id="linearGradient1005" x1="2.9667" x2="16.101" y1="14.069" y2=".93425" gradientTransform="matrix(.99997 0 0 .99997 -.035375 .39074)" gradientUnits="userSpaceOnUse">
   <stop stop-color="#ff682c" offset="0"/>
   <stop stop-color="#ff7e45" offset="1"/>
  </linearGradient>
 </defs>
 <metadata>
  <rdf:RDF>
   <cc:Work rdf:about="">
    <dc:format>image/svg+xml</dc:format>
    <dc:type rdf:resource="http://purl.org/dc/dcmitype/StillImage"/>
   </cc:Work>
  </rdf:RDF>
 </metadata>
 <g fill="#5e4aa6" stroke-width=".26458">
  <circle cx="-330.35" cy="-328.38" r="0"/>
  <circle cx="-312.11" cy="-326.25" r="0"/>
  <circle cx="-306.02" cy="-333.07" r="0"/>
  <circle cx="-308.84" cy="-326.01" r="0"/>
 </g>
 <path d="m16.404 8.8497c0 0.95152-0.16749 1.8638-0.47463 2.7094-0.2135 0.58767-0.49437 1.1433-0.8339 1.6572-0.14222 0.21607-0.29513 0.42474-0.45745 0.62527-0.51964 0.64178-1.1372 1.2006-1.8304 1.6542-0.25529 0.16717-0.52063 0.32009-0.79534 0.45711-1.0668 0.53388-2.271 0.83419-3.5455 0.83419s-2.4787-0.30031-3.5455-0.83421c-0.27473-0.13705-0.54039-0.28996-0.79568-0.45711-0.70205-0.45972-1.327-1.0274-1.8508-1.6798-0.16262-0.20216-0.31523-0.41274-0.45745-0.63076-0.33046-0.50538-0.6042-1.0507-0.81347-1.627-0.3071-0.84526-0.47429-1.7572-0.47429-2.7084 0-4.3837 3.5536-7.9373 7.9373-7.9373 2.2005 0 4.1916 0.89545 5.6294 2.3416 0.41435 0.4166 0.78272 0.87926 1.0962 1.3794 0.29644 0.47106 0.54426 0.97579 0.73702 1.5068 0.30718 0.84557 0.47465 1.7579 0.47465 2.7094z" fill="url(#linearGradient1005)" stroke-width=".031006"/>
 <g>
  <path d="m16.372 9.5681c-1.3886 1.7814-4.9028 4.9653-12.601 5.6817 0.11573 0.08506 0.23359 0.16714 0.35398 0.24598 0.25529 0.16715 0.52107 0.32028 0.7958 0.45733 1.0668 0.5339 2.2709 0.83404 3.5454 0.83404 1.2745 0 2.4787-0.30016 3.5455-0.83404 0.27471-0.13702 0.53999-0.29016 0.79528-0.45733 0.6932-0.4536 1.3107-1.0124 1.8303-1.6541 0.16232-0.20053 0.31511-0.4092 0.45733-0.62527 0.33953-0.5139 0.62054-1.0696 0.83404-1.6572 0.22899-0.63043 0.38065-1.2979 0.44286-1.9911z" fill="#e54200"/>
  <path d="m15.624 10.895s-2.2581 3.8288-10.246 4.5945c0 0 2.6725 1.4182 5.774 0.2547 2.0484-0.76843 4.2173-2.9358 4.4721-4.8492z" fill="#fff"/>
  <path d="m10.643 14.55v2.0683l1.0398-0.43347 1.005 0.39575v-2.0424z" fill="#38e901"/>
 </g>
 <rect x="10.939" y="14.886" width=".27131" height=".72218" ry=".13229" fill="#fff" fill-rule="evenodd" style="paint-order:stroke markers fill"/>
 <path d="m7.6006 4.214c-0.23984 0-0.43294 0.19309-0.43294 0.43295v3.4635c0 0.23985 0.19309 0.43295 0.43294 0.43295 0.23986 0 0.43295-0.19309 0.43295-0.43295v-3.0306h1.4432a2.0203 2.0203 0 0 1 2.0203 2.0203 2.0203 2.0203 0 0 1-2.0203 2.0203h-3.175v0.00731a1.8761 1.8761 0 0 0-1.7318 1.8687 1.8761 1.8761 0 0 0 1.8761 1.8761h1.1545c0.23984 0 0.43294-0.19309 0.43294-0.43295v-1.4432c0-0.23985-0.19309-0.43295-0.43294-0.43295-0.23986 0-0.43295 0.19309-0.43295 0.43295v1.0102h-0.72156a1.0102 1.0102 0 0 1-1.0102-1.0102 1.0102 1.0102 0 0 1 1.0102-1.0102h3.0306a2.8863 2.8863 0 0 0 2.8863-2.8863 2.8863 2.8863 0 0 0-2.8863-2.8863z" fill="#fff" fill-rule="evenodd" stroke-width="1.0909" style="paint-order:stroke fill markers"/>
</svg>
