<?xml version="1.0" encoding="UTF-8"?>
<svg width="64" height="64" version="1.1" viewBox="0 0 16.933 16.933" xmlns="http://www.w3.org/2000/svg" xmlns:cc="http://creativecommons.org/ns#" xmlns:dc="http://purl.org/dc/elements/1.1/" xmlns:rdf="http://www.w3.org/1999/02/22-rdf-syntax-ns#" xmlns:xlink="http://www.w3.org/1999/xlink">
 <defs>
  <linearGradient id="linearGradient1005-9" x1=".73911" x2="16.388" y1="16.296" y2=".64687" gradientTransform="matrix(.99997 0 0 .99997 8.8214 7.185)" gradientUnits="userSpaceOnUse">
   <stop stop-color="#6e7a83" offset="0"/>
   <stop stop-color="#848f93" offset="1"/>
  </linearGradient>
  <linearGradient id="linearGradient8014" x1="8.9886" x2="8.9886" y1="16.471" y2=".57478" gradientTransform="matrix(.83647 0 0 .83647 10.211 8.5683)" gradientUnits="userSpaceOnUse">
   <stop stop-color="#233736" offset="0"/>
   <stop stop-color="#232b2d" offset=".49214"/>
   <stop stop-color="#363f3e" offset="1"/>
  </linearGradient>
 </defs>
 <metadata>
  <rdf:RDF>
   <cc:Work rdf:about="">
    <dc:format>image/svg+xml</dc:format>
    <dc:type rdf:resource="http://purl.org/dc/dcmitype/StillImage"/>
   </cc:Work>
  </rdf:RDF>
 </metadata>
 <g transform="translate(-8.8568 -7.1784)">
  <path d="m25.261 15.645c0 0.95153-0.16749 1.8638-0.47463 2.7093-0.2135 0.58768-0.49439 1.1433-0.83392 1.6572-0.14222 0.21608-0.29514 0.42475-0.45746 0.62528-0.51963 0.64179-1.1372 1.2007-1.8304 1.6542-0.25529 0.16717-0.52064 0.32009-0.79535 0.45711-1.0668 0.53389-2.2711 0.83419-3.5456 0.83419s-2.4788-0.30032-3.5456-0.83422c-0.27474-0.13705-0.5404-0.28995-0.79569-0.45711-0.70206-0.45973-1.327-1.0274-1.8508-1.6798-0.16262-0.20216-0.31522-0.41274-0.45746-0.63075-0.33046-0.5054-0.60419-1.0507-0.81347-1.627-0.3071-0.84528-0.47428-1.7572-0.47428-2.7085 0-4.3838 3.5535-7.9373 7.9373-7.9373 2.2005 0 4.1917 0.89546 5.6294 2.3416 0.41436 0.4166 0.78273 0.87927 1.0963 1.3795 0.29643 0.47105 0.54426 0.97579 0.73704 1.5068 0.30718 0.84557 0.47465 1.7579 0.47465 2.7093z" fill="url(#linearGradient1005-9)" image-rendering="optimizeSpeed" stroke-width=".031006"/>
  <path d="m23.963 15.645c0 0.79595-0.1401 1.5591-0.39702 2.2663-0.17859 0.49159-0.41355 0.95636-0.69757 1.3862-0.11896 0.18075-0.24688 0.3553-0.38266 0.52304-0.43467 0.53685-0.95126 1.0044-1.5311 1.3837-0.21355 0.13984-0.43551 0.26775-0.6653 0.38237-0.89237 0.44659-1.8998 0.69779-2.9659 0.69779s-2.0735-0.25122-2.9659-0.69782c-0.22982-0.11464-0.45204-0.24254-0.66559-0.38237-0.58727-0.38456-1.11-0.85941-1.5482-1.4051-0.13603-0.1691-0.26368-0.34525-0.38266-0.52762-0.27643-0.42276-0.5054-0.8789-0.68046-1.361-0.25689-0.70707-0.39673-1.4699-0.39673-2.2656 0-3.667 2.9725-6.6395 6.6395-6.6395 1.8407 0 3.5063 0.74904 4.7089 1.9587 0.34661 0.34848 0.65475 0.7355 0.91704 1.1539 0.24796 0.39403 0.45527 0.81624 0.61653 1.2604 0.25695 0.70731 0.39704 1.4705 0.39704 2.2663z" fill="url(#linearGradient8014)" image-rendering="optimizeSpeed" stroke="#232b2d" stroke-width=".52916"/>
  <path d="m16.397 12.338-1.3229 3.1749h-2.9104v0.52916h3.3072l0.92602-2.2489 2.1166 5.4239 1.3229-3.1749h2.9104v-0.52916h-3.3072l-0.92602 2.2489z" opacity=".1" stroke-width=".26458"/>
  <path d="m16.133 12.073-1.3229 3.1749h-2.9104v0.52916h3.3072l0.92602-2.2489 2.1166 5.4239 1.3229-3.1749h2.9104v-0.52916h-3.3072l-0.92602 2.2489z" fill="#fffffe" stroke-width=".26458"/>
 </g>
</svg>
