<?xml version="1.0" encoding="UTF-8" standalone="no"?>
<svg
   xmlns:dc="http://purl.org/dc/elements/1.1/"
   xmlns:cc="http://creativecommons.org/ns#"
   xmlns:rdf="http://www.w3.org/1999/02/22-rdf-syntax-ns#"
   xmlns:svg="http://www.w3.org/2000/svg"
   xmlns="http://www.w3.org/2000/svg"
   xmlns:sodipodi="http://sodipodi.sourceforge.net/DTD/sodipodi-0.dtd"
   xmlns:inkscape="http://www.inkscape.org/namespaces/inkscape"
   width="64"
   height="64"
   version="1.1"
   id="svg58"
   sodipodi:docname="xorg.svg"
   inkscape:version="1.0 (4035a4fb49, 2020-05-01)">
  <metadata
     id="metadata62">
    <rdf:RDF>
      <cc:Work
         rdf:about="">
        <dc:format>image/svg+xml</dc:format>
        <dc:type
           rdf:resource="http://purl.org/dc/dcmitype/StillImage" />
        <dc:title></dc:title>
      </cc:Work>
    </rdf:RDF>
  </metadata>
  <sodipodi:namedview
     inkscape:document-rotation="0"
     pagecolor="#ffffff"
     bordercolor="#666666"
     borderopacity="1"
     objecttolerance="10"
     gridtolerance="10"
     guidetolerance="10"
     inkscape:pageopacity="0"
     inkscape:pageshadow="2"
     inkscape:window-width="1920"
     inkscape:window-height="932"
     id="namedview60"
     showgrid="false"
     inkscape:zoom="2.9804687"
     inkscape:cx="4.6345876"
     inkscape:cy="34.695773"
     inkscape:window-x="0"
     inkscape:window-y="36"
     inkscape:window-maximized="1"
     inkscape:current-layer="svg58" />
  <defs
     id="defs20">
    <linearGradient
       id="b"
       x1="10.973"
       x2="36.937"
       y1="24"
       y2="24"
       gradientTransform="matrix(1.502 0 0 1.5037 -3.9827 -3.342)"
       gradientUnits="userSpaceOnUse">
      <stop
         stop-color="#2a2c2f"
         offset="0"
         id="stop2" />
      <stop
         stop-color="#424649"
         offset="1"
         id="stop4" />
    </linearGradient>
    <linearGradient
       id="a"
       x1="319.21"
       x2="657.65"
       y1="235.15"
       y2="269.49"
       gradientTransform="matrix(.13235 0 0 .13075 -32.379 1.0873)"
       gradientUnits="userSpaceOnUse">
      <stop
         stop-color="#e54c18"
         offset="0"
         id="stop7" />
      <stop
         stop-color="#fec350"
         offset="1"
         id="stop9" />
    </linearGradient>
    <filter
       id="c"
       x="-.099574"
       y="-.11801"
       width="1.1991"
       height="1.236"
       color-interpolation-filters="sRGB">
      <feGaussianBlur
         stdDeviation="1.9913168"
         id="feGaussianBlur12" />
    </filter>
    <linearGradient
       id="linearGradient862-3"
       x1="7.9373"
       x2="7.9373"
       y1="15.081"
       y2="1.852"
       gradientTransform="matrix(3.7795 0 0 3.7795 .00014309 .031541)"
       gradientUnits="userSpaceOnUse">
      <stop
         stop-color="#f1efeb"
         offset="0"
         id="stop15" />
      <stop
         stop-color="#fdfcfc"
         offset="1"
         id="stop17" />
    </linearGradient>
    <linearGradient
       id="linearGradient862-3-36"
       x1="7.9373"
       x2="7.9373"
       y1="15.081"
       y2="1.852"
       gradientTransform="scale(3.7796)"
       gradientUnits="userSpaceOnUse">
      <stop
         stop-color="#1560ff"
         offset="0"
         id="stop2-7" />
      <stop
         stop-color="#15afff"
         offset="1"
         id="stop4-5" />
    </linearGradient>
    <linearGradient
       id="e"
       x1="540"
       x2="540"
       y1="4"
       y2="1024"
       gradientTransform="matrix(0.063557,0,0,0.063557,94.615,19.296)"
       gradientUnits="userSpaceOnUse">
      <stop
         stop-color="#c8c4b7"
         offset="0"
         id="stop2-3" />
      <stop
         stop-color="#888"
         offset="1"
         id="stop4-6" />
    </linearGradient>
    <linearGradient
       id="g"
       x1="500"
       x2="500"
       y1="4"
       y2="1024"
       gradientTransform="matrix(0.063762,0,0,0.063762,94.514,19.784)"
       gradientUnits="userSpaceOnUse">
      <stop
         stop-color="#fff"
         offset="0"
         id="stop7-35" />
      <stop
         stop-color="#e6e6e6"
         offset="1"
         id="stop9-6" />
    </linearGradient>
    <linearGradient
       id="h"
       x1="555.95"
       x2="555.95"
       y1="2.8539"
       y2="932.3"
       gradientTransform="matrix(0.063762,0,0,0.063762,94.514,19.784)"
       gradientUnits="userSpaceOnUse">
      <stop
         offset="0"
         id="stop12" />
      <stop
         stop-color="#666"
         offset="1"
         id="stop14" />
    </linearGradient>
    <linearGradient
       id="linearGradient862-3-7"
       x1="7.9373"
       x2="7.9373"
       y1="15.081"
       y2="1.852"
       gradientTransform="matrix(3.7796,0,0,3.7796,0,-5.9484605)"
       gradientUnits="userSpaceOnUse">
      <stop
         stop-color="#1560ff"
         offset="0"
         id="stop17-2" />
      <stop
         stop-color="#15afff"
         offset="1"
         id="stop19" />
    </linearGradient>
    <linearGradient
       id="linearGradient862-3-3"
       x1="7.9373"
       x2="7.9373"
       y1="15.081"
       y2="1.852"
       gradientTransform="matrix(3.7796,0,0,3.7796,0.26679227,3.6354286)"
       gradientUnits="userSpaceOnUse">
      <stop
         stop-color="#1560ff"
         offset="0"
         id="stop2-6" />
      <stop
         stop-color="#15afff"
         offset="1"
         id="stop4-7" />
    </linearGradient>
    <linearGradient
       id="linearGradient1007"
       x1="46"
       x2="46"
       y1="60"
       y2="30"
       gradientTransform="translate(-109.06282,-1.7736203)"
       gradientUnits="userSpaceOnUse">
      <stop
         stop-color="#ff425e"
         offset="0"
         id="stop7-53" />
      <stop
         stop-color="#ff6e4f"
         offset="1"
         id="stop9-5" />
    </linearGradient>
    <filter
       id="h-62"
       x="-.06"
       y="-.06"
       width="1.12"
       height="1.12"
       color-interpolation-filters="sRGB">
      <feGaussianBlur
         stdDeviation="0.85"
         id="feGaussianBlur2" />
    </filter>
    <linearGradient
       id="g-9"
       x1="32"
       x2="32"
       y1="15"
       y2="49"
       gradientTransform="matrix(1.0000071,0,0,1.0000071,-115.64624,-8.5943959e-7)"
       gradientUnits="userSpaceOnUse">
      <stop
         stop-color="#303030"
         offset="0"
         id="stop5" />
      <stop
         stop-color="#424242"
         offset="1"
         id="stop7-3" />
    </linearGradient>
    <linearGradient
       id="linearGradient862-3-67"
       x1="7.9373"
       x2="7.9373"
       y1="15.081"
       y2="1.852"
       gradientTransform="matrix(0.99996,0,0,0.99996,21.356329,0.0083453)"
       gradientUnits="userSpaceOnUse">
      <stop
         stop-color="#54c0cd"
         offset="0"
         id="stop10" />
      <stop
         stop-color="#40dd9d"
         offset="1"
         id="stop12-1" />
    </linearGradient>
    <filter
       id="h-6"
       x="-.06"
       y="-.06"
       width="1.12"
       height="1.12"
       color-interpolation-filters="sRGB">
      <feGaussianBlur
         stdDeviation="0.85"
         id="feGaussianBlur2-7" />
    </filter>
    <linearGradient
       id="g-5"
       x1="32"
       x2="32"
       y1="15"
       y2="49"
       gradientTransform="matrix(0.26458,0,0,0.26458,-22.458237,0)"
       gradientUnits="userSpaceOnUse">
      <stop
         stop-color="#303030"
         offset="0"
         id="stop5-3" />
      <stop
         stop-color="#424242"
         offset="1"
         id="stop7-5" />
    </linearGradient>
    <linearGradient
       id="linearGradient862-3-6"
       x1="7.9373"
       x2="7.9373"
       y1="15.081"
       y2="1.852"
       gradientTransform="matrix(0.99996,0,0,0.99996,-22.458199,0.0083453)"
       gradientUnits="userSpaceOnUse">
      <stop
         stop-color="#33db7f"
         offset="0"
         id="stop10-2" />
      <stop
         stop-color="#addf4f"
         offset="1"
         id="stop12-9" />
    </linearGradient>
    <linearGradient
       id="linearGradient862-3-9"
       x1="7.9373"
       x2="7.9373"
       y1="15.081"
       y2="1.852"
       gradientTransform="matrix(3.7795 0 0 3.7795 .000143 .031541)"
       gradientUnits="userSpaceOnUse">
      <stop
         stop-color="#f1efeb"
         offset="0"
         id="stop2-1" />
      <stop
         stop-color="#fdfcfc"
         offset="1"
         id="stop4-2" />
    </linearGradient>
    <linearGradient
       gradientTransform="translate(-140.69511,-41.490537)"
       id="linearGradient859"
       x1="33.201"
       x2="33.201"
       y1="49.576"
       y2="17.146"
       gradientUnits="userSpaceOnUse">
      <stop
         stop-color="#306fec"
         offset="0"
         id="stop7-7" />
      <stop
         stop-color="#33a5ff"
         offset="1"
         id="stop9-0" />
    </linearGradient>
    <filter
       id="filter867"
       x="-.11238"
       y="-.10395"
       width="1.2248"
       height="1.2079"
       color-interpolation-filters="sRGB">
      <feGaussianBlur
         stdDeviation="1.7324962"
         id="feGaussianBlur12-9" />
    </filter>
    <filter
       color-interpolation-filters="sRGB"
       height="1.1223"
       width="1.1178"
       y="-.061161"
       x="-.058883"
       id="d">
      <feGaussianBlur
         id="feGaussianBlur856"
         stdDeviation="10.562379" />
    </filter>
    <filter
       color-interpolation-filters="sRGB"
       height="1.12"
       width="1.12"
       y="-.06001"
       x="-.05999"
       id="filter883">
      <feGaussianBlur
         id="feGaussianBlur859"
         stdDeviation="0.21163584" />
    </filter>
    <linearGradient
       gradientUnits="userSpaceOnUse"
       gradientTransform="translate(0.25273651,0.81327969)"
       y2="62"
       y1="2"
       x2="32"
       x1="32"
       id="a-3">
      <stop
         id="stop862"
         offset="0"
         stop-color="#f5faff" />
      <stop
         id="stop864"
         offset="1"
         stop-color="#cfdef0" />
    </linearGradient>
    <filter
       id="h-62-7"
       x="-.06"
       y="-.06"
       width="1.12"
       height="1.12"
       color-interpolation-filters="sRGB">
      <feGaussianBlur
         stdDeviation="0.85"
         id="feGaussianBlur2-3" />
    </filter>
    <filter
       id="h-6-1"
       x="-.06"
       y="-.06"
       width="1.12"
       height="1.12"
       color-interpolation-filters="sRGB">
      <feGaussianBlur
         stdDeviation="0.85"
         id="feGaussianBlur2-7-9" />
    </filter>
    <filter
       color-interpolation-filters="sRGB"
       height="1.2079"
       width="1.2248"
       y="-.10395"
       x="-.11238"
       id="filter867-9">
      <feGaussianBlur
         id="feGaussianBlur12-1"
         stdDeviation="1.7324962" />
    </filter>
    <filter
       id="d-2"
       x="-.058883"
       y="-.061161"
       width="1.1178"
       height="1.1223"
       color-interpolation-filters="sRGB">
      <feGaussianBlur
         stdDeviation="10.562379"
         id="feGaussianBlur856-7" />
    </filter>
    <filter
       id="filter883-0"
       x="-.05999"
       y="-.06001"
       width="1.12"
       height="1.12"
       color-interpolation-filters="sRGB">
      <feGaussianBlur
         stdDeviation="0.21163584"
         id="feGaussianBlur859-9" />
    </filter>
  </defs>
  <circle
     cx="32"
     cy="32"
     r="30"
     fill="url(#a-3)"
     style="fill:url(#a-3);paint-order:stroke markers fill"
     id="circle869" />
  <g
     transform="matrix(1.4999,0,0,1.4999,-580.81,-753.64)"
     font-size="12.666px"
     stroke-width=".66672"
     id="g38">
    <text
       x="730.88"
       y="132.19"
       font-family="'Droid Sans'"
       stroke-width=".66672"
       id="text36" />
  </g>
  <g
     transform="matrix(1.4999 0 0 1.4999 -580.81 -753.64)"
     font-size="12.666px"
     stroke-width=".66672"
     id="g42">
    <text
       x="730.88"
       y="132.19"
       font-family="'Droid Sans'"
       stroke-width=".66672"
       id="text40" />
  </g>
  <rect
     x="64.965"
     y="29.793"
     width=".067495"
     height="0"
     fill="#000cff"
     opacity=".40741"
     id="rect44" />
  <g
     transform="matrix(.79702 0 0 .79492 5.8997 5.6603)"
     stroke-width="1.2563"
     id="g50">
    <path
       d="m12.934 52.982 14.724-19.274-15.159-21.192 9.7431 0.0081 12.079 16.663-18.06 23.794h-3.327zm28.819 0.01368-11.995-16.692 18.211-23.805h3.2447l-14.784 19.364 15.068 21.132z"
       fill="url(#b)"
       id="path46" />
    <path
       d="m31.996 19.892c-1.1714 0-2.4229 0.0896-3.5496 0.19646 2.0072 2.5862 3.6726 4.7762 5.5894 7.2634-1.0758-2.2872-3.2869-4.4805-2.5225-5.6084 0.75665-1.1166 2.1508-0.92862 2.257-0.92862 2.2351 0 4.3867 0.24939 6.3981 0.71095l0.47148-0.64149c-2.6828-0.68228-5.5967-0.99221-8.6439-0.99221zm12.106 2.0872-0.43426 0.61289c6.1972 2.3975 10.389 6.9768 10.389 12.225 0 7.7281-9.0876 13.998-20.286 13.998-11.199 0-20.29-6.2703-20.29-13.998 1e-6 -4.2085 2.6961-7.9862 6.9606-10.554l-1.3111-1.9735c-6.6896 2.8022-11.13 7.7207-11.13 13.32 0 8.7123 10.75 15.78 23.996 15.78 13.247 0 24-7.0675 24-15.78 0-5.8096-4.7807-10.89-11.895-13.631z"
       fill="url(#a)"
       id="path48" />
  </g>
  <g
     transform="matrix(.79702 0 0 .79492 5.8997 6.7669)"
     filter="url(#c)"
     opacity=".25"
     stroke-width="1.2563"
     id="g56">
    <path
       d="m12.934 52.982 14.724-19.274-15.159-21.192 9.7431 0.0081 12.079 16.663-18.06 23.794h-3.327zm28.819 0.01368-11.995-16.692 18.211-23.805h3.2447l-14.784 19.364 15.068 21.132z"
       id="path52" />
    <path
       d="m31.996 19.892c-1.1714 0-2.4229 0.0896-3.5496 0.19646 2.0072 2.5862 3.6726 4.7762 5.5894 7.2634-1.0758-2.2872-3.2869-4.4805-2.5225-5.6084 0.75665-1.1166 2.1508-0.92862 2.257-0.92862 2.2351 0 4.3867 0.24939 6.3981 0.71095l0.47148-0.64149c-2.6828-0.68228-5.5967-0.99221-8.6439-0.99221zm12.106 2.0872-0.43426 0.61289c6.1972 2.3975 10.389 6.9768 10.389 12.225 0 7.7281-9.0876 13.998-20.286 13.998-11.199 0-20.29-6.2703-20.29-13.998 1e-6 -4.2085 2.6961-7.9862 6.9606-10.554l-1.3111-1.9735c-6.6896 2.8022-11.13 7.7207-11.13 13.32 0 8.7123 10.75 15.78 23.996 15.78 13.247 0 24-7.0675 24-15.78 0-5.8096-4.7807-10.89-11.895-13.631z"
       id="path54" />
  </g>
  <path
     d="m -124.22111,-38.490537 c -7.4337,0 -13.47,6.2469 -13.47,13.938 v 32.125 c 0,7.6907 6.0364,13.938 13.47,13.938 h 31.054 c 7.4337,0 13.472,-6.2469 13.472,-13.938 v -32.125 c 0,-7.6907 -6.0383,-13.938 -13.472,-13.938 z m 1.0289,0.96875 h 28.996 c 6.9628,0 12.568,5.7987 12.568,13.002 v 29.998 c 0,7.2032 -5.6052,13.002 -12.568,13.002 h -28.996 c -6.9628,0 -12.568,-5.7987 -12.568,-13.002 v -29.998 c 0,-7.2032 5.6052,-13.002 12.568,-13.002 z"
     color="#000000"
     color-rendering="auto"
     dominant-baseline="auto"
     image-rendering="auto"
     opacity="0.01"
     solid-color="#000000"
     stop-color="#000000"
     stroke-width="3.7796"
     style="font-variant-ligatures:normal;font-variant-position:normal;font-variant-caps:normal;font-variant-numeric:normal;font-variant-alternates:normal;font-variant-east-asian:normal;font-feature-settings:normal;font-variation-settings:normal;text-indent:0;text-decoration:none;text-decoration-line:none;text-decoration-style:solid;text-decoration-color:#000000;text-transform:none;text-orientation:mixed;white-space:normal;shape-padding:0;shape-margin:0;inline-size:0;isolation:auto;mix-blend-mode:normal"
     id="path17" />
</svg>
