<?xml version="1.0" encoding="UTF-8"?>
<svg width="64" height="64" version="1.1" viewBox="0 0 16.933 16.933" xmlns="http://www.w3.org/2000/svg" xmlns:cc="http://creativecommons.org/ns#" xmlns:dc="http://purl.org/dc/elements/1.1/" xmlns:rdf="http://www.w3.org/1999/02/22-rdf-syntax-ns#" xmlns:xlink="http://www.w3.org/1999/xlink">
 <defs>
  <linearGradient id="linearGradient843" x1=".68725" x2="16.396" y1="16.231" y2=".55545" gradientTransform="matrix(.99998 0 0 .99998 22.584 9.696)" gradientUnits="userSpaceOnUse">
   <stop stop-color="#6e7a83" offset="0"/>
   <stop stop-color="#848f93" offset="1"/>
  </linearGradient>
  <linearGradient id="linearGradient847" x1="8.9169" x2="8.9169" y1="16.329" y2=".53023" gradientTransform="matrix(.83332 0 0 .83332 23.995 11.107)" gradientUnits="userSpaceOnUse">
   <stop stop-color="#233736" offset="0"/>
   <stop stop-color="#232c2d" offset=".4486"/>
   <stop stop-color="#363f3e" offset="1"/>
  </linearGradient>
 </defs>
 <metadata>
  <rdf:RDF>
   <cc:Work rdf:about="">
    <dc:format>image/svg+xml</dc:format>
    <dc:type rdf:resource="http://purl.org/dc/dcmitype/StillImage"/>
   </cc:Work>
  </rdf:RDF>
 </metadata>
 <g transform="translate(-22.584 -9.696)">
  <circle cx="31.05" cy="18.162" r="7.9373" fill="url(#linearGradient843)" stroke-linecap="round" stroke-width=".50198"/>
  <circle cx="31.05" cy="18.162" r="6.6145" fill="url(#linearGradient847)" stroke="#232b2d" stroke-linecap="round" stroke-width=".52916"/>
  <path d="m28.045 19.396h0.48606v-0.56952c0.56462-0.10801 0.86411-0.5057 0.86411-1.0409 0-1.0998-1.4925-1.0065-1.4925-1.6153 0-0.27003 0.16202-0.4075 0.45169-0.4075 0.25039 0 0.42714 0.1031 0.62844 0.28967l0.36332-0.41241c-0.21112-0.22585-0.46151-0.39769-0.81501-0.44678v-0.55971h-0.48606v0.56952c-0.51552 0.09819-0.83465 0.46642-0.83465 1.0016 0 1.0261 1.4925 0.96721 1.4925 1.63 0 0.27985-0.15711 0.43205-0.50079 0.43205-0.27985 0-0.54007-0.12274-0.8101-0.33386l-0.31913 0.48606c0.26021 0.23567 0.63826 0.38787 0.97212 0.42714z" fill="#6be54f" stroke-width=".12274"/>
  <rect x="30.406" y="14.634" width="2.3812" height="4.7624" fill="#6be54f" opacity=".35"/>
 </g>
</svg>
