<?xml version="1.0" encoding="UTF-8"?>
<svg width="64" height="64" version="1.1" xmlns="http://www.w3.org/2000/svg">
 <defs>
  <linearGradient id="linearGradient1100" x1="399.57" x2="399.57" y1="545.8" y2="517.8" gradientTransform="matrix(2.1429,0,0,2.1429,-826.36,-1107.5)" gradientUnits="userSpaceOnUse">
   <stop stop-color="#3889e9" offset="0"/>
   <stop stop-color="#5ea5fb" offset="1"/>
  </linearGradient>
  <radialGradient id="radialGradient1042" cx="12.171" cy="12.171" r="4.7624" gradientTransform="matrix(3.7796 0 0 3.7796 -.001 2.2574e-6)" gradientUnits="userSpaceOnUse">
   <stop offset="0"/>
   <stop stop-opacity="0" offset="1"/>
  </radialGradient>
  <filter id="filter10677" x="-.17623" y="-.12609" width="1.3525" height="1.2522" color-interpolation-filters="sRGB">
   <feGaussianBlur stdDeviation="1.6811947"/>
  </filter>
  <linearGradient id="linearGradient1033-3" x1="11.993" x2="11.993" y1="15.289" y2="8.3841" gradientTransform="matrix(3.7796 0 0 3.7796 56.802 21.036)" gradientUnits="userSpaceOnUse">
   <stop stop-color="#ff6e0a" offset="0"/>
   <stop stop-color="#ffc53d" offset="1"/>
  </linearGradient>
  <linearGradient id="c-3" x1="5.0379" x2="39.229" y1="20.562" y2="31.143" gradientTransform="matrix(1.4364 0 0 1.4364 -2.592 -4.7126)" gradientUnits="userSpaceOnUse">
   <stop stop-color="#76dd38" offset="0"/>
   <stop stop-color="#42c440" offset=".48433"/>
   <stop stop-color="#14ab4b" offset="1"/>
  </linearGradient>
 </defs>
 <circle cx="32" cy="32" r="30.001" color="#000000" fill="url(#c-3)" overflow="visible" style="isolation:auto;mix-blend-mode:normal"/>
 <circle cx="32.02" cy="32.044" r="0" fill="url(#linearGradient1100)" stroke-width="1.5715"/>
 <rect x="-.00099829" width="64" height="64" rx="0" ry="0" fill="none" stroke-linecap="round" stroke-linejoin="round" stroke-width="1.4464" style="paint-order:stroke fill markers"/>
 <circle cx="32.019" cy="32.044" r="30.001" fill-opacity="0" stroke-width="1.5715"/>
 <g transform="translate(-.001)" fill="#fff" stroke-linecap="square" stroke-width="7.5865" aria-label="y">
  <path d="m25.149 49.722h6.2816l3.5505-9.8777 8.4666-22.122h-5.7809l-5.5078 16.751-5.1892-16.751h-6.4182l8.6031 22.122z" fill="#000" filter="url(#filter10677)" opacity=".15"/>
  <path d="m25.149 48h6.2816l3.5505-9.8777 8.4666-22.122h-5.7809l-5.5078 16.751-5.1892-16.751h-6.4182l8.6031 22.122z"/>
 </g>
 <circle cx="46.001" cy="46.002" r="18" fill="url(#radialGradient1042)" stroke-width="4.252"/>
 <g transform="translate(-56.803 -20.036)">
  <circle cx="102.8" cy="66.038" r="16" fill="url(#linearGradient1033-3)" stroke-width="3.7796"/>
  <g transform="translate(55.681 20.285)" fill="#fff" stroke-linecap="square" stroke-width="3.8425" aria-label="P">
   <path d="m43.121 53.753h1.9135v-5.5793h2.7205c3.5735 0 5.9712-2.121 5.9712-5.3257 0-3.0663-2.2594-5.0951-5.6254-5.0951h-4.9798zm1.9135-7.2392v-7.1009h2.8357c2.3285 0 3.8963 1.5216 3.8963 3.781 0 2.1672-1.2911 3.3199-3.6657 3.3199z"/>
  </g>
 </g>
</svg>
