<?xml version="1.0" encoding="UTF-8"?>
<svg width="64" height="64" version="1.1" xmlns="http://www.w3.org/2000/svg" xmlns:cc="http://creativecommons.org/ns#" xmlns:dc="http://purl.org/dc/elements/1.1/" xmlns:rdf="http://www.w3.org/1999/02/22-rdf-syntax-ns#" xmlns:xlink="http://www.w3.org/1999/xlink">
 <metadata>
  <rdf:RDF>
   <cc:Work rdf:about="">
    <dc:format>image/svg+xml</dc:format>
    <dc:type rdf:resource="http://purl.org/dc/dcmitype/StillImage"/>
   </cc:Work>
  </rdf:RDF>
 </metadata>
 <defs>
  <linearGradient id="linearGradient2827" x1="31.988" x2="31.988" y1="4.9797" y2="59.136" gradientUnits="userSpaceOnUse">
   <stop stop-color="#e4e4e4" offset="0"/>
   <stop stop-color="#bcbdbe" offset="1"/>
  </linearGradient>
  <linearGradient id="linearGradient7162" x1="31.988" x2="31.988" y1="4.9797" y2="59.136" gradientTransform="matrix(.89655 0 0 .89655 3.3103 3.3103)" gradientUnits="userSpaceOnUse">
   <stop stop-color="#5e6c9f" offset="0"/>
   <stop stop-color="#797aa0" offset="1"/>
  </linearGradient>
  <linearGradient id="linearGradient14467" x1="31.988" x2="31.988" y1="4.9797" y2="59.136" gradientTransform="matrix(.84483 0 0 .84483 4.9655 4.9655)" gradientUnits="userSpaceOnUse">
   <stop stop-color="#1a2675" offset="0"/>
   <stop stop-color="#003" offset="1"/>
  </linearGradient>
  <linearGradient id="linearGradient20992" x1="31.988" x2="31.988" y1="34.261" y2="59.136" gradientTransform="matrix(.7931 0 0 .7931 6.6207 6.6207)" gradientUnits="userSpaceOnUse">
   <stop stop-color="#00084a" offset="0"/>
   <stop stop-color="#00084a" offset="1"/>
  </linearGradient>
  <linearGradient id="linearGradient23814" x1="27.815" x2="27.815" y1="4.1112" y2="29.918" gradientTransform="matrix(.7931 0 0 .7931 6.6207 6.6207)" gradientUnits="userSpaceOnUse">
   <stop stop-color="#404e89" offset="0"/>
   <stop stop-color="#172062" offset="1"/>
  </linearGradient>
  <linearGradient id="linearGradient27923" x1="21.664" x2="21.664" y1="18.949" y2="45.084" gradientTransform="matrix(.79931 0 0 .79931 8.4587 6.4221)" gradientUnits="userSpaceOnUse">
   <stop stop-color="#4291ff" offset="0"/>
   <stop stop-color="#0f37f6" offset="1"/>
  </linearGradient>
  <linearGradient id="linearGradient27925" x1="24.608" x2="24.608" y1="46.403" y2="18.667" gradientTransform="matrix(.79931 0 0 .79931 8.4587 6.4221)" gradientUnits="userSpaceOnUse">
   <stop stop-color="#2b4ae6" offset="0"/>
   <stop stop-color="#9de4ff" offset="1"/>
  </linearGradient>
 </defs>
 <g fill-rule="evenodd" stroke-linecap="round" stroke-linejoin="round" stroke-opacity=".76863">
  <circle cx="32" cy="32" r="30" fill="#8c8c8c" stroke-width="1.4048" style="paint-order:stroke fill markers"/>
  <circle cx="32" cy="32" r="29" fill="url(#linearGradient2827)" stroke-width="1.358" style="paint-order:stroke fill markers"/>
  <circle cx="32" cy="32" r="26" fill="url(#linearGradient7162)" stroke-width="1.2175" style="paint-order:stroke fill markers"/>
  <circle cx="32" cy="32" r="24.5" fill="url(#linearGradient14467)" stroke-width="1.1473" style="paint-order:stroke fill markers"/>
  <path d="m9 32a23 23 0 0 0 23 23 23 23 0 0 0 23-23h-46z" fill="url(#linearGradient20992)" stroke-width="1.077" style="paint-order:stroke fill markers"/>
  <path d="m9 32h46a23 23 0 0 0-23-23 23 23 0 0 0-23 23z" fill="url(#linearGradient23814)" stroke-width="1.077" style="paint-order:stroke fill markers"/>
 </g>
 <path d="m43.736 30.163-17.279-9.9741c-1.4116-0.81573-3.1782 0.20393-3.1782 1.8354v19.951c0 1.6315 1.7665 2.6511 3.1782 1.8354l17.279-9.9768c1.4116-0.81573 1.4116-2.855 0-3.6708z" fill="url(#linearGradient27923)" stroke="url(#linearGradient27925)" stroke-width=".79932" p-id="2382"/>
</svg>
