<?xml version="1.0" encoding="UTF-8"?>
<svg id="Apps-Opera" width="64" height="64" enable-background="new 0 0 1024 1024" image-rendering="optimizeSpeed" version="1.1" viewBox="0 0 64 64" xmlns="http://www.w3.org/2000/svg" xmlns:cc="http://creativecommons.org/ns#" xmlns:dc="http://purl.org/dc/elements/1.1/" xmlns:rdf="http://www.w3.org/1999/02/22-rdf-syntax-ns#" xmlns:xlink="http://www.w3.org/1999/xlink">
 <circle cx="-238.16" cy="1.6791" r="0" fill="#5e4aa6" fill-rule="evenodd"/>
 <metadata>
  <rdf:RDF>
   <cc:Work rdf:about="">
    <dc:format>image/svg+xml</dc:format>
    <dc:type rdf:resource="http://purl.org/dc/dcmitype/StillImage"/>
   </cc:Work>
  </rdf:RDF>
 </metadata>
 <defs>
  <filter id="filter1272" x="-.094272" y="-.090466" width="1.1885" height="1.1809" color-interpolation-filters="sRGB">
   <feGaussianBlur stdDeviation="0.39771105"/>
  </filter>
  <filter id="filter1066-3-3" x="-.063923" y="-.056531" width="1.1278" height="1.1131" color-interpolation-filters="sRGB">
   <feGaussianBlur stdDeviation="0.22705935"/>
  </filter>
  <linearGradient id="linearGradient1040" x1="80.368" x2="82.141" y1="13.177" y2="14.704" gradientTransform="matrix(3.8684 0 0 3.8684 -177.51 28.13)" gradientUnits="userSpaceOnUse">
   <stop stop-color="#e4e6e9" offset="0"/>
   <stop stop-color="#2f3240" offset="1"/>
  </linearGradient>
  <linearGradient id="linearGradient1123" x1="31.722" x2="31.722" y1="16.839" y2="47.365" gradientTransform="translate(87.793 37.355)" gradientUnits="userSpaceOnUse">
   <stop stop-color="#fefefe" offset="0"/>
   <stop stop-color="#cdcdcd" offset="1"/>
  </linearGradient>
 </defs>
 <circle cx="-1248.7" cy="-1241.6" r="0" fill="#5e4aa6"/>
 <circle cx="-1337.7" cy="-1263.8" r="0" fill="#5e4aa6"/>
 <g transform="translate(-87.763 -37.354)">
  <circle cx="119.52" cy="69.512" r="30" color="#000000" fill="#333644"/>
  <path transform="matrix(3.3629 0 0 3.6782 -47.615 20.569)" d="m57.641 9.8253c0.81583 3.5615-6.4071 9.5974-9.8786 10.551l4.6899-0.01017c4.0983-2.6261 3.5124-2.2804 5.4351-4.4455z" fill="#323543" filter="url(#filter1272)" opacity=".2"/>
  <path d="m119.26 39.113a30 30.173 0 0 0-30 30.174 30 30.173 0 0 0 20.932 28.75l2.0137-0.22787c14.201-3.9285 34.19-16.084 34.981-39.535a30 30.173 0 0 0-27.926-19.161zm27.994 19.342 1.6836 14.985a30 30.173 0 0 0 2e-3 -0.0079l-1.6797-14.959a30 30.173 0 0 0-6e-3 -0.01769z" color="#000000" fill="#2f3240" stroke-width="1.0029"/>
  <path transform="matrix(4.1561 0 0 3.9009 -92.675 21.525)" d="m57.818 9.8288s0.05354 3.0782-2.6636 4.5408c-2.2449 1.2084 0.9386 2.689-5.8599 5.0989 8.8505-2.5748 8.5235-9.6396 8.5235-9.6396z" fill="#141414" filter="url(#filter1066-3-3)" opacity=".3"/>
  <path transform="matrix(4.0385 0 0 3.7631 -85.485 24.067)" d="m57.818 9.8288s0.05354 3.0782-2.6636 4.5408c-2.2449 1.2084 0.9386 2.689-5.8599 5.0989 8.8505-2.5748 8.5235-9.6396 8.5235-9.6396z" fill="#141414" filter="url(#filter1066-3-3)" opacity=".3"/>
  <path d="m146.34 59.484s0.20712 11.908-10.304 17.566c-8.684 4.6746 3.6309 10.402-22.669 19.725 34.237-9.9604 33.244-37.154 33.244-37.154z" fill="url(#linearGradient1040)" stroke-width="3.8684"/>
  <path d="m146.34 59.484s-0.72965 12.1-9.6943 17.056c-10.313 5.7023 3.7542 10.798-23.416 20.025" fill="none" stroke="#323541" stroke-width=".51176"/>
  <path d="m147.26 58.455 1.6836 14.984a30 30.173 0 0 0 2e-3 -0.0078l-1.6797-14.959a30 30.173 0 0 0-4e-3 -0.01758h-2e-3z" color="#000000" fill="#fafafa" stroke-width="1.0029"/>
  <path d="m147.26 58.454 1.6836 14.985a30 30.173 0 0 0 2e-3 -0.0079l-1.6797-14.959a30 30.173 0 0 0-6e-3 -0.01769z" color="#000000" fill="#fafafa" stroke-width="1.0029"/>
  <path d="m127.89 54.099-20.137 2.5703 0.73437 5.7539 11.01-1.4062-10.088 19.686 0.5 3.918 21.922-2.7969-0.73437-5.7539-12.846 1.6406 10.139-19.693z" fill="url(#linearGradient1123)"/>
 </g>
</svg>
